G04 #@! TF.GenerationSoftware,KiCad,Pcbnew,(5.1.9)-1*
G04 #@! TF.CreationDate,2021-03-14T10:57:35-07:00*
G04 #@! TF.ProjectId,rgba,72676261-2e6b-4696-9361-645f70636258,1*
G04 #@! TF.SameCoordinates,Original*
G04 #@! TF.FileFunction,Copper,L2,Inr*
G04 #@! TF.FilePolarity,Positive*
%FSLAX46Y46*%
G04 Gerber Fmt 4.6, Leading zero omitted, Abs format (unit mm)*
G04 Created by KiCad (PCBNEW (5.1.9)-1) date 2021-03-14 10:57:35*
%MOMM*%
%LPD*%
G01*
G04 APERTURE LIST*
G04 #@! TA.AperFunction,ComponentPad*
%ADD10C,0.400000*%
G04 #@! TD*
G04 #@! TA.AperFunction,ComponentPad*
%ADD11C,1.000000*%
G04 #@! TD*
G04 #@! TA.AperFunction,ComponentPad*
%ADD12C,0.700000*%
G04 #@! TD*
G04 #@! TA.AperFunction,ComponentPad*
%ADD13C,4.400000*%
G04 #@! TD*
G04 #@! TA.AperFunction,ComponentPad*
%ADD14C,0.500000*%
G04 #@! TD*
G04 #@! TA.AperFunction,ComponentPad*
%ADD15O,1.000000X1.600000*%
G04 #@! TD*
G04 #@! TA.AperFunction,ViaPad*
%ADD16C,0.800000*%
G04 #@! TD*
G04 #@! TA.AperFunction,ViaPad*
%ADD17C,0.400000*%
G04 #@! TD*
G04 #@! TA.AperFunction,Conductor*
%ADD18C,0.254000*%
G04 #@! TD*
G04 #@! TA.AperFunction,Conductor*
%ADD19C,0.100000*%
G04 #@! TD*
G04 APERTURE END LIST*
D10*
X119320000Y-105460000D03*
X120320000Y-105460000D03*
D11*
X82600000Y-106600000D03*
X81900000Y-108100000D03*
X82750000Y-109500000D03*
X84400000Y-109400000D03*
X85400000Y-110800000D03*
X83500000Y-108000000D03*
D12*
X107916726Y-111333274D03*
X106750000Y-110850000D03*
X105583274Y-111333274D03*
X105100000Y-112500000D03*
X105583274Y-113666726D03*
X106750000Y-114150000D03*
X107916726Y-113666726D03*
X108400000Y-112500000D03*
D13*
X106750000Y-112500000D03*
D12*
X117166726Y-94083274D03*
X116000000Y-93600000D03*
X114833274Y-94083274D03*
X114350000Y-95250000D03*
X114833274Y-96416726D03*
X116000000Y-96900000D03*
X117166726Y-96416726D03*
X117650000Y-95250000D03*
D13*
X116000000Y-95250000D03*
D14*
X102508000Y-100288000D03*
X102508000Y-99188000D03*
D15*
X110520000Y-93800000D03*
X101880000Y-93800000D03*
X101880000Y-90000000D03*
X110520000Y-90000000D03*
D16*
X90750000Y-98000000D03*
X91300000Y-103400000D03*
X93600000Y-111000000D03*
D17*
X95982990Y-111817010D03*
D16*
X93600000Y-110000000D03*
X92800000Y-103400000D03*
X99500000Y-95300000D03*
D17*
X83720000Y-105350000D03*
X84100000Y-103330000D03*
X84630000Y-103760000D03*
X85930000Y-107470000D03*
X84820000Y-106290000D03*
X84270000Y-105590000D03*
X93960000Y-103190000D03*
X91770000Y-104290000D03*
X90510000Y-104220000D03*
X100140000Y-114470000D03*
D16*
X103100000Y-90000000D03*
X109300000Y-90000000D03*
D17*
X104286000Y-100500000D03*
X104286000Y-101008000D03*
D16*
X117600000Y-103500000D03*
X104000000Y-110500000D03*
X80900000Y-111500000D03*
X81900000Y-111500000D03*
X101400000Y-113200000D03*
X81300000Y-102000000D03*
D17*
X96600000Y-115000000D03*
X96600000Y-114500000D03*
X93700000Y-114500000D03*
X93700000Y-115000000D03*
D16*
X88900000Y-96100000D03*
X87000000Y-96100000D03*
X109600000Y-100000000D03*
X94980000Y-107680000D03*
X110000000Y-111000000D03*
X97250000Y-104750000D03*
X99250000Y-106500000D03*
X97250000Y-106500000D03*
X83500000Y-110500000D03*
X122600000Y-107250000D03*
D17*
X120495000Y-106135000D03*
X119595000Y-106155000D03*
D16*
X121250000Y-98000000D03*
D17*
X98000000Y-102250000D03*
X98500000Y-102250000D03*
X99000000Y-102250000D03*
X99500000Y-102250000D03*
X100000000Y-102250000D03*
X96500000Y-102250000D03*
X97000000Y-102250000D03*
D16*
X94750000Y-103500000D03*
X99250000Y-104750000D03*
D17*
X96249500Y-111000500D03*
X97127750Y-110622250D03*
X96517250Y-110267250D03*
X101400000Y-100900000D03*
D16*
X101600000Y-98000000D03*
D17*
X99600000Y-109170000D03*
D16*
X110700000Y-102400000D03*
X110500000Y-109800000D03*
X91500000Y-107700000D03*
X91500000Y-108600000D03*
D17*
X112380000Y-99080000D03*
X118700000Y-109300000D03*
X112500000Y-99700000D03*
D16*
X117940000Y-109180000D03*
D17*
X122680000Y-102930000D03*
D16*
X122750000Y-105700000D03*
D17*
X119475000Y-104775000D03*
D16*
X115720000Y-105600000D03*
X117400000Y-105650000D03*
X118240000Y-110600000D03*
X113730000Y-109150000D03*
X104790000Y-108980000D03*
X103280000Y-113250000D03*
X117750000Y-112750000D03*
X119353333Y-112990000D03*
X119330000Y-114370000D03*
X121286666Y-112990000D03*
X121280000Y-114370000D03*
X123220000Y-112990000D03*
X123230000Y-114370000D03*
X121100000Y-100300000D03*
X122770000Y-96230000D03*
X120810000Y-96230000D03*
X119070000Y-93730000D03*
X120660000Y-92750000D03*
X122710000Y-92760000D03*
X110000000Y-92200000D03*
X107450000Y-92300000D03*
X104900000Y-92300000D03*
X89760000Y-108260000D03*
X88810000Y-109560000D03*
X90460000Y-110140000D03*
X87640000Y-102190000D03*
X81260000Y-92760000D03*
X82760000Y-92760000D03*
X84260000Y-92760000D03*
X81260000Y-94260000D03*
X82760000Y-94260000D03*
X84260000Y-94260000D03*
X81260000Y-95760000D03*
X82760000Y-95760000D03*
X84260000Y-95760000D03*
X85320000Y-90750000D03*
X91080000Y-96940000D03*
X92920000Y-91540000D03*
D17*
X112260000Y-101100000D03*
D16*
X103360000Y-103440000D03*
X121960000Y-106370000D03*
D17*
X98880000Y-101520000D03*
X99520000Y-101570000D03*
X102860000Y-102410000D03*
X101740000Y-101540000D03*
D16*
X106800000Y-99330000D03*
X105240000Y-98010000D03*
X81680000Y-105000000D03*
D17*
X100760000Y-114460000D03*
X108260000Y-101500000D03*
X106340000Y-101130000D03*
D16*
X98200000Y-97300000D03*
X93500000Y-97200000D03*
X93500000Y-94500000D03*
X94600000Y-95600000D03*
D17*
X97300000Y-95100000D03*
X97400000Y-95700000D03*
D16*
X97900000Y-98300000D03*
X100800000Y-95300000D03*
X103400000Y-95500000D03*
X102000000Y-95300000D03*
X110600000Y-95300000D03*
X109000000Y-95500000D03*
D17*
X118800000Y-90450000D03*
X112550000Y-90550000D03*
D16*
X105700000Y-99100000D03*
X106435000Y-98365000D03*
X119740000Y-108810000D03*
X119730000Y-109860000D03*
X114500000Y-98900000D03*
X113500000Y-98900000D03*
X87000000Y-94000000D03*
X99200000Y-114600000D03*
X88270999Y-94000000D03*
X87000000Y-91000000D03*
X107700000Y-93400000D03*
X104700000Y-93400000D03*
X88250000Y-90000000D03*
X80800000Y-104400000D03*
D17*
X93900000Y-104100000D03*
X112850000Y-89650000D03*
X106900000Y-100313186D03*
X119150000Y-89600000D03*
X107600000Y-100900000D03*
D16*
X83400000Y-104300000D03*
X85400000Y-105400000D03*
X86400000Y-106200000D03*
D18*
X87254774Y-89698102D02*
X87215000Y-89898061D01*
X87215000Y-89987489D01*
X87101939Y-89965000D01*
X86898061Y-89965000D01*
X86698102Y-90004774D01*
X86509744Y-90082795D01*
X86340226Y-90196063D01*
X86196063Y-90340226D01*
X86082795Y-90509744D01*
X86004774Y-90698102D01*
X85965000Y-90898061D01*
X85965000Y-91101939D01*
X86004774Y-91301898D01*
X86082795Y-91490256D01*
X86196063Y-91659774D01*
X86340226Y-91803937D01*
X86509744Y-91917205D01*
X86698102Y-91995226D01*
X86898061Y-92035000D01*
X87101939Y-92035000D01*
X87301898Y-91995226D01*
X87490256Y-91917205D01*
X87659774Y-91803937D01*
X87803937Y-91659774D01*
X87917205Y-91490256D01*
X87995226Y-91301898D01*
X88035000Y-91101939D01*
X88035000Y-91012511D01*
X88148061Y-91035000D01*
X88351939Y-91035000D01*
X88551898Y-90995226D01*
X88740256Y-90917205D01*
X88909774Y-90803937D01*
X89053937Y-90659774D01*
X89167205Y-90490256D01*
X89245226Y-90301898D01*
X89280015Y-90127000D01*
X100745000Y-90127000D01*
X100745000Y-90427000D01*
X100791585Y-90645987D01*
X100879997Y-90851678D01*
X101006839Y-91036169D01*
X101167236Y-91192369D01*
X101355024Y-91314276D01*
X101578126Y-91394119D01*
X101753000Y-91267954D01*
X101753000Y-90127000D01*
X102007000Y-90127000D01*
X102007000Y-91267954D01*
X102181874Y-91394119D01*
X102404976Y-91314276D01*
X102592764Y-91192369D01*
X102753161Y-91036169D01*
X102880003Y-90851678D01*
X102968415Y-90645987D01*
X103015000Y-90427000D01*
X103015000Y-90127000D01*
X109385000Y-90127000D01*
X109385000Y-90427000D01*
X109431585Y-90645987D01*
X109519997Y-90851678D01*
X109646839Y-91036169D01*
X109807236Y-91192369D01*
X109995024Y-91314276D01*
X110218126Y-91394119D01*
X110393000Y-91267954D01*
X110393000Y-90127000D01*
X110647000Y-90127000D01*
X110647000Y-91267954D01*
X110821874Y-91394119D01*
X111044976Y-91314276D01*
X111232764Y-91192369D01*
X111393161Y-91036169D01*
X111520003Y-90851678D01*
X111608415Y-90645987D01*
X111655000Y-90427000D01*
X111655000Y-90127000D01*
X110647000Y-90127000D01*
X110393000Y-90127000D01*
X109385000Y-90127000D01*
X103015000Y-90127000D01*
X102007000Y-90127000D01*
X101753000Y-90127000D01*
X100745000Y-90127000D01*
X89280015Y-90127000D01*
X89285000Y-90101939D01*
X89285000Y-89898061D01*
X89245226Y-89698102D01*
X89229444Y-89660000D01*
X100745000Y-89660000D01*
X100745000Y-89873000D01*
X101753000Y-89873000D01*
X101753000Y-89853000D01*
X102007000Y-89853000D01*
X102007000Y-89873000D01*
X103015000Y-89873000D01*
X103015000Y-89660000D01*
X109385000Y-89660000D01*
X109385000Y-89873000D01*
X110393000Y-89873000D01*
X110393000Y-89853000D01*
X110647000Y-89853000D01*
X110647000Y-89873000D01*
X111655000Y-89873000D01*
X111655000Y-89660000D01*
X112015000Y-89660000D01*
X112015000Y-89732240D01*
X112047089Y-89893560D01*
X112110033Y-90045521D01*
X112201413Y-90182281D01*
X112317719Y-90298587D01*
X112454479Y-90389967D01*
X112606440Y-90452911D01*
X112767760Y-90485000D01*
X112932240Y-90485000D01*
X113093560Y-90452911D01*
X113245521Y-90389967D01*
X113382281Y-90298587D01*
X113498587Y-90182281D01*
X113589967Y-90045521D01*
X113652911Y-89893560D01*
X113685000Y-89732240D01*
X113685000Y-89660000D01*
X118315000Y-89660000D01*
X118315000Y-89682240D01*
X118347089Y-89843560D01*
X118410033Y-89995521D01*
X118501413Y-90132281D01*
X118617719Y-90248587D01*
X118754479Y-90339967D01*
X118906440Y-90402911D01*
X119067760Y-90435000D01*
X119232240Y-90435000D01*
X119393560Y-90402911D01*
X119545521Y-90339967D01*
X119682281Y-90248587D01*
X119798587Y-90132281D01*
X119889967Y-89995521D01*
X119952911Y-89843560D01*
X119985000Y-89682240D01*
X119985000Y-89660000D01*
X122967723Y-89660000D01*
X123162540Y-89679102D01*
X123318894Y-89726308D01*
X123463096Y-89802982D01*
X123589663Y-89906207D01*
X123693769Y-90032051D01*
X123771447Y-90175711D01*
X123819742Y-90331729D01*
X123840000Y-90524473D01*
X123840001Y-113967712D01*
X123820898Y-114162540D01*
X123773692Y-114318895D01*
X123697018Y-114463096D01*
X123593792Y-114589664D01*
X123467951Y-114693768D01*
X123324289Y-114771447D01*
X123168271Y-114819742D01*
X122975527Y-114840000D01*
X108342980Y-114840000D01*
X108560170Y-114489775D01*
X106750000Y-112679605D01*
X104939830Y-114489775D01*
X105157020Y-114840000D01*
X100207538Y-114840000D01*
X100235000Y-114701939D01*
X100235000Y-114498061D01*
X100195226Y-114298102D01*
X100117205Y-114109744D01*
X100003937Y-113940226D01*
X99859774Y-113796063D01*
X99690256Y-113682795D01*
X99501898Y-113604774D01*
X99301939Y-113565000D01*
X99098061Y-113565000D01*
X98898102Y-113604774D01*
X98709744Y-113682795D01*
X98540226Y-113796063D01*
X98396063Y-113940226D01*
X98282795Y-114109744D01*
X98204774Y-114298102D01*
X98165000Y-114498061D01*
X98165000Y-114701939D01*
X98192462Y-114840000D01*
X80532277Y-114840000D01*
X80337460Y-114820898D01*
X80181105Y-114773692D01*
X80036904Y-114697018D01*
X79927000Y-114607383D01*
X79927000Y-110278166D01*
X82151439Y-110278166D01*
X82186550Y-110491588D01*
X82390826Y-110582458D01*
X82608905Y-110631731D01*
X82832406Y-110637511D01*
X83052740Y-110599577D01*
X83261440Y-110519387D01*
X83313450Y-110491588D01*
X83348561Y-110278166D01*
X82750000Y-109679605D01*
X82151439Y-110278166D01*
X79927000Y-110278166D01*
X79927000Y-107988212D01*
X80765000Y-107988212D01*
X80765000Y-108211788D01*
X80808617Y-108431067D01*
X80894176Y-108637624D01*
X81018388Y-108823520D01*
X81176480Y-108981612D01*
X81362376Y-109105824D01*
X81568933Y-109191383D01*
X81652369Y-109207979D01*
X81618269Y-109358905D01*
X81612489Y-109582406D01*
X81650423Y-109802740D01*
X81730613Y-110011440D01*
X81758412Y-110063450D01*
X81971834Y-110098561D01*
X82570395Y-109500000D01*
X82556253Y-109485858D01*
X82735858Y-109306253D01*
X82750000Y-109320395D01*
X82764143Y-109306253D01*
X82943748Y-109485858D01*
X82929605Y-109500000D01*
X83448439Y-110018834D01*
X83518388Y-110123520D01*
X83676480Y-110281612D01*
X83862376Y-110405824D01*
X84068933Y-110491383D01*
X84288212Y-110535000D01*
X84295476Y-110535000D01*
X84265000Y-110688212D01*
X84265000Y-110911788D01*
X84308617Y-111131067D01*
X84394176Y-111337624D01*
X84518388Y-111523520D01*
X84676480Y-111681612D01*
X84862376Y-111805824D01*
X85068933Y-111891383D01*
X85288212Y-111935000D01*
X85511788Y-111935000D01*
X85731067Y-111891383D01*
X85937624Y-111805824D01*
X86123520Y-111681612D01*
X86281612Y-111523520D01*
X86405824Y-111337624D01*
X86491383Y-111131067D01*
X86535000Y-110911788D01*
X86535000Y-110688212D01*
X86491383Y-110468933D01*
X86405824Y-110262376D01*
X86281612Y-110076480D01*
X86123520Y-109918388D01*
X86093099Y-109898061D01*
X92565000Y-109898061D01*
X92565000Y-110101939D01*
X92604774Y-110301898D01*
X92682795Y-110490256D01*
X92689306Y-110500000D01*
X92682795Y-110509744D01*
X92604774Y-110698102D01*
X92565000Y-110898061D01*
X92565000Y-111101939D01*
X92604774Y-111301898D01*
X92682795Y-111490256D01*
X92796063Y-111659774D01*
X92940226Y-111803937D01*
X93109744Y-111917205D01*
X93298102Y-111995226D01*
X93498061Y-112035000D01*
X93701939Y-112035000D01*
X93901898Y-111995226D01*
X94090256Y-111917205D01*
X94259774Y-111803937D01*
X94328941Y-111734770D01*
X95147990Y-111734770D01*
X95147990Y-111899250D01*
X95180079Y-112060570D01*
X95243023Y-112212531D01*
X95334403Y-112349291D01*
X95450709Y-112465597D01*
X95587469Y-112556977D01*
X95739430Y-112619921D01*
X95900750Y-112652010D01*
X96065230Y-112652010D01*
X96226550Y-112619921D01*
X96378511Y-112556977D01*
X96441073Y-112515174D01*
X103901322Y-112515174D01*
X103959019Y-113070632D01*
X104123972Y-113604161D01*
X104372982Y-114070024D01*
X104760225Y-114310170D01*
X106570395Y-112500000D01*
X106929605Y-112500000D01*
X108739775Y-114310170D01*
X109127018Y-114070024D01*
X109387641Y-113576123D01*
X109546901Y-113040867D01*
X109598678Y-112484826D01*
X109540981Y-111929368D01*
X109376028Y-111395839D01*
X109127018Y-110929976D01*
X108739775Y-110689830D01*
X106929605Y-112500000D01*
X106570395Y-112500000D01*
X104760225Y-110689830D01*
X104372982Y-110929976D01*
X104112359Y-111423877D01*
X103953099Y-111959133D01*
X103901322Y-112515174D01*
X96441073Y-112515174D01*
X96515271Y-112465597D01*
X96631577Y-112349291D01*
X96722957Y-112212531D01*
X96785901Y-112060570D01*
X96817990Y-111899250D01*
X96817990Y-111734770D01*
X96785901Y-111573450D01*
X96722957Y-111421489D01*
X96631577Y-111284729D01*
X96515271Y-111168423D01*
X96378511Y-111077043D01*
X96226550Y-111014099D01*
X96065230Y-110982010D01*
X95900750Y-110982010D01*
X95739430Y-111014099D01*
X95587469Y-111077043D01*
X95450709Y-111168423D01*
X95334403Y-111284729D01*
X95243023Y-111421489D01*
X95180079Y-111573450D01*
X95147990Y-111734770D01*
X94328941Y-111734770D01*
X94403937Y-111659774D01*
X94517205Y-111490256D01*
X94595226Y-111301898D01*
X94635000Y-111101939D01*
X94635000Y-110898061D01*
X94595226Y-110698102D01*
X94517405Y-110510225D01*
X104939830Y-110510225D01*
X106750000Y-112320395D01*
X108560170Y-110510225D01*
X108320024Y-110122982D01*
X107826123Y-109862359D01*
X107475589Y-109758061D01*
X118695000Y-109758061D01*
X118695000Y-109961939D01*
X118734774Y-110161898D01*
X118812795Y-110350256D01*
X118926063Y-110519774D01*
X119070226Y-110663937D01*
X119239744Y-110777205D01*
X119428102Y-110855226D01*
X119628061Y-110895000D01*
X119831939Y-110895000D01*
X120031898Y-110855226D01*
X120220256Y-110777205D01*
X120389774Y-110663937D01*
X120533937Y-110519774D01*
X120647205Y-110350256D01*
X120725226Y-110161898D01*
X120765000Y-109961939D01*
X120765000Y-109758061D01*
X120725226Y-109558102D01*
X120647205Y-109369744D01*
X120628990Y-109342483D01*
X120657205Y-109300256D01*
X120735226Y-109111898D01*
X120775000Y-108911939D01*
X120775000Y-108708061D01*
X120735226Y-108508102D01*
X120657205Y-108319744D01*
X120543937Y-108150226D01*
X120399774Y-108006063D01*
X120230256Y-107892795D01*
X120041898Y-107814774D01*
X119841939Y-107775000D01*
X119638061Y-107775000D01*
X119438102Y-107814774D01*
X119249744Y-107892795D01*
X119080226Y-108006063D01*
X118936063Y-108150226D01*
X118822795Y-108319744D01*
X118744774Y-108508102D01*
X118705000Y-108708061D01*
X118705000Y-108911939D01*
X118744774Y-109111898D01*
X118822795Y-109300256D01*
X118841010Y-109327517D01*
X118812795Y-109369744D01*
X118734774Y-109558102D01*
X118695000Y-109758061D01*
X107475589Y-109758061D01*
X107290867Y-109703099D01*
X106734826Y-109651322D01*
X106179368Y-109709019D01*
X105645839Y-109873972D01*
X105179976Y-110122982D01*
X104939830Y-110510225D01*
X94517405Y-110510225D01*
X94517205Y-110509744D01*
X94510694Y-110500000D01*
X94517205Y-110490256D01*
X94595226Y-110301898D01*
X94635000Y-110101939D01*
X94635000Y-109898061D01*
X94595226Y-109698102D01*
X94517205Y-109509744D01*
X94403937Y-109340226D01*
X94259774Y-109196063D01*
X94090256Y-109082795D01*
X93901898Y-109004774D01*
X93701939Y-108965000D01*
X93498061Y-108965000D01*
X93298102Y-109004774D01*
X93109744Y-109082795D01*
X92940226Y-109196063D01*
X92796063Y-109340226D01*
X92682795Y-109509744D01*
X92604774Y-109698102D01*
X92565000Y-109898061D01*
X86093099Y-109898061D01*
X85937624Y-109794176D01*
X85731067Y-109708617D01*
X85511788Y-109665000D01*
X85504524Y-109665000D01*
X85535000Y-109511788D01*
X85535000Y-109288212D01*
X85491383Y-109068933D01*
X85405824Y-108862376D01*
X85281612Y-108676480D01*
X85123520Y-108518388D01*
X84937624Y-108394176D01*
X84731067Y-108308617D01*
X84600995Y-108282744D01*
X84635000Y-108111788D01*
X84635000Y-107888212D01*
X84591383Y-107668933D01*
X84505824Y-107462376D01*
X84381612Y-107276480D01*
X84223520Y-107118388D01*
X84037624Y-106994176D01*
X83831067Y-106908617D01*
X83700995Y-106882744D01*
X83735000Y-106711788D01*
X83735000Y-106488212D01*
X83691383Y-106268933D01*
X83605824Y-106062376D01*
X83481612Y-105876480D01*
X83323520Y-105718388D01*
X83137624Y-105594176D01*
X82931067Y-105508617D01*
X82711788Y-105465000D01*
X82488212Y-105465000D01*
X82268933Y-105508617D01*
X82062376Y-105594176D01*
X81876480Y-105718388D01*
X81718388Y-105876480D01*
X81594176Y-106062376D01*
X81508617Y-106268933D01*
X81465000Y-106488212D01*
X81465000Y-106711788D01*
X81508617Y-106931067D01*
X81544868Y-107018585D01*
X81362376Y-107094176D01*
X81176480Y-107218388D01*
X81018388Y-107376480D01*
X80894176Y-107562376D01*
X80808617Y-107768933D01*
X80765000Y-107988212D01*
X79927000Y-107988212D01*
X79927000Y-104956414D01*
X79996063Y-105059774D01*
X80140226Y-105203937D01*
X80309744Y-105317205D01*
X80498102Y-105395226D01*
X80698061Y-105435000D01*
X80901939Y-105435000D01*
X81101898Y-105395226D01*
X81290256Y-105317205D01*
X81459774Y-105203937D01*
X81603937Y-105059774D01*
X81717205Y-104890256D01*
X81795226Y-104701898D01*
X81835000Y-104501939D01*
X81835000Y-104298061D01*
X81815109Y-104198061D01*
X82365000Y-104198061D01*
X82365000Y-104401939D01*
X82404774Y-104601898D01*
X82482795Y-104790256D01*
X82596063Y-104959774D01*
X82740226Y-105103937D01*
X82909744Y-105217205D01*
X83098102Y-105295226D01*
X83298061Y-105335000D01*
X83501939Y-105335000D01*
X83687645Y-105298061D01*
X84365000Y-105298061D01*
X84365000Y-105501939D01*
X84404774Y-105701898D01*
X84482795Y-105890256D01*
X84596063Y-106059774D01*
X84740226Y-106203937D01*
X84909744Y-106317205D01*
X85098102Y-106395226D01*
X85298061Y-106435000D01*
X85391467Y-106435000D01*
X85404774Y-106501898D01*
X85482795Y-106690256D01*
X85596063Y-106859774D01*
X85740226Y-107003937D01*
X85909744Y-107117205D01*
X86098102Y-107195226D01*
X86298061Y-107235000D01*
X86501939Y-107235000D01*
X86701898Y-107195226D01*
X86890256Y-107117205D01*
X87059774Y-107003937D01*
X87203937Y-106859774D01*
X87317205Y-106690256D01*
X87395226Y-106501898D01*
X87435000Y-106301939D01*
X87435000Y-106098061D01*
X87395226Y-105898102D01*
X87317205Y-105709744D01*
X87203937Y-105540226D01*
X87163839Y-105500128D01*
X118481921Y-105500128D01*
X118505853Y-105662858D01*
X118561072Y-105817792D01*
X118600869Y-105892247D01*
X118790121Y-105886641D01*
X119216762Y-105460000D01*
X118790121Y-105033359D01*
X118600869Y-105027753D01*
X118530360Y-105176354D01*
X118490195Y-105335855D01*
X118481921Y-105500128D01*
X87163839Y-105500128D01*
X87059774Y-105396063D01*
X86890256Y-105282795D01*
X86701898Y-105204774D01*
X86501939Y-105165000D01*
X86408533Y-105165000D01*
X86395226Y-105098102D01*
X86317205Y-104909744D01*
X86203937Y-104740226D01*
X86059774Y-104596063D01*
X85890256Y-104482795D01*
X85701898Y-104404774D01*
X85501939Y-104365000D01*
X85298061Y-104365000D01*
X85098102Y-104404774D01*
X84909744Y-104482795D01*
X84740226Y-104596063D01*
X84596063Y-104740226D01*
X84482795Y-104909744D01*
X84404774Y-105098102D01*
X84365000Y-105298061D01*
X83687645Y-105298061D01*
X83701898Y-105295226D01*
X83890256Y-105217205D01*
X84059774Y-105103937D01*
X84203937Y-104959774D01*
X84317205Y-104790256D01*
X84395226Y-104601898D01*
X84435000Y-104401939D01*
X84435000Y-104198061D01*
X84395226Y-103998102D01*
X84317205Y-103809744D01*
X84203937Y-103640226D01*
X84059774Y-103496063D01*
X83890256Y-103382795D01*
X83701898Y-103304774D01*
X83668150Y-103298061D01*
X90265000Y-103298061D01*
X90265000Y-103501939D01*
X90304774Y-103701898D01*
X90382795Y-103890256D01*
X90496063Y-104059774D01*
X90640226Y-104203937D01*
X90809744Y-104317205D01*
X90998102Y-104395226D01*
X91198061Y-104435000D01*
X91401939Y-104435000D01*
X91601898Y-104395226D01*
X91790256Y-104317205D01*
X91959774Y-104203937D01*
X92050000Y-104113711D01*
X92140226Y-104203937D01*
X92309744Y-104317205D01*
X92498102Y-104395226D01*
X92698061Y-104435000D01*
X92901939Y-104435000D01*
X93101898Y-104395226D01*
X93116060Y-104389360D01*
X93160033Y-104495521D01*
X93251413Y-104632281D01*
X93367719Y-104748587D01*
X93504479Y-104839967D01*
X93656440Y-104902911D01*
X93817760Y-104935000D01*
X93982240Y-104935000D01*
X94143560Y-104902911D01*
X94295521Y-104839967D01*
X94432281Y-104748587D01*
X94439999Y-104740869D01*
X118887753Y-104740869D01*
X118893359Y-104930121D01*
X119320000Y-105356762D01*
X119372326Y-105304436D01*
X119475564Y-105407674D01*
X119423238Y-105460000D01*
X119475564Y-105512326D01*
X119372326Y-105615564D01*
X119320000Y-105563238D01*
X118893359Y-105989879D01*
X118887753Y-106179131D01*
X119036354Y-106249640D01*
X119195855Y-106289805D01*
X119360128Y-106298079D01*
X119522858Y-106274147D01*
X119677792Y-106218928D01*
X119752247Y-106179131D01*
X119749159Y-106074873D01*
X119816947Y-106142661D01*
X119820000Y-106139608D01*
X119823053Y-106142661D01*
X119890841Y-106074873D01*
X119887753Y-106179131D01*
X120036354Y-106249640D01*
X120195855Y-106289805D01*
X120360128Y-106298079D01*
X120522858Y-106274147D01*
X120677792Y-106218928D01*
X120752247Y-106179131D01*
X120746641Y-105989879D01*
X120320000Y-105563238D01*
X120267674Y-105615564D01*
X120164436Y-105512326D01*
X120216762Y-105460000D01*
X120423238Y-105460000D01*
X120849879Y-105886641D01*
X121039131Y-105892247D01*
X121109640Y-105743646D01*
X121149805Y-105584145D01*
X121158079Y-105419872D01*
X121134147Y-105257142D01*
X121078928Y-105102208D01*
X121039131Y-105027753D01*
X120849879Y-105033359D01*
X120423238Y-105460000D01*
X120216762Y-105460000D01*
X120164436Y-105407674D01*
X120267674Y-105304436D01*
X120320000Y-105356762D01*
X120746641Y-104930121D01*
X120752247Y-104740869D01*
X120603646Y-104670360D01*
X120444145Y-104630195D01*
X120279872Y-104621921D01*
X120117142Y-104645853D01*
X119962208Y-104701072D01*
X119887753Y-104740869D01*
X119890841Y-104845127D01*
X119823053Y-104777339D01*
X119820000Y-104780392D01*
X119816947Y-104777339D01*
X119749159Y-104845127D01*
X119752247Y-104740869D01*
X119603646Y-104670360D01*
X119444145Y-104630195D01*
X119279872Y-104621921D01*
X119117142Y-104645853D01*
X118962208Y-104701072D01*
X118887753Y-104740869D01*
X94439999Y-104740869D01*
X94548587Y-104632281D01*
X94639967Y-104495521D01*
X94702911Y-104343560D01*
X94735000Y-104182240D01*
X94735000Y-104017760D01*
X94702911Y-103856440D01*
X94639967Y-103704479D01*
X94548587Y-103567719D01*
X94432281Y-103451413D01*
X94295521Y-103360033D01*
X94143560Y-103297089D01*
X93982240Y-103265000D01*
X93828424Y-103265000D01*
X93795226Y-103098102D01*
X93717205Y-102909744D01*
X93603937Y-102740226D01*
X93459774Y-102596063D01*
X93290256Y-102482795D01*
X93101898Y-102404774D01*
X92901939Y-102365000D01*
X92698061Y-102365000D01*
X92498102Y-102404774D01*
X92309744Y-102482795D01*
X92140226Y-102596063D01*
X92050000Y-102686289D01*
X91959774Y-102596063D01*
X91790256Y-102482795D01*
X91601898Y-102404774D01*
X91401939Y-102365000D01*
X91198061Y-102365000D01*
X90998102Y-102404774D01*
X90809744Y-102482795D01*
X90640226Y-102596063D01*
X90496063Y-102740226D01*
X90382795Y-102909744D01*
X90304774Y-103098102D01*
X90265000Y-103298061D01*
X83668150Y-103298061D01*
X83501939Y-103265000D01*
X83298061Y-103265000D01*
X83098102Y-103304774D01*
X82909744Y-103382795D01*
X82740226Y-103496063D01*
X82596063Y-103640226D01*
X82482795Y-103809744D01*
X82404774Y-103998102D01*
X82365000Y-104198061D01*
X81815109Y-104198061D01*
X81795226Y-104098102D01*
X81717205Y-103909744D01*
X81603937Y-103740226D01*
X81459774Y-103596063D01*
X81290256Y-103482795D01*
X81101898Y-103404774D01*
X80901939Y-103365000D01*
X80698061Y-103365000D01*
X80498102Y-103404774D01*
X80309744Y-103482795D01*
X80140226Y-103596063D01*
X79996063Y-103740226D01*
X79927000Y-103843586D01*
X79927000Y-100884164D01*
X102085784Y-100884164D01*
X102089826Y-101072827D01*
X102250974Y-101139328D01*
X102421998Y-101173113D01*
X102596328Y-101172884D01*
X102767264Y-101138649D01*
X102926174Y-101072827D01*
X102930216Y-100884164D01*
X102508000Y-100461948D01*
X102085784Y-100884164D01*
X79927000Y-100884164D01*
X79927000Y-100201998D01*
X101622887Y-100201998D01*
X101623116Y-100376328D01*
X101657351Y-100547264D01*
X101723173Y-100706174D01*
X101911836Y-100710216D01*
X102334052Y-100288000D01*
X102681948Y-100288000D01*
X103104164Y-100710216D01*
X103292827Y-100706174D01*
X103359328Y-100545026D01*
X103393113Y-100374002D01*
X103392884Y-100199672D01*
X103358649Y-100028736D01*
X103292827Y-99869826D01*
X103104164Y-99865784D01*
X102681948Y-100288000D01*
X102334052Y-100288000D01*
X101911836Y-99865784D01*
X101723173Y-99869826D01*
X101656672Y-100030974D01*
X101622887Y-100201998D01*
X79927000Y-100201998D01*
X79927000Y-99691836D01*
X102085784Y-99691836D01*
X102131948Y-99738000D01*
X102085784Y-99784164D01*
X102089826Y-99972827D01*
X102250974Y-100039328D01*
X102421998Y-100073113D01*
X102467002Y-100073054D01*
X102508000Y-100114052D01*
X102549106Y-100072946D01*
X102596328Y-100072884D01*
X102767264Y-100038649D01*
X102926174Y-99972827D01*
X102930216Y-99784164D01*
X102884052Y-99738000D01*
X102930216Y-99691836D01*
X102926174Y-99503173D01*
X102765026Y-99436672D01*
X102594002Y-99402887D01*
X102548998Y-99402946D01*
X102508000Y-99361948D01*
X102466894Y-99403054D01*
X102419672Y-99403116D01*
X102248736Y-99437351D01*
X102089826Y-99503173D01*
X102085784Y-99691836D01*
X79927000Y-99691836D01*
X79927000Y-99101998D01*
X101622887Y-99101998D01*
X101623116Y-99276328D01*
X101657351Y-99447264D01*
X101723173Y-99606174D01*
X101911836Y-99610216D01*
X102334052Y-99188000D01*
X102681948Y-99188000D01*
X103104164Y-99610216D01*
X103292827Y-99606174D01*
X103359328Y-99445026D01*
X103393113Y-99274002D01*
X103392884Y-99099672D01*
X103372534Y-98998061D01*
X104665000Y-98998061D01*
X104665000Y-99201939D01*
X104704774Y-99401898D01*
X104782795Y-99590256D01*
X104896063Y-99759774D01*
X105040226Y-99903937D01*
X105209744Y-100017205D01*
X105398102Y-100095226D01*
X105598061Y-100135000D01*
X105801939Y-100135000D01*
X106001898Y-100095226D01*
X106104004Y-100052932D01*
X106097089Y-100069626D01*
X106065000Y-100230946D01*
X106065000Y-100395426D01*
X106097089Y-100556746D01*
X106160033Y-100708707D01*
X106251413Y-100845467D01*
X106367719Y-100961773D01*
X106504479Y-101053153D01*
X106656440Y-101116097D01*
X106797321Y-101144120D01*
X106860033Y-101295521D01*
X106951413Y-101432281D01*
X107067719Y-101548587D01*
X107204479Y-101639967D01*
X107356440Y-101702911D01*
X107517760Y-101735000D01*
X107682240Y-101735000D01*
X107843560Y-101702911D01*
X107995521Y-101639967D01*
X108132281Y-101548587D01*
X108248587Y-101432281D01*
X108339967Y-101295521D01*
X108402911Y-101143560D01*
X108435000Y-100982240D01*
X108435000Y-100817760D01*
X108402911Y-100656440D01*
X108339967Y-100504479D01*
X108248587Y-100367719D01*
X108132281Y-100251413D01*
X107995521Y-100160033D01*
X107843560Y-100097089D01*
X107702679Y-100069066D01*
X107639967Y-99917665D01*
X107548587Y-99780905D01*
X107432281Y-99664599D01*
X107295521Y-99573219D01*
X107143560Y-99510275D01*
X106982240Y-99478186D01*
X106817760Y-99478186D01*
X106656440Y-99510275D01*
X106649070Y-99513328D01*
X106695226Y-99401898D01*
X106702140Y-99367140D01*
X106736898Y-99360226D01*
X106925256Y-99282205D01*
X107094774Y-99168937D01*
X107238937Y-99024774D01*
X107352205Y-98855256D01*
X107375896Y-98798061D01*
X112465000Y-98798061D01*
X112465000Y-99001939D01*
X112504774Y-99201898D01*
X112582795Y-99390256D01*
X112696063Y-99559774D01*
X112840226Y-99703937D01*
X113009744Y-99817205D01*
X113198102Y-99895226D01*
X113398061Y-99935000D01*
X113601939Y-99935000D01*
X113801898Y-99895226D01*
X113990256Y-99817205D01*
X114000000Y-99810694D01*
X114009744Y-99817205D01*
X114198102Y-99895226D01*
X114398061Y-99935000D01*
X114601939Y-99935000D01*
X114801898Y-99895226D01*
X114990256Y-99817205D01*
X115159774Y-99703937D01*
X115303937Y-99559774D01*
X115417205Y-99390256D01*
X115495226Y-99201898D01*
X115535000Y-99001939D01*
X115535000Y-98798061D01*
X115495226Y-98598102D01*
X115417205Y-98409744D01*
X115303937Y-98240226D01*
X115159774Y-98096063D01*
X114990256Y-97982795D01*
X114801898Y-97904774D01*
X114601939Y-97865000D01*
X114398061Y-97865000D01*
X114198102Y-97904774D01*
X114009744Y-97982795D01*
X114000000Y-97989306D01*
X113990256Y-97982795D01*
X113801898Y-97904774D01*
X113601939Y-97865000D01*
X113398061Y-97865000D01*
X113198102Y-97904774D01*
X113009744Y-97982795D01*
X112840226Y-98096063D01*
X112696063Y-98240226D01*
X112582795Y-98409744D01*
X112504774Y-98598102D01*
X112465000Y-98798061D01*
X107375896Y-98798061D01*
X107430226Y-98666898D01*
X107470000Y-98466939D01*
X107470000Y-98263061D01*
X107430226Y-98063102D01*
X107352205Y-97874744D01*
X107238937Y-97705226D01*
X107094774Y-97561063D01*
X106925256Y-97447795D01*
X106736898Y-97369774D01*
X106536939Y-97330000D01*
X106333061Y-97330000D01*
X106133102Y-97369774D01*
X105944744Y-97447795D01*
X105775226Y-97561063D01*
X105631063Y-97705226D01*
X105517795Y-97874744D01*
X105439774Y-98063102D01*
X105432860Y-98097860D01*
X105398102Y-98104774D01*
X105209744Y-98182795D01*
X105040226Y-98296063D01*
X104896063Y-98440226D01*
X104782795Y-98609744D01*
X104704774Y-98798102D01*
X104665000Y-98998061D01*
X103372534Y-98998061D01*
X103358649Y-98928736D01*
X103292827Y-98769826D01*
X103104164Y-98765784D01*
X102681948Y-99188000D01*
X102334052Y-99188000D01*
X101911836Y-98765784D01*
X101723173Y-98769826D01*
X101656672Y-98930974D01*
X101622887Y-99101998D01*
X79927000Y-99101998D01*
X79927000Y-97898061D01*
X89715000Y-97898061D01*
X89715000Y-98101939D01*
X89754774Y-98301898D01*
X89832795Y-98490256D01*
X89946063Y-98659774D01*
X90090226Y-98803937D01*
X90259744Y-98917205D01*
X90448102Y-98995226D01*
X90648061Y-99035000D01*
X90851939Y-99035000D01*
X91051898Y-98995226D01*
X91240256Y-98917205D01*
X91409774Y-98803937D01*
X91553937Y-98659774D01*
X91599331Y-98591836D01*
X102085784Y-98591836D01*
X102508000Y-99014052D01*
X102930216Y-98591836D01*
X102926174Y-98403173D01*
X102765026Y-98336672D01*
X102594002Y-98302887D01*
X102419672Y-98303116D01*
X102248736Y-98337351D01*
X102089826Y-98403173D01*
X102085784Y-98591836D01*
X91599331Y-98591836D01*
X91667205Y-98490256D01*
X91745226Y-98301898D01*
X91785000Y-98101939D01*
X91785000Y-97898061D01*
X91745226Y-97698102D01*
X91667205Y-97509744D01*
X91553937Y-97340226D01*
X91453486Y-97239775D01*
X114189830Y-97239775D01*
X114429976Y-97627018D01*
X114923877Y-97887641D01*
X115459133Y-98046901D01*
X116015174Y-98098678D01*
X116570632Y-98040981D01*
X117104161Y-97876028D01*
X117570024Y-97627018D01*
X117810170Y-97239775D01*
X116000000Y-95429605D01*
X114189830Y-97239775D01*
X91453486Y-97239775D01*
X91409774Y-97196063D01*
X91240256Y-97082795D01*
X91051898Y-97004774D01*
X90851939Y-96965000D01*
X90648061Y-96965000D01*
X90448102Y-97004774D01*
X90259744Y-97082795D01*
X90090226Y-97196063D01*
X89946063Y-97340226D01*
X89832795Y-97509744D01*
X89754774Y-97698102D01*
X89715000Y-97898061D01*
X79927000Y-97898061D01*
X79927000Y-95198061D01*
X98465000Y-95198061D01*
X98465000Y-95401939D01*
X98504774Y-95601898D01*
X98582795Y-95790256D01*
X98696063Y-95959774D01*
X98840226Y-96103937D01*
X99009744Y-96217205D01*
X99198102Y-96295226D01*
X99398061Y-96335000D01*
X99601939Y-96335000D01*
X99801898Y-96295226D01*
X99990256Y-96217205D01*
X100159774Y-96103937D01*
X100303937Y-95959774D01*
X100417205Y-95790256D01*
X100495226Y-95601898D01*
X100535000Y-95401939D01*
X100535000Y-95265174D01*
X113151322Y-95265174D01*
X113209019Y-95820632D01*
X113373972Y-96354161D01*
X113622982Y-96820024D01*
X114010225Y-97060170D01*
X115820395Y-95250000D01*
X116179605Y-95250000D01*
X117989775Y-97060170D01*
X118377018Y-96820024D01*
X118637641Y-96326123D01*
X118796901Y-95790867D01*
X118848678Y-95234826D01*
X118790981Y-94679368D01*
X118626028Y-94145839D01*
X118377018Y-93679976D01*
X117989775Y-93439830D01*
X116179605Y-95250000D01*
X115820395Y-95250000D01*
X114010225Y-93439830D01*
X113622982Y-93679976D01*
X113362359Y-94173877D01*
X113203099Y-94709133D01*
X113151322Y-95265174D01*
X100535000Y-95265174D01*
X100535000Y-95198061D01*
X100495226Y-94998102D01*
X100417205Y-94809744D01*
X100303937Y-94640226D01*
X100159774Y-94496063D01*
X99990256Y-94382795D01*
X99801898Y-94304774D01*
X99601939Y-94265000D01*
X99398061Y-94265000D01*
X99198102Y-94304774D01*
X99009744Y-94382795D01*
X98840226Y-94496063D01*
X98696063Y-94640226D01*
X98582795Y-94809744D01*
X98504774Y-94998102D01*
X98465000Y-95198061D01*
X79927000Y-95198061D01*
X79927000Y-95100000D01*
X79924560Y-95075224D01*
X79917333Y-95051399D01*
X79905597Y-95029443D01*
X79889803Y-95010197D01*
X79870557Y-94994403D01*
X79848601Y-94982667D01*
X79824776Y-94975440D01*
X79800000Y-94973000D01*
X79660000Y-94973000D01*
X79660000Y-93898061D01*
X85965000Y-93898061D01*
X85965000Y-94101939D01*
X86004774Y-94301898D01*
X86082795Y-94490256D01*
X86196063Y-94659774D01*
X86340226Y-94803937D01*
X86509744Y-94917205D01*
X86698102Y-94995226D01*
X86898061Y-95035000D01*
X87101939Y-95035000D01*
X87301898Y-94995226D01*
X87490256Y-94917205D01*
X87635500Y-94820157D01*
X87780743Y-94917205D01*
X87969101Y-94995226D01*
X88169060Y-95035000D01*
X88372938Y-95035000D01*
X88572897Y-94995226D01*
X88761255Y-94917205D01*
X88930773Y-94803937D01*
X89074936Y-94659774D01*
X89188204Y-94490256D01*
X89266225Y-94301898D01*
X89305999Y-94101939D01*
X89305999Y-93927000D01*
X100745000Y-93927000D01*
X100745000Y-94227000D01*
X100791585Y-94445987D01*
X100879997Y-94651678D01*
X101006839Y-94836169D01*
X101167236Y-94992369D01*
X101355024Y-95114276D01*
X101578126Y-95194119D01*
X101753000Y-95067954D01*
X101753000Y-93927000D01*
X102007000Y-93927000D01*
X102007000Y-95067954D01*
X102181874Y-95194119D01*
X102404976Y-95114276D01*
X102592764Y-94992369D01*
X102753161Y-94836169D01*
X102880003Y-94651678D01*
X102968415Y-94445987D01*
X103015000Y-94227000D01*
X103015000Y-93927000D01*
X102007000Y-93927000D01*
X101753000Y-93927000D01*
X100745000Y-93927000D01*
X89305999Y-93927000D01*
X89305999Y-93898061D01*
X89266225Y-93698102D01*
X89188204Y-93509744D01*
X89096835Y-93373000D01*
X100745000Y-93373000D01*
X100745000Y-93673000D01*
X101753000Y-93673000D01*
X101753000Y-92532046D01*
X102007000Y-92532046D01*
X102007000Y-93673000D01*
X103015000Y-93673000D01*
X103015000Y-93373000D01*
X102999059Y-93298061D01*
X103665000Y-93298061D01*
X103665000Y-93501939D01*
X103704774Y-93701898D01*
X103782795Y-93890256D01*
X103896063Y-94059774D01*
X104040226Y-94203937D01*
X104209744Y-94317205D01*
X104398102Y-94395226D01*
X104598061Y-94435000D01*
X104801939Y-94435000D01*
X105001898Y-94395226D01*
X105190256Y-94317205D01*
X105359774Y-94203937D01*
X105503937Y-94059774D01*
X105617205Y-93890256D01*
X105695226Y-93701898D01*
X105735000Y-93501939D01*
X105735000Y-93298061D01*
X106665000Y-93298061D01*
X106665000Y-93501939D01*
X106704774Y-93701898D01*
X106782795Y-93890256D01*
X106896063Y-94059774D01*
X107040226Y-94203937D01*
X107209744Y-94317205D01*
X107398102Y-94395226D01*
X107598061Y-94435000D01*
X107801939Y-94435000D01*
X108001898Y-94395226D01*
X108190256Y-94317205D01*
X108359774Y-94203937D01*
X108503937Y-94059774D01*
X108592653Y-93927000D01*
X109385000Y-93927000D01*
X109385000Y-94227000D01*
X109431585Y-94445987D01*
X109519997Y-94651678D01*
X109646839Y-94836169D01*
X109807236Y-94992369D01*
X109995024Y-95114276D01*
X110218126Y-95194119D01*
X110393000Y-95067954D01*
X110393000Y-93927000D01*
X110647000Y-93927000D01*
X110647000Y-95067954D01*
X110821874Y-95194119D01*
X111044976Y-95114276D01*
X111232764Y-94992369D01*
X111393161Y-94836169D01*
X111520003Y-94651678D01*
X111608415Y-94445987D01*
X111655000Y-94227000D01*
X111655000Y-93927000D01*
X110647000Y-93927000D01*
X110393000Y-93927000D01*
X109385000Y-93927000D01*
X108592653Y-93927000D01*
X108617205Y-93890256D01*
X108695226Y-93701898D01*
X108735000Y-93501939D01*
X108735000Y-93373000D01*
X109385000Y-93373000D01*
X109385000Y-93673000D01*
X110393000Y-93673000D01*
X110393000Y-92532046D01*
X110647000Y-92532046D01*
X110647000Y-93673000D01*
X111655000Y-93673000D01*
X111655000Y-93373000D01*
X111631010Y-93260225D01*
X114189830Y-93260225D01*
X116000000Y-95070395D01*
X117810170Y-93260225D01*
X117570024Y-92872982D01*
X117076123Y-92612359D01*
X116540867Y-92453099D01*
X115984826Y-92401322D01*
X115429368Y-92459019D01*
X114895839Y-92623972D01*
X114429976Y-92872982D01*
X114189830Y-93260225D01*
X111631010Y-93260225D01*
X111608415Y-93154013D01*
X111520003Y-92948322D01*
X111393161Y-92763831D01*
X111232764Y-92607631D01*
X111044976Y-92485724D01*
X110821874Y-92405881D01*
X110647000Y-92532046D01*
X110393000Y-92532046D01*
X110218126Y-92405881D01*
X109995024Y-92485724D01*
X109807236Y-92607631D01*
X109646839Y-92763831D01*
X109519997Y-92948322D01*
X109431585Y-93154013D01*
X109385000Y-93373000D01*
X108735000Y-93373000D01*
X108735000Y-93298061D01*
X108695226Y-93098102D01*
X108617205Y-92909744D01*
X108503937Y-92740226D01*
X108359774Y-92596063D01*
X108190256Y-92482795D01*
X108001898Y-92404774D01*
X107801939Y-92365000D01*
X107598061Y-92365000D01*
X107398102Y-92404774D01*
X107209744Y-92482795D01*
X107040226Y-92596063D01*
X106896063Y-92740226D01*
X106782795Y-92909744D01*
X106704774Y-93098102D01*
X106665000Y-93298061D01*
X105735000Y-93298061D01*
X105695226Y-93098102D01*
X105617205Y-92909744D01*
X105503937Y-92740226D01*
X105359774Y-92596063D01*
X105190256Y-92482795D01*
X105001898Y-92404774D01*
X104801939Y-92365000D01*
X104598061Y-92365000D01*
X104398102Y-92404774D01*
X104209744Y-92482795D01*
X104040226Y-92596063D01*
X103896063Y-92740226D01*
X103782795Y-92909744D01*
X103704774Y-93098102D01*
X103665000Y-93298061D01*
X102999059Y-93298061D01*
X102968415Y-93154013D01*
X102880003Y-92948322D01*
X102753161Y-92763831D01*
X102592764Y-92607631D01*
X102404976Y-92485724D01*
X102181874Y-92405881D01*
X102007000Y-92532046D01*
X101753000Y-92532046D01*
X101578126Y-92405881D01*
X101355024Y-92485724D01*
X101167236Y-92607631D01*
X101006839Y-92763831D01*
X100879997Y-92948322D01*
X100791585Y-93154013D01*
X100745000Y-93373000D01*
X89096835Y-93373000D01*
X89074936Y-93340226D01*
X88930773Y-93196063D01*
X88761255Y-93082795D01*
X88572897Y-93004774D01*
X88372938Y-92965000D01*
X88169060Y-92965000D01*
X87969101Y-93004774D01*
X87780743Y-93082795D01*
X87635500Y-93179843D01*
X87490256Y-93082795D01*
X87301898Y-93004774D01*
X87101939Y-92965000D01*
X86898061Y-92965000D01*
X86698102Y-93004774D01*
X86509744Y-93082795D01*
X86340226Y-93196063D01*
X86196063Y-93340226D01*
X86082795Y-93509744D01*
X86004774Y-93698102D01*
X85965000Y-93898061D01*
X79660000Y-93898061D01*
X79660000Y-91032279D01*
X79688625Y-90740341D01*
X79764035Y-90490571D01*
X79886522Y-90260208D01*
X80051422Y-90058020D01*
X80252450Y-89891714D01*
X80481954Y-89767622D01*
X80731195Y-89690469D01*
X81021088Y-89660000D01*
X87270556Y-89660000D01*
X87254774Y-89698102D01*
G04 #@! TA.AperFunction,Conductor*
D19*
G36*
X87254774Y-89698102D02*
G01*
X87215000Y-89898061D01*
X87215000Y-89987489D01*
X87101939Y-89965000D01*
X86898061Y-89965000D01*
X86698102Y-90004774D01*
X86509744Y-90082795D01*
X86340226Y-90196063D01*
X86196063Y-90340226D01*
X86082795Y-90509744D01*
X86004774Y-90698102D01*
X85965000Y-90898061D01*
X85965000Y-91101939D01*
X86004774Y-91301898D01*
X86082795Y-91490256D01*
X86196063Y-91659774D01*
X86340226Y-91803937D01*
X86509744Y-91917205D01*
X86698102Y-91995226D01*
X86898061Y-92035000D01*
X87101939Y-92035000D01*
X87301898Y-91995226D01*
X87490256Y-91917205D01*
X87659774Y-91803937D01*
X87803937Y-91659774D01*
X87917205Y-91490256D01*
X87995226Y-91301898D01*
X88035000Y-91101939D01*
X88035000Y-91012511D01*
X88148061Y-91035000D01*
X88351939Y-91035000D01*
X88551898Y-90995226D01*
X88740256Y-90917205D01*
X88909774Y-90803937D01*
X89053937Y-90659774D01*
X89167205Y-90490256D01*
X89245226Y-90301898D01*
X89280015Y-90127000D01*
X100745000Y-90127000D01*
X100745000Y-90427000D01*
X100791585Y-90645987D01*
X100879997Y-90851678D01*
X101006839Y-91036169D01*
X101167236Y-91192369D01*
X101355024Y-91314276D01*
X101578126Y-91394119D01*
X101753000Y-91267954D01*
X101753000Y-90127000D01*
X102007000Y-90127000D01*
X102007000Y-91267954D01*
X102181874Y-91394119D01*
X102404976Y-91314276D01*
X102592764Y-91192369D01*
X102753161Y-91036169D01*
X102880003Y-90851678D01*
X102968415Y-90645987D01*
X103015000Y-90427000D01*
X103015000Y-90127000D01*
X109385000Y-90127000D01*
X109385000Y-90427000D01*
X109431585Y-90645987D01*
X109519997Y-90851678D01*
X109646839Y-91036169D01*
X109807236Y-91192369D01*
X109995024Y-91314276D01*
X110218126Y-91394119D01*
X110393000Y-91267954D01*
X110393000Y-90127000D01*
X110647000Y-90127000D01*
X110647000Y-91267954D01*
X110821874Y-91394119D01*
X111044976Y-91314276D01*
X111232764Y-91192369D01*
X111393161Y-91036169D01*
X111520003Y-90851678D01*
X111608415Y-90645987D01*
X111655000Y-90427000D01*
X111655000Y-90127000D01*
X110647000Y-90127000D01*
X110393000Y-90127000D01*
X109385000Y-90127000D01*
X103015000Y-90127000D01*
X102007000Y-90127000D01*
X101753000Y-90127000D01*
X100745000Y-90127000D01*
X89280015Y-90127000D01*
X89285000Y-90101939D01*
X89285000Y-89898061D01*
X89245226Y-89698102D01*
X89229444Y-89660000D01*
X100745000Y-89660000D01*
X100745000Y-89873000D01*
X101753000Y-89873000D01*
X101753000Y-89853000D01*
X102007000Y-89853000D01*
X102007000Y-89873000D01*
X103015000Y-89873000D01*
X103015000Y-89660000D01*
X109385000Y-89660000D01*
X109385000Y-89873000D01*
X110393000Y-89873000D01*
X110393000Y-89853000D01*
X110647000Y-89853000D01*
X110647000Y-89873000D01*
X111655000Y-89873000D01*
X111655000Y-89660000D01*
X112015000Y-89660000D01*
X112015000Y-89732240D01*
X112047089Y-89893560D01*
X112110033Y-90045521D01*
X112201413Y-90182281D01*
X112317719Y-90298587D01*
X112454479Y-90389967D01*
X112606440Y-90452911D01*
X112767760Y-90485000D01*
X112932240Y-90485000D01*
X113093560Y-90452911D01*
X113245521Y-90389967D01*
X113382281Y-90298587D01*
X113498587Y-90182281D01*
X113589967Y-90045521D01*
X113652911Y-89893560D01*
X113685000Y-89732240D01*
X113685000Y-89660000D01*
X118315000Y-89660000D01*
X118315000Y-89682240D01*
X118347089Y-89843560D01*
X118410033Y-89995521D01*
X118501413Y-90132281D01*
X118617719Y-90248587D01*
X118754479Y-90339967D01*
X118906440Y-90402911D01*
X119067760Y-90435000D01*
X119232240Y-90435000D01*
X119393560Y-90402911D01*
X119545521Y-90339967D01*
X119682281Y-90248587D01*
X119798587Y-90132281D01*
X119889967Y-89995521D01*
X119952911Y-89843560D01*
X119985000Y-89682240D01*
X119985000Y-89660000D01*
X122967723Y-89660000D01*
X123162540Y-89679102D01*
X123318894Y-89726308D01*
X123463096Y-89802982D01*
X123589663Y-89906207D01*
X123693769Y-90032051D01*
X123771447Y-90175711D01*
X123819742Y-90331729D01*
X123840000Y-90524473D01*
X123840001Y-113967712D01*
X123820898Y-114162540D01*
X123773692Y-114318895D01*
X123697018Y-114463096D01*
X123593792Y-114589664D01*
X123467951Y-114693768D01*
X123324289Y-114771447D01*
X123168271Y-114819742D01*
X122975527Y-114840000D01*
X108342980Y-114840000D01*
X108560170Y-114489775D01*
X106750000Y-112679605D01*
X104939830Y-114489775D01*
X105157020Y-114840000D01*
X100207538Y-114840000D01*
X100235000Y-114701939D01*
X100235000Y-114498061D01*
X100195226Y-114298102D01*
X100117205Y-114109744D01*
X100003937Y-113940226D01*
X99859774Y-113796063D01*
X99690256Y-113682795D01*
X99501898Y-113604774D01*
X99301939Y-113565000D01*
X99098061Y-113565000D01*
X98898102Y-113604774D01*
X98709744Y-113682795D01*
X98540226Y-113796063D01*
X98396063Y-113940226D01*
X98282795Y-114109744D01*
X98204774Y-114298102D01*
X98165000Y-114498061D01*
X98165000Y-114701939D01*
X98192462Y-114840000D01*
X80532277Y-114840000D01*
X80337460Y-114820898D01*
X80181105Y-114773692D01*
X80036904Y-114697018D01*
X79927000Y-114607383D01*
X79927000Y-110278166D01*
X82151439Y-110278166D01*
X82186550Y-110491588D01*
X82390826Y-110582458D01*
X82608905Y-110631731D01*
X82832406Y-110637511D01*
X83052740Y-110599577D01*
X83261440Y-110519387D01*
X83313450Y-110491588D01*
X83348561Y-110278166D01*
X82750000Y-109679605D01*
X82151439Y-110278166D01*
X79927000Y-110278166D01*
X79927000Y-107988212D01*
X80765000Y-107988212D01*
X80765000Y-108211788D01*
X80808617Y-108431067D01*
X80894176Y-108637624D01*
X81018388Y-108823520D01*
X81176480Y-108981612D01*
X81362376Y-109105824D01*
X81568933Y-109191383D01*
X81652369Y-109207979D01*
X81618269Y-109358905D01*
X81612489Y-109582406D01*
X81650423Y-109802740D01*
X81730613Y-110011440D01*
X81758412Y-110063450D01*
X81971834Y-110098561D01*
X82570395Y-109500000D01*
X82556253Y-109485858D01*
X82735858Y-109306253D01*
X82750000Y-109320395D01*
X82764143Y-109306253D01*
X82943748Y-109485858D01*
X82929605Y-109500000D01*
X83448439Y-110018834D01*
X83518388Y-110123520D01*
X83676480Y-110281612D01*
X83862376Y-110405824D01*
X84068933Y-110491383D01*
X84288212Y-110535000D01*
X84295476Y-110535000D01*
X84265000Y-110688212D01*
X84265000Y-110911788D01*
X84308617Y-111131067D01*
X84394176Y-111337624D01*
X84518388Y-111523520D01*
X84676480Y-111681612D01*
X84862376Y-111805824D01*
X85068933Y-111891383D01*
X85288212Y-111935000D01*
X85511788Y-111935000D01*
X85731067Y-111891383D01*
X85937624Y-111805824D01*
X86123520Y-111681612D01*
X86281612Y-111523520D01*
X86405824Y-111337624D01*
X86491383Y-111131067D01*
X86535000Y-110911788D01*
X86535000Y-110688212D01*
X86491383Y-110468933D01*
X86405824Y-110262376D01*
X86281612Y-110076480D01*
X86123520Y-109918388D01*
X86093099Y-109898061D01*
X92565000Y-109898061D01*
X92565000Y-110101939D01*
X92604774Y-110301898D01*
X92682795Y-110490256D01*
X92689306Y-110500000D01*
X92682795Y-110509744D01*
X92604774Y-110698102D01*
X92565000Y-110898061D01*
X92565000Y-111101939D01*
X92604774Y-111301898D01*
X92682795Y-111490256D01*
X92796063Y-111659774D01*
X92940226Y-111803937D01*
X93109744Y-111917205D01*
X93298102Y-111995226D01*
X93498061Y-112035000D01*
X93701939Y-112035000D01*
X93901898Y-111995226D01*
X94090256Y-111917205D01*
X94259774Y-111803937D01*
X94328941Y-111734770D01*
X95147990Y-111734770D01*
X95147990Y-111899250D01*
X95180079Y-112060570D01*
X95243023Y-112212531D01*
X95334403Y-112349291D01*
X95450709Y-112465597D01*
X95587469Y-112556977D01*
X95739430Y-112619921D01*
X95900750Y-112652010D01*
X96065230Y-112652010D01*
X96226550Y-112619921D01*
X96378511Y-112556977D01*
X96441073Y-112515174D01*
X103901322Y-112515174D01*
X103959019Y-113070632D01*
X104123972Y-113604161D01*
X104372982Y-114070024D01*
X104760225Y-114310170D01*
X106570395Y-112500000D01*
X106929605Y-112500000D01*
X108739775Y-114310170D01*
X109127018Y-114070024D01*
X109387641Y-113576123D01*
X109546901Y-113040867D01*
X109598678Y-112484826D01*
X109540981Y-111929368D01*
X109376028Y-111395839D01*
X109127018Y-110929976D01*
X108739775Y-110689830D01*
X106929605Y-112500000D01*
X106570395Y-112500000D01*
X104760225Y-110689830D01*
X104372982Y-110929976D01*
X104112359Y-111423877D01*
X103953099Y-111959133D01*
X103901322Y-112515174D01*
X96441073Y-112515174D01*
X96515271Y-112465597D01*
X96631577Y-112349291D01*
X96722957Y-112212531D01*
X96785901Y-112060570D01*
X96817990Y-111899250D01*
X96817990Y-111734770D01*
X96785901Y-111573450D01*
X96722957Y-111421489D01*
X96631577Y-111284729D01*
X96515271Y-111168423D01*
X96378511Y-111077043D01*
X96226550Y-111014099D01*
X96065230Y-110982010D01*
X95900750Y-110982010D01*
X95739430Y-111014099D01*
X95587469Y-111077043D01*
X95450709Y-111168423D01*
X95334403Y-111284729D01*
X95243023Y-111421489D01*
X95180079Y-111573450D01*
X95147990Y-111734770D01*
X94328941Y-111734770D01*
X94403937Y-111659774D01*
X94517205Y-111490256D01*
X94595226Y-111301898D01*
X94635000Y-111101939D01*
X94635000Y-110898061D01*
X94595226Y-110698102D01*
X94517405Y-110510225D01*
X104939830Y-110510225D01*
X106750000Y-112320395D01*
X108560170Y-110510225D01*
X108320024Y-110122982D01*
X107826123Y-109862359D01*
X107475589Y-109758061D01*
X118695000Y-109758061D01*
X118695000Y-109961939D01*
X118734774Y-110161898D01*
X118812795Y-110350256D01*
X118926063Y-110519774D01*
X119070226Y-110663937D01*
X119239744Y-110777205D01*
X119428102Y-110855226D01*
X119628061Y-110895000D01*
X119831939Y-110895000D01*
X120031898Y-110855226D01*
X120220256Y-110777205D01*
X120389774Y-110663937D01*
X120533937Y-110519774D01*
X120647205Y-110350256D01*
X120725226Y-110161898D01*
X120765000Y-109961939D01*
X120765000Y-109758061D01*
X120725226Y-109558102D01*
X120647205Y-109369744D01*
X120628990Y-109342483D01*
X120657205Y-109300256D01*
X120735226Y-109111898D01*
X120775000Y-108911939D01*
X120775000Y-108708061D01*
X120735226Y-108508102D01*
X120657205Y-108319744D01*
X120543937Y-108150226D01*
X120399774Y-108006063D01*
X120230256Y-107892795D01*
X120041898Y-107814774D01*
X119841939Y-107775000D01*
X119638061Y-107775000D01*
X119438102Y-107814774D01*
X119249744Y-107892795D01*
X119080226Y-108006063D01*
X118936063Y-108150226D01*
X118822795Y-108319744D01*
X118744774Y-108508102D01*
X118705000Y-108708061D01*
X118705000Y-108911939D01*
X118744774Y-109111898D01*
X118822795Y-109300256D01*
X118841010Y-109327517D01*
X118812795Y-109369744D01*
X118734774Y-109558102D01*
X118695000Y-109758061D01*
X107475589Y-109758061D01*
X107290867Y-109703099D01*
X106734826Y-109651322D01*
X106179368Y-109709019D01*
X105645839Y-109873972D01*
X105179976Y-110122982D01*
X104939830Y-110510225D01*
X94517405Y-110510225D01*
X94517205Y-110509744D01*
X94510694Y-110500000D01*
X94517205Y-110490256D01*
X94595226Y-110301898D01*
X94635000Y-110101939D01*
X94635000Y-109898061D01*
X94595226Y-109698102D01*
X94517205Y-109509744D01*
X94403937Y-109340226D01*
X94259774Y-109196063D01*
X94090256Y-109082795D01*
X93901898Y-109004774D01*
X93701939Y-108965000D01*
X93498061Y-108965000D01*
X93298102Y-109004774D01*
X93109744Y-109082795D01*
X92940226Y-109196063D01*
X92796063Y-109340226D01*
X92682795Y-109509744D01*
X92604774Y-109698102D01*
X92565000Y-109898061D01*
X86093099Y-109898061D01*
X85937624Y-109794176D01*
X85731067Y-109708617D01*
X85511788Y-109665000D01*
X85504524Y-109665000D01*
X85535000Y-109511788D01*
X85535000Y-109288212D01*
X85491383Y-109068933D01*
X85405824Y-108862376D01*
X85281612Y-108676480D01*
X85123520Y-108518388D01*
X84937624Y-108394176D01*
X84731067Y-108308617D01*
X84600995Y-108282744D01*
X84635000Y-108111788D01*
X84635000Y-107888212D01*
X84591383Y-107668933D01*
X84505824Y-107462376D01*
X84381612Y-107276480D01*
X84223520Y-107118388D01*
X84037624Y-106994176D01*
X83831067Y-106908617D01*
X83700995Y-106882744D01*
X83735000Y-106711788D01*
X83735000Y-106488212D01*
X83691383Y-106268933D01*
X83605824Y-106062376D01*
X83481612Y-105876480D01*
X83323520Y-105718388D01*
X83137624Y-105594176D01*
X82931067Y-105508617D01*
X82711788Y-105465000D01*
X82488212Y-105465000D01*
X82268933Y-105508617D01*
X82062376Y-105594176D01*
X81876480Y-105718388D01*
X81718388Y-105876480D01*
X81594176Y-106062376D01*
X81508617Y-106268933D01*
X81465000Y-106488212D01*
X81465000Y-106711788D01*
X81508617Y-106931067D01*
X81544868Y-107018585D01*
X81362376Y-107094176D01*
X81176480Y-107218388D01*
X81018388Y-107376480D01*
X80894176Y-107562376D01*
X80808617Y-107768933D01*
X80765000Y-107988212D01*
X79927000Y-107988212D01*
X79927000Y-104956414D01*
X79996063Y-105059774D01*
X80140226Y-105203937D01*
X80309744Y-105317205D01*
X80498102Y-105395226D01*
X80698061Y-105435000D01*
X80901939Y-105435000D01*
X81101898Y-105395226D01*
X81290256Y-105317205D01*
X81459774Y-105203937D01*
X81603937Y-105059774D01*
X81717205Y-104890256D01*
X81795226Y-104701898D01*
X81835000Y-104501939D01*
X81835000Y-104298061D01*
X81815109Y-104198061D01*
X82365000Y-104198061D01*
X82365000Y-104401939D01*
X82404774Y-104601898D01*
X82482795Y-104790256D01*
X82596063Y-104959774D01*
X82740226Y-105103937D01*
X82909744Y-105217205D01*
X83098102Y-105295226D01*
X83298061Y-105335000D01*
X83501939Y-105335000D01*
X83687645Y-105298061D01*
X84365000Y-105298061D01*
X84365000Y-105501939D01*
X84404774Y-105701898D01*
X84482795Y-105890256D01*
X84596063Y-106059774D01*
X84740226Y-106203937D01*
X84909744Y-106317205D01*
X85098102Y-106395226D01*
X85298061Y-106435000D01*
X85391467Y-106435000D01*
X85404774Y-106501898D01*
X85482795Y-106690256D01*
X85596063Y-106859774D01*
X85740226Y-107003937D01*
X85909744Y-107117205D01*
X86098102Y-107195226D01*
X86298061Y-107235000D01*
X86501939Y-107235000D01*
X86701898Y-107195226D01*
X86890256Y-107117205D01*
X87059774Y-107003937D01*
X87203937Y-106859774D01*
X87317205Y-106690256D01*
X87395226Y-106501898D01*
X87435000Y-106301939D01*
X87435000Y-106098061D01*
X87395226Y-105898102D01*
X87317205Y-105709744D01*
X87203937Y-105540226D01*
X87163839Y-105500128D01*
X118481921Y-105500128D01*
X118505853Y-105662858D01*
X118561072Y-105817792D01*
X118600869Y-105892247D01*
X118790121Y-105886641D01*
X119216762Y-105460000D01*
X118790121Y-105033359D01*
X118600869Y-105027753D01*
X118530360Y-105176354D01*
X118490195Y-105335855D01*
X118481921Y-105500128D01*
X87163839Y-105500128D01*
X87059774Y-105396063D01*
X86890256Y-105282795D01*
X86701898Y-105204774D01*
X86501939Y-105165000D01*
X86408533Y-105165000D01*
X86395226Y-105098102D01*
X86317205Y-104909744D01*
X86203937Y-104740226D01*
X86059774Y-104596063D01*
X85890256Y-104482795D01*
X85701898Y-104404774D01*
X85501939Y-104365000D01*
X85298061Y-104365000D01*
X85098102Y-104404774D01*
X84909744Y-104482795D01*
X84740226Y-104596063D01*
X84596063Y-104740226D01*
X84482795Y-104909744D01*
X84404774Y-105098102D01*
X84365000Y-105298061D01*
X83687645Y-105298061D01*
X83701898Y-105295226D01*
X83890256Y-105217205D01*
X84059774Y-105103937D01*
X84203937Y-104959774D01*
X84317205Y-104790256D01*
X84395226Y-104601898D01*
X84435000Y-104401939D01*
X84435000Y-104198061D01*
X84395226Y-103998102D01*
X84317205Y-103809744D01*
X84203937Y-103640226D01*
X84059774Y-103496063D01*
X83890256Y-103382795D01*
X83701898Y-103304774D01*
X83668150Y-103298061D01*
X90265000Y-103298061D01*
X90265000Y-103501939D01*
X90304774Y-103701898D01*
X90382795Y-103890256D01*
X90496063Y-104059774D01*
X90640226Y-104203937D01*
X90809744Y-104317205D01*
X90998102Y-104395226D01*
X91198061Y-104435000D01*
X91401939Y-104435000D01*
X91601898Y-104395226D01*
X91790256Y-104317205D01*
X91959774Y-104203937D01*
X92050000Y-104113711D01*
X92140226Y-104203937D01*
X92309744Y-104317205D01*
X92498102Y-104395226D01*
X92698061Y-104435000D01*
X92901939Y-104435000D01*
X93101898Y-104395226D01*
X93116060Y-104389360D01*
X93160033Y-104495521D01*
X93251413Y-104632281D01*
X93367719Y-104748587D01*
X93504479Y-104839967D01*
X93656440Y-104902911D01*
X93817760Y-104935000D01*
X93982240Y-104935000D01*
X94143560Y-104902911D01*
X94295521Y-104839967D01*
X94432281Y-104748587D01*
X94439999Y-104740869D01*
X118887753Y-104740869D01*
X118893359Y-104930121D01*
X119320000Y-105356762D01*
X119372326Y-105304436D01*
X119475564Y-105407674D01*
X119423238Y-105460000D01*
X119475564Y-105512326D01*
X119372326Y-105615564D01*
X119320000Y-105563238D01*
X118893359Y-105989879D01*
X118887753Y-106179131D01*
X119036354Y-106249640D01*
X119195855Y-106289805D01*
X119360128Y-106298079D01*
X119522858Y-106274147D01*
X119677792Y-106218928D01*
X119752247Y-106179131D01*
X119749159Y-106074873D01*
X119816947Y-106142661D01*
X119820000Y-106139608D01*
X119823053Y-106142661D01*
X119890841Y-106074873D01*
X119887753Y-106179131D01*
X120036354Y-106249640D01*
X120195855Y-106289805D01*
X120360128Y-106298079D01*
X120522858Y-106274147D01*
X120677792Y-106218928D01*
X120752247Y-106179131D01*
X120746641Y-105989879D01*
X120320000Y-105563238D01*
X120267674Y-105615564D01*
X120164436Y-105512326D01*
X120216762Y-105460000D01*
X120423238Y-105460000D01*
X120849879Y-105886641D01*
X121039131Y-105892247D01*
X121109640Y-105743646D01*
X121149805Y-105584145D01*
X121158079Y-105419872D01*
X121134147Y-105257142D01*
X121078928Y-105102208D01*
X121039131Y-105027753D01*
X120849879Y-105033359D01*
X120423238Y-105460000D01*
X120216762Y-105460000D01*
X120164436Y-105407674D01*
X120267674Y-105304436D01*
X120320000Y-105356762D01*
X120746641Y-104930121D01*
X120752247Y-104740869D01*
X120603646Y-104670360D01*
X120444145Y-104630195D01*
X120279872Y-104621921D01*
X120117142Y-104645853D01*
X119962208Y-104701072D01*
X119887753Y-104740869D01*
X119890841Y-104845127D01*
X119823053Y-104777339D01*
X119820000Y-104780392D01*
X119816947Y-104777339D01*
X119749159Y-104845127D01*
X119752247Y-104740869D01*
X119603646Y-104670360D01*
X119444145Y-104630195D01*
X119279872Y-104621921D01*
X119117142Y-104645853D01*
X118962208Y-104701072D01*
X118887753Y-104740869D01*
X94439999Y-104740869D01*
X94548587Y-104632281D01*
X94639967Y-104495521D01*
X94702911Y-104343560D01*
X94735000Y-104182240D01*
X94735000Y-104017760D01*
X94702911Y-103856440D01*
X94639967Y-103704479D01*
X94548587Y-103567719D01*
X94432281Y-103451413D01*
X94295521Y-103360033D01*
X94143560Y-103297089D01*
X93982240Y-103265000D01*
X93828424Y-103265000D01*
X93795226Y-103098102D01*
X93717205Y-102909744D01*
X93603937Y-102740226D01*
X93459774Y-102596063D01*
X93290256Y-102482795D01*
X93101898Y-102404774D01*
X92901939Y-102365000D01*
X92698061Y-102365000D01*
X92498102Y-102404774D01*
X92309744Y-102482795D01*
X92140226Y-102596063D01*
X92050000Y-102686289D01*
X91959774Y-102596063D01*
X91790256Y-102482795D01*
X91601898Y-102404774D01*
X91401939Y-102365000D01*
X91198061Y-102365000D01*
X90998102Y-102404774D01*
X90809744Y-102482795D01*
X90640226Y-102596063D01*
X90496063Y-102740226D01*
X90382795Y-102909744D01*
X90304774Y-103098102D01*
X90265000Y-103298061D01*
X83668150Y-103298061D01*
X83501939Y-103265000D01*
X83298061Y-103265000D01*
X83098102Y-103304774D01*
X82909744Y-103382795D01*
X82740226Y-103496063D01*
X82596063Y-103640226D01*
X82482795Y-103809744D01*
X82404774Y-103998102D01*
X82365000Y-104198061D01*
X81815109Y-104198061D01*
X81795226Y-104098102D01*
X81717205Y-103909744D01*
X81603937Y-103740226D01*
X81459774Y-103596063D01*
X81290256Y-103482795D01*
X81101898Y-103404774D01*
X80901939Y-103365000D01*
X80698061Y-103365000D01*
X80498102Y-103404774D01*
X80309744Y-103482795D01*
X80140226Y-103596063D01*
X79996063Y-103740226D01*
X79927000Y-103843586D01*
X79927000Y-100884164D01*
X102085784Y-100884164D01*
X102089826Y-101072827D01*
X102250974Y-101139328D01*
X102421998Y-101173113D01*
X102596328Y-101172884D01*
X102767264Y-101138649D01*
X102926174Y-101072827D01*
X102930216Y-100884164D01*
X102508000Y-100461948D01*
X102085784Y-100884164D01*
X79927000Y-100884164D01*
X79927000Y-100201998D01*
X101622887Y-100201998D01*
X101623116Y-100376328D01*
X101657351Y-100547264D01*
X101723173Y-100706174D01*
X101911836Y-100710216D01*
X102334052Y-100288000D01*
X102681948Y-100288000D01*
X103104164Y-100710216D01*
X103292827Y-100706174D01*
X103359328Y-100545026D01*
X103393113Y-100374002D01*
X103392884Y-100199672D01*
X103358649Y-100028736D01*
X103292827Y-99869826D01*
X103104164Y-99865784D01*
X102681948Y-100288000D01*
X102334052Y-100288000D01*
X101911836Y-99865784D01*
X101723173Y-99869826D01*
X101656672Y-100030974D01*
X101622887Y-100201998D01*
X79927000Y-100201998D01*
X79927000Y-99691836D01*
X102085784Y-99691836D01*
X102131948Y-99738000D01*
X102085784Y-99784164D01*
X102089826Y-99972827D01*
X102250974Y-100039328D01*
X102421998Y-100073113D01*
X102467002Y-100073054D01*
X102508000Y-100114052D01*
X102549106Y-100072946D01*
X102596328Y-100072884D01*
X102767264Y-100038649D01*
X102926174Y-99972827D01*
X102930216Y-99784164D01*
X102884052Y-99738000D01*
X102930216Y-99691836D01*
X102926174Y-99503173D01*
X102765026Y-99436672D01*
X102594002Y-99402887D01*
X102548998Y-99402946D01*
X102508000Y-99361948D01*
X102466894Y-99403054D01*
X102419672Y-99403116D01*
X102248736Y-99437351D01*
X102089826Y-99503173D01*
X102085784Y-99691836D01*
X79927000Y-99691836D01*
X79927000Y-99101998D01*
X101622887Y-99101998D01*
X101623116Y-99276328D01*
X101657351Y-99447264D01*
X101723173Y-99606174D01*
X101911836Y-99610216D01*
X102334052Y-99188000D01*
X102681948Y-99188000D01*
X103104164Y-99610216D01*
X103292827Y-99606174D01*
X103359328Y-99445026D01*
X103393113Y-99274002D01*
X103392884Y-99099672D01*
X103372534Y-98998061D01*
X104665000Y-98998061D01*
X104665000Y-99201939D01*
X104704774Y-99401898D01*
X104782795Y-99590256D01*
X104896063Y-99759774D01*
X105040226Y-99903937D01*
X105209744Y-100017205D01*
X105398102Y-100095226D01*
X105598061Y-100135000D01*
X105801939Y-100135000D01*
X106001898Y-100095226D01*
X106104004Y-100052932D01*
X106097089Y-100069626D01*
X106065000Y-100230946D01*
X106065000Y-100395426D01*
X106097089Y-100556746D01*
X106160033Y-100708707D01*
X106251413Y-100845467D01*
X106367719Y-100961773D01*
X106504479Y-101053153D01*
X106656440Y-101116097D01*
X106797321Y-101144120D01*
X106860033Y-101295521D01*
X106951413Y-101432281D01*
X107067719Y-101548587D01*
X107204479Y-101639967D01*
X107356440Y-101702911D01*
X107517760Y-101735000D01*
X107682240Y-101735000D01*
X107843560Y-101702911D01*
X107995521Y-101639967D01*
X108132281Y-101548587D01*
X108248587Y-101432281D01*
X108339967Y-101295521D01*
X108402911Y-101143560D01*
X108435000Y-100982240D01*
X108435000Y-100817760D01*
X108402911Y-100656440D01*
X108339967Y-100504479D01*
X108248587Y-100367719D01*
X108132281Y-100251413D01*
X107995521Y-100160033D01*
X107843560Y-100097089D01*
X107702679Y-100069066D01*
X107639967Y-99917665D01*
X107548587Y-99780905D01*
X107432281Y-99664599D01*
X107295521Y-99573219D01*
X107143560Y-99510275D01*
X106982240Y-99478186D01*
X106817760Y-99478186D01*
X106656440Y-99510275D01*
X106649070Y-99513328D01*
X106695226Y-99401898D01*
X106702140Y-99367140D01*
X106736898Y-99360226D01*
X106925256Y-99282205D01*
X107094774Y-99168937D01*
X107238937Y-99024774D01*
X107352205Y-98855256D01*
X107375896Y-98798061D01*
X112465000Y-98798061D01*
X112465000Y-99001939D01*
X112504774Y-99201898D01*
X112582795Y-99390256D01*
X112696063Y-99559774D01*
X112840226Y-99703937D01*
X113009744Y-99817205D01*
X113198102Y-99895226D01*
X113398061Y-99935000D01*
X113601939Y-99935000D01*
X113801898Y-99895226D01*
X113990256Y-99817205D01*
X114000000Y-99810694D01*
X114009744Y-99817205D01*
X114198102Y-99895226D01*
X114398061Y-99935000D01*
X114601939Y-99935000D01*
X114801898Y-99895226D01*
X114990256Y-99817205D01*
X115159774Y-99703937D01*
X115303937Y-99559774D01*
X115417205Y-99390256D01*
X115495226Y-99201898D01*
X115535000Y-99001939D01*
X115535000Y-98798061D01*
X115495226Y-98598102D01*
X115417205Y-98409744D01*
X115303937Y-98240226D01*
X115159774Y-98096063D01*
X114990256Y-97982795D01*
X114801898Y-97904774D01*
X114601939Y-97865000D01*
X114398061Y-97865000D01*
X114198102Y-97904774D01*
X114009744Y-97982795D01*
X114000000Y-97989306D01*
X113990256Y-97982795D01*
X113801898Y-97904774D01*
X113601939Y-97865000D01*
X113398061Y-97865000D01*
X113198102Y-97904774D01*
X113009744Y-97982795D01*
X112840226Y-98096063D01*
X112696063Y-98240226D01*
X112582795Y-98409744D01*
X112504774Y-98598102D01*
X112465000Y-98798061D01*
X107375896Y-98798061D01*
X107430226Y-98666898D01*
X107470000Y-98466939D01*
X107470000Y-98263061D01*
X107430226Y-98063102D01*
X107352205Y-97874744D01*
X107238937Y-97705226D01*
X107094774Y-97561063D01*
X106925256Y-97447795D01*
X106736898Y-97369774D01*
X106536939Y-97330000D01*
X106333061Y-97330000D01*
X106133102Y-97369774D01*
X105944744Y-97447795D01*
X105775226Y-97561063D01*
X105631063Y-97705226D01*
X105517795Y-97874744D01*
X105439774Y-98063102D01*
X105432860Y-98097860D01*
X105398102Y-98104774D01*
X105209744Y-98182795D01*
X105040226Y-98296063D01*
X104896063Y-98440226D01*
X104782795Y-98609744D01*
X104704774Y-98798102D01*
X104665000Y-98998061D01*
X103372534Y-98998061D01*
X103358649Y-98928736D01*
X103292827Y-98769826D01*
X103104164Y-98765784D01*
X102681948Y-99188000D01*
X102334052Y-99188000D01*
X101911836Y-98765784D01*
X101723173Y-98769826D01*
X101656672Y-98930974D01*
X101622887Y-99101998D01*
X79927000Y-99101998D01*
X79927000Y-97898061D01*
X89715000Y-97898061D01*
X89715000Y-98101939D01*
X89754774Y-98301898D01*
X89832795Y-98490256D01*
X89946063Y-98659774D01*
X90090226Y-98803937D01*
X90259744Y-98917205D01*
X90448102Y-98995226D01*
X90648061Y-99035000D01*
X90851939Y-99035000D01*
X91051898Y-98995226D01*
X91240256Y-98917205D01*
X91409774Y-98803937D01*
X91553937Y-98659774D01*
X91599331Y-98591836D01*
X102085784Y-98591836D01*
X102508000Y-99014052D01*
X102930216Y-98591836D01*
X102926174Y-98403173D01*
X102765026Y-98336672D01*
X102594002Y-98302887D01*
X102419672Y-98303116D01*
X102248736Y-98337351D01*
X102089826Y-98403173D01*
X102085784Y-98591836D01*
X91599331Y-98591836D01*
X91667205Y-98490256D01*
X91745226Y-98301898D01*
X91785000Y-98101939D01*
X91785000Y-97898061D01*
X91745226Y-97698102D01*
X91667205Y-97509744D01*
X91553937Y-97340226D01*
X91453486Y-97239775D01*
X114189830Y-97239775D01*
X114429976Y-97627018D01*
X114923877Y-97887641D01*
X115459133Y-98046901D01*
X116015174Y-98098678D01*
X116570632Y-98040981D01*
X117104161Y-97876028D01*
X117570024Y-97627018D01*
X117810170Y-97239775D01*
X116000000Y-95429605D01*
X114189830Y-97239775D01*
X91453486Y-97239775D01*
X91409774Y-97196063D01*
X91240256Y-97082795D01*
X91051898Y-97004774D01*
X90851939Y-96965000D01*
X90648061Y-96965000D01*
X90448102Y-97004774D01*
X90259744Y-97082795D01*
X90090226Y-97196063D01*
X89946063Y-97340226D01*
X89832795Y-97509744D01*
X89754774Y-97698102D01*
X89715000Y-97898061D01*
X79927000Y-97898061D01*
X79927000Y-95198061D01*
X98465000Y-95198061D01*
X98465000Y-95401939D01*
X98504774Y-95601898D01*
X98582795Y-95790256D01*
X98696063Y-95959774D01*
X98840226Y-96103937D01*
X99009744Y-96217205D01*
X99198102Y-96295226D01*
X99398061Y-96335000D01*
X99601939Y-96335000D01*
X99801898Y-96295226D01*
X99990256Y-96217205D01*
X100159774Y-96103937D01*
X100303937Y-95959774D01*
X100417205Y-95790256D01*
X100495226Y-95601898D01*
X100535000Y-95401939D01*
X100535000Y-95265174D01*
X113151322Y-95265174D01*
X113209019Y-95820632D01*
X113373972Y-96354161D01*
X113622982Y-96820024D01*
X114010225Y-97060170D01*
X115820395Y-95250000D01*
X116179605Y-95250000D01*
X117989775Y-97060170D01*
X118377018Y-96820024D01*
X118637641Y-96326123D01*
X118796901Y-95790867D01*
X118848678Y-95234826D01*
X118790981Y-94679368D01*
X118626028Y-94145839D01*
X118377018Y-93679976D01*
X117989775Y-93439830D01*
X116179605Y-95250000D01*
X115820395Y-95250000D01*
X114010225Y-93439830D01*
X113622982Y-93679976D01*
X113362359Y-94173877D01*
X113203099Y-94709133D01*
X113151322Y-95265174D01*
X100535000Y-95265174D01*
X100535000Y-95198061D01*
X100495226Y-94998102D01*
X100417205Y-94809744D01*
X100303937Y-94640226D01*
X100159774Y-94496063D01*
X99990256Y-94382795D01*
X99801898Y-94304774D01*
X99601939Y-94265000D01*
X99398061Y-94265000D01*
X99198102Y-94304774D01*
X99009744Y-94382795D01*
X98840226Y-94496063D01*
X98696063Y-94640226D01*
X98582795Y-94809744D01*
X98504774Y-94998102D01*
X98465000Y-95198061D01*
X79927000Y-95198061D01*
X79927000Y-95100000D01*
X79924560Y-95075224D01*
X79917333Y-95051399D01*
X79905597Y-95029443D01*
X79889803Y-95010197D01*
X79870557Y-94994403D01*
X79848601Y-94982667D01*
X79824776Y-94975440D01*
X79800000Y-94973000D01*
X79660000Y-94973000D01*
X79660000Y-93898061D01*
X85965000Y-93898061D01*
X85965000Y-94101939D01*
X86004774Y-94301898D01*
X86082795Y-94490256D01*
X86196063Y-94659774D01*
X86340226Y-94803937D01*
X86509744Y-94917205D01*
X86698102Y-94995226D01*
X86898061Y-95035000D01*
X87101939Y-95035000D01*
X87301898Y-94995226D01*
X87490256Y-94917205D01*
X87635500Y-94820157D01*
X87780743Y-94917205D01*
X87969101Y-94995226D01*
X88169060Y-95035000D01*
X88372938Y-95035000D01*
X88572897Y-94995226D01*
X88761255Y-94917205D01*
X88930773Y-94803937D01*
X89074936Y-94659774D01*
X89188204Y-94490256D01*
X89266225Y-94301898D01*
X89305999Y-94101939D01*
X89305999Y-93927000D01*
X100745000Y-93927000D01*
X100745000Y-94227000D01*
X100791585Y-94445987D01*
X100879997Y-94651678D01*
X101006839Y-94836169D01*
X101167236Y-94992369D01*
X101355024Y-95114276D01*
X101578126Y-95194119D01*
X101753000Y-95067954D01*
X101753000Y-93927000D01*
X102007000Y-93927000D01*
X102007000Y-95067954D01*
X102181874Y-95194119D01*
X102404976Y-95114276D01*
X102592764Y-94992369D01*
X102753161Y-94836169D01*
X102880003Y-94651678D01*
X102968415Y-94445987D01*
X103015000Y-94227000D01*
X103015000Y-93927000D01*
X102007000Y-93927000D01*
X101753000Y-93927000D01*
X100745000Y-93927000D01*
X89305999Y-93927000D01*
X89305999Y-93898061D01*
X89266225Y-93698102D01*
X89188204Y-93509744D01*
X89096835Y-93373000D01*
X100745000Y-93373000D01*
X100745000Y-93673000D01*
X101753000Y-93673000D01*
X101753000Y-92532046D01*
X102007000Y-92532046D01*
X102007000Y-93673000D01*
X103015000Y-93673000D01*
X103015000Y-93373000D01*
X102999059Y-93298061D01*
X103665000Y-93298061D01*
X103665000Y-93501939D01*
X103704774Y-93701898D01*
X103782795Y-93890256D01*
X103896063Y-94059774D01*
X104040226Y-94203937D01*
X104209744Y-94317205D01*
X104398102Y-94395226D01*
X104598061Y-94435000D01*
X104801939Y-94435000D01*
X105001898Y-94395226D01*
X105190256Y-94317205D01*
X105359774Y-94203937D01*
X105503937Y-94059774D01*
X105617205Y-93890256D01*
X105695226Y-93701898D01*
X105735000Y-93501939D01*
X105735000Y-93298061D01*
X106665000Y-93298061D01*
X106665000Y-93501939D01*
X106704774Y-93701898D01*
X106782795Y-93890256D01*
X106896063Y-94059774D01*
X107040226Y-94203937D01*
X107209744Y-94317205D01*
X107398102Y-94395226D01*
X107598061Y-94435000D01*
X107801939Y-94435000D01*
X108001898Y-94395226D01*
X108190256Y-94317205D01*
X108359774Y-94203937D01*
X108503937Y-94059774D01*
X108592653Y-93927000D01*
X109385000Y-93927000D01*
X109385000Y-94227000D01*
X109431585Y-94445987D01*
X109519997Y-94651678D01*
X109646839Y-94836169D01*
X109807236Y-94992369D01*
X109995024Y-95114276D01*
X110218126Y-95194119D01*
X110393000Y-95067954D01*
X110393000Y-93927000D01*
X110647000Y-93927000D01*
X110647000Y-95067954D01*
X110821874Y-95194119D01*
X111044976Y-95114276D01*
X111232764Y-94992369D01*
X111393161Y-94836169D01*
X111520003Y-94651678D01*
X111608415Y-94445987D01*
X111655000Y-94227000D01*
X111655000Y-93927000D01*
X110647000Y-93927000D01*
X110393000Y-93927000D01*
X109385000Y-93927000D01*
X108592653Y-93927000D01*
X108617205Y-93890256D01*
X108695226Y-93701898D01*
X108735000Y-93501939D01*
X108735000Y-93373000D01*
X109385000Y-93373000D01*
X109385000Y-93673000D01*
X110393000Y-93673000D01*
X110393000Y-92532046D01*
X110647000Y-92532046D01*
X110647000Y-93673000D01*
X111655000Y-93673000D01*
X111655000Y-93373000D01*
X111631010Y-93260225D01*
X114189830Y-93260225D01*
X116000000Y-95070395D01*
X117810170Y-93260225D01*
X117570024Y-92872982D01*
X117076123Y-92612359D01*
X116540867Y-92453099D01*
X115984826Y-92401322D01*
X115429368Y-92459019D01*
X114895839Y-92623972D01*
X114429976Y-92872982D01*
X114189830Y-93260225D01*
X111631010Y-93260225D01*
X111608415Y-93154013D01*
X111520003Y-92948322D01*
X111393161Y-92763831D01*
X111232764Y-92607631D01*
X111044976Y-92485724D01*
X110821874Y-92405881D01*
X110647000Y-92532046D01*
X110393000Y-92532046D01*
X110218126Y-92405881D01*
X109995024Y-92485724D01*
X109807236Y-92607631D01*
X109646839Y-92763831D01*
X109519997Y-92948322D01*
X109431585Y-93154013D01*
X109385000Y-93373000D01*
X108735000Y-93373000D01*
X108735000Y-93298061D01*
X108695226Y-93098102D01*
X108617205Y-92909744D01*
X108503937Y-92740226D01*
X108359774Y-92596063D01*
X108190256Y-92482795D01*
X108001898Y-92404774D01*
X107801939Y-92365000D01*
X107598061Y-92365000D01*
X107398102Y-92404774D01*
X107209744Y-92482795D01*
X107040226Y-92596063D01*
X106896063Y-92740226D01*
X106782795Y-92909744D01*
X106704774Y-93098102D01*
X106665000Y-93298061D01*
X105735000Y-93298061D01*
X105695226Y-93098102D01*
X105617205Y-92909744D01*
X105503937Y-92740226D01*
X105359774Y-92596063D01*
X105190256Y-92482795D01*
X105001898Y-92404774D01*
X104801939Y-92365000D01*
X104598061Y-92365000D01*
X104398102Y-92404774D01*
X104209744Y-92482795D01*
X104040226Y-92596063D01*
X103896063Y-92740226D01*
X103782795Y-92909744D01*
X103704774Y-93098102D01*
X103665000Y-93298061D01*
X102999059Y-93298061D01*
X102968415Y-93154013D01*
X102880003Y-92948322D01*
X102753161Y-92763831D01*
X102592764Y-92607631D01*
X102404976Y-92485724D01*
X102181874Y-92405881D01*
X102007000Y-92532046D01*
X101753000Y-92532046D01*
X101578126Y-92405881D01*
X101355024Y-92485724D01*
X101167236Y-92607631D01*
X101006839Y-92763831D01*
X100879997Y-92948322D01*
X100791585Y-93154013D01*
X100745000Y-93373000D01*
X89096835Y-93373000D01*
X89074936Y-93340226D01*
X88930773Y-93196063D01*
X88761255Y-93082795D01*
X88572897Y-93004774D01*
X88372938Y-92965000D01*
X88169060Y-92965000D01*
X87969101Y-93004774D01*
X87780743Y-93082795D01*
X87635500Y-93179843D01*
X87490256Y-93082795D01*
X87301898Y-93004774D01*
X87101939Y-92965000D01*
X86898061Y-92965000D01*
X86698102Y-93004774D01*
X86509744Y-93082795D01*
X86340226Y-93196063D01*
X86196063Y-93340226D01*
X86082795Y-93509744D01*
X86004774Y-93698102D01*
X85965000Y-93898061D01*
X79660000Y-93898061D01*
X79660000Y-91032279D01*
X79688625Y-90740341D01*
X79764035Y-90490571D01*
X79886522Y-90260208D01*
X80051422Y-90058020D01*
X80252450Y-89891714D01*
X80481954Y-89767622D01*
X80731195Y-89690469D01*
X81021088Y-89660000D01*
X87270556Y-89660000D01*
X87254774Y-89698102D01*
G37*
G04 #@! TD.AperFunction*
M02*
