G04 #@! TF.GenerationSoftware,KiCad,Pcbnew,(5.1.9)-1*
G04 #@! TF.CreationDate,2021-03-14T10:57:35-07:00*
G04 #@! TF.ProjectId,rgba,72676261-2e6b-4696-9361-645f70636258,1*
G04 #@! TF.SameCoordinates,Original*
G04 #@! TF.FileFunction,Soldermask,Bot*
G04 #@! TF.FilePolarity,Negative*
%FSLAX46Y46*%
G04 Gerber Fmt 4.6, Leading zero omitted, Abs format (unit mm)*
G04 Created by KiCad (PCBNEW (5.1.9)-1) date 2021-03-14 10:57:35*
%MOMM*%
%LPD*%
G01*
G04 APERTURE LIST*
%ADD10R,0.800000X0.400000*%
%ADD11R,1.140000X0.650000*%
%ADD12C,0.400000*%
%ADD13R,2.000000X1.200000*%
%ADD14R,1.600000X0.600000*%
%ADD15R,0.600000X1.600000*%
%ADD16C,1.000000*%
%ADD17C,0.700000*%
%ADD18C,4.400000*%
%ADD19R,0.600000X1.450000*%
%ADD20R,0.700000X1.450000*%
%ADD21O,1.000000X1.600000*%
G04 APERTURE END LIST*
D10*
X113200000Y-114850000D03*
X110800000Y-114850000D03*
D11*
X113030000Y-113755000D03*
X110970000Y-113755000D03*
D10*
X119900000Y-89600000D03*
X122300000Y-89600000D03*
D11*
X120070000Y-90695000D03*
X122130000Y-90695000D03*
D10*
X113500000Y-89650000D03*
X115900000Y-89650000D03*
D11*
X113670000Y-90745000D03*
X115730000Y-90745000D03*
G36*
G01*
X121320000Y-101810000D02*
X121320000Y-100110000D01*
G75*
G02*
X121570000Y-99860000I250000J0D01*
G01*
X122495000Y-99860000D01*
G75*
G02*
X122745000Y-100110000I0J-250000D01*
G01*
X122745000Y-101810000D01*
G75*
G02*
X122495000Y-102060000I-250000J0D01*
G01*
X121570000Y-102060000D01*
G75*
G02*
X121320000Y-101810000I0J250000D01*
G01*
G37*
G36*
G01*
X118995000Y-101810000D02*
X118995000Y-100110000D01*
G75*
G02*
X119245000Y-99860000I250000J0D01*
G01*
X120170000Y-99860000D01*
G75*
G02*
X120420000Y-100110000I0J-250000D01*
G01*
X120420000Y-101810000D01*
G75*
G02*
X120170000Y-102060000I-250000J0D01*
G01*
X119245000Y-102060000D01*
G75*
G02*
X118995000Y-101810000I0J250000D01*
G01*
G37*
G36*
G01*
X122640000Y-111637500D02*
X120940000Y-111637500D01*
G75*
G02*
X120690000Y-111387500I0J250000D01*
G01*
X120690000Y-110462500D01*
G75*
G02*
X120940000Y-110212500I250000J0D01*
G01*
X122640000Y-110212500D01*
G75*
G02*
X122890000Y-110462500I0J-250000D01*
G01*
X122890000Y-111387500D01*
G75*
G02*
X122640000Y-111637500I-250000J0D01*
G01*
G37*
G36*
G01*
X122640000Y-109312500D02*
X120940000Y-109312500D01*
G75*
G02*
X120690000Y-109062500I0J250000D01*
G01*
X120690000Y-108137500D01*
G75*
G02*
X120940000Y-107887500I250000J0D01*
G01*
X122640000Y-107887500D01*
G75*
G02*
X122890000Y-108137500I0J-250000D01*
G01*
X122890000Y-109062500D01*
G75*
G02*
X122640000Y-109312500I-250000J0D01*
G01*
G37*
G36*
G01*
X88350000Y-90562500D02*
X88350000Y-91037500D01*
G75*
G02*
X88112500Y-91275000I-237500J0D01*
G01*
X87537500Y-91275000D01*
G75*
G02*
X87300000Y-91037500I0J237500D01*
G01*
X87300000Y-90562500D01*
G75*
G02*
X87537500Y-90325000I237500J0D01*
G01*
X88112500Y-90325000D01*
G75*
G02*
X88350000Y-90562500I0J-237500D01*
G01*
G37*
G36*
G01*
X90100000Y-90562500D02*
X90100000Y-91037500D01*
G75*
G02*
X89862500Y-91275000I-237500J0D01*
G01*
X89287500Y-91275000D01*
G75*
G02*
X89050000Y-91037500I0J237500D01*
G01*
X89050000Y-90562500D01*
G75*
G02*
X89287500Y-90325000I237500J0D01*
G01*
X89862500Y-90325000D01*
G75*
G02*
X90100000Y-90562500I0J-237500D01*
G01*
G37*
G36*
G01*
X90100000Y-92162500D02*
X90100000Y-92637500D01*
G75*
G02*
X89862500Y-92875000I-237500J0D01*
G01*
X89287500Y-92875000D01*
G75*
G02*
X89050000Y-92637500I0J237500D01*
G01*
X89050000Y-92162500D01*
G75*
G02*
X89287500Y-91925000I237500J0D01*
G01*
X89862500Y-91925000D01*
G75*
G02*
X90100000Y-92162500I0J-237500D01*
G01*
G37*
G36*
G01*
X88350000Y-92162500D02*
X88350000Y-92637500D01*
G75*
G02*
X88112500Y-92875000I-237500J0D01*
G01*
X87537500Y-92875000D01*
G75*
G02*
X87300000Y-92637500I0J237500D01*
G01*
X87300000Y-92162500D01*
G75*
G02*
X87537500Y-91925000I237500J0D01*
G01*
X88112500Y-91925000D01*
G75*
G02*
X88350000Y-92162500I0J-237500D01*
G01*
G37*
G36*
G01*
X118306500Y-102998000D02*
X118306500Y-102688000D01*
G75*
G02*
X118461500Y-102533000I155000J0D01*
G01*
X118886500Y-102533000D01*
G75*
G02*
X119041500Y-102688000I0J-155000D01*
G01*
X119041500Y-102998000D01*
G75*
G02*
X118886500Y-103153000I-155000J0D01*
G01*
X118461500Y-103153000D01*
G75*
G02*
X118306500Y-102998000I0J155000D01*
G01*
G37*
G36*
G01*
X117171500Y-102998000D02*
X117171500Y-102688000D01*
G75*
G02*
X117326500Y-102533000I155000J0D01*
G01*
X117751500Y-102533000D01*
G75*
G02*
X117906500Y-102688000I0J-155000D01*
G01*
X117906500Y-102998000D01*
G75*
G02*
X117751500Y-103153000I-155000J0D01*
G01*
X117326500Y-103153000D01*
G75*
G02*
X117171500Y-102998000I0J155000D01*
G01*
G37*
G36*
G01*
X120125000Y-107745000D02*
X120125000Y-108055000D01*
G75*
G02*
X119970000Y-108210000I-155000J0D01*
G01*
X119545000Y-108210000D01*
G75*
G02*
X119390000Y-108055000I0J155000D01*
G01*
X119390000Y-107745000D01*
G75*
G02*
X119545000Y-107590000I155000J0D01*
G01*
X119970000Y-107590000D01*
G75*
G02*
X120125000Y-107745000I0J-155000D01*
G01*
G37*
G36*
G01*
X118990000Y-107745000D02*
X118990000Y-108055000D01*
G75*
G02*
X118835000Y-108210000I-155000J0D01*
G01*
X118410000Y-108210000D01*
G75*
G02*
X118255000Y-108055000I0J155000D01*
G01*
X118255000Y-107745000D01*
G75*
G02*
X118410000Y-107590000I155000J0D01*
G01*
X118835000Y-107590000D01*
G75*
G02*
X118990000Y-107745000I0J-155000D01*
G01*
G37*
G36*
G01*
X122045000Y-103795000D02*
X122355000Y-103795000D01*
G75*
G02*
X122510000Y-103950000I0J-155000D01*
G01*
X122510000Y-104375000D01*
G75*
G02*
X122355000Y-104530000I-155000J0D01*
G01*
X122045000Y-104530000D01*
G75*
G02*
X121890000Y-104375000I0J155000D01*
G01*
X121890000Y-103950000D01*
G75*
G02*
X122045000Y-103795000I155000J0D01*
G01*
G37*
G36*
G01*
X122045000Y-104930000D02*
X122355000Y-104930000D01*
G75*
G02*
X122510000Y-105085000I0J-155000D01*
G01*
X122510000Y-105510000D01*
G75*
G02*
X122355000Y-105665000I-155000J0D01*
G01*
X122045000Y-105665000D01*
G75*
G02*
X121890000Y-105510000I0J155000D01*
G01*
X121890000Y-105085000D01*
G75*
G02*
X122045000Y-104930000I155000J0D01*
G01*
G37*
G36*
G01*
X88955000Y-97840000D02*
X88955000Y-98160000D01*
G75*
G02*
X88795000Y-98320000I-160000J0D01*
G01*
X88400000Y-98320000D01*
G75*
G02*
X88240000Y-98160000I0J160000D01*
G01*
X88240000Y-97840000D01*
G75*
G02*
X88400000Y-97680000I160000J0D01*
G01*
X88795000Y-97680000D01*
G75*
G02*
X88955000Y-97840000I0J-160000D01*
G01*
G37*
G36*
G01*
X87760000Y-97840000D02*
X87760000Y-98160000D01*
G75*
G02*
X87600000Y-98320000I-160000J0D01*
G01*
X87205000Y-98320000D01*
G75*
G02*
X87045000Y-98160000I0J160000D01*
G01*
X87045000Y-97840000D01*
G75*
G02*
X87205000Y-97680000I160000J0D01*
G01*
X87600000Y-97680000D01*
G75*
G02*
X87760000Y-97840000I0J-160000D01*
G01*
G37*
G36*
G01*
X95000000Y-114955000D02*
X95000000Y-114645000D01*
G75*
G02*
X95155000Y-114490000I155000J0D01*
G01*
X95580000Y-114490000D01*
G75*
G02*
X95735000Y-114645000I0J-155000D01*
G01*
X95735000Y-114955000D01*
G75*
G02*
X95580000Y-115110000I-155000J0D01*
G01*
X95155000Y-115110000D01*
G75*
G02*
X95000000Y-114955000I0J155000D01*
G01*
G37*
G36*
G01*
X93865000Y-114955000D02*
X93865000Y-114645000D01*
G75*
G02*
X94020000Y-114490000I155000J0D01*
G01*
X94445000Y-114490000D01*
G75*
G02*
X94600000Y-114645000I0J-155000D01*
G01*
X94600000Y-114955000D01*
G75*
G02*
X94445000Y-115110000I-155000J0D01*
G01*
X94020000Y-115110000D01*
G75*
G02*
X93865000Y-114955000I0J155000D01*
G01*
G37*
G36*
G01*
X94437500Y-93912500D02*
X94912500Y-93912500D01*
G75*
G02*
X95150000Y-94150000I0J-237500D01*
G01*
X95150000Y-94650000D01*
G75*
G02*
X94912500Y-94887500I-237500J0D01*
G01*
X94437500Y-94887500D01*
G75*
G02*
X94200000Y-94650000I0J237500D01*
G01*
X94200000Y-94150000D01*
G75*
G02*
X94437500Y-93912500I237500J0D01*
G01*
G37*
G36*
G01*
X94437500Y-92087500D02*
X94912500Y-92087500D01*
G75*
G02*
X95150000Y-92325000I0J-237500D01*
G01*
X95150000Y-92825000D01*
G75*
G02*
X94912500Y-93062500I-237500J0D01*
G01*
X94437500Y-93062500D01*
G75*
G02*
X94200000Y-92825000I0J237500D01*
G01*
X94200000Y-92325000D01*
G75*
G02*
X94437500Y-92087500I237500J0D01*
G01*
G37*
G36*
G01*
X98012500Y-92087500D02*
X98487500Y-92087500D01*
G75*
G02*
X98725000Y-92325000I0J-237500D01*
G01*
X98725000Y-92825000D01*
G75*
G02*
X98487500Y-93062500I-237500J0D01*
G01*
X98012500Y-93062500D01*
G75*
G02*
X97775000Y-92825000I0J237500D01*
G01*
X97775000Y-92325000D01*
G75*
G02*
X98012500Y-92087500I237500J0D01*
G01*
G37*
G36*
G01*
X98012500Y-93912500D02*
X98487500Y-93912500D01*
G75*
G02*
X98725000Y-94150000I0J-237500D01*
G01*
X98725000Y-94650000D01*
G75*
G02*
X98487500Y-94887500I-237500J0D01*
G01*
X98012500Y-94887500D01*
G75*
G02*
X97775000Y-94650000I0J237500D01*
G01*
X97775000Y-94150000D01*
G75*
G02*
X98012500Y-93912500I237500J0D01*
G01*
G37*
G36*
G01*
X90862500Y-92087500D02*
X91337500Y-92087500D01*
G75*
G02*
X91575000Y-92325000I0J-237500D01*
G01*
X91575000Y-92825000D01*
G75*
G02*
X91337500Y-93062500I-237500J0D01*
G01*
X90862500Y-93062500D01*
G75*
G02*
X90625000Y-92825000I0J237500D01*
G01*
X90625000Y-92325000D01*
G75*
G02*
X90862500Y-92087500I237500J0D01*
G01*
G37*
G36*
G01*
X90862500Y-93912500D02*
X91337500Y-93912500D01*
G75*
G02*
X91575000Y-94150000I0J-237500D01*
G01*
X91575000Y-94650000D01*
G75*
G02*
X91337500Y-94887500I-237500J0D01*
G01*
X90862500Y-94887500D01*
G75*
G02*
X90625000Y-94650000I0J237500D01*
G01*
X90625000Y-94150000D01*
G75*
G02*
X90862500Y-93912500I237500J0D01*
G01*
G37*
G36*
G01*
X94835000Y-90282500D02*
X94515000Y-90282500D01*
G75*
G02*
X94355000Y-90122500I0J160000D01*
G01*
X94355000Y-89677500D01*
G75*
G02*
X94515000Y-89517500I160000J0D01*
G01*
X94835000Y-89517500D01*
G75*
G02*
X94995000Y-89677500I0J-160000D01*
G01*
X94995000Y-90122500D01*
G75*
G02*
X94835000Y-90282500I-160000J0D01*
G01*
G37*
G36*
G01*
X94835000Y-91427500D02*
X94515000Y-91427500D01*
G75*
G02*
X94355000Y-91267500I0J160000D01*
G01*
X94355000Y-90822500D01*
G75*
G02*
X94515000Y-90662500I160000J0D01*
G01*
X94835000Y-90662500D01*
G75*
G02*
X94995000Y-90822500I0J-160000D01*
G01*
X94995000Y-91267500D01*
G75*
G02*
X94835000Y-91427500I-160000J0D01*
G01*
G37*
G36*
G01*
X98410000Y-91427500D02*
X98090000Y-91427500D01*
G75*
G02*
X97930000Y-91267500I0J160000D01*
G01*
X97930000Y-90822500D01*
G75*
G02*
X98090000Y-90662500I160000J0D01*
G01*
X98410000Y-90662500D01*
G75*
G02*
X98570000Y-90822500I0J-160000D01*
G01*
X98570000Y-91267500D01*
G75*
G02*
X98410000Y-91427500I-160000J0D01*
G01*
G37*
G36*
G01*
X98410000Y-90282500D02*
X98090000Y-90282500D01*
G75*
G02*
X97930000Y-90122500I0J160000D01*
G01*
X97930000Y-89677500D01*
G75*
G02*
X98090000Y-89517500I160000J0D01*
G01*
X98410000Y-89517500D01*
G75*
G02*
X98570000Y-89677500I0J-160000D01*
G01*
X98570000Y-90122500D01*
G75*
G02*
X98410000Y-90282500I-160000J0D01*
G01*
G37*
G36*
G01*
X91260000Y-91427500D02*
X90940000Y-91427500D01*
G75*
G02*
X90780000Y-91267500I0J160000D01*
G01*
X90780000Y-90822500D01*
G75*
G02*
X90940000Y-90662500I160000J0D01*
G01*
X91260000Y-90662500D01*
G75*
G02*
X91420000Y-90822500I0J-160000D01*
G01*
X91420000Y-91267500D01*
G75*
G02*
X91260000Y-91427500I-160000J0D01*
G01*
G37*
G36*
G01*
X91260000Y-90282500D02*
X90940000Y-90282500D01*
G75*
G02*
X90780000Y-90122500I0J160000D01*
G01*
X90780000Y-89677500D01*
G75*
G02*
X90940000Y-89517500I160000J0D01*
G01*
X91260000Y-89517500D01*
G75*
G02*
X91420000Y-89677500I0J-160000D01*
G01*
X91420000Y-90122500D01*
G75*
G02*
X91260000Y-90282500I-160000J0D01*
G01*
G37*
G36*
G01*
X97840000Y-114860000D02*
X97840000Y-114540000D01*
G75*
G02*
X98000000Y-114380000I160000J0D01*
G01*
X98395000Y-114380000D01*
G75*
G02*
X98555000Y-114540000I0J-160000D01*
G01*
X98555000Y-114860000D01*
G75*
G02*
X98395000Y-115020000I-160000J0D01*
G01*
X98000000Y-115020000D01*
G75*
G02*
X97840000Y-114860000I0J160000D01*
G01*
G37*
G36*
G01*
X96645000Y-114860000D02*
X96645000Y-114540000D01*
G75*
G02*
X96805000Y-114380000I160000J0D01*
G01*
X97200000Y-114380000D01*
G75*
G02*
X97360000Y-114540000I0J-160000D01*
G01*
X97360000Y-114860000D01*
G75*
G02*
X97200000Y-115020000I-160000J0D01*
G01*
X96805000Y-115020000D01*
G75*
G02*
X96645000Y-114860000I0J160000D01*
G01*
G37*
D12*
X119320000Y-105460000D03*
X120320000Y-105460000D03*
G36*
G01*
X120945000Y-104360000D02*
X120945000Y-104360000D01*
G75*
G02*
X120845000Y-104260000I0J100000D01*
G01*
X120845000Y-103860000D01*
G75*
G02*
X120945000Y-103760000I100000J0D01*
G01*
X120945000Y-103760000D01*
G75*
G02*
X121045000Y-103860000I0J-100000D01*
G01*
X121045000Y-104260000D01*
G75*
G02*
X120945000Y-104360000I-100000J0D01*
G01*
G37*
G36*
G01*
X120495000Y-104360000D02*
X120495000Y-104360000D01*
G75*
G02*
X120395000Y-104260000I0J100000D01*
G01*
X120395000Y-103860000D01*
G75*
G02*
X120495000Y-103760000I100000J0D01*
G01*
X120495000Y-103760000D01*
G75*
G02*
X120595000Y-103860000I0J-100000D01*
G01*
X120595000Y-104260000D01*
G75*
G02*
X120495000Y-104360000I-100000J0D01*
G01*
G37*
G36*
G01*
X120045000Y-104360000D02*
X120045000Y-104360000D01*
G75*
G02*
X119945000Y-104260000I0J100000D01*
G01*
X119945000Y-103860000D01*
G75*
G02*
X120045000Y-103760000I100000J0D01*
G01*
X120045000Y-103760000D01*
G75*
G02*
X120145000Y-103860000I0J-100000D01*
G01*
X120145000Y-104260000D01*
G75*
G02*
X120045000Y-104360000I-100000J0D01*
G01*
G37*
G36*
G01*
X119595000Y-104360000D02*
X119595000Y-104360000D01*
G75*
G02*
X119495000Y-104260000I0J100000D01*
G01*
X119495000Y-103860000D01*
G75*
G02*
X119595000Y-103760000I100000J0D01*
G01*
X119595000Y-103760000D01*
G75*
G02*
X119695000Y-103860000I0J-100000D01*
G01*
X119695000Y-104260000D01*
G75*
G02*
X119595000Y-104360000I-100000J0D01*
G01*
G37*
G36*
G01*
X119145000Y-104360000D02*
X119145000Y-104360000D01*
G75*
G02*
X119045000Y-104260000I0J100000D01*
G01*
X119045000Y-103860000D01*
G75*
G02*
X119145000Y-103760000I100000J0D01*
G01*
X119145000Y-103760000D01*
G75*
G02*
X119245000Y-103860000I0J-100000D01*
G01*
X119245000Y-104260000D01*
G75*
G02*
X119145000Y-104360000I-100000J0D01*
G01*
G37*
G36*
G01*
X118695000Y-104360000D02*
X118695000Y-104360000D01*
G75*
G02*
X118595000Y-104260000I0J100000D01*
G01*
X118595000Y-103860000D01*
G75*
G02*
X118695000Y-103760000I100000J0D01*
G01*
X118695000Y-103760000D01*
G75*
G02*
X118795000Y-103860000I0J-100000D01*
G01*
X118795000Y-104260000D01*
G75*
G02*
X118695000Y-104360000I-100000J0D01*
G01*
G37*
G36*
G01*
X118695000Y-107160000D02*
X118695000Y-107160000D01*
G75*
G02*
X118595000Y-107060000I0J100000D01*
G01*
X118595000Y-106660000D01*
G75*
G02*
X118695000Y-106560000I100000J0D01*
G01*
X118695000Y-106560000D01*
G75*
G02*
X118795000Y-106660000I0J-100000D01*
G01*
X118795000Y-107060000D01*
G75*
G02*
X118695000Y-107160000I-100000J0D01*
G01*
G37*
G36*
G01*
X119145000Y-107160000D02*
X119145000Y-107160000D01*
G75*
G02*
X119045000Y-107060000I0J100000D01*
G01*
X119045000Y-106660000D01*
G75*
G02*
X119145000Y-106560000I100000J0D01*
G01*
X119145000Y-106560000D01*
G75*
G02*
X119245000Y-106660000I0J-100000D01*
G01*
X119245000Y-107060000D01*
G75*
G02*
X119145000Y-107160000I-100000J0D01*
G01*
G37*
G36*
G01*
X119595000Y-107160000D02*
X119595000Y-107160000D01*
G75*
G02*
X119495000Y-107060000I0J100000D01*
G01*
X119495000Y-106660000D01*
G75*
G02*
X119595000Y-106560000I100000J0D01*
G01*
X119595000Y-106560000D01*
G75*
G02*
X119695000Y-106660000I0J-100000D01*
G01*
X119695000Y-107060000D01*
G75*
G02*
X119595000Y-107160000I-100000J0D01*
G01*
G37*
G36*
G01*
X120045000Y-107160000D02*
X120045000Y-107160000D01*
G75*
G02*
X119945000Y-107060000I0J100000D01*
G01*
X119945000Y-106660000D01*
G75*
G02*
X120045000Y-106560000I100000J0D01*
G01*
X120045000Y-106560000D01*
G75*
G02*
X120145000Y-106660000I0J-100000D01*
G01*
X120145000Y-107060000D01*
G75*
G02*
X120045000Y-107160000I-100000J0D01*
G01*
G37*
G36*
G01*
X120495000Y-107160000D02*
X120495000Y-107160000D01*
G75*
G02*
X120395000Y-107060000I0J100000D01*
G01*
X120395000Y-106660000D01*
G75*
G02*
X120495000Y-106560000I100000J0D01*
G01*
X120495000Y-106560000D01*
G75*
G02*
X120595000Y-106660000I0J-100000D01*
G01*
X120595000Y-107060000D01*
G75*
G02*
X120495000Y-107160000I-100000J0D01*
G01*
G37*
D13*
X119820000Y-105460000D03*
G36*
G01*
X120945000Y-107160000D02*
X120945000Y-107160000D01*
G75*
G02*
X120845000Y-107060000I0J100000D01*
G01*
X120845000Y-106660000D01*
G75*
G02*
X120945000Y-106560000I100000J0D01*
G01*
X120945000Y-106560000D01*
G75*
G02*
X121045000Y-106660000I0J-100000D01*
G01*
X121045000Y-107060000D01*
G75*
G02*
X120945000Y-107160000I-100000J0D01*
G01*
G37*
D14*
X101900000Y-111180000D03*
X101900000Y-110180000D03*
X101900000Y-109180000D03*
X101900000Y-108180000D03*
X101900000Y-107180000D03*
X101900000Y-106180000D03*
X101900000Y-105180000D03*
X101900000Y-104180000D03*
X101900000Y-103180000D03*
X101900000Y-102180000D03*
D15*
X80400000Y-113180000D03*
X81400000Y-113180000D03*
X82400000Y-113180000D03*
X83400000Y-113180000D03*
X84400000Y-113180000D03*
X85400000Y-113180000D03*
X86400000Y-113180000D03*
X87400000Y-113180000D03*
X88400000Y-113180000D03*
X89400000Y-113180000D03*
X90400000Y-113180000D03*
X91400000Y-113180000D03*
X92400000Y-113180000D03*
X93400000Y-113180000D03*
X94400000Y-113180000D03*
X95400000Y-113180000D03*
X96400000Y-113180000D03*
X97400000Y-113180000D03*
X98400000Y-113180000D03*
X99400000Y-113180000D03*
X100400000Y-113180000D03*
X100400000Y-100180000D03*
X99400000Y-100180000D03*
X98400000Y-100180000D03*
X97400000Y-100180000D03*
X96400000Y-100180000D03*
X95400000Y-100180000D03*
X94400000Y-100180000D03*
X93400000Y-100180000D03*
X92400000Y-100180000D03*
X91400000Y-100180000D03*
X90400000Y-100180000D03*
X89400000Y-100180000D03*
X88400000Y-100180000D03*
X87400000Y-100180000D03*
X86400000Y-100180000D03*
X85400000Y-100180000D03*
X84400000Y-100180000D03*
X83400000Y-100180000D03*
X82400000Y-100180000D03*
X81400000Y-100180000D03*
X80400000Y-100180000D03*
D16*
X82600000Y-106600000D03*
X81900000Y-108100000D03*
X82750000Y-109500000D03*
X84400000Y-109400000D03*
X85400000Y-110800000D03*
X83500000Y-108000000D03*
D17*
X107916726Y-111333274D03*
X106750000Y-110850000D03*
X105583274Y-111333274D03*
X105100000Y-112500000D03*
X105583274Y-113666726D03*
X106750000Y-114150000D03*
X107916726Y-113666726D03*
X108400000Y-112500000D03*
D18*
X106750000Y-112500000D03*
D17*
X117166726Y-94083274D03*
X116000000Y-93600000D03*
X114833274Y-94083274D03*
X114350000Y-95250000D03*
X114833274Y-96416726D03*
X116000000Y-96900000D03*
X117166726Y-96416726D03*
X117650000Y-95250000D03*
D18*
X116000000Y-95250000D03*
G36*
G01*
X121570000Y-103215000D02*
X121570000Y-102905000D01*
G75*
G02*
X121725000Y-102750000I155000J0D01*
G01*
X122150000Y-102750000D01*
G75*
G02*
X122305000Y-102905000I0J-155000D01*
G01*
X122305000Y-103215000D01*
G75*
G02*
X122150000Y-103370000I-155000J0D01*
G01*
X121725000Y-103370000D01*
G75*
G02*
X121570000Y-103215000I0J155000D01*
G01*
G37*
G36*
G01*
X120435000Y-103215000D02*
X120435000Y-102905000D01*
G75*
G02*
X120590000Y-102750000I155000J0D01*
G01*
X121015000Y-102750000D01*
G75*
G02*
X121170000Y-102905000I0J-155000D01*
G01*
X121170000Y-103215000D01*
G75*
G02*
X121015000Y-103370000I-155000J0D01*
G01*
X120590000Y-103370000D01*
G75*
G02*
X120435000Y-103215000I0J155000D01*
G01*
G37*
D19*
X105700000Y-94162500D03*
X106700000Y-94162500D03*
X107700000Y-94162500D03*
X104700000Y-94162500D03*
D20*
X108950000Y-94162500D03*
X103450000Y-94162500D03*
D21*
X110520000Y-93800000D03*
X101880000Y-93800000D03*
X101880000Y-90000000D03*
X110520000Y-90000000D03*
M02*
