G04 #@! TF.GenerationSoftware,KiCad,Pcbnew,(5.1.9)-1*
G04 #@! TF.CreationDate,2021-03-14T10:57:35-07:00*
G04 #@! TF.ProjectId,rgba,72676261-2e6b-4696-9361-645f70636258,1*
G04 #@! TF.SameCoordinates,Original*
G04 #@! TF.FileFunction,Legend,Top*
G04 #@! TF.FilePolarity,Positive*
%FSLAX46Y46*%
G04 Gerber Fmt 4.6, Leading zero omitted, Abs format (unit mm)*
G04 Created by KiCad (PCBNEW (5.1.9)-1) date 2021-03-14 10:57:35*
%MOMM*%
%LPD*%
G01*
G04 APERTURE LIST*
%ADD10C,0.200000*%
%ADD11C,0.153000*%
%ADD12C,0.500000*%
%ADD13C,0.300000*%
%ADD14C,0.120000*%
G04 APERTURE END LIST*
D10*
X110546666Y-113785714D02*
X110546666Y-114595238D01*
X110499047Y-114690476D01*
X110451428Y-114738095D01*
X110356190Y-114785714D01*
X110213333Y-114785714D01*
X110118095Y-114738095D01*
X110546666Y-114404761D02*
X110451428Y-114452380D01*
X110260952Y-114452380D01*
X110165714Y-114404761D01*
X110118095Y-114357142D01*
X110070476Y-114261904D01*
X110070476Y-113976190D01*
X110118095Y-113880952D01*
X110165714Y-113833333D01*
X110260952Y-113785714D01*
X110451428Y-113785714D01*
X110546666Y-113833333D01*
X111022857Y-114452380D02*
X111022857Y-113785714D01*
X111022857Y-113976190D02*
X111070476Y-113880952D01*
X111118095Y-113833333D01*
X111213333Y-113785714D01*
X111308571Y-113785714D01*
X112070476Y-114452380D02*
X112070476Y-113928571D01*
X112022857Y-113833333D01*
X111927619Y-113785714D01*
X111737142Y-113785714D01*
X111641904Y-113833333D01*
X112070476Y-114404761D02*
X111975238Y-114452380D01*
X111737142Y-114452380D01*
X111641904Y-114404761D01*
X111594285Y-114309523D01*
X111594285Y-114214285D01*
X111641904Y-114119047D01*
X111737142Y-114071428D01*
X111975238Y-114071428D01*
X112070476Y-114023809D01*
X112451428Y-113785714D02*
X112689523Y-114452380D01*
X112927619Y-113785714D02*
X112689523Y-114452380D01*
X112594285Y-114690476D01*
X112546666Y-114738095D01*
X112451428Y-114785714D01*
X114213333Y-114452380D02*
X114118095Y-114404761D01*
X114070476Y-114357142D01*
X114022857Y-114261904D01*
X114022857Y-113976190D01*
X114070476Y-113880952D01*
X114118095Y-113833333D01*
X114213333Y-113785714D01*
X114356190Y-113785714D01*
X114451428Y-113833333D01*
X114499047Y-113880952D01*
X114546666Y-113976190D01*
X114546666Y-114261904D01*
X114499047Y-114357142D01*
X114451428Y-114404761D01*
X114356190Y-114452380D01*
X114213333Y-114452380D01*
X115118095Y-114452380D02*
X115022857Y-114404761D01*
X114975238Y-114309523D01*
X114975238Y-113452380D01*
X115451428Y-114404761D02*
X115546666Y-114452380D01*
X115737142Y-114452380D01*
X115832380Y-114404761D01*
X115880000Y-114309523D01*
X115880000Y-114261904D01*
X115832380Y-114166666D01*
X115737142Y-114119047D01*
X115594285Y-114119047D01*
X115499047Y-114071428D01*
X115451428Y-113976190D01*
X115451428Y-113928571D01*
X115499047Y-113833333D01*
X115594285Y-113785714D01*
X115737142Y-113785714D01*
X115832380Y-113833333D01*
X116451428Y-114452380D02*
X116356190Y-114404761D01*
X116308571Y-114357142D01*
X116260952Y-114261904D01*
X116260952Y-113976190D01*
X116308571Y-113880952D01*
X116356190Y-113833333D01*
X116451428Y-113785714D01*
X116594285Y-113785714D01*
X116689523Y-113833333D01*
X116737142Y-113880952D01*
X116784761Y-113976190D01*
X116784761Y-114261904D01*
X116737142Y-114357142D01*
X116689523Y-114404761D01*
X116594285Y-114452380D01*
X116451428Y-114452380D01*
X117213333Y-113785714D02*
X117213333Y-114452380D01*
X117213333Y-113880952D02*
X117260952Y-113833333D01*
X117356190Y-113785714D01*
X117499047Y-113785714D01*
X117594285Y-113833333D01*
X117641904Y-113928571D01*
X117641904Y-114452380D01*
D11*
X110382783Y-113111904D02*
X110382783Y-112311904D01*
X110382783Y-113073809D02*
X110306592Y-113111904D01*
X110154211Y-113111904D01*
X110078021Y-113073809D01*
X110039926Y-113035714D01*
X110001830Y-112959523D01*
X110001830Y-112730952D01*
X110039926Y-112654761D01*
X110078021Y-112616666D01*
X110154211Y-112578571D01*
X110306592Y-112578571D01*
X110382783Y-112616666D01*
X111068497Y-113073809D02*
X110992307Y-113111904D01*
X110839926Y-113111904D01*
X110763735Y-113073809D01*
X110725640Y-112997619D01*
X110725640Y-112692857D01*
X110763735Y-112616666D01*
X110839926Y-112578571D01*
X110992307Y-112578571D01*
X111068497Y-112616666D01*
X111106592Y-112692857D01*
X111106592Y-112769047D01*
X110725640Y-112845238D01*
X111411354Y-113073809D02*
X111487545Y-113111904D01*
X111639926Y-113111904D01*
X111716116Y-113073809D01*
X111754211Y-112997619D01*
X111754211Y-112959523D01*
X111716116Y-112883333D01*
X111639926Y-112845238D01*
X111525640Y-112845238D01*
X111449450Y-112807142D01*
X111411354Y-112730952D01*
X111411354Y-112692857D01*
X111449450Y-112616666D01*
X111525640Y-112578571D01*
X111639926Y-112578571D01*
X111716116Y-112616666D01*
X112097069Y-113111904D02*
X112097069Y-112578571D01*
X112097069Y-112311904D02*
X112058973Y-112350000D01*
X112097069Y-112388095D01*
X112135164Y-112350000D01*
X112097069Y-112311904D01*
X112097069Y-112388095D01*
X112820878Y-112578571D02*
X112820878Y-113226190D01*
X112782783Y-113302380D01*
X112744688Y-113340476D01*
X112668497Y-113378571D01*
X112554211Y-113378571D01*
X112478021Y-113340476D01*
X112820878Y-113073809D02*
X112744688Y-113111904D01*
X112592307Y-113111904D01*
X112516116Y-113073809D01*
X112478021Y-113035714D01*
X112439926Y-112959523D01*
X112439926Y-112730952D01*
X112478021Y-112654761D01*
X112516116Y-112616666D01*
X112592307Y-112578571D01*
X112744688Y-112578571D01*
X112820878Y-112616666D01*
X113201830Y-112578571D02*
X113201830Y-113111904D01*
X113201830Y-112654761D02*
X113239926Y-112616666D01*
X113316116Y-112578571D01*
X113430402Y-112578571D01*
X113506592Y-112616666D01*
X113544688Y-112692857D01*
X113544688Y-113111904D01*
X114230402Y-113073809D02*
X114154211Y-113111904D01*
X114001830Y-113111904D01*
X113925640Y-113073809D01*
X113887545Y-112997619D01*
X113887545Y-112692857D01*
X113925640Y-112616666D01*
X114001830Y-112578571D01*
X114154211Y-112578571D01*
X114230402Y-112616666D01*
X114268497Y-112692857D01*
X114268497Y-112769047D01*
X113887545Y-112845238D01*
X114954211Y-113111904D02*
X114954211Y-112311904D01*
X114954211Y-113073809D02*
X114878021Y-113111904D01*
X114725640Y-113111904D01*
X114649450Y-113073809D01*
X114611354Y-113035714D01*
X114573259Y-112959523D01*
X114573259Y-112730952D01*
X114611354Y-112654761D01*
X114649450Y-112616666D01*
X114725640Y-112578571D01*
X114878021Y-112578571D01*
X114954211Y-112616666D01*
X115944688Y-113111904D02*
X115944688Y-112311904D01*
X115944688Y-112616666D02*
X116020878Y-112578571D01*
X116173259Y-112578571D01*
X116249450Y-112616666D01*
X116287545Y-112654761D01*
X116325640Y-112730952D01*
X116325640Y-112959523D01*
X116287545Y-113035714D01*
X116249450Y-113073809D01*
X116173259Y-113111904D01*
X116020878Y-113111904D01*
X115944688Y-113073809D01*
X116592307Y-112578571D02*
X116782783Y-113111904D01*
X116973259Y-112578571D02*
X116782783Y-113111904D01*
X116706592Y-113302380D01*
X116668497Y-113340476D01*
X116592307Y-113378571D01*
X81038095Y-114111904D02*
X81038095Y-113578571D01*
X81038095Y-113730952D02*
X81076190Y-113654761D01*
X81114285Y-113616666D01*
X81190476Y-113578571D01*
X81266666Y-113578571D01*
X81838095Y-114073809D02*
X81761904Y-114111904D01*
X81609523Y-114111904D01*
X81533333Y-114073809D01*
X81495238Y-113997619D01*
X81495238Y-113692857D01*
X81533333Y-113616666D01*
X81609523Y-113578571D01*
X81761904Y-113578571D01*
X81838095Y-113616666D01*
X81876190Y-113692857D01*
X81876190Y-113769047D01*
X81495238Y-113845238D01*
X82142857Y-113578571D02*
X82333333Y-114111904D01*
X82523809Y-113578571D01*
X83857142Y-114111904D02*
X83400000Y-114111904D01*
X83628571Y-114111904D02*
X83628571Y-113311904D01*
X83552380Y-113426190D01*
X83476190Y-113502380D01*
X83400000Y-113540476D01*
X84200000Y-114035714D02*
X84238095Y-114073809D01*
X84200000Y-114111904D01*
X84161904Y-114073809D01*
X84200000Y-114035714D01*
X84200000Y-114111904D01*
X84733333Y-113311904D02*
X84809523Y-113311904D01*
X84885714Y-113350000D01*
X84923809Y-113388095D01*
X84961904Y-113464285D01*
X85000000Y-113616666D01*
X85000000Y-113807142D01*
X84961904Y-113959523D01*
X84923809Y-114035714D01*
X84885714Y-114073809D01*
X84809523Y-114111904D01*
X84733333Y-114111904D01*
X84657142Y-114073809D01*
X84619047Y-114035714D01*
X84580952Y-113959523D01*
X84542857Y-113807142D01*
X84542857Y-113616666D01*
X84580952Y-113464285D01*
X84619047Y-113388095D01*
X84657142Y-113350000D01*
X84733333Y-113311904D01*
X85678571Y-106361904D02*
X85678571Y-105561904D01*
X85678571Y-105866666D02*
X85754761Y-105828571D01*
X85907142Y-105828571D01*
X85983333Y-105866666D01*
X86021428Y-105904761D01*
X86059523Y-105980952D01*
X86059523Y-106209523D01*
X86021428Y-106285714D01*
X85983333Y-106323809D01*
X85907142Y-106361904D01*
X85754761Y-106361904D01*
X85678571Y-106323809D01*
X86516666Y-106361904D02*
X86440476Y-106323809D01*
X86402380Y-106247619D01*
X86402380Y-105561904D01*
X87164285Y-105828571D02*
X87164285Y-106361904D01*
X86821428Y-105828571D02*
X86821428Y-106247619D01*
X86859523Y-106323809D01*
X86935714Y-106361904D01*
X87050000Y-106361904D01*
X87126190Y-106323809D01*
X87164285Y-106285714D01*
X87850000Y-106323809D02*
X87773809Y-106361904D01*
X87621428Y-106361904D01*
X87545238Y-106323809D01*
X87507142Y-106247619D01*
X87507142Y-105942857D01*
X87545238Y-105866666D01*
X87621428Y-105828571D01*
X87773809Y-105828571D01*
X87850000Y-105866666D01*
X87888095Y-105942857D01*
X87888095Y-106019047D01*
X87507142Y-106095238D01*
X88116666Y-105828571D02*
X88421428Y-105828571D01*
X88230952Y-105561904D02*
X88230952Y-106247619D01*
X88269047Y-106323809D01*
X88345238Y-106361904D01*
X88421428Y-106361904D01*
X88802380Y-106361904D02*
X88726190Y-106323809D01*
X88688095Y-106285714D01*
X88650000Y-106209523D01*
X88650000Y-105980952D01*
X88688095Y-105904761D01*
X88726190Y-105866666D01*
X88802380Y-105828571D01*
X88916666Y-105828571D01*
X88992857Y-105866666D01*
X89030952Y-105904761D01*
X89069047Y-105980952D01*
X89069047Y-106209523D01*
X89030952Y-106285714D01*
X88992857Y-106323809D01*
X88916666Y-106361904D01*
X88802380Y-106361904D01*
X89526190Y-106361904D02*
X89450000Y-106323809D01*
X89411904Y-106285714D01*
X89373809Y-106209523D01*
X89373809Y-105980952D01*
X89411904Y-105904761D01*
X89450000Y-105866666D01*
X89526190Y-105828571D01*
X89640476Y-105828571D01*
X89716666Y-105866666D01*
X89754761Y-105904761D01*
X89792857Y-105980952D01*
X89792857Y-106209523D01*
X89754761Y-106285714D01*
X89716666Y-106323809D01*
X89640476Y-106361904D01*
X89526190Y-106361904D01*
X90021428Y-105828571D02*
X90326190Y-105828571D01*
X90135714Y-105561904D02*
X90135714Y-106247619D01*
X90173809Y-106323809D01*
X90250000Y-106361904D01*
X90326190Y-106361904D01*
X90592857Y-106361904D02*
X90592857Y-105561904D01*
X90935714Y-106361904D02*
X90935714Y-105942857D01*
X90897619Y-105866666D01*
X90821428Y-105828571D01*
X90707142Y-105828571D01*
X90630952Y-105866666D01*
X90592857Y-105904761D01*
X92269047Y-106361904D02*
X92269047Y-105942857D01*
X92230952Y-105866666D01*
X92154761Y-105828571D01*
X92002380Y-105828571D01*
X91926190Y-105866666D01*
X92269047Y-106323809D02*
X92192857Y-106361904D01*
X92002380Y-106361904D01*
X91926190Y-106323809D01*
X91888095Y-106247619D01*
X91888095Y-106171428D01*
X91926190Y-106095238D01*
X92002380Y-106057142D01*
X92192857Y-106057142D01*
X92269047Y-106019047D01*
X92992857Y-105828571D02*
X92992857Y-106361904D01*
X92650000Y-105828571D02*
X92650000Y-106247619D01*
X92688095Y-106323809D01*
X92764285Y-106361904D01*
X92878571Y-106361904D01*
X92954761Y-106323809D01*
X92992857Y-106285714D01*
X93716666Y-106361904D02*
X93716666Y-105561904D01*
X93716666Y-106323809D02*
X93640476Y-106361904D01*
X93488095Y-106361904D01*
X93411904Y-106323809D01*
X93373809Y-106285714D01*
X93335714Y-106209523D01*
X93335714Y-105980952D01*
X93373809Y-105904761D01*
X93411904Y-105866666D01*
X93488095Y-105828571D01*
X93640476Y-105828571D01*
X93716666Y-105866666D01*
X94097619Y-106361904D02*
X94097619Y-105828571D01*
X94097619Y-105561904D02*
X94059523Y-105600000D01*
X94097619Y-105638095D01*
X94135714Y-105600000D01*
X94097619Y-105561904D01*
X94097619Y-105638095D01*
X94592857Y-106361904D02*
X94516666Y-106323809D01*
X94478571Y-106285714D01*
X94440476Y-106209523D01*
X94440476Y-105980952D01*
X94478571Y-105904761D01*
X94516666Y-105866666D01*
X94592857Y-105828571D01*
X94707142Y-105828571D01*
X94783333Y-105866666D01*
X94821428Y-105904761D01*
X94859523Y-105980952D01*
X94859523Y-106209523D01*
X94821428Y-106285714D01*
X94783333Y-106323809D01*
X94707142Y-106361904D01*
X94592857Y-106361904D01*
X85200000Y-105111904D02*
X85200000Y-104578571D01*
X85200000Y-104730952D02*
X85238095Y-104654761D01*
X85276190Y-104616666D01*
X85352380Y-104578571D01*
X85428571Y-104578571D01*
X86000000Y-105073809D02*
X85923809Y-105111904D01*
X85771428Y-105111904D01*
X85695238Y-105073809D01*
X85657142Y-104997619D01*
X85657142Y-104692857D01*
X85695238Y-104616666D01*
X85771428Y-104578571D01*
X85923809Y-104578571D01*
X86000000Y-104616666D01*
X86038095Y-104692857D01*
X86038095Y-104769047D01*
X85657142Y-104845238D01*
X86723809Y-105111904D02*
X86723809Y-104692857D01*
X86685714Y-104616666D01*
X86609523Y-104578571D01*
X86457142Y-104578571D01*
X86380952Y-104616666D01*
X86723809Y-105073809D02*
X86647619Y-105111904D01*
X86457142Y-105111904D01*
X86380952Y-105073809D01*
X86342857Y-104997619D01*
X86342857Y-104921428D01*
X86380952Y-104845238D01*
X86457142Y-104807142D01*
X86647619Y-104807142D01*
X86723809Y-104769047D01*
X87066666Y-105073809D02*
X87142857Y-105111904D01*
X87295238Y-105111904D01*
X87371428Y-105073809D01*
X87409523Y-104997619D01*
X87409523Y-104959523D01*
X87371428Y-104883333D01*
X87295238Y-104845238D01*
X87180952Y-104845238D01*
X87104761Y-104807142D01*
X87066666Y-104730952D01*
X87066666Y-104692857D01*
X87104761Y-104616666D01*
X87180952Y-104578571D01*
X87295238Y-104578571D01*
X87371428Y-104616666D01*
X87866666Y-105111904D02*
X87790476Y-105073809D01*
X87752380Y-105035714D01*
X87714285Y-104959523D01*
X87714285Y-104730952D01*
X87752380Y-104654761D01*
X87790476Y-104616666D01*
X87866666Y-104578571D01*
X87980952Y-104578571D01*
X88057142Y-104616666D01*
X88095238Y-104654761D01*
X88133333Y-104730952D01*
X88133333Y-104959523D01*
X88095238Y-105035714D01*
X88057142Y-105073809D01*
X87980952Y-105111904D01*
X87866666Y-105111904D01*
X88476190Y-104578571D02*
X88476190Y-105111904D01*
X88476190Y-104654761D02*
X88514285Y-104616666D01*
X88590476Y-104578571D01*
X88704761Y-104578571D01*
X88780952Y-104616666D01*
X88819047Y-104692857D01*
X88819047Y-105111904D01*
X89542857Y-105111904D02*
X89542857Y-104692857D01*
X89504761Y-104616666D01*
X89428571Y-104578571D01*
X89276190Y-104578571D01*
X89200000Y-104616666D01*
X89542857Y-105073809D02*
X89466666Y-105111904D01*
X89276190Y-105111904D01*
X89200000Y-105073809D01*
X89161904Y-104997619D01*
X89161904Y-104921428D01*
X89200000Y-104845238D01*
X89276190Y-104807142D01*
X89466666Y-104807142D01*
X89542857Y-104769047D01*
X89923809Y-105111904D02*
X89923809Y-104311904D01*
X89923809Y-104616666D02*
X90000000Y-104578571D01*
X90152380Y-104578571D01*
X90228571Y-104616666D01*
X90266666Y-104654761D01*
X90304761Y-104730952D01*
X90304761Y-104959523D01*
X90266666Y-105035714D01*
X90228571Y-105073809D01*
X90152380Y-105111904D01*
X90000000Y-105111904D01*
X89923809Y-105073809D01*
X90761904Y-105111904D02*
X90685714Y-105073809D01*
X90647619Y-104997619D01*
X90647619Y-104311904D01*
X90990476Y-104578571D02*
X91180952Y-105111904D01*
X91371428Y-104578571D02*
X91180952Y-105111904D01*
X91104761Y-105302380D01*
X91066666Y-105340476D01*
X90990476Y-105378571D01*
X92628571Y-104578571D02*
X92628571Y-105226190D01*
X92590476Y-105302380D01*
X92552380Y-105340476D01*
X92476190Y-105378571D01*
X92361904Y-105378571D01*
X92285714Y-105340476D01*
X92628571Y-105073809D02*
X92552380Y-105111904D01*
X92400000Y-105111904D01*
X92323809Y-105073809D01*
X92285714Y-105035714D01*
X92247619Y-104959523D01*
X92247619Y-104730952D01*
X92285714Y-104654761D01*
X92323809Y-104616666D01*
X92400000Y-104578571D01*
X92552380Y-104578571D01*
X92628571Y-104616666D01*
X93123809Y-105111904D02*
X93047619Y-105073809D01*
X93009523Y-105035714D01*
X92971428Y-104959523D01*
X92971428Y-104730952D01*
X93009523Y-104654761D01*
X93047619Y-104616666D01*
X93123809Y-104578571D01*
X93238095Y-104578571D01*
X93314285Y-104616666D01*
X93352380Y-104654761D01*
X93390476Y-104730952D01*
X93390476Y-104959523D01*
X93352380Y-105035714D01*
X93314285Y-105073809D01*
X93238095Y-105111904D01*
X93123809Y-105111904D01*
X93847619Y-105111904D02*
X93771428Y-105073809D01*
X93733333Y-105035714D01*
X93695238Y-104959523D01*
X93695238Y-104730952D01*
X93733333Y-104654761D01*
X93771428Y-104616666D01*
X93847619Y-104578571D01*
X93961904Y-104578571D01*
X94038095Y-104616666D01*
X94076190Y-104654761D01*
X94114285Y-104730952D01*
X94114285Y-104959523D01*
X94076190Y-105035714D01*
X94038095Y-105073809D01*
X93961904Y-105111904D01*
X93847619Y-105111904D01*
X94800000Y-105111904D02*
X94800000Y-104311904D01*
X94800000Y-105073809D02*
X94723809Y-105111904D01*
X94571428Y-105111904D01*
X94495238Y-105073809D01*
X94457142Y-105035714D01*
X94419047Y-104959523D01*
X94419047Y-104730952D01*
X94457142Y-104654761D01*
X94495238Y-104616666D01*
X94571428Y-104578571D01*
X94723809Y-104578571D01*
X94800000Y-104616666D01*
D12*
X83714285Y-102357142D02*
X83714285Y-100357142D01*
X83714285Y-100928571D02*
X83857142Y-100642857D01*
X84000000Y-100500000D01*
X84285714Y-100357142D01*
X84571428Y-100357142D01*
X86857142Y-100357142D02*
X86857142Y-102785714D01*
X86714285Y-103071428D01*
X86571428Y-103214285D01*
X86285714Y-103357142D01*
X85857142Y-103357142D01*
X85571428Y-103214285D01*
X86857142Y-102214285D02*
X86571428Y-102357142D01*
X86000000Y-102357142D01*
X85714285Y-102214285D01*
X85571428Y-102071428D01*
X85428571Y-101785714D01*
X85428571Y-100928571D01*
X85571428Y-100642857D01*
X85714285Y-100500000D01*
X86000000Y-100357142D01*
X86571428Y-100357142D01*
X86857142Y-100500000D01*
X88285714Y-102357142D02*
X88285714Y-99357142D01*
X88285714Y-100500000D02*
X88571428Y-100357142D01*
X89142857Y-100357142D01*
X89428571Y-100500000D01*
X89571428Y-100642857D01*
X89714285Y-100928571D01*
X89714285Y-101785714D01*
X89571428Y-102071428D01*
X89428571Y-102214285D01*
X89142857Y-102357142D01*
X88571428Y-102357142D01*
X88285714Y-102214285D01*
X92285714Y-102357142D02*
X92285714Y-100785714D01*
X92142857Y-100500000D01*
X91857142Y-100357142D01*
X91285714Y-100357142D01*
X91000000Y-100500000D01*
X92285714Y-102214285D02*
X92000000Y-102357142D01*
X91285714Y-102357142D01*
X91000000Y-102214285D01*
X90857142Y-101928571D01*
X90857142Y-101642857D01*
X91000000Y-101357142D01*
X91285714Y-101214285D01*
X92000000Y-101214285D01*
X92285714Y-101071428D01*
D13*
X119428571Y-95785714D02*
X118714285Y-96285714D01*
X119428571Y-96642857D02*
X117928571Y-96642857D01*
X117928571Y-96071428D01*
X118000000Y-95928571D01*
X118071428Y-95857142D01*
X118214285Y-95785714D01*
X118428571Y-95785714D01*
X118571428Y-95857142D01*
X118642857Y-95928571D01*
X118714285Y-96071428D01*
X118714285Y-96642857D01*
X119428571Y-109285714D02*
X119428571Y-110000000D01*
X117928571Y-110000000D01*
X120607142Y-102178571D02*
X120678571Y-101964285D01*
X120678571Y-101607142D01*
X120607142Y-101464285D01*
X120535714Y-101392857D01*
X120392857Y-101321428D01*
X120250000Y-101321428D01*
X120107142Y-101392857D01*
X120035714Y-101464285D01*
X119964285Y-101607142D01*
X119892857Y-101892857D01*
X119821428Y-102035714D01*
X119750000Y-102107142D01*
X119607142Y-102178571D01*
X119464285Y-102178571D01*
X119321428Y-102107142D01*
X119250000Y-102035714D01*
X119178571Y-101892857D01*
X119178571Y-101535714D01*
X119250000Y-101321428D01*
X120107142Y-98571428D02*
X120107142Y-97428571D01*
X120107142Y-95071428D02*
X120107142Y-93928571D01*
X120678571Y-94500000D02*
X119535714Y-94500000D01*
X120607142Y-104928571D02*
X120678571Y-104714285D01*
X120678571Y-104357142D01*
X120607142Y-104214285D01*
X120535714Y-104142857D01*
X120392857Y-104071428D01*
X120250000Y-104071428D01*
X120107142Y-104142857D01*
X120035714Y-104214285D01*
X119964285Y-104357142D01*
X119892857Y-104642857D01*
X119821428Y-104785714D01*
X119750000Y-104857142D01*
X119607142Y-104928571D01*
X119464285Y-104928571D01*
X119321428Y-104857142D01*
X119250000Y-104785714D01*
X119178571Y-104642857D01*
X119178571Y-104285714D01*
X119250000Y-104071428D01*
X120107142Y-108571428D02*
X120107142Y-107428571D01*
X120107142Y-112071428D02*
X120107142Y-110928571D01*
X120678571Y-111500000D02*
X119535714Y-111500000D01*
D10*
X86740476Y-111061904D02*
X86740476Y-110528571D01*
X86740476Y-110680952D02*
X86778571Y-110604761D01*
X86816666Y-110566666D01*
X86892857Y-110528571D01*
X86969047Y-110528571D01*
X87121428Y-110528571D02*
X87426190Y-110528571D01*
X87235714Y-110261904D02*
X87235714Y-110947619D01*
X87273809Y-111023809D01*
X87350000Y-111061904D01*
X87426190Y-111061904D01*
X87654761Y-111023809D02*
X87730952Y-111061904D01*
X87883333Y-111061904D01*
X87959523Y-111023809D01*
X87997619Y-110947619D01*
X87997619Y-110909523D01*
X87959523Y-110833333D01*
X87883333Y-110795238D01*
X87769047Y-110795238D01*
X87692857Y-110757142D01*
X87654761Y-110680952D01*
X87654761Y-110642857D01*
X87692857Y-110566666D01*
X87769047Y-110528571D01*
X87883333Y-110528571D01*
X87959523Y-110566666D01*
X86138095Y-109573809D02*
X86061904Y-109611904D01*
X85909523Y-109611904D01*
X85833333Y-109573809D01*
X85795238Y-109535714D01*
X85757142Y-109459523D01*
X85757142Y-109230952D01*
X85795238Y-109154761D01*
X85833333Y-109116666D01*
X85909523Y-109078571D01*
X86061904Y-109078571D01*
X86138095Y-109116666D01*
X86366666Y-109078571D02*
X86671428Y-109078571D01*
X86480952Y-108811904D02*
X86480952Y-109497619D01*
X86519047Y-109573809D01*
X86595238Y-109611904D01*
X86671428Y-109611904D01*
X86900000Y-109573809D02*
X86976190Y-109611904D01*
X87128571Y-109611904D01*
X87204761Y-109573809D01*
X87242857Y-109497619D01*
X87242857Y-109459523D01*
X87204761Y-109383333D01*
X87128571Y-109345238D01*
X87014285Y-109345238D01*
X86938095Y-109307142D01*
X86900000Y-109230952D01*
X86900000Y-109192857D01*
X86938095Y-109116666D01*
X87014285Y-109078571D01*
X87128571Y-109078571D01*
X87204761Y-109116666D01*
X84819047Y-108261904D02*
X84819047Y-107728571D01*
X84819047Y-107880952D02*
X84857142Y-107804761D01*
X84895238Y-107766666D01*
X84971428Y-107728571D01*
X85047619Y-107728571D01*
X85238095Y-108261904D02*
X85657142Y-107728571D01*
X85238095Y-107728571D02*
X85657142Y-108261904D01*
X83773809Y-106328571D02*
X84078571Y-106328571D01*
X83888095Y-106061904D02*
X83888095Y-106747619D01*
X83926190Y-106823809D01*
X84002380Y-106861904D01*
X84078571Y-106861904D01*
X84269047Y-106861904D02*
X84688095Y-106328571D01*
X84269047Y-106328571D02*
X84688095Y-106861904D01*
X81195238Y-110307142D02*
X81804761Y-110307142D01*
X80445238Y-108807142D02*
X81054761Y-108807142D01*
X80750000Y-109111904D02*
X80750000Y-108502380D01*
D14*
X95658000Y-103472000D02*
X95658000Y-102997000D01*
X95658000Y-102997000D02*
X96133000Y-102997000D01*
X100878000Y-107742000D02*
X100878000Y-108217000D01*
X100878000Y-108217000D02*
X100403000Y-108217000D01*
X100878000Y-103472000D02*
X100878000Y-102997000D01*
X100878000Y-102997000D02*
X100403000Y-102997000D01*
X95658000Y-107742000D02*
X95658000Y-108217000D01*
X111853879Y-109924000D02*
X112189121Y-109924000D01*
X111853879Y-109164000D02*
X112189121Y-109164000D01*
X111816379Y-107767000D02*
X112151621Y-107767000D01*
X111816379Y-108527000D02*
X112151621Y-108527000D01*
X112151621Y-106370000D02*
X111816379Y-106370000D01*
X112151621Y-107130000D02*
X111816379Y-107130000D01*
X106903276Y-109304500D02*
X107412724Y-109304500D01*
X106903276Y-108259500D02*
X107412724Y-108259500D01*
X107412724Y-107526500D02*
X106903276Y-107526500D01*
X107412724Y-106481500D02*
X106903276Y-106481500D01*
X116217621Y-100730000D02*
X115882379Y-100730000D01*
X116217621Y-101490000D02*
X115882379Y-101490000D01*
X111816379Y-102052000D02*
X112151621Y-102052000D01*
X111816379Y-102812000D02*
X112151621Y-102812000D01*
X111816379Y-103449000D02*
X112151621Y-103449000D01*
X111816379Y-104209000D02*
X112151621Y-104209000D01*
X112151621Y-104846000D02*
X111816379Y-104846000D01*
X112151621Y-105606000D02*
X111816379Y-105606000D01*
X106903276Y-103716500D02*
X107412724Y-103716500D01*
X106903276Y-102671500D02*
X107412724Y-102671500D01*
X107412724Y-105494500D02*
X106903276Y-105494500D01*
X107412724Y-104449500D02*
X106903276Y-104449500D01*
X115580621Y-109797000D02*
X115245379Y-109797000D01*
X115580621Y-109037000D02*
X115245379Y-109037000D01*
X84023000Y-90174000D02*
X88273000Y-90174000D01*
X88273000Y-90174000D02*
X88273000Y-91194000D01*
X88273000Y-91194000D02*
X86673000Y-91194000D01*
X86673000Y-91194000D02*
X86673000Y-92474000D01*
X86673000Y-92474000D02*
X89563000Y-92474000D01*
X84023000Y-98294000D02*
X88273000Y-98294000D01*
X88273000Y-98294000D02*
X88273000Y-97274000D01*
X88273000Y-97274000D02*
X86673000Y-97274000D01*
X86673000Y-97274000D02*
X86673000Y-95994000D01*
X80453000Y-91894000D02*
X80453000Y-96574000D01*
X115520733Y-111451000D02*
X115813267Y-111451000D01*
X115520733Y-110431000D02*
X115813267Y-110431000D01*
X111876267Y-111578000D02*
X111583733Y-111578000D01*
X111876267Y-110558000D02*
X111583733Y-110558000D01*
X109188000Y-108039267D02*
X109188000Y-107746733D01*
X110208000Y-108039267D02*
X110208000Y-107746733D01*
X116363733Y-100290000D02*
X116656267Y-100290000D01*
X116363733Y-99270000D02*
X116656267Y-99270000D01*
X110606267Y-100271000D02*
X110313733Y-100271000D01*
X110606267Y-101291000D02*
X110313733Y-101291000D01*
X110208000Y-103936733D02*
X110208000Y-104229267D01*
X109188000Y-103936733D02*
X109188000Y-104229267D01*
X117932000Y-108135835D02*
X117932000Y-107904165D01*
X117212000Y-108135835D02*
X117212000Y-107904165D01*
X118355000Y-108135835D02*
X118355000Y-107904165D01*
X119075000Y-108135835D02*
X119075000Y-107904165D01*
X104561000Y-100003165D02*
X104561000Y-100234835D01*
X105281000Y-100003165D02*
X105281000Y-100234835D01*
X103015835Y-101920000D02*
X102784165Y-101920000D01*
X103015835Y-101200000D02*
X102784165Y-101200000D01*
X100340000Y-98615835D02*
X100340000Y-98384165D01*
X101060000Y-98615835D02*
X101060000Y-98384165D01*
X102780000Y-103964165D02*
X102780000Y-104195835D01*
X102060000Y-103964165D02*
X102060000Y-104195835D01*
X102359000Y-110313252D02*
X102359000Y-109790748D01*
X103829000Y-110313252D02*
X103829000Y-109790748D01*
X100200000Y-110574248D02*
X100200000Y-111096752D01*
X101670000Y-110574248D02*
X101670000Y-111096752D01*
X95114000Y-110317165D02*
X95114000Y-110548835D01*
X95834000Y-110317165D02*
X95834000Y-110548835D01*
X98129835Y-110581000D02*
X97898165Y-110581000D01*
X98129835Y-111301000D02*
X97898165Y-111301000D01*
X97367835Y-109438000D02*
X97136165Y-109438000D01*
X97367835Y-110158000D02*
X97136165Y-110158000D01*
X91885000Y-109498752D02*
X91885000Y-108976248D01*
X93355000Y-109498752D02*
X93355000Y-108976248D01*
X113484165Y-100740000D02*
X113715835Y-100740000D01*
X113484165Y-101460000D02*
X113715835Y-101460000D01*
X113484165Y-99640000D02*
X113715835Y-99640000D01*
X113484165Y-100360000D02*
X113715835Y-100360000D01*
X93780000Y-97910121D02*
X93780000Y-97574879D01*
X94540000Y-97910121D02*
X94540000Y-97574879D01*
X91800000Y-93735000D02*
X94260000Y-93735000D01*
X94260000Y-93735000D02*
X94260000Y-92265000D01*
X94260000Y-92265000D02*
X91800000Y-92265000D01*
X83300000Y-106600000D02*
G75*
G03*
X83300000Y-106600000I-700000J0D01*
G01*
X82600000Y-108100000D02*
G75*
G03*
X82600000Y-108100000I-700000J0D01*
G01*
X83450000Y-109500000D02*
G75*
G03*
X83450000Y-109500000I-700000J0D01*
G01*
X85100000Y-109400000D02*
G75*
G03*
X85100000Y-109400000I-700000J0D01*
G01*
X86100000Y-110800000D02*
G75*
G03*
X86100000Y-110800000I-700000J0D01*
G01*
X84200000Y-108000000D02*
G75*
G03*
X84200000Y-108000000I-700000J0D01*
G01*
X101508000Y-100848000D02*
X103508000Y-100848000D01*
X102508000Y-98628000D02*
X103508000Y-98628000D01*
X99804165Y-100760000D02*
X100035835Y-100760000D01*
X99804165Y-101480000D02*
X100035835Y-101480000D01*
X113539000Y-106226000D02*
X113539000Y-104226000D01*
X116779000Y-105226000D02*
X116779000Y-102226000D01*
X96515835Y-100440000D02*
X96284165Y-100440000D01*
X96515835Y-101160000D02*
X96284165Y-101160000D01*
X97840000Y-95851665D02*
X97840000Y-96083335D01*
X98560000Y-95851665D02*
X98560000Y-96083335D01*
X97989758Y-94560000D02*
X98810242Y-94560000D01*
X97989758Y-93440000D02*
X98810242Y-93440000D01*
X96567621Y-99320000D02*
X96232379Y-99320000D01*
X96567621Y-100080000D02*
X96232379Y-100080000D01*
X96232379Y-98980000D02*
X96567621Y-98980000D01*
X96232379Y-98220000D02*
X96567621Y-98220000D01*
X97310000Y-97150000D02*
X97310000Y-95650000D01*
X95090000Y-96400000D02*
X95090000Y-95650000D01*
X95248335Y-94040000D02*
X95016665Y-94040000D01*
X95248335Y-94760000D02*
X95016665Y-94760000D01*
M02*
