M48
; DRILL file {KiCad (5.1.9)-1} date 03/31/21 05:23:15
; FORMAT={-:-/ absolute / metric / decimal}
; #@! TF.CreationDate,2021-03-31T05:23:15-07:00
; #@! TF.GenerationSoftware,Kicad,Pcbnew,(5.1.9)-1
FMAT,2
METRIC
T1C0.200
T2C0.400
T3C0.500
T4C0.600
T5C1.200
%
G90
G05
T1
X83.6Y-105.225
X83.925Y-102.875
X84.675Y-104.825
X84.7Y-106.25
X84.85Y-103.575
X85.45Y-106.375
X85.93Y-107.47
X90.15Y-104.35
X90.8Y-103.35
X90.8Y-103.95
X91.7Y-103.3
X92.25Y-103.2
X92.399Y-111.05
X92.667Y-110.317
X93.278Y-110.672
X93.7Y-114.5
X93.7Y-115.0
X94.75Y-102.3
X95.2Y-102.3
X95.65Y-102.3
X95.67Y-101.62
X95.75Y-109.22
X95.9Y-97.55
X96.15Y-102.3
X96.6Y-114.5
X96.6Y-115.0
X98.05Y-101.8
X98.65Y-102.25
X100.56Y-97.84
X101.15Y-100.386
X101.2Y-97.5
X101.6Y-100.386
X101.812Y-98.608
X102.75Y-112.5
X102.912Y-98.608
X103.0Y-111.825
X108.15Y-103.2
X108.41Y-101.15
X108.53Y-99.13
X108.65Y-99.75
X110.67Y-105.46
X111.67Y-105.46
X112.175Y-113.425
X113.3Y-105.7
X114.03Y-102.93
T2
X80.8Y-104.4
X80.9Y-111.5
X81.3Y-102.0
X81.68Y-105.0
X81.9Y-111.5
X82.8Y-96.65
X83.4Y-104.3
X83.5Y-110.5
X84.35Y-97.95
X84.55Y-95.25
X85.4Y-94.35
X85.4Y-105.45
X86.4Y-106.2
X87.35Y-97.05
X88.5Y-97.05
X89.75Y-98.55
X89.75Y-110.05
X89.75Y-111.05
X90.15Y-108.05
X90.15Y-109.1
X90.65Y-98.05
X91.13Y-107.73
X91.6Y-97.65
X91.8Y-95.45
X93.4Y-104.8
X93.4Y-106.55
X94.325Y-95.25
X94.35Y-111.75
X95.05Y-98.6
X95.3Y-111.4
X95.4Y-104.8
X95.4Y-106.55
X95.55Y-95.25
X99.4Y-114.48
X99.51Y-103.49
X100.15Y-110.55
X101.4Y-113.65
X103.45Y-113.95
X103.75Y-101.95
X104.3Y-98.7
X105.6Y-97.75
X105.75Y-100.05
X105.95Y-98.85
X106.685Y-98.115
X106.75Y-102.4
X106.95Y-109.95
X106.975Y-97.0
X107.7Y-111.9
X108.0Y-114.875
X109.8Y-102.25
X109.825Y-108.9
X109.85Y-97.1
X111.1Y-97.35
X112.05Y-96.6
X112.55Y-108.4
X113.15Y-96.6
X113.675Y-101.65
X113.7Y-109.35
X114.0Y-114.85
X114.1Y-97.35
X114.9Y-109.35
X115.35Y-97.15
X116.4Y-96.15
X117.4Y-101.65
X117.4Y-103.25
X117.4Y-110.0
X117.4Y-111.6
T3
X81.9Y-108.1
X82.6Y-106.6
X82.75Y-109.5
X83.5Y-108.0
X84.4Y-109.4
X85.4Y-110.8
T5
X104.85Y-111.25
X105.6Y-95.45
T4
G00X108.28Y-93.65
M15
G01X108.28Y-94.25
M16
G05
G00X108.28Y-97.45
M15
G01X108.28Y-98.05
M16
G05
G00X116.92Y-93.65
M15
G01X116.92Y-94.25
M16
G05
G00X116.92Y-97.45
M15
G01X116.92Y-98.05
M16
G05
T0
M30
