M48
; DRILL file {KiCad (5.1.9)-1} date 03/14/21 10:57:38
; FORMAT={-:-/ absolute / metric / decimal}
; #@! TF.CreationDate,2021-03-14T10:57:38-07:00
; #@! TF.GenerationSoftware,Kicad,Pcbnew,(5.1.9)-1
FMAT,2
METRIC
T1C0.200
T2C0.400
T3C0.500
T4C0.600
T5C2.200
%
G90
G05
T1
X83.72Y-105.35
X84.1Y-103.33
X84.27Y-105.59
X84.63Y-103.76
X84.82Y-106.29
X85.93Y-107.47
X90.51Y-104.22
X91.77Y-104.29
X93.7Y-114.5
X93.7Y-115.0
X93.9Y-104.1
X93.96Y-103.19
X95.983Y-111.817
X96.249Y-111.0
X96.5Y-102.25
X96.517Y-110.267
X96.6Y-114.5
X96.6Y-115.0
X97.0Y-102.25
X97.128Y-110.622
X97.3Y-95.1
X97.4Y-95.7
X98.0Y-102.25
X98.5Y-102.25
X98.88Y-101.52
X99.0Y-102.25
X99.5Y-102.25
X99.52Y-101.57
X99.6Y-109.17
X100.0Y-102.25
X100.14Y-114.47
X100.76Y-114.46
X101.4Y-100.9
X101.74Y-101.54
X102.508Y-99.188
X102.508Y-100.288
X102.86Y-102.41
X104.286Y-100.5
X104.286Y-101.008
X106.34Y-101.13
X106.9Y-100.313
X107.6Y-100.9
X108.26Y-101.5
X112.26Y-101.1
X112.38Y-99.08
X112.5Y-99.7
X112.55Y-90.55
X112.85Y-89.65
X118.7Y-109.3
X118.8Y-90.45
X119.15Y-89.6
X119.32Y-105.46
X119.475Y-104.775
X119.595Y-106.155
X120.32Y-105.46
X120.495Y-106.135
X122.68Y-102.93
T2
X80.8Y-104.4
X80.9Y-111.5
X81.26Y-92.76
X81.26Y-94.26
X81.26Y-95.76
X81.3Y-102.0
X81.68Y-105.0
X81.9Y-111.5
X82.76Y-92.76
X82.76Y-94.26
X82.76Y-95.76
X83.4Y-104.3
X83.5Y-110.5
X84.26Y-92.76
X84.26Y-94.26
X84.26Y-95.76
X85.32Y-90.75
X85.4Y-105.4
X86.4Y-106.2
X87.0Y-91.0
X87.0Y-94.0
X87.0Y-96.1
X87.64Y-102.19
X88.25Y-90.0
X88.271Y-94.0
X88.81Y-109.56
X88.9Y-96.1
X89.76Y-108.26
X90.46Y-110.14
X90.75Y-98.0
X91.08Y-96.94
X91.3Y-103.4
X91.5Y-107.7
X91.5Y-108.6
X92.8Y-103.4
X92.92Y-91.54
X93.5Y-94.5
X93.5Y-97.2
X93.6Y-110.0
X93.6Y-111.0
X94.6Y-95.6
X94.75Y-103.5
X94.98Y-107.68
X97.25Y-104.75
X97.25Y-106.5
X97.9Y-98.3
X98.2Y-97.3
X99.2Y-114.6
X99.25Y-104.75
X99.25Y-106.5
X99.5Y-95.3
X100.8Y-95.3
X101.4Y-113.2
X101.6Y-98.0
X102.0Y-95.3
X103.1Y-90.0
X103.28Y-113.25
X103.36Y-103.44
X103.4Y-95.5
X104.0Y-110.5
X104.7Y-93.4
X104.79Y-108.98
X104.9Y-92.3
X105.1Y-112.5
X105.24Y-98.01
X105.583Y-111.333
X105.583Y-113.667
X105.7Y-99.1
X106.435Y-98.365
X106.75Y-110.85
X106.75Y-114.15
X106.8Y-99.33
X107.45Y-92.3
X107.7Y-93.4
X107.917Y-111.333
X107.917Y-113.667
X108.4Y-112.5
X109.0Y-95.5
X109.3Y-90.0
X109.6Y-100.0
X110.0Y-92.2
X110.0Y-111.0
X110.5Y-109.8
X110.6Y-95.3
X110.7Y-102.4
X113.5Y-98.9
X113.73Y-109.15
X114.35Y-95.25
X114.5Y-98.9
X114.833Y-94.083
X114.833Y-96.417
X115.72Y-105.6
X116.0Y-93.6
X116.0Y-96.9
X117.167Y-94.083
X117.167Y-96.417
X117.4Y-105.65
X117.6Y-103.5
X117.65Y-95.25
X117.75Y-112.75
X117.94Y-109.18
X118.24Y-110.6
X119.07Y-93.73
X119.33Y-114.37
X119.353Y-112.99
X119.73Y-109.86
X119.74Y-108.81
X120.66Y-92.75
X120.81Y-96.23
X121.1Y-100.3
X121.25Y-98.0
X121.28Y-114.37
X121.287Y-112.99
X121.96Y-106.37
X122.6Y-107.25
X122.71Y-92.76
X122.75Y-105.7
X122.77Y-96.23
X123.22Y-112.99
X123.23Y-114.37
T3
X81.9Y-108.1
X82.6Y-106.6
X82.75Y-109.5
X83.5Y-108.0
X84.4Y-109.4
X85.4Y-110.8
T5
X106.75Y-112.5
X116.0Y-95.25
T4
G00X101.88Y-89.7
M15
G01X101.88Y-90.3
M16
G05
G00X101.88Y-93.5
M15
G01X101.88Y-94.1
M16
G05
G00X110.52Y-89.7
M15
G01X110.52Y-90.3
M16
G05
G00X110.52Y-93.5
M15
G01X110.52Y-94.1
M16
G05
T0
M30
