G04 #@! TF.GenerationSoftware,KiCad,Pcbnew,(5.1.9)-1*
G04 #@! TF.CreationDate,2021-03-31T05:11:12-07:00*
G04 #@! TF.ProjectId,rgba,72676261-2e6b-4696-9361-645f70636258,1.1*
G04 #@! TF.SameCoordinates,Original*
G04 #@! TF.FileFunction,Legend,Top*
G04 #@! TF.FilePolarity,Positive*
%FSLAX46Y46*%
G04 Gerber Fmt 4.6, Leading zero omitted, Abs format (unit mm)*
G04 Created by KiCad (PCBNEW (5.1.9)-1) date 2021-03-31 05:11:12*
%MOMM*%
%LPD*%
G01*
G04 APERTURE LIST*
%ADD10C,0.200000*%
%ADD11C,0.153000*%
%ADD12C,0.500000*%
%ADD13C,0.300000*%
%ADD14C,0.120000*%
%ADD15C,0.240000*%
%ADD16C,0.127000*%
G04 APERTURE END LIST*
D10*
X105146666Y-114060714D02*
X105146666Y-114870238D01*
X105099047Y-114965476D01*
X105051428Y-115013095D01*
X104956190Y-115060714D01*
X104813333Y-115060714D01*
X104718095Y-115013095D01*
X105146666Y-114679761D02*
X105051428Y-114727380D01*
X104860952Y-114727380D01*
X104765714Y-114679761D01*
X104718095Y-114632142D01*
X104670476Y-114536904D01*
X104670476Y-114251190D01*
X104718095Y-114155952D01*
X104765714Y-114108333D01*
X104860952Y-114060714D01*
X105051428Y-114060714D01*
X105146666Y-114108333D01*
X105622857Y-114727380D02*
X105622857Y-114060714D01*
X105622857Y-114251190D02*
X105670476Y-114155952D01*
X105718095Y-114108333D01*
X105813333Y-114060714D01*
X105908571Y-114060714D01*
X106670476Y-114727380D02*
X106670476Y-114203571D01*
X106622857Y-114108333D01*
X106527619Y-114060714D01*
X106337142Y-114060714D01*
X106241904Y-114108333D01*
X106670476Y-114679761D02*
X106575238Y-114727380D01*
X106337142Y-114727380D01*
X106241904Y-114679761D01*
X106194285Y-114584523D01*
X106194285Y-114489285D01*
X106241904Y-114394047D01*
X106337142Y-114346428D01*
X106575238Y-114346428D01*
X106670476Y-114298809D01*
X107051428Y-114060714D02*
X107289523Y-114727380D01*
X107527619Y-114060714D02*
X107289523Y-114727380D01*
X107194285Y-114965476D01*
X107146666Y-115013095D01*
X107051428Y-115060714D01*
X108813333Y-114727380D02*
X108718095Y-114679761D01*
X108670476Y-114632142D01*
X108622857Y-114536904D01*
X108622857Y-114251190D01*
X108670476Y-114155952D01*
X108718095Y-114108333D01*
X108813333Y-114060714D01*
X108956190Y-114060714D01*
X109051428Y-114108333D01*
X109099047Y-114155952D01*
X109146666Y-114251190D01*
X109146666Y-114536904D01*
X109099047Y-114632142D01*
X109051428Y-114679761D01*
X108956190Y-114727380D01*
X108813333Y-114727380D01*
X109718095Y-114727380D02*
X109622857Y-114679761D01*
X109575238Y-114584523D01*
X109575238Y-113727380D01*
X110051428Y-114679761D02*
X110146666Y-114727380D01*
X110337142Y-114727380D01*
X110432380Y-114679761D01*
X110480000Y-114584523D01*
X110480000Y-114536904D01*
X110432380Y-114441666D01*
X110337142Y-114394047D01*
X110194285Y-114394047D01*
X110099047Y-114346428D01*
X110051428Y-114251190D01*
X110051428Y-114203571D01*
X110099047Y-114108333D01*
X110194285Y-114060714D01*
X110337142Y-114060714D01*
X110432380Y-114108333D01*
X111051428Y-114727380D02*
X110956190Y-114679761D01*
X110908571Y-114632142D01*
X110860952Y-114536904D01*
X110860952Y-114251190D01*
X110908571Y-114155952D01*
X110956190Y-114108333D01*
X111051428Y-114060714D01*
X111194285Y-114060714D01*
X111289523Y-114108333D01*
X111337142Y-114155952D01*
X111384761Y-114251190D01*
X111384761Y-114536904D01*
X111337142Y-114632142D01*
X111289523Y-114679761D01*
X111194285Y-114727380D01*
X111051428Y-114727380D01*
X111813333Y-114060714D02*
X111813333Y-114727380D01*
X111813333Y-114155952D02*
X111860952Y-114108333D01*
X111956190Y-114060714D01*
X112099047Y-114060714D01*
X112194285Y-114108333D01*
X112241904Y-114203571D01*
X112241904Y-114727380D01*
D11*
X104982783Y-113386904D02*
X104982783Y-112586904D01*
X104982783Y-113348809D02*
X104906592Y-113386904D01*
X104754211Y-113386904D01*
X104678021Y-113348809D01*
X104639926Y-113310714D01*
X104601830Y-113234523D01*
X104601830Y-113005952D01*
X104639926Y-112929761D01*
X104678021Y-112891666D01*
X104754211Y-112853571D01*
X104906592Y-112853571D01*
X104982783Y-112891666D01*
X105668497Y-113348809D02*
X105592307Y-113386904D01*
X105439926Y-113386904D01*
X105363735Y-113348809D01*
X105325640Y-113272619D01*
X105325640Y-112967857D01*
X105363735Y-112891666D01*
X105439926Y-112853571D01*
X105592307Y-112853571D01*
X105668497Y-112891666D01*
X105706592Y-112967857D01*
X105706592Y-113044047D01*
X105325640Y-113120238D01*
X106011354Y-113348809D02*
X106087545Y-113386904D01*
X106239926Y-113386904D01*
X106316116Y-113348809D01*
X106354211Y-113272619D01*
X106354211Y-113234523D01*
X106316116Y-113158333D01*
X106239926Y-113120238D01*
X106125640Y-113120238D01*
X106049450Y-113082142D01*
X106011354Y-113005952D01*
X106011354Y-112967857D01*
X106049450Y-112891666D01*
X106125640Y-112853571D01*
X106239926Y-112853571D01*
X106316116Y-112891666D01*
X106697069Y-113386904D02*
X106697069Y-112853571D01*
X106697069Y-112586904D02*
X106658973Y-112625000D01*
X106697069Y-112663095D01*
X106735164Y-112625000D01*
X106697069Y-112586904D01*
X106697069Y-112663095D01*
X107420878Y-112853571D02*
X107420878Y-113501190D01*
X107382783Y-113577380D01*
X107344688Y-113615476D01*
X107268497Y-113653571D01*
X107154211Y-113653571D01*
X107078021Y-113615476D01*
X107420878Y-113348809D02*
X107344688Y-113386904D01*
X107192307Y-113386904D01*
X107116116Y-113348809D01*
X107078021Y-113310714D01*
X107039926Y-113234523D01*
X107039926Y-113005952D01*
X107078021Y-112929761D01*
X107116116Y-112891666D01*
X107192307Y-112853571D01*
X107344688Y-112853571D01*
X107420878Y-112891666D01*
X107801830Y-112853571D02*
X107801830Y-113386904D01*
X107801830Y-112929761D02*
X107839926Y-112891666D01*
X107916116Y-112853571D01*
X108030402Y-112853571D01*
X108106592Y-112891666D01*
X108144688Y-112967857D01*
X108144688Y-113386904D01*
X108830402Y-113348809D02*
X108754211Y-113386904D01*
X108601830Y-113386904D01*
X108525640Y-113348809D01*
X108487545Y-113272619D01*
X108487545Y-112967857D01*
X108525640Y-112891666D01*
X108601830Y-112853571D01*
X108754211Y-112853571D01*
X108830402Y-112891666D01*
X108868497Y-112967857D01*
X108868497Y-113044047D01*
X108487545Y-113120238D01*
X109554211Y-113386904D02*
X109554211Y-112586904D01*
X109554211Y-113348809D02*
X109478021Y-113386904D01*
X109325640Y-113386904D01*
X109249450Y-113348809D01*
X109211354Y-113310714D01*
X109173259Y-113234523D01*
X109173259Y-113005952D01*
X109211354Y-112929761D01*
X109249450Y-112891666D01*
X109325640Y-112853571D01*
X109478021Y-112853571D01*
X109554211Y-112891666D01*
X110544688Y-113386904D02*
X110544688Y-112586904D01*
X110544688Y-112891666D02*
X110620878Y-112853571D01*
X110773259Y-112853571D01*
X110849450Y-112891666D01*
X110887545Y-112929761D01*
X110925640Y-113005952D01*
X110925640Y-113234523D01*
X110887545Y-113310714D01*
X110849450Y-113348809D01*
X110773259Y-113386904D01*
X110620878Y-113386904D01*
X110544688Y-113348809D01*
X111192307Y-112853571D02*
X111382783Y-113386904D01*
X111573259Y-112853571D02*
X111382783Y-113386904D01*
X111306592Y-113577380D01*
X111268497Y-113615476D01*
X111192307Y-113653571D01*
X81513095Y-113986904D02*
X81513095Y-113453571D01*
X81513095Y-113605952D02*
X81551190Y-113529761D01*
X81589285Y-113491666D01*
X81665476Y-113453571D01*
X81741666Y-113453571D01*
X82313095Y-113948809D02*
X82236904Y-113986904D01*
X82084523Y-113986904D01*
X82008333Y-113948809D01*
X81970238Y-113872619D01*
X81970238Y-113567857D01*
X82008333Y-113491666D01*
X82084523Y-113453571D01*
X82236904Y-113453571D01*
X82313095Y-113491666D01*
X82351190Y-113567857D01*
X82351190Y-113644047D01*
X81970238Y-113720238D01*
X82617857Y-113453571D02*
X82808333Y-113986904D01*
X82998809Y-113453571D01*
X84332142Y-113986904D02*
X83875000Y-113986904D01*
X84103571Y-113986904D02*
X84103571Y-113186904D01*
X84027380Y-113301190D01*
X83951190Y-113377380D01*
X83875000Y-113415476D01*
X84675000Y-113910714D02*
X84713095Y-113948809D01*
X84675000Y-113986904D01*
X84636904Y-113948809D01*
X84675000Y-113910714D01*
X84675000Y-113986904D01*
X85475000Y-113986904D02*
X85017857Y-113986904D01*
X85246428Y-113986904D02*
X85246428Y-113186904D01*
X85170238Y-113301190D01*
X85094047Y-113377380D01*
X85017857Y-113415476D01*
X81828571Y-105661904D02*
X81828571Y-104861904D01*
X81828571Y-105166666D02*
X81904761Y-105128571D01*
X82057142Y-105128571D01*
X82133333Y-105166666D01*
X82171428Y-105204761D01*
X82209523Y-105280952D01*
X82209523Y-105509523D01*
X82171428Y-105585714D01*
X82133333Y-105623809D01*
X82057142Y-105661904D01*
X81904761Y-105661904D01*
X81828571Y-105623809D01*
X82666666Y-105661904D02*
X82590476Y-105623809D01*
X82552380Y-105547619D01*
X82552380Y-104861904D01*
X83314285Y-105128571D02*
X83314285Y-105661904D01*
X82971428Y-105128571D02*
X82971428Y-105547619D01*
X83009523Y-105623809D01*
X83085714Y-105661904D01*
X83200000Y-105661904D01*
X83276190Y-105623809D01*
X83314285Y-105585714D01*
X84000000Y-105623809D02*
X83923809Y-105661904D01*
X83771428Y-105661904D01*
X83695238Y-105623809D01*
X83657142Y-105547619D01*
X83657142Y-105242857D01*
X83695238Y-105166666D01*
X83771428Y-105128571D01*
X83923809Y-105128571D01*
X84000000Y-105166666D01*
X84038095Y-105242857D01*
X84038095Y-105319047D01*
X83657142Y-105395238D01*
X84266666Y-105128571D02*
X84571428Y-105128571D01*
X84380952Y-104861904D02*
X84380952Y-105547619D01*
X84419047Y-105623809D01*
X84495238Y-105661904D01*
X84571428Y-105661904D01*
X84952380Y-105661904D02*
X84876190Y-105623809D01*
X84838095Y-105585714D01*
X84800000Y-105509523D01*
X84800000Y-105280952D01*
X84838095Y-105204761D01*
X84876190Y-105166666D01*
X84952380Y-105128571D01*
X85066666Y-105128571D01*
X85142857Y-105166666D01*
X85180952Y-105204761D01*
X85219047Y-105280952D01*
X85219047Y-105509523D01*
X85180952Y-105585714D01*
X85142857Y-105623809D01*
X85066666Y-105661904D01*
X84952380Y-105661904D01*
X85676190Y-105661904D02*
X85600000Y-105623809D01*
X85561904Y-105585714D01*
X85523809Y-105509523D01*
X85523809Y-105280952D01*
X85561904Y-105204761D01*
X85600000Y-105166666D01*
X85676190Y-105128571D01*
X85790476Y-105128571D01*
X85866666Y-105166666D01*
X85904761Y-105204761D01*
X85942857Y-105280952D01*
X85942857Y-105509523D01*
X85904761Y-105585714D01*
X85866666Y-105623809D01*
X85790476Y-105661904D01*
X85676190Y-105661904D01*
X86171428Y-105128571D02*
X86476190Y-105128571D01*
X86285714Y-104861904D02*
X86285714Y-105547619D01*
X86323809Y-105623809D01*
X86400000Y-105661904D01*
X86476190Y-105661904D01*
X86742857Y-105661904D02*
X86742857Y-104861904D01*
X87085714Y-105661904D02*
X87085714Y-105242857D01*
X87047619Y-105166666D01*
X86971428Y-105128571D01*
X86857142Y-105128571D01*
X86780952Y-105166666D01*
X86742857Y-105204761D01*
X88419047Y-105661904D02*
X88419047Y-105242857D01*
X88380952Y-105166666D01*
X88304761Y-105128571D01*
X88152380Y-105128571D01*
X88076190Y-105166666D01*
X88419047Y-105623809D02*
X88342857Y-105661904D01*
X88152380Y-105661904D01*
X88076190Y-105623809D01*
X88038095Y-105547619D01*
X88038095Y-105471428D01*
X88076190Y-105395238D01*
X88152380Y-105357142D01*
X88342857Y-105357142D01*
X88419047Y-105319047D01*
X89142857Y-105128571D02*
X89142857Y-105661904D01*
X88800000Y-105128571D02*
X88800000Y-105547619D01*
X88838095Y-105623809D01*
X88914285Y-105661904D01*
X89028571Y-105661904D01*
X89104761Y-105623809D01*
X89142857Y-105585714D01*
X89866666Y-105661904D02*
X89866666Y-104861904D01*
X89866666Y-105623809D02*
X89790476Y-105661904D01*
X89638095Y-105661904D01*
X89561904Y-105623809D01*
X89523809Y-105585714D01*
X89485714Y-105509523D01*
X89485714Y-105280952D01*
X89523809Y-105204761D01*
X89561904Y-105166666D01*
X89638095Y-105128571D01*
X89790476Y-105128571D01*
X89866666Y-105166666D01*
X90247619Y-105661904D02*
X90247619Y-105128571D01*
X90247619Y-104861904D02*
X90209523Y-104900000D01*
X90247619Y-104938095D01*
X90285714Y-104900000D01*
X90247619Y-104861904D01*
X90247619Y-104938095D01*
X90742857Y-105661904D02*
X90666666Y-105623809D01*
X90628571Y-105585714D01*
X90590476Y-105509523D01*
X90590476Y-105280952D01*
X90628571Y-105204761D01*
X90666666Y-105166666D01*
X90742857Y-105128571D01*
X90857142Y-105128571D01*
X90933333Y-105166666D01*
X90971428Y-105204761D01*
X91009523Y-105280952D01*
X91009523Y-105509523D01*
X90971428Y-105585714D01*
X90933333Y-105623809D01*
X90857142Y-105661904D01*
X90742857Y-105661904D01*
X81350000Y-104411904D02*
X81350000Y-103878571D01*
X81350000Y-104030952D02*
X81388095Y-103954761D01*
X81426190Y-103916666D01*
X81502380Y-103878571D01*
X81578571Y-103878571D01*
X82150000Y-104373809D02*
X82073809Y-104411904D01*
X81921428Y-104411904D01*
X81845238Y-104373809D01*
X81807142Y-104297619D01*
X81807142Y-103992857D01*
X81845238Y-103916666D01*
X81921428Y-103878571D01*
X82073809Y-103878571D01*
X82150000Y-103916666D01*
X82188095Y-103992857D01*
X82188095Y-104069047D01*
X81807142Y-104145238D01*
X82873809Y-104411904D02*
X82873809Y-103992857D01*
X82835714Y-103916666D01*
X82759523Y-103878571D01*
X82607142Y-103878571D01*
X82530952Y-103916666D01*
X82873809Y-104373809D02*
X82797619Y-104411904D01*
X82607142Y-104411904D01*
X82530952Y-104373809D01*
X82492857Y-104297619D01*
X82492857Y-104221428D01*
X82530952Y-104145238D01*
X82607142Y-104107142D01*
X82797619Y-104107142D01*
X82873809Y-104069047D01*
X83216666Y-104373809D02*
X83292857Y-104411904D01*
X83445238Y-104411904D01*
X83521428Y-104373809D01*
X83559523Y-104297619D01*
X83559523Y-104259523D01*
X83521428Y-104183333D01*
X83445238Y-104145238D01*
X83330952Y-104145238D01*
X83254761Y-104107142D01*
X83216666Y-104030952D01*
X83216666Y-103992857D01*
X83254761Y-103916666D01*
X83330952Y-103878571D01*
X83445238Y-103878571D01*
X83521428Y-103916666D01*
X84016666Y-104411904D02*
X83940476Y-104373809D01*
X83902380Y-104335714D01*
X83864285Y-104259523D01*
X83864285Y-104030952D01*
X83902380Y-103954761D01*
X83940476Y-103916666D01*
X84016666Y-103878571D01*
X84130952Y-103878571D01*
X84207142Y-103916666D01*
X84245238Y-103954761D01*
X84283333Y-104030952D01*
X84283333Y-104259523D01*
X84245238Y-104335714D01*
X84207142Y-104373809D01*
X84130952Y-104411904D01*
X84016666Y-104411904D01*
X84626190Y-103878571D02*
X84626190Y-104411904D01*
X84626190Y-103954761D02*
X84664285Y-103916666D01*
X84740476Y-103878571D01*
X84854761Y-103878571D01*
X84930952Y-103916666D01*
X84969047Y-103992857D01*
X84969047Y-104411904D01*
X85692857Y-104411904D02*
X85692857Y-103992857D01*
X85654761Y-103916666D01*
X85578571Y-103878571D01*
X85426190Y-103878571D01*
X85350000Y-103916666D01*
X85692857Y-104373809D02*
X85616666Y-104411904D01*
X85426190Y-104411904D01*
X85350000Y-104373809D01*
X85311904Y-104297619D01*
X85311904Y-104221428D01*
X85350000Y-104145238D01*
X85426190Y-104107142D01*
X85616666Y-104107142D01*
X85692857Y-104069047D01*
X86073809Y-104411904D02*
X86073809Y-103611904D01*
X86073809Y-103916666D02*
X86150000Y-103878571D01*
X86302380Y-103878571D01*
X86378571Y-103916666D01*
X86416666Y-103954761D01*
X86454761Y-104030952D01*
X86454761Y-104259523D01*
X86416666Y-104335714D01*
X86378571Y-104373809D01*
X86302380Y-104411904D01*
X86150000Y-104411904D01*
X86073809Y-104373809D01*
X86911904Y-104411904D02*
X86835714Y-104373809D01*
X86797619Y-104297619D01*
X86797619Y-103611904D01*
X87140476Y-103878571D02*
X87330952Y-104411904D01*
X87521428Y-103878571D02*
X87330952Y-104411904D01*
X87254761Y-104602380D01*
X87216666Y-104640476D01*
X87140476Y-104678571D01*
X88778571Y-103878571D02*
X88778571Y-104526190D01*
X88740476Y-104602380D01*
X88702380Y-104640476D01*
X88626190Y-104678571D01*
X88511904Y-104678571D01*
X88435714Y-104640476D01*
X88778571Y-104373809D02*
X88702380Y-104411904D01*
X88550000Y-104411904D01*
X88473809Y-104373809D01*
X88435714Y-104335714D01*
X88397619Y-104259523D01*
X88397619Y-104030952D01*
X88435714Y-103954761D01*
X88473809Y-103916666D01*
X88550000Y-103878571D01*
X88702380Y-103878571D01*
X88778571Y-103916666D01*
X89273809Y-104411904D02*
X89197619Y-104373809D01*
X89159523Y-104335714D01*
X89121428Y-104259523D01*
X89121428Y-104030952D01*
X89159523Y-103954761D01*
X89197619Y-103916666D01*
X89273809Y-103878571D01*
X89388095Y-103878571D01*
X89464285Y-103916666D01*
X89502380Y-103954761D01*
X89540476Y-104030952D01*
X89540476Y-104259523D01*
X89502380Y-104335714D01*
X89464285Y-104373809D01*
X89388095Y-104411904D01*
X89273809Y-104411904D01*
X89997619Y-104411904D02*
X89921428Y-104373809D01*
X89883333Y-104335714D01*
X89845238Y-104259523D01*
X89845238Y-104030952D01*
X89883333Y-103954761D01*
X89921428Y-103916666D01*
X89997619Y-103878571D01*
X90111904Y-103878571D01*
X90188095Y-103916666D01*
X90226190Y-103954761D01*
X90264285Y-104030952D01*
X90264285Y-104259523D01*
X90226190Y-104335714D01*
X90188095Y-104373809D01*
X90111904Y-104411904D01*
X89997619Y-104411904D01*
X90950000Y-104411904D02*
X90950000Y-103611904D01*
X90950000Y-104373809D02*
X90873809Y-104411904D01*
X90721428Y-104411904D01*
X90645238Y-104373809D01*
X90607142Y-104335714D01*
X90569047Y-104259523D01*
X90569047Y-104030952D01*
X90607142Y-103954761D01*
X90645238Y-103916666D01*
X90721428Y-103878571D01*
X90873809Y-103878571D01*
X90950000Y-103916666D01*
D12*
X81714285Y-102407142D02*
X81714285Y-100407142D01*
X81714285Y-100978571D02*
X81857142Y-100692857D01*
X82000000Y-100550000D01*
X82285714Y-100407142D01*
X82571428Y-100407142D01*
X84857142Y-100407142D02*
X84857142Y-102835714D01*
X84714285Y-103121428D01*
X84571428Y-103264285D01*
X84285714Y-103407142D01*
X83857142Y-103407142D01*
X83571428Y-103264285D01*
X84857142Y-102264285D02*
X84571428Y-102407142D01*
X84000000Y-102407142D01*
X83714285Y-102264285D01*
X83571428Y-102121428D01*
X83428571Y-101835714D01*
X83428571Y-100978571D01*
X83571428Y-100692857D01*
X83714285Y-100550000D01*
X84000000Y-100407142D01*
X84571428Y-100407142D01*
X84857142Y-100550000D01*
X86285714Y-102407142D02*
X86285714Y-99407142D01*
X86285714Y-100550000D02*
X86571428Y-100407142D01*
X87142857Y-100407142D01*
X87428571Y-100550000D01*
X87571428Y-100692857D01*
X87714285Y-100978571D01*
X87714285Y-101835714D01*
X87571428Y-102121428D01*
X87428571Y-102264285D01*
X87142857Y-102407142D01*
X86571428Y-102407142D01*
X86285714Y-102264285D01*
X90285714Y-102407142D02*
X90285714Y-100835714D01*
X90142857Y-100550000D01*
X89857142Y-100407142D01*
X89285714Y-100407142D01*
X89000000Y-100550000D01*
X90285714Y-102264285D02*
X90000000Y-102407142D01*
X89285714Y-102407142D01*
X89000000Y-102264285D01*
X88857142Y-101978571D01*
X88857142Y-101692857D01*
X89000000Y-101407142D01*
X89285714Y-101264285D01*
X90000000Y-101264285D01*
X90285714Y-101121428D01*
D13*
X114678571Y-101885714D02*
X113964285Y-102385714D01*
X114678571Y-102742857D02*
X113178571Y-102742857D01*
X113178571Y-102171428D01*
X113250000Y-102028571D01*
X113321428Y-101957142D01*
X113464285Y-101885714D01*
X113678571Y-101885714D01*
X113821428Y-101957142D01*
X113892857Y-102028571D01*
X113964285Y-102171428D01*
X113964285Y-102742857D01*
X114328571Y-111635714D02*
X114328571Y-112350000D01*
X112828571Y-112350000D01*
X115007142Y-106678571D02*
X115078571Y-106464285D01*
X115078571Y-106107142D01*
X115007142Y-105964285D01*
X114935714Y-105892857D01*
X114792857Y-105821428D01*
X114650000Y-105821428D01*
X114507142Y-105892857D01*
X114435714Y-105964285D01*
X114364285Y-106107142D01*
X114292857Y-106392857D01*
X114221428Y-106535714D01*
X114150000Y-106607142D01*
X114007142Y-106678571D01*
X113864285Y-106678571D01*
X113721428Y-106607142D01*
X113650000Y-106535714D01*
X113578571Y-106392857D01*
X113578571Y-106035714D01*
X113650000Y-105821428D01*
X115457142Y-102971428D02*
X115457142Y-101828571D01*
X115207142Y-100121428D02*
X115207142Y-98978571D01*
X115778571Y-99550000D02*
X114635714Y-99550000D01*
X115307142Y-111371428D02*
X115307142Y-110228571D01*
X115157142Y-114121428D02*
X115157142Y-112978571D01*
X115728571Y-113550000D02*
X114585714Y-113550000D01*
D10*
X86740476Y-111061904D02*
X86740476Y-110528571D01*
X86740476Y-110680952D02*
X86778571Y-110604761D01*
X86816666Y-110566666D01*
X86892857Y-110528571D01*
X86969047Y-110528571D01*
X87121428Y-110528571D02*
X87426190Y-110528571D01*
X87235714Y-110261904D02*
X87235714Y-110947619D01*
X87273809Y-111023809D01*
X87350000Y-111061904D01*
X87426190Y-111061904D01*
X87654761Y-111023809D02*
X87730952Y-111061904D01*
X87883333Y-111061904D01*
X87959523Y-111023809D01*
X87997619Y-110947619D01*
X87997619Y-110909523D01*
X87959523Y-110833333D01*
X87883333Y-110795238D01*
X87769047Y-110795238D01*
X87692857Y-110757142D01*
X87654761Y-110680952D01*
X87654761Y-110642857D01*
X87692857Y-110566666D01*
X87769047Y-110528571D01*
X87883333Y-110528571D01*
X87959523Y-110566666D01*
X86138095Y-109573809D02*
X86061904Y-109611904D01*
X85909523Y-109611904D01*
X85833333Y-109573809D01*
X85795238Y-109535714D01*
X85757142Y-109459523D01*
X85757142Y-109230952D01*
X85795238Y-109154761D01*
X85833333Y-109116666D01*
X85909523Y-109078571D01*
X86061904Y-109078571D01*
X86138095Y-109116666D01*
X86366666Y-109078571D02*
X86671428Y-109078571D01*
X86480952Y-108811904D02*
X86480952Y-109497619D01*
X86519047Y-109573809D01*
X86595238Y-109611904D01*
X86671428Y-109611904D01*
X86900000Y-109573809D02*
X86976190Y-109611904D01*
X87128571Y-109611904D01*
X87204761Y-109573809D01*
X87242857Y-109497619D01*
X87242857Y-109459523D01*
X87204761Y-109383333D01*
X87128571Y-109345238D01*
X87014285Y-109345238D01*
X86938095Y-109307142D01*
X86900000Y-109230952D01*
X86900000Y-109192857D01*
X86938095Y-109116666D01*
X87014285Y-109078571D01*
X87128571Y-109078571D01*
X87204761Y-109116666D01*
X84819047Y-108261904D02*
X84819047Y-107728571D01*
X84819047Y-107880952D02*
X84857142Y-107804761D01*
X84895238Y-107766666D01*
X84971428Y-107728571D01*
X85047619Y-107728571D01*
X85238095Y-108261904D02*
X85657142Y-107728571D01*
X85238095Y-107728571D02*
X85657142Y-108261904D01*
X83773809Y-106328571D02*
X84078571Y-106328571D01*
X83888095Y-106061904D02*
X83888095Y-106747619D01*
X83926190Y-106823809D01*
X84002380Y-106861904D01*
X84078571Y-106861904D01*
X84269047Y-106861904D02*
X84688095Y-106328571D01*
X84269047Y-106328571D02*
X84688095Y-106861904D01*
X81195238Y-110307142D02*
X81804761Y-110307142D01*
X80445238Y-108807142D02*
X81054761Y-108807142D01*
X80750000Y-109111904D02*
X80750000Y-108502380D01*
D14*
X109689000Y-106276000D02*
X109689000Y-104276000D01*
D15*
X113109000Y-103176000D02*
G75*
G03*
X113109000Y-103176000I-100000J0D01*
G01*
D14*
X112959000Y-106276000D02*
X112959000Y-104276000D01*
X103472000Y-98608000D02*
X103472000Y-99608000D01*
X101252000Y-97608000D02*
X101252000Y-99608000D01*
D10*
X103637000Y-97608000D02*
G75*
G03*
X103637000Y-97608000I-100000J0D01*
G01*
D14*
X97028000Y-103047000D02*
X96553000Y-103047000D01*
X97028000Y-103522000D02*
X97028000Y-103047000D01*
X97028000Y-108267000D02*
X96553000Y-108267000D01*
X97028000Y-107792000D02*
X97028000Y-108267000D01*
X91808000Y-103047000D02*
X92283000Y-103047000D01*
X91808000Y-103522000D02*
X91808000Y-103047000D01*
D10*
X92008139Y-108157000D02*
G75*
G03*
X92008139Y-108157000I-90139J0D01*
G01*
X93255000Y-95550000D02*
G75*
G03*
X93255000Y-95550000I-100000J0D01*
G01*
D16*
X93600000Y-95595000D02*
X95200000Y-95595000D01*
X93600000Y-98005000D02*
X95200000Y-98005000D01*
D14*
X85090000Y-99560000D02*
X81740000Y-99560000D01*
X81740000Y-99560000D02*
X81740000Y-98510000D01*
X81740000Y-98510000D02*
X81550000Y-98510000D01*
X85090000Y-95140000D02*
X81740000Y-95140000D01*
X81740000Y-95140000D02*
X81740000Y-96190000D01*
X86260000Y-98490000D02*
X86260000Y-98140000D01*
X86260000Y-98140000D02*
X85760000Y-97740000D01*
X85760000Y-97740000D02*
X85760000Y-96960000D01*
X85760000Y-96960000D02*
X86260000Y-96560000D01*
X86260000Y-96560000D02*
X86260000Y-96210000D01*
X80696447Y-98200000D02*
X81050000Y-97950000D01*
X81050000Y-97950000D02*
X80696447Y-97700000D01*
X80696447Y-97700000D02*
X80696447Y-98200000D01*
X97590000Y-97461252D02*
X97590000Y-96938748D01*
X99810000Y-97461252D02*
X99810000Y-96938748D01*
X96440000Y-95915835D02*
X96440000Y-95684165D01*
X97160000Y-95915835D02*
X97160000Y-95684165D01*
X92090000Y-95865835D02*
X92090000Y-95634165D01*
X92810000Y-95865835D02*
X92810000Y-95634165D01*
X108003879Y-109214000D02*
X108339121Y-109214000D01*
X108003879Y-109974000D02*
X108339121Y-109974000D01*
X107966379Y-107817000D02*
X108301621Y-107817000D01*
X107966379Y-108577000D02*
X108301621Y-108577000D01*
X108301621Y-107180000D02*
X107966379Y-107180000D01*
X108301621Y-106420000D02*
X107966379Y-106420000D01*
X103053276Y-108309500D02*
X103562724Y-108309500D01*
X103053276Y-109354500D02*
X103562724Y-109354500D01*
X103562724Y-107576500D02*
X103053276Y-107576500D01*
X103562724Y-106531500D02*
X103053276Y-106531500D01*
X112317621Y-101530000D02*
X111982379Y-101530000D01*
X112317621Y-100770000D02*
X111982379Y-100770000D01*
X107966379Y-102102000D02*
X108301621Y-102102000D01*
X107966379Y-102862000D02*
X108301621Y-102862000D01*
X107966379Y-103499000D02*
X108301621Y-103499000D01*
X107966379Y-104259000D02*
X108301621Y-104259000D01*
X108301621Y-105656000D02*
X107966379Y-105656000D01*
X108301621Y-104896000D02*
X107966379Y-104896000D01*
X103053276Y-102721500D02*
X103562724Y-102721500D01*
X103053276Y-103766500D02*
X103562724Y-103766500D01*
X103562724Y-105544500D02*
X103053276Y-105544500D01*
X103562724Y-104499500D02*
X103053276Y-104499500D01*
X111730621Y-109847000D02*
X111395379Y-109847000D01*
X111730621Y-109087000D02*
X111395379Y-109087000D01*
X111670733Y-110481000D02*
X111963267Y-110481000D01*
X111670733Y-111501000D02*
X111963267Y-111501000D01*
X108446267Y-111560000D02*
X108153733Y-111560000D01*
X108446267Y-110540000D02*
X108153733Y-110540000D01*
X105338000Y-108089267D02*
X105338000Y-107796733D01*
X106358000Y-108089267D02*
X106358000Y-107796733D01*
X112513733Y-99320000D02*
X112806267Y-99320000D01*
X112513733Y-100340000D02*
X112806267Y-100340000D01*
X106756267Y-101341000D02*
X106463733Y-101341000D01*
X106756267Y-100321000D02*
X106463733Y-100321000D01*
X106358000Y-103986733D02*
X106358000Y-104279267D01*
X105338000Y-103986733D02*
X105338000Y-104279267D01*
X113362000Y-108185835D02*
X113362000Y-107954165D01*
X114082000Y-108185835D02*
X114082000Y-107954165D01*
X114505000Y-108185835D02*
X114505000Y-107954165D01*
X115225000Y-108185835D02*
X115225000Y-107954165D01*
X102096835Y-101381000D02*
X101865165Y-101381000D01*
X102096835Y-100661000D02*
X101865165Y-100661000D01*
X100215000Y-99115835D02*
X100215000Y-98884165D01*
X100935000Y-99115835D02*
X100935000Y-98884165D01*
X104560000Y-97634165D02*
X104560000Y-97865835D01*
X103840000Y-97634165D02*
X103840000Y-97865835D01*
X98930000Y-104014165D02*
X98930000Y-104245835D01*
X98210000Y-104014165D02*
X98210000Y-104245835D01*
X98509000Y-110363252D02*
X98509000Y-109840748D01*
X99979000Y-110363252D02*
X99979000Y-109840748D01*
X97820000Y-110624248D02*
X97820000Y-111146752D01*
X96350000Y-110624248D02*
X96350000Y-111146752D01*
X91984000Y-110367165D02*
X91984000Y-110598835D01*
X91264000Y-110367165D02*
X91264000Y-110598835D01*
X94279835Y-111351000D02*
X94048165Y-111351000D01*
X94279835Y-110631000D02*
X94048165Y-110631000D01*
X93517835Y-110208000D02*
X93286165Y-110208000D01*
X93517835Y-109488000D02*
X93286165Y-109488000D01*
X88035000Y-109548752D02*
X88035000Y-109026248D01*
X89505000Y-109548752D02*
X89505000Y-109026248D01*
X109634165Y-100790000D02*
X109865835Y-100790000D01*
X109634165Y-101510000D02*
X109865835Y-101510000D01*
X109634165Y-99690000D02*
X109865835Y-99690000D01*
X109634165Y-100410000D02*
X109865835Y-100410000D01*
X92030000Y-98310121D02*
X92030000Y-97974879D01*
X92790000Y-98310121D02*
X92790000Y-97974879D01*
X90385000Y-97250000D02*
X90385000Y-94790000D01*
X90385000Y-94790000D02*
X88915000Y-94790000D01*
X88915000Y-94790000D02*
X88915000Y-97250000D01*
X83300000Y-106600000D02*
G75*
G03*
X83300000Y-106600000I-700000J0D01*
G01*
X82600000Y-108100000D02*
G75*
G03*
X82600000Y-108100000I-700000J0D01*
G01*
X83450000Y-109500000D02*
G75*
G03*
X83450000Y-109500000I-700000J0D01*
G01*
X85100000Y-109400000D02*
G75*
G03*
X85100000Y-109400000I-700000J0D01*
G01*
X86100000Y-110800000D02*
G75*
G03*
X86100000Y-110800000I-700000J0D01*
G01*
X84200000Y-108000000D02*
G75*
G03*
X84200000Y-108000000I-700000J0D01*
G01*
X95954165Y-100810000D02*
X96185835Y-100810000D01*
X95954165Y-101530000D02*
X96185835Y-101530000D01*
M02*
