G04 #@! TF.GenerationSoftware,KiCad,Pcbnew,(5.1.9)-1*
G04 #@! TF.CreationDate,2021-03-14T10:57:35-07:00*
G04 #@! TF.ProjectId,rgba,72676261-2e6b-4696-9361-645f70636258,1*
G04 #@! TF.SameCoordinates,Original*
G04 #@! TF.FileFunction,Copper,L4,Bot*
G04 #@! TF.FilePolarity,Positive*
%FSLAX46Y46*%
G04 Gerber Fmt 4.6, Leading zero omitted, Abs format (unit mm)*
G04 Created by KiCad (PCBNEW (5.1.9)-1) date 2021-03-14 10:57:35*
%MOMM*%
%LPD*%
G01*
G04 APERTURE LIST*
G04 #@! TA.AperFunction,SMDPad,CuDef*
%ADD10R,0.800000X0.400000*%
G04 #@! TD*
G04 #@! TA.AperFunction,SMDPad,CuDef*
%ADD11R,1.140000X0.650000*%
G04 #@! TD*
G04 #@! TA.AperFunction,ComponentPad*
%ADD12C,0.400000*%
G04 #@! TD*
G04 #@! TA.AperFunction,SMDPad,CuDef*
%ADD13R,2.000000X1.200000*%
G04 #@! TD*
G04 #@! TA.AperFunction,SMDPad,CuDef*
%ADD14R,1.600000X0.600000*%
G04 #@! TD*
G04 #@! TA.AperFunction,SMDPad,CuDef*
%ADD15R,0.600000X1.600000*%
G04 #@! TD*
G04 #@! TA.AperFunction,ComponentPad*
%ADD16C,1.000000*%
G04 #@! TD*
G04 #@! TA.AperFunction,ComponentPad*
%ADD17C,0.700000*%
G04 #@! TD*
G04 #@! TA.AperFunction,ComponentPad*
%ADD18C,4.400000*%
G04 #@! TD*
G04 #@! TA.AperFunction,SMDPad,CuDef*
%ADD19R,0.500000X1.600000*%
G04 #@! TD*
G04 #@! TA.AperFunction,ComponentPad*
%ADD20C,0.500000*%
G04 #@! TD*
G04 #@! TA.AperFunction,SMDPad,CuDef*
%ADD21R,0.600000X1.450000*%
G04 #@! TD*
G04 #@! TA.AperFunction,SMDPad,CuDef*
%ADD22R,0.700000X1.450000*%
G04 #@! TD*
G04 #@! TA.AperFunction,ComponentPad*
%ADD23O,1.000000X1.600000*%
G04 #@! TD*
G04 #@! TA.AperFunction,ViaPad*
%ADD24C,0.800000*%
G04 #@! TD*
G04 #@! TA.AperFunction,ViaPad*
%ADD25C,0.400000*%
G04 #@! TD*
G04 #@! TA.AperFunction,Conductor*
%ADD26C,0.250000*%
G04 #@! TD*
G04 #@! TA.AperFunction,Conductor*
%ADD27C,0.500000*%
G04 #@! TD*
G04 APERTURE END LIST*
D10*
X113200000Y-114850000D03*
X110800000Y-114850000D03*
D11*
X113030000Y-113755000D03*
X110970000Y-113755000D03*
D10*
X119900000Y-89600000D03*
X122300000Y-89600000D03*
D11*
X120070000Y-90695000D03*
X122130000Y-90695000D03*
D10*
X113500000Y-89650000D03*
X115900000Y-89650000D03*
D11*
X113670000Y-90745000D03*
X115730000Y-90745000D03*
G04 #@! TA.AperFunction,SMDPad,CuDef*
G36*
G01*
X121320000Y-101810000D02*
X121320000Y-100110000D01*
G75*
G02*
X121570000Y-99860000I250000J0D01*
G01*
X122495000Y-99860000D01*
G75*
G02*
X122745000Y-100110000I0J-250000D01*
G01*
X122745000Y-101810000D01*
G75*
G02*
X122495000Y-102060000I-250000J0D01*
G01*
X121570000Y-102060000D01*
G75*
G02*
X121320000Y-101810000I0J250000D01*
G01*
G37*
G04 #@! TD.AperFunction*
G04 #@! TA.AperFunction,SMDPad,CuDef*
G36*
G01*
X118995000Y-101810000D02*
X118995000Y-100110000D01*
G75*
G02*
X119245000Y-99860000I250000J0D01*
G01*
X120170000Y-99860000D01*
G75*
G02*
X120420000Y-100110000I0J-250000D01*
G01*
X120420000Y-101810000D01*
G75*
G02*
X120170000Y-102060000I-250000J0D01*
G01*
X119245000Y-102060000D01*
G75*
G02*
X118995000Y-101810000I0J250000D01*
G01*
G37*
G04 #@! TD.AperFunction*
G04 #@! TA.AperFunction,SMDPad,CuDef*
G36*
G01*
X122640000Y-111637500D02*
X120940000Y-111637500D01*
G75*
G02*
X120690000Y-111387500I0J250000D01*
G01*
X120690000Y-110462500D01*
G75*
G02*
X120940000Y-110212500I250000J0D01*
G01*
X122640000Y-110212500D01*
G75*
G02*
X122890000Y-110462500I0J-250000D01*
G01*
X122890000Y-111387500D01*
G75*
G02*
X122640000Y-111637500I-250000J0D01*
G01*
G37*
G04 #@! TD.AperFunction*
G04 #@! TA.AperFunction,SMDPad,CuDef*
G36*
G01*
X122640000Y-109312500D02*
X120940000Y-109312500D01*
G75*
G02*
X120690000Y-109062500I0J250000D01*
G01*
X120690000Y-108137500D01*
G75*
G02*
X120940000Y-107887500I250000J0D01*
G01*
X122640000Y-107887500D01*
G75*
G02*
X122890000Y-108137500I0J-250000D01*
G01*
X122890000Y-109062500D01*
G75*
G02*
X122640000Y-109312500I-250000J0D01*
G01*
G37*
G04 #@! TD.AperFunction*
G04 #@! TA.AperFunction,SMDPad,CuDef*
G36*
G01*
X88350000Y-90562500D02*
X88350000Y-91037500D01*
G75*
G02*
X88112500Y-91275000I-237500J0D01*
G01*
X87537500Y-91275000D01*
G75*
G02*
X87300000Y-91037500I0J237500D01*
G01*
X87300000Y-90562500D01*
G75*
G02*
X87537500Y-90325000I237500J0D01*
G01*
X88112500Y-90325000D01*
G75*
G02*
X88350000Y-90562500I0J-237500D01*
G01*
G37*
G04 #@! TD.AperFunction*
G04 #@! TA.AperFunction,SMDPad,CuDef*
G36*
G01*
X90100000Y-90562500D02*
X90100000Y-91037500D01*
G75*
G02*
X89862500Y-91275000I-237500J0D01*
G01*
X89287500Y-91275000D01*
G75*
G02*
X89050000Y-91037500I0J237500D01*
G01*
X89050000Y-90562500D01*
G75*
G02*
X89287500Y-90325000I237500J0D01*
G01*
X89862500Y-90325000D01*
G75*
G02*
X90100000Y-90562500I0J-237500D01*
G01*
G37*
G04 #@! TD.AperFunction*
G04 #@! TA.AperFunction,SMDPad,CuDef*
G36*
G01*
X90100000Y-92162500D02*
X90100000Y-92637500D01*
G75*
G02*
X89862500Y-92875000I-237500J0D01*
G01*
X89287500Y-92875000D01*
G75*
G02*
X89050000Y-92637500I0J237500D01*
G01*
X89050000Y-92162500D01*
G75*
G02*
X89287500Y-91925000I237500J0D01*
G01*
X89862500Y-91925000D01*
G75*
G02*
X90100000Y-92162500I0J-237500D01*
G01*
G37*
G04 #@! TD.AperFunction*
G04 #@! TA.AperFunction,SMDPad,CuDef*
G36*
G01*
X88350000Y-92162500D02*
X88350000Y-92637500D01*
G75*
G02*
X88112500Y-92875000I-237500J0D01*
G01*
X87537500Y-92875000D01*
G75*
G02*
X87300000Y-92637500I0J237500D01*
G01*
X87300000Y-92162500D01*
G75*
G02*
X87537500Y-91925000I237500J0D01*
G01*
X88112500Y-91925000D01*
G75*
G02*
X88350000Y-92162500I0J-237500D01*
G01*
G37*
G04 #@! TD.AperFunction*
G04 #@! TA.AperFunction,SMDPad,CuDef*
G36*
G01*
X118306500Y-102998000D02*
X118306500Y-102688000D01*
G75*
G02*
X118461500Y-102533000I155000J0D01*
G01*
X118886500Y-102533000D01*
G75*
G02*
X119041500Y-102688000I0J-155000D01*
G01*
X119041500Y-102998000D01*
G75*
G02*
X118886500Y-103153000I-155000J0D01*
G01*
X118461500Y-103153000D01*
G75*
G02*
X118306500Y-102998000I0J155000D01*
G01*
G37*
G04 #@! TD.AperFunction*
G04 #@! TA.AperFunction,SMDPad,CuDef*
G36*
G01*
X117171500Y-102998000D02*
X117171500Y-102688000D01*
G75*
G02*
X117326500Y-102533000I155000J0D01*
G01*
X117751500Y-102533000D01*
G75*
G02*
X117906500Y-102688000I0J-155000D01*
G01*
X117906500Y-102998000D01*
G75*
G02*
X117751500Y-103153000I-155000J0D01*
G01*
X117326500Y-103153000D01*
G75*
G02*
X117171500Y-102998000I0J155000D01*
G01*
G37*
G04 #@! TD.AperFunction*
G04 #@! TA.AperFunction,SMDPad,CuDef*
G36*
G01*
X120125000Y-107745000D02*
X120125000Y-108055000D01*
G75*
G02*
X119970000Y-108210000I-155000J0D01*
G01*
X119545000Y-108210000D01*
G75*
G02*
X119390000Y-108055000I0J155000D01*
G01*
X119390000Y-107745000D01*
G75*
G02*
X119545000Y-107590000I155000J0D01*
G01*
X119970000Y-107590000D01*
G75*
G02*
X120125000Y-107745000I0J-155000D01*
G01*
G37*
G04 #@! TD.AperFunction*
G04 #@! TA.AperFunction,SMDPad,CuDef*
G36*
G01*
X118990000Y-107745000D02*
X118990000Y-108055000D01*
G75*
G02*
X118835000Y-108210000I-155000J0D01*
G01*
X118410000Y-108210000D01*
G75*
G02*
X118255000Y-108055000I0J155000D01*
G01*
X118255000Y-107745000D01*
G75*
G02*
X118410000Y-107590000I155000J0D01*
G01*
X118835000Y-107590000D01*
G75*
G02*
X118990000Y-107745000I0J-155000D01*
G01*
G37*
G04 #@! TD.AperFunction*
G04 #@! TA.AperFunction,SMDPad,CuDef*
G36*
G01*
X122045000Y-103795000D02*
X122355000Y-103795000D01*
G75*
G02*
X122510000Y-103950000I0J-155000D01*
G01*
X122510000Y-104375000D01*
G75*
G02*
X122355000Y-104530000I-155000J0D01*
G01*
X122045000Y-104530000D01*
G75*
G02*
X121890000Y-104375000I0J155000D01*
G01*
X121890000Y-103950000D01*
G75*
G02*
X122045000Y-103795000I155000J0D01*
G01*
G37*
G04 #@! TD.AperFunction*
G04 #@! TA.AperFunction,SMDPad,CuDef*
G36*
G01*
X122045000Y-104930000D02*
X122355000Y-104930000D01*
G75*
G02*
X122510000Y-105085000I0J-155000D01*
G01*
X122510000Y-105510000D01*
G75*
G02*
X122355000Y-105665000I-155000J0D01*
G01*
X122045000Y-105665000D01*
G75*
G02*
X121890000Y-105510000I0J155000D01*
G01*
X121890000Y-105085000D01*
G75*
G02*
X122045000Y-104930000I155000J0D01*
G01*
G37*
G04 #@! TD.AperFunction*
G04 #@! TA.AperFunction,SMDPad,CuDef*
G36*
G01*
X88955000Y-97840000D02*
X88955000Y-98160000D01*
G75*
G02*
X88795000Y-98320000I-160000J0D01*
G01*
X88400000Y-98320000D01*
G75*
G02*
X88240000Y-98160000I0J160000D01*
G01*
X88240000Y-97840000D01*
G75*
G02*
X88400000Y-97680000I160000J0D01*
G01*
X88795000Y-97680000D01*
G75*
G02*
X88955000Y-97840000I0J-160000D01*
G01*
G37*
G04 #@! TD.AperFunction*
G04 #@! TA.AperFunction,SMDPad,CuDef*
G36*
G01*
X87760000Y-97840000D02*
X87760000Y-98160000D01*
G75*
G02*
X87600000Y-98320000I-160000J0D01*
G01*
X87205000Y-98320000D01*
G75*
G02*
X87045000Y-98160000I0J160000D01*
G01*
X87045000Y-97840000D01*
G75*
G02*
X87205000Y-97680000I160000J0D01*
G01*
X87600000Y-97680000D01*
G75*
G02*
X87760000Y-97840000I0J-160000D01*
G01*
G37*
G04 #@! TD.AperFunction*
G04 #@! TA.AperFunction,SMDPad,CuDef*
G36*
G01*
X95000000Y-114955000D02*
X95000000Y-114645000D01*
G75*
G02*
X95155000Y-114490000I155000J0D01*
G01*
X95580000Y-114490000D01*
G75*
G02*
X95735000Y-114645000I0J-155000D01*
G01*
X95735000Y-114955000D01*
G75*
G02*
X95580000Y-115110000I-155000J0D01*
G01*
X95155000Y-115110000D01*
G75*
G02*
X95000000Y-114955000I0J155000D01*
G01*
G37*
G04 #@! TD.AperFunction*
G04 #@! TA.AperFunction,SMDPad,CuDef*
G36*
G01*
X93865000Y-114955000D02*
X93865000Y-114645000D01*
G75*
G02*
X94020000Y-114490000I155000J0D01*
G01*
X94445000Y-114490000D01*
G75*
G02*
X94600000Y-114645000I0J-155000D01*
G01*
X94600000Y-114955000D01*
G75*
G02*
X94445000Y-115110000I-155000J0D01*
G01*
X94020000Y-115110000D01*
G75*
G02*
X93865000Y-114955000I0J155000D01*
G01*
G37*
G04 #@! TD.AperFunction*
G04 #@! TA.AperFunction,SMDPad,CuDef*
G36*
G01*
X94437500Y-93912500D02*
X94912500Y-93912500D01*
G75*
G02*
X95150000Y-94150000I0J-237500D01*
G01*
X95150000Y-94650000D01*
G75*
G02*
X94912500Y-94887500I-237500J0D01*
G01*
X94437500Y-94887500D01*
G75*
G02*
X94200000Y-94650000I0J237500D01*
G01*
X94200000Y-94150000D01*
G75*
G02*
X94437500Y-93912500I237500J0D01*
G01*
G37*
G04 #@! TD.AperFunction*
G04 #@! TA.AperFunction,SMDPad,CuDef*
G36*
G01*
X94437500Y-92087500D02*
X94912500Y-92087500D01*
G75*
G02*
X95150000Y-92325000I0J-237500D01*
G01*
X95150000Y-92825000D01*
G75*
G02*
X94912500Y-93062500I-237500J0D01*
G01*
X94437500Y-93062500D01*
G75*
G02*
X94200000Y-92825000I0J237500D01*
G01*
X94200000Y-92325000D01*
G75*
G02*
X94437500Y-92087500I237500J0D01*
G01*
G37*
G04 #@! TD.AperFunction*
G04 #@! TA.AperFunction,SMDPad,CuDef*
G36*
G01*
X98012500Y-92087500D02*
X98487500Y-92087500D01*
G75*
G02*
X98725000Y-92325000I0J-237500D01*
G01*
X98725000Y-92825000D01*
G75*
G02*
X98487500Y-93062500I-237500J0D01*
G01*
X98012500Y-93062500D01*
G75*
G02*
X97775000Y-92825000I0J237500D01*
G01*
X97775000Y-92325000D01*
G75*
G02*
X98012500Y-92087500I237500J0D01*
G01*
G37*
G04 #@! TD.AperFunction*
G04 #@! TA.AperFunction,SMDPad,CuDef*
G36*
G01*
X98012500Y-93912500D02*
X98487500Y-93912500D01*
G75*
G02*
X98725000Y-94150000I0J-237500D01*
G01*
X98725000Y-94650000D01*
G75*
G02*
X98487500Y-94887500I-237500J0D01*
G01*
X98012500Y-94887500D01*
G75*
G02*
X97775000Y-94650000I0J237500D01*
G01*
X97775000Y-94150000D01*
G75*
G02*
X98012500Y-93912500I237500J0D01*
G01*
G37*
G04 #@! TD.AperFunction*
G04 #@! TA.AperFunction,SMDPad,CuDef*
G36*
G01*
X90862500Y-92087500D02*
X91337500Y-92087500D01*
G75*
G02*
X91575000Y-92325000I0J-237500D01*
G01*
X91575000Y-92825000D01*
G75*
G02*
X91337500Y-93062500I-237500J0D01*
G01*
X90862500Y-93062500D01*
G75*
G02*
X90625000Y-92825000I0J237500D01*
G01*
X90625000Y-92325000D01*
G75*
G02*
X90862500Y-92087500I237500J0D01*
G01*
G37*
G04 #@! TD.AperFunction*
G04 #@! TA.AperFunction,SMDPad,CuDef*
G36*
G01*
X90862500Y-93912500D02*
X91337500Y-93912500D01*
G75*
G02*
X91575000Y-94150000I0J-237500D01*
G01*
X91575000Y-94650000D01*
G75*
G02*
X91337500Y-94887500I-237500J0D01*
G01*
X90862500Y-94887500D01*
G75*
G02*
X90625000Y-94650000I0J237500D01*
G01*
X90625000Y-94150000D01*
G75*
G02*
X90862500Y-93912500I237500J0D01*
G01*
G37*
G04 #@! TD.AperFunction*
G04 #@! TA.AperFunction,SMDPad,CuDef*
G36*
G01*
X94835000Y-90282500D02*
X94515000Y-90282500D01*
G75*
G02*
X94355000Y-90122500I0J160000D01*
G01*
X94355000Y-89677500D01*
G75*
G02*
X94515000Y-89517500I160000J0D01*
G01*
X94835000Y-89517500D01*
G75*
G02*
X94995000Y-89677500I0J-160000D01*
G01*
X94995000Y-90122500D01*
G75*
G02*
X94835000Y-90282500I-160000J0D01*
G01*
G37*
G04 #@! TD.AperFunction*
G04 #@! TA.AperFunction,SMDPad,CuDef*
G36*
G01*
X94835000Y-91427500D02*
X94515000Y-91427500D01*
G75*
G02*
X94355000Y-91267500I0J160000D01*
G01*
X94355000Y-90822500D01*
G75*
G02*
X94515000Y-90662500I160000J0D01*
G01*
X94835000Y-90662500D01*
G75*
G02*
X94995000Y-90822500I0J-160000D01*
G01*
X94995000Y-91267500D01*
G75*
G02*
X94835000Y-91427500I-160000J0D01*
G01*
G37*
G04 #@! TD.AperFunction*
G04 #@! TA.AperFunction,SMDPad,CuDef*
G36*
G01*
X98410000Y-91427500D02*
X98090000Y-91427500D01*
G75*
G02*
X97930000Y-91267500I0J160000D01*
G01*
X97930000Y-90822500D01*
G75*
G02*
X98090000Y-90662500I160000J0D01*
G01*
X98410000Y-90662500D01*
G75*
G02*
X98570000Y-90822500I0J-160000D01*
G01*
X98570000Y-91267500D01*
G75*
G02*
X98410000Y-91427500I-160000J0D01*
G01*
G37*
G04 #@! TD.AperFunction*
G04 #@! TA.AperFunction,SMDPad,CuDef*
G36*
G01*
X98410000Y-90282500D02*
X98090000Y-90282500D01*
G75*
G02*
X97930000Y-90122500I0J160000D01*
G01*
X97930000Y-89677500D01*
G75*
G02*
X98090000Y-89517500I160000J0D01*
G01*
X98410000Y-89517500D01*
G75*
G02*
X98570000Y-89677500I0J-160000D01*
G01*
X98570000Y-90122500D01*
G75*
G02*
X98410000Y-90282500I-160000J0D01*
G01*
G37*
G04 #@! TD.AperFunction*
G04 #@! TA.AperFunction,SMDPad,CuDef*
G36*
G01*
X91260000Y-91427500D02*
X90940000Y-91427500D01*
G75*
G02*
X90780000Y-91267500I0J160000D01*
G01*
X90780000Y-90822500D01*
G75*
G02*
X90940000Y-90662500I160000J0D01*
G01*
X91260000Y-90662500D01*
G75*
G02*
X91420000Y-90822500I0J-160000D01*
G01*
X91420000Y-91267500D01*
G75*
G02*
X91260000Y-91427500I-160000J0D01*
G01*
G37*
G04 #@! TD.AperFunction*
G04 #@! TA.AperFunction,SMDPad,CuDef*
G36*
G01*
X91260000Y-90282500D02*
X90940000Y-90282500D01*
G75*
G02*
X90780000Y-90122500I0J160000D01*
G01*
X90780000Y-89677500D01*
G75*
G02*
X90940000Y-89517500I160000J0D01*
G01*
X91260000Y-89517500D01*
G75*
G02*
X91420000Y-89677500I0J-160000D01*
G01*
X91420000Y-90122500D01*
G75*
G02*
X91260000Y-90282500I-160000J0D01*
G01*
G37*
G04 #@! TD.AperFunction*
G04 #@! TA.AperFunction,SMDPad,CuDef*
G36*
G01*
X97840000Y-114860000D02*
X97840000Y-114540000D01*
G75*
G02*
X98000000Y-114380000I160000J0D01*
G01*
X98395000Y-114380000D01*
G75*
G02*
X98555000Y-114540000I0J-160000D01*
G01*
X98555000Y-114860000D01*
G75*
G02*
X98395000Y-115020000I-160000J0D01*
G01*
X98000000Y-115020000D01*
G75*
G02*
X97840000Y-114860000I0J160000D01*
G01*
G37*
G04 #@! TD.AperFunction*
G04 #@! TA.AperFunction,SMDPad,CuDef*
G36*
G01*
X96645000Y-114860000D02*
X96645000Y-114540000D01*
G75*
G02*
X96805000Y-114380000I160000J0D01*
G01*
X97200000Y-114380000D01*
G75*
G02*
X97360000Y-114540000I0J-160000D01*
G01*
X97360000Y-114860000D01*
G75*
G02*
X97200000Y-115020000I-160000J0D01*
G01*
X96805000Y-115020000D01*
G75*
G02*
X96645000Y-114860000I0J160000D01*
G01*
G37*
G04 #@! TD.AperFunction*
D12*
X119320000Y-105460000D03*
X120320000Y-105460000D03*
G04 #@! TA.AperFunction,SMDPad,CuDef*
G36*
G01*
X120945000Y-104360000D02*
X120945000Y-104360000D01*
G75*
G02*
X120845000Y-104260000I0J100000D01*
G01*
X120845000Y-103860000D01*
G75*
G02*
X120945000Y-103760000I100000J0D01*
G01*
X120945000Y-103760000D01*
G75*
G02*
X121045000Y-103860000I0J-100000D01*
G01*
X121045000Y-104260000D01*
G75*
G02*
X120945000Y-104360000I-100000J0D01*
G01*
G37*
G04 #@! TD.AperFunction*
G04 #@! TA.AperFunction,SMDPad,CuDef*
G36*
G01*
X120495000Y-104360000D02*
X120495000Y-104360000D01*
G75*
G02*
X120395000Y-104260000I0J100000D01*
G01*
X120395000Y-103860000D01*
G75*
G02*
X120495000Y-103760000I100000J0D01*
G01*
X120495000Y-103760000D01*
G75*
G02*
X120595000Y-103860000I0J-100000D01*
G01*
X120595000Y-104260000D01*
G75*
G02*
X120495000Y-104360000I-100000J0D01*
G01*
G37*
G04 #@! TD.AperFunction*
G04 #@! TA.AperFunction,SMDPad,CuDef*
G36*
G01*
X120045000Y-104360000D02*
X120045000Y-104360000D01*
G75*
G02*
X119945000Y-104260000I0J100000D01*
G01*
X119945000Y-103860000D01*
G75*
G02*
X120045000Y-103760000I100000J0D01*
G01*
X120045000Y-103760000D01*
G75*
G02*
X120145000Y-103860000I0J-100000D01*
G01*
X120145000Y-104260000D01*
G75*
G02*
X120045000Y-104360000I-100000J0D01*
G01*
G37*
G04 #@! TD.AperFunction*
G04 #@! TA.AperFunction,SMDPad,CuDef*
G36*
G01*
X119595000Y-104360000D02*
X119595000Y-104360000D01*
G75*
G02*
X119495000Y-104260000I0J100000D01*
G01*
X119495000Y-103860000D01*
G75*
G02*
X119595000Y-103760000I100000J0D01*
G01*
X119595000Y-103760000D01*
G75*
G02*
X119695000Y-103860000I0J-100000D01*
G01*
X119695000Y-104260000D01*
G75*
G02*
X119595000Y-104360000I-100000J0D01*
G01*
G37*
G04 #@! TD.AperFunction*
G04 #@! TA.AperFunction,SMDPad,CuDef*
G36*
G01*
X119145000Y-104360000D02*
X119145000Y-104360000D01*
G75*
G02*
X119045000Y-104260000I0J100000D01*
G01*
X119045000Y-103860000D01*
G75*
G02*
X119145000Y-103760000I100000J0D01*
G01*
X119145000Y-103760000D01*
G75*
G02*
X119245000Y-103860000I0J-100000D01*
G01*
X119245000Y-104260000D01*
G75*
G02*
X119145000Y-104360000I-100000J0D01*
G01*
G37*
G04 #@! TD.AperFunction*
G04 #@! TA.AperFunction,SMDPad,CuDef*
G36*
G01*
X118695000Y-104360000D02*
X118695000Y-104360000D01*
G75*
G02*
X118595000Y-104260000I0J100000D01*
G01*
X118595000Y-103860000D01*
G75*
G02*
X118695000Y-103760000I100000J0D01*
G01*
X118695000Y-103760000D01*
G75*
G02*
X118795000Y-103860000I0J-100000D01*
G01*
X118795000Y-104260000D01*
G75*
G02*
X118695000Y-104360000I-100000J0D01*
G01*
G37*
G04 #@! TD.AperFunction*
G04 #@! TA.AperFunction,SMDPad,CuDef*
G36*
G01*
X118695000Y-107160000D02*
X118695000Y-107160000D01*
G75*
G02*
X118595000Y-107060000I0J100000D01*
G01*
X118595000Y-106660000D01*
G75*
G02*
X118695000Y-106560000I100000J0D01*
G01*
X118695000Y-106560000D01*
G75*
G02*
X118795000Y-106660000I0J-100000D01*
G01*
X118795000Y-107060000D01*
G75*
G02*
X118695000Y-107160000I-100000J0D01*
G01*
G37*
G04 #@! TD.AperFunction*
G04 #@! TA.AperFunction,SMDPad,CuDef*
G36*
G01*
X119145000Y-107160000D02*
X119145000Y-107160000D01*
G75*
G02*
X119045000Y-107060000I0J100000D01*
G01*
X119045000Y-106660000D01*
G75*
G02*
X119145000Y-106560000I100000J0D01*
G01*
X119145000Y-106560000D01*
G75*
G02*
X119245000Y-106660000I0J-100000D01*
G01*
X119245000Y-107060000D01*
G75*
G02*
X119145000Y-107160000I-100000J0D01*
G01*
G37*
G04 #@! TD.AperFunction*
G04 #@! TA.AperFunction,SMDPad,CuDef*
G36*
G01*
X119595000Y-107160000D02*
X119595000Y-107160000D01*
G75*
G02*
X119495000Y-107060000I0J100000D01*
G01*
X119495000Y-106660000D01*
G75*
G02*
X119595000Y-106560000I100000J0D01*
G01*
X119595000Y-106560000D01*
G75*
G02*
X119695000Y-106660000I0J-100000D01*
G01*
X119695000Y-107060000D01*
G75*
G02*
X119595000Y-107160000I-100000J0D01*
G01*
G37*
G04 #@! TD.AperFunction*
G04 #@! TA.AperFunction,SMDPad,CuDef*
G36*
G01*
X120045000Y-107160000D02*
X120045000Y-107160000D01*
G75*
G02*
X119945000Y-107060000I0J100000D01*
G01*
X119945000Y-106660000D01*
G75*
G02*
X120045000Y-106560000I100000J0D01*
G01*
X120045000Y-106560000D01*
G75*
G02*
X120145000Y-106660000I0J-100000D01*
G01*
X120145000Y-107060000D01*
G75*
G02*
X120045000Y-107160000I-100000J0D01*
G01*
G37*
G04 #@! TD.AperFunction*
G04 #@! TA.AperFunction,SMDPad,CuDef*
G36*
G01*
X120495000Y-107160000D02*
X120495000Y-107160000D01*
G75*
G02*
X120395000Y-107060000I0J100000D01*
G01*
X120395000Y-106660000D01*
G75*
G02*
X120495000Y-106560000I100000J0D01*
G01*
X120495000Y-106560000D01*
G75*
G02*
X120595000Y-106660000I0J-100000D01*
G01*
X120595000Y-107060000D01*
G75*
G02*
X120495000Y-107160000I-100000J0D01*
G01*
G37*
G04 #@! TD.AperFunction*
D13*
X119820000Y-105460000D03*
G04 #@! TA.AperFunction,SMDPad,CuDef*
G36*
G01*
X120945000Y-107160000D02*
X120945000Y-107160000D01*
G75*
G02*
X120845000Y-107060000I0J100000D01*
G01*
X120845000Y-106660000D01*
G75*
G02*
X120945000Y-106560000I100000J0D01*
G01*
X120945000Y-106560000D01*
G75*
G02*
X121045000Y-106660000I0J-100000D01*
G01*
X121045000Y-107060000D01*
G75*
G02*
X120945000Y-107160000I-100000J0D01*
G01*
G37*
G04 #@! TD.AperFunction*
D14*
X101900000Y-111180000D03*
X101900000Y-110180000D03*
X101900000Y-109180000D03*
X101900000Y-108180000D03*
X101900000Y-107180000D03*
X101900000Y-106180000D03*
X101900000Y-105180000D03*
X101900000Y-104180000D03*
X101900000Y-103180000D03*
X101900000Y-102180000D03*
D15*
X80400000Y-113180000D03*
X81400000Y-113180000D03*
X82400000Y-113180000D03*
X83400000Y-113180000D03*
X84400000Y-113180000D03*
X85400000Y-113180000D03*
X86400000Y-113180000D03*
X87400000Y-113180000D03*
X88400000Y-113180000D03*
X89400000Y-113180000D03*
X90400000Y-113180000D03*
X91400000Y-113180000D03*
X92400000Y-113180000D03*
X93400000Y-113180000D03*
X94400000Y-113180000D03*
X95400000Y-113180000D03*
X96400000Y-113180000D03*
X97400000Y-113180000D03*
X98400000Y-113180000D03*
X99400000Y-113180000D03*
X100400000Y-113180000D03*
X100400000Y-100180000D03*
X99400000Y-100180000D03*
X98400000Y-100180000D03*
X97400000Y-100180000D03*
X96400000Y-100180000D03*
X95400000Y-100180000D03*
X94400000Y-100180000D03*
X93400000Y-100180000D03*
X92400000Y-100180000D03*
X91400000Y-100180000D03*
X90400000Y-100180000D03*
X89400000Y-100180000D03*
X88400000Y-100180000D03*
X87400000Y-100180000D03*
X86400000Y-100180000D03*
X85400000Y-100180000D03*
X84400000Y-100180000D03*
X83400000Y-100180000D03*
X82400000Y-100180000D03*
X81400000Y-100180000D03*
X80400000Y-100180000D03*
D16*
X82600000Y-106600000D03*
X81900000Y-108100000D03*
X82750000Y-109500000D03*
X84400000Y-109400000D03*
X85400000Y-110800000D03*
X83500000Y-108000000D03*
D17*
X107916726Y-111333274D03*
X106750000Y-110850000D03*
X105583274Y-111333274D03*
X105100000Y-112500000D03*
X105583274Y-113666726D03*
X106750000Y-114150000D03*
X107916726Y-113666726D03*
X108400000Y-112500000D03*
D18*
X106750000Y-112500000D03*
D17*
X117166726Y-94083274D03*
X116000000Y-93600000D03*
X114833274Y-94083274D03*
X114350000Y-95250000D03*
X114833274Y-96416726D03*
X116000000Y-96900000D03*
X117166726Y-96416726D03*
X117650000Y-95250000D03*
D18*
X116000000Y-95250000D03*
D19*
X102508000Y-99738000D03*
D20*
X102508000Y-100288000D03*
X102508000Y-99188000D03*
G04 #@! TA.AperFunction,SMDPad,CuDef*
G36*
G01*
X121570000Y-103215000D02*
X121570000Y-102905000D01*
G75*
G02*
X121725000Y-102750000I155000J0D01*
G01*
X122150000Y-102750000D01*
G75*
G02*
X122305000Y-102905000I0J-155000D01*
G01*
X122305000Y-103215000D01*
G75*
G02*
X122150000Y-103370000I-155000J0D01*
G01*
X121725000Y-103370000D01*
G75*
G02*
X121570000Y-103215000I0J155000D01*
G01*
G37*
G04 #@! TD.AperFunction*
G04 #@! TA.AperFunction,SMDPad,CuDef*
G36*
G01*
X120435000Y-103215000D02*
X120435000Y-102905000D01*
G75*
G02*
X120590000Y-102750000I155000J0D01*
G01*
X121015000Y-102750000D01*
G75*
G02*
X121170000Y-102905000I0J-155000D01*
G01*
X121170000Y-103215000D01*
G75*
G02*
X121015000Y-103370000I-155000J0D01*
G01*
X120590000Y-103370000D01*
G75*
G02*
X120435000Y-103215000I0J155000D01*
G01*
G37*
G04 #@! TD.AperFunction*
D21*
X105700000Y-94162500D03*
X106700000Y-94162500D03*
X107700000Y-94162500D03*
X104700000Y-94162500D03*
D22*
X108950000Y-94162500D03*
X103450000Y-94162500D03*
D23*
X110520000Y-93800000D03*
X101880000Y-93800000D03*
X101880000Y-90000000D03*
X110520000Y-90000000D03*
D24*
X90750000Y-98000000D03*
X91300000Y-103400000D03*
X93600000Y-111000000D03*
D25*
X95982990Y-111817010D03*
D24*
X93600000Y-110000000D03*
X92800000Y-103400000D03*
X99500000Y-95300000D03*
D25*
X83720000Y-105350000D03*
X84100000Y-103330000D03*
X84630000Y-103760000D03*
X85930000Y-107470000D03*
X84820000Y-106290000D03*
X84270000Y-105590000D03*
X93960000Y-103190000D03*
X91770000Y-104290000D03*
X90510000Y-104220000D03*
X100140000Y-114470000D03*
D24*
X103100000Y-90000000D03*
X109300000Y-90000000D03*
D25*
X104286000Y-100500000D03*
X104286000Y-101008000D03*
D24*
X117600000Y-103500000D03*
X104000000Y-110500000D03*
X80900000Y-111500000D03*
X81900000Y-111500000D03*
X101400000Y-113200000D03*
X81300000Y-102000000D03*
D25*
X96600000Y-115000000D03*
X96600000Y-114500000D03*
X93700000Y-114500000D03*
X93700000Y-115000000D03*
D24*
X88900000Y-96100000D03*
X87000000Y-96100000D03*
X109600000Y-100000000D03*
X94980000Y-107680000D03*
X110000000Y-111000000D03*
X97250000Y-104750000D03*
X99250000Y-106500000D03*
X97250000Y-106500000D03*
X83500000Y-110500000D03*
X122600000Y-107250000D03*
D25*
X120495000Y-106135000D03*
X119595000Y-106155000D03*
D24*
X121250000Y-98000000D03*
D25*
X98000000Y-102250000D03*
X98500000Y-102250000D03*
X99000000Y-102250000D03*
X99500000Y-102250000D03*
X100000000Y-102250000D03*
X96500000Y-102250000D03*
X97000000Y-102250000D03*
D24*
X94750000Y-103500000D03*
X99250000Y-104750000D03*
D25*
X96249500Y-111000500D03*
X97127750Y-110622250D03*
X96517250Y-110267250D03*
X101400000Y-100900000D03*
D24*
X101600000Y-98000000D03*
D25*
X99600000Y-109170000D03*
D24*
X110700000Y-102400000D03*
X110500000Y-109800000D03*
X91500000Y-107700000D03*
X91500000Y-108600000D03*
D25*
X112380000Y-99080000D03*
X118700000Y-109300000D03*
X112500000Y-99700000D03*
D24*
X117940000Y-109180000D03*
D25*
X122680000Y-102930000D03*
D24*
X122750000Y-105700000D03*
D25*
X119475000Y-104775000D03*
D24*
X115720000Y-105600000D03*
X117400000Y-105650000D03*
X118240000Y-110600000D03*
X113730000Y-109150000D03*
X104790000Y-108980000D03*
X103280000Y-113250000D03*
X117750000Y-112750000D03*
X119353333Y-112990000D03*
X119330000Y-114370000D03*
X121286666Y-112990000D03*
X121280000Y-114370000D03*
X123220000Y-112990000D03*
X123230000Y-114370000D03*
X121100000Y-100300000D03*
X122770000Y-96230000D03*
X120810000Y-96230000D03*
X119070000Y-93730000D03*
X120660000Y-92750000D03*
X122710000Y-92760000D03*
X110000000Y-92200000D03*
X107450000Y-92300000D03*
X104900000Y-92300000D03*
X89760000Y-108260000D03*
X88810000Y-109560000D03*
X90460000Y-110140000D03*
X87640000Y-102190000D03*
X81260000Y-92760000D03*
X82760000Y-92760000D03*
X84260000Y-92760000D03*
X81260000Y-94260000D03*
X82760000Y-94260000D03*
X84260000Y-94260000D03*
X81260000Y-95760000D03*
X82760000Y-95760000D03*
X84260000Y-95760000D03*
X85320000Y-90750000D03*
X91080000Y-96940000D03*
X92920000Y-91540000D03*
D25*
X112260000Y-101100000D03*
D24*
X103360000Y-103440000D03*
X121960000Y-106370000D03*
D25*
X98880000Y-101520000D03*
X99520000Y-101570000D03*
X102860000Y-102410000D03*
X101740000Y-101540000D03*
D24*
X106800000Y-99330000D03*
X105240000Y-98010000D03*
X81680000Y-105000000D03*
D25*
X100760000Y-114460000D03*
X108260000Y-101500000D03*
X106340000Y-101130000D03*
D24*
X98200000Y-97300000D03*
X93500000Y-97200000D03*
X93500000Y-94500000D03*
X94600000Y-95600000D03*
D25*
X97300000Y-95100000D03*
X97400000Y-95700000D03*
D24*
X97900000Y-98300000D03*
X100800000Y-95300000D03*
X103400000Y-95500000D03*
X102000000Y-95300000D03*
X110600000Y-95300000D03*
X109000000Y-95500000D03*
D25*
X118800000Y-90450000D03*
X112550000Y-90550000D03*
D24*
X105700000Y-99100000D03*
X106435000Y-98365000D03*
X119740000Y-108810000D03*
X119730000Y-109860000D03*
X114500000Y-98900000D03*
X113500000Y-98900000D03*
X87000000Y-94000000D03*
X99200000Y-114600000D03*
X88270999Y-94000000D03*
X87000000Y-91000000D03*
X107700000Y-93400000D03*
X104700000Y-93400000D03*
X88250000Y-90000000D03*
X80800000Y-104400000D03*
D25*
X93900000Y-104100000D03*
X112850000Y-89650000D03*
X106900000Y-100313186D03*
X119150000Y-89600000D03*
X107600000Y-100900000D03*
D24*
X83400000Y-104300000D03*
X85400000Y-105400000D03*
X86400000Y-106200000D03*
D26*
X96400000Y-113767500D02*
X95367500Y-114800000D01*
X96400000Y-113180000D02*
X96400000Y-113867500D01*
D27*
X90750000Y-98000000D02*
X88597500Y-98000000D01*
X92800000Y-103400000D02*
X91300000Y-103400000D01*
X92800000Y-109200000D02*
X93600000Y-110000000D01*
X92800000Y-103400000D02*
X92800000Y-109200000D01*
X93600000Y-110000000D02*
X93600000Y-111000000D01*
X96400000Y-112234020D02*
X95982990Y-111817010D01*
X96400000Y-113180000D02*
X96400000Y-112234020D01*
X94417010Y-111817010D02*
X93600000Y-111000000D01*
X95982990Y-111817010D02*
X94417010Y-111817010D01*
X110811103Y-91350999D02*
X102686899Y-91350999D01*
X102686899Y-91350999D02*
X99500000Y-94537898D01*
X99500000Y-94537898D02*
X99500000Y-95300000D01*
X116338202Y-89650000D02*
X115900000Y-89650000D01*
X116749001Y-90060799D02*
X116338202Y-89650000D01*
X116749001Y-91429201D02*
X116749001Y-90060799D01*
X116659201Y-91519001D02*
X116749001Y-91429201D01*
X110811103Y-91350999D02*
X110979105Y-91519001D01*
X123149001Y-90010799D02*
X122738202Y-89600000D01*
X122738202Y-89600000D02*
X122300000Y-89600000D01*
X123009201Y-91519001D02*
X123149001Y-91379201D01*
X116080999Y-91519001D02*
X123009201Y-91519001D01*
X123149001Y-91379201D02*
X123149001Y-90010799D01*
X110979105Y-91519001D02*
X116080999Y-91519001D01*
X116080999Y-91519001D02*
X116659201Y-91519001D01*
D26*
X82400000Y-113865002D02*
X82400000Y-113180000D01*
D27*
X117539000Y-103439000D02*
X117600000Y-103500000D01*
X117539000Y-102843000D02*
X117539000Y-103439000D01*
X81900000Y-111600000D02*
X82000000Y-111600000D01*
X82400000Y-112100000D02*
X81900000Y-111600000D01*
X82400000Y-113180000D02*
X82400000Y-112100000D01*
X100400000Y-113180000D02*
X100920000Y-113180000D01*
X100920000Y-113180000D02*
X101300000Y-112800000D01*
X101300000Y-112800000D02*
X101800000Y-112800000D01*
X101800000Y-112800000D02*
X101800000Y-113700000D01*
X101800000Y-113700000D02*
X101500000Y-114000000D01*
X101500000Y-114000000D02*
X101100000Y-113600000D01*
X101100000Y-113600000D02*
X101100000Y-113500000D01*
X101100000Y-113500000D02*
X101400000Y-113200000D01*
X101400000Y-113200000D02*
X101400000Y-113400000D01*
X101400000Y-113200000D02*
X101400000Y-113200000D01*
X80400000Y-101100000D02*
X81300000Y-102000000D01*
X80400000Y-100180000D02*
X80400000Y-101100000D01*
D26*
X96800000Y-114700000D02*
X96600000Y-114500000D01*
X97002500Y-114700000D02*
X96800000Y-114700000D01*
X96900000Y-114700000D02*
X96600000Y-115000000D01*
X97002500Y-114700000D02*
X96900000Y-114700000D01*
X96600000Y-115000000D02*
X96600000Y-114500000D01*
X93900000Y-114800000D02*
X93700000Y-115000000D01*
X94232500Y-114800000D02*
X93900000Y-114800000D01*
X93700000Y-115000000D02*
X93700000Y-114500000D01*
X94000000Y-114800000D02*
X93700000Y-114500000D01*
X94232500Y-114800000D02*
X94000000Y-114800000D01*
X119595000Y-105685000D02*
X119820000Y-105460000D01*
X119595000Y-106860000D02*
X119595000Y-106155000D01*
X120495000Y-106135000D02*
X119820000Y-105460000D01*
X120495000Y-106860000D02*
X120495000Y-106135000D01*
D27*
X82750000Y-109250000D02*
X82750000Y-109750000D01*
X83500000Y-110250000D02*
X82750000Y-109500000D01*
X83500000Y-110500000D02*
X83500000Y-110250000D01*
D26*
X106728000Y-114239000D02*
X106078000Y-114239000D01*
X106803001Y-112579999D02*
X106803001Y-114163999D01*
X106803001Y-114163999D02*
X106728000Y-114239000D01*
X120495000Y-106135000D02*
X120495000Y-106135000D01*
X119595000Y-106155000D02*
X119595000Y-105685000D01*
X119145000Y-106135000D02*
X119820000Y-105460000D01*
X119145000Y-106860000D02*
X119145000Y-106135000D01*
X118695000Y-106860000D02*
X118695000Y-106305000D01*
X119540000Y-105460000D02*
X119820000Y-105460000D01*
X118695000Y-106305000D02*
X119540000Y-105460000D01*
D27*
X117940000Y-108582500D02*
X118622500Y-107900000D01*
X117940000Y-109180000D02*
X117940000Y-108582500D01*
X122578020Y-103060000D02*
X122680000Y-102958020D01*
X121937500Y-103060000D02*
X122578020Y-103060000D01*
D26*
X119143980Y-104443980D02*
X119143980Y-104060000D01*
X119475000Y-104775000D02*
X119143980Y-104443980D01*
X119820000Y-105120000D02*
X119475000Y-104775000D01*
X119820000Y-105460000D02*
X119820000Y-105120000D01*
D27*
X80400000Y-112000000D02*
X80900000Y-111500000D01*
X80400000Y-113180000D02*
X80400000Y-112000000D01*
X102630000Y-102180000D02*
X102860000Y-102410000D01*
X101900000Y-102180000D02*
X102630000Y-102180000D01*
X108950000Y-95450000D02*
X109000000Y-95500000D01*
X108950000Y-94162500D02*
X108950000Y-95450000D01*
X103450000Y-95450000D02*
X103400000Y-95500000D01*
X103450000Y-94162500D02*
X103450000Y-95450000D01*
X121760000Y-100960000D02*
X121100000Y-100300000D01*
X122032500Y-100960000D02*
X121760000Y-100960000D01*
X122347500Y-105297500D02*
X122750000Y-105700000D01*
X122200000Y-105297500D02*
X122347500Y-105297500D01*
X122784542Y-99410990D02*
X123194010Y-99820458D01*
X121404468Y-99410990D02*
X122784542Y-99410990D01*
X120044477Y-98050999D02*
X121404468Y-99410990D01*
X105700000Y-99100000D02*
X106435000Y-98365000D01*
D26*
X120495000Y-103367500D02*
X120802500Y-103060000D01*
X120495000Y-104060000D02*
X120495000Y-103367500D01*
X123034010Y-102384010D02*
X123194010Y-102224010D01*
X121478490Y-102384010D02*
X123034010Y-102384010D01*
X120802500Y-103060000D02*
X121478490Y-102384010D01*
D27*
X123194010Y-99820458D02*
X123194010Y-102224010D01*
X123549001Y-108928999D02*
X123539000Y-108939000D01*
D26*
X118694970Y-104060030D02*
X118694970Y-104060000D01*
X118530999Y-104224001D02*
X118694970Y-104060030D01*
X116248479Y-104224001D02*
X118530999Y-104224001D01*
X111810999Y-98050999D02*
X111810999Y-99786521D01*
X111810999Y-99786521D02*
X116248479Y-104224001D01*
D27*
X106749001Y-98050999D02*
X111810999Y-98050999D01*
X111810999Y-98050999D02*
X120044477Y-98050999D01*
X123549001Y-109165999D02*
X121790000Y-110925000D01*
X123549001Y-108928999D02*
X123549001Y-109165999D01*
X122510000Y-104162500D02*
X122200000Y-104162500D01*
X123379008Y-103293492D02*
X122510000Y-104162500D01*
X123379008Y-102668480D02*
X123379008Y-103293492D01*
X123194010Y-102483482D02*
X123379008Y-102668480D01*
X123194010Y-102224010D02*
X123194010Y-102483482D01*
X123859001Y-104902479D02*
X123119022Y-104162500D01*
X123859001Y-105717521D02*
X123859001Y-104902479D01*
X123119022Y-104162500D02*
X122510000Y-104162500D01*
X123549001Y-106027521D02*
X123859001Y-105717521D01*
X123549001Y-108928999D02*
X123549001Y-106027521D01*
X106435000Y-98365000D02*
X106749001Y-98050999D01*
D26*
X122097500Y-104060000D02*
X122200000Y-104162500D01*
X120945000Y-104060000D02*
X122097500Y-104060000D01*
X120045000Y-107612500D02*
X119757500Y-107900000D01*
X120045000Y-106860000D02*
X120045000Y-107612500D01*
D27*
X119757500Y-108792500D02*
X119740000Y-108810000D01*
X119757500Y-107900000D02*
X119757500Y-108792500D01*
X119740000Y-109850000D02*
X119730000Y-109860000D01*
X119740000Y-108810000D02*
X119740000Y-109850000D01*
X118674000Y-102843000D02*
X118674000Y-102826000D01*
D26*
X119592990Y-103394490D02*
X119592990Y-104060000D01*
D27*
X115041000Y-98900000D02*
X113500000Y-98900000D01*
X118674000Y-102533000D02*
X115041000Y-98900000D01*
X118674000Y-102843000D02*
X118674000Y-102533000D01*
D26*
X119041500Y-102843000D02*
X118674000Y-102843000D01*
X119592990Y-103394490D02*
X119041500Y-102843000D01*
D27*
X89575000Y-92400000D02*
X89575000Y-90800000D01*
X90475000Y-89900000D02*
X91100000Y-89900000D01*
X89575000Y-90800000D02*
X90475000Y-89900000D01*
X91100000Y-89900000D02*
X98250000Y-89900000D01*
X99400000Y-114200000D02*
X99400000Y-113180000D01*
X87825000Y-92625000D02*
X88270999Y-93070999D01*
X87825000Y-92400000D02*
X87825000Y-92625000D01*
X87170999Y-93070999D02*
X87100000Y-93000000D01*
X88270999Y-93070999D02*
X87170999Y-93070999D01*
X87225000Y-93000000D02*
X87825000Y-92400000D01*
X87100000Y-93000000D02*
X87225000Y-93000000D01*
X99400000Y-114400000D02*
X99200000Y-114600000D01*
X99400000Y-113180000D02*
X99400000Y-114400000D01*
X87000000Y-93225000D02*
X87825000Y-92400000D01*
X87000000Y-94000000D02*
X87000000Y-93225000D01*
X88270999Y-92845999D02*
X87825000Y-92400000D01*
X88270999Y-94000000D02*
X88270999Y-92845999D01*
X87000000Y-94000000D02*
X87500000Y-93500000D01*
X87500000Y-93500000D02*
X88000000Y-93500000D01*
X88270999Y-94000000D02*
X87520999Y-93250000D01*
X87520999Y-93250000D02*
X87250000Y-93250000D01*
D26*
X99624001Y-115024001D02*
X99200000Y-114600000D01*
X107961521Y-115024001D02*
X99624001Y-115024001D01*
X108135522Y-114850000D02*
X107961521Y-115024001D01*
X110800000Y-114850000D02*
X108135522Y-114850000D01*
D27*
X87825000Y-90775000D02*
X88500000Y-90100000D01*
X87825000Y-90800000D02*
X87825000Y-90775000D01*
X87300000Y-90100000D02*
X88500000Y-90100000D01*
X87825000Y-90625000D02*
X87300000Y-90100000D01*
X87825000Y-90800000D02*
X87825000Y-90625000D01*
X87000000Y-90400000D02*
X87300000Y-90100000D01*
X87000000Y-91000000D02*
X87000000Y-90400000D01*
X87825000Y-90800000D02*
X87550000Y-90800000D01*
X87550000Y-90800000D02*
X87250000Y-90500000D01*
X93400000Y-112269998D02*
X93400000Y-113180000D01*
X93060001Y-111929999D02*
X93400000Y-112269998D01*
X83619962Y-111929999D02*
X93060001Y-111929999D01*
X82189953Y-110499990D02*
X83619962Y-111929999D01*
X81454988Y-110499990D02*
X82189953Y-110499990D01*
X80800000Y-109845002D02*
X81454988Y-110499990D01*
X81900000Y-108100000D02*
X80900000Y-108100000D01*
X80900000Y-108100000D02*
X80800000Y-108000000D01*
X80800000Y-108000000D02*
X80800000Y-104400000D01*
X80800000Y-109845002D02*
X80800000Y-108000000D01*
X107700000Y-94162500D02*
X107700000Y-93400000D01*
X104700000Y-94162500D02*
X104700000Y-93400000D01*
D26*
X91100000Y-92575000D02*
X91100000Y-91045000D01*
X94675000Y-92575000D02*
X94675000Y-91045000D01*
X98250000Y-92575000D02*
X98250000Y-91045000D01*
X90758570Y-102205020D02*
X88900000Y-104063590D01*
X88900000Y-104063590D02*
X88900000Y-105100000D01*
X93424981Y-102205019D02*
X90758570Y-102205020D01*
X94400000Y-100180000D02*
X94400000Y-101230000D01*
X94400000Y-101230000D02*
X93424981Y-102205019D01*
X88900000Y-105100000D02*
X88900000Y-104426998D01*
X88900000Y-106041514D02*
X88900000Y-105100000D01*
X88900000Y-105100000D02*
X88900000Y-106300000D01*
X86000000Y-109250000D02*
X88925000Y-106325000D01*
X85850000Y-109400000D02*
X86000000Y-109250000D01*
X84400000Y-109400000D02*
X85850000Y-109400000D01*
X92324999Y-101305001D02*
X92400000Y-101230000D01*
X92400000Y-101230000D02*
X92400000Y-100180000D01*
X87250000Y-104440770D02*
X87250000Y-105250000D01*
X90385768Y-101305002D02*
X87250000Y-104440770D01*
X90794999Y-101305001D02*
X90385768Y-101305002D01*
X87250000Y-105250000D02*
X87250000Y-104676998D01*
X90621997Y-101305001D02*
X90794999Y-101305001D01*
X90794999Y-101305001D02*
X92324999Y-101305001D01*
X82924001Y-106924001D02*
X82750000Y-106750000D01*
X87250000Y-106421522D02*
X86747521Y-106924001D01*
X87250000Y-105250000D02*
X87250000Y-106421522D01*
X82924001Y-106924001D02*
X82600000Y-106600000D01*
X86747521Y-106924001D02*
X82924001Y-106924001D01*
X93400000Y-100866410D02*
X93400000Y-100180000D01*
X92511400Y-101755010D02*
X93400000Y-100866410D01*
X88100000Y-104227180D02*
X88100000Y-105100000D01*
X90572169Y-101755011D02*
X88100000Y-104227180D01*
X88100000Y-105100000D02*
X88100000Y-104463408D01*
X90808397Y-101755011D02*
X91155011Y-101755011D01*
X91155011Y-101755011D02*
X90572169Y-101755011D01*
X91155011Y-101755011D02*
X92511400Y-101755010D01*
X88100000Y-106206518D02*
X88100000Y-105100000D01*
X86306518Y-108000000D02*
X88100000Y-106206518D01*
X86306518Y-108000000D02*
X83500000Y-108000000D01*
X93611382Y-102655028D02*
X95400000Y-100866410D01*
X95400000Y-100866410D02*
X95400000Y-100180000D01*
X90944971Y-102655029D02*
X93611382Y-102655028D01*
X89600000Y-104000000D02*
X90944971Y-102655029D01*
X89600000Y-106607106D02*
X89600000Y-104000000D01*
X89592894Y-106607106D02*
X89600000Y-106607106D01*
X85400000Y-110800000D02*
X89592894Y-106607106D01*
X120945000Y-107755000D02*
X121790000Y-108600000D01*
X120945000Y-106860000D02*
X120945000Y-107755000D01*
X120045990Y-101698490D02*
X119927500Y-101580000D01*
X120070989Y-101323489D02*
X119707500Y-100960000D01*
X120045000Y-101297500D02*
X119707500Y-100960000D01*
X120045000Y-104060000D02*
X120045000Y-101297500D01*
X91170000Y-94400000D02*
X91100000Y-94400000D01*
X91771522Y-94400000D02*
X91100000Y-94400000D01*
X96400000Y-99028478D02*
X91771522Y-94400000D01*
X96400000Y-100180000D02*
X96400000Y-99028478D01*
X95324001Y-97054001D02*
X95324001Y-95049001D01*
X97400000Y-99130000D02*
X95324001Y-97054001D01*
X95324001Y-95049001D02*
X94675000Y-94400000D01*
X97400000Y-100180000D02*
X97400000Y-99130000D01*
X98250000Y-95121522D02*
X98250000Y-94400000D01*
X98924001Y-95795523D02*
X98250000Y-95121522D01*
X98924001Y-98605999D02*
X98924001Y-95795523D01*
X98400000Y-99130000D02*
X98924001Y-98605999D01*
X98400000Y-100180000D02*
X98400000Y-99130000D01*
X87400000Y-98002500D02*
X87402500Y-98000000D01*
X87400000Y-100180000D02*
X87400000Y-98002500D01*
X98400000Y-114497500D02*
X98197500Y-114700000D01*
X98400000Y-113180000D02*
X98400000Y-114597500D01*
X105600000Y-109975999D02*
X107904477Y-109975999D01*
X103771998Y-111804001D02*
X105600000Y-109975999D01*
X99092797Y-111804001D02*
X103771998Y-111804001D01*
X98400000Y-112496798D02*
X99092797Y-111804001D01*
X98400000Y-113180000D02*
X98400000Y-112496798D01*
X113850000Y-114850000D02*
X113200000Y-114850000D01*
X113924001Y-114775999D02*
X113850000Y-114850000D01*
X113924001Y-113170799D02*
X113924001Y-114775999D01*
X113859201Y-113105999D02*
X113924001Y-113170799D01*
X111034477Y-113105999D02*
X113859201Y-113105999D01*
X107904477Y-109975999D02*
X111034477Y-113105999D01*
X97651751Y-112928249D02*
X97400000Y-113180000D01*
X97651751Y-110370729D02*
X97651751Y-112928249D01*
X97024271Y-109743249D02*
X97651751Y-110370729D01*
X95574771Y-109743249D02*
X97024271Y-109743249D01*
X93900000Y-108068478D02*
X95574771Y-109743249D01*
X93900000Y-104100000D02*
X93900000Y-108068478D01*
X102950000Y-107180000D02*
X106900000Y-103230000D01*
X101900000Y-107180000D02*
X102950000Y-107180000D01*
X106900000Y-103230000D02*
X106900000Y-100313186D01*
X113500000Y-89650000D02*
X112850000Y-89650000D01*
X101900000Y-108180000D02*
X102950000Y-108180000D01*
X107600000Y-103530000D02*
X107600000Y-100900000D01*
X102950000Y-108180000D02*
X107600000Y-103530000D01*
X119150000Y-89600000D02*
X119900000Y-89600000D01*
X83400000Y-104300000D02*
X83400000Y-100180000D01*
X85400000Y-100180000D02*
X85400000Y-105400000D01*
X85400000Y-105400000D02*
X85400000Y-105400000D01*
X86400000Y-106200000D02*
X86400000Y-100180000D01*
M02*
