G04 #@! TF.GenerationSoftware,KiCad,Pcbnew,(5.1.9)-1*
G04 #@! TF.CreationDate,2021-03-14T10:57:35-07:00*
G04 #@! TF.ProjectId,rgba,72676261-2e6b-4696-9361-645f70636258,1*
G04 #@! TF.SameCoordinates,Original*
G04 #@! TF.FileFunction,Copper,L1,Top*
G04 #@! TF.FilePolarity,Positive*
%FSLAX46Y46*%
G04 Gerber Fmt 4.6, Leading zero omitted, Abs format (unit mm)*
G04 Created by KiCad (PCBNEW (5.1.9)-1) date 2021-03-14 10:57:35*
%MOMM*%
%LPD*%
G01*
G04 APERTURE LIST*
G04 #@! TA.AperFunction,SMDPad,CuDef*
%ADD10R,3.450000X3.450000*%
G04 #@! TD*
G04 #@! TA.AperFunction,SMDPad,CuDef*
%ADD11R,2.000000X1.000000*%
G04 #@! TD*
G04 #@! TA.AperFunction,ComponentPad*
%ADD12C,0.400000*%
G04 #@! TD*
G04 #@! TA.AperFunction,ComponentPad*
%ADD13C,1.000000*%
G04 #@! TD*
G04 #@! TA.AperFunction,ComponentPad*
%ADD14C,0.700000*%
G04 #@! TD*
G04 #@! TA.AperFunction,ComponentPad*
%ADD15C,4.400000*%
G04 #@! TD*
G04 #@! TA.AperFunction,ComponentPad*
%ADD16C,0.500000*%
G04 #@! TD*
G04 #@! TA.AperFunction,SMDPad,CuDef*
%ADD17R,1.000000X1.600000*%
G04 #@! TD*
G04 #@! TA.AperFunction,SMDPad,CuDef*
%ADD18R,0.450000X1.450000*%
G04 #@! TD*
G04 #@! TA.AperFunction,ComponentPad*
%ADD19O,1.000000X1.600000*%
G04 #@! TD*
G04 #@! TA.AperFunction,ViaPad*
%ADD20C,0.800000*%
G04 #@! TD*
G04 #@! TA.AperFunction,ViaPad*
%ADD21C,0.400000*%
G04 #@! TD*
G04 #@! TA.AperFunction,Conductor*
%ADD22C,0.250000*%
G04 #@! TD*
G04 #@! TA.AperFunction,Conductor*
%ADD23C,0.500000*%
G04 #@! TD*
G04 APERTURE END LIST*
G04 #@! TA.AperFunction,SMDPad,CuDef*
G36*
G01*
X96580500Y-108482000D02*
X96455500Y-108482000D01*
G75*
G02*
X96393000Y-108419500I0J62500D01*
G01*
X96393000Y-107669500D01*
G75*
G02*
X96455500Y-107607000I62500J0D01*
G01*
X96580500Y-107607000D01*
G75*
G02*
X96643000Y-107669500I0J-62500D01*
G01*
X96643000Y-108419500D01*
G75*
G02*
X96580500Y-108482000I-62500J0D01*
G01*
G37*
G04 #@! TD.AperFunction*
G04 #@! TA.AperFunction,SMDPad,CuDef*
G36*
G01*
X97080500Y-108482000D02*
X96955500Y-108482000D01*
G75*
G02*
X96893000Y-108419500I0J62500D01*
G01*
X96893000Y-107669500D01*
G75*
G02*
X96955500Y-107607000I62500J0D01*
G01*
X97080500Y-107607000D01*
G75*
G02*
X97143000Y-107669500I0J-62500D01*
G01*
X97143000Y-108419500D01*
G75*
G02*
X97080500Y-108482000I-62500J0D01*
G01*
G37*
G04 #@! TD.AperFunction*
G04 #@! TA.AperFunction,SMDPad,CuDef*
G36*
G01*
X97580500Y-108482000D02*
X97455500Y-108482000D01*
G75*
G02*
X97393000Y-108419500I0J62500D01*
G01*
X97393000Y-107669500D01*
G75*
G02*
X97455500Y-107607000I62500J0D01*
G01*
X97580500Y-107607000D01*
G75*
G02*
X97643000Y-107669500I0J-62500D01*
G01*
X97643000Y-108419500D01*
G75*
G02*
X97580500Y-108482000I-62500J0D01*
G01*
G37*
G04 #@! TD.AperFunction*
G04 #@! TA.AperFunction,SMDPad,CuDef*
G36*
G01*
X98080500Y-108482000D02*
X97955500Y-108482000D01*
G75*
G02*
X97893000Y-108419500I0J62500D01*
G01*
X97893000Y-107669500D01*
G75*
G02*
X97955500Y-107607000I62500J0D01*
G01*
X98080500Y-107607000D01*
G75*
G02*
X98143000Y-107669500I0J-62500D01*
G01*
X98143000Y-108419500D01*
G75*
G02*
X98080500Y-108482000I-62500J0D01*
G01*
G37*
G04 #@! TD.AperFunction*
G04 #@! TA.AperFunction,SMDPad,CuDef*
G36*
G01*
X98580500Y-108482000D02*
X98455500Y-108482000D01*
G75*
G02*
X98393000Y-108419500I0J62500D01*
G01*
X98393000Y-107669500D01*
G75*
G02*
X98455500Y-107607000I62500J0D01*
G01*
X98580500Y-107607000D01*
G75*
G02*
X98643000Y-107669500I0J-62500D01*
G01*
X98643000Y-108419500D01*
G75*
G02*
X98580500Y-108482000I-62500J0D01*
G01*
G37*
G04 #@! TD.AperFunction*
G04 #@! TA.AperFunction,SMDPad,CuDef*
G36*
G01*
X99080500Y-108482000D02*
X98955500Y-108482000D01*
G75*
G02*
X98893000Y-108419500I0J62500D01*
G01*
X98893000Y-107669500D01*
G75*
G02*
X98955500Y-107607000I62500J0D01*
G01*
X99080500Y-107607000D01*
G75*
G02*
X99143000Y-107669500I0J-62500D01*
G01*
X99143000Y-108419500D01*
G75*
G02*
X99080500Y-108482000I-62500J0D01*
G01*
G37*
G04 #@! TD.AperFunction*
G04 #@! TA.AperFunction,SMDPad,CuDef*
G36*
G01*
X99580500Y-108482000D02*
X99455500Y-108482000D01*
G75*
G02*
X99393000Y-108419500I0J62500D01*
G01*
X99393000Y-107669500D01*
G75*
G02*
X99455500Y-107607000I62500J0D01*
G01*
X99580500Y-107607000D01*
G75*
G02*
X99643000Y-107669500I0J-62500D01*
G01*
X99643000Y-108419500D01*
G75*
G02*
X99580500Y-108482000I-62500J0D01*
G01*
G37*
G04 #@! TD.AperFunction*
G04 #@! TA.AperFunction,SMDPad,CuDef*
G36*
G01*
X100080500Y-108482000D02*
X99955500Y-108482000D01*
G75*
G02*
X99893000Y-108419500I0J62500D01*
G01*
X99893000Y-107669500D01*
G75*
G02*
X99955500Y-107607000I62500J0D01*
G01*
X100080500Y-107607000D01*
G75*
G02*
X100143000Y-107669500I0J-62500D01*
G01*
X100143000Y-108419500D01*
G75*
G02*
X100080500Y-108482000I-62500J0D01*
G01*
G37*
G04 #@! TD.AperFunction*
G04 #@! TA.AperFunction,SMDPad,CuDef*
G36*
G01*
X101080500Y-107482000D02*
X100330500Y-107482000D01*
G75*
G02*
X100268000Y-107419500I0J62500D01*
G01*
X100268000Y-107294500D01*
G75*
G02*
X100330500Y-107232000I62500J0D01*
G01*
X101080500Y-107232000D01*
G75*
G02*
X101143000Y-107294500I0J-62500D01*
G01*
X101143000Y-107419500D01*
G75*
G02*
X101080500Y-107482000I-62500J0D01*
G01*
G37*
G04 #@! TD.AperFunction*
G04 #@! TA.AperFunction,SMDPad,CuDef*
G36*
G01*
X101080500Y-106982000D02*
X100330500Y-106982000D01*
G75*
G02*
X100268000Y-106919500I0J62500D01*
G01*
X100268000Y-106794500D01*
G75*
G02*
X100330500Y-106732000I62500J0D01*
G01*
X101080500Y-106732000D01*
G75*
G02*
X101143000Y-106794500I0J-62500D01*
G01*
X101143000Y-106919500D01*
G75*
G02*
X101080500Y-106982000I-62500J0D01*
G01*
G37*
G04 #@! TD.AperFunction*
G04 #@! TA.AperFunction,SMDPad,CuDef*
G36*
G01*
X101080500Y-106482000D02*
X100330500Y-106482000D01*
G75*
G02*
X100268000Y-106419500I0J62500D01*
G01*
X100268000Y-106294500D01*
G75*
G02*
X100330500Y-106232000I62500J0D01*
G01*
X101080500Y-106232000D01*
G75*
G02*
X101143000Y-106294500I0J-62500D01*
G01*
X101143000Y-106419500D01*
G75*
G02*
X101080500Y-106482000I-62500J0D01*
G01*
G37*
G04 #@! TD.AperFunction*
G04 #@! TA.AperFunction,SMDPad,CuDef*
G36*
G01*
X101080500Y-105982000D02*
X100330500Y-105982000D01*
G75*
G02*
X100268000Y-105919500I0J62500D01*
G01*
X100268000Y-105794500D01*
G75*
G02*
X100330500Y-105732000I62500J0D01*
G01*
X101080500Y-105732000D01*
G75*
G02*
X101143000Y-105794500I0J-62500D01*
G01*
X101143000Y-105919500D01*
G75*
G02*
X101080500Y-105982000I-62500J0D01*
G01*
G37*
G04 #@! TD.AperFunction*
G04 #@! TA.AperFunction,SMDPad,CuDef*
G36*
G01*
X101080500Y-105482000D02*
X100330500Y-105482000D01*
G75*
G02*
X100268000Y-105419500I0J62500D01*
G01*
X100268000Y-105294500D01*
G75*
G02*
X100330500Y-105232000I62500J0D01*
G01*
X101080500Y-105232000D01*
G75*
G02*
X101143000Y-105294500I0J-62500D01*
G01*
X101143000Y-105419500D01*
G75*
G02*
X101080500Y-105482000I-62500J0D01*
G01*
G37*
G04 #@! TD.AperFunction*
G04 #@! TA.AperFunction,SMDPad,CuDef*
G36*
G01*
X101080500Y-104982000D02*
X100330500Y-104982000D01*
G75*
G02*
X100268000Y-104919500I0J62500D01*
G01*
X100268000Y-104794500D01*
G75*
G02*
X100330500Y-104732000I62500J0D01*
G01*
X101080500Y-104732000D01*
G75*
G02*
X101143000Y-104794500I0J-62500D01*
G01*
X101143000Y-104919500D01*
G75*
G02*
X101080500Y-104982000I-62500J0D01*
G01*
G37*
G04 #@! TD.AperFunction*
G04 #@! TA.AperFunction,SMDPad,CuDef*
G36*
G01*
X101080500Y-104482000D02*
X100330500Y-104482000D01*
G75*
G02*
X100268000Y-104419500I0J62500D01*
G01*
X100268000Y-104294500D01*
G75*
G02*
X100330500Y-104232000I62500J0D01*
G01*
X101080500Y-104232000D01*
G75*
G02*
X101143000Y-104294500I0J-62500D01*
G01*
X101143000Y-104419500D01*
G75*
G02*
X101080500Y-104482000I-62500J0D01*
G01*
G37*
G04 #@! TD.AperFunction*
G04 #@! TA.AperFunction,SMDPad,CuDef*
G36*
G01*
X101080500Y-103982000D02*
X100330500Y-103982000D01*
G75*
G02*
X100268000Y-103919500I0J62500D01*
G01*
X100268000Y-103794500D01*
G75*
G02*
X100330500Y-103732000I62500J0D01*
G01*
X101080500Y-103732000D01*
G75*
G02*
X101143000Y-103794500I0J-62500D01*
G01*
X101143000Y-103919500D01*
G75*
G02*
X101080500Y-103982000I-62500J0D01*
G01*
G37*
G04 #@! TD.AperFunction*
G04 #@! TA.AperFunction,SMDPad,CuDef*
G36*
G01*
X100080500Y-103607000D02*
X99955500Y-103607000D01*
G75*
G02*
X99893000Y-103544500I0J62500D01*
G01*
X99893000Y-102794500D01*
G75*
G02*
X99955500Y-102732000I62500J0D01*
G01*
X100080500Y-102732000D01*
G75*
G02*
X100143000Y-102794500I0J-62500D01*
G01*
X100143000Y-103544500D01*
G75*
G02*
X100080500Y-103607000I-62500J0D01*
G01*
G37*
G04 #@! TD.AperFunction*
G04 #@! TA.AperFunction,SMDPad,CuDef*
G36*
G01*
X99580500Y-103607000D02*
X99455500Y-103607000D01*
G75*
G02*
X99393000Y-103544500I0J62500D01*
G01*
X99393000Y-102794500D01*
G75*
G02*
X99455500Y-102732000I62500J0D01*
G01*
X99580500Y-102732000D01*
G75*
G02*
X99643000Y-102794500I0J-62500D01*
G01*
X99643000Y-103544500D01*
G75*
G02*
X99580500Y-103607000I-62500J0D01*
G01*
G37*
G04 #@! TD.AperFunction*
G04 #@! TA.AperFunction,SMDPad,CuDef*
G36*
G01*
X99080500Y-103607000D02*
X98955500Y-103607000D01*
G75*
G02*
X98893000Y-103544500I0J62500D01*
G01*
X98893000Y-102794500D01*
G75*
G02*
X98955500Y-102732000I62500J0D01*
G01*
X99080500Y-102732000D01*
G75*
G02*
X99143000Y-102794500I0J-62500D01*
G01*
X99143000Y-103544500D01*
G75*
G02*
X99080500Y-103607000I-62500J0D01*
G01*
G37*
G04 #@! TD.AperFunction*
G04 #@! TA.AperFunction,SMDPad,CuDef*
G36*
G01*
X98580500Y-103607000D02*
X98455500Y-103607000D01*
G75*
G02*
X98393000Y-103544500I0J62500D01*
G01*
X98393000Y-102794500D01*
G75*
G02*
X98455500Y-102732000I62500J0D01*
G01*
X98580500Y-102732000D01*
G75*
G02*
X98643000Y-102794500I0J-62500D01*
G01*
X98643000Y-103544500D01*
G75*
G02*
X98580500Y-103607000I-62500J0D01*
G01*
G37*
G04 #@! TD.AperFunction*
G04 #@! TA.AperFunction,SMDPad,CuDef*
G36*
G01*
X98080500Y-103607000D02*
X97955500Y-103607000D01*
G75*
G02*
X97893000Y-103544500I0J62500D01*
G01*
X97893000Y-102794500D01*
G75*
G02*
X97955500Y-102732000I62500J0D01*
G01*
X98080500Y-102732000D01*
G75*
G02*
X98143000Y-102794500I0J-62500D01*
G01*
X98143000Y-103544500D01*
G75*
G02*
X98080500Y-103607000I-62500J0D01*
G01*
G37*
G04 #@! TD.AperFunction*
G04 #@! TA.AperFunction,SMDPad,CuDef*
G36*
G01*
X97580500Y-103607000D02*
X97455500Y-103607000D01*
G75*
G02*
X97393000Y-103544500I0J62500D01*
G01*
X97393000Y-102794500D01*
G75*
G02*
X97455500Y-102732000I62500J0D01*
G01*
X97580500Y-102732000D01*
G75*
G02*
X97643000Y-102794500I0J-62500D01*
G01*
X97643000Y-103544500D01*
G75*
G02*
X97580500Y-103607000I-62500J0D01*
G01*
G37*
G04 #@! TD.AperFunction*
G04 #@! TA.AperFunction,SMDPad,CuDef*
G36*
G01*
X97080500Y-103607000D02*
X96955500Y-103607000D01*
G75*
G02*
X96893000Y-103544500I0J62500D01*
G01*
X96893000Y-102794500D01*
G75*
G02*
X96955500Y-102732000I62500J0D01*
G01*
X97080500Y-102732000D01*
G75*
G02*
X97143000Y-102794500I0J-62500D01*
G01*
X97143000Y-103544500D01*
G75*
G02*
X97080500Y-103607000I-62500J0D01*
G01*
G37*
G04 #@! TD.AperFunction*
G04 #@! TA.AperFunction,SMDPad,CuDef*
G36*
G01*
X96580500Y-103607000D02*
X96455500Y-103607000D01*
G75*
G02*
X96393000Y-103544500I0J62500D01*
G01*
X96393000Y-102794500D01*
G75*
G02*
X96455500Y-102732000I62500J0D01*
G01*
X96580500Y-102732000D01*
G75*
G02*
X96643000Y-102794500I0J-62500D01*
G01*
X96643000Y-103544500D01*
G75*
G02*
X96580500Y-103607000I-62500J0D01*
G01*
G37*
G04 #@! TD.AperFunction*
G04 #@! TA.AperFunction,SMDPad,CuDef*
G36*
G01*
X96205500Y-103982000D02*
X95455500Y-103982000D01*
G75*
G02*
X95393000Y-103919500I0J62500D01*
G01*
X95393000Y-103794500D01*
G75*
G02*
X95455500Y-103732000I62500J0D01*
G01*
X96205500Y-103732000D01*
G75*
G02*
X96268000Y-103794500I0J-62500D01*
G01*
X96268000Y-103919500D01*
G75*
G02*
X96205500Y-103982000I-62500J0D01*
G01*
G37*
G04 #@! TD.AperFunction*
G04 #@! TA.AperFunction,SMDPad,CuDef*
G36*
G01*
X96205500Y-104482000D02*
X95455500Y-104482000D01*
G75*
G02*
X95393000Y-104419500I0J62500D01*
G01*
X95393000Y-104294500D01*
G75*
G02*
X95455500Y-104232000I62500J0D01*
G01*
X96205500Y-104232000D01*
G75*
G02*
X96268000Y-104294500I0J-62500D01*
G01*
X96268000Y-104419500D01*
G75*
G02*
X96205500Y-104482000I-62500J0D01*
G01*
G37*
G04 #@! TD.AperFunction*
G04 #@! TA.AperFunction,SMDPad,CuDef*
G36*
G01*
X96205500Y-104982000D02*
X95455500Y-104982000D01*
G75*
G02*
X95393000Y-104919500I0J62500D01*
G01*
X95393000Y-104794500D01*
G75*
G02*
X95455500Y-104732000I62500J0D01*
G01*
X96205500Y-104732000D01*
G75*
G02*
X96268000Y-104794500I0J-62500D01*
G01*
X96268000Y-104919500D01*
G75*
G02*
X96205500Y-104982000I-62500J0D01*
G01*
G37*
G04 #@! TD.AperFunction*
G04 #@! TA.AperFunction,SMDPad,CuDef*
G36*
G01*
X96205500Y-105482000D02*
X95455500Y-105482000D01*
G75*
G02*
X95393000Y-105419500I0J62500D01*
G01*
X95393000Y-105294500D01*
G75*
G02*
X95455500Y-105232000I62500J0D01*
G01*
X96205500Y-105232000D01*
G75*
G02*
X96268000Y-105294500I0J-62500D01*
G01*
X96268000Y-105419500D01*
G75*
G02*
X96205500Y-105482000I-62500J0D01*
G01*
G37*
G04 #@! TD.AperFunction*
G04 #@! TA.AperFunction,SMDPad,CuDef*
G36*
G01*
X96205500Y-105982000D02*
X95455500Y-105982000D01*
G75*
G02*
X95393000Y-105919500I0J62500D01*
G01*
X95393000Y-105794500D01*
G75*
G02*
X95455500Y-105732000I62500J0D01*
G01*
X96205500Y-105732000D01*
G75*
G02*
X96268000Y-105794500I0J-62500D01*
G01*
X96268000Y-105919500D01*
G75*
G02*
X96205500Y-105982000I-62500J0D01*
G01*
G37*
G04 #@! TD.AperFunction*
G04 #@! TA.AperFunction,SMDPad,CuDef*
G36*
G01*
X96205500Y-106482000D02*
X95455500Y-106482000D01*
G75*
G02*
X95393000Y-106419500I0J62500D01*
G01*
X95393000Y-106294500D01*
G75*
G02*
X95455500Y-106232000I62500J0D01*
G01*
X96205500Y-106232000D01*
G75*
G02*
X96268000Y-106294500I0J-62500D01*
G01*
X96268000Y-106419500D01*
G75*
G02*
X96205500Y-106482000I-62500J0D01*
G01*
G37*
G04 #@! TD.AperFunction*
G04 #@! TA.AperFunction,SMDPad,CuDef*
G36*
G01*
X96205500Y-106982000D02*
X95455500Y-106982000D01*
G75*
G02*
X95393000Y-106919500I0J62500D01*
G01*
X95393000Y-106794500D01*
G75*
G02*
X95455500Y-106732000I62500J0D01*
G01*
X96205500Y-106732000D01*
G75*
G02*
X96268000Y-106794500I0J-62500D01*
G01*
X96268000Y-106919500D01*
G75*
G02*
X96205500Y-106982000I-62500J0D01*
G01*
G37*
G04 #@! TD.AperFunction*
G04 #@! TA.AperFunction,SMDPad,CuDef*
G36*
G01*
X96205500Y-107482000D02*
X95455500Y-107482000D01*
G75*
G02*
X95393000Y-107419500I0J62500D01*
G01*
X95393000Y-107294500D01*
G75*
G02*
X95455500Y-107232000I62500J0D01*
G01*
X96205500Y-107232000D01*
G75*
G02*
X96268000Y-107294500I0J-62500D01*
G01*
X96268000Y-107419500D01*
G75*
G02*
X96205500Y-107482000I-62500J0D01*
G01*
G37*
G04 #@! TD.AperFunction*
D10*
X98268000Y-105607000D03*
G04 #@! TA.AperFunction,SMDPad,CuDef*
G36*
G01*
X112261500Y-109704000D02*
X112261500Y-109384000D01*
G75*
G02*
X112421500Y-109224000I160000J0D01*
G01*
X112816500Y-109224000D01*
G75*
G02*
X112976500Y-109384000I0J-160000D01*
G01*
X112976500Y-109704000D01*
G75*
G02*
X112816500Y-109864000I-160000J0D01*
G01*
X112421500Y-109864000D01*
G75*
G02*
X112261500Y-109704000I0J160000D01*
G01*
G37*
G04 #@! TD.AperFunction*
G04 #@! TA.AperFunction,SMDPad,CuDef*
G36*
G01*
X111066500Y-109704000D02*
X111066500Y-109384000D01*
G75*
G02*
X111226500Y-109224000I160000J0D01*
G01*
X111621500Y-109224000D01*
G75*
G02*
X111781500Y-109384000I0J-160000D01*
G01*
X111781500Y-109704000D01*
G75*
G02*
X111621500Y-109864000I-160000J0D01*
G01*
X111226500Y-109864000D01*
G75*
G02*
X111066500Y-109704000I0J160000D01*
G01*
G37*
G04 #@! TD.AperFunction*
G04 #@! TA.AperFunction,SMDPad,CuDef*
G36*
G01*
X111029000Y-108307000D02*
X111029000Y-107987000D01*
G75*
G02*
X111189000Y-107827000I160000J0D01*
G01*
X111584000Y-107827000D01*
G75*
G02*
X111744000Y-107987000I0J-160000D01*
G01*
X111744000Y-108307000D01*
G75*
G02*
X111584000Y-108467000I-160000J0D01*
G01*
X111189000Y-108467000D01*
G75*
G02*
X111029000Y-108307000I0J160000D01*
G01*
G37*
G04 #@! TD.AperFunction*
G04 #@! TA.AperFunction,SMDPad,CuDef*
G36*
G01*
X112224000Y-108307000D02*
X112224000Y-107987000D01*
G75*
G02*
X112384000Y-107827000I160000J0D01*
G01*
X112779000Y-107827000D01*
G75*
G02*
X112939000Y-107987000I0J-160000D01*
G01*
X112939000Y-108307000D01*
G75*
G02*
X112779000Y-108467000I-160000J0D01*
G01*
X112384000Y-108467000D01*
G75*
G02*
X112224000Y-108307000I0J160000D01*
G01*
G37*
G04 #@! TD.AperFunction*
G04 #@! TA.AperFunction,SMDPad,CuDef*
G36*
G01*
X111744000Y-106590000D02*
X111744000Y-106910000D01*
G75*
G02*
X111584000Y-107070000I-160000J0D01*
G01*
X111189000Y-107070000D01*
G75*
G02*
X111029000Y-106910000I0J160000D01*
G01*
X111029000Y-106590000D01*
G75*
G02*
X111189000Y-106430000I160000J0D01*
G01*
X111584000Y-106430000D01*
G75*
G02*
X111744000Y-106590000I0J-160000D01*
G01*
G37*
G04 #@! TD.AperFunction*
G04 #@! TA.AperFunction,SMDPad,CuDef*
G36*
G01*
X112939000Y-106590000D02*
X112939000Y-106910000D01*
G75*
G02*
X112779000Y-107070000I-160000J0D01*
G01*
X112384000Y-107070000D01*
G75*
G02*
X112224000Y-106910000I0J160000D01*
G01*
X112224000Y-106590000D01*
G75*
G02*
X112384000Y-106430000I160000J0D01*
G01*
X112779000Y-106430000D01*
G75*
G02*
X112939000Y-106590000I0J-160000D01*
G01*
G37*
G04 #@! TD.AperFunction*
G04 #@! TA.AperFunction,SMDPad,CuDef*
G36*
G01*
X107583000Y-109019500D02*
X107583000Y-108544500D01*
G75*
G02*
X107820500Y-108307000I237500J0D01*
G01*
X108320500Y-108307000D01*
G75*
G02*
X108558000Y-108544500I0J-237500D01*
G01*
X108558000Y-109019500D01*
G75*
G02*
X108320500Y-109257000I-237500J0D01*
G01*
X107820500Y-109257000D01*
G75*
G02*
X107583000Y-109019500I0J237500D01*
G01*
G37*
G04 #@! TD.AperFunction*
G04 #@! TA.AperFunction,SMDPad,CuDef*
G36*
G01*
X105758000Y-109019500D02*
X105758000Y-108544500D01*
G75*
G02*
X105995500Y-108307000I237500J0D01*
G01*
X106495500Y-108307000D01*
G75*
G02*
X106733000Y-108544500I0J-237500D01*
G01*
X106733000Y-109019500D01*
G75*
G02*
X106495500Y-109257000I-237500J0D01*
G01*
X105995500Y-109257000D01*
G75*
G02*
X105758000Y-109019500I0J237500D01*
G01*
G37*
G04 #@! TD.AperFunction*
G04 #@! TA.AperFunction,SMDPad,CuDef*
G36*
G01*
X108558000Y-106766500D02*
X108558000Y-107241500D01*
G75*
G02*
X108320500Y-107479000I-237500J0D01*
G01*
X107820500Y-107479000D01*
G75*
G02*
X107583000Y-107241500I0J237500D01*
G01*
X107583000Y-106766500D01*
G75*
G02*
X107820500Y-106529000I237500J0D01*
G01*
X108320500Y-106529000D01*
G75*
G02*
X108558000Y-106766500I0J-237500D01*
G01*
G37*
G04 #@! TD.AperFunction*
G04 #@! TA.AperFunction,SMDPad,CuDef*
G36*
G01*
X106733000Y-106766500D02*
X106733000Y-107241500D01*
G75*
G02*
X106495500Y-107479000I-237500J0D01*
G01*
X105995500Y-107479000D01*
G75*
G02*
X105758000Y-107241500I0J237500D01*
G01*
X105758000Y-106766500D01*
G75*
G02*
X105995500Y-106529000I237500J0D01*
G01*
X106495500Y-106529000D01*
G75*
G02*
X106733000Y-106766500I0J-237500D01*
G01*
G37*
G04 #@! TD.AperFunction*
G04 #@! TA.AperFunction,SMDPad,CuDef*
G36*
G01*
X115810000Y-100950000D02*
X115810000Y-101270000D01*
G75*
G02*
X115650000Y-101430000I-160000J0D01*
G01*
X115255000Y-101430000D01*
G75*
G02*
X115095000Y-101270000I0J160000D01*
G01*
X115095000Y-100950000D01*
G75*
G02*
X115255000Y-100790000I160000J0D01*
G01*
X115650000Y-100790000D01*
G75*
G02*
X115810000Y-100950000I0J-160000D01*
G01*
G37*
G04 #@! TD.AperFunction*
G04 #@! TA.AperFunction,SMDPad,CuDef*
G36*
G01*
X117005000Y-100950000D02*
X117005000Y-101270000D01*
G75*
G02*
X116845000Y-101430000I-160000J0D01*
G01*
X116450000Y-101430000D01*
G75*
G02*
X116290000Y-101270000I0J160000D01*
G01*
X116290000Y-100950000D01*
G75*
G02*
X116450000Y-100790000I160000J0D01*
G01*
X116845000Y-100790000D01*
G75*
G02*
X117005000Y-100950000I0J-160000D01*
G01*
G37*
G04 #@! TD.AperFunction*
G04 #@! TA.AperFunction,SMDPad,CuDef*
G36*
G01*
X111029000Y-102592000D02*
X111029000Y-102272000D01*
G75*
G02*
X111189000Y-102112000I160000J0D01*
G01*
X111584000Y-102112000D01*
G75*
G02*
X111744000Y-102272000I0J-160000D01*
G01*
X111744000Y-102592000D01*
G75*
G02*
X111584000Y-102752000I-160000J0D01*
G01*
X111189000Y-102752000D01*
G75*
G02*
X111029000Y-102592000I0J160000D01*
G01*
G37*
G04 #@! TD.AperFunction*
G04 #@! TA.AperFunction,SMDPad,CuDef*
G36*
G01*
X112224000Y-102592000D02*
X112224000Y-102272000D01*
G75*
G02*
X112384000Y-102112000I160000J0D01*
G01*
X112779000Y-102112000D01*
G75*
G02*
X112939000Y-102272000I0J-160000D01*
G01*
X112939000Y-102592000D01*
G75*
G02*
X112779000Y-102752000I-160000J0D01*
G01*
X112384000Y-102752000D01*
G75*
G02*
X112224000Y-102592000I0J160000D01*
G01*
G37*
G04 #@! TD.AperFunction*
G04 #@! TA.AperFunction,SMDPad,CuDef*
G36*
G01*
X111029000Y-103989000D02*
X111029000Y-103669000D01*
G75*
G02*
X111189000Y-103509000I160000J0D01*
G01*
X111584000Y-103509000D01*
G75*
G02*
X111744000Y-103669000I0J-160000D01*
G01*
X111744000Y-103989000D01*
G75*
G02*
X111584000Y-104149000I-160000J0D01*
G01*
X111189000Y-104149000D01*
G75*
G02*
X111029000Y-103989000I0J160000D01*
G01*
G37*
G04 #@! TD.AperFunction*
G04 #@! TA.AperFunction,SMDPad,CuDef*
G36*
G01*
X112224000Y-103989000D02*
X112224000Y-103669000D01*
G75*
G02*
X112384000Y-103509000I160000J0D01*
G01*
X112779000Y-103509000D01*
G75*
G02*
X112939000Y-103669000I0J-160000D01*
G01*
X112939000Y-103989000D01*
G75*
G02*
X112779000Y-104149000I-160000J0D01*
G01*
X112384000Y-104149000D01*
G75*
G02*
X112224000Y-103989000I0J160000D01*
G01*
G37*
G04 #@! TD.AperFunction*
G04 #@! TA.AperFunction,SMDPad,CuDef*
G36*
G01*
X111744000Y-105066000D02*
X111744000Y-105386000D01*
G75*
G02*
X111584000Y-105546000I-160000J0D01*
G01*
X111189000Y-105546000D01*
G75*
G02*
X111029000Y-105386000I0J160000D01*
G01*
X111029000Y-105066000D01*
G75*
G02*
X111189000Y-104906000I160000J0D01*
G01*
X111584000Y-104906000D01*
G75*
G02*
X111744000Y-105066000I0J-160000D01*
G01*
G37*
G04 #@! TD.AperFunction*
G04 #@! TA.AperFunction,SMDPad,CuDef*
G36*
G01*
X112939000Y-105066000D02*
X112939000Y-105386000D01*
G75*
G02*
X112779000Y-105546000I-160000J0D01*
G01*
X112384000Y-105546000D01*
G75*
G02*
X112224000Y-105386000I0J160000D01*
G01*
X112224000Y-105066000D01*
G75*
G02*
X112384000Y-104906000I160000J0D01*
G01*
X112779000Y-104906000D01*
G75*
G02*
X112939000Y-105066000I0J-160000D01*
G01*
G37*
G04 #@! TD.AperFunction*
G04 #@! TA.AperFunction,SMDPad,CuDef*
G36*
G01*
X107583000Y-103431500D02*
X107583000Y-102956500D01*
G75*
G02*
X107820500Y-102719000I237500J0D01*
G01*
X108320500Y-102719000D01*
G75*
G02*
X108558000Y-102956500I0J-237500D01*
G01*
X108558000Y-103431500D01*
G75*
G02*
X108320500Y-103669000I-237500J0D01*
G01*
X107820500Y-103669000D01*
G75*
G02*
X107583000Y-103431500I0J237500D01*
G01*
G37*
G04 #@! TD.AperFunction*
G04 #@! TA.AperFunction,SMDPad,CuDef*
G36*
G01*
X105758000Y-103431500D02*
X105758000Y-102956500D01*
G75*
G02*
X105995500Y-102719000I237500J0D01*
G01*
X106495500Y-102719000D01*
G75*
G02*
X106733000Y-102956500I0J-237500D01*
G01*
X106733000Y-103431500D01*
G75*
G02*
X106495500Y-103669000I-237500J0D01*
G01*
X105995500Y-103669000D01*
G75*
G02*
X105758000Y-103431500I0J237500D01*
G01*
G37*
G04 #@! TD.AperFunction*
G04 #@! TA.AperFunction,SMDPad,CuDef*
G36*
G01*
X108558000Y-104734500D02*
X108558000Y-105209500D01*
G75*
G02*
X108320500Y-105447000I-237500J0D01*
G01*
X107820500Y-105447000D01*
G75*
G02*
X107583000Y-105209500I0J237500D01*
G01*
X107583000Y-104734500D01*
G75*
G02*
X107820500Y-104497000I237500J0D01*
G01*
X108320500Y-104497000D01*
G75*
G02*
X108558000Y-104734500I0J-237500D01*
G01*
G37*
G04 #@! TD.AperFunction*
G04 #@! TA.AperFunction,SMDPad,CuDef*
G36*
G01*
X106733000Y-104734500D02*
X106733000Y-105209500D01*
G75*
G02*
X106495500Y-105447000I-237500J0D01*
G01*
X105995500Y-105447000D01*
G75*
G02*
X105758000Y-105209500I0J237500D01*
G01*
X105758000Y-104734500D01*
G75*
G02*
X105995500Y-104497000I237500J0D01*
G01*
X106495500Y-104497000D01*
G75*
G02*
X106733000Y-104734500I0J-237500D01*
G01*
G37*
G04 #@! TD.AperFunction*
G04 #@! TA.AperFunction,SMDPad,CuDef*
G36*
G01*
X116368000Y-109257000D02*
X116368000Y-109577000D01*
G75*
G02*
X116208000Y-109737000I-160000J0D01*
G01*
X115813000Y-109737000D01*
G75*
G02*
X115653000Y-109577000I0J160000D01*
G01*
X115653000Y-109257000D01*
G75*
G02*
X115813000Y-109097000I160000J0D01*
G01*
X116208000Y-109097000D01*
G75*
G02*
X116368000Y-109257000I0J-160000D01*
G01*
G37*
G04 #@! TD.AperFunction*
G04 #@! TA.AperFunction,SMDPad,CuDef*
G36*
G01*
X115173000Y-109257000D02*
X115173000Y-109577000D01*
G75*
G02*
X115013000Y-109737000I-160000J0D01*
G01*
X114618000Y-109737000D01*
G75*
G02*
X114458000Y-109577000I0J160000D01*
G01*
X114458000Y-109257000D01*
G75*
G02*
X114618000Y-109097000I160000J0D01*
G01*
X115013000Y-109097000D01*
G75*
G02*
X115173000Y-109257000I0J-160000D01*
G01*
G37*
G04 #@! TD.AperFunction*
G04 #@! TA.AperFunction,SMDPad,CuDef*
G36*
G01*
X86313000Y-92734000D02*
X89313000Y-92734000D01*
G75*
G02*
X89563000Y-92984000I0J-250000D01*
G01*
X89563000Y-93484000D01*
G75*
G02*
X89313000Y-93734000I-250000J0D01*
G01*
X86313000Y-93734000D01*
G75*
G02*
X86063000Y-93484000I0J250000D01*
G01*
X86063000Y-92984000D01*
G75*
G02*
X86313000Y-92734000I250000J0D01*
G01*
G37*
G04 #@! TD.AperFunction*
G04 #@! TA.AperFunction,SMDPad,CuDef*
G36*
G01*
X86313000Y-94734000D02*
X89313000Y-94734000D01*
G75*
G02*
X89563000Y-94984000I0J-250000D01*
G01*
X89563000Y-95484000D01*
G75*
G02*
X89313000Y-95734000I-250000J0D01*
G01*
X86313000Y-95734000D01*
G75*
G02*
X86063000Y-95484000I0J250000D01*
G01*
X86063000Y-94984000D01*
G75*
G02*
X86313000Y-94734000I250000J0D01*
G01*
G37*
G04 #@! TD.AperFunction*
G04 #@! TA.AperFunction,SMDPad,CuDef*
G36*
G01*
X80613000Y-90134000D02*
X83513000Y-90134000D01*
G75*
G02*
X83763000Y-90384000I0J-250000D01*
G01*
X83763000Y-91384000D01*
G75*
G02*
X83513000Y-91634000I-250000J0D01*
G01*
X80613000Y-91634000D01*
G75*
G02*
X80363000Y-91384000I0J250000D01*
G01*
X80363000Y-90384000D01*
G75*
G02*
X80613000Y-90134000I250000J0D01*
G01*
G37*
G04 #@! TD.AperFunction*
G04 #@! TA.AperFunction,SMDPad,CuDef*
G36*
G01*
X80613000Y-96834000D02*
X83513000Y-96834000D01*
G75*
G02*
X83763000Y-97084000I0J-250000D01*
G01*
X83763000Y-98084000D01*
G75*
G02*
X83513000Y-98334000I-250000J0D01*
G01*
X80613000Y-98334000D01*
G75*
G02*
X80363000Y-98084000I0J250000D01*
G01*
X80363000Y-97084000D01*
G75*
G02*
X80613000Y-96834000I250000J0D01*
G01*
G37*
G04 #@! TD.AperFunction*
G04 #@! TA.AperFunction,SMDPad,CuDef*
G36*
G01*
X115992000Y-111178500D02*
X115992000Y-110703500D01*
G75*
G02*
X116229500Y-110466000I237500J0D01*
G01*
X116829500Y-110466000D01*
G75*
G02*
X117067000Y-110703500I0J-237500D01*
G01*
X117067000Y-111178500D01*
G75*
G02*
X116829500Y-111416000I-237500J0D01*
G01*
X116229500Y-111416000D01*
G75*
G02*
X115992000Y-111178500I0J237500D01*
G01*
G37*
G04 #@! TD.AperFunction*
G04 #@! TA.AperFunction,SMDPad,CuDef*
G36*
G01*
X114267000Y-111178500D02*
X114267000Y-110703500D01*
G75*
G02*
X114504500Y-110466000I237500J0D01*
G01*
X115104500Y-110466000D01*
G75*
G02*
X115342000Y-110703500I0J-237500D01*
G01*
X115342000Y-111178500D01*
G75*
G02*
X115104500Y-111416000I-237500J0D01*
G01*
X114504500Y-111416000D01*
G75*
G02*
X114267000Y-111178500I0J237500D01*
G01*
G37*
G04 #@! TD.AperFunction*
G04 #@! TA.AperFunction,SMDPad,CuDef*
G36*
G01*
X113130000Y-110830500D02*
X113130000Y-111305500D01*
G75*
G02*
X112892500Y-111543000I-237500J0D01*
G01*
X112292500Y-111543000D01*
G75*
G02*
X112055000Y-111305500I0J237500D01*
G01*
X112055000Y-110830500D01*
G75*
G02*
X112292500Y-110593000I237500J0D01*
G01*
X112892500Y-110593000D01*
G75*
G02*
X113130000Y-110830500I0J-237500D01*
G01*
G37*
G04 #@! TD.AperFunction*
G04 #@! TA.AperFunction,SMDPad,CuDef*
G36*
G01*
X111405000Y-110830500D02*
X111405000Y-111305500D01*
G75*
G02*
X111167500Y-111543000I-237500J0D01*
G01*
X110567500Y-111543000D01*
G75*
G02*
X110330000Y-111305500I0J237500D01*
G01*
X110330000Y-110830500D01*
G75*
G02*
X110567500Y-110593000I237500J0D01*
G01*
X111167500Y-110593000D01*
G75*
G02*
X111405000Y-110830500I0J-237500D01*
G01*
G37*
G04 #@! TD.AperFunction*
G04 #@! TA.AperFunction,SMDPad,CuDef*
G36*
G01*
X109935500Y-109293000D02*
X109460500Y-109293000D01*
G75*
G02*
X109223000Y-109055500I0J237500D01*
G01*
X109223000Y-108455500D01*
G75*
G02*
X109460500Y-108218000I237500J0D01*
G01*
X109935500Y-108218000D01*
G75*
G02*
X110173000Y-108455500I0J-237500D01*
G01*
X110173000Y-109055500D01*
G75*
G02*
X109935500Y-109293000I-237500J0D01*
G01*
G37*
G04 #@! TD.AperFunction*
G04 #@! TA.AperFunction,SMDPad,CuDef*
G36*
G01*
X109935500Y-107568000D02*
X109460500Y-107568000D01*
G75*
G02*
X109223000Y-107330500I0J237500D01*
G01*
X109223000Y-106730500D01*
G75*
G02*
X109460500Y-106493000I237500J0D01*
G01*
X109935500Y-106493000D01*
G75*
G02*
X110173000Y-106730500I0J-237500D01*
G01*
X110173000Y-107330500D01*
G75*
G02*
X109935500Y-107568000I-237500J0D01*
G01*
G37*
G04 #@! TD.AperFunction*
G04 #@! TA.AperFunction,SMDPad,CuDef*
G36*
G01*
X116835000Y-100017500D02*
X116835000Y-99542500D01*
G75*
G02*
X117072500Y-99305000I237500J0D01*
G01*
X117672500Y-99305000D01*
G75*
G02*
X117910000Y-99542500I0J-237500D01*
G01*
X117910000Y-100017500D01*
G75*
G02*
X117672500Y-100255000I-237500J0D01*
G01*
X117072500Y-100255000D01*
G75*
G02*
X116835000Y-100017500I0J237500D01*
G01*
G37*
G04 #@! TD.AperFunction*
G04 #@! TA.AperFunction,SMDPad,CuDef*
G36*
G01*
X115110000Y-100017500D02*
X115110000Y-99542500D01*
G75*
G02*
X115347500Y-99305000I237500J0D01*
G01*
X115947500Y-99305000D01*
G75*
G02*
X116185000Y-99542500I0J-237500D01*
G01*
X116185000Y-100017500D01*
G75*
G02*
X115947500Y-100255000I-237500J0D01*
G01*
X115347500Y-100255000D01*
G75*
G02*
X115110000Y-100017500I0J237500D01*
G01*
G37*
G04 #@! TD.AperFunction*
G04 #@! TA.AperFunction,SMDPad,CuDef*
G36*
G01*
X110135000Y-100543500D02*
X110135000Y-101018500D01*
G75*
G02*
X109897500Y-101256000I-237500J0D01*
G01*
X109297500Y-101256000D01*
G75*
G02*
X109060000Y-101018500I0J237500D01*
G01*
X109060000Y-100543500D01*
G75*
G02*
X109297500Y-100306000I237500J0D01*
G01*
X109897500Y-100306000D01*
G75*
G02*
X110135000Y-100543500I0J-237500D01*
G01*
G37*
G04 #@! TD.AperFunction*
G04 #@! TA.AperFunction,SMDPad,CuDef*
G36*
G01*
X111860000Y-100543500D02*
X111860000Y-101018500D01*
G75*
G02*
X111622500Y-101256000I-237500J0D01*
G01*
X111022500Y-101256000D01*
G75*
G02*
X110785000Y-101018500I0J237500D01*
G01*
X110785000Y-100543500D01*
G75*
G02*
X111022500Y-100306000I237500J0D01*
G01*
X111622500Y-100306000D01*
G75*
G02*
X111860000Y-100543500I0J-237500D01*
G01*
G37*
G04 #@! TD.AperFunction*
G04 #@! TA.AperFunction,SMDPad,CuDef*
G36*
G01*
X109460500Y-102683000D02*
X109935500Y-102683000D01*
G75*
G02*
X110173000Y-102920500I0J-237500D01*
G01*
X110173000Y-103520500D01*
G75*
G02*
X109935500Y-103758000I-237500J0D01*
G01*
X109460500Y-103758000D01*
G75*
G02*
X109223000Y-103520500I0J237500D01*
G01*
X109223000Y-102920500D01*
G75*
G02*
X109460500Y-102683000I237500J0D01*
G01*
G37*
G04 #@! TD.AperFunction*
G04 #@! TA.AperFunction,SMDPad,CuDef*
G36*
G01*
X109460500Y-104408000D02*
X109935500Y-104408000D01*
G75*
G02*
X110173000Y-104645500I0J-237500D01*
G01*
X110173000Y-105245500D01*
G75*
G02*
X109935500Y-105483000I-237500J0D01*
G01*
X109460500Y-105483000D01*
G75*
G02*
X109223000Y-105245500I0J237500D01*
G01*
X109223000Y-104645500D01*
G75*
G02*
X109460500Y-104408000I237500J0D01*
G01*
G37*
G04 #@! TD.AperFunction*
G04 #@! TA.AperFunction,SMDPad,CuDef*
G36*
G01*
X117727000Y-107820000D02*
X117417000Y-107820000D01*
G75*
G02*
X117262000Y-107665000I0J155000D01*
G01*
X117262000Y-107240000D01*
G75*
G02*
X117417000Y-107085000I155000J0D01*
G01*
X117727000Y-107085000D01*
G75*
G02*
X117882000Y-107240000I0J-155000D01*
G01*
X117882000Y-107665000D01*
G75*
G02*
X117727000Y-107820000I-155000J0D01*
G01*
G37*
G04 #@! TD.AperFunction*
G04 #@! TA.AperFunction,SMDPad,CuDef*
G36*
G01*
X117727000Y-108955000D02*
X117417000Y-108955000D01*
G75*
G02*
X117262000Y-108800000I0J155000D01*
G01*
X117262000Y-108375000D01*
G75*
G02*
X117417000Y-108220000I155000J0D01*
G01*
X117727000Y-108220000D01*
G75*
G02*
X117882000Y-108375000I0J-155000D01*
G01*
X117882000Y-108800000D01*
G75*
G02*
X117727000Y-108955000I-155000J0D01*
G01*
G37*
G04 #@! TD.AperFunction*
G04 #@! TA.AperFunction,SMDPad,CuDef*
G36*
G01*
X118870000Y-108955000D02*
X118560000Y-108955000D01*
G75*
G02*
X118405000Y-108800000I0J155000D01*
G01*
X118405000Y-108375000D01*
G75*
G02*
X118560000Y-108220000I155000J0D01*
G01*
X118870000Y-108220000D01*
G75*
G02*
X119025000Y-108375000I0J-155000D01*
G01*
X119025000Y-108800000D01*
G75*
G02*
X118870000Y-108955000I-155000J0D01*
G01*
G37*
G04 #@! TD.AperFunction*
G04 #@! TA.AperFunction,SMDPad,CuDef*
G36*
G01*
X118870000Y-107820000D02*
X118560000Y-107820000D01*
G75*
G02*
X118405000Y-107665000I0J155000D01*
G01*
X118405000Y-107240000D01*
G75*
G02*
X118560000Y-107085000I155000J0D01*
G01*
X118870000Y-107085000D01*
G75*
G02*
X119025000Y-107240000I0J-155000D01*
G01*
X119025000Y-107665000D01*
G75*
G02*
X118870000Y-107820000I-155000J0D01*
G01*
G37*
G04 #@! TD.AperFunction*
G04 #@! TA.AperFunction,SMDPad,CuDef*
G36*
G01*
X104766000Y-100319000D02*
X105076000Y-100319000D01*
G75*
G02*
X105231000Y-100474000I0J-155000D01*
G01*
X105231000Y-100899000D01*
G75*
G02*
X105076000Y-101054000I-155000J0D01*
G01*
X104766000Y-101054000D01*
G75*
G02*
X104611000Y-100899000I0J155000D01*
G01*
X104611000Y-100474000D01*
G75*
G02*
X104766000Y-100319000I155000J0D01*
G01*
G37*
G04 #@! TD.AperFunction*
G04 #@! TA.AperFunction,SMDPad,CuDef*
G36*
G01*
X104766000Y-99184000D02*
X105076000Y-99184000D01*
G75*
G02*
X105231000Y-99339000I0J-155000D01*
G01*
X105231000Y-99764000D01*
G75*
G02*
X105076000Y-99919000I-155000J0D01*
G01*
X104766000Y-99919000D01*
G75*
G02*
X104611000Y-99764000I0J155000D01*
G01*
X104611000Y-99339000D01*
G75*
G02*
X104766000Y-99184000I155000J0D01*
G01*
G37*
G04 #@! TD.AperFunction*
G04 #@! TA.AperFunction,SMDPad,CuDef*
G36*
G01*
X103835000Y-101405000D02*
X103835000Y-101715000D01*
G75*
G02*
X103680000Y-101870000I-155000J0D01*
G01*
X103255000Y-101870000D01*
G75*
G02*
X103100000Y-101715000I0J155000D01*
G01*
X103100000Y-101405000D01*
G75*
G02*
X103255000Y-101250000I155000J0D01*
G01*
X103680000Y-101250000D01*
G75*
G02*
X103835000Y-101405000I0J-155000D01*
G01*
G37*
G04 #@! TD.AperFunction*
G04 #@! TA.AperFunction,SMDPad,CuDef*
G36*
G01*
X102700000Y-101405000D02*
X102700000Y-101715000D01*
G75*
G02*
X102545000Y-101870000I-155000J0D01*
G01*
X102120000Y-101870000D01*
G75*
G02*
X101965000Y-101715000I0J155000D01*
G01*
X101965000Y-101405000D01*
G75*
G02*
X102120000Y-101250000I155000J0D01*
G01*
X102545000Y-101250000D01*
G75*
G02*
X102700000Y-101405000I0J-155000D01*
G01*
G37*
G04 #@! TD.AperFunction*
G04 #@! TA.AperFunction,SMDPad,CuDef*
G36*
G01*
X100855000Y-99435000D02*
X100545000Y-99435000D01*
G75*
G02*
X100390000Y-99280000I0J155000D01*
G01*
X100390000Y-98855000D01*
G75*
G02*
X100545000Y-98700000I155000J0D01*
G01*
X100855000Y-98700000D01*
G75*
G02*
X101010000Y-98855000I0J-155000D01*
G01*
X101010000Y-99280000D01*
G75*
G02*
X100855000Y-99435000I-155000J0D01*
G01*
G37*
G04 #@! TD.AperFunction*
G04 #@! TA.AperFunction,SMDPad,CuDef*
G36*
G01*
X100855000Y-98300000D02*
X100545000Y-98300000D01*
G75*
G02*
X100390000Y-98145000I0J155000D01*
G01*
X100390000Y-97720000D01*
G75*
G02*
X100545000Y-97565000I155000J0D01*
G01*
X100855000Y-97565000D01*
G75*
G02*
X101010000Y-97720000I0J-155000D01*
G01*
X101010000Y-98145000D01*
G75*
G02*
X100855000Y-98300000I-155000J0D01*
G01*
G37*
G04 #@! TD.AperFunction*
G04 #@! TA.AperFunction,SMDPad,CuDef*
G36*
G01*
X102265000Y-103145000D02*
X102575000Y-103145000D01*
G75*
G02*
X102730000Y-103300000I0J-155000D01*
G01*
X102730000Y-103725000D01*
G75*
G02*
X102575000Y-103880000I-155000J0D01*
G01*
X102265000Y-103880000D01*
G75*
G02*
X102110000Y-103725000I0J155000D01*
G01*
X102110000Y-103300000D01*
G75*
G02*
X102265000Y-103145000I155000J0D01*
G01*
G37*
G04 #@! TD.AperFunction*
G04 #@! TA.AperFunction,SMDPad,CuDef*
G36*
G01*
X102265000Y-104280000D02*
X102575000Y-104280000D01*
G75*
G02*
X102730000Y-104435000I0J-155000D01*
G01*
X102730000Y-104860000D01*
G75*
G02*
X102575000Y-105015000I-155000J0D01*
G01*
X102265000Y-105015000D01*
G75*
G02*
X102110000Y-104860000I0J155000D01*
G01*
X102110000Y-104435000D01*
G75*
G02*
X102265000Y-104280000I155000J0D01*
G01*
G37*
G04 #@! TD.AperFunction*
G04 #@! TA.AperFunction,SMDPad,CuDef*
G36*
G01*
X103569000Y-111677000D02*
X102619000Y-111677000D01*
G75*
G02*
X102369000Y-111427000I0J250000D01*
G01*
X102369000Y-110752000D01*
G75*
G02*
X102619000Y-110502000I250000J0D01*
G01*
X103569000Y-110502000D01*
G75*
G02*
X103819000Y-110752000I0J-250000D01*
G01*
X103819000Y-111427000D01*
G75*
G02*
X103569000Y-111677000I-250000J0D01*
G01*
G37*
G04 #@! TD.AperFunction*
G04 #@! TA.AperFunction,SMDPad,CuDef*
G36*
G01*
X103569000Y-109602000D02*
X102619000Y-109602000D01*
G75*
G02*
X102369000Y-109352000I0J250000D01*
G01*
X102369000Y-108677000D01*
G75*
G02*
X102619000Y-108427000I250000J0D01*
G01*
X103569000Y-108427000D01*
G75*
G02*
X103819000Y-108677000I0J-250000D01*
G01*
X103819000Y-109352000D01*
G75*
G02*
X103569000Y-109602000I-250000J0D01*
G01*
G37*
G04 #@! TD.AperFunction*
G04 #@! TA.AperFunction,SMDPad,CuDef*
G36*
G01*
X100460000Y-111285500D02*
X101410000Y-111285500D01*
G75*
G02*
X101660000Y-111535500I0J-250000D01*
G01*
X101660000Y-112210500D01*
G75*
G02*
X101410000Y-112460500I-250000J0D01*
G01*
X100460000Y-112460500D01*
G75*
G02*
X100210000Y-112210500I0J250000D01*
G01*
X100210000Y-111535500D01*
G75*
G02*
X100460000Y-111285500I250000J0D01*
G01*
G37*
G04 #@! TD.AperFunction*
G04 #@! TA.AperFunction,SMDPad,CuDef*
G36*
G01*
X100460000Y-109210500D02*
X101410000Y-109210500D01*
G75*
G02*
X101660000Y-109460500I0J-250000D01*
G01*
X101660000Y-110135500D01*
G75*
G02*
X101410000Y-110385500I-250000J0D01*
G01*
X100460000Y-110385500D01*
G75*
G02*
X100210000Y-110135500I0J250000D01*
G01*
X100210000Y-109460500D01*
G75*
G02*
X100460000Y-109210500I250000J0D01*
G01*
G37*
G04 #@! TD.AperFunction*
G04 #@! TA.AperFunction,SMDPad,CuDef*
G36*
G01*
X95319000Y-110633000D02*
X95629000Y-110633000D01*
G75*
G02*
X95784000Y-110788000I0J-155000D01*
G01*
X95784000Y-111213000D01*
G75*
G02*
X95629000Y-111368000I-155000J0D01*
G01*
X95319000Y-111368000D01*
G75*
G02*
X95164000Y-111213000I0J155000D01*
G01*
X95164000Y-110788000D01*
G75*
G02*
X95319000Y-110633000I155000J0D01*
G01*
G37*
G04 #@! TD.AperFunction*
G04 #@! TA.AperFunction,SMDPad,CuDef*
G36*
G01*
X95319000Y-109498000D02*
X95629000Y-109498000D01*
G75*
G02*
X95784000Y-109653000I0J-155000D01*
G01*
X95784000Y-110078000D01*
G75*
G02*
X95629000Y-110233000I-155000J0D01*
G01*
X95319000Y-110233000D01*
G75*
G02*
X95164000Y-110078000I0J155000D01*
G01*
X95164000Y-109653000D01*
G75*
G02*
X95319000Y-109498000I155000J0D01*
G01*
G37*
G04 #@! TD.AperFunction*
G04 #@! TA.AperFunction,SMDPad,CuDef*
G36*
G01*
X97814000Y-110786000D02*
X97814000Y-111096000D01*
G75*
G02*
X97659000Y-111251000I-155000J0D01*
G01*
X97234000Y-111251000D01*
G75*
G02*
X97079000Y-111096000I0J155000D01*
G01*
X97079000Y-110786000D01*
G75*
G02*
X97234000Y-110631000I155000J0D01*
G01*
X97659000Y-110631000D01*
G75*
G02*
X97814000Y-110786000I0J-155000D01*
G01*
G37*
G04 #@! TD.AperFunction*
G04 #@! TA.AperFunction,SMDPad,CuDef*
G36*
G01*
X98949000Y-110786000D02*
X98949000Y-111096000D01*
G75*
G02*
X98794000Y-111251000I-155000J0D01*
G01*
X98369000Y-111251000D01*
G75*
G02*
X98214000Y-111096000I0J155000D01*
G01*
X98214000Y-110786000D01*
G75*
G02*
X98369000Y-110631000I155000J0D01*
G01*
X98794000Y-110631000D01*
G75*
G02*
X98949000Y-110786000I0J-155000D01*
G01*
G37*
G04 #@! TD.AperFunction*
G04 #@! TA.AperFunction,SMDPad,CuDef*
G36*
G01*
X97052000Y-109643000D02*
X97052000Y-109953000D01*
G75*
G02*
X96897000Y-110108000I-155000J0D01*
G01*
X96472000Y-110108000D01*
G75*
G02*
X96317000Y-109953000I0J155000D01*
G01*
X96317000Y-109643000D01*
G75*
G02*
X96472000Y-109488000I155000J0D01*
G01*
X96897000Y-109488000D01*
G75*
G02*
X97052000Y-109643000I0J-155000D01*
G01*
G37*
G04 #@! TD.AperFunction*
G04 #@! TA.AperFunction,SMDPad,CuDef*
G36*
G01*
X98187000Y-109643000D02*
X98187000Y-109953000D01*
G75*
G02*
X98032000Y-110108000I-155000J0D01*
G01*
X97607000Y-110108000D01*
G75*
G02*
X97452000Y-109953000I0J155000D01*
G01*
X97452000Y-109643000D01*
G75*
G02*
X97607000Y-109488000I155000J0D01*
G01*
X98032000Y-109488000D01*
G75*
G02*
X98187000Y-109643000I0J-155000D01*
G01*
G37*
G04 #@! TD.AperFunction*
G04 #@! TA.AperFunction,SMDPad,CuDef*
G36*
G01*
X93095000Y-110862500D02*
X92145000Y-110862500D01*
G75*
G02*
X91895000Y-110612500I0J250000D01*
G01*
X91895000Y-109937500D01*
G75*
G02*
X92145000Y-109687500I250000J0D01*
G01*
X93095000Y-109687500D01*
G75*
G02*
X93345000Y-109937500I0J-250000D01*
G01*
X93345000Y-110612500D01*
G75*
G02*
X93095000Y-110862500I-250000J0D01*
G01*
G37*
G04 #@! TD.AperFunction*
G04 #@! TA.AperFunction,SMDPad,CuDef*
G36*
G01*
X93095000Y-108787500D02*
X92145000Y-108787500D01*
G75*
G02*
X91895000Y-108537500I0J250000D01*
G01*
X91895000Y-107862500D01*
G75*
G02*
X92145000Y-107612500I250000J0D01*
G01*
X93095000Y-107612500D01*
G75*
G02*
X93345000Y-107862500I0J-250000D01*
G01*
X93345000Y-108537500D01*
G75*
G02*
X93095000Y-108787500I-250000J0D01*
G01*
G37*
G04 #@! TD.AperFunction*
G04 #@! TA.AperFunction,SMDPad,CuDef*
G36*
G01*
X112665000Y-101255000D02*
X112665000Y-100945000D01*
G75*
G02*
X112820000Y-100790000I155000J0D01*
G01*
X113245000Y-100790000D01*
G75*
G02*
X113400000Y-100945000I0J-155000D01*
G01*
X113400000Y-101255000D01*
G75*
G02*
X113245000Y-101410000I-155000J0D01*
G01*
X112820000Y-101410000D01*
G75*
G02*
X112665000Y-101255000I0J155000D01*
G01*
G37*
G04 #@! TD.AperFunction*
G04 #@! TA.AperFunction,SMDPad,CuDef*
G36*
G01*
X113800000Y-101255000D02*
X113800000Y-100945000D01*
G75*
G02*
X113955000Y-100790000I155000J0D01*
G01*
X114380000Y-100790000D01*
G75*
G02*
X114535000Y-100945000I0J-155000D01*
G01*
X114535000Y-101255000D01*
G75*
G02*
X114380000Y-101410000I-155000J0D01*
G01*
X113955000Y-101410000D01*
G75*
G02*
X113800000Y-101255000I0J155000D01*
G01*
G37*
G04 #@! TD.AperFunction*
G04 #@! TA.AperFunction,SMDPad,CuDef*
G36*
G01*
X112665000Y-100155000D02*
X112665000Y-99845000D01*
G75*
G02*
X112820000Y-99690000I155000J0D01*
G01*
X113245000Y-99690000D01*
G75*
G02*
X113400000Y-99845000I0J-155000D01*
G01*
X113400000Y-100155000D01*
G75*
G02*
X113245000Y-100310000I-155000J0D01*
G01*
X112820000Y-100310000D01*
G75*
G02*
X112665000Y-100155000I0J155000D01*
G01*
G37*
G04 #@! TD.AperFunction*
G04 #@! TA.AperFunction,SMDPad,CuDef*
G36*
G01*
X113800000Y-100155000D02*
X113800000Y-99845000D01*
G75*
G02*
X113955000Y-99690000I155000J0D01*
G01*
X114380000Y-99690000D01*
G75*
G02*
X114535000Y-99845000I0J-155000D01*
G01*
X114535000Y-100155000D01*
G75*
G02*
X114380000Y-100310000I-155000J0D01*
G01*
X113955000Y-100310000D01*
G75*
G02*
X113800000Y-100155000I0J155000D01*
G01*
G37*
G04 #@! TD.AperFunction*
G04 #@! TA.AperFunction,SMDPad,CuDef*
G36*
G01*
X94320000Y-98697500D02*
X94000000Y-98697500D01*
G75*
G02*
X93840000Y-98537500I0J160000D01*
G01*
X93840000Y-98142500D01*
G75*
G02*
X94000000Y-97982500I160000J0D01*
G01*
X94320000Y-97982500D01*
G75*
G02*
X94480000Y-98142500I0J-160000D01*
G01*
X94480000Y-98537500D01*
G75*
G02*
X94320000Y-98697500I-160000J0D01*
G01*
G37*
G04 #@! TD.AperFunction*
G04 #@! TA.AperFunction,SMDPad,CuDef*
G36*
G01*
X94320000Y-97502500D02*
X94000000Y-97502500D01*
G75*
G02*
X93840000Y-97342500I0J160000D01*
G01*
X93840000Y-96947500D01*
G75*
G02*
X94000000Y-96787500I160000J0D01*
G01*
X94320000Y-96787500D01*
G75*
G02*
X94480000Y-96947500I0J-160000D01*
G01*
X94480000Y-97342500D01*
G75*
G02*
X94320000Y-97502500I-160000J0D01*
G01*
G37*
G04 #@! TD.AperFunction*
G04 #@! TA.AperFunction,SMDPad,CuDef*
G36*
G01*
X94000000Y-92762500D02*
X94000000Y-93237500D01*
G75*
G02*
X93762500Y-93475000I-237500J0D01*
G01*
X93187500Y-93475000D01*
G75*
G02*
X92950000Y-93237500I0J237500D01*
G01*
X92950000Y-92762500D01*
G75*
G02*
X93187500Y-92525000I237500J0D01*
G01*
X93762500Y-92525000D01*
G75*
G02*
X94000000Y-92762500I0J-237500D01*
G01*
G37*
G04 #@! TD.AperFunction*
G04 #@! TA.AperFunction,SMDPad,CuDef*
G36*
G01*
X92250000Y-92762500D02*
X92250000Y-93237500D01*
G75*
G02*
X92012500Y-93475000I-237500J0D01*
G01*
X91437500Y-93475000D01*
G75*
G02*
X91200000Y-93237500I0J237500D01*
G01*
X91200000Y-92762500D01*
G75*
G02*
X91437500Y-92525000I237500J0D01*
G01*
X92012500Y-92525000D01*
G75*
G02*
X92250000Y-92762500I0J-237500D01*
G01*
G37*
G04 #@! TD.AperFunction*
D11*
X122630000Y-104550000D03*
X122630000Y-108150000D03*
G04 #@! TA.AperFunction,SMDPad,CuDef*
G36*
G01*
X123130000Y-112250000D02*
X122130000Y-112250000D01*
G75*
G02*
X121630000Y-111750000I0J500000D01*
G01*
X121630000Y-111750000D01*
G75*
G02*
X122130000Y-111250000I500000J0D01*
G01*
X123130000Y-111250000D01*
G75*
G02*
X123630000Y-111750000I0J-500000D01*
G01*
X123630000Y-111750000D01*
G75*
G02*
X123130000Y-112250000I-500000J0D01*
G01*
G37*
G04 #@! TD.AperFunction*
G04 #@! TA.AperFunction,SMDPad,CuDef*
G36*
G01*
X122132000Y-94000000D02*
X123132000Y-94000000D01*
G75*
G02*
X123632000Y-94500000I0J-500000D01*
G01*
X123632000Y-94500000D01*
G75*
G02*
X123132000Y-95000000I-500000J0D01*
G01*
X122132000Y-95000000D01*
G75*
G02*
X121632000Y-94500000I0J500000D01*
G01*
X121632000Y-94500000D01*
G75*
G02*
X122132000Y-94000000I500000J0D01*
G01*
G37*
G04 #@! TD.AperFunction*
X122632000Y-98100000D03*
X122632000Y-101700000D03*
D12*
X119320000Y-105460000D03*
X120320000Y-105460000D03*
D13*
X82600000Y-106600000D03*
X81900000Y-108100000D03*
X82750000Y-109500000D03*
X84400000Y-109400000D03*
X85400000Y-110800000D03*
X83500000Y-108000000D03*
D14*
X107916726Y-111333274D03*
X106750000Y-110850000D03*
X105583274Y-111333274D03*
X105100000Y-112500000D03*
X105583274Y-113666726D03*
X106750000Y-114150000D03*
X107916726Y-113666726D03*
X108400000Y-112500000D03*
D15*
X106750000Y-112500000D03*
D14*
X117166726Y-94083274D03*
X116000000Y-93600000D03*
X114833274Y-94083274D03*
X114350000Y-95250000D03*
X114833274Y-96416726D03*
X116000000Y-96900000D03*
X117166726Y-96416726D03*
X117650000Y-95250000D03*
D15*
X116000000Y-95250000D03*
D16*
X102508000Y-100288000D03*
X102508000Y-99188000D03*
D17*
X102508000Y-99738000D03*
G04 #@! TA.AperFunction,SMDPad,CuDef*
G36*
G01*
X103208000Y-99188000D02*
X103208000Y-98988000D01*
G75*
G02*
X103308000Y-98888000I100000J0D01*
G01*
X103708000Y-98888000D01*
G75*
G02*
X103808000Y-98988000I0J-100000D01*
G01*
X103808000Y-99188000D01*
G75*
G02*
X103708000Y-99288000I-100000J0D01*
G01*
X103308000Y-99288000D01*
G75*
G02*
X103208000Y-99188000I0J100000D01*
G01*
G37*
G04 #@! TD.AperFunction*
G04 #@! TA.AperFunction,SMDPad,CuDef*
G36*
G01*
X103208000Y-99838000D02*
X103208000Y-99638000D01*
G75*
G02*
X103308000Y-99538000I100000J0D01*
G01*
X103708000Y-99538000D01*
G75*
G02*
X103808000Y-99638000I0J-100000D01*
G01*
X103808000Y-99838000D01*
G75*
G02*
X103708000Y-99938000I-100000J0D01*
G01*
X103308000Y-99938000D01*
G75*
G02*
X103208000Y-99838000I0J100000D01*
G01*
G37*
G04 #@! TD.AperFunction*
G04 #@! TA.AperFunction,SMDPad,CuDef*
G36*
G01*
X103208000Y-100488000D02*
X103208000Y-100288000D01*
G75*
G02*
X103308000Y-100188000I100000J0D01*
G01*
X103708000Y-100188000D01*
G75*
G02*
X103808000Y-100288000I0J-100000D01*
G01*
X103808000Y-100488000D01*
G75*
G02*
X103708000Y-100588000I-100000J0D01*
G01*
X103308000Y-100588000D01*
G75*
G02*
X103208000Y-100488000I0J100000D01*
G01*
G37*
G04 #@! TD.AperFunction*
G04 #@! TA.AperFunction,SMDPad,CuDef*
G36*
G01*
X101208000Y-100488000D02*
X101208000Y-100288000D01*
G75*
G02*
X101308000Y-100188000I100000J0D01*
G01*
X101708000Y-100188000D01*
G75*
G02*
X101808000Y-100288000I0J-100000D01*
G01*
X101808000Y-100488000D01*
G75*
G02*
X101708000Y-100588000I-100000J0D01*
G01*
X101308000Y-100588000D01*
G75*
G02*
X101208000Y-100488000I0J100000D01*
G01*
G37*
G04 #@! TD.AperFunction*
G04 #@! TA.AperFunction,SMDPad,CuDef*
G36*
G01*
X101208000Y-99838000D02*
X101208000Y-99638000D01*
G75*
G02*
X101308000Y-99538000I100000J0D01*
G01*
X101708000Y-99538000D01*
G75*
G02*
X101808000Y-99638000I0J-100000D01*
G01*
X101808000Y-99838000D01*
G75*
G02*
X101708000Y-99938000I-100000J0D01*
G01*
X101308000Y-99938000D01*
G75*
G02*
X101208000Y-99838000I0J100000D01*
G01*
G37*
G04 #@! TD.AperFunction*
G04 #@! TA.AperFunction,SMDPad,CuDef*
G36*
G01*
X101208000Y-99188000D02*
X101208000Y-98988000D01*
G75*
G02*
X101308000Y-98888000I100000J0D01*
G01*
X101708000Y-98888000D01*
G75*
G02*
X101808000Y-98988000I0J-100000D01*
G01*
X101808000Y-99188000D01*
G75*
G02*
X101708000Y-99288000I-100000J0D01*
G01*
X101308000Y-99288000D01*
G75*
G02*
X101208000Y-99188000I0J100000D01*
G01*
G37*
G04 #@! TD.AperFunction*
G04 #@! TA.AperFunction,SMDPad,CuDef*
G36*
G01*
X98985000Y-101275000D02*
X98985000Y-100965000D01*
G75*
G02*
X99140000Y-100810000I155000J0D01*
G01*
X99565000Y-100810000D01*
G75*
G02*
X99720000Y-100965000I0J-155000D01*
G01*
X99720000Y-101275000D01*
G75*
G02*
X99565000Y-101430000I-155000J0D01*
G01*
X99140000Y-101430000D01*
G75*
G02*
X98985000Y-101275000I0J155000D01*
G01*
G37*
G04 #@! TD.AperFunction*
G04 #@! TA.AperFunction,SMDPad,CuDef*
G36*
G01*
X100120000Y-101275000D02*
X100120000Y-100965000D01*
G75*
G02*
X100275000Y-100810000I155000J0D01*
G01*
X100700000Y-100810000D01*
G75*
G02*
X100855000Y-100965000I0J-155000D01*
G01*
X100855000Y-101275000D01*
G75*
G02*
X100700000Y-101430000I-155000J0D01*
G01*
X100275000Y-101430000D01*
G75*
G02*
X100120000Y-101275000I0J155000D01*
G01*
G37*
G04 #@! TD.AperFunction*
D18*
X116134000Y-103026000D03*
X115484000Y-103026000D03*
X114834000Y-103026000D03*
X114184000Y-103026000D03*
X114184000Y-107426000D03*
X114834000Y-107426000D03*
X115484000Y-107426000D03*
X116134000Y-107426000D03*
G04 #@! TA.AperFunction,SMDPad,CuDef*
G36*
G01*
X96200000Y-100645000D02*
X96200000Y-100955000D01*
G75*
G02*
X96045000Y-101110000I-155000J0D01*
G01*
X95620000Y-101110000D01*
G75*
G02*
X95465000Y-100955000I0J155000D01*
G01*
X95465000Y-100645000D01*
G75*
G02*
X95620000Y-100490000I155000J0D01*
G01*
X96045000Y-100490000D01*
G75*
G02*
X96200000Y-100645000I0J-155000D01*
G01*
G37*
G04 #@! TD.AperFunction*
G04 #@! TA.AperFunction,SMDPad,CuDef*
G36*
G01*
X97335000Y-100645000D02*
X97335000Y-100955000D01*
G75*
G02*
X97180000Y-101110000I-155000J0D01*
G01*
X96755000Y-101110000D01*
G75*
G02*
X96600000Y-100955000I0J155000D01*
G01*
X96600000Y-100645000D01*
G75*
G02*
X96755000Y-100490000I155000J0D01*
G01*
X97180000Y-100490000D01*
G75*
G02*
X97335000Y-100645000I0J-155000D01*
G01*
G37*
G04 #@! TD.AperFunction*
G04 #@! TA.AperFunction,SMDPad,CuDef*
G36*
G01*
X98045000Y-96167500D02*
X98355000Y-96167500D01*
G75*
G02*
X98510000Y-96322500I0J-155000D01*
G01*
X98510000Y-96747500D01*
G75*
G02*
X98355000Y-96902500I-155000J0D01*
G01*
X98045000Y-96902500D01*
G75*
G02*
X97890000Y-96747500I0J155000D01*
G01*
X97890000Y-96322500D01*
G75*
G02*
X98045000Y-96167500I155000J0D01*
G01*
G37*
G04 #@! TD.AperFunction*
G04 #@! TA.AperFunction,SMDPad,CuDef*
G36*
G01*
X98045000Y-95032500D02*
X98355000Y-95032500D01*
G75*
G02*
X98510000Y-95187500I0J-155000D01*
G01*
X98510000Y-95612500D01*
G75*
G02*
X98355000Y-95767500I-155000J0D01*
G01*
X98045000Y-95767500D01*
G75*
G02*
X97890000Y-95612500I0J155000D01*
G01*
X97890000Y-95187500D01*
G75*
G02*
X98045000Y-95032500I155000J0D01*
G01*
G37*
G04 #@! TD.AperFunction*
G04 #@! TA.AperFunction,SMDPad,CuDef*
G36*
G01*
X99025000Y-94350001D02*
X99025000Y-93649999D01*
G75*
G02*
X99274999Y-93400000I249999J0D01*
G01*
X99825001Y-93400000D01*
G75*
G02*
X100075000Y-93649999I0J-249999D01*
G01*
X100075000Y-94350001D01*
G75*
G02*
X99825001Y-94600000I-249999J0D01*
G01*
X99274999Y-94600000D01*
G75*
G02*
X99025000Y-94350001I0J249999D01*
G01*
G37*
G04 #@! TD.AperFunction*
G04 #@! TA.AperFunction,SMDPad,CuDef*
G36*
G01*
X96725000Y-94350001D02*
X96725000Y-93649999D01*
G75*
G02*
X96974999Y-93400000I249999J0D01*
G01*
X97525001Y-93400000D01*
G75*
G02*
X97775000Y-93649999I0J-249999D01*
G01*
X97775000Y-94350001D01*
G75*
G02*
X97525001Y-94600000I-249999J0D01*
G01*
X96974999Y-94600000D01*
G75*
G02*
X96725000Y-94350001I0J249999D01*
G01*
G37*
G04 #@! TD.AperFunction*
G04 #@! TA.AperFunction,SMDPad,CuDef*
G36*
G01*
X96160000Y-99540000D02*
X96160000Y-99860000D01*
G75*
G02*
X96000000Y-100020000I-160000J0D01*
G01*
X95605000Y-100020000D01*
G75*
G02*
X95445000Y-99860000I0J160000D01*
G01*
X95445000Y-99540000D01*
G75*
G02*
X95605000Y-99380000I160000J0D01*
G01*
X96000000Y-99380000D01*
G75*
G02*
X96160000Y-99540000I0J-160000D01*
G01*
G37*
G04 #@! TD.AperFunction*
G04 #@! TA.AperFunction,SMDPad,CuDef*
G36*
G01*
X97355000Y-99540000D02*
X97355000Y-99860000D01*
G75*
G02*
X97195000Y-100020000I-160000J0D01*
G01*
X96800000Y-100020000D01*
G75*
G02*
X96640000Y-99860000I0J160000D01*
G01*
X96640000Y-99540000D01*
G75*
G02*
X96800000Y-99380000I160000J0D01*
G01*
X97195000Y-99380000D01*
G75*
G02*
X97355000Y-99540000I0J-160000D01*
G01*
G37*
G04 #@! TD.AperFunction*
G04 #@! TA.AperFunction,SMDPad,CuDef*
G36*
G01*
X96640000Y-98760000D02*
X96640000Y-98440000D01*
G75*
G02*
X96800000Y-98280000I160000J0D01*
G01*
X97195000Y-98280000D01*
G75*
G02*
X97355000Y-98440000I0J-160000D01*
G01*
X97355000Y-98760000D01*
G75*
G02*
X97195000Y-98920000I-160000J0D01*
G01*
X96800000Y-98920000D01*
G75*
G02*
X96640000Y-98760000I0J160000D01*
G01*
G37*
G04 #@! TD.AperFunction*
G04 #@! TA.AperFunction,SMDPad,CuDef*
G36*
G01*
X95445000Y-98760000D02*
X95445000Y-98440000D01*
G75*
G02*
X95605000Y-98280000I160000J0D01*
G01*
X96000000Y-98280000D01*
G75*
G02*
X96160000Y-98440000I0J-160000D01*
G01*
X96160000Y-98760000D01*
G75*
G02*
X96000000Y-98920000I-160000J0D01*
G01*
X95605000Y-98920000D01*
G75*
G02*
X95445000Y-98760000I0J160000D01*
G01*
G37*
G04 #@! TD.AperFunction*
G04 #@! TA.AperFunction,SMDPad,CuDef*
G36*
G01*
X95512500Y-96075000D02*
X95387500Y-96075000D01*
G75*
G02*
X95325000Y-96012500I0J62500D01*
G01*
X95325000Y-95337500D01*
G75*
G02*
X95387500Y-95275000I62500J0D01*
G01*
X95512500Y-95275000D01*
G75*
G02*
X95575000Y-95337500I0J-62500D01*
G01*
X95575000Y-96012500D01*
G75*
G02*
X95512500Y-96075000I-62500J0D01*
G01*
G37*
G04 #@! TD.AperFunction*
G04 #@! TA.AperFunction,SMDPad,CuDef*
G36*
G01*
X96012500Y-96075000D02*
X95887500Y-96075000D01*
G75*
G02*
X95825000Y-96012500I0J62500D01*
G01*
X95825000Y-95337500D01*
G75*
G02*
X95887500Y-95275000I62500J0D01*
G01*
X96012500Y-95275000D01*
G75*
G02*
X96075000Y-95337500I0J-62500D01*
G01*
X96075000Y-96012500D01*
G75*
G02*
X96012500Y-96075000I-62500J0D01*
G01*
G37*
G04 #@! TD.AperFunction*
G04 #@! TA.AperFunction,SMDPad,CuDef*
G36*
G01*
X96512500Y-96075000D02*
X96387500Y-96075000D01*
G75*
G02*
X96325000Y-96012500I0J62500D01*
G01*
X96325000Y-95337500D01*
G75*
G02*
X96387500Y-95275000I62500J0D01*
G01*
X96512500Y-95275000D01*
G75*
G02*
X96575000Y-95337500I0J-62500D01*
G01*
X96575000Y-96012500D01*
G75*
G02*
X96512500Y-96075000I-62500J0D01*
G01*
G37*
G04 #@! TD.AperFunction*
G04 #@! TA.AperFunction,SMDPad,CuDef*
G36*
G01*
X97012500Y-96075000D02*
X96887500Y-96075000D01*
G75*
G02*
X96825000Y-96012500I0J62500D01*
G01*
X96825000Y-95337500D01*
G75*
G02*
X96887500Y-95275000I62500J0D01*
G01*
X97012500Y-95275000D01*
G75*
G02*
X97075000Y-95337500I0J-62500D01*
G01*
X97075000Y-96012500D01*
G75*
G02*
X97012500Y-96075000I-62500J0D01*
G01*
G37*
G04 #@! TD.AperFunction*
G04 #@! TA.AperFunction,SMDPad,CuDef*
G36*
G01*
X97012500Y-97525000D02*
X96887500Y-97525000D01*
G75*
G02*
X96825000Y-97462500I0J62500D01*
G01*
X96825000Y-96787500D01*
G75*
G02*
X96887500Y-96725000I62500J0D01*
G01*
X97012500Y-96725000D01*
G75*
G02*
X97075000Y-96787500I0J-62500D01*
G01*
X97075000Y-97462500D01*
G75*
G02*
X97012500Y-97525000I-62500J0D01*
G01*
G37*
G04 #@! TD.AperFunction*
G04 #@! TA.AperFunction,SMDPad,CuDef*
G36*
G01*
X96512500Y-97525000D02*
X96387500Y-97525000D01*
G75*
G02*
X96325000Y-97462500I0J62500D01*
G01*
X96325000Y-96787500D01*
G75*
G02*
X96387500Y-96725000I62500J0D01*
G01*
X96512500Y-96725000D01*
G75*
G02*
X96575000Y-96787500I0J-62500D01*
G01*
X96575000Y-97462500D01*
G75*
G02*
X96512500Y-97525000I-62500J0D01*
G01*
G37*
G04 #@! TD.AperFunction*
G04 #@! TA.AperFunction,SMDPad,CuDef*
G36*
G01*
X96012500Y-97525000D02*
X95887500Y-97525000D01*
G75*
G02*
X95825000Y-97462500I0J62500D01*
G01*
X95825000Y-96787500D01*
G75*
G02*
X95887500Y-96725000I62500J0D01*
G01*
X96012500Y-96725000D01*
G75*
G02*
X96075000Y-96787500I0J-62500D01*
G01*
X96075000Y-97462500D01*
G75*
G02*
X96012500Y-97525000I-62500J0D01*
G01*
G37*
G04 #@! TD.AperFunction*
G04 #@! TA.AperFunction,SMDPad,CuDef*
G36*
G01*
X95512500Y-97525000D02*
X95387500Y-97525000D01*
G75*
G02*
X95325000Y-97462500I0J62500D01*
G01*
X95325000Y-96787500D01*
G75*
G02*
X95387500Y-96725000I62500J0D01*
G01*
X95512500Y-96725000D01*
G75*
G02*
X95575000Y-96787500I0J-62500D01*
G01*
X95575000Y-97462500D01*
G75*
G02*
X95512500Y-97525000I-62500J0D01*
G01*
G37*
G04 #@! TD.AperFunction*
G04 #@! TA.AperFunction,SMDPad,CuDef*
G36*
G01*
X94932500Y-94245000D02*
X94932500Y-94555000D01*
G75*
G02*
X94777500Y-94710000I-155000J0D01*
G01*
X94352500Y-94710000D01*
G75*
G02*
X94197500Y-94555000I0J155000D01*
G01*
X94197500Y-94245000D01*
G75*
G02*
X94352500Y-94090000I155000J0D01*
G01*
X94777500Y-94090000D01*
G75*
G02*
X94932500Y-94245000I0J-155000D01*
G01*
G37*
G04 #@! TD.AperFunction*
G04 #@! TA.AperFunction,SMDPad,CuDef*
G36*
G01*
X96067500Y-94245000D02*
X96067500Y-94555000D01*
G75*
G02*
X95912500Y-94710000I-155000J0D01*
G01*
X95487500Y-94710000D01*
G75*
G02*
X95332500Y-94555000I0J155000D01*
G01*
X95332500Y-94245000D01*
G75*
G02*
X95487500Y-94090000I155000J0D01*
G01*
X95912500Y-94090000D01*
G75*
G02*
X96067500Y-94245000I0J-155000D01*
G01*
G37*
G04 #@! TD.AperFunction*
D19*
X110520000Y-93800000D03*
X101880000Y-93800000D03*
X101880000Y-90000000D03*
X110520000Y-90000000D03*
D20*
X90750000Y-98000000D03*
X91300000Y-103400000D03*
X93600000Y-111000000D03*
D21*
X95982990Y-111817010D03*
D20*
X93600000Y-110000000D03*
X92800000Y-103400000D03*
X99500000Y-95300000D03*
D21*
X83720000Y-105350000D03*
X84100000Y-103330000D03*
X84630000Y-103760000D03*
X85930000Y-107470000D03*
X84820000Y-106290000D03*
X84270000Y-105590000D03*
X93960000Y-103190000D03*
X91770000Y-104290000D03*
X90510000Y-104220000D03*
X100140000Y-114470000D03*
D20*
X103100000Y-90000000D03*
X109300000Y-90000000D03*
D21*
X104286000Y-100500000D03*
X104286000Y-101008000D03*
D20*
X117600000Y-103500000D03*
X104000000Y-110500000D03*
X80900000Y-111500000D03*
X81900000Y-111500000D03*
X101400000Y-113200000D03*
X81300000Y-102000000D03*
D21*
X96600000Y-115000000D03*
X96600000Y-114500000D03*
X93700000Y-114500000D03*
X93700000Y-115000000D03*
D20*
X88900000Y-96100000D03*
X87000000Y-96100000D03*
X109600000Y-100000000D03*
X94980000Y-107680000D03*
X110000000Y-111000000D03*
X97250000Y-104750000D03*
X99250000Y-106500000D03*
X97250000Y-106500000D03*
X83500000Y-110500000D03*
X122600000Y-107250000D03*
D21*
X120495000Y-106135000D03*
X119595000Y-106155000D03*
D20*
X121250000Y-98000000D03*
D21*
X98000000Y-102250000D03*
X98500000Y-102250000D03*
X99000000Y-102250000D03*
X99500000Y-102250000D03*
X100000000Y-102250000D03*
X96500000Y-102250000D03*
X97000000Y-102250000D03*
D20*
X94750000Y-103500000D03*
X99250000Y-104750000D03*
D21*
X96249500Y-111000500D03*
X97127750Y-110622250D03*
X96517250Y-110267250D03*
X101400000Y-100900000D03*
D20*
X101600000Y-98000000D03*
D21*
X99600000Y-109170000D03*
D20*
X110700000Y-102400000D03*
X110500000Y-109800000D03*
X91500000Y-107700000D03*
X91500000Y-108600000D03*
D21*
X112380000Y-99080000D03*
X118700000Y-109300000D03*
X112500000Y-99700000D03*
D20*
X117940000Y-109180000D03*
D21*
X122680000Y-102930000D03*
D20*
X122750000Y-105700000D03*
D21*
X119475000Y-104775000D03*
D20*
X115720000Y-105600000D03*
X117400000Y-105650000D03*
X118240000Y-110600000D03*
X113730000Y-109150000D03*
X104790000Y-108980000D03*
X103280000Y-113250000D03*
X117750000Y-112750000D03*
X119353333Y-112990000D03*
X119330000Y-114370000D03*
X121286666Y-112990000D03*
X121280000Y-114370000D03*
X123220000Y-112990000D03*
X123230000Y-114370000D03*
X121100000Y-100300000D03*
X122770000Y-96230000D03*
X120810000Y-96230000D03*
X119070000Y-93730000D03*
X120660000Y-92750000D03*
X122710000Y-92760000D03*
X110000000Y-92200000D03*
X107450000Y-92300000D03*
X104900000Y-92300000D03*
X89760000Y-108260000D03*
X88810000Y-109560000D03*
X90460000Y-110140000D03*
X87640000Y-102190000D03*
X81260000Y-92760000D03*
X82760000Y-92760000D03*
X84260000Y-92760000D03*
X81260000Y-94260000D03*
X82760000Y-94260000D03*
X84260000Y-94260000D03*
X81260000Y-95760000D03*
X82760000Y-95760000D03*
X84260000Y-95760000D03*
X85320000Y-90750000D03*
X91080000Y-96940000D03*
X92920000Y-91540000D03*
D21*
X112260000Y-101100000D03*
D20*
X103360000Y-103440000D03*
X121960000Y-106370000D03*
D21*
X98880000Y-101520000D03*
X99520000Y-101570000D03*
X102860000Y-102410000D03*
X101740000Y-101540000D03*
D20*
X106800000Y-99330000D03*
X105240000Y-98010000D03*
X81680000Y-105000000D03*
D21*
X100760000Y-114460000D03*
X108260000Y-101500000D03*
X106340000Y-101130000D03*
D20*
X98200000Y-97300000D03*
X93500000Y-97200000D03*
X93500000Y-94500000D03*
X94600000Y-95600000D03*
D21*
X97300000Y-95100000D03*
X97400000Y-95700000D03*
D20*
X97900000Y-98300000D03*
X100800000Y-95300000D03*
X103400000Y-95500000D03*
X102000000Y-95300000D03*
X110600000Y-95300000D03*
X109000000Y-95500000D03*
D21*
X118800000Y-90450000D03*
X112550000Y-90550000D03*
D20*
X105700000Y-99100000D03*
X106435000Y-98365000D03*
X119740000Y-108810000D03*
X119730000Y-109860000D03*
X114500000Y-98900000D03*
X113500000Y-98900000D03*
X87000000Y-94000000D03*
X99200000Y-114600000D03*
X88270999Y-94000000D03*
X87000000Y-91000000D03*
X107700000Y-93400000D03*
X104700000Y-93400000D03*
X88250000Y-90000000D03*
X80800000Y-104400000D03*
D21*
X93900000Y-104100000D03*
X112850000Y-89650000D03*
X106900000Y-100313186D03*
X119150000Y-89600000D03*
X107600000Y-100900000D03*
D20*
X83400000Y-104300000D03*
X85400000Y-105400000D03*
X86400000Y-106200000D03*
D22*
X98518000Y-108044500D02*
X98518000Y-108905000D01*
X98581500Y-108968500D02*
X98581500Y-110941000D01*
X98518000Y-108905000D02*
X98581500Y-108968500D01*
X98018000Y-109599500D02*
X97819500Y-109798000D01*
X98018000Y-108044500D02*
X98018000Y-109599500D01*
D23*
X90750000Y-98000000D02*
X90750000Y-98000000D01*
X90750000Y-98000000D02*
X90750000Y-102550000D01*
X90750000Y-102850000D02*
X90750000Y-102550000D01*
X91300000Y-103400000D02*
X90750000Y-102850000D01*
D22*
X100720500Y-99088000D02*
X100700000Y-99067500D01*
X101508000Y-99088000D02*
X100720500Y-99088000D01*
D23*
X100218884Y-99067500D02*
X99871000Y-98719616D01*
X100700000Y-99067500D02*
X100218884Y-99067500D01*
X99871000Y-97539798D02*
X99871000Y-98719616D01*
X98581500Y-110560000D02*
X97819500Y-109798000D01*
X92620000Y-110275000D02*
X92345000Y-110275000D01*
X92820000Y-110475000D02*
X92620000Y-110275000D01*
X92620000Y-110275000D02*
X92765000Y-110275000D01*
X97792192Y-111817010D02*
X95982990Y-111817010D01*
X94307010Y-111817010D02*
X93530000Y-111040000D01*
X95982990Y-111817010D02*
X94307010Y-111817010D01*
D22*
X101508000Y-99738000D02*
X100438000Y-99738000D01*
X99871000Y-99171000D02*
X99871000Y-98719616D01*
X100438000Y-99738000D02*
X99871000Y-99171000D01*
D23*
X98581500Y-110560000D02*
X98581500Y-110941000D01*
X98015490Y-111817010D02*
X97792192Y-111817010D01*
X98581500Y-111251000D02*
X98015490Y-111817010D01*
X98581500Y-110941000D02*
X98581500Y-111251000D01*
X92875000Y-110275000D02*
X93600000Y-111000000D01*
X92620000Y-110275000D02*
X92875000Y-110275000D01*
X93325000Y-110275000D02*
X93600000Y-110000000D01*
X92620000Y-110275000D02*
X93325000Y-110275000D01*
D22*
X94294574Y-110000000D02*
X93600000Y-110000000D01*
X96250074Y-108044500D02*
X94294574Y-110000000D01*
X96518000Y-108044500D02*
X96250074Y-108044500D01*
D23*
X97710798Y-99700000D02*
X96997500Y-99700000D01*
X99871000Y-97539798D02*
X97710798Y-99700000D01*
X96997500Y-100770000D02*
X96967500Y-100800000D01*
X96997500Y-99700000D02*
X96997500Y-100770000D01*
X94640990Y-101559010D02*
X92800000Y-103400000D01*
X96518490Y-101559010D02*
X94640990Y-101559010D01*
X96967500Y-101110000D02*
X96518490Y-101559010D01*
X96967500Y-100800000D02*
X96967500Y-101110000D01*
X98510000Y-95400000D02*
X98200000Y-95400000D01*
X99871000Y-97539798D02*
X99871000Y-96761000D01*
X99871000Y-96761000D02*
X98510000Y-95400000D01*
X98200000Y-95350000D02*
X99550000Y-94000000D01*
X98200000Y-95400000D02*
X98200000Y-95350000D01*
X99550000Y-95250000D02*
X99500000Y-95300000D01*
X99550000Y-94000000D02*
X99550000Y-95250000D01*
X99400000Y-95400000D02*
X99500000Y-95300000D01*
X98200000Y-95400000D02*
X99400000Y-95400000D01*
X99500000Y-96390000D02*
X99871000Y-96761000D01*
X99500000Y-95300000D02*
X99500000Y-96390000D01*
D22*
X97518000Y-108964500D02*
X96684500Y-109798000D01*
X97518000Y-108044500D02*
X97518000Y-108964500D01*
D23*
X104286000Y-100500000D02*
X104286000Y-101008000D01*
X104734500Y-100500000D02*
X104921000Y-100686500D01*
X104286000Y-100500000D02*
X104734500Y-100500000D01*
D22*
X99518000Y-104357000D02*
X98268000Y-105607000D01*
D23*
X97387000Y-111000500D02*
X97446500Y-110941000D01*
X95474000Y-111000500D02*
X96249500Y-111000500D01*
X95474000Y-111000500D02*
X95784000Y-111000500D01*
X97446500Y-110941000D02*
X97127750Y-110622250D01*
D22*
X101620500Y-100388000D02*
X101682999Y-100388000D01*
X99157000Y-104718000D02*
X99518000Y-104357000D01*
D23*
X88679000Y-96100000D02*
X87813000Y-95234000D01*
X88900000Y-96100000D02*
X88679000Y-96100000D01*
X87000000Y-96047000D02*
X87813000Y-95234000D01*
X87000000Y-96100000D02*
X87000000Y-96047000D01*
X87000000Y-96100000D02*
X88900000Y-96100000D01*
X87000000Y-96100000D02*
X87500000Y-96100000D01*
X87500000Y-96100000D02*
X87800000Y-95800000D01*
X111386500Y-102432000D02*
X111248500Y-102432000D01*
X109500000Y-100683500D02*
X109597500Y-100781000D01*
D22*
X99518000Y-106857000D02*
X98268000Y-105607000D01*
X95303000Y-107357000D02*
X94980000Y-107680000D01*
X95830500Y-107357000D02*
X95303000Y-107357000D01*
D23*
X95227990Y-107432010D02*
X95303000Y-107432010D01*
X94980000Y-107680000D02*
X95227990Y-107432010D01*
X103410500Y-111089500D02*
X104000000Y-110500000D01*
X103094000Y-111089500D02*
X103410500Y-111089500D01*
X110867500Y-111068000D02*
X110867500Y-110867500D01*
D22*
X101516500Y-100492000D02*
X101620500Y-100388000D01*
D23*
X122632000Y-101700000D02*
X122632000Y-101668000D01*
X122630000Y-107280000D02*
X122600000Y-107250000D01*
X122630000Y-108150000D02*
X122630000Y-107280000D01*
X121350000Y-98100000D02*
X121250000Y-98000000D01*
X122632000Y-98100000D02*
X121350000Y-98100000D01*
D22*
X97000000Y-103151500D02*
X97018000Y-103169500D01*
X97000000Y-102250000D02*
X97000000Y-103151500D01*
X96518000Y-102268000D02*
X96500000Y-102250000D01*
X96518000Y-103169500D02*
X96518000Y-102268000D01*
X98018000Y-102268000D02*
X98000000Y-102250000D01*
X98018000Y-103169500D02*
X98018000Y-102268000D01*
X98518000Y-102268000D02*
X98500000Y-102250000D01*
X98518000Y-103169500D02*
X98518000Y-102268000D01*
X99018000Y-102268000D02*
X99000000Y-102250000D01*
X99018000Y-103169500D02*
X99018000Y-102268000D01*
X99518000Y-102268000D02*
X99500000Y-102250000D01*
X99518000Y-103169500D02*
X99518000Y-102268000D01*
X95830500Y-103857000D02*
X95107000Y-103857000D01*
X99018000Y-104857000D02*
X98268000Y-105607000D01*
D23*
X96684500Y-110100000D02*
X96517250Y-110267250D01*
X96684500Y-109798000D02*
X96684500Y-110100000D01*
D22*
X101400000Y-100496000D02*
X101508000Y-100388000D01*
X101400000Y-100900000D02*
X101400000Y-100496000D01*
D23*
X100767500Y-98000000D02*
X100700000Y-97932500D01*
X101600000Y-98000000D02*
X100767500Y-98000000D01*
X110732000Y-102432000D02*
X110700000Y-102400000D01*
X111386500Y-102432000D02*
X110732000Y-102432000D01*
X110756000Y-109544000D02*
X110500000Y-109800000D01*
X111424000Y-109544000D02*
X110756000Y-109544000D01*
X110068000Y-111068000D02*
X110000000Y-111000000D01*
X110867500Y-111068000D02*
X110068000Y-111068000D01*
X92000000Y-108200000D02*
X91500000Y-107700000D01*
X92620000Y-108200000D02*
X92000000Y-108200000D01*
X91900000Y-108200000D02*
X91500000Y-108600000D01*
X92620000Y-108200000D02*
X91900000Y-108200000D01*
X112800000Y-100000000D02*
X112500000Y-99700000D01*
X113032500Y-100000000D02*
X112800000Y-100000000D01*
X117572000Y-108587500D02*
X117572000Y-108812000D01*
X117572000Y-108812000D02*
X117940000Y-109180000D01*
D22*
X118700000Y-108602500D02*
X118715000Y-108587500D01*
X118700000Y-109300000D02*
X118700000Y-108602500D01*
X100018000Y-103169500D02*
X100018000Y-102268000D01*
X100018000Y-102268000D02*
X100000000Y-102250000D01*
X95107000Y-103857000D02*
X94750000Y-103500000D01*
D23*
X113032500Y-101100000D02*
X112309010Y-101100000D01*
D22*
X99518000Y-109088000D02*
X99600000Y-109170000D01*
X99518000Y-108044500D02*
X99518000Y-109088000D01*
X101575500Y-104357000D02*
X102420000Y-103512500D01*
X100705500Y-104357000D02*
X101575500Y-104357000D01*
D23*
X103287500Y-103512500D02*
X103360000Y-103440000D01*
X102420000Y-103512500D02*
X103287500Y-103512500D01*
X99352500Y-101402500D02*
X99520000Y-101570000D01*
X99352500Y-101120000D02*
X99352500Y-101402500D01*
X99280000Y-101120000D02*
X98880000Y-101520000D01*
X99352500Y-101120000D02*
X99280000Y-101120000D01*
X101760000Y-101560000D02*
X101740000Y-101540000D01*
X102332500Y-101560000D02*
X101760000Y-101560000D01*
X104599500Y-101008000D02*
X104921000Y-100686500D01*
X104286000Y-101008000D02*
X104599500Y-101008000D01*
X109597500Y-100002500D02*
X109600000Y-100000000D01*
X109597500Y-100781000D02*
X109597500Y-100002500D01*
X112380000Y-99580000D02*
X112500000Y-99700000D01*
X112380000Y-99080000D02*
X112380000Y-99580000D01*
D22*
X96450000Y-98052500D02*
X96997500Y-98600000D01*
X96450000Y-97125000D02*
X96450000Y-98052500D01*
D23*
X97300000Y-95399010D02*
X97024010Y-95675000D01*
X97300000Y-95100000D02*
X97300000Y-95399010D01*
X97049010Y-95700000D02*
X97024010Y-95675000D01*
X97400000Y-95700000D02*
X97049010Y-95700000D01*
X95300990Y-95600000D02*
X95375990Y-95675000D01*
X94600000Y-95600000D02*
X95300990Y-95600000D01*
X93555000Y-97145000D02*
X93500000Y-97200000D01*
X94160000Y-97145000D02*
X93555000Y-97145000D01*
X98200000Y-96535000D02*
X98200000Y-97300000D01*
X97297500Y-98300000D02*
X96997500Y-98600000D01*
X97900000Y-98300000D02*
X97297500Y-98300000D01*
X93600000Y-94400000D02*
X93500000Y-94500000D01*
X94565000Y-94400000D02*
X93600000Y-94400000D01*
X101880000Y-95180000D02*
X102000000Y-95300000D01*
X101880000Y-93800000D02*
X101880000Y-95180000D01*
X110520000Y-95220000D02*
X110600000Y-95300000D01*
X110520000Y-93800000D02*
X110520000Y-95220000D01*
X110520000Y-90000000D02*
X109300000Y-90000000D01*
X101880000Y-90000000D02*
X103100000Y-90000000D01*
D22*
X96109010Y-109162990D02*
X95474000Y-109798000D01*
X96385032Y-109162990D02*
X96109010Y-109162990D01*
X97018000Y-108530022D02*
X96385032Y-109162990D01*
X97018000Y-108044500D02*
X97018000Y-108530022D01*
X100935000Y-111873000D02*
X100343000Y-111873000D01*
X99031510Y-108058010D02*
X99018000Y-108044500D01*
X99031510Y-110180510D02*
X99031510Y-108058010D01*
X100724000Y-111873000D02*
X99031510Y-110180510D01*
X100935000Y-111873000D02*
X100724000Y-111873000D01*
X100018000Y-108044500D02*
X100018000Y-108754000D01*
X100935000Y-109671000D02*
X100935000Y-109798000D01*
X100018000Y-108754000D02*
X100472000Y-109208000D01*
X100472000Y-109208000D02*
X100935000Y-109671000D01*
X103094000Y-109014500D02*
X103072500Y-109014500D01*
X101415000Y-107357000D02*
X100705500Y-107357000D01*
X103072500Y-109014500D02*
X101415000Y-107357000D01*
X101190500Y-103857000D02*
X100705500Y-103857000D01*
X100705500Y-101338000D02*
X100487500Y-101120000D01*
X100705500Y-103857000D02*
X100705500Y-101338000D01*
D23*
X104921000Y-99551500D02*
X104921000Y-99479000D01*
D22*
X104457500Y-99088000D02*
X104921000Y-99551500D01*
X103508000Y-99088000D02*
X104457500Y-99088000D01*
X104734500Y-99738000D02*
X104921000Y-99551500D01*
X103508000Y-99738000D02*
X104734500Y-99738000D01*
D23*
X105248500Y-99551500D02*
X105700000Y-99100000D01*
D22*
X102210500Y-104857000D02*
X102420000Y-104647500D01*
X100705500Y-104857000D02*
X102210500Y-104857000D01*
D23*
X105248500Y-99551500D02*
X106435000Y-98365000D01*
X104921000Y-99551500D02*
X105248500Y-99551500D01*
X104580000Y-103440000D02*
X103372500Y-104647500D01*
X104580000Y-102464548D02*
X104580000Y-103440000D01*
X105680010Y-100223808D02*
X105680010Y-101364538D01*
X105680010Y-101364538D02*
X104580000Y-102464548D01*
X103372500Y-104647500D02*
X102420000Y-104647500D01*
X104921000Y-99551500D02*
X104921000Y-99681000D01*
X105099990Y-99869990D02*
X105326192Y-99869990D01*
X105326192Y-99869990D02*
X105680010Y-100223808D01*
X104921000Y-99691000D02*
X105099990Y-99869990D01*
X104921000Y-99551500D02*
X104921000Y-99691000D01*
D22*
X95950000Y-94650000D02*
X95700000Y-94400000D01*
X95950000Y-95675000D02*
X95950000Y-94650000D01*
D23*
X94610000Y-93000000D02*
X93475000Y-93000000D01*
X95700000Y-94090000D02*
X94610000Y-93000000D01*
X95700000Y-94400000D02*
X95700000Y-94090000D01*
D22*
X103508000Y-101519500D02*
X103467500Y-101560000D01*
X103508000Y-100388000D02*
X103508000Y-101519500D01*
X117545500Y-107426000D02*
X117572000Y-107452500D01*
X116134000Y-107426000D02*
X117545500Y-107426000D01*
D23*
X117572000Y-107452500D02*
X118715000Y-107452500D01*
X119740000Y-108167500D02*
X119740000Y-108810000D01*
X119025000Y-107452500D02*
X119740000Y-108167500D01*
X118715000Y-107452500D02*
X119025000Y-107452500D01*
D22*
X114210500Y-99892000D02*
X114210500Y-101035000D01*
X114210500Y-102999500D02*
X114184000Y-103026000D01*
X114210500Y-101035000D02*
X114210500Y-102999500D01*
D23*
X114167500Y-99567500D02*
X113500000Y-98900000D01*
X114167500Y-100000000D02*
X114167500Y-99567500D01*
X114167500Y-99232500D02*
X114500000Y-98900000D01*
X114167500Y-100000000D02*
X114167500Y-99232500D01*
D22*
X109671500Y-103194000D02*
X109698000Y-103220500D01*
X108070500Y-103194000D02*
X109671500Y-103194000D01*
X110306500Y-103829000D02*
X109698000Y-103220500D01*
X111386500Y-103829000D02*
X110306500Y-103829000D01*
X109978500Y-105226000D02*
X109698000Y-104945500D01*
X111386500Y-105226000D02*
X109978500Y-105226000D01*
X108097000Y-104945500D02*
X108070500Y-104972000D01*
X109698000Y-104945500D02*
X108097000Y-104945500D01*
X112581500Y-102432000D02*
X112581500Y-103829000D01*
X114834000Y-103911002D02*
X114834000Y-103026000D01*
X114669001Y-104076001D02*
X114834000Y-103911002D01*
X112828501Y-104076001D02*
X114669001Y-104076001D01*
X112581500Y-103829000D02*
X112828501Y-104076001D01*
X111322500Y-101173000D02*
X112581500Y-102432000D01*
X111322500Y-100781000D02*
X111322500Y-101173000D01*
X116134000Y-103026000D02*
X116134000Y-102834000D01*
D23*
X117372500Y-98410978D02*
X117372500Y-99780000D01*
X121283478Y-94500000D02*
X117372500Y-98410978D01*
X122632000Y-94500000D02*
X121283478Y-94500000D01*
X117372500Y-100385000D02*
X116647500Y-101110000D01*
X117372500Y-99780000D02*
X117372500Y-100385000D01*
D22*
X116134000Y-101623500D02*
X116647500Y-101110000D01*
X116134000Y-103026000D02*
X116134000Y-101623500D01*
X115484000Y-104001000D02*
X115484000Y-103026000D01*
X114259000Y-105226000D02*
X115484000Y-104001000D01*
X112581500Y-105226000D02*
X114259000Y-105226000D01*
D23*
X115452500Y-99975000D02*
X115647500Y-99780000D01*
X115452500Y-101110000D02*
X115452500Y-99975000D01*
D22*
X115484000Y-101141500D02*
X115452500Y-101110000D01*
X115484000Y-103026000D02*
X115484000Y-101141500D01*
X109671500Y-108782000D02*
X109698000Y-108755500D01*
X108070500Y-108782000D02*
X109671500Y-108782000D01*
X110778000Y-108755500D02*
X111386500Y-108147000D01*
X109698000Y-108755500D02*
X110778000Y-108755500D01*
X109671500Y-107004000D02*
X109698000Y-107030500D01*
X108070500Y-107004000D02*
X109671500Y-107004000D01*
X109978500Y-106750000D02*
X109698000Y-107030500D01*
X111386500Y-106750000D02*
X109978500Y-106750000D01*
X112581500Y-109506500D02*
X112619000Y-109544000D01*
X112581500Y-108147000D02*
X112581500Y-109506500D01*
X112592500Y-109570500D02*
X112619000Y-109544000D01*
X112592500Y-111068000D02*
X112592500Y-109570500D01*
X113463000Y-108147000D02*
X114184000Y-107426000D01*
X112581500Y-108147000D02*
X113463000Y-108147000D01*
X116529500Y-109936000D02*
X116010500Y-109417000D01*
X116529500Y-110941000D02*
X116529500Y-109936000D01*
X115484000Y-108890500D02*
X116010500Y-109417000D01*
X115484000Y-107426000D02*
X115484000Y-108890500D01*
D23*
X117338500Y-111750000D02*
X116529500Y-110941000D01*
X122630000Y-111750000D02*
X117338500Y-111750000D01*
D22*
X114834000Y-106540998D02*
X114834000Y-107426000D01*
X114669001Y-106375999D02*
X114834000Y-106540998D01*
X112955501Y-106375999D02*
X114669001Y-106375999D01*
X112581500Y-106750000D02*
X112955501Y-106375999D01*
X114834000Y-109398500D02*
X114815500Y-109417000D01*
X114834000Y-107426000D02*
X114834000Y-109398500D01*
X114815500Y-110930000D02*
X114804500Y-110941000D01*
X114815500Y-109417000D02*
X114815500Y-110930000D01*
D23*
X87813000Y-93028998D02*
X87813000Y-93234000D01*
X87047000Y-94000000D02*
X87813000Y-93234000D01*
X87000000Y-94000000D02*
X87047000Y-94000000D01*
X88270999Y-93691999D02*
X87813000Y-93234000D01*
X88270999Y-94000000D02*
X88270999Y-93691999D01*
X87000000Y-94000000D02*
X88270999Y-94000000D01*
X90013010Y-96428988D02*
X82549999Y-103891999D01*
X90013010Y-93684010D02*
X90013010Y-96428988D01*
X89563000Y-93234000D02*
X90013010Y-93684010D01*
X87813000Y-93234000D02*
X89563000Y-93234000D01*
X98208001Y-113608001D02*
X99200000Y-114600000D01*
X91012523Y-113608001D02*
X98208001Y-113608001D01*
X82549999Y-105145477D02*
X91012523Y-113608001D01*
X82549999Y-103891999D02*
X82549999Y-105145477D01*
X91491000Y-93234000D02*
X91725000Y-93000000D01*
X87813000Y-93234000D02*
X91491000Y-93234000D01*
X82100000Y-103100000D02*
X85612990Y-99587010D01*
X82100000Y-103100000D02*
X80874999Y-104325001D01*
X88250000Y-90000000D02*
X85612990Y-92637010D01*
X85612990Y-92637010D02*
X85612990Y-99587010D01*
X100237898Y-90000000D02*
X103637898Y-93400000D01*
X103637898Y-93400000D02*
X104700000Y-93400000D01*
X88250000Y-90000000D02*
X100237898Y-90000000D01*
X104700000Y-93400000D02*
X107700000Y-93400000D01*
D22*
X96450000Y-94800000D02*
X97250000Y-94000000D01*
X96450000Y-95675000D02*
X96450000Y-94800000D01*
X93900000Y-104100000D02*
X93900000Y-104100000D01*
X94235000Y-98340000D02*
X95450000Y-97125000D01*
X94160000Y-98340000D02*
X94235000Y-98340000D01*
X93900000Y-104100000D02*
X93700001Y-104299999D01*
X92626997Y-104299999D02*
X92025001Y-103698003D01*
X93700001Y-104299999D02*
X92626997Y-104299999D01*
X92075999Y-100424001D02*
X94160000Y-98340000D01*
X92075999Y-103524001D02*
X92075999Y-100424001D01*
X92025001Y-103574999D02*
X92075999Y-103524001D01*
X92025001Y-103698003D02*
X92025001Y-103574999D01*
X105360500Y-105857000D02*
X100705500Y-105857000D01*
X106245500Y-104972000D02*
X105360500Y-105857000D01*
X104082500Y-105357000D02*
X100705500Y-105357000D01*
X106245500Y-103194000D02*
X104082500Y-105357000D01*
X105598500Y-106357000D02*
X100705500Y-106357000D01*
X106245500Y-107004000D02*
X105598500Y-106357000D01*
X104320500Y-106857000D02*
X100705500Y-106857000D01*
X106245500Y-108782000D02*
X104320500Y-106857000D01*
X112000000Y-94200000D02*
X112000000Y-94200000D01*
X106900000Y-100313186D02*
X106900000Y-100313186D01*
X112400000Y-89650000D02*
X112850000Y-89650000D01*
X112000000Y-90050000D02*
X112400000Y-89650000D01*
X112000000Y-95213186D02*
X112000000Y-90050000D01*
X106900000Y-100313186D02*
X112000000Y-95213186D01*
X113000000Y-95500000D02*
X107600000Y-100900000D01*
X107600000Y-100900000D02*
X107600000Y-100900000D01*
X117914478Y-89600000D02*
X119150000Y-89600000D01*
X113000000Y-94514478D02*
X117914478Y-89600000D01*
X113000000Y-95500000D02*
X113000000Y-94514478D01*
X85930002Y-104857000D02*
X85373003Y-104300001D01*
X95830500Y-104857000D02*
X85930002Y-104857000D01*
X83965685Y-104300000D02*
X83400000Y-104300000D01*
X85373003Y-104300001D02*
X83965685Y-104300000D01*
X95787500Y-105400000D02*
X95830500Y-105357000D01*
X85400000Y-105400000D02*
X95787500Y-105400000D01*
X92523002Y-106200000D02*
X86400000Y-106200000D01*
X93180002Y-106857000D02*
X92523002Y-106200000D01*
X95830500Y-106857000D02*
X93180002Y-106857000D01*
X95950000Y-98452500D02*
X95802500Y-98600000D01*
X95950000Y-97125000D02*
X95950000Y-98452500D01*
X95802500Y-98600000D02*
X95802500Y-99700000D01*
X95802500Y-100770000D02*
X95832500Y-100800000D01*
X95802500Y-99700000D02*
X95802500Y-100770000D01*
M02*
