G04 #@! TF.GenerationSoftware,KiCad,Pcbnew,(5.1.9)-1*
G04 #@! TF.CreationDate,2021-03-31T05:23:12-07:00*
G04 #@! TF.ProjectId,rgba,72676261-2e6b-4696-9361-645f70636258,1.1*
G04 #@! TF.SameCoordinates,Original*
G04 #@! TF.FileFunction,Copper,L3,Inr*
G04 #@! TF.FilePolarity,Positive*
%FSLAX46Y46*%
G04 Gerber Fmt 4.6, Leading zero omitted, Abs format (unit mm)*
G04 Created by KiCad (PCBNEW (5.1.9)-1) date 2021-03-31 05:23:12*
%MOMM*%
%LPD*%
G01*
G04 APERTURE LIST*
G04 #@! TA.AperFunction,ComponentPad*
%ADD10C,0.500000*%
G04 #@! TD*
G04 #@! TA.AperFunction,ComponentPad*
%ADD11C,2.400000*%
G04 #@! TD*
G04 #@! TA.AperFunction,ComponentPad*
%ADD12O,1.000000X1.600000*%
G04 #@! TD*
G04 #@! TA.AperFunction,ComponentPad*
%ADD13C,0.400000*%
G04 #@! TD*
G04 #@! TA.AperFunction,ComponentPad*
%ADD14C,1.000000*%
G04 #@! TD*
G04 #@! TA.AperFunction,ViaPad*
%ADD15C,0.800000*%
G04 #@! TD*
G04 #@! TA.AperFunction,ViaPad*
%ADD16C,0.400000*%
G04 #@! TD*
G04 #@! TA.AperFunction,Conductor*
%ADD17C,0.254000*%
G04 #@! TD*
G04 #@! TA.AperFunction,Conductor*
%ADD18C,0.100000*%
G04 #@! TD*
G04 APERTURE END LIST*
D10*
X102912000Y-98608000D03*
X101812000Y-98608000D03*
D11*
X105600000Y-95450000D03*
X104850000Y-111250000D03*
D12*
X116920000Y-93950000D03*
X108280000Y-93950000D03*
X108280000Y-97750000D03*
X116920000Y-97750000D03*
D13*
X110670000Y-105460000D03*
X111670000Y-105460000D03*
D14*
X82600000Y-106600000D03*
X81900000Y-108100000D03*
X82750000Y-109500000D03*
X84400000Y-109400000D03*
X85400000Y-110800000D03*
X83500000Y-108000000D03*
D15*
X103450000Y-113950000D03*
X117400000Y-111600000D03*
X117400000Y-110000000D03*
X117400000Y-101650000D03*
X117400000Y-103250000D03*
X87350000Y-97050000D03*
D16*
X90150000Y-104350000D03*
D15*
X106950000Y-109950000D03*
X89750000Y-110050000D03*
D16*
X84675000Y-104825000D03*
X83925000Y-102875000D03*
X84850000Y-103575000D03*
X85930000Y-107470000D03*
X84700000Y-106250000D03*
X83600000Y-105225000D03*
X101600000Y-100386000D03*
X101150000Y-100386000D03*
D15*
X100150000Y-110550000D03*
X80900000Y-111500000D03*
X81900000Y-111500000D03*
X81300000Y-102000000D03*
D16*
X96600000Y-115000000D03*
X96600000Y-114500000D03*
X93700000Y-114500000D03*
X93700000Y-115000000D03*
D15*
X105750000Y-100050000D03*
X91130000Y-107730000D03*
X93400000Y-104800000D03*
X95400000Y-106550000D03*
X93400000Y-106550000D03*
X83500000Y-110500000D03*
D16*
X94750000Y-102300000D03*
X95200000Y-102300000D03*
X95650000Y-102300000D03*
X96150000Y-102300000D03*
D15*
X95400000Y-104800000D03*
D16*
X92399500Y-111050500D03*
X93277750Y-110672250D03*
X92667250Y-110317250D03*
X101200000Y-97500000D03*
X95750000Y-109220000D03*
D15*
X103750000Y-101950000D03*
X90150000Y-108050000D03*
X90150000Y-109100000D03*
D16*
X108530000Y-99130000D03*
X108650000Y-99750000D03*
D15*
X109825000Y-108900000D03*
D16*
X114030000Y-102930000D03*
D15*
X113675000Y-101650000D03*
X116400000Y-96150000D03*
X113150000Y-96600000D03*
X112050000Y-96600000D03*
D16*
X108410000Y-101150000D03*
D15*
X99510000Y-103490000D03*
D16*
X95670000Y-101620000D03*
X98650000Y-102250000D03*
X100560000Y-97840000D03*
D15*
X106975000Y-97000000D03*
X81680000Y-105000000D03*
X91600000Y-97650000D03*
D16*
X91700000Y-103300000D03*
D15*
X95050000Y-98600000D03*
D16*
X95900000Y-97550000D03*
D15*
X104300000Y-98700000D03*
X105950000Y-98850000D03*
X106685000Y-98115000D03*
X89750000Y-111050000D03*
X95300000Y-111400000D03*
X94350000Y-111750000D03*
D16*
X90800000Y-103950000D03*
X90800000Y-103350000D03*
D15*
X105600000Y-97750000D03*
X106750000Y-102400000D03*
X107700000Y-111900000D03*
D16*
X92250000Y-103200000D03*
D15*
X113700000Y-109350000D03*
X114900000Y-109350000D03*
D16*
X108150000Y-103200000D03*
D15*
X90650000Y-98050000D03*
D16*
X103000000Y-111825000D03*
D15*
X101400000Y-113650000D03*
X109850000Y-97100000D03*
X115350000Y-97150000D03*
X91800000Y-95450000D03*
X82800000Y-96650000D03*
X89750000Y-98550000D03*
X88500000Y-97050000D03*
X84550000Y-95250000D03*
D16*
X113300000Y-105700000D03*
D15*
X114000000Y-114850000D03*
X95550000Y-95250000D03*
X94325000Y-95250000D03*
D16*
X85450000Y-106375000D03*
D15*
X109800000Y-102250000D03*
X112550000Y-108400000D03*
X99400000Y-114480000D03*
X108000000Y-114875000D03*
X84350000Y-97950000D03*
X114100000Y-97350000D03*
X111100000Y-97350000D03*
X85400000Y-94350000D03*
X80800000Y-104400000D03*
D16*
X102750000Y-112500000D03*
X112175000Y-113425000D03*
X98050000Y-101800000D03*
D15*
X83400000Y-104300000D03*
X85400000Y-105450000D03*
X86400000Y-106200000D03*
D17*
X107191585Y-93304013D02*
X107145000Y-93523000D01*
X107145000Y-93823000D01*
X108153000Y-93823000D01*
X108153000Y-93803000D01*
X108407000Y-93803000D01*
X108407000Y-93823000D01*
X109415000Y-93823000D01*
X109415000Y-93523000D01*
X109368415Y-93304013D01*
X109306514Y-93160000D01*
X115893486Y-93160000D01*
X115831585Y-93304013D01*
X115785000Y-93523000D01*
X115785000Y-93823000D01*
X116793000Y-93823000D01*
X116793000Y-93803000D01*
X117047000Y-93803000D01*
X117047000Y-93823000D01*
X118055000Y-93823000D01*
X118055000Y-93523000D01*
X118008415Y-93304013D01*
X117946514Y-93160000D01*
X117967723Y-93160000D01*
X118162540Y-93179102D01*
X118318894Y-93226308D01*
X118463096Y-93302982D01*
X118589663Y-93406207D01*
X118693769Y-93532051D01*
X118771447Y-93675711D01*
X118819742Y-93831729D01*
X118840000Y-94024473D01*
X118840001Y-113967712D01*
X118820898Y-114162540D01*
X118773692Y-114318895D01*
X118697018Y-114463096D01*
X118593792Y-114589664D01*
X118467951Y-114693768D01*
X118324289Y-114771447D01*
X118168271Y-114819742D01*
X117975527Y-114840000D01*
X115035000Y-114840000D01*
X115035000Y-114748061D01*
X114995226Y-114548102D01*
X114917205Y-114359744D01*
X114803937Y-114190226D01*
X114659774Y-114046063D01*
X114490256Y-113932795D01*
X114301898Y-113854774D01*
X114101939Y-113815000D01*
X113898061Y-113815000D01*
X113698102Y-113854774D01*
X113509744Y-113932795D01*
X113340226Y-114046063D01*
X113196063Y-114190226D01*
X113082795Y-114359744D01*
X113004774Y-114548102D01*
X112965000Y-114748061D01*
X112965000Y-114840000D01*
X109035000Y-114840000D01*
X109035000Y-114773061D01*
X108995226Y-114573102D01*
X108917205Y-114384744D01*
X108803937Y-114215226D01*
X108659774Y-114071063D01*
X108490256Y-113957795D01*
X108301898Y-113879774D01*
X108101939Y-113840000D01*
X107898061Y-113840000D01*
X107698102Y-113879774D01*
X107509744Y-113957795D01*
X107340226Y-114071063D01*
X107196063Y-114215226D01*
X107082795Y-114384744D01*
X107004774Y-114573102D01*
X106965000Y-114773061D01*
X106965000Y-114840000D01*
X103980971Y-114840000D01*
X104109774Y-114753937D01*
X104253937Y-114609774D01*
X104367205Y-114440256D01*
X104445226Y-114251898D01*
X104485000Y-114051939D01*
X104485000Y-113848061D01*
X104445226Y-113648102D01*
X104367205Y-113459744D01*
X104289040Y-113342760D01*
X111340000Y-113342760D01*
X111340000Y-113507240D01*
X111372089Y-113668560D01*
X111435033Y-113820521D01*
X111526413Y-113957281D01*
X111642719Y-114073587D01*
X111779479Y-114164967D01*
X111931440Y-114227911D01*
X112092760Y-114260000D01*
X112257240Y-114260000D01*
X112418560Y-114227911D01*
X112570521Y-114164967D01*
X112707281Y-114073587D01*
X112823587Y-113957281D01*
X112914967Y-113820521D01*
X112977911Y-113668560D01*
X113010000Y-113507240D01*
X113010000Y-113342760D01*
X112977911Y-113181440D01*
X112914967Y-113029479D01*
X112823587Y-112892719D01*
X112707281Y-112776413D01*
X112570521Y-112685033D01*
X112418560Y-112622089D01*
X112257240Y-112590000D01*
X112092760Y-112590000D01*
X111931440Y-112622089D01*
X111779479Y-112685033D01*
X111642719Y-112776413D01*
X111526413Y-112892719D01*
X111435033Y-113029479D01*
X111372089Y-113181440D01*
X111340000Y-113342760D01*
X104289040Y-113342760D01*
X104253937Y-113290226D01*
X104109774Y-113146063D01*
X103940256Y-113032795D01*
X103751898Y-112954774D01*
X103551939Y-112915000D01*
X103476952Y-112915000D01*
X103489967Y-112895521D01*
X103552911Y-112743560D01*
X103583419Y-112590187D01*
X103636420Y-112643188D01*
X103751627Y-112527981D01*
X103871514Y-112812836D01*
X104195210Y-112973699D01*
X104544069Y-113068322D01*
X104904684Y-113093067D01*
X105263198Y-113046985D01*
X105605833Y-112931846D01*
X105828486Y-112812836D01*
X105948374Y-112527980D01*
X104850000Y-111429605D01*
X104835858Y-111443748D01*
X104656252Y-111264142D01*
X104670395Y-111250000D01*
X105029605Y-111250000D01*
X106127980Y-112348374D01*
X106412836Y-112228486D01*
X106573699Y-111904790D01*
X106668322Y-111555931D01*
X106693067Y-111195316D01*
X106646985Y-110836802D01*
X106531846Y-110494167D01*
X106412836Y-110271514D01*
X106127980Y-110151626D01*
X105029605Y-111250000D01*
X104670395Y-111250000D01*
X103572020Y-110151626D01*
X103287164Y-110271514D01*
X103126301Y-110595210D01*
X103031678Y-110944069D01*
X103006933Y-111304684D01*
X103053015Y-111663198D01*
X103075859Y-111731178D01*
X102993560Y-111697089D01*
X102832240Y-111665000D01*
X102667760Y-111665000D01*
X102506440Y-111697089D01*
X102354479Y-111760033D01*
X102217719Y-111851413D01*
X102101413Y-111967719D01*
X102010033Y-112104479D01*
X101947089Y-112256440D01*
X101915000Y-112417760D01*
X101915000Y-112582240D01*
X101947089Y-112743560D01*
X102010033Y-112895521D01*
X102101413Y-113032281D01*
X102217719Y-113148587D01*
X102354479Y-113239967D01*
X102506440Y-113302911D01*
X102622201Y-113325938D01*
X102532795Y-113459744D01*
X102454774Y-113648102D01*
X102415000Y-113848061D01*
X102415000Y-114051939D01*
X102454774Y-114251898D01*
X102532795Y-114440256D01*
X102646063Y-114609774D01*
X102790226Y-114753937D01*
X102919029Y-114840000D01*
X100371159Y-114840000D01*
X100395226Y-114781898D01*
X100435000Y-114581939D01*
X100435000Y-114378061D01*
X100395226Y-114178102D01*
X100317205Y-113989744D01*
X100203937Y-113820226D01*
X100059774Y-113676063D01*
X99890256Y-113562795D01*
X99701898Y-113484774D01*
X99501939Y-113445000D01*
X99298061Y-113445000D01*
X99098102Y-113484774D01*
X98909744Y-113562795D01*
X98740226Y-113676063D01*
X98596063Y-113820226D01*
X98482795Y-113989744D01*
X98404774Y-114178102D01*
X98365000Y-114378061D01*
X98365000Y-114581939D01*
X98404774Y-114781898D01*
X98428841Y-114840000D01*
X81032277Y-114840000D01*
X80837460Y-114820898D01*
X80681105Y-114773692D01*
X80536904Y-114697018D01*
X80410336Y-114593792D01*
X80306232Y-114467951D01*
X80228553Y-114324289D01*
X80180258Y-114168271D01*
X80160000Y-113975527D01*
X80160000Y-110278166D01*
X82151439Y-110278166D01*
X82186550Y-110491588D01*
X82390826Y-110582458D01*
X82608905Y-110631731D01*
X82832406Y-110637511D01*
X83052740Y-110599577D01*
X83261440Y-110519387D01*
X83313450Y-110491588D01*
X83348561Y-110278166D01*
X82750000Y-109679605D01*
X82151439Y-110278166D01*
X80160000Y-110278166D01*
X80160000Y-107988212D01*
X80765000Y-107988212D01*
X80765000Y-108211788D01*
X80808617Y-108431067D01*
X80894176Y-108637624D01*
X81018388Y-108823520D01*
X81176480Y-108981612D01*
X81362376Y-109105824D01*
X81568933Y-109191383D01*
X81652369Y-109207979D01*
X81618269Y-109358905D01*
X81612489Y-109582406D01*
X81650423Y-109802740D01*
X81730613Y-110011440D01*
X81758412Y-110063450D01*
X81971834Y-110098561D01*
X82570395Y-109500000D01*
X82556253Y-109485858D01*
X82735858Y-109306253D01*
X82750000Y-109320395D01*
X82764143Y-109306253D01*
X82943748Y-109485858D01*
X82929605Y-109500000D01*
X83448439Y-110018834D01*
X83518388Y-110123520D01*
X83676480Y-110281612D01*
X83862376Y-110405824D01*
X84068933Y-110491383D01*
X84288212Y-110535000D01*
X84295476Y-110535000D01*
X84265000Y-110688212D01*
X84265000Y-110911788D01*
X84308617Y-111131067D01*
X84394176Y-111337624D01*
X84518388Y-111523520D01*
X84676480Y-111681612D01*
X84862376Y-111805824D01*
X85068933Y-111891383D01*
X85288212Y-111935000D01*
X85511788Y-111935000D01*
X85731067Y-111891383D01*
X85937624Y-111805824D01*
X86123520Y-111681612D01*
X86281612Y-111523520D01*
X86405824Y-111337624D01*
X86491383Y-111131067D01*
X86535000Y-110911788D01*
X86535000Y-110688212D01*
X86491383Y-110468933D01*
X86405824Y-110262376D01*
X86281612Y-110076480D01*
X86153193Y-109948061D01*
X88715000Y-109948061D01*
X88715000Y-110151939D01*
X88754774Y-110351898D01*
X88832795Y-110540256D01*
X88839306Y-110550000D01*
X88832795Y-110559744D01*
X88754774Y-110748102D01*
X88715000Y-110948061D01*
X88715000Y-111151939D01*
X88754774Y-111351898D01*
X88832795Y-111540256D01*
X88946063Y-111709774D01*
X89090226Y-111853937D01*
X89259744Y-111967205D01*
X89448102Y-112045226D01*
X89648061Y-112085000D01*
X89851939Y-112085000D01*
X90051898Y-112045226D01*
X90240256Y-111967205D01*
X90409774Y-111853937D01*
X90553937Y-111709774D01*
X90595172Y-111648061D01*
X93315000Y-111648061D01*
X93315000Y-111851939D01*
X93354774Y-112051898D01*
X93432795Y-112240256D01*
X93546063Y-112409774D01*
X93690226Y-112553937D01*
X93859744Y-112667205D01*
X94048102Y-112745226D01*
X94248061Y-112785000D01*
X94451939Y-112785000D01*
X94651898Y-112745226D01*
X94840256Y-112667205D01*
X95009774Y-112553937D01*
X95140217Y-112423494D01*
X95198061Y-112435000D01*
X95401939Y-112435000D01*
X95601898Y-112395226D01*
X95790256Y-112317205D01*
X95959774Y-112203937D01*
X96103937Y-112059774D01*
X96217205Y-111890256D01*
X96295226Y-111701898D01*
X96335000Y-111501939D01*
X96335000Y-111298061D01*
X96295226Y-111098102D01*
X96217205Y-110909744D01*
X96103937Y-110740226D01*
X95959774Y-110596063D01*
X95790256Y-110482795D01*
X95601898Y-110404774D01*
X95401939Y-110365000D01*
X95198061Y-110365000D01*
X94998102Y-110404774D01*
X94809744Y-110482795D01*
X94640226Y-110596063D01*
X94509783Y-110726506D01*
X94451939Y-110715000D01*
X94248061Y-110715000D01*
X94048102Y-110754774D01*
X93859744Y-110832795D01*
X93690226Y-110946063D01*
X93546063Y-111090226D01*
X93432795Y-111259744D01*
X93354774Y-111448102D01*
X93315000Y-111648061D01*
X90595172Y-111648061D01*
X90667205Y-111540256D01*
X90745226Y-111351898D01*
X90785000Y-111151939D01*
X90785000Y-110948061D01*
X90745226Y-110748102D01*
X90667205Y-110559744D01*
X90660694Y-110550000D01*
X90667205Y-110540256D01*
X90745226Y-110351898D01*
X90785000Y-110151939D01*
X90785000Y-109972020D01*
X103751626Y-109972020D01*
X104850000Y-111070395D01*
X105948374Y-109972020D01*
X105828486Y-109687164D01*
X105504790Y-109526301D01*
X105155931Y-109431678D01*
X104795316Y-109406933D01*
X104436802Y-109453015D01*
X104094167Y-109568154D01*
X103871514Y-109687164D01*
X103751626Y-109972020D01*
X90785000Y-109972020D01*
X90785000Y-109948061D01*
X90745226Y-109748102D01*
X90667205Y-109559744D01*
X90553937Y-109390226D01*
X90409774Y-109246063D01*
X90240256Y-109132795D01*
X90051898Y-109054774D01*
X89851939Y-109015000D01*
X89648061Y-109015000D01*
X89448102Y-109054774D01*
X89259744Y-109132795D01*
X89090226Y-109246063D01*
X88946063Y-109390226D01*
X88832795Y-109559744D01*
X88754774Y-109748102D01*
X88715000Y-109948061D01*
X86153193Y-109948061D01*
X86123520Y-109918388D01*
X85937624Y-109794176D01*
X85731067Y-109708617D01*
X85511788Y-109665000D01*
X85504524Y-109665000D01*
X85535000Y-109511788D01*
X85535000Y-109288212D01*
X85491383Y-109068933D01*
X85405824Y-108862376D01*
X85281612Y-108676480D01*
X85123520Y-108518388D01*
X84937624Y-108394176D01*
X84731067Y-108308617D01*
X84677999Y-108298061D01*
X111515000Y-108298061D01*
X111515000Y-108501939D01*
X111554774Y-108701898D01*
X111632795Y-108890256D01*
X111746063Y-109059774D01*
X111890226Y-109203937D01*
X112059744Y-109317205D01*
X112248102Y-109395226D01*
X112448061Y-109435000D01*
X112651939Y-109435000D01*
X112851898Y-109395226D01*
X113040256Y-109317205D01*
X113209774Y-109203937D01*
X113353937Y-109059774D01*
X113467205Y-108890256D01*
X113545226Y-108701898D01*
X113585000Y-108501939D01*
X113585000Y-108298061D01*
X113545226Y-108098102D01*
X113467205Y-107909744D01*
X113353937Y-107740226D01*
X113209774Y-107596063D01*
X113040256Y-107482795D01*
X112851898Y-107404774D01*
X112651939Y-107365000D01*
X112448061Y-107365000D01*
X112248102Y-107404774D01*
X112059744Y-107482795D01*
X111890226Y-107596063D01*
X111746063Y-107740226D01*
X111632795Y-107909744D01*
X111554774Y-108098102D01*
X111515000Y-108298061D01*
X84677999Y-108298061D01*
X84600995Y-108282744D01*
X84635000Y-108111788D01*
X84635000Y-107888212D01*
X84591383Y-107668933D01*
X84505824Y-107462376D01*
X84381612Y-107276480D01*
X84223520Y-107118388D01*
X84037624Y-106994176D01*
X83831067Y-106908617D01*
X83700995Y-106882744D01*
X83735000Y-106711788D01*
X83735000Y-106488212D01*
X83691383Y-106268933D01*
X83605824Y-106062376D01*
X83481612Y-105876480D01*
X83323520Y-105718388D01*
X83137624Y-105594176D01*
X82931067Y-105508617D01*
X82711788Y-105465000D01*
X82488212Y-105465000D01*
X82268933Y-105508617D01*
X82062376Y-105594176D01*
X81876480Y-105718388D01*
X81718388Y-105876480D01*
X81594176Y-106062376D01*
X81508617Y-106268933D01*
X81465000Y-106488212D01*
X81465000Y-106711788D01*
X81508617Y-106931067D01*
X81544868Y-107018585D01*
X81362376Y-107094176D01*
X81176480Y-107218388D01*
X81018388Y-107376480D01*
X80894176Y-107562376D01*
X80808617Y-107768933D01*
X80765000Y-107988212D01*
X80160000Y-107988212D01*
X80160000Y-105217150D01*
X80309744Y-105317205D01*
X80498102Y-105395226D01*
X80698061Y-105435000D01*
X80901939Y-105435000D01*
X81101898Y-105395226D01*
X81215763Y-105348061D01*
X84365000Y-105348061D01*
X84365000Y-105551939D01*
X84404774Y-105751898D01*
X84482795Y-105940256D01*
X84596063Y-106109774D01*
X84740226Y-106253937D01*
X84909744Y-106367205D01*
X85098102Y-106445226D01*
X85298061Y-106485000D01*
X85401413Y-106485000D01*
X85404774Y-106501898D01*
X85482795Y-106690256D01*
X85596063Y-106859774D01*
X85740226Y-107003937D01*
X85909744Y-107117205D01*
X86098102Y-107195226D01*
X86298061Y-107235000D01*
X86501939Y-107235000D01*
X86701898Y-107195226D01*
X86890256Y-107117205D01*
X87059774Y-107003937D01*
X87203937Y-106859774D01*
X87317205Y-106690256D01*
X87395226Y-106501898D01*
X87435000Y-106301939D01*
X87435000Y-106098061D01*
X87395226Y-105898102D01*
X87317205Y-105709744D01*
X87203937Y-105540226D01*
X87163839Y-105500128D01*
X109831921Y-105500128D01*
X109855853Y-105662858D01*
X109911072Y-105817792D01*
X109950869Y-105892247D01*
X110140121Y-105886641D01*
X110566762Y-105460000D01*
X110140121Y-105033359D01*
X109950869Y-105027753D01*
X109880360Y-105176354D01*
X109840195Y-105335855D01*
X109831921Y-105500128D01*
X87163839Y-105500128D01*
X87059774Y-105396063D01*
X86890256Y-105282795D01*
X86701898Y-105204774D01*
X86501939Y-105165000D01*
X86398587Y-105165000D01*
X86395226Y-105148102D01*
X86317205Y-104959744D01*
X86203937Y-104790226D01*
X86059774Y-104646063D01*
X85890256Y-104532795D01*
X85701898Y-104454774D01*
X85501939Y-104415000D01*
X85298061Y-104415000D01*
X85098102Y-104454774D01*
X84909744Y-104532795D01*
X84740226Y-104646063D01*
X84596063Y-104790226D01*
X84482795Y-104959744D01*
X84404774Y-105148102D01*
X84365000Y-105348061D01*
X81215763Y-105348061D01*
X81290256Y-105317205D01*
X81459774Y-105203937D01*
X81603937Y-105059774D01*
X81717205Y-104890256D01*
X81795226Y-104701898D01*
X81835000Y-104501939D01*
X81835000Y-104298061D01*
X81815109Y-104198061D01*
X82365000Y-104198061D01*
X82365000Y-104401939D01*
X82404774Y-104601898D01*
X82482795Y-104790256D01*
X82596063Y-104959774D01*
X82740226Y-105103937D01*
X82909744Y-105217205D01*
X83098102Y-105295226D01*
X83298061Y-105335000D01*
X83501939Y-105335000D01*
X83701898Y-105295226D01*
X83890256Y-105217205D01*
X84059774Y-105103937D01*
X84203937Y-104959774D01*
X84317205Y-104790256D01*
X84395226Y-104601898D01*
X84435000Y-104401939D01*
X84435000Y-104198061D01*
X84395226Y-103998102D01*
X84317205Y-103809744D01*
X84203937Y-103640226D01*
X84059774Y-103496063D01*
X83890256Y-103382795D01*
X83701898Y-103304774D01*
X83515815Y-103267760D01*
X89965000Y-103267760D01*
X89965000Y-103432240D01*
X89997089Y-103593560D01*
X90020467Y-103650000D01*
X89997089Y-103706440D01*
X89965000Y-103867760D01*
X89965000Y-104032240D01*
X89997089Y-104193560D01*
X90060033Y-104345521D01*
X90151413Y-104482281D01*
X90267719Y-104598587D01*
X90404479Y-104689967D01*
X90556440Y-104752911D01*
X90717760Y-104785000D01*
X90882240Y-104785000D01*
X91043560Y-104752911D01*
X91072632Y-104740869D01*
X110237753Y-104740869D01*
X110243359Y-104930121D01*
X110670000Y-105356762D01*
X110722326Y-105304436D01*
X110825564Y-105407674D01*
X110773238Y-105460000D01*
X110825564Y-105512326D01*
X110722326Y-105615564D01*
X110670000Y-105563238D01*
X110243359Y-105989879D01*
X110237753Y-106179131D01*
X110386354Y-106249640D01*
X110545855Y-106289805D01*
X110710128Y-106298079D01*
X110872858Y-106274147D01*
X111027792Y-106218928D01*
X111102247Y-106179131D01*
X111099159Y-106074873D01*
X111166947Y-106142661D01*
X111170000Y-106139608D01*
X111173053Y-106142661D01*
X111240841Y-106074873D01*
X111237753Y-106179131D01*
X111386354Y-106249640D01*
X111545855Y-106289805D01*
X111710128Y-106298079D01*
X111872858Y-106274147D01*
X112027792Y-106218928D01*
X112102247Y-106179131D01*
X112096641Y-105989879D01*
X111670000Y-105563238D01*
X111617674Y-105615564D01*
X111514436Y-105512326D01*
X111566762Y-105460000D01*
X111773238Y-105460000D01*
X112199879Y-105886641D01*
X112389131Y-105892247D01*
X112459640Y-105743646D01*
X112499805Y-105584145D01*
X112508079Y-105419872D01*
X112484147Y-105257142D01*
X112428928Y-105102208D01*
X112389131Y-105027753D01*
X112199879Y-105033359D01*
X111773238Y-105460000D01*
X111566762Y-105460000D01*
X111514436Y-105407674D01*
X111617674Y-105304436D01*
X111670000Y-105356762D01*
X112096641Y-104930121D01*
X112102247Y-104740869D01*
X111953646Y-104670360D01*
X111794145Y-104630195D01*
X111629872Y-104621921D01*
X111467142Y-104645853D01*
X111312208Y-104701072D01*
X111237753Y-104740869D01*
X111240841Y-104845127D01*
X111173053Y-104777339D01*
X111170000Y-104780392D01*
X111166947Y-104777339D01*
X111099159Y-104845127D01*
X111102247Y-104740869D01*
X110953646Y-104670360D01*
X110794145Y-104630195D01*
X110629872Y-104621921D01*
X110467142Y-104645853D01*
X110312208Y-104701072D01*
X110237753Y-104740869D01*
X91072632Y-104740869D01*
X91195521Y-104689967D01*
X91332281Y-104598587D01*
X91448587Y-104482281D01*
X91539967Y-104345521D01*
X91602911Y-104193560D01*
X91635000Y-104032240D01*
X91635000Y-103867760D01*
X91602911Y-103706440D01*
X91579533Y-103650000D01*
X91602911Y-103593560D01*
X91635000Y-103432240D01*
X91635000Y-103267760D01*
X91602911Y-103106440D01*
X91539967Y-102954479D01*
X91448587Y-102817719D01*
X91332281Y-102701413D01*
X91195521Y-102610033D01*
X91043560Y-102547089D01*
X90882240Y-102515000D01*
X90717760Y-102515000D01*
X90556440Y-102547089D01*
X90404479Y-102610033D01*
X90267719Y-102701413D01*
X90151413Y-102817719D01*
X90060033Y-102954479D01*
X89997089Y-103106440D01*
X89965000Y-103267760D01*
X83515815Y-103267760D01*
X83501939Y-103265000D01*
X83298061Y-103265000D01*
X83098102Y-103304774D01*
X82909744Y-103382795D01*
X82740226Y-103496063D01*
X82596063Y-103640226D01*
X82482795Y-103809744D01*
X82404774Y-103998102D01*
X82365000Y-104198061D01*
X81815109Y-104198061D01*
X81795226Y-104098102D01*
X81717205Y-103909744D01*
X81603937Y-103740226D01*
X81459774Y-103596063D01*
X81290256Y-103482795D01*
X81101898Y-103404774D01*
X80901939Y-103365000D01*
X80698061Y-103365000D01*
X80498102Y-103404774D01*
X80309744Y-103482795D01*
X80160000Y-103582850D01*
X80160000Y-101717760D01*
X97215000Y-101717760D01*
X97215000Y-101882240D01*
X97247089Y-102043560D01*
X97310033Y-102195521D01*
X97401413Y-102332281D01*
X97517719Y-102448587D01*
X97654479Y-102539967D01*
X97806440Y-102602911D01*
X97967760Y-102635000D01*
X98132240Y-102635000D01*
X98293560Y-102602911D01*
X98445521Y-102539967D01*
X98582281Y-102448587D01*
X98698587Y-102332281D01*
X98789967Y-102195521D01*
X98809625Y-102148061D01*
X108765000Y-102148061D01*
X108765000Y-102351939D01*
X108804774Y-102551898D01*
X108882795Y-102740256D01*
X108996063Y-102909774D01*
X109140226Y-103053937D01*
X109309744Y-103167205D01*
X109498102Y-103245226D01*
X109698061Y-103285000D01*
X109901939Y-103285000D01*
X110101898Y-103245226D01*
X110290256Y-103167205D01*
X110459774Y-103053937D01*
X110603937Y-102909774D01*
X110717205Y-102740256D01*
X110795226Y-102551898D01*
X110835000Y-102351939D01*
X110835000Y-102148061D01*
X110795226Y-101948102D01*
X110717205Y-101759744D01*
X110603937Y-101590226D01*
X110459774Y-101446063D01*
X110290256Y-101332795D01*
X110101898Y-101254774D01*
X109901939Y-101215000D01*
X109698061Y-101215000D01*
X109498102Y-101254774D01*
X109309744Y-101332795D01*
X109140226Y-101446063D01*
X108996063Y-101590226D01*
X108882795Y-101759744D01*
X108804774Y-101948102D01*
X108765000Y-102148061D01*
X98809625Y-102148061D01*
X98852911Y-102043560D01*
X98885000Y-101882240D01*
X98885000Y-101717760D01*
X98852911Y-101556440D01*
X98789967Y-101404479D01*
X98698587Y-101267719D01*
X98582281Y-101151413D01*
X98445521Y-101060033D01*
X98293560Y-100997089D01*
X98132240Y-100965000D01*
X97967760Y-100965000D01*
X97806440Y-100997089D01*
X97654479Y-101060033D01*
X97517719Y-101151413D01*
X97401413Y-101267719D01*
X97310033Y-101404479D01*
X97247089Y-101556440D01*
X97215000Y-101717760D01*
X80160000Y-101717760D01*
X80160000Y-97848061D01*
X83315000Y-97848061D01*
X83315000Y-98051939D01*
X83354774Y-98251898D01*
X83432795Y-98440256D01*
X83546063Y-98609774D01*
X83690226Y-98753937D01*
X83859744Y-98867205D01*
X84048102Y-98945226D01*
X84248061Y-98985000D01*
X84451939Y-98985000D01*
X84651898Y-98945226D01*
X84840256Y-98867205D01*
X85009774Y-98753937D01*
X85153937Y-98609774D01*
X85267205Y-98440256D01*
X85345226Y-98251898D01*
X85385000Y-98051939D01*
X85385000Y-97848061D01*
X85345226Y-97648102D01*
X85267205Y-97459744D01*
X85153937Y-97290226D01*
X85009774Y-97146063D01*
X84840256Y-97032795D01*
X84651898Y-96954774D01*
X84618150Y-96948061D01*
X87465000Y-96948061D01*
X87465000Y-97151939D01*
X87504774Y-97351898D01*
X87582795Y-97540256D01*
X87696063Y-97709774D01*
X87840226Y-97853937D01*
X88009744Y-97967205D01*
X88198102Y-98045226D01*
X88398061Y-98085000D01*
X88601939Y-98085000D01*
X88801898Y-98045226D01*
X88858032Y-98021974D01*
X88832795Y-98059744D01*
X88754774Y-98248102D01*
X88715000Y-98448061D01*
X88715000Y-98651939D01*
X88754774Y-98851898D01*
X88832795Y-99040256D01*
X88946063Y-99209774D01*
X89090226Y-99353937D01*
X89259744Y-99467205D01*
X89448102Y-99545226D01*
X89648061Y-99585000D01*
X89851939Y-99585000D01*
X90051898Y-99545226D01*
X90240256Y-99467205D01*
X90409774Y-99353937D01*
X90553937Y-99209774D01*
X90557685Y-99204164D01*
X101389784Y-99204164D01*
X101393826Y-99392827D01*
X101554974Y-99459328D01*
X101725998Y-99493113D01*
X101900328Y-99492884D01*
X102071264Y-99458649D01*
X102230174Y-99392827D01*
X102234216Y-99204164D01*
X102489784Y-99204164D01*
X102493826Y-99392827D01*
X102654974Y-99459328D01*
X102825998Y-99493113D01*
X103000328Y-99492884D01*
X103171264Y-99458649D01*
X103330174Y-99392827D01*
X103334216Y-99204164D01*
X102912000Y-98781948D01*
X102489784Y-99204164D01*
X102234216Y-99204164D01*
X101812000Y-98781948D01*
X101389784Y-99204164D01*
X90557685Y-99204164D01*
X90667205Y-99040256D01*
X90745226Y-98851898D01*
X90785000Y-98651939D01*
X90785000Y-98521998D01*
X100926887Y-98521998D01*
X100927116Y-98696328D01*
X100961351Y-98867264D01*
X101027173Y-99026174D01*
X101215836Y-99030216D01*
X101638052Y-98608000D01*
X101985948Y-98608000D01*
X102027054Y-98649106D01*
X102027116Y-98696328D01*
X102061351Y-98867264D01*
X102127173Y-99026174D01*
X102315836Y-99030216D01*
X102362000Y-98984052D01*
X102408164Y-99030216D01*
X102596827Y-99026174D01*
X102663328Y-98865026D01*
X102697113Y-98694002D01*
X102697054Y-98648998D01*
X102738052Y-98608000D01*
X103085948Y-98608000D01*
X103508164Y-99030216D01*
X103696827Y-99026174D01*
X103763328Y-98865026D01*
X103797113Y-98694002D01*
X103796884Y-98519672D01*
X103762649Y-98348736D01*
X103696827Y-98189826D01*
X103508164Y-98185784D01*
X103085948Y-98608000D01*
X102738052Y-98608000D01*
X102696946Y-98566894D01*
X102696884Y-98519672D01*
X102662649Y-98348736D01*
X102596827Y-98189826D01*
X102408164Y-98185784D01*
X102362000Y-98231948D01*
X102315836Y-98185784D01*
X102127173Y-98189826D01*
X102060672Y-98350974D01*
X102026887Y-98521998D01*
X102026946Y-98567002D01*
X101985948Y-98608000D01*
X101638052Y-98608000D01*
X101215836Y-98185784D01*
X101027173Y-98189826D01*
X100960672Y-98350974D01*
X100926887Y-98521998D01*
X90785000Y-98521998D01*
X90785000Y-98448061D01*
X90745226Y-98248102D01*
X90667205Y-98059744D01*
X90635194Y-98011836D01*
X101389784Y-98011836D01*
X101812000Y-98434052D01*
X102234216Y-98011836D01*
X102489784Y-98011836D01*
X102912000Y-98434052D01*
X103334216Y-98011836D01*
X103330174Y-97823173D01*
X103169026Y-97756672D01*
X102998002Y-97722887D01*
X102823672Y-97723116D01*
X102652736Y-97757351D01*
X102493826Y-97823173D01*
X102489784Y-98011836D01*
X102234216Y-98011836D01*
X102230174Y-97823173D01*
X102069026Y-97756672D01*
X101898002Y-97722887D01*
X101723672Y-97723116D01*
X101552736Y-97757351D01*
X101393826Y-97823173D01*
X101389784Y-98011836D01*
X90635194Y-98011836D01*
X90553937Y-97890226D01*
X90409774Y-97746063D01*
X90240256Y-97632795D01*
X90051898Y-97554774D01*
X89851939Y-97515000D01*
X89648061Y-97515000D01*
X89448102Y-97554774D01*
X89391968Y-97578026D01*
X89417205Y-97540256D01*
X89495226Y-97351898D01*
X89535000Y-97151939D01*
X89535000Y-96948061D01*
X89495226Y-96748102D01*
X89486892Y-96727980D01*
X104501626Y-96727980D01*
X104621514Y-97012836D01*
X104945210Y-97173699D01*
X105294069Y-97268322D01*
X105654684Y-97293067D01*
X106013198Y-97246985D01*
X106345897Y-97135185D01*
X106194744Y-97197795D01*
X106025226Y-97311063D01*
X105881063Y-97455226D01*
X105767795Y-97624744D01*
X105689774Y-97813102D01*
X105682860Y-97847860D01*
X105648102Y-97854774D01*
X105459744Y-97932795D01*
X105290226Y-98046063D01*
X105146063Y-98190226D01*
X105032795Y-98359744D01*
X104954774Y-98548102D01*
X104915000Y-98748061D01*
X104915000Y-98951939D01*
X104954774Y-99151898D01*
X105032795Y-99340256D01*
X105146063Y-99509774D01*
X105290226Y-99653937D01*
X105459744Y-99767205D01*
X105648102Y-99845226D01*
X105848061Y-99885000D01*
X106051939Y-99885000D01*
X106251898Y-99845226D01*
X106440256Y-99767205D01*
X106609774Y-99653937D01*
X106753937Y-99509774D01*
X106867205Y-99340256D01*
X106945226Y-99151898D01*
X106952140Y-99117140D01*
X106986898Y-99110226D01*
X107175256Y-99032205D01*
X107344774Y-98918937D01*
X107442659Y-98821052D01*
X107567236Y-98942369D01*
X107755024Y-99064276D01*
X107978126Y-99144119D01*
X108153000Y-99017954D01*
X108153000Y-97877000D01*
X108407000Y-97877000D01*
X108407000Y-99017954D01*
X108581874Y-99144119D01*
X108804976Y-99064276D01*
X108992764Y-98942369D01*
X109153161Y-98786169D01*
X109280003Y-98601678D01*
X109368415Y-98395987D01*
X109415000Y-98177000D01*
X109415000Y-97877000D01*
X108407000Y-97877000D01*
X108153000Y-97877000D01*
X108133000Y-97877000D01*
X108133000Y-97623000D01*
X108153000Y-97623000D01*
X108153000Y-96482046D01*
X108407000Y-96482046D01*
X108407000Y-97623000D01*
X109415000Y-97623000D01*
X109415000Y-97323000D01*
X109399059Y-97248061D01*
X110065000Y-97248061D01*
X110065000Y-97451939D01*
X110104774Y-97651898D01*
X110182795Y-97840256D01*
X110296063Y-98009774D01*
X110440226Y-98153937D01*
X110609744Y-98267205D01*
X110798102Y-98345226D01*
X110998061Y-98385000D01*
X111201939Y-98385000D01*
X111401898Y-98345226D01*
X111590256Y-98267205D01*
X111759774Y-98153937D01*
X111903937Y-98009774D01*
X112017205Y-97840256D01*
X112095226Y-97651898D01*
X112135000Y-97451939D01*
X112135000Y-97248061D01*
X113065000Y-97248061D01*
X113065000Y-97451939D01*
X113104774Y-97651898D01*
X113182795Y-97840256D01*
X113296063Y-98009774D01*
X113440226Y-98153937D01*
X113609744Y-98267205D01*
X113798102Y-98345226D01*
X113998061Y-98385000D01*
X114201939Y-98385000D01*
X114401898Y-98345226D01*
X114590256Y-98267205D01*
X114759774Y-98153937D01*
X114903937Y-98009774D01*
X114992653Y-97877000D01*
X115785000Y-97877000D01*
X115785000Y-98177000D01*
X115831585Y-98395987D01*
X115919997Y-98601678D01*
X116046839Y-98786169D01*
X116207236Y-98942369D01*
X116395024Y-99064276D01*
X116618126Y-99144119D01*
X116793000Y-99017954D01*
X116793000Y-97877000D01*
X117047000Y-97877000D01*
X117047000Y-99017954D01*
X117221874Y-99144119D01*
X117444976Y-99064276D01*
X117632764Y-98942369D01*
X117793161Y-98786169D01*
X117920003Y-98601678D01*
X118008415Y-98395987D01*
X118055000Y-98177000D01*
X118055000Y-97877000D01*
X117047000Y-97877000D01*
X116793000Y-97877000D01*
X115785000Y-97877000D01*
X114992653Y-97877000D01*
X115017205Y-97840256D01*
X115095226Y-97651898D01*
X115135000Y-97451939D01*
X115135000Y-97323000D01*
X115785000Y-97323000D01*
X115785000Y-97623000D01*
X116793000Y-97623000D01*
X116793000Y-96482046D01*
X117047000Y-96482046D01*
X117047000Y-97623000D01*
X118055000Y-97623000D01*
X118055000Y-97323000D01*
X118008415Y-97104013D01*
X117920003Y-96898322D01*
X117793161Y-96713831D01*
X117632764Y-96557631D01*
X117444976Y-96435724D01*
X117221874Y-96355881D01*
X117047000Y-96482046D01*
X116793000Y-96482046D01*
X116618126Y-96355881D01*
X116395024Y-96435724D01*
X116207236Y-96557631D01*
X116046839Y-96713831D01*
X115919997Y-96898322D01*
X115831585Y-97104013D01*
X115785000Y-97323000D01*
X115135000Y-97323000D01*
X115135000Y-97248061D01*
X115095226Y-97048102D01*
X115017205Y-96859744D01*
X114903937Y-96690226D01*
X114759774Y-96546063D01*
X114590256Y-96432795D01*
X114401898Y-96354774D01*
X114201939Y-96315000D01*
X113998061Y-96315000D01*
X113798102Y-96354774D01*
X113609744Y-96432795D01*
X113440226Y-96546063D01*
X113296063Y-96690226D01*
X113182795Y-96859744D01*
X113104774Y-97048102D01*
X113065000Y-97248061D01*
X112135000Y-97248061D01*
X112095226Y-97048102D01*
X112017205Y-96859744D01*
X111903937Y-96690226D01*
X111759774Y-96546063D01*
X111590256Y-96432795D01*
X111401898Y-96354774D01*
X111201939Y-96315000D01*
X110998061Y-96315000D01*
X110798102Y-96354774D01*
X110609744Y-96432795D01*
X110440226Y-96546063D01*
X110296063Y-96690226D01*
X110182795Y-96859744D01*
X110104774Y-97048102D01*
X110065000Y-97248061D01*
X109399059Y-97248061D01*
X109368415Y-97104013D01*
X109280003Y-96898322D01*
X109153161Y-96713831D01*
X108992764Y-96557631D01*
X108804976Y-96435724D01*
X108581874Y-96355881D01*
X108407000Y-96482046D01*
X108153000Y-96482046D01*
X107978126Y-96355881D01*
X107755024Y-96435724D01*
X107567236Y-96557631D01*
X107406839Y-96713831D01*
X107279997Y-96898322D01*
X107191585Y-97104013D01*
X107171928Y-97196417D01*
X106986898Y-97119774D01*
X106786939Y-97080000D01*
X106583061Y-97080000D01*
X106383102Y-97119774D01*
X106362290Y-97128395D01*
X106578486Y-97012836D01*
X106698374Y-96727980D01*
X105600000Y-95629605D01*
X104501626Y-96727980D01*
X89486892Y-96727980D01*
X89417205Y-96559744D01*
X89303937Y-96390226D01*
X89159774Y-96246063D01*
X88990256Y-96132795D01*
X88801898Y-96054774D01*
X88601939Y-96015000D01*
X88398061Y-96015000D01*
X88198102Y-96054774D01*
X88009744Y-96132795D01*
X87840226Y-96246063D01*
X87696063Y-96390226D01*
X87582795Y-96559744D01*
X87504774Y-96748102D01*
X87465000Y-96948061D01*
X84618150Y-96948061D01*
X84451939Y-96915000D01*
X84248061Y-96915000D01*
X84048102Y-96954774D01*
X83859744Y-97032795D01*
X83690226Y-97146063D01*
X83546063Y-97290226D01*
X83432795Y-97459744D01*
X83354774Y-97648102D01*
X83315000Y-97848061D01*
X80160000Y-97848061D01*
X80160000Y-95504684D01*
X103756933Y-95504684D01*
X103803015Y-95863198D01*
X103918154Y-96205833D01*
X104037164Y-96428486D01*
X104322020Y-96548374D01*
X105420395Y-95450000D01*
X105779605Y-95450000D01*
X106877980Y-96548374D01*
X107162836Y-96428486D01*
X107323699Y-96104790D01*
X107418322Y-95755931D01*
X107443067Y-95395316D01*
X107396985Y-95036802D01*
X107354282Y-94909725D01*
X107406839Y-94986169D01*
X107567236Y-95142369D01*
X107755024Y-95264276D01*
X107978126Y-95344119D01*
X108153000Y-95217954D01*
X108153000Y-94077000D01*
X108407000Y-94077000D01*
X108407000Y-95217954D01*
X108581874Y-95344119D01*
X108804976Y-95264276D01*
X108992764Y-95142369D01*
X109153161Y-94986169D01*
X109280003Y-94801678D01*
X109368415Y-94595987D01*
X109415000Y-94377000D01*
X109415000Y-94077000D01*
X115785000Y-94077000D01*
X115785000Y-94377000D01*
X115831585Y-94595987D01*
X115919997Y-94801678D01*
X116046839Y-94986169D01*
X116207236Y-95142369D01*
X116395024Y-95264276D01*
X116618126Y-95344119D01*
X116793000Y-95217954D01*
X116793000Y-94077000D01*
X117047000Y-94077000D01*
X117047000Y-95217954D01*
X117221874Y-95344119D01*
X117444976Y-95264276D01*
X117632764Y-95142369D01*
X117793161Y-94986169D01*
X117920003Y-94801678D01*
X118008415Y-94595987D01*
X118055000Y-94377000D01*
X118055000Y-94077000D01*
X117047000Y-94077000D01*
X116793000Y-94077000D01*
X115785000Y-94077000D01*
X109415000Y-94077000D01*
X108407000Y-94077000D01*
X108153000Y-94077000D01*
X107145000Y-94077000D01*
X107145000Y-94377000D01*
X107166607Y-94478568D01*
X107162836Y-94471514D01*
X106877980Y-94351626D01*
X105779605Y-95450000D01*
X105420395Y-95450000D01*
X104322020Y-94351626D01*
X104037164Y-94471514D01*
X103876301Y-94795210D01*
X103781678Y-95144069D01*
X103756933Y-95504684D01*
X80160000Y-95504684D01*
X80160000Y-94532279D01*
X80187868Y-94248061D01*
X84365000Y-94248061D01*
X84365000Y-94451939D01*
X84404774Y-94651898D01*
X84482795Y-94840256D01*
X84596063Y-95009774D01*
X84740226Y-95153937D01*
X84909744Y-95267205D01*
X85098102Y-95345226D01*
X85298061Y-95385000D01*
X85501939Y-95385000D01*
X85701898Y-95345226D01*
X85890256Y-95267205D01*
X86059774Y-95153937D01*
X86203937Y-95009774D01*
X86317205Y-94840256D01*
X86395226Y-94651898D01*
X86435000Y-94451939D01*
X86435000Y-94248061D01*
X86419875Y-94172020D01*
X104501626Y-94172020D01*
X105600000Y-95270395D01*
X106698374Y-94172020D01*
X106578486Y-93887164D01*
X106254790Y-93726301D01*
X105905931Y-93631678D01*
X105545316Y-93606933D01*
X105186802Y-93653015D01*
X104844167Y-93768154D01*
X104621514Y-93887164D01*
X104501626Y-94172020D01*
X86419875Y-94172020D01*
X86395226Y-94048102D01*
X86317205Y-93859744D01*
X86203937Y-93690226D01*
X86059774Y-93546063D01*
X85890256Y-93432795D01*
X85701898Y-93354774D01*
X85501939Y-93315000D01*
X85298061Y-93315000D01*
X85098102Y-93354774D01*
X84909744Y-93432795D01*
X84740226Y-93546063D01*
X84596063Y-93690226D01*
X84482795Y-93859744D01*
X84404774Y-94048102D01*
X84365000Y-94248061D01*
X80187868Y-94248061D01*
X80188625Y-94240341D01*
X80264035Y-93990571D01*
X80386522Y-93760208D01*
X80551422Y-93558020D01*
X80752450Y-93391714D01*
X80981954Y-93267622D01*
X81231195Y-93190469D01*
X81521088Y-93160000D01*
X107253486Y-93160000D01*
X107191585Y-93304013D01*
G04 #@! TA.AperFunction,Conductor*
D18*
G36*
X107191585Y-93304013D02*
G01*
X107145000Y-93523000D01*
X107145000Y-93823000D01*
X108153000Y-93823000D01*
X108153000Y-93803000D01*
X108407000Y-93803000D01*
X108407000Y-93823000D01*
X109415000Y-93823000D01*
X109415000Y-93523000D01*
X109368415Y-93304013D01*
X109306514Y-93160000D01*
X115893486Y-93160000D01*
X115831585Y-93304013D01*
X115785000Y-93523000D01*
X115785000Y-93823000D01*
X116793000Y-93823000D01*
X116793000Y-93803000D01*
X117047000Y-93803000D01*
X117047000Y-93823000D01*
X118055000Y-93823000D01*
X118055000Y-93523000D01*
X118008415Y-93304013D01*
X117946514Y-93160000D01*
X117967723Y-93160000D01*
X118162540Y-93179102D01*
X118318894Y-93226308D01*
X118463096Y-93302982D01*
X118589663Y-93406207D01*
X118693769Y-93532051D01*
X118771447Y-93675711D01*
X118819742Y-93831729D01*
X118840000Y-94024473D01*
X118840001Y-113967712D01*
X118820898Y-114162540D01*
X118773692Y-114318895D01*
X118697018Y-114463096D01*
X118593792Y-114589664D01*
X118467951Y-114693768D01*
X118324289Y-114771447D01*
X118168271Y-114819742D01*
X117975527Y-114840000D01*
X115035000Y-114840000D01*
X115035000Y-114748061D01*
X114995226Y-114548102D01*
X114917205Y-114359744D01*
X114803937Y-114190226D01*
X114659774Y-114046063D01*
X114490256Y-113932795D01*
X114301898Y-113854774D01*
X114101939Y-113815000D01*
X113898061Y-113815000D01*
X113698102Y-113854774D01*
X113509744Y-113932795D01*
X113340226Y-114046063D01*
X113196063Y-114190226D01*
X113082795Y-114359744D01*
X113004774Y-114548102D01*
X112965000Y-114748061D01*
X112965000Y-114840000D01*
X109035000Y-114840000D01*
X109035000Y-114773061D01*
X108995226Y-114573102D01*
X108917205Y-114384744D01*
X108803937Y-114215226D01*
X108659774Y-114071063D01*
X108490256Y-113957795D01*
X108301898Y-113879774D01*
X108101939Y-113840000D01*
X107898061Y-113840000D01*
X107698102Y-113879774D01*
X107509744Y-113957795D01*
X107340226Y-114071063D01*
X107196063Y-114215226D01*
X107082795Y-114384744D01*
X107004774Y-114573102D01*
X106965000Y-114773061D01*
X106965000Y-114840000D01*
X103980971Y-114840000D01*
X104109774Y-114753937D01*
X104253937Y-114609774D01*
X104367205Y-114440256D01*
X104445226Y-114251898D01*
X104485000Y-114051939D01*
X104485000Y-113848061D01*
X104445226Y-113648102D01*
X104367205Y-113459744D01*
X104289040Y-113342760D01*
X111340000Y-113342760D01*
X111340000Y-113507240D01*
X111372089Y-113668560D01*
X111435033Y-113820521D01*
X111526413Y-113957281D01*
X111642719Y-114073587D01*
X111779479Y-114164967D01*
X111931440Y-114227911D01*
X112092760Y-114260000D01*
X112257240Y-114260000D01*
X112418560Y-114227911D01*
X112570521Y-114164967D01*
X112707281Y-114073587D01*
X112823587Y-113957281D01*
X112914967Y-113820521D01*
X112977911Y-113668560D01*
X113010000Y-113507240D01*
X113010000Y-113342760D01*
X112977911Y-113181440D01*
X112914967Y-113029479D01*
X112823587Y-112892719D01*
X112707281Y-112776413D01*
X112570521Y-112685033D01*
X112418560Y-112622089D01*
X112257240Y-112590000D01*
X112092760Y-112590000D01*
X111931440Y-112622089D01*
X111779479Y-112685033D01*
X111642719Y-112776413D01*
X111526413Y-112892719D01*
X111435033Y-113029479D01*
X111372089Y-113181440D01*
X111340000Y-113342760D01*
X104289040Y-113342760D01*
X104253937Y-113290226D01*
X104109774Y-113146063D01*
X103940256Y-113032795D01*
X103751898Y-112954774D01*
X103551939Y-112915000D01*
X103476952Y-112915000D01*
X103489967Y-112895521D01*
X103552911Y-112743560D01*
X103583419Y-112590187D01*
X103636420Y-112643188D01*
X103751627Y-112527981D01*
X103871514Y-112812836D01*
X104195210Y-112973699D01*
X104544069Y-113068322D01*
X104904684Y-113093067D01*
X105263198Y-113046985D01*
X105605833Y-112931846D01*
X105828486Y-112812836D01*
X105948374Y-112527980D01*
X104850000Y-111429605D01*
X104835858Y-111443748D01*
X104656252Y-111264142D01*
X104670395Y-111250000D01*
X105029605Y-111250000D01*
X106127980Y-112348374D01*
X106412836Y-112228486D01*
X106573699Y-111904790D01*
X106668322Y-111555931D01*
X106693067Y-111195316D01*
X106646985Y-110836802D01*
X106531846Y-110494167D01*
X106412836Y-110271514D01*
X106127980Y-110151626D01*
X105029605Y-111250000D01*
X104670395Y-111250000D01*
X103572020Y-110151626D01*
X103287164Y-110271514D01*
X103126301Y-110595210D01*
X103031678Y-110944069D01*
X103006933Y-111304684D01*
X103053015Y-111663198D01*
X103075859Y-111731178D01*
X102993560Y-111697089D01*
X102832240Y-111665000D01*
X102667760Y-111665000D01*
X102506440Y-111697089D01*
X102354479Y-111760033D01*
X102217719Y-111851413D01*
X102101413Y-111967719D01*
X102010033Y-112104479D01*
X101947089Y-112256440D01*
X101915000Y-112417760D01*
X101915000Y-112582240D01*
X101947089Y-112743560D01*
X102010033Y-112895521D01*
X102101413Y-113032281D01*
X102217719Y-113148587D01*
X102354479Y-113239967D01*
X102506440Y-113302911D01*
X102622201Y-113325938D01*
X102532795Y-113459744D01*
X102454774Y-113648102D01*
X102415000Y-113848061D01*
X102415000Y-114051939D01*
X102454774Y-114251898D01*
X102532795Y-114440256D01*
X102646063Y-114609774D01*
X102790226Y-114753937D01*
X102919029Y-114840000D01*
X100371159Y-114840000D01*
X100395226Y-114781898D01*
X100435000Y-114581939D01*
X100435000Y-114378061D01*
X100395226Y-114178102D01*
X100317205Y-113989744D01*
X100203937Y-113820226D01*
X100059774Y-113676063D01*
X99890256Y-113562795D01*
X99701898Y-113484774D01*
X99501939Y-113445000D01*
X99298061Y-113445000D01*
X99098102Y-113484774D01*
X98909744Y-113562795D01*
X98740226Y-113676063D01*
X98596063Y-113820226D01*
X98482795Y-113989744D01*
X98404774Y-114178102D01*
X98365000Y-114378061D01*
X98365000Y-114581939D01*
X98404774Y-114781898D01*
X98428841Y-114840000D01*
X81032277Y-114840000D01*
X80837460Y-114820898D01*
X80681105Y-114773692D01*
X80536904Y-114697018D01*
X80410336Y-114593792D01*
X80306232Y-114467951D01*
X80228553Y-114324289D01*
X80180258Y-114168271D01*
X80160000Y-113975527D01*
X80160000Y-110278166D01*
X82151439Y-110278166D01*
X82186550Y-110491588D01*
X82390826Y-110582458D01*
X82608905Y-110631731D01*
X82832406Y-110637511D01*
X83052740Y-110599577D01*
X83261440Y-110519387D01*
X83313450Y-110491588D01*
X83348561Y-110278166D01*
X82750000Y-109679605D01*
X82151439Y-110278166D01*
X80160000Y-110278166D01*
X80160000Y-107988212D01*
X80765000Y-107988212D01*
X80765000Y-108211788D01*
X80808617Y-108431067D01*
X80894176Y-108637624D01*
X81018388Y-108823520D01*
X81176480Y-108981612D01*
X81362376Y-109105824D01*
X81568933Y-109191383D01*
X81652369Y-109207979D01*
X81618269Y-109358905D01*
X81612489Y-109582406D01*
X81650423Y-109802740D01*
X81730613Y-110011440D01*
X81758412Y-110063450D01*
X81971834Y-110098561D01*
X82570395Y-109500000D01*
X82556253Y-109485858D01*
X82735858Y-109306253D01*
X82750000Y-109320395D01*
X82764143Y-109306253D01*
X82943748Y-109485858D01*
X82929605Y-109500000D01*
X83448439Y-110018834D01*
X83518388Y-110123520D01*
X83676480Y-110281612D01*
X83862376Y-110405824D01*
X84068933Y-110491383D01*
X84288212Y-110535000D01*
X84295476Y-110535000D01*
X84265000Y-110688212D01*
X84265000Y-110911788D01*
X84308617Y-111131067D01*
X84394176Y-111337624D01*
X84518388Y-111523520D01*
X84676480Y-111681612D01*
X84862376Y-111805824D01*
X85068933Y-111891383D01*
X85288212Y-111935000D01*
X85511788Y-111935000D01*
X85731067Y-111891383D01*
X85937624Y-111805824D01*
X86123520Y-111681612D01*
X86281612Y-111523520D01*
X86405824Y-111337624D01*
X86491383Y-111131067D01*
X86535000Y-110911788D01*
X86535000Y-110688212D01*
X86491383Y-110468933D01*
X86405824Y-110262376D01*
X86281612Y-110076480D01*
X86153193Y-109948061D01*
X88715000Y-109948061D01*
X88715000Y-110151939D01*
X88754774Y-110351898D01*
X88832795Y-110540256D01*
X88839306Y-110550000D01*
X88832795Y-110559744D01*
X88754774Y-110748102D01*
X88715000Y-110948061D01*
X88715000Y-111151939D01*
X88754774Y-111351898D01*
X88832795Y-111540256D01*
X88946063Y-111709774D01*
X89090226Y-111853937D01*
X89259744Y-111967205D01*
X89448102Y-112045226D01*
X89648061Y-112085000D01*
X89851939Y-112085000D01*
X90051898Y-112045226D01*
X90240256Y-111967205D01*
X90409774Y-111853937D01*
X90553937Y-111709774D01*
X90595172Y-111648061D01*
X93315000Y-111648061D01*
X93315000Y-111851939D01*
X93354774Y-112051898D01*
X93432795Y-112240256D01*
X93546063Y-112409774D01*
X93690226Y-112553937D01*
X93859744Y-112667205D01*
X94048102Y-112745226D01*
X94248061Y-112785000D01*
X94451939Y-112785000D01*
X94651898Y-112745226D01*
X94840256Y-112667205D01*
X95009774Y-112553937D01*
X95140217Y-112423494D01*
X95198061Y-112435000D01*
X95401939Y-112435000D01*
X95601898Y-112395226D01*
X95790256Y-112317205D01*
X95959774Y-112203937D01*
X96103937Y-112059774D01*
X96217205Y-111890256D01*
X96295226Y-111701898D01*
X96335000Y-111501939D01*
X96335000Y-111298061D01*
X96295226Y-111098102D01*
X96217205Y-110909744D01*
X96103937Y-110740226D01*
X95959774Y-110596063D01*
X95790256Y-110482795D01*
X95601898Y-110404774D01*
X95401939Y-110365000D01*
X95198061Y-110365000D01*
X94998102Y-110404774D01*
X94809744Y-110482795D01*
X94640226Y-110596063D01*
X94509783Y-110726506D01*
X94451939Y-110715000D01*
X94248061Y-110715000D01*
X94048102Y-110754774D01*
X93859744Y-110832795D01*
X93690226Y-110946063D01*
X93546063Y-111090226D01*
X93432795Y-111259744D01*
X93354774Y-111448102D01*
X93315000Y-111648061D01*
X90595172Y-111648061D01*
X90667205Y-111540256D01*
X90745226Y-111351898D01*
X90785000Y-111151939D01*
X90785000Y-110948061D01*
X90745226Y-110748102D01*
X90667205Y-110559744D01*
X90660694Y-110550000D01*
X90667205Y-110540256D01*
X90745226Y-110351898D01*
X90785000Y-110151939D01*
X90785000Y-109972020D01*
X103751626Y-109972020D01*
X104850000Y-111070395D01*
X105948374Y-109972020D01*
X105828486Y-109687164D01*
X105504790Y-109526301D01*
X105155931Y-109431678D01*
X104795316Y-109406933D01*
X104436802Y-109453015D01*
X104094167Y-109568154D01*
X103871514Y-109687164D01*
X103751626Y-109972020D01*
X90785000Y-109972020D01*
X90785000Y-109948061D01*
X90745226Y-109748102D01*
X90667205Y-109559744D01*
X90553937Y-109390226D01*
X90409774Y-109246063D01*
X90240256Y-109132795D01*
X90051898Y-109054774D01*
X89851939Y-109015000D01*
X89648061Y-109015000D01*
X89448102Y-109054774D01*
X89259744Y-109132795D01*
X89090226Y-109246063D01*
X88946063Y-109390226D01*
X88832795Y-109559744D01*
X88754774Y-109748102D01*
X88715000Y-109948061D01*
X86153193Y-109948061D01*
X86123520Y-109918388D01*
X85937624Y-109794176D01*
X85731067Y-109708617D01*
X85511788Y-109665000D01*
X85504524Y-109665000D01*
X85535000Y-109511788D01*
X85535000Y-109288212D01*
X85491383Y-109068933D01*
X85405824Y-108862376D01*
X85281612Y-108676480D01*
X85123520Y-108518388D01*
X84937624Y-108394176D01*
X84731067Y-108308617D01*
X84677999Y-108298061D01*
X111515000Y-108298061D01*
X111515000Y-108501939D01*
X111554774Y-108701898D01*
X111632795Y-108890256D01*
X111746063Y-109059774D01*
X111890226Y-109203937D01*
X112059744Y-109317205D01*
X112248102Y-109395226D01*
X112448061Y-109435000D01*
X112651939Y-109435000D01*
X112851898Y-109395226D01*
X113040256Y-109317205D01*
X113209774Y-109203937D01*
X113353937Y-109059774D01*
X113467205Y-108890256D01*
X113545226Y-108701898D01*
X113585000Y-108501939D01*
X113585000Y-108298061D01*
X113545226Y-108098102D01*
X113467205Y-107909744D01*
X113353937Y-107740226D01*
X113209774Y-107596063D01*
X113040256Y-107482795D01*
X112851898Y-107404774D01*
X112651939Y-107365000D01*
X112448061Y-107365000D01*
X112248102Y-107404774D01*
X112059744Y-107482795D01*
X111890226Y-107596063D01*
X111746063Y-107740226D01*
X111632795Y-107909744D01*
X111554774Y-108098102D01*
X111515000Y-108298061D01*
X84677999Y-108298061D01*
X84600995Y-108282744D01*
X84635000Y-108111788D01*
X84635000Y-107888212D01*
X84591383Y-107668933D01*
X84505824Y-107462376D01*
X84381612Y-107276480D01*
X84223520Y-107118388D01*
X84037624Y-106994176D01*
X83831067Y-106908617D01*
X83700995Y-106882744D01*
X83735000Y-106711788D01*
X83735000Y-106488212D01*
X83691383Y-106268933D01*
X83605824Y-106062376D01*
X83481612Y-105876480D01*
X83323520Y-105718388D01*
X83137624Y-105594176D01*
X82931067Y-105508617D01*
X82711788Y-105465000D01*
X82488212Y-105465000D01*
X82268933Y-105508617D01*
X82062376Y-105594176D01*
X81876480Y-105718388D01*
X81718388Y-105876480D01*
X81594176Y-106062376D01*
X81508617Y-106268933D01*
X81465000Y-106488212D01*
X81465000Y-106711788D01*
X81508617Y-106931067D01*
X81544868Y-107018585D01*
X81362376Y-107094176D01*
X81176480Y-107218388D01*
X81018388Y-107376480D01*
X80894176Y-107562376D01*
X80808617Y-107768933D01*
X80765000Y-107988212D01*
X80160000Y-107988212D01*
X80160000Y-105217150D01*
X80309744Y-105317205D01*
X80498102Y-105395226D01*
X80698061Y-105435000D01*
X80901939Y-105435000D01*
X81101898Y-105395226D01*
X81215763Y-105348061D01*
X84365000Y-105348061D01*
X84365000Y-105551939D01*
X84404774Y-105751898D01*
X84482795Y-105940256D01*
X84596063Y-106109774D01*
X84740226Y-106253937D01*
X84909744Y-106367205D01*
X85098102Y-106445226D01*
X85298061Y-106485000D01*
X85401413Y-106485000D01*
X85404774Y-106501898D01*
X85482795Y-106690256D01*
X85596063Y-106859774D01*
X85740226Y-107003937D01*
X85909744Y-107117205D01*
X86098102Y-107195226D01*
X86298061Y-107235000D01*
X86501939Y-107235000D01*
X86701898Y-107195226D01*
X86890256Y-107117205D01*
X87059774Y-107003937D01*
X87203937Y-106859774D01*
X87317205Y-106690256D01*
X87395226Y-106501898D01*
X87435000Y-106301939D01*
X87435000Y-106098061D01*
X87395226Y-105898102D01*
X87317205Y-105709744D01*
X87203937Y-105540226D01*
X87163839Y-105500128D01*
X109831921Y-105500128D01*
X109855853Y-105662858D01*
X109911072Y-105817792D01*
X109950869Y-105892247D01*
X110140121Y-105886641D01*
X110566762Y-105460000D01*
X110140121Y-105033359D01*
X109950869Y-105027753D01*
X109880360Y-105176354D01*
X109840195Y-105335855D01*
X109831921Y-105500128D01*
X87163839Y-105500128D01*
X87059774Y-105396063D01*
X86890256Y-105282795D01*
X86701898Y-105204774D01*
X86501939Y-105165000D01*
X86398587Y-105165000D01*
X86395226Y-105148102D01*
X86317205Y-104959744D01*
X86203937Y-104790226D01*
X86059774Y-104646063D01*
X85890256Y-104532795D01*
X85701898Y-104454774D01*
X85501939Y-104415000D01*
X85298061Y-104415000D01*
X85098102Y-104454774D01*
X84909744Y-104532795D01*
X84740226Y-104646063D01*
X84596063Y-104790226D01*
X84482795Y-104959744D01*
X84404774Y-105148102D01*
X84365000Y-105348061D01*
X81215763Y-105348061D01*
X81290256Y-105317205D01*
X81459774Y-105203937D01*
X81603937Y-105059774D01*
X81717205Y-104890256D01*
X81795226Y-104701898D01*
X81835000Y-104501939D01*
X81835000Y-104298061D01*
X81815109Y-104198061D01*
X82365000Y-104198061D01*
X82365000Y-104401939D01*
X82404774Y-104601898D01*
X82482795Y-104790256D01*
X82596063Y-104959774D01*
X82740226Y-105103937D01*
X82909744Y-105217205D01*
X83098102Y-105295226D01*
X83298061Y-105335000D01*
X83501939Y-105335000D01*
X83701898Y-105295226D01*
X83890256Y-105217205D01*
X84059774Y-105103937D01*
X84203937Y-104959774D01*
X84317205Y-104790256D01*
X84395226Y-104601898D01*
X84435000Y-104401939D01*
X84435000Y-104198061D01*
X84395226Y-103998102D01*
X84317205Y-103809744D01*
X84203937Y-103640226D01*
X84059774Y-103496063D01*
X83890256Y-103382795D01*
X83701898Y-103304774D01*
X83515815Y-103267760D01*
X89965000Y-103267760D01*
X89965000Y-103432240D01*
X89997089Y-103593560D01*
X90020467Y-103650000D01*
X89997089Y-103706440D01*
X89965000Y-103867760D01*
X89965000Y-104032240D01*
X89997089Y-104193560D01*
X90060033Y-104345521D01*
X90151413Y-104482281D01*
X90267719Y-104598587D01*
X90404479Y-104689967D01*
X90556440Y-104752911D01*
X90717760Y-104785000D01*
X90882240Y-104785000D01*
X91043560Y-104752911D01*
X91072632Y-104740869D01*
X110237753Y-104740869D01*
X110243359Y-104930121D01*
X110670000Y-105356762D01*
X110722326Y-105304436D01*
X110825564Y-105407674D01*
X110773238Y-105460000D01*
X110825564Y-105512326D01*
X110722326Y-105615564D01*
X110670000Y-105563238D01*
X110243359Y-105989879D01*
X110237753Y-106179131D01*
X110386354Y-106249640D01*
X110545855Y-106289805D01*
X110710128Y-106298079D01*
X110872858Y-106274147D01*
X111027792Y-106218928D01*
X111102247Y-106179131D01*
X111099159Y-106074873D01*
X111166947Y-106142661D01*
X111170000Y-106139608D01*
X111173053Y-106142661D01*
X111240841Y-106074873D01*
X111237753Y-106179131D01*
X111386354Y-106249640D01*
X111545855Y-106289805D01*
X111710128Y-106298079D01*
X111872858Y-106274147D01*
X112027792Y-106218928D01*
X112102247Y-106179131D01*
X112096641Y-105989879D01*
X111670000Y-105563238D01*
X111617674Y-105615564D01*
X111514436Y-105512326D01*
X111566762Y-105460000D01*
X111773238Y-105460000D01*
X112199879Y-105886641D01*
X112389131Y-105892247D01*
X112459640Y-105743646D01*
X112499805Y-105584145D01*
X112508079Y-105419872D01*
X112484147Y-105257142D01*
X112428928Y-105102208D01*
X112389131Y-105027753D01*
X112199879Y-105033359D01*
X111773238Y-105460000D01*
X111566762Y-105460000D01*
X111514436Y-105407674D01*
X111617674Y-105304436D01*
X111670000Y-105356762D01*
X112096641Y-104930121D01*
X112102247Y-104740869D01*
X111953646Y-104670360D01*
X111794145Y-104630195D01*
X111629872Y-104621921D01*
X111467142Y-104645853D01*
X111312208Y-104701072D01*
X111237753Y-104740869D01*
X111240841Y-104845127D01*
X111173053Y-104777339D01*
X111170000Y-104780392D01*
X111166947Y-104777339D01*
X111099159Y-104845127D01*
X111102247Y-104740869D01*
X110953646Y-104670360D01*
X110794145Y-104630195D01*
X110629872Y-104621921D01*
X110467142Y-104645853D01*
X110312208Y-104701072D01*
X110237753Y-104740869D01*
X91072632Y-104740869D01*
X91195521Y-104689967D01*
X91332281Y-104598587D01*
X91448587Y-104482281D01*
X91539967Y-104345521D01*
X91602911Y-104193560D01*
X91635000Y-104032240D01*
X91635000Y-103867760D01*
X91602911Y-103706440D01*
X91579533Y-103650000D01*
X91602911Y-103593560D01*
X91635000Y-103432240D01*
X91635000Y-103267760D01*
X91602911Y-103106440D01*
X91539967Y-102954479D01*
X91448587Y-102817719D01*
X91332281Y-102701413D01*
X91195521Y-102610033D01*
X91043560Y-102547089D01*
X90882240Y-102515000D01*
X90717760Y-102515000D01*
X90556440Y-102547089D01*
X90404479Y-102610033D01*
X90267719Y-102701413D01*
X90151413Y-102817719D01*
X90060033Y-102954479D01*
X89997089Y-103106440D01*
X89965000Y-103267760D01*
X83515815Y-103267760D01*
X83501939Y-103265000D01*
X83298061Y-103265000D01*
X83098102Y-103304774D01*
X82909744Y-103382795D01*
X82740226Y-103496063D01*
X82596063Y-103640226D01*
X82482795Y-103809744D01*
X82404774Y-103998102D01*
X82365000Y-104198061D01*
X81815109Y-104198061D01*
X81795226Y-104098102D01*
X81717205Y-103909744D01*
X81603937Y-103740226D01*
X81459774Y-103596063D01*
X81290256Y-103482795D01*
X81101898Y-103404774D01*
X80901939Y-103365000D01*
X80698061Y-103365000D01*
X80498102Y-103404774D01*
X80309744Y-103482795D01*
X80160000Y-103582850D01*
X80160000Y-101717760D01*
X97215000Y-101717760D01*
X97215000Y-101882240D01*
X97247089Y-102043560D01*
X97310033Y-102195521D01*
X97401413Y-102332281D01*
X97517719Y-102448587D01*
X97654479Y-102539967D01*
X97806440Y-102602911D01*
X97967760Y-102635000D01*
X98132240Y-102635000D01*
X98293560Y-102602911D01*
X98445521Y-102539967D01*
X98582281Y-102448587D01*
X98698587Y-102332281D01*
X98789967Y-102195521D01*
X98809625Y-102148061D01*
X108765000Y-102148061D01*
X108765000Y-102351939D01*
X108804774Y-102551898D01*
X108882795Y-102740256D01*
X108996063Y-102909774D01*
X109140226Y-103053937D01*
X109309744Y-103167205D01*
X109498102Y-103245226D01*
X109698061Y-103285000D01*
X109901939Y-103285000D01*
X110101898Y-103245226D01*
X110290256Y-103167205D01*
X110459774Y-103053937D01*
X110603937Y-102909774D01*
X110717205Y-102740256D01*
X110795226Y-102551898D01*
X110835000Y-102351939D01*
X110835000Y-102148061D01*
X110795226Y-101948102D01*
X110717205Y-101759744D01*
X110603937Y-101590226D01*
X110459774Y-101446063D01*
X110290256Y-101332795D01*
X110101898Y-101254774D01*
X109901939Y-101215000D01*
X109698061Y-101215000D01*
X109498102Y-101254774D01*
X109309744Y-101332795D01*
X109140226Y-101446063D01*
X108996063Y-101590226D01*
X108882795Y-101759744D01*
X108804774Y-101948102D01*
X108765000Y-102148061D01*
X98809625Y-102148061D01*
X98852911Y-102043560D01*
X98885000Y-101882240D01*
X98885000Y-101717760D01*
X98852911Y-101556440D01*
X98789967Y-101404479D01*
X98698587Y-101267719D01*
X98582281Y-101151413D01*
X98445521Y-101060033D01*
X98293560Y-100997089D01*
X98132240Y-100965000D01*
X97967760Y-100965000D01*
X97806440Y-100997089D01*
X97654479Y-101060033D01*
X97517719Y-101151413D01*
X97401413Y-101267719D01*
X97310033Y-101404479D01*
X97247089Y-101556440D01*
X97215000Y-101717760D01*
X80160000Y-101717760D01*
X80160000Y-97848061D01*
X83315000Y-97848061D01*
X83315000Y-98051939D01*
X83354774Y-98251898D01*
X83432795Y-98440256D01*
X83546063Y-98609774D01*
X83690226Y-98753937D01*
X83859744Y-98867205D01*
X84048102Y-98945226D01*
X84248061Y-98985000D01*
X84451939Y-98985000D01*
X84651898Y-98945226D01*
X84840256Y-98867205D01*
X85009774Y-98753937D01*
X85153937Y-98609774D01*
X85267205Y-98440256D01*
X85345226Y-98251898D01*
X85385000Y-98051939D01*
X85385000Y-97848061D01*
X85345226Y-97648102D01*
X85267205Y-97459744D01*
X85153937Y-97290226D01*
X85009774Y-97146063D01*
X84840256Y-97032795D01*
X84651898Y-96954774D01*
X84618150Y-96948061D01*
X87465000Y-96948061D01*
X87465000Y-97151939D01*
X87504774Y-97351898D01*
X87582795Y-97540256D01*
X87696063Y-97709774D01*
X87840226Y-97853937D01*
X88009744Y-97967205D01*
X88198102Y-98045226D01*
X88398061Y-98085000D01*
X88601939Y-98085000D01*
X88801898Y-98045226D01*
X88858032Y-98021974D01*
X88832795Y-98059744D01*
X88754774Y-98248102D01*
X88715000Y-98448061D01*
X88715000Y-98651939D01*
X88754774Y-98851898D01*
X88832795Y-99040256D01*
X88946063Y-99209774D01*
X89090226Y-99353937D01*
X89259744Y-99467205D01*
X89448102Y-99545226D01*
X89648061Y-99585000D01*
X89851939Y-99585000D01*
X90051898Y-99545226D01*
X90240256Y-99467205D01*
X90409774Y-99353937D01*
X90553937Y-99209774D01*
X90557685Y-99204164D01*
X101389784Y-99204164D01*
X101393826Y-99392827D01*
X101554974Y-99459328D01*
X101725998Y-99493113D01*
X101900328Y-99492884D01*
X102071264Y-99458649D01*
X102230174Y-99392827D01*
X102234216Y-99204164D01*
X102489784Y-99204164D01*
X102493826Y-99392827D01*
X102654974Y-99459328D01*
X102825998Y-99493113D01*
X103000328Y-99492884D01*
X103171264Y-99458649D01*
X103330174Y-99392827D01*
X103334216Y-99204164D01*
X102912000Y-98781948D01*
X102489784Y-99204164D01*
X102234216Y-99204164D01*
X101812000Y-98781948D01*
X101389784Y-99204164D01*
X90557685Y-99204164D01*
X90667205Y-99040256D01*
X90745226Y-98851898D01*
X90785000Y-98651939D01*
X90785000Y-98521998D01*
X100926887Y-98521998D01*
X100927116Y-98696328D01*
X100961351Y-98867264D01*
X101027173Y-99026174D01*
X101215836Y-99030216D01*
X101638052Y-98608000D01*
X101985948Y-98608000D01*
X102027054Y-98649106D01*
X102027116Y-98696328D01*
X102061351Y-98867264D01*
X102127173Y-99026174D01*
X102315836Y-99030216D01*
X102362000Y-98984052D01*
X102408164Y-99030216D01*
X102596827Y-99026174D01*
X102663328Y-98865026D01*
X102697113Y-98694002D01*
X102697054Y-98648998D01*
X102738052Y-98608000D01*
X103085948Y-98608000D01*
X103508164Y-99030216D01*
X103696827Y-99026174D01*
X103763328Y-98865026D01*
X103797113Y-98694002D01*
X103796884Y-98519672D01*
X103762649Y-98348736D01*
X103696827Y-98189826D01*
X103508164Y-98185784D01*
X103085948Y-98608000D01*
X102738052Y-98608000D01*
X102696946Y-98566894D01*
X102696884Y-98519672D01*
X102662649Y-98348736D01*
X102596827Y-98189826D01*
X102408164Y-98185784D01*
X102362000Y-98231948D01*
X102315836Y-98185784D01*
X102127173Y-98189826D01*
X102060672Y-98350974D01*
X102026887Y-98521998D01*
X102026946Y-98567002D01*
X101985948Y-98608000D01*
X101638052Y-98608000D01*
X101215836Y-98185784D01*
X101027173Y-98189826D01*
X100960672Y-98350974D01*
X100926887Y-98521998D01*
X90785000Y-98521998D01*
X90785000Y-98448061D01*
X90745226Y-98248102D01*
X90667205Y-98059744D01*
X90635194Y-98011836D01*
X101389784Y-98011836D01*
X101812000Y-98434052D01*
X102234216Y-98011836D01*
X102489784Y-98011836D01*
X102912000Y-98434052D01*
X103334216Y-98011836D01*
X103330174Y-97823173D01*
X103169026Y-97756672D01*
X102998002Y-97722887D01*
X102823672Y-97723116D01*
X102652736Y-97757351D01*
X102493826Y-97823173D01*
X102489784Y-98011836D01*
X102234216Y-98011836D01*
X102230174Y-97823173D01*
X102069026Y-97756672D01*
X101898002Y-97722887D01*
X101723672Y-97723116D01*
X101552736Y-97757351D01*
X101393826Y-97823173D01*
X101389784Y-98011836D01*
X90635194Y-98011836D01*
X90553937Y-97890226D01*
X90409774Y-97746063D01*
X90240256Y-97632795D01*
X90051898Y-97554774D01*
X89851939Y-97515000D01*
X89648061Y-97515000D01*
X89448102Y-97554774D01*
X89391968Y-97578026D01*
X89417205Y-97540256D01*
X89495226Y-97351898D01*
X89535000Y-97151939D01*
X89535000Y-96948061D01*
X89495226Y-96748102D01*
X89486892Y-96727980D01*
X104501626Y-96727980D01*
X104621514Y-97012836D01*
X104945210Y-97173699D01*
X105294069Y-97268322D01*
X105654684Y-97293067D01*
X106013198Y-97246985D01*
X106345897Y-97135185D01*
X106194744Y-97197795D01*
X106025226Y-97311063D01*
X105881063Y-97455226D01*
X105767795Y-97624744D01*
X105689774Y-97813102D01*
X105682860Y-97847860D01*
X105648102Y-97854774D01*
X105459744Y-97932795D01*
X105290226Y-98046063D01*
X105146063Y-98190226D01*
X105032795Y-98359744D01*
X104954774Y-98548102D01*
X104915000Y-98748061D01*
X104915000Y-98951939D01*
X104954774Y-99151898D01*
X105032795Y-99340256D01*
X105146063Y-99509774D01*
X105290226Y-99653937D01*
X105459744Y-99767205D01*
X105648102Y-99845226D01*
X105848061Y-99885000D01*
X106051939Y-99885000D01*
X106251898Y-99845226D01*
X106440256Y-99767205D01*
X106609774Y-99653937D01*
X106753937Y-99509774D01*
X106867205Y-99340256D01*
X106945226Y-99151898D01*
X106952140Y-99117140D01*
X106986898Y-99110226D01*
X107175256Y-99032205D01*
X107344774Y-98918937D01*
X107442659Y-98821052D01*
X107567236Y-98942369D01*
X107755024Y-99064276D01*
X107978126Y-99144119D01*
X108153000Y-99017954D01*
X108153000Y-97877000D01*
X108407000Y-97877000D01*
X108407000Y-99017954D01*
X108581874Y-99144119D01*
X108804976Y-99064276D01*
X108992764Y-98942369D01*
X109153161Y-98786169D01*
X109280003Y-98601678D01*
X109368415Y-98395987D01*
X109415000Y-98177000D01*
X109415000Y-97877000D01*
X108407000Y-97877000D01*
X108153000Y-97877000D01*
X108133000Y-97877000D01*
X108133000Y-97623000D01*
X108153000Y-97623000D01*
X108153000Y-96482046D01*
X108407000Y-96482046D01*
X108407000Y-97623000D01*
X109415000Y-97623000D01*
X109415000Y-97323000D01*
X109399059Y-97248061D01*
X110065000Y-97248061D01*
X110065000Y-97451939D01*
X110104774Y-97651898D01*
X110182795Y-97840256D01*
X110296063Y-98009774D01*
X110440226Y-98153937D01*
X110609744Y-98267205D01*
X110798102Y-98345226D01*
X110998061Y-98385000D01*
X111201939Y-98385000D01*
X111401898Y-98345226D01*
X111590256Y-98267205D01*
X111759774Y-98153937D01*
X111903937Y-98009774D01*
X112017205Y-97840256D01*
X112095226Y-97651898D01*
X112135000Y-97451939D01*
X112135000Y-97248061D01*
X113065000Y-97248061D01*
X113065000Y-97451939D01*
X113104774Y-97651898D01*
X113182795Y-97840256D01*
X113296063Y-98009774D01*
X113440226Y-98153937D01*
X113609744Y-98267205D01*
X113798102Y-98345226D01*
X113998061Y-98385000D01*
X114201939Y-98385000D01*
X114401898Y-98345226D01*
X114590256Y-98267205D01*
X114759774Y-98153937D01*
X114903937Y-98009774D01*
X114992653Y-97877000D01*
X115785000Y-97877000D01*
X115785000Y-98177000D01*
X115831585Y-98395987D01*
X115919997Y-98601678D01*
X116046839Y-98786169D01*
X116207236Y-98942369D01*
X116395024Y-99064276D01*
X116618126Y-99144119D01*
X116793000Y-99017954D01*
X116793000Y-97877000D01*
X117047000Y-97877000D01*
X117047000Y-99017954D01*
X117221874Y-99144119D01*
X117444976Y-99064276D01*
X117632764Y-98942369D01*
X117793161Y-98786169D01*
X117920003Y-98601678D01*
X118008415Y-98395987D01*
X118055000Y-98177000D01*
X118055000Y-97877000D01*
X117047000Y-97877000D01*
X116793000Y-97877000D01*
X115785000Y-97877000D01*
X114992653Y-97877000D01*
X115017205Y-97840256D01*
X115095226Y-97651898D01*
X115135000Y-97451939D01*
X115135000Y-97323000D01*
X115785000Y-97323000D01*
X115785000Y-97623000D01*
X116793000Y-97623000D01*
X116793000Y-96482046D01*
X117047000Y-96482046D01*
X117047000Y-97623000D01*
X118055000Y-97623000D01*
X118055000Y-97323000D01*
X118008415Y-97104013D01*
X117920003Y-96898322D01*
X117793161Y-96713831D01*
X117632764Y-96557631D01*
X117444976Y-96435724D01*
X117221874Y-96355881D01*
X117047000Y-96482046D01*
X116793000Y-96482046D01*
X116618126Y-96355881D01*
X116395024Y-96435724D01*
X116207236Y-96557631D01*
X116046839Y-96713831D01*
X115919997Y-96898322D01*
X115831585Y-97104013D01*
X115785000Y-97323000D01*
X115135000Y-97323000D01*
X115135000Y-97248061D01*
X115095226Y-97048102D01*
X115017205Y-96859744D01*
X114903937Y-96690226D01*
X114759774Y-96546063D01*
X114590256Y-96432795D01*
X114401898Y-96354774D01*
X114201939Y-96315000D01*
X113998061Y-96315000D01*
X113798102Y-96354774D01*
X113609744Y-96432795D01*
X113440226Y-96546063D01*
X113296063Y-96690226D01*
X113182795Y-96859744D01*
X113104774Y-97048102D01*
X113065000Y-97248061D01*
X112135000Y-97248061D01*
X112095226Y-97048102D01*
X112017205Y-96859744D01*
X111903937Y-96690226D01*
X111759774Y-96546063D01*
X111590256Y-96432795D01*
X111401898Y-96354774D01*
X111201939Y-96315000D01*
X110998061Y-96315000D01*
X110798102Y-96354774D01*
X110609744Y-96432795D01*
X110440226Y-96546063D01*
X110296063Y-96690226D01*
X110182795Y-96859744D01*
X110104774Y-97048102D01*
X110065000Y-97248061D01*
X109399059Y-97248061D01*
X109368415Y-97104013D01*
X109280003Y-96898322D01*
X109153161Y-96713831D01*
X108992764Y-96557631D01*
X108804976Y-96435724D01*
X108581874Y-96355881D01*
X108407000Y-96482046D01*
X108153000Y-96482046D01*
X107978126Y-96355881D01*
X107755024Y-96435724D01*
X107567236Y-96557631D01*
X107406839Y-96713831D01*
X107279997Y-96898322D01*
X107191585Y-97104013D01*
X107171928Y-97196417D01*
X106986898Y-97119774D01*
X106786939Y-97080000D01*
X106583061Y-97080000D01*
X106383102Y-97119774D01*
X106362290Y-97128395D01*
X106578486Y-97012836D01*
X106698374Y-96727980D01*
X105600000Y-95629605D01*
X104501626Y-96727980D01*
X89486892Y-96727980D01*
X89417205Y-96559744D01*
X89303937Y-96390226D01*
X89159774Y-96246063D01*
X88990256Y-96132795D01*
X88801898Y-96054774D01*
X88601939Y-96015000D01*
X88398061Y-96015000D01*
X88198102Y-96054774D01*
X88009744Y-96132795D01*
X87840226Y-96246063D01*
X87696063Y-96390226D01*
X87582795Y-96559744D01*
X87504774Y-96748102D01*
X87465000Y-96948061D01*
X84618150Y-96948061D01*
X84451939Y-96915000D01*
X84248061Y-96915000D01*
X84048102Y-96954774D01*
X83859744Y-97032795D01*
X83690226Y-97146063D01*
X83546063Y-97290226D01*
X83432795Y-97459744D01*
X83354774Y-97648102D01*
X83315000Y-97848061D01*
X80160000Y-97848061D01*
X80160000Y-95504684D01*
X103756933Y-95504684D01*
X103803015Y-95863198D01*
X103918154Y-96205833D01*
X104037164Y-96428486D01*
X104322020Y-96548374D01*
X105420395Y-95450000D01*
X105779605Y-95450000D01*
X106877980Y-96548374D01*
X107162836Y-96428486D01*
X107323699Y-96104790D01*
X107418322Y-95755931D01*
X107443067Y-95395316D01*
X107396985Y-95036802D01*
X107354282Y-94909725D01*
X107406839Y-94986169D01*
X107567236Y-95142369D01*
X107755024Y-95264276D01*
X107978126Y-95344119D01*
X108153000Y-95217954D01*
X108153000Y-94077000D01*
X108407000Y-94077000D01*
X108407000Y-95217954D01*
X108581874Y-95344119D01*
X108804976Y-95264276D01*
X108992764Y-95142369D01*
X109153161Y-94986169D01*
X109280003Y-94801678D01*
X109368415Y-94595987D01*
X109415000Y-94377000D01*
X109415000Y-94077000D01*
X115785000Y-94077000D01*
X115785000Y-94377000D01*
X115831585Y-94595987D01*
X115919997Y-94801678D01*
X116046839Y-94986169D01*
X116207236Y-95142369D01*
X116395024Y-95264276D01*
X116618126Y-95344119D01*
X116793000Y-95217954D01*
X116793000Y-94077000D01*
X117047000Y-94077000D01*
X117047000Y-95217954D01*
X117221874Y-95344119D01*
X117444976Y-95264276D01*
X117632764Y-95142369D01*
X117793161Y-94986169D01*
X117920003Y-94801678D01*
X118008415Y-94595987D01*
X118055000Y-94377000D01*
X118055000Y-94077000D01*
X117047000Y-94077000D01*
X116793000Y-94077000D01*
X115785000Y-94077000D01*
X109415000Y-94077000D01*
X108407000Y-94077000D01*
X108153000Y-94077000D01*
X107145000Y-94077000D01*
X107145000Y-94377000D01*
X107166607Y-94478568D01*
X107162836Y-94471514D01*
X106877980Y-94351626D01*
X105779605Y-95450000D01*
X105420395Y-95450000D01*
X104322020Y-94351626D01*
X104037164Y-94471514D01*
X103876301Y-94795210D01*
X103781678Y-95144069D01*
X103756933Y-95504684D01*
X80160000Y-95504684D01*
X80160000Y-94532279D01*
X80187868Y-94248061D01*
X84365000Y-94248061D01*
X84365000Y-94451939D01*
X84404774Y-94651898D01*
X84482795Y-94840256D01*
X84596063Y-95009774D01*
X84740226Y-95153937D01*
X84909744Y-95267205D01*
X85098102Y-95345226D01*
X85298061Y-95385000D01*
X85501939Y-95385000D01*
X85701898Y-95345226D01*
X85890256Y-95267205D01*
X86059774Y-95153937D01*
X86203937Y-95009774D01*
X86317205Y-94840256D01*
X86395226Y-94651898D01*
X86435000Y-94451939D01*
X86435000Y-94248061D01*
X86419875Y-94172020D01*
X104501626Y-94172020D01*
X105600000Y-95270395D01*
X106698374Y-94172020D01*
X106578486Y-93887164D01*
X106254790Y-93726301D01*
X105905931Y-93631678D01*
X105545316Y-93606933D01*
X105186802Y-93653015D01*
X104844167Y-93768154D01*
X104621514Y-93887164D01*
X104501626Y-94172020D01*
X86419875Y-94172020D01*
X86395226Y-94048102D01*
X86317205Y-93859744D01*
X86203937Y-93690226D01*
X86059774Y-93546063D01*
X85890256Y-93432795D01*
X85701898Y-93354774D01*
X85501939Y-93315000D01*
X85298061Y-93315000D01*
X85098102Y-93354774D01*
X84909744Y-93432795D01*
X84740226Y-93546063D01*
X84596063Y-93690226D01*
X84482795Y-93859744D01*
X84404774Y-94048102D01*
X84365000Y-94248061D01*
X80187868Y-94248061D01*
X80188625Y-94240341D01*
X80264035Y-93990571D01*
X80386522Y-93760208D01*
X80551422Y-93558020D01*
X80752450Y-93391714D01*
X80981954Y-93267622D01*
X81231195Y-93190469D01*
X81521088Y-93160000D01*
X107253486Y-93160000D01*
X107191585Y-93304013D01*
G37*
G04 #@! TD.AperFunction*
M02*
