G04 #@! TF.GenerationSoftware,KiCad,Pcbnew,(5.1.9)-1*
G04 #@! TF.CreationDate,2021-04-01T13:05:19-07:00*
G04 #@! TF.ProjectId,rgba,72676261-2e6b-4696-9361-645f70636258,1.1*
G04 #@! TF.SameCoordinates,Original*
G04 #@! TF.FileFunction,Legend,Bot*
G04 #@! TF.FilePolarity,Positive*
%FSLAX46Y46*%
G04 Gerber Fmt 4.6, Leading zero omitted, Abs format (unit mm)*
G04 Created by KiCad (PCBNEW (5.1.9)-1) date 2021-04-01 13:05:19*
%MOMM*%
%LPD*%
G01*
G04 APERTURE LIST*
%ADD10C,0.120000*%
%ADD11C,0.200000*%
%ADD12C,0.100000*%
G04 APERTURE END LIST*
D10*
X94700000Y-94065000D02*
X97185000Y-94065000D01*
X97185000Y-94065000D02*
X97185000Y-95435000D01*
X97185000Y-95435000D02*
X94700000Y-95435000D01*
X99622500Y-96845276D02*
X99622500Y-97354724D01*
X98577500Y-96845276D02*
X98577500Y-97354724D01*
X102854724Y-96872500D02*
X102345276Y-96872500D01*
X102854724Y-95827500D02*
X102345276Y-95827500D01*
X97922500Y-96895276D02*
X97922500Y-97404724D01*
X96877500Y-96895276D02*
X96877500Y-97404724D01*
X98300000Y-94065000D02*
X100785000Y-94065000D01*
X100785000Y-94065000D02*
X100785000Y-95435000D01*
X100785000Y-95435000D02*
X98300000Y-95435000D01*
X101900000Y-94065000D02*
X104385000Y-94065000D01*
X104385000Y-94065000D02*
X104385000Y-95435000D01*
X104385000Y-95435000D02*
X101900000Y-95435000D01*
X112790000Y-106560000D02*
X112790000Y-105360000D01*
X109550000Y-105460000D02*
X109550000Y-106460000D01*
D11*
X112920000Y-107460000D02*
G75*
G03*
X112920000Y-107460000I-100000J0D01*
G01*
X112329000Y-114900000D02*
X112329000Y-114900000D01*
X112329000Y-114700000D02*
X112329000Y-114700000D01*
D12*
X110175000Y-113450000D02*
X109775000Y-113450000D01*
D11*
X112329000Y-114700000D02*
G75*
G03*
X112329000Y-114900000I0J-100000D01*
G01*
X112329000Y-114900000D02*
G75*
G03*
X112329000Y-114700000I0J100000D01*
G01*
X106504000Y-114950000D02*
X106504000Y-114950000D01*
X106504000Y-114750000D02*
X106504000Y-114750000D01*
D12*
X104350000Y-113500000D02*
X103950000Y-113500000D01*
D11*
X106504000Y-114750000D02*
G75*
G03*
X106504000Y-114950000I0J-100000D01*
G01*
X106504000Y-114950000D02*
G75*
G03*
X106504000Y-114750000I0J100000D01*
G01*
X118154000Y-114900000D02*
X118154000Y-114900000D01*
X118154000Y-114700000D02*
X118154000Y-114700000D01*
D12*
X116000000Y-113450000D02*
X115600000Y-113450000D01*
D11*
X118154000Y-114700000D02*
G75*
G03*
X118154000Y-114900000I0J-100000D01*
G01*
X118154000Y-114900000D02*
G75*
G03*
X118154000Y-114700000I0J100000D01*
G01*
D10*
X88810000Y-95085000D02*
X86350000Y-95085000D01*
X88810000Y-93615000D02*
X88810000Y-95085000D01*
X86350000Y-93615000D02*
X88810000Y-93615000D01*
X88810000Y-96685000D02*
X86350000Y-96685000D01*
X88810000Y-95215000D02*
X88810000Y-96685000D01*
X86350000Y-95215000D02*
X88810000Y-95215000D01*
X108000000Y-97550000D02*
X108000000Y-95550000D01*
X117400000Y-97550000D02*
X117400000Y-95550000D01*
X111958748Y-100350000D02*
X112481252Y-100350000D01*
X111958748Y-102570000D02*
X112481252Y-102570000D01*
X114390000Y-106338748D02*
X114390000Y-106861252D01*
X116610000Y-106338748D02*
X116610000Y-106861252D01*
X109340665Y-102983000D02*
X109572335Y-102983000D01*
X109340665Y-103703000D02*
X109572335Y-103703000D01*
X110655835Y-108760000D02*
X110424165Y-108760000D01*
X110655835Y-108040000D02*
X110424165Y-108040000D01*
X113910000Y-105114165D02*
X113910000Y-105345835D01*
X113190000Y-105114165D02*
X113190000Y-105345835D01*
X86632379Y-97920000D02*
X86967621Y-97920000D01*
X86632379Y-98680000D02*
X86967621Y-98680000D01*
X94684165Y-114440000D02*
X94915835Y-114440000D01*
X94684165Y-115160000D02*
X94915835Y-115160000D01*
X97432379Y-114320000D02*
X97767621Y-114320000D01*
X97432379Y-115080000D02*
X97767621Y-115080000D01*
X112604165Y-103200000D02*
X112835835Y-103200000D01*
X112604165Y-103920000D02*
X112835835Y-103920000D01*
M02*
