G04 #@! TF.GenerationSoftware,KiCad,Pcbnew,(5.1.9)-1*
G04 #@! TF.CreationDate,2021-04-01T13:05:19-07:00*
G04 #@! TF.ProjectId,rgba,72676261-2e6b-4696-9361-645f70636258,1.1*
G04 #@! TF.SameCoordinates,Original*
G04 #@! TF.FileFunction,Soldermask,Bot*
G04 #@! TF.FilePolarity,Negative*
%FSLAX46Y46*%
G04 Gerber Fmt 4.6, Leading zero omitted, Abs format (unit mm)*
G04 Created by KiCad (PCBNEW (5.1.9)-1) date 2021-04-01 13:05:19*
%MOMM*%
%LPD*%
G01*
G04 APERTURE LIST*
%ADD10C,1.500000*%
%ADD11R,0.600000X1.600000*%
%ADD12R,1.600000X0.600000*%
%ADD13R,2.000000X1.200000*%
%ADD14C,0.400000*%
%ADD15C,2.400000*%
%ADD16R,1.140000X2.032000*%
%ADD17O,1.000000X1.600000*%
%ADD18R,0.700000X1.450000*%
%ADD19R,0.600000X1.450000*%
G04 APERTURE END LIST*
D10*
X84000000Y-109000000D03*
X81000000Y-106500000D03*
X82500000Y-107750000D03*
X85500000Y-110250000D03*
G36*
G01*
X95300000Y-94537500D02*
X95300000Y-94962500D01*
G75*
G02*
X95087500Y-95175000I-212500J0D01*
G01*
X94287500Y-95175000D01*
G75*
G02*
X94075000Y-94962500I0J212500D01*
G01*
X94075000Y-94537500D01*
G75*
G02*
X94287500Y-94325000I212500J0D01*
G01*
X95087500Y-94325000D01*
G75*
G02*
X95300000Y-94537500I0J-212500D01*
G01*
G37*
G36*
G01*
X96925000Y-94537500D02*
X96925000Y-94962500D01*
G75*
G02*
X96712500Y-95175000I-212500J0D01*
G01*
X95912500Y-95175000D01*
G75*
G02*
X95700000Y-94962500I0J212500D01*
G01*
X95700000Y-94537500D01*
G75*
G02*
X95912500Y-94325000I212500J0D01*
G01*
X96712500Y-94325000D01*
G75*
G02*
X96925000Y-94537500I0J-212500D01*
G01*
G37*
G36*
G01*
X98862500Y-97525000D02*
X99337500Y-97525000D01*
G75*
G02*
X99575000Y-97762500I0J-237500D01*
G01*
X99575000Y-98262500D01*
G75*
G02*
X99337500Y-98500000I-237500J0D01*
G01*
X98862500Y-98500000D01*
G75*
G02*
X98625000Y-98262500I0J237500D01*
G01*
X98625000Y-97762500D01*
G75*
G02*
X98862500Y-97525000I237500J0D01*
G01*
G37*
G36*
G01*
X98862500Y-95700000D02*
X99337500Y-95700000D01*
G75*
G02*
X99575000Y-95937500I0J-237500D01*
G01*
X99575000Y-96437500D01*
G75*
G02*
X99337500Y-96675000I-237500J0D01*
G01*
X98862500Y-96675000D01*
G75*
G02*
X98625000Y-96437500I0J237500D01*
G01*
X98625000Y-95937500D01*
G75*
G02*
X98862500Y-95700000I237500J0D01*
G01*
G37*
G36*
G01*
X102175000Y-96112500D02*
X102175000Y-96587500D01*
G75*
G02*
X101937500Y-96825000I-237500J0D01*
G01*
X101437500Y-96825000D01*
G75*
G02*
X101200000Y-96587500I0J237500D01*
G01*
X101200000Y-96112500D01*
G75*
G02*
X101437500Y-95875000I237500J0D01*
G01*
X101937500Y-95875000D01*
G75*
G02*
X102175000Y-96112500I0J-237500D01*
G01*
G37*
G36*
G01*
X104000000Y-96112500D02*
X104000000Y-96587500D01*
G75*
G02*
X103762500Y-96825000I-237500J0D01*
G01*
X103262500Y-96825000D01*
G75*
G02*
X103025000Y-96587500I0J237500D01*
G01*
X103025000Y-96112500D01*
G75*
G02*
X103262500Y-95875000I237500J0D01*
G01*
X103762500Y-95875000D01*
G75*
G02*
X104000000Y-96112500I0J-237500D01*
G01*
G37*
G36*
G01*
X97162500Y-97575000D02*
X97637500Y-97575000D01*
G75*
G02*
X97875000Y-97812500I0J-237500D01*
G01*
X97875000Y-98312500D01*
G75*
G02*
X97637500Y-98550000I-237500J0D01*
G01*
X97162500Y-98550000D01*
G75*
G02*
X96925000Y-98312500I0J237500D01*
G01*
X96925000Y-97812500D01*
G75*
G02*
X97162500Y-97575000I237500J0D01*
G01*
G37*
G36*
G01*
X97162500Y-95750000D02*
X97637500Y-95750000D01*
G75*
G02*
X97875000Y-95987500I0J-237500D01*
G01*
X97875000Y-96487500D01*
G75*
G02*
X97637500Y-96725000I-237500J0D01*
G01*
X97162500Y-96725000D01*
G75*
G02*
X96925000Y-96487500I0J237500D01*
G01*
X96925000Y-95987500D01*
G75*
G02*
X97162500Y-95750000I237500J0D01*
G01*
G37*
D11*
X80400000Y-100180000D03*
X81400000Y-100180000D03*
X82400000Y-100180000D03*
X83400000Y-100180000D03*
X84400000Y-100180000D03*
X85400000Y-100180000D03*
X86400000Y-100180000D03*
X87400000Y-100180000D03*
X88400000Y-100180000D03*
X89400000Y-100180000D03*
X90400000Y-100180000D03*
X91400000Y-100180000D03*
X92400000Y-100180000D03*
X93400000Y-100180000D03*
X94400000Y-100180000D03*
X95400000Y-100180000D03*
X96400000Y-100180000D03*
X97400000Y-100180000D03*
X98400000Y-100180000D03*
X99400000Y-100180000D03*
X100400000Y-100180000D03*
X100400000Y-113180000D03*
X99400000Y-113180000D03*
X98400000Y-113180000D03*
X97400000Y-113180000D03*
X96400000Y-113180000D03*
X95400000Y-113180000D03*
X94400000Y-113180000D03*
X93400000Y-113180000D03*
X92400000Y-113180000D03*
X91400000Y-113180000D03*
X90400000Y-113180000D03*
X89400000Y-113180000D03*
X88400000Y-113180000D03*
X87400000Y-113180000D03*
X86400000Y-113180000D03*
X85400000Y-113180000D03*
X84400000Y-113180000D03*
X83400000Y-113180000D03*
X82400000Y-113180000D03*
X81400000Y-113180000D03*
X80400000Y-113180000D03*
D12*
X101900000Y-102180000D03*
X101900000Y-103180000D03*
X101900000Y-104180000D03*
X101900000Y-105180000D03*
X101900000Y-106180000D03*
X101900000Y-107180000D03*
X101900000Y-108180000D03*
X101900000Y-109180000D03*
X101900000Y-110180000D03*
X101900000Y-111180000D03*
G36*
G01*
X98900000Y-94537500D02*
X98900000Y-94962500D01*
G75*
G02*
X98687500Y-95175000I-212500J0D01*
G01*
X97887500Y-95175000D01*
G75*
G02*
X97675000Y-94962500I0J212500D01*
G01*
X97675000Y-94537500D01*
G75*
G02*
X97887500Y-94325000I212500J0D01*
G01*
X98687500Y-94325000D01*
G75*
G02*
X98900000Y-94537500I0J-212500D01*
G01*
G37*
G36*
G01*
X100525000Y-94537500D02*
X100525000Y-94962500D01*
G75*
G02*
X100312500Y-95175000I-212500J0D01*
G01*
X99512500Y-95175000D01*
G75*
G02*
X99300000Y-94962500I0J212500D01*
G01*
X99300000Y-94537500D01*
G75*
G02*
X99512500Y-94325000I212500J0D01*
G01*
X100312500Y-94325000D01*
G75*
G02*
X100525000Y-94537500I0J-212500D01*
G01*
G37*
G36*
G01*
X102500000Y-94537500D02*
X102500000Y-94962500D01*
G75*
G02*
X102287500Y-95175000I-212500J0D01*
G01*
X101487500Y-95175000D01*
G75*
G02*
X101275000Y-94962500I0J212500D01*
G01*
X101275000Y-94537500D01*
G75*
G02*
X101487500Y-94325000I212500J0D01*
G01*
X102287500Y-94325000D01*
G75*
G02*
X102500000Y-94537500I0J-212500D01*
G01*
G37*
G36*
G01*
X104125000Y-94537500D02*
X104125000Y-94962500D01*
G75*
G02*
X103912500Y-95175000I-212500J0D01*
G01*
X103112500Y-95175000D01*
G75*
G02*
X102900000Y-94962500I0J212500D01*
G01*
X102900000Y-94537500D01*
G75*
G02*
X103112500Y-94325000I212500J0D01*
G01*
X103912500Y-94325000D01*
G75*
G02*
X104125000Y-94537500I0J-212500D01*
G01*
G37*
G36*
G01*
X112295000Y-107660000D02*
X112295000Y-107660000D01*
G75*
G02*
X112195000Y-107560000I0J100000D01*
G01*
X112195000Y-107160000D01*
G75*
G02*
X112295000Y-107060000I100000J0D01*
G01*
X112295000Y-107060000D01*
G75*
G02*
X112395000Y-107160000I0J-100000D01*
G01*
X112395000Y-107560000D01*
G75*
G02*
X112295000Y-107660000I-100000J0D01*
G01*
G37*
D13*
X111170000Y-105960000D03*
G36*
G01*
X111845000Y-107660000D02*
X111845000Y-107660000D01*
G75*
G02*
X111745000Y-107560000I0J100000D01*
G01*
X111745000Y-107160000D01*
G75*
G02*
X111845000Y-107060000I100000J0D01*
G01*
X111845000Y-107060000D01*
G75*
G02*
X111945000Y-107160000I0J-100000D01*
G01*
X111945000Y-107560000D01*
G75*
G02*
X111845000Y-107660000I-100000J0D01*
G01*
G37*
G36*
G01*
X111395000Y-107660000D02*
X111395000Y-107660000D01*
G75*
G02*
X111295000Y-107560000I0J100000D01*
G01*
X111295000Y-107160000D01*
G75*
G02*
X111395000Y-107060000I100000J0D01*
G01*
X111395000Y-107060000D01*
G75*
G02*
X111495000Y-107160000I0J-100000D01*
G01*
X111495000Y-107560000D01*
G75*
G02*
X111395000Y-107660000I-100000J0D01*
G01*
G37*
G36*
G01*
X110945000Y-107660000D02*
X110945000Y-107660000D01*
G75*
G02*
X110845000Y-107560000I0J100000D01*
G01*
X110845000Y-107160000D01*
G75*
G02*
X110945000Y-107060000I100000J0D01*
G01*
X110945000Y-107060000D01*
G75*
G02*
X111045000Y-107160000I0J-100000D01*
G01*
X111045000Y-107560000D01*
G75*
G02*
X110945000Y-107660000I-100000J0D01*
G01*
G37*
G36*
G01*
X110495000Y-107660000D02*
X110495000Y-107660000D01*
G75*
G02*
X110395000Y-107560000I0J100000D01*
G01*
X110395000Y-107160000D01*
G75*
G02*
X110495000Y-107060000I100000J0D01*
G01*
X110495000Y-107060000D01*
G75*
G02*
X110595000Y-107160000I0J-100000D01*
G01*
X110595000Y-107560000D01*
G75*
G02*
X110495000Y-107660000I-100000J0D01*
G01*
G37*
G36*
G01*
X110045000Y-107660000D02*
X110045000Y-107660000D01*
G75*
G02*
X109945000Y-107560000I0J100000D01*
G01*
X109945000Y-107160000D01*
G75*
G02*
X110045000Y-107060000I100000J0D01*
G01*
X110045000Y-107060000D01*
G75*
G02*
X110145000Y-107160000I0J-100000D01*
G01*
X110145000Y-107560000D01*
G75*
G02*
X110045000Y-107660000I-100000J0D01*
G01*
G37*
G36*
G01*
X110045000Y-104860000D02*
X110045000Y-104860000D01*
G75*
G02*
X109945000Y-104760000I0J100000D01*
G01*
X109945000Y-104360000D01*
G75*
G02*
X110045000Y-104260000I100000J0D01*
G01*
X110045000Y-104260000D01*
G75*
G02*
X110145000Y-104360000I0J-100000D01*
G01*
X110145000Y-104760000D01*
G75*
G02*
X110045000Y-104860000I-100000J0D01*
G01*
G37*
G36*
G01*
X110495000Y-104860000D02*
X110495000Y-104860000D01*
G75*
G02*
X110395000Y-104760000I0J100000D01*
G01*
X110395000Y-104360000D01*
G75*
G02*
X110495000Y-104260000I100000J0D01*
G01*
X110495000Y-104260000D01*
G75*
G02*
X110595000Y-104360000I0J-100000D01*
G01*
X110595000Y-104760000D01*
G75*
G02*
X110495000Y-104860000I-100000J0D01*
G01*
G37*
G36*
G01*
X110945000Y-104860000D02*
X110945000Y-104860000D01*
G75*
G02*
X110845000Y-104760000I0J100000D01*
G01*
X110845000Y-104360000D01*
G75*
G02*
X110945000Y-104260000I100000J0D01*
G01*
X110945000Y-104260000D01*
G75*
G02*
X111045000Y-104360000I0J-100000D01*
G01*
X111045000Y-104760000D01*
G75*
G02*
X110945000Y-104860000I-100000J0D01*
G01*
G37*
G36*
G01*
X111395000Y-104860000D02*
X111395000Y-104860000D01*
G75*
G02*
X111295000Y-104760000I0J100000D01*
G01*
X111295000Y-104360000D01*
G75*
G02*
X111395000Y-104260000I100000J0D01*
G01*
X111395000Y-104260000D01*
G75*
G02*
X111495000Y-104360000I0J-100000D01*
G01*
X111495000Y-104760000D01*
G75*
G02*
X111395000Y-104860000I-100000J0D01*
G01*
G37*
G36*
G01*
X111845000Y-104860000D02*
X111845000Y-104860000D01*
G75*
G02*
X111745000Y-104760000I0J100000D01*
G01*
X111745000Y-104360000D01*
G75*
G02*
X111845000Y-104260000I100000J0D01*
G01*
X111845000Y-104260000D01*
G75*
G02*
X111945000Y-104360000I0J-100000D01*
G01*
X111945000Y-104760000D01*
G75*
G02*
X111845000Y-104860000I-100000J0D01*
G01*
G37*
G36*
G01*
X112295000Y-104860000D02*
X112295000Y-104860000D01*
G75*
G02*
X112195000Y-104760000I0J100000D01*
G01*
X112195000Y-104360000D01*
G75*
G02*
X112295000Y-104260000I100000J0D01*
G01*
X112295000Y-104260000D01*
G75*
G02*
X112395000Y-104360000I0J-100000D01*
G01*
X112395000Y-104760000D01*
G75*
G02*
X112295000Y-104860000I-100000J0D01*
G01*
G37*
D14*
X111670000Y-105960000D03*
X110670000Y-105960000D03*
D15*
X104840000Y-111550000D03*
D16*
X108705000Y-114180000D03*
X111245000Y-114180000D03*
X102880000Y-114230000D03*
X105420000Y-114230000D03*
X114530000Y-114180000D03*
X117070000Y-114180000D03*
D15*
X105850000Y-95900000D03*
G36*
G01*
X86800000Y-94112500D02*
X86800000Y-94587500D01*
G75*
G02*
X86562500Y-94825000I-237500J0D01*
G01*
X85987500Y-94825000D01*
G75*
G02*
X85750000Y-94587500I0J237500D01*
G01*
X85750000Y-94112500D01*
G75*
G02*
X85987500Y-93875000I237500J0D01*
G01*
X86562500Y-93875000D01*
G75*
G02*
X86800000Y-94112500I0J-237500D01*
G01*
G37*
G36*
G01*
X88550000Y-94112500D02*
X88550000Y-94587500D01*
G75*
G02*
X88312500Y-94825000I-237500J0D01*
G01*
X87737500Y-94825000D01*
G75*
G02*
X87500000Y-94587500I0J237500D01*
G01*
X87500000Y-94112500D01*
G75*
G02*
X87737500Y-93875000I237500J0D01*
G01*
X88312500Y-93875000D01*
G75*
G02*
X88550000Y-94112500I0J-237500D01*
G01*
G37*
G36*
G01*
X86800000Y-95712500D02*
X86800000Y-96187500D01*
G75*
G02*
X86562500Y-96425000I-237500J0D01*
G01*
X85987500Y-96425000D01*
G75*
G02*
X85750000Y-96187500I0J237500D01*
G01*
X85750000Y-95712500D01*
G75*
G02*
X85987500Y-95475000I237500J0D01*
G01*
X86562500Y-95475000D01*
G75*
G02*
X86800000Y-95712500I0J-237500D01*
G01*
G37*
G36*
G01*
X88550000Y-95712500D02*
X88550000Y-96187500D01*
G75*
G02*
X88312500Y-96425000I-237500J0D01*
G01*
X87737500Y-96425000D01*
G75*
G02*
X87500000Y-96187500I0J237500D01*
G01*
X87500000Y-95712500D01*
G75*
G02*
X87737500Y-95475000I237500J0D01*
G01*
X88312500Y-95475000D01*
G75*
G02*
X88550000Y-95712500I0J-237500D01*
G01*
G37*
D17*
X117020000Y-94550000D03*
X108380000Y-94550000D03*
X108380000Y-98350000D03*
X117020000Y-98350000D03*
D18*
X109950000Y-98712500D03*
X115450000Y-98712500D03*
D19*
X111200000Y-98712500D03*
X114200000Y-98712500D03*
X113200000Y-98712500D03*
X112200000Y-98712500D03*
G36*
G01*
X112670000Y-102310000D02*
X112670000Y-100610000D01*
G75*
G02*
X112920000Y-100360000I250000J0D01*
G01*
X113845000Y-100360000D01*
G75*
G02*
X114095000Y-100610000I0J-250000D01*
G01*
X114095000Y-102310000D01*
G75*
G02*
X113845000Y-102560000I-250000J0D01*
G01*
X112920000Y-102560000D01*
G75*
G02*
X112670000Y-102310000I0J250000D01*
G01*
G37*
G36*
G01*
X110345000Y-102310000D02*
X110345000Y-100610000D01*
G75*
G02*
X110595000Y-100360000I250000J0D01*
G01*
X111520000Y-100360000D01*
G75*
G02*
X111770000Y-100610000I0J-250000D01*
G01*
X111770000Y-102310000D01*
G75*
G02*
X111520000Y-102560000I-250000J0D01*
G01*
X110595000Y-102560000D01*
G75*
G02*
X110345000Y-102310000I0J250000D01*
G01*
G37*
G36*
G01*
X114650000Y-104725000D02*
X116350000Y-104725000D01*
G75*
G02*
X116600000Y-104975000I0J-250000D01*
G01*
X116600000Y-105900000D01*
G75*
G02*
X116350000Y-106150000I-250000J0D01*
G01*
X114650000Y-106150000D01*
G75*
G02*
X114400000Y-105900000I0J250000D01*
G01*
X114400000Y-104975000D01*
G75*
G02*
X114650000Y-104725000I250000J0D01*
G01*
G37*
G36*
G01*
X114650000Y-107050000D02*
X116350000Y-107050000D01*
G75*
G02*
X116600000Y-107300000I0J-250000D01*
G01*
X116600000Y-108225000D01*
G75*
G02*
X116350000Y-108475000I-250000J0D01*
G01*
X114650000Y-108475000D01*
G75*
G02*
X114400000Y-108225000I0J250000D01*
G01*
X114400000Y-107300000D01*
G75*
G02*
X114650000Y-107050000I250000J0D01*
G01*
G37*
G36*
G01*
X109656500Y-103498000D02*
X109656500Y-103188000D01*
G75*
G02*
X109811500Y-103033000I155000J0D01*
G01*
X110236500Y-103033000D01*
G75*
G02*
X110391500Y-103188000I0J-155000D01*
G01*
X110391500Y-103498000D01*
G75*
G02*
X110236500Y-103653000I-155000J0D01*
G01*
X109811500Y-103653000D01*
G75*
G02*
X109656500Y-103498000I0J155000D01*
G01*
G37*
G36*
G01*
X108521500Y-103498000D02*
X108521500Y-103188000D01*
G75*
G02*
X108676500Y-103033000I155000J0D01*
G01*
X109101500Y-103033000D01*
G75*
G02*
X109256500Y-103188000I0J-155000D01*
G01*
X109256500Y-103498000D01*
G75*
G02*
X109101500Y-103653000I-155000J0D01*
G01*
X108676500Y-103653000D01*
G75*
G02*
X108521500Y-103498000I0J155000D01*
G01*
G37*
G36*
G01*
X110340000Y-108245000D02*
X110340000Y-108555000D01*
G75*
G02*
X110185000Y-108710000I-155000J0D01*
G01*
X109760000Y-108710000D01*
G75*
G02*
X109605000Y-108555000I0J155000D01*
G01*
X109605000Y-108245000D01*
G75*
G02*
X109760000Y-108090000I155000J0D01*
G01*
X110185000Y-108090000D01*
G75*
G02*
X110340000Y-108245000I0J-155000D01*
G01*
G37*
G36*
G01*
X111475000Y-108245000D02*
X111475000Y-108555000D01*
G75*
G02*
X111320000Y-108710000I-155000J0D01*
G01*
X110895000Y-108710000D01*
G75*
G02*
X110740000Y-108555000I0J155000D01*
G01*
X110740000Y-108245000D01*
G75*
G02*
X110895000Y-108090000I155000J0D01*
G01*
X111320000Y-108090000D01*
G75*
G02*
X111475000Y-108245000I0J-155000D01*
G01*
G37*
G36*
G01*
X113395000Y-105430000D02*
X113705000Y-105430000D01*
G75*
G02*
X113860000Y-105585000I0J-155000D01*
G01*
X113860000Y-106010000D01*
G75*
G02*
X113705000Y-106165000I-155000J0D01*
G01*
X113395000Y-106165000D01*
G75*
G02*
X113240000Y-106010000I0J155000D01*
G01*
X113240000Y-105585000D01*
G75*
G02*
X113395000Y-105430000I155000J0D01*
G01*
G37*
G36*
G01*
X113395000Y-104295000D02*
X113705000Y-104295000D01*
G75*
G02*
X113860000Y-104450000I0J-155000D01*
G01*
X113860000Y-104875000D01*
G75*
G02*
X113705000Y-105030000I-155000J0D01*
G01*
X113395000Y-105030000D01*
G75*
G02*
X113240000Y-104875000I0J155000D01*
G01*
X113240000Y-104450000D01*
G75*
G02*
X113395000Y-104295000I155000J0D01*
G01*
G37*
G36*
G01*
X87040000Y-98460000D02*
X87040000Y-98140000D01*
G75*
G02*
X87200000Y-97980000I160000J0D01*
G01*
X87595000Y-97980000D01*
G75*
G02*
X87755000Y-98140000I0J-160000D01*
G01*
X87755000Y-98460000D01*
G75*
G02*
X87595000Y-98620000I-160000J0D01*
G01*
X87200000Y-98620000D01*
G75*
G02*
X87040000Y-98460000I0J160000D01*
G01*
G37*
G36*
G01*
X85845000Y-98460000D02*
X85845000Y-98140000D01*
G75*
G02*
X86005000Y-97980000I160000J0D01*
G01*
X86400000Y-97980000D01*
G75*
G02*
X86560000Y-98140000I0J-160000D01*
G01*
X86560000Y-98460000D01*
G75*
G02*
X86400000Y-98620000I-160000J0D01*
G01*
X86005000Y-98620000D01*
G75*
G02*
X85845000Y-98460000I0J160000D01*
G01*
G37*
G36*
G01*
X95000000Y-114955000D02*
X95000000Y-114645000D01*
G75*
G02*
X95155000Y-114490000I155000J0D01*
G01*
X95580000Y-114490000D01*
G75*
G02*
X95735000Y-114645000I0J-155000D01*
G01*
X95735000Y-114955000D01*
G75*
G02*
X95580000Y-115110000I-155000J0D01*
G01*
X95155000Y-115110000D01*
G75*
G02*
X95000000Y-114955000I0J155000D01*
G01*
G37*
G36*
G01*
X93865000Y-114955000D02*
X93865000Y-114645000D01*
G75*
G02*
X94020000Y-114490000I155000J0D01*
G01*
X94445000Y-114490000D01*
G75*
G02*
X94600000Y-114645000I0J-155000D01*
G01*
X94600000Y-114955000D01*
G75*
G02*
X94445000Y-115110000I-155000J0D01*
G01*
X94020000Y-115110000D01*
G75*
G02*
X93865000Y-114955000I0J155000D01*
G01*
G37*
G36*
G01*
X97840000Y-114860000D02*
X97840000Y-114540000D01*
G75*
G02*
X98000000Y-114380000I160000J0D01*
G01*
X98395000Y-114380000D01*
G75*
G02*
X98555000Y-114540000I0J-160000D01*
G01*
X98555000Y-114860000D01*
G75*
G02*
X98395000Y-115020000I-160000J0D01*
G01*
X98000000Y-115020000D01*
G75*
G02*
X97840000Y-114860000I0J160000D01*
G01*
G37*
G36*
G01*
X96645000Y-114860000D02*
X96645000Y-114540000D01*
G75*
G02*
X96805000Y-114380000I160000J0D01*
G01*
X97200000Y-114380000D01*
G75*
G02*
X97360000Y-114540000I0J-160000D01*
G01*
X97360000Y-114860000D01*
G75*
G02*
X97200000Y-115020000I-160000J0D01*
G01*
X96805000Y-115020000D01*
G75*
G02*
X96645000Y-114860000I0J160000D01*
G01*
G37*
G36*
G01*
X112920000Y-103715000D02*
X112920000Y-103405000D01*
G75*
G02*
X113075000Y-103250000I155000J0D01*
G01*
X113500000Y-103250000D01*
G75*
G02*
X113655000Y-103405000I0J-155000D01*
G01*
X113655000Y-103715000D01*
G75*
G02*
X113500000Y-103870000I-155000J0D01*
G01*
X113075000Y-103870000D01*
G75*
G02*
X112920000Y-103715000I0J155000D01*
G01*
G37*
G36*
G01*
X111785000Y-103715000D02*
X111785000Y-103405000D01*
G75*
G02*
X111940000Y-103250000I155000J0D01*
G01*
X112365000Y-103250000D01*
G75*
G02*
X112520000Y-103405000I0J-155000D01*
G01*
X112520000Y-103715000D01*
G75*
G02*
X112365000Y-103870000I-155000J0D01*
G01*
X111940000Y-103870000D01*
G75*
G02*
X111785000Y-103715000I0J155000D01*
G01*
G37*
M02*
