G04 #@! TF.GenerationSoftware,KiCad,Pcbnew,(5.1.9)-1*
G04 #@! TF.CreationDate,2021-03-14T10:57:35-07:00*
G04 #@! TF.ProjectId,rgba,72676261-2e6b-4696-9361-645f70636258,1*
G04 #@! TF.SameCoordinates,Original*
G04 #@! TF.FileFunction,Legend,Bot*
G04 #@! TF.FilePolarity,Positive*
%FSLAX46Y46*%
G04 Gerber Fmt 4.6, Leading zero omitted, Abs format (unit mm)*
G04 Created by KiCad (PCBNEW (5.1.9)-1) date 2021-03-14 10:57:35*
%MOMM*%
%LPD*%
G01*
G04 APERTURE LIST*
%ADD10C,0.150000*%
%ADD11C,0.200000*%
%ADD12C,0.100000*%
%ADD13C,0.120000*%
G04 APERTURE END LIST*
D10*
X87180952Y-106097619D02*
X87180952Y-105383333D01*
X87133333Y-105240476D01*
X87038095Y-105145238D01*
X86895238Y-105097619D01*
X86800000Y-105097619D01*
X88133333Y-105097619D02*
X87657142Y-105097619D01*
X87657142Y-106097619D01*
X89038095Y-105192857D02*
X88990476Y-105145238D01*
X88847619Y-105097619D01*
X88752380Y-105097619D01*
X88609523Y-105145238D01*
X88514285Y-105240476D01*
X88466666Y-105335714D01*
X88419047Y-105526190D01*
X88419047Y-105669047D01*
X88466666Y-105859523D01*
X88514285Y-105954761D01*
X88609523Y-106050000D01*
X88752380Y-106097619D01*
X88847619Y-106097619D01*
X88990476Y-106050000D01*
X89038095Y-106002380D01*
X89752380Y-106097619D02*
X89752380Y-105383333D01*
X89704761Y-105240476D01*
X89609523Y-105145238D01*
X89466666Y-105097619D01*
X89371428Y-105097619D01*
X90704761Y-105097619D02*
X90228571Y-105097619D01*
X90228571Y-106097619D01*
X91609523Y-105192857D02*
X91561904Y-105145238D01*
X91419047Y-105097619D01*
X91323809Y-105097619D01*
X91180952Y-105145238D01*
X91085714Y-105240476D01*
X91038095Y-105335714D01*
X90990476Y-105526190D01*
X90990476Y-105669047D01*
X91038095Y-105859523D01*
X91085714Y-105954761D01*
X91180952Y-106050000D01*
X91323809Y-106097619D01*
X91419047Y-106097619D01*
X91561904Y-106050000D01*
X91609523Y-106002380D01*
X92323809Y-106097619D02*
X92323809Y-105383333D01*
X92276190Y-105240476D01*
X92180952Y-105145238D01*
X92038095Y-105097619D01*
X91942857Y-105097619D01*
X93276190Y-105097619D02*
X92800000Y-105097619D01*
X92800000Y-106097619D01*
X94180952Y-105192857D02*
X94133333Y-105145238D01*
X93990476Y-105097619D01*
X93895238Y-105097619D01*
X93752380Y-105145238D01*
X93657142Y-105240476D01*
X93609523Y-105335714D01*
X93561904Y-105526190D01*
X93561904Y-105669047D01*
X93609523Y-105859523D01*
X93657142Y-105954761D01*
X93752380Y-106050000D01*
X93895238Y-106097619D01*
X93990476Y-106097619D01*
X94133333Y-106050000D01*
X94180952Y-106002380D01*
X94895238Y-106097619D02*
X94895238Y-105383333D01*
X94847619Y-105240476D01*
X94752380Y-105145238D01*
X94609523Y-105097619D01*
X94514285Y-105097619D01*
X95847619Y-105097619D02*
X95371428Y-105097619D01*
X95371428Y-106097619D01*
X96752380Y-105192857D02*
X96704761Y-105145238D01*
X96561904Y-105097619D01*
X96466666Y-105097619D01*
X96323809Y-105145238D01*
X96228571Y-105240476D01*
X96180952Y-105335714D01*
X96133333Y-105526190D01*
X96133333Y-105669047D01*
X96180952Y-105859523D01*
X96228571Y-105954761D01*
X96323809Y-106050000D01*
X96466666Y-106097619D01*
X96561904Y-106097619D01*
X96704761Y-106050000D01*
X96752380Y-106002380D01*
D11*
X114100000Y-114950000D02*
G75*
G03*
X114100000Y-114750000I0J100000D01*
G01*
X114100000Y-114750000D02*
G75*
G03*
X114100000Y-114950000I0J-100000D01*
G01*
X114100000Y-114950000D02*
X114100000Y-114950000D01*
X114100000Y-114750000D02*
X114100000Y-114750000D01*
D12*
X112200000Y-113500000D02*
X111800000Y-113500000D01*
D11*
X119000000Y-89500000D02*
G75*
G03*
X119000000Y-89700000I0J-100000D01*
G01*
X119000000Y-89700000D02*
G75*
G03*
X119000000Y-89500000I0J100000D01*
G01*
X119000000Y-89500000D02*
X119000000Y-89500000D01*
X119000000Y-89700000D02*
X119000000Y-89700000D01*
D12*
X120900000Y-90950000D02*
X121300000Y-90950000D01*
D11*
X112600000Y-89550000D02*
G75*
G03*
X112600000Y-89750000I0J-100000D01*
G01*
X112600000Y-89750000D02*
G75*
G03*
X112600000Y-89550000I0J100000D01*
G01*
X112600000Y-89550000D02*
X112600000Y-89550000D01*
X112600000Y-89750000D02*
X112600000Y-89750000D01*
D12*
X114500000Y-91000000D02*
X114900000Y-91000000D01*
D13*
X120608748Y-99850000D02*
X121131252Y-99850000D01*
X120608748Y-102070000D02*
X121131252Y-102070000D01*
X122900000Y-110023752D02*
X122900000Y-109501248D01*
X120680000Y-110023752D02*
X120680000Y-109501248D01*
X90360000Y-91535000D02*
X87900000Y-91535000D01*
X90360000Y-90065000D02*
X90360000Y-91535000D01*
X87900000Y-90065000D02*
X90360000Y-90065000D01*
X87900000Y-91665000D02*
X90360000Y-91665000D01*
X90360000Y-91665000D02*
X90360000Y-93135000D01*
X90360000Y-93135000D02*
X87900000Y-93135000D01*
X117990665Y-102483000D02*
X118222335Y-102483000D01*
X117990665Y-103203000D02*
X118222335Y-103203000D01*
X119305835Y-107540000D02*
X119074165Y-107540000D01*
X119305835Y-108260000D02*
X119074165Y-108260000D01*
X121840000Y-104614165D02*
X121840000Y-104845835D01*
X122560000Y-104614165D02*
X122560000Y-104845835D01*
X88167621Y-97620000D02*
X87832379Y-97620000D01*
X88167621Y-98380000D02*
X87832379Y-98380000D01*
X94684165Y-114440000D02*
X94915835Y-114440000D01*
X94684165Y-115160000D02*
X94915835Y-115160000D01*
X95197500Y-93232776D02*
X95197500Y-93742224D01*
X94152500Y-93232776D02*
X94152500Y-93742224D01*
X97727500Y-93232776D02*
X97727500Y-93742224D01*
X98772500Y-93232776D02*
X98772500Y-93742224D01*
X90577500Y-93232776D02*
X90577500Y-93742224D01*
X91622500Y-93232776D02*
X91622500Y-93742224D01*
D12*
X94725000Y-91737500D02*
G75*
G03*
X94725000Y-91737500I-50000J0D01*
G01*
X98300000Y-91737500D02*
G75*
G03*
X98300000Y-91737500I-50000J0D01*
G01*
X91150000Y-91737500D02*
G75*
G03*
X91150000Y-91737500I-50000J0D01*
G01*
D13*
X97432379Y-114320000D02*
X97767621Y-114320000D01*
X97432379Y-115080000D02*
X97767621Y-115080000D01*
X120270000Y-107410000D02*
X121770000Y-107410000D01*
X121770000Y-107410000D02*
X121770000Y-106210000D01*
X118200000Y-104960000D02*
X118200000Y-105960000D01*
X121440000Y-106710000D02*
X121440000Y-104210000D01*
X121254165Y-102700000D02*
X121485835Y-102700000D01*
X121254165Y-103420000D02*
X121485835Y-103420000D01*
X101500000Y-93000000D02*
X101500000Y-91000000D01*
X110900000Y-93000000D02*
X110900000Y-91000000D01*
M02*
