G04 #@! TF.GenerationSoftware,KiCad,Pcbnew,(5.1.9)-1*
G04 #@! TF.CreationDate,2021-04-01T08:38:23-07:00*
G04 #@! TF.ProjectId,rgba,72676261-2e6b-4696-9361-645f70636258,1.1*
G04 #@! TF.SameCoordinates,Original*
G04 #@! TF.FileFunction,Soldermask,Top*
G04 #@! TF.FilePolarity,Negative*
%FSLAX46Y46*%
G04 Gerber Fmt 4.6, Leading zero omitted, Abs format (unit mm)*
G04 Created by KiCad (PCBNEW (5.1.9)-1) date 2021-04-01 08:38:23*
%MOMM*%
%LPD*%
G01*
G04 APERTURE LIST*
%ADD10C,0.400000*%
%ADD11C,2.400000*%
%ADD12R,0.450000X1.450000*%
%ADD13R,1.600000X1.000000*%
%ADD14R,3.450000X3.450000*%
%ADD15R,0.860000X0.270000*%
%ADD16R,2.800000X1.600000*%
%ADD17O,2.800000X1.600000*%
%ADD18O,1.000000X1.600000*%
%ADD19C,1.000000*%
G04 APERTURE END LIST*
D10*
X111670000Y-105460000D03*
X110670000Y-105460000D03*
D11*
X104875000Y-111125000D03*
D12*
X112284000Y-103076000D03*
X111634000Y-103076000D03*
X110984000Y-103076000D03*
X110334000Y-103076000D03*
X110334000Y-107476000D03*
X110984000Y-107476000D03*
X111634000Y-107476000D03*
X112284000Y-107476000D03*
G36*
G01*
X102912000Y-97308000D02*
X103112000Y-97308000D01*
G75*
G02*
X103212000Y-97408000I0J-100000D01*
G01*
X103212000Y-97808000D01*
G75*
G02*
X103112000Y-97908000I-100000J0D01*
G01*
X102912000Y-97908000D01*
G75*
G02*
X102812000Y-97808000I0J100000D01*
G01*
X102812000Y-97408000D01*
G75*
G02*
X102912000Y-97308000I100000J0D01*
G01*
G37*
G36*
G01*
X102262000Y-97308000D02*
X102462000Y-97308000D01*
G75*
G02*
X102562000Y-97408000I0J-100000D01*
G01*
X102562000Y-97808000D01*
G75*
G02*
X102462000Y-97908000I-100000J0D01*
G01*
X102262000Y-97908000D01*
G75*
G02*
X102162000Y-97808000I0J100000D01*
G01*
X102162000Y-97408000D01*
G75*
G02*
X102262000Y-97308000I100000J0D01*
G01*
G37*
G36*
G01*
X101612000Y-97308000D02*
X101812000Y-97308000D01*
G75*
G02*
X101912000Y-97408000I0J-100000D01*
G01*
X101912000Y-97808000D01*
G75*
G02*
X101812000Y-97908000I-100000J0D01*
G01*
X101612000Y-97908000D01*
G75*
G02*
X101512000Y-97808000I0J100000D01*
G01*
X101512000Y-97408000D01*
G75*
G02*
X101612000Y-97308000I100000J0D01*
G01*
G37*
G36*
G01*
X101612000Y-99308000D02*
X101812000Y-99308000D01*
G75*
G02*
X101912000Y-99408000I0J-100000D01*
G01*
X101912000Y-99808000D01*
G75*
G02*
X101812000Y-99908000I-100000J0D01*
G01*
X101612000Y-99908000D01*
G75*
G02*
X101512000Y-99808000I0J100000D01*
G01*
X101512000Y-99408000D01*
G75*
G02*
X101612000Y-99308000I100000J0D01*
G01*
G37*
G36*
G01*
X102262000Y-99308000D02*
X102462000Y-99308000D01*
G75*
G02*
X102562000Y-99408000I0J-100000D01*
G01*
X102562000Y-99808000D01*
G75*
G02*
X102462000Y-99908000I-100000J0D01*
G01*
X102262000Y-99908000D01*
G75*
G02*
X102162000Y-99808000I0J100000D01*
G01*
X102162000Y-99408000D01*
G75*
G02*
X102262000Y-99308000I100000J0D01*
G01*
G37*
G36*
G01*
X102912000Y-99308000D02*
X103112000Y-99308000D01*
G75*
G02*
X103212000Y-99408000I0J-100000D01*
G01*
X103212000Y-99808000D01*
G75*
G02*
X103112000Y-99908000I-100000J0D01*
G01*
X102912000Y-99908000D01*
G75*
G02*
X102812000Y-99808000I0J100000D01*
G01*
X102812000Y-99408000D01*
G75*
G02*
X102912000Y-99308000I100000J0D01*
G01*
G37*
D13*
X102362000Y-98608000D03*
G36*
G01*
X92730500Y-108532000D02*
X92605500Y-108532000D01*
G75*
G02*
X92543000Y-108469500I0J62500D01*
G01*
X92543000Y-107719500D01*
G75*
G02*
X92605500Y-107657000I62500J0D01*
G01*
X92730500Y-107657000D01*
G75*
G02*
X92793000Y-107719500I0J-62500D01*
G01*
X92793000Y-108469500D01*
G75*
G02*
X92730500Y-108532000I-62500J0D01*
G01*
G37*
G36*
G01*
X93230500Y-108532000D02*
X93105500Y-108532000D01*
G75*
G02*
X93043000Y-108469500I0J62500D01*
G01*
X93043000Y-107719500D01*
G75*
G02*
X93105500Y-107657000I62500J0D01*
G01*
X93230500Y-107657000D01*
G75*
G02*
X93293000Y-107719500I0J-62500D01*
G01*
X93293000Y-108469500D01*
G75*
G02*
X93230500Y-108532000I-62500J0D01*
G01*
G37*
G36*
G01*
X93730500Y-108532000D02*
X93605500Y-108532000D01*
G75*
G02*
X93543000Y-108469500I0J62500D01*
G01*
X93543000Y-107719500D01*
G75*
G02*
X93605500Y-107657000I62500J0D01*
G01*
X93730500Y-107657000D01*
G75*
G02*
X93793000Y-107719500I0J-62500D01*
G01*
X93793000Y-108469500D01*
G75*
G02*
X93730500Y-108532000I-62500J0D01*
G01*
G37*
G36*
G01*
X94230500Y-108532000D02*
X94105500Y-108532000D01*
G75*
G02*
X94043000Y-108469500I0J62500D01*
G01*
X94043000Y-107719500D01*
G75*
G02*
X94105500Y-107657000I62500J0D01*
G01*
X94230500Y-107657000D01*
G75*
G02*
X94293000Y-107719500I0J-62500D01*
G01*
X94293000Y-108469500D01*
G75*
G02*
X94230500Y-108532000I-62500J0D01*
G01*
G37*
G36*
G01*
X94730500Y-108532000D02*
X94605500Y-108532000D01*
G75*
G02*
X94543000Y-108469500I0J62500D01*
G01*
X94543000Y-107719500D01*
G75*
G02*
X94605500Y-107657000I62500J0D01*
G01*
X94730500Y-107657000D01*
G75*
G02*
X94793000Y-107719500I0J-62500D01*
G01*
X94793000Y-108469500D01*
G75*
G02*
X94730500Y-108532000I-62500J0D01*
G01*
G37*
G36*
G01*
X95230500Y-108532000D02*
X95105500Y-108532000D01*
G75*
G02*
X95043000Y-108469500I0J62500D01*
G01*
X95043000Y-107719500D01*
G75*
G02*
X95105500Y-107657000I62500J0D01*
G01*
X95230500Y-107657000D01*
G75*
G02*
X95293000Y-107719500I0J-62500D01*
G01*
X95293000Y-108469500D01*
G75*
G02*
X95230500Y-108532000I-62500J0D01*
G01*
G37*
G36*
G01*
X95730500Y-108532000D02*
X95605500Y-108532000D01*
G75*
G02*
X95543000Y-108469500I0J62500D01*
G01*
X95543000Y-107719500D01*
G75*
G02*
X95605500Y-107657000I62500J0D01*
G01*
X95730500Y-107657000D01*
G75*
G02*
X95793000Y-107719500I0J-62500D01*
G01*
X95793000Y-108469500D01*
G75*
G02*
X95730500Y-108532000I-62500J0D01*
G01*
G37*
G36*
G01*
X96230500Y-108532000D02*
X96105500Y-108532000D01*
G75*
G02*
X96043000Y-108469500I0J62500D01*
G01*
X96043000Y-107719500D01*
G75*
G02*
X96105500Y-107657000I62500J0D01*
G01*
X96230500Y-107657000D01*
G75*
G02*
X96293000Y-107719500I0J-62500D01*
G01*
X96293000Y-108469500D01*
G75*
G02*
X96230500Y-108532000I-62500J0D01*
G01*
G37*
G36*
G01*
X97230500Y-107532000D02*
X96480500Y-107532000D01*
G75*
G02*
X96418000Y-107469500I0J62500D01*
G01*
X96418000Y-107344500D01*
G75*
G02*
X96480500Y-107282000I62500J0D01*
G01*
X97230500Y-107282000D01*
G75*
G02*
X97293000Y-107344500I0J-62500D01*
G01*
X97293000Y-107469500D01*
G75*
G02*
X97230500Y-107532000I-62500J0D01*
G01*
G37*
G36*
G01*
X97230500Y-107032000D02*
X96480500Y-107032000D01*
G75*
G02*
X96418000Y-106969500I0J62500D01*
G01*
X96418000Y-106844500D01*
G75*
G02*
X96480500Y-106782000I62500J0D01*
G01*
X97230500Y-106782000D01*
G75*
G02*
X97293000Y-106844500I0J-62500D01*
G01*
X97293000Y-106969500D01*
G75*
G02*
X97230500Y-107032000I-62500J0D01*
G01*
G37*
G36*
G01*
X97230500Y-106532000D02*
X96480500Y-106532000D01*
G75*
G02*
X96418000Y-106469500I0J62500D01*
G01*
X96418000Y-106344500D01*
G75*
G02*
X96480500Y-106282000I62500J0D01*
G01*
X97230500Y-106282000D01*
G75*
G02*
X97293000Y-106344500I0J-62500D01*
G01*
X97293000Y-106469500D01*
G75*
G02*
X97230500Y-106532000I-62500J0D01*
G01*
G37*
G36*
G01*
X97230500Y-106032000D02*
X96480500Y-106032000D01*
G75*
G02*
X96418000Y-105969500I0J62500D01*
G01*
X96418000Y-105844500D01*
G75*
G02*
X96480500Y-105782000I62500J0D01*
G01*
X97230500Y-105782000D01*
G75*
G02*
X97293000Y-105844500I0J-62500D01*
G01*
X97293000Y-105969500D01*
G75*
G02*
X97230500Y-106032000I-62500J0D01*
G01*
G37*
G36*
G01*
X97230500Y-105532000D02*
X96480500Y-105532000D01*
G75*
G02*
X96418000Y-105469500I0J62500D01*
G01*
X96418000Y-105344500D01*
G75*
G02*
X96480500Y-105282000I62500J0D01*
G01*
X97230500Y-105282000D01*
G75*
G02*
X97293000Y-105344500I0J-62500D01*
G01*
X97293000Y-105469500D01*
G75*
G02*
X97230500Y-105532000I-62500J0D01*
G01*
G37*
G36*
G01*
X97230500Y-105032000D02*
X96480500Y-105032000D01*
G75*
G02*
X96418000Y-104969500I0J62500D01*
G01*
X96418000Y-104844500D01*
G75*
G02*
X96480500Y-104782000I62500J0D01*
G01*
X97230500Y-104782000D01*
G75*
G02*
X97293000Y-104844500I0J-62500D01*
G01*
X97293000Y-104969500D01*
G75*
G02*
X97230500Y-105032000I-62500J0D01*
G01*
G37*
G36*
G01*
X97230500Y-104532000D02*
X96480500Y-104532000D01*
G75*
G02*
X96418000Y-104469500I0J62500D01*
G01*
X96418000Y-104344500D01*
G75*
G02*
X96480500Y-104282000I62500J0D01*
G01*
X97230500Y-104282000D01*
G75*
G02*
X97293000Y-104344500I0J-62500D01*
G01*
X97293000Y-104469500D01*
G75*
G02*
X97230500Y-104532000I-62500J0D01*
G01*
G37*
G36*
G01*
X97230500Y-104032000D02*
X96480500Y-104032000D01*
G75*
G02*
X96418000Y-103969500I0J62500D01*
G01*
X96418000Y-103844500D01*
G75*
G02*
X96480500Y-103782000I62500J0D01*
G01*
X97230500Y-103782000D01*
G75*
G02*
X97293000Y-103844500I0J-62500D01*
G01*
X97293000Y-103969500D01*
G75*
G02*
X97230500Y-104032000I-62500J0D01*
G01*
G37*
G36*
G01*
X96230500Y-103657000D02*
X96105500Y-103657000D01*
G75*
G02*
X96043000Y-103594500I0J62500D01*
G01*
X96043000Y-102844500D01*
G75*
G02*
X96105500Y-102782000I62500J0D01*
G01*
X96230500Y-102782000D01*
G75*
G02*
X96293000Y-102844500I0J-62500D01*
G01*
X96293000Y-103594500D01*
G75*
G02*
X96230500Y-103657000I-62500J0D01*
G01*
G37*
G36*
G01*
X95730500Y-103657000D02*
X95605500Y-103657000D01*
G75*
G02*
X95543000Y-103594500I0J62500D01*
G01*
X95543000Y-102844500D01*
G75*
G02*
X95605500Y-102782000I62500J0D01*
G01*
X95730500Y-102782000D01*
G75*
G02*
X95793000Y-102844500I0J-62500D01*
G01*
X95793000Y-103594500D01*
G75*
G02*
X95730500Y-103657000I-62500J0D01*
G01*
G37*
G36*
G01*
X95230500Y-103657000D02*
X95105500Y-103657000D01*
G75*
G02*
X95043000Y-103594500I0J62500D01*
G01*
X95043000Y-102844500D01*
G75*
G02*
X95105500Y-102782000I62500J0D01*
G01*
X95230500Y-102782000D01*
G75*
G02*
X95293000Y-102844500I0J-62500D01*
G01*
X95293000Y-103594500D01*
G75*
G02*
X95230500Y-103657000I-62500J0D01*
G01*
G37*
G36*
G01*
X94730500Y-103657000D02*
X94605500Y-103657000D01*
G75*
G02*
X94543000Y-103594500I0J62500D01*
G01*
X94543000Y-102844500D01*
G75*
G02*
X94605500Y-102782000I62500J0D01*
G01*
X94730500Y-102782000D01*
G75*
G02*
X94793000Y-102844500I0J-62500D01*
G01*
X94793000Y-103594500D01*
G75*
G02*
X94730500Y-103657000I-62500J0D01*
G01*
G37*
G36*
G01*
X94230500Y-103657000D02*
X94105500Y-103657000D01*
G75*
G02*
X94043000Y-103594500I0J62500D01*
G01*
X94043000Y-102844500D01*
G75*
G02*
X94105500Y-102782000I62500J0D01*
G01*
X94230500Y-102782000D01*
G75*
G02*
X94293000Y-102844500I0J-62500D01*
G01*
X94293000Y-103594500D01*
G75*
G02*
X94230500Y-103657000I-62500J0D01*
G01*
G37*
G36*
G01*
X93730500Y-103657000D02*
X93605500Y-103657000D01*
G75*
G02*
X93543000Y-103594500I0J62500D01*
G01*
X93543000Y-102844500D01*
G75*
G02*
X93605500Y-102782000I62500J0D01*
G01*
X93730500Y-102782000D01*
G75*
G02*
X93793000Y-102844500I0J-62500D01*
G01*
X93793000Y-103594500D01*
G75*
G02*
X93730500Y-103657000I-62500J0D01*
G01*
G37*
G36*
G01*
X93230500Y-103657000D02*
X93105500Y-103657000D01*
G75*
G02*
X93043000Y-103594500I0J62500D01*
G01*
X93043000Y-102844500D01*
G75*
G02*
X93105500Y-102782000I62500J0D01*
G01*
X93230500Y-102782000D01*
G75*
G02*
X93293000Y-102844500I0J-62500D01*
G01*
X93293000Y-103594500D01*
G75*
G02*
X93230500Y-103657000I-62500J0D01*
G01*
G37*
G36*
G01*
X92730500Y-103657000D02*
X92605500Y-103657000D01*
G75*
G02*
X92543000Y-103594500I0J62500D01*
G01*
X92543000Y-102844500D01*
G75*
G02*
X92605500Y-102782000I62500J0D01*
G01*
X92730500Y-102782000D01*
G75*
G02*
X92793000Y-102844500I0J-62500D01*
G01*
X92793000Y-103594500D01*
G75*
G02*
X92730500Y-103657000I-62500J0D01*
G01*
G37*
G36*
G01*
X92355500Y-104032000D02*
X91605500Y-104032000D01*
G75*
G02*
X91543000Y-103969500I0J62500D01*
G01*
X91543000Y-103844500D01*
G75*
G02*
X91605500Y-103782000I62500J0D01*
G01*
X92355500Y-103782000D01*
G75*
G02*
X92418000Y-103844500I0J-62500D01*
G01*
X92418000Y-103969500D01*
G75*
G02*
X92355500Y-104032000I-62500J0D01*
G01*
G37*
G36*
G01*
X92355500Y-104532000D02*
X91605500Y-104532000D01*
G75*
G02*
X91543000Y-104469500I0J62500D01*
G01*
X91543000Y-104344500D01*
G75*
G02*
X91605500Y-104282000I62500J0D01*
G01*
X92355500Y-104282000D01*
G75*
G02*
X92418000Y-104344500I0J-62500D01*
G01*
X92418000Y-104469500D01*
G75*
G02*
X92355500Y-104532000I-62500J0D01*
G01*
G37*
G36*
G01*
X92355500Y-105032000D02*
X91605500Y-105032000D01*
G75*
G02*
X91543000Y-104969500I0J62500D01*
G01*
X91543000Y-104844500D01*
G75*
G02*
X91605500Y-104782000I62500J0D01*
G01*
X92355500Y-104782000D01*
G75*
G02*
X92418000Y-104844500I0J-62500D01*
G01*
X92418000Y-104969500D01*
G75*
G02*
X92355500Y-105032000I-62500J0D01*
G01*
G37*
G36*
G01*
X92355500Y-105532000D02*
X91605500Y-105532000D01*
G75*
G02*
X91543000Y-105469500I0J62500D01*
G01*
X91543000Y-105344500D01*
G75*
G02*
X91605500Y-105282000I62500J0D01*
G01*
X92355500Y-105282000D01*
G75*
G02*
X92418000Y-105344500I0J-62500D01*
G01*
X92418000Y-105469500D01*
G75*
G02*
X92355500Y-105532000I-62500J0D01*
G01*
G37*
G36*
G01*
X92355500Y-106032000D02*
X91605500Y-106032000D01*
G75*
G02*
X91543000Y-105969500I0J62500D01*
G01*
X91543000Y-105844500D01*
G75*
G02*
X91605500Y-105782000I62500J0D01*
G01*
X92355500Y-105782000D01*
G75*
G02*
X92418000Y-105844500I0J-62500D01*
G01*
X92418000Y-105969500D01*
G75*
G02*
X92355500Y-106032000I-62500J0D01*
G01*
G37*
G36*
G01*
X92355500Y-106532000D02*
X91605500Y-106532000D01*
G75*
G02*
X91543000Y-106469500I0J62500D01*
G01*
X91543000Y-106344500D01*
G75*
G02*
X91605500Y-106282000I62500J0D01*
G01*
X92355500Y-106282000D01*
G75*
G02*
X92418000Y-106344500I0J-62500D01*
G01*
X92418000Y-106469500D01*
G75*
G02*
X92355500Y-106532000I-62500J0D01*
G01*
G37*
G36*
G01*
X92355500Y-107032000D02*
X91605500Y-107032000D01*
G75*
G02*
X91543000Y-106969500I0J62500D01*
G01*
X91543000Y-106844500D01*
G75*
G02*
X91605500Y-106782000I62500J0D01*
G01*
X92355500Y-106782000D01*
G75*
G02*
X92418000Y-106844500I0J-62500D01*
G01*
X92418000Y-106969500D01*
G75*
G02*
X92355500Y-107032000I-62500J0D01*
G01*
G37*
G36*
G01*
X92355500Y-107532000D02*
X91605500Y-107532000D01*
G75*
G02*
X91543000Y-107469500I0J62500D01*
G01*
X91543000Y-107344500D01*
G75*
G02*
X91605500Y-107282000I62500J0D01*
G01*
X92355500Y-107282000D01*
G75*
G02*
X92418000Y-107344500I0J-62500D01*
G01*
X92418000Y-107469500D01*
G75*
G02*
X92355500Y-107532000I-62500J0D01*
G01*
G37*
D14*
X94418000Y-105657000D03*
D15*
X93715000Y-96050000D03*
X93715000Y-96550000D03*
X93715000Y-97050000D03*
X93715000Y-97550000D03*
X95085000Y-97550000D03*
X95085000Y-97050000D03*
X95085000Y-96550000D03*
X95085000Y-96050000D03*
D11*
X105600000Y-95450000D03*
D16*
X117450000Y-108500000D03*
X117450000Y-111300000D03*
D17*
X117450000Y-114100000D03*
D16*
X117450000Y-105750000D03*
X117450000Y-102950000D03*
D17*
X117450000Y-100150000D03*
G36*
G01*
X85975000Y-95950000D02*
X85525000Y-95950000D01*
G75*
G02*
X85350000Y-95775000I0J175000D01*
G01*
X85350000Y-95425000D01*
G75*
G02*
X85525000Y-95250000I175000J0D01*
G01*
X85975000Y-95250000D01*
G75*
G02*
X86150000Y-95425000I0J-175000D01*
G01*
X86150000Y-95775000D01*
G75*
G02*
X85975000Y-95950000I-175000J0D01*
G01*
G37*
G36*
G01*
X85975000Y-99450000D02*
X85525000Y-99450000D01*
G75*
G02*
X85350000Y-99275000I0J175000D01*
G01*
X85350000Y-98925000D01*
G75*
G02*
X85525000Y-98750000I175000J0D01*
G01*
X85975000Y-98750000D01*
G75*
G02*
X86150000Y-98925000I0J-175000D01*
G01*
X86150000Y-99275000D01*
G75*
G02*
X85975000Y-99450000I-175000J0D01*
G01*
G37*
G36*
G01*
X82250000Y-97050000D02*
X81700000Y-97050000D01*
G75*
G02*
X81550000Y-96900000I0J150000D01*
G01*
X81550000Y-96600000D01*
G75*
G02*
X81700000Y-96450000I150000J0D01*
G01*
X82250000Y-96450000D01*
G75*
G02*
X82400000Y-96600000I0J-150000D01*
G01*
X82400000Y-96900000D01*
G75*
G02*
X82250000Y-97050000I-150000J0D01*
G01*
G37*
G36*
G01*
X82250000Y-98250000D02*
X81700000Y-98250000D01*
G75*
G02*
X81550000Y-98100000I0J150000D01*
G01*
X81550000Y-97800000D01*
G75*
G02*
X81700000Y-97650000I150000J0D01*
G01*
X82250000Y-97650000D01*
G75*
G02*
X82400000Y-97800000I0J-150000D01*
G01*
X82400000Y-98100000D01*
G75*
G02*
X82250000Y-98250000I-150000J0D01*
G01*
G37*
D18*
X116920000Y-93950000D03*
X108280000Y-93950000D03*
X108280000Y-97750000D03*
X116920000Y-97750000D03*
G36*
G01*
X99550000Y-96750000D02*
X97850000Y-96750000D01*
G75*
G02*
X97600000Y-96500000I0J250000D01*
G01*
X97600000Y-95575000D01*
G75*
G02*
X97850000Y-95325000I250000J0D01*
G01*
X99550000Y-95325000D01*
G75*
G02*
X99800000Y-95575000I0J-250000D01*
G01*
X99800000Y-96500000D01*
G75*
G02*
X99550000Y-96750000I-250000J0D01*
G01*
G37*
G36*
G01*
X99550000Y-99075000D02*
X97850000Y-99075000D01*
G75*
G02*
X97600000Y-98825000I0J250000D01*
G01*
X97600000Y-97900000D01*
G75*
G02*
X97850000Y-97650000I250000J0D01*
G01*
X99550000Y-97650000D01*
G75*
G02*
X99800000Y-97900000I0J-250000D01*
G01*
X99800000Y-98825000D01*
G75*
G02*
X99550000Y-99075000I-250000J0D01*
G01*
G37*
G36*
G01*
X96955000Y-95600000D02*
X96645000Y-95600000D01*
G75*
G02*
X96490000Y-95445000I0J155000D01*
G01*
X96490000Y-95020000D01*
G75*
G02*
X96645000Y-94865000I155000J0D01*
G01*
X96955000Y-94865000D01*
G75*
G02*
X97110000Y-95020000I0J-155000D01*
G01*
X97110000Y-95445000D01*
G75*
G02*
X96955000Y-95600000I-155000J0D01*
G01*
G37*
G36*
G01*
X96955000Y-96735000D02*
X96645000Y-96735000D01*
G75*
G02*
X96490000Y-96580000I0J155000D01*
G01*
X96490000Y-96155000D01*
G75*
G02*
X96645000Y-96000000I155000J0D01*
G01*
X96955000Y-96000000D01*
G75*
G02*
X97110000Y-96155000I0J-155000D01*
G01*
X97110000Y-96580000D01*
G75*
G02*
X96955000Y-96735000I-155000J0D01*
G01*
G37*
G36*
G01*
X92605000Y-95550000D02*
X92295000Y-95550000D01*
G75*
G02*
X92140000Y-95395000I0J155000D01*
G01*
X92140000Y-94970000D01*
G75*
G02*
X92295000Y-94815000I155000J0D01*
G01*
X92605000Y-94815000D01*
G75*
G02*
X92760000Y-94970000I0J-155000D01*
G01*
X92760000Y-95395000D01*
G75*
G02*
X92605000Y-95550000I-155000J0D01*
G01*
G37*
G36*
G01*
X92605000Y-96685000D02*
X92295000Y-96685000D01*
G75*
G02*
X92140000Y-96530000I0J155000D01*
G01*
X92140000Y-96105000D01*
G75*
G02*
X92295000Y-95950000I155000J0D01*
G01*
X92605000Y-95950000D01*
G75*
G02*
X92760000Y-96105000I0J-155000D01*
G01*
X92760000Y-96530000D01*
G75*
G02*
X92605000Y-96685000I-155000J0D01*
G01*
G37*
G36*
G01*
X108411500Y-109754000D02*
X108411500Y-109434000D01*
G75*
G02*
X108571500Y-109274000I160000J0D01*
G01*
X108966500Y-109274000D01*
G75*
G02*
X109126500Y-109434000I0J-160000D01*
G01*
X109126500Y-109754000D01*
G75*
G02*
X108966500Y-109914000I-160000J0D01*
G01*
X108571500Y-109914000D01*
G75*
G02*
X108411500Y-109754000I0J160000D01*
G01*
G37*
G36*
G01*
X107216500Y-109754000D02*
X107216500Y-109434000D01*
G75*
G02*
X107376500Y-109274000I160000J0D01*
G01*
X107771500Y-109274000D01*
G75*
G02*
X107931500Y-109434000I0J-160000D01*
G01*
X107931500Y-109754000D01*
G75*
G02*
X107771500Y-109914000I-160000J0D01*
G01*
X107376500Y-109914000D01*
G75*
G02*
X107216500Y-109754000I0J160000D01*
G01*
G37*
G36*
G01*
X108374000Y-108357000D02*
X108374000Y-108037000D01*
G75*
G02*
X108534000Y-107877000I160000J0D01*
G01*
X108929000Y-107877000D01*
G75*
G02*
X109089000Y-108037000I0J-160000D01*
G01*
X109089000Y-108357000D01*
G75*
G02*
X108929000Y-108517000I-160000J0D01*
G01*
X108534000Y-108517000D01*
G75*
G02*
X108374000Y-108357000I0J160000D01*
G01*
G37*
G36*
G01*
X107179000Y-108357000D02*
X107179000Y-108037000D01*
G75*
G02*
X107339000Y-107877000I160000J0D01*
G01*
X107734000Y-107877000D01*
G75*
G02*
X107894000Y-108037000I0J-160000D01*
G01*
X107894000Y-108357000D01*
G75*
G02*
X107734000Y-108517000I-160000J0D01*
G01*
X107339000Y-108517000D01*
G75*
G02*
X107179000Y-108357000I0J160000D01*
G01*
G37*
G36*
G01*
X107894000Y-106640000D02*
X107894000Y-106960000D01*
G75*
G02*
X107734000Y-107120000I-160000J0D01*
G01*
X107339000Y-107120000D01*
G75*
G02*
X107179000Y-106960000I0J160000D01*
G01*
X107179000Y-106640000D01*
G75*
G02*
X107339000Y-106480000I160000J0D01*
G01*
X107734000Y-106480000D01*
G75*
G02*
X107894000Y-106640000I0J-160000D01*
G01*
G37*
G36*
G01*
X109089000Y-106640000D02*
X109089000Y-106960000D01*
G75*
G02*
X108929000Y-107120000I-160000J0D01*
G01*
X108534000Y-107120000D01*
G75*
G02*
X108374000Y-106960000I0J160000D01*
G01*
X108374000Y-106640000D01*
G75*
G02*
X108534000Y-106480000I160000J0D01*
G01*
X108929000Y-106480000D01*
G75*
G02*
X109089000Y-106640000I0J-160000D01*
G01*
G37*
G36*
G01*
X103733000Y-109069500D02*
X103733000Y-108594500D01*
G75*
G02*
X103970500Y-108357000I237500J0D01*
G01*
X104470500Y-108357000D01*
G75*
G02*
X104708000Y-108594500I0J-237500D01*
G01*
X104708000Y-109069500D01*
G75*
G02*
X104470500Y-109307000I-237500J0D01*
G01*
X103970500Y-109307000D01*
G75*
G02*
X103733000Y-109069500I0J237500D01*
G01*
G37*
G36*
G01*
X101908000Y-109069500D02*
X101908000Y-108594500D01*
G75*
G02*
X102145500Y-108357000I237500J0D01*
G01*
X102645500Y-108357000D01*
G75*
G02*
X102883000Y-108594500I0J-237500D01*
G01*
X102883000Y-109069500D01*
G75*
G02*
X102645500Y-109307000I-237500J0D01*
G01*
X102145500Y-109307000D01*
G75*
G02*
X101908000Y-109069500I0J237500D01*
G01*
G37*
G36*
G01*
X102883000Y-106816500D02*
X102883000Y-107291500D01*
G75*
G02*
X102645500Y-107529000I-237500J0D01*
G01*
X102145500Y-107529000D01*
G75*
G02*
X101908000Y-107291500I0J237500D01*
G01*
X101908000Y-106816500D01*
G75*
G02*
X102145500Y-106579000I237500J0D01*
G01*
X102645500Y-106579000D01*
G75*
G02*
X102883000Y-106816500I0J-237500D01*
G01*
G37*
G36*
G01*
X104708000Y-106816500D02*
X104708000Y-107291500D01*
G75*
G02*
X104470500Y-107529000I-237500J0D01*
G01*
X103970500Y-107529000D01*
G75*
G02*
X103733000Y-107291500I0J237500D01*
G01*
X103733000Y-106816500D01*
G75*
G02*
X103970500Y-106579000I237500J0D01*
G01*
X104470500Y-106579000D01*
G75*
G02*
X104708000Y-106816500I0J-237500D01*
G01*
G37*
G36*
G01*
X111910000Y-100990000D02*
X111910000Y-101310000D01*
G75*
G02*
X111750000Y-101470000I-160000J0D01*
G01*
X111355000Y-101470000D01*
G75*
G02*
X111195000Y-101310000I0J160000D01*
G01*
X111195000Y-100990000D01*
G75*
G02*
X111355000Y-100830000I160000J0D01*
G01*
X111750000Y-100830000D01*
G75*
G02*
X111910000Y-100990000I0J-160000D01*
G01*
G37*
G36*
G01*
X113105000Y-100990000D02*
X113105000Y-101310000D01*
G75*
G02*
X112945000Y-101470000I-160000J0D01*
G01*
X112550000Y-101470000D01*
G75*
G02*
X112390000Y-101310000I0J160000D01*
G01*
X112390000Y-100990000D01*
G75*
G02*
X112550000Y-100830000I160000J0D01*
G01*
X112945000Y-100830000D01*
G75*
G02*
X113105000Y-100990000I0J-160000D01*
G01*
G37*
G36*
G01*
X108374000Y-102642000D02*
X108374000Y-102322000D01*
G75*
G02*
X108534000Y-102162000I160000J0D01*
G01*
X108929000Y-102162000D01*
G75*
G02*
X109089000Y-102322000I0J-160000D01*
G01*
X109089000Y-102642000D01*
G75*
G02*
X108929000Y-102802000I-160000J0D01*
G01*
X108534000Y-102802000D01*
G75*
G02*
X108374000Y-102642000I0J160000D01*
G01*
G37*
G36*
G01*
X107179000Y-102642000D02*
X107179000Y-102322000D01*
G75*
G02*
X107339000Y-102162000I160000J0D01*
G01*
X107734000Y-102162000D01*
G75*
G02*
X107894000Y-102322000I0J-160000D01*
G01*
X107894000Y-102642000D01*
G75*
G02*
X107734000Y-102802000I-160000J0D01*
G01*
X107339000Y-102802000D01*
G75*
G02*
X107179000Y-102642000I0J160000D01*
G01*
G37*
G36*
G01*
X108374000Y-104039000D02*
X108374000Y-103719000D01*
G75*
G02*
X108534000Y-103559000I160000J0D01*
G01*
X108929000Y-103559000D01*
G75*
G02*
X109089000Y-103719000I0J-160000D01*
G01*
X109089000Y-104039000D01*
G75*
G02*
X108929000Y-104199000I-160000J0D01*
G01*
X108534000Y-104199000D01*
G75*
G02*
X108374000Y-104039000I0J160000D01*
G01*
G37*
G36*
G01*
X107179000Y-104039000D02*
X107179000Y-103719000D01*
G75*
G02*
X107339000Y-103559000I160000J0D01*
G01*
X107734000Y-103559000D01*
G75*
G02*
X107894000Y-103719000I0J-160000D01*
G01*
X107894000Y-104039000D01*
G75*
G02*
X107734000Y-104199000I-160000J0D01*
G01*
X107339000Y-104199000D01*
G75*
G02*
X107179000Y-104039000I0J160000D01*
G01*
G37*
G36*
G01*
X107894000Y-105116000D02*
X107894000Y-105436000D01*
G75*
G02*
X107734000Y-105596000I-160000J0D01*
G01*
X107339000Y-105596000D01*
G75*
G02*
X107179000Y-105436000I0J160000D01*
G01*
X107179000Y-105116000D01*
G75*
G02*
X107339000Y-104956000I160000J0D01*
G01*
X107734000Y-104956000D01*
G75*
G02*
X107894000Y-105116000I0J-160000D01*
G01*
G37*
G36*
G01*
X109089000Y-105116000D02*
X109089000Y-105436000D01*
G75*
G02*
X108929000Y-105596000I-160000J0D01*
G01*
X108534000Y-105596000D01*
G75*
G02*
X108374000Y-105436000I0J160000D01*
G01*
X108374000Y-105116000D01*
G75*
G02*
X108534000Y-104956000I160000J0D01*
G01*
X108929000Y-104956000D01*
G75*
G02*
X109089000Y-105116000I0J-160000D01*
G01*
G37*
G36*
G01*
X103733000Y-103481500D02*
X103733000Y-103006500D01*
G75*
G02*
X103970500Y-102769000I237500J0D01*
G01*
X104470500Y-102769000D01*
G75*
G02*
X104708000Y-103006500I0J-237500D01*
G01*
X104708000Y-103481500D01*
G75*
G02*
X104470500Y-103719000I-237500J0D01*
G01*
X103970500Y-103719000D01*
G75*
G02*
X103733000Y-103481500I0J237500D01*
G01*
G37*
G36*
G01*
X101908000Y-103481500D02*
X101908000Y-103006500D01*
G75*
G02*
X102145500Y-102769000I237500J0D01*
G01*
X102645500Y-102769000D01*
G75*
G02*
X102883000Y-103006500I0J-237500D01*
G01*
X102883000Y-103481500D01*
G75*
G02*
X102645500Y-103719000I-237500J0D01*
G01*
X102145500Y-103719000D01*
G75*
G02*
X101908000Y-103481500I0J237500D01*
G01*
G37*
G36*
G01*
X102883000Y-104784500D02*
X102883000Y-105259500D01*
G75*
G02*
X102645500Y-105497000I-237500J0D01*
G01*
X102145500Y-105497000D01*
G75*
G02*
X101908000Y-105259500I0J237500D01*
G01*
X101908000Y-104784500D01*
G75*
G02*
X102145500Y-104547000I237500J0D01*
G01*
X102645500Y-104547000D01*
G75*
G02*
X102883000Y-104784500I0J-237500D01*
G01*
G37*
G36*
G01*
X104708000Y-104784500D02*
X104708000Y-105259500D01*
G75*
G02*
X104470500Y-105497000I-237500J0D01*
G01*
X103970500Y-105497000D01*
G75*
G02*
X103733000Y-105259500I0J237500D01*
G01*
X103733000Y-104784500D01*
G75*
G02*
X103970500Y-104547000I237500J0D01*
G01*
X104470500Y-104547000D01*
G75*
G02*
X104708000Y-104784500I0J-237500D01*
G01*
G37*
G36*
G01*
X111323000Y-109307000D02*
X111323000Y-109627000D01*
G75*
G02*
X111163000Y-109787000I-160000J0D01*
G01*
X110768000Y-109787000D01*
G75*
G02*
X110608000Y-109627000I0J160000D01*
G01*
X110608000Y-109307000D01*
G75*
G02*
X110768000Y-109147000I160000J0D01*
G01*
X111163000Y-109147000D01*
G75*
G02*
X111323000Y-109307000I0J-160000D01*
G01*
G37*
G36*
G01*
X112518000Y-109307000D02*
X112518000Y-109627000D01*
G75*
G02*
X112358000Y-109787000I-160000J0D01*
G01*
X111963000Y-109787000D01*
G75*
G02*
X111803000Y-109627000I0J160000D01*
G01*
X111803000Y-109307000D01*
G75*
G02*
X111963000Y-109147000I160000J0D01*
G01*
X112358000Y-109147000D01*
G75*
G02*
X112518000Y-109307000I0J-160000D01*
G01*
G37*
G36*
G01*
X112142000Y-111228500D02*
X112142000Y-110753500D01*
G75*
G02*
X112379500Y-110516000I237500J0D01*
G01*
X112979500Y-110516000D01*
G75*
G02*
X113217000Y-110753500I0J-237500D01*
G01*
X113217000Y-111228500D01*
G75*
G02*
X112979500Y-111466000I-237500J0D01*
G01*
X112379500Y-111466000D01*
G75*
G02*
X112142000Y-111228500I0J237500D01*
G01*
G37*
G36*
G01*
X110417000Y-111228500D02*
X110417000Y-110753500D01*
G75*
G02*
X110654500Y-110516000I237500J0D01*
G01*
X111254500Y-110516000D01*
G75*
G02*
X111492000Y-110753500I0J-237500D01*
G01*
X111492000Y-111228500D01*
G75*
G02*
X111254500Y-111466000I-237500J0D01*
G01*
X110654500Y-111466000D01*
G75*
G02*
X110417000Y-111228500I0J237500D01*
G01*
G37*
G36*
G01*
X107975000Y-110812500D02*
X107975000Y-111287500D01*
G75*
G02*
X107737500Y-111525000I-237500J0D01*
G01*
X107137500Y-111525000D01*
G75*
G02*
X106900000Y-111287500I0J237500D01*
G01*
X106900000Y-110812500D01*
G75*
G02*
X107137500Y-110575000I237500J0D01*
G01*
X107737500Y-110575000D01*
G75*
G02*
X107975000Y-110812500I0J-237500D01*
G01*
G37*
G36*
G01*
X109700000Y-110812500D02*
X109700000Y-111287500D01*
G75*
G02*
X109462500Y-111525000I-237500J0D01*
G01*
X108862500Y-111525000D01*
G75*
G02*
X108625000Y-111287500I0J237500D01*
G01*
X108625000Y-110812500D01*
G75*
G02*
X108862500Y-110575000I237500J0D01*
G01*
X109462500Y-110575000D01*
G75*
G02*
X109700000Y-110812500I0J-237500D01*
G01*
G37*
G36*
G01*
X106085500Y-107618000D02*
X105610500Y-107618000D01*
G75*
G02*
X105373000Y-107380500I0J237500D01*
G01*
X105373000Y-106780500D01*
G75*
G02*
X105610500Y-106543000I237500J0D01*
G01*
X106085500Y-106543000D01*
G75*
G02*
X106323000Y-106780500I0J-237500D01*
G01*
X106323000Y-107380500D01*
G75*
G02*
X106085500Y-107618000I-237500J0D01*
G01*
G37*
G36*
G01*
X106085500Y-109343000D02*
X105610500Y-109343000D01*
G75*
G02*
X105373000Y-109105500I0J237500D01*
G01*
X105373000Y-108505500D01*
G75*
G02*
X105610500Y-108268000I237500J0D01*
G01*
X106085500Y-108268000D01*
G75*
G02*
X106323000Y-108505500I0J-237500D01*
G01*
X106323000Y-109105500D01*
G75*
G02*
X106085500Y-109343000I-237500J0D01*
G01*
G37*
G36*
G01*
X112985000Y-100067500D02*
X112985000Y-99592500D01*
G75*
G02*
X113222500Y-99355000I237500J0D01*
G01*
X113822500Y-99355000D01*
G75*
G02*
X114060000Y-99592500I0J-237500D01*
G01*
X114060000Y-100067500D01*
G75*
G02*
X113822500Y-100305000I-237500J0D01*
G01*
X113222500Y-100305000D01*
G75*
G02*
X112985000Y-100067500I0J237500D01*
G01*
G37*
G36*
G01*
X111260000Y-100067500D02*
X111260000Y-99592500D01*
G75*
G02*
X111497500Y-99355000I237500J0D01*
G01*
X112097500Y-99355000D01*
G75*
G02*
X112335000Y-99592500I0J-237500D01*
G01*
X112335000Y-100067500D01*
G75*
G02*
X112097500Y-100305000I-237500J0D01*
G01*
X111497500Y-100305000D01*
G75*
G02*
X111260000Y-100067500I0J237500D01*
G01*
G37*
G36*
G01*
X106285000Y-100593500D02*
X106285000Y-101068500D01*
G75*
G02*
X106047500Y-101306000I-237500J0D01*
G01*
X105447500Y-101306000D01*
G75*
G02*
X105210000Y-101068500I0J237500D01*
G01*
X105210000Y-100593500D01*
G75*
G02*
X105447500Y-100356000I237500J0D01*
G01*
X106047500Y-100356000D01*
G75*
G02*
X106285000Y-100593500I0J-237500D01*
G01*
G37*
G36*
G01*
X108010000Y-100593500D02*
X108010000Y-101068500D01*
G75*
G02*
X107772500Y-101306000I-237500J0D01*
G01*
X107172500Y-101306000D01*
G75*
G02*
X106935000Y-101068500I0J237500D01*
G01*
X106935000Y-100593500D01*
G75*
G02*
X107172500Y-100356000I237500J0D01*
G01*
X107772500Y-100356000D01*
G75*
G02*
X108010000Y-100593500I0J-237500D01*
G01*
G37*
G36*
G01*
X105610500Y-104458000D02*
X106085500Y-104458000D01*
G75*
G02*
X106323000Y-104695500I0J-237500D01*
G01*
X106323000Y-105295500D01*
G75*
G02*
X106085500Y-105533000I-237500J0D01*
G01*
X105610500Y-105533000D01*
G75*
G02*
X105373000Y-105295500I0J237500D01*
G01*
X105373000Y-104695500D01*
G75*
G02*
X105610500Y-104458000I237500J0D01*
G01*
G37*
G36*
G01*
X105610500Y-102733000D02*
X106085500Y-102733000D01*
G75*
G02*
X106323000Y-102970500I0J-237500D01*
G01*
X106323000Y-103570500D01*
G75*
G02*
X106085500Y-103808000I-237500J0D01*
G01*
X105610500Y-103808000D01*
G75*
G02*
X105373000Y-103570500I0J237500D01*
G01*
X105373000Y-102970500D01*
G75*
G02*
X105610500Y-102733000I237500J0D01*
G01*
G37*
G36*
G01*
X113877000Y-107870000D02*
X113567000Y-107870000D01*
G75*
G02*
X113412000Y-107715000I0J155000D01*
G01*
X113412000Y-107290000D01*
G75*
G02*
X113567000Y-107135000I155000J0D01*
G01*
X113877000Y-107135000D01*
G75*
G02*
X114032000Y-107290000I0J-155000D01*
G01*
X114032000Y-107715000D01*
G75*
G02*
X113877000Y-107870000I-155000J0D01*
G01*
G37*
G36*
G01*
X113877000Y-109005000D02*
X113567000Y-109005000D01*
G75*
G02*
X113412000Y-108850000I0J155000D01*
G01*
X113412000Y-108425000D01*
G75*
G02*
X113567000Y-108270000I155000J0D01*
G01*
X113877000Y-108270000D01*
G75*
G02*
X114032000Y-108425000I0J-155000D01*
G01*
X114032000Y-108850000D01*
G75*
G02*
X113877000Y-109005000I-155000J0D01*
G01*
G37*
G36*
G01*
X115020000Y-107870000D02*
X114710000Y-107870000D01*
G75*
G02*
X114555000Y-107715000I0J155000D01*
G01*
X114555000Y-107290000D01*
G75*
G02*
X114710000Y-107135000I155000J0D01*
G01*
X115020000Y-107135000D01*
G75*
G02*
X115175000Y-107290000I0J-155000D01*
G01*
X115175000Y-107715000D01*
G75*
G02*
X115020000Y-107870000I-155000J0D01*
G01*
G37*
G36*
G01*
X115020000Y-109005000D02*
X114710000Y-109005000D01*
G75*
G02*
X114555000Y-108850000I0J155000D01*
G01*
X114555000Y-108425000D01*
G75*
G02*
X114710000Y-108270000I155000J0D01*
G01*
X115020000Y-108270000D01*
G75*
G02*
X115175000Y-108425000I0J-155000D01*
G01*
X115175000Y-108850000D01*
G75*
G02*
X115020000Y-109005000I-155000J0D01*
G01*
G37*
G36*
G01*
X101781000Y-100866000D02*
X101781000Y-101176000D01*
G75*
G02*
X101626000Y-101331000I-155000J0D01*
G01*
X101201000Y-101331000D01*
G75*
G02*
X101046000Y-101176000I0J155000D01*
G01*
X101046000Y-100866000D01*
G75*
G02*
X101201000Y-100711000I155000J0D01*
G01*
X101626000Y-100711000D01*
G75*
G02*
X101781000Y-100866000I0J-155000D01*
G01*
G37*
G36*
G01*
X102916000Y-100866000D02*
X102916000Y-101176000D01*
G75*
G02*
X102761000Y-101331000I-155000J0D01*
G01*
X102336000Y-101331000D01*
G75*
G02*
X102181000Y-101176000I0J155000D01*
G01*
X102181000Y-100866000D01*
G75*
G02*
X102336000Y-100711000I155000J0D01*
G01*
X102761000Y-100711000D01*
G75*
G02*
X102916000Y-100866000I0J-155000D01*
G01*
G37*
G36*
G01*
X100730000Y-98800000D02*
X100420000Y-98800000D01*
G75*
G02*
X100265000Y-98645000I0J155000D01*
G01*
X100265000Y-98220000D01*
G75*
G02*
X100420000Y-98065000I155000J0D01*
G01*
X100730000Y-98065000D01*
G75*
G02*
X100885000Y-98220000I0J-155000D01*
G01*
X100885000Y-98645000D01*
G75*
G02*
X100730000Y-98800000I-155000J0D01*
G01*
G37*
G36*
G01*
X100730000Y-99935000D02*
X100420000Y-99935000D01*
G75*
G02*
X100265000Y-99780000I0J155000D01*
G01*
X100265000Y-99355000D01*
G75*
G02*
X100420000Y-99200000I155000J0D01*
G01*
X100730000Y-99200000D01*
G75*
G02*
X100885000Y-99355000I0J-155000D01*
G01*
X100885000Y-99780000D01*
G75*
G02*
X100730000Y-99935000I-155000J0D01*
G01*
G37*
G36*
G01*
X104045000Y-97950000D02*
X104355000Y-97950000D01*
G75*
G02*
X104510000Y-98105000I0J-155000D01*
G01*
X104510000Y-98530000D01*
G75*
G02*
X104355000Y-98685000I-155000J0D01*
G01*
X104045000Y-98685000D01*
G75*
G02*
X103890000Y-98530000I0J155000D01*
G01*
X103890000Y-98105000D01*
G75*
G02*
X104045000Y-97950000I155000J0D01*
G01*
G37*
G36*
G01*
X104045000Y-96815000D02*
X104355000Y-96815000D01*
G75*
G02*
X104510000Y-96970000I0J-155000D01*
G01*
X104510000Y-97395000D01*
G75*
G02*
X104355000Y-97550000I-155000J0D01*
G01*
X104045000Y-97550000D01*
G75*
G02*
X103890000Y-97395000I0J155000D01*
G01*
X103890000Y-96970000D01*
G75*
G02*
X104045000Y-96815000I155000J0D01*
G01*
G37*
G36*
G01*
X98415000Y-104330000D02*
X98725000Y-104330000D01*
G75*
G02*
X98880000Y-104485000I0J-155000D01*
G01*
X98880000Y-104910000D01*
G75*
G02*
X98725000Y-105065000I-155000J0D01*
G01*
X98415000Y-105065000D01*
G75*
G02*
X98260000Y-104910000I0J155000D01*
G01*
X98260000Y-104485000D01*
G75*
G02*
X98415000Y-104330000I155000J0D01*
G01*
G37*
G36*
G01*
X98415000Y-103195000D02*
X98725000Y-103195000D01*
G75*
G02*
X98880000Y-103350000I0J-155000D01*
G01*
X98880000Y-103775000D01*
G75*
G02*
X98725000Y-103930000I-155000J0D01*
G01*
X98415000Y-103930000D01*
G75*
G02*
X98260000Y-103775000I0J155000D01*
G01*
X98260000Y-103350000D01*
G75*
G02*
X98415000Y-103195000I155000J0D01*
G01*
G37*
G36*
G01*
X99719000Y-109652000D02*
X98769000Y-109652000D01*
G75*
G02*
X98519000Y-109402000I0J250000D01*
G01*
X98519000Y-108727000D01*
G75*
G02*
X98769000Y-108477000I250000J0D01*
G01*
X99719000Y-108477000D01*
G75*
G02*
X99969000Y-108727000I0J-250000D01*
G01*
X99969000Y-109402000D01*
G75*
G02*
X99719000Y-109652000I-250000J0D01*
G01*
G37*
G36*
G01*
X99719000Y-111727000D02*
X98769000Y-111727000D01*
G75*
G02*
X98519000Y-111477000I0J250000D01*
G01*
X98519000Y-110802000D01*
G75*
G02*
X98769000Y-110552000I250000J0D01*
G01*
X99719000Y-110552000D01*
G75*
G02*
X99969000Y-110802000I0J-250000D01*
G01*
X99969000Y-111477000D01*
G75*
G02*
X99719000Y-111727000I-250000J0D01*
G01*
G37*
G36*
G01*
X96610000Y-111335500D02*
X97560000Y-111335500D01*
G75*
G02*
X97810000Y-111585500I0J-250000D01*
G01*
X97810000Y-112260500D01*
G75*
G02*
X97560000Y-112510500I-250000J0D01*
G01*
X96610000Y-112510500D01*
G75*
G02*
X96360000Y-112260500I0J250000D01*
G01*
X96360000Y-111585500D01*
G75*
G02*
X96610000Y-111335500I250000J0D01*
G01*
G37*
G36*
G01*
X96610000Y-109260500D02*
X97560000Y-109260500D01*
G75*
G02*
X97810000Y-109510500I0J-250000D01*
G01*
X97810000Y-110185500D01*
G75*
G02*
X97560000Y-110435500I-250000J0D01*
G01*
X96610000Y-110435500D01*
G75*
G02*
X96360000Y-110185500I0J250000D01*
G01*
X96360000Y-109510500D01*
G75*
G02*
X96610000Y-109260500I250000J0D01*
G01*
G37*
G36*
G01*
X91469000Y-110683000D02*
X91779000Y-110683000D01*
G75*
G02*
X91934000Y-110838000I0J-155000D01*
G01*
X91934000Y-111263000D01*
G75*
G02*
X91779000Y-111418000I-155000J0D01*
G01*
X91469000Y-111418000D01*
G75*
G02*
X91314000Y-111263000I0J155000D01*
G01*
X91314000Y-110838000D01*
G75*
G02*
X91469000Y-110683000I155000J0D01*
G01*
G37*
G36*
G01*
X91469000Y-109548000D02*
X91779000Y-109548000D01*
G75*
G02*
X91934000Y-109703000I0J-155000D01*
G01*
X91934000Y-110128000D01*
G75*
G02*
X91779000Y-110283000I-155000J0D01*
G01*
X91469000Y-110283000D01*
G75*
G02*
X91314000Y-110128000I0J155000D01*
G01*
X91314000Y-109703000D01*
G75*
G02*
X91469000Y-109548000I155000J0D01*
G01*
G37*
G36*
G01*
X93964000Y-110836000D02*
X93964000Y-111146000D01*
G75*
G02*
X93809000Y-111301000I-155000J0D01*
G01*
X93384000Y-111301000D01*
G75*
G02*
X93229000Y-111146000I0J155000D01*
G01*
X93229000Y-110836000D01*
G75*
G02*
X93384000Y-110681000I155000J0D01*
G01*
X93809000Y-110681000D01*
G75*
G02*
X93964000Y-110836000I0J-155000D01*
G01*
G37*
G36*
G01*
X95099000Y-110836000D02*
X95099000Y-111146000D01*
G75*
G02*
X94944000Y-111301000I-155000J0D01*
G01*
X94519000Y-111301000D01*
G75*
G02*
X94364000Y-111146000I0J155000D01*
G01*
X94364000Y-110836000D01*
G75*
G02*
X94519000Y-110681000I155000J0D01*
G01*
X94944000Y-110681000D01*
G75*
G02*
X95099000Y-110836000I0J-155000D01*
G01*
G37*
G36*
G01*
X93202000Y-109693000D02*
X93202000Y-110003000D01*
G75*
G02*
X93047000Y-110158000I-155000J0D01*
G01*
X92622000Y-110158000D01*
G75*
G02*
X92467000Y-110003000I0J155000D01*
G01*
X92467000Y-109693000D01*
G75*
G02*
X92622000Y-109538000I155000J0D01*
G01*
X93047000Y-109538000D01*
G75*
G02*
X93202000Y-109693000I0J-155000D01*
G01*
G37*
G36*
G01*
X94337000Y-109693000D02*
X94337000Y-110003000D01*
G75*
G02*
X94182000Y-110158000I-155000J0D01*
G01*
X93757000Y-110158000D01*
G75*
G02*
X93602000Y-110003000I0J155000D01*
G01*
X93602000Y-109693000D01*
G75*
G02*
X93757000Y-109538000I155000J0D01*
G01*
X94182000Y-109538000D01*
G75*
G02*
X94337000Y-109693000I0J-155000D01*
G01*
G37*
G36*
G01*
X89245000Y-108837500D02*
X88295000Y-108837500D01*
G75*
G02*
X88045000Y-108587500I0J250000D01*
G01*
X88045000Y-107912500D01*
G75*
G02*
X88295000Y-107662500I250000J0D01*
G01*
X89245000Y-107662500D01*
G75*
G02*
X89495000Y-107912500I0J-250000D01*
G01*
X89495000Y-108587500D01*
G75*
G02*
X89245000Y-108837500I-250000J0D01*
G01*
G37*
G36*
G01*
X89245000Y-110912500D02*
X88295000Y-110912500D01*
G75*
G02*
X88045000Y-110662500I0J250000D01*
G01*
X88045000Y-109987500D01*
G75*
G02*
X88295000Y-109737500I250000J0D01*
G01*
X89245000Y-109737500D01*
G75*
G02*
X89495000Y-109987500I0J-250000D01*
G01*
X89495000Y-110662500D01*
G75*
G02*
X89245000Y-110912500I-250000J0D01*
G01*
G37*
G36*
G01*
X109950000Y-101305000D02*
X109950000Y-100995000D01*
G75*
G02*
X110105000Y-100840000I155000J0D01*
G01*
X110530000Y-100840000D01*
G75*
G02*
X110685000Y-100995000I0J-155000D01*
G01*
X110685000Y-101305000D01*
G75*
G02*
X110530000Y-101460000I-155000J0D01*
G01*
X110105000Y-101460000D01*
G75*
G02*
X109950000Y-101305000I0J155000D01*
G01*
G37*
G36*
G01*
X108815000Y-101305000D02*
X108815000Y-100995000D01*
G75*
G02*
X108970000Y-100840000I155000J0D01*
G01*
X109395000Y-100840000D01*
G75*
G02*
X109550000Y-100995000I0J-155000D01*
G01*
X109550000Y-101305000D01*
G75*
G02*
X109395000Y-101460000I-155000J0D01*
G01*
X108970000Y-101460000D01*
G75*
G02*
X108815000Y-101305000I0J155000D01*
G01*
G37*
G36*
G01*
X109950000Y-100205000D02*
X109950000Y-99895000D01*
G75*
G02*
X110105000Y-99740000I155000J0D01*
G01*
X110530000Y-99740000D01*
G75*
G02*
X110685000Y-99895000I0J-155000D01*
G01*
X110685000Y-100205000D01*
G75*
G02*
X110530000Y-100360000I-155000J0D01*
G01*
X110105000Y-100360000D01*
G75*
G02*
X109950000Y-100205000I0J155000D01*
G01*
G37*
G36*
G01*
X108815000Y-100205000D02*
X108815000Y-99895000D01*
G75*
G02*
X108970000Y-99740000I155000J0D01*
G01*
X109395000Y-99740000D01*
G75*
G02*
X109550000Y-99895000I0J-155000D01*
G01*
X109550000Y-100205000D01*
G75*
G02*
X109395000Y-100360000I-155000J0D01*
G01*
X108970000Y-100360000D01*
G75*
G02*
X108815000Y-100205000I0J155000D01*
G01*
G37*
G36*
G01*
X92570000Y-97902500D02*
X92250000Y-97902500D01*
G75*
G02*
X92090000Y-97742500I0J160000D01*
G01*
X92090000Y-97347500D01*
G75*
G02*
X92250000Y-97187500I160000J0D01*
G01*
X92570000Y-97187500D01*
G75*
G02*
X92730000Y-97347500I0J-160000D01*
G01*
X92730000Y-97742500D01*
G75*
G02*
X92570000Y-97902500I-160000J0D01*
G01*
G37*
G36*
G01*
X92570000Y-99097500D02*
X92250000Y-99097500D01*
G75*
G02*
X92090000Y-98937500I0J160000D01*
G01*
X92090000Y-98542500D01*
G75*
G02*
X92250000Y-98382500I160000J0D01*
G01*
X92570000Y-98382500D01*
G75*
G02*
X92730000Y-98542500I0J-160000D01*
G01*
X92730000Y-98937500D01*
G75*
G02*
X92570000Y-99097500I-160000J0D01*
G01*
G37*
G36*
G01*
X89412500Y-96800000D02*
X89887500Y-96800000D01*
G75*
G02*
X90125000Y-97037500I0J-237500D01*
G01*
X90125000Y-97612500D01*
G75*
G02*
X89887500Y-97850000I-237500J0D01*
G01*
X89412500Y-97850000D01*
G75*
G02*
X89175000Y-97612500I0J237500D01*
G01*
X89175000Y-97037500D01*
G75*
G02*
X89412500Y-96800000I237500J0D01*
G01*
G37*
G36*
G01*
X89412500Y-95050000D02*
X89887500Y-95050000D01*
G75*
G02*
X90125000Y-95287500I0J-237500D01*
G01*
X90125000Y-95862500D01*
G75*
G02*
X89887500Y-96100000I-237500J0D01*
G01*
X89412500Y-96100000D01*
G75*
G02*
X89175000Y-95862500I0J237500D01*
G01*
X89175000Y-95287500D01*
G75*
G02*
X89412500Y-95050000I237500J0D01*
G01*
G37*
D19*
X82750000Y-108250000D03*
X81500000Y-107000000D03*
X85250000Y-110750000D03*
X84000000Y-109500000D03*
G36*
G01*
X96270000Y-101325000D02*
X96270000Y-101015000D01*
G75*
G02*
X96425000Y-100860000I155000J0D01*
G01*
X96850000Y-100860000D01*
G75*
G02*
X97005000Y-101015000I0J-155000D01*
G01*
X97005000Y-101325000D01*
G75*
G02*
X96850000Y-101480000I-155000J0D01*
G01*
X96425000Y-101480000D01*
G75*
G02*
X96270000Y-101325000I0J155000D01*
G01*
G37*
G36*
G01*
X95135000Y-101325000D02*
X95135000Y-101015000D01*
G75*
G02*
X95290000Y-100860000I155000J0D01*
G01*
X95715000Y-100860000D01*
G75*
G02*
X95870000Y-101015000I0J-155000D01*
G01*
X95870000Y-101325000D01*
G75*
G02*
X95715000Y-101480000I-155000J0D01*
G01*
X95290000Y-101480000D01*
G75*
G02*
X95135000Y-101325000I0J155000D01*
G01*
G37*
M02*
