G04 #@! TF.GenerationSoftware,KiCad,Pcbnew,(5.1.9)-1*
G04 #@! TF.CreationDate,2021-04-03T19:12:36-07:00*
G04 #@! TF.ProjectId,rgba,72676261-2e6b-4696-9361-645f70636258,1.1*
G04 #@! TF.SameCoordinates,Original*
G04 #@! TF.FileFunction,Copper,L1,Top*
G04 #@! TF.FilePolarity,Positive*
%FSLAX46Y46*%
G04 Gerber Fmt 4.6, Leading zero omitted, Abs format (unit mm)*
G04 Created by KiCad (PCBNEW (5.1.9)-1) date 2021-04-03 19:12:36*
%MOMM*%
%LPD*%
G01*
G04 APERTURE LIST*
G04 #@! TA.AperFunction,ComponentPad*
%ADD10C,1.500000*%
G04 #@! TD*
G04 #@! TA.AperFunction,SMDPad,CuDef*
%ADD11R,2.800000X1.600000*%
G04 #@! TD*
G04 #@! TA.AperFunction,SMDPad,CuDef*
%ADD12O,2.800000X1.600000*%
G04 #@! TD*
G04 #@! TA.AperFunction,ComponentPad*
%ADD13C,0.400000*%
G04 #@! TD*
G04 #@! TA.AperFunction,ComponentPad*
%ADD14C,2.400000*%
G04 #@! TD*
G04 #@! TA.AperFunction,SMDPad,CuDef*
%ADD15R,0.450000X1.450000*%
G04 #@! TD*
G04 #@! TA.AperFunction,SMDPad,CuDef*
%ADD16R,1.600000X1.000000*%
G04 #@! TD*
G04 #@! TA.AperFunction,ComponentPad*
%ADD17C,0.500000*%
G04 #@! TD*
G04 #@! TA.AperFunction,SMDPad,CuDef*
%ADD18R,3.450000X3.450000*%
G04 #@! TD*
G04 #@! TA.AperFunction,SMDPad,CuDef*
%ADD19R,0.270000X0.860000*%
G04 #@! TD*
G04 #@! TA.AperFunction,ComponentPad*
%ADD20O,1.000000X1.600000*%
G04 #@! TD*
G04 #@! TA.AperFunction,ViaPad*
%ADD21C,0.800000*%
G04 #@! TD*
G04 #@! TA.AperFunction,ViaPad*
%ADD22C,0.400000*%
G04 #@! TD*
G04 #@! TA.AperFunction,Conductor*
%ADD23C,0.250000*%
G04 #@! TD*
G04 #@! TA.AperFunction,Conductor*
%ADD24C,0.500000*%
G04 #@! TD*
G04 APERTURE END LIST*
D10*
X84500000Y-109250000D03*
X85750000Y-110700000D03*
X83250000Y-107750000D03*
X82000000Y-106250000D03*
D11*
X117450000Y-106250000D03*
X117450000Y-103450000D03*
D12*
X117450000Y-100650000D03*
D11*
X117450000Y-108500000D03*
X117450000Y-111300000D03*
D12*
X117450000Y-114100000D03*
G04 #@! TA.AperFunction,SMDPad,CuDef*
G36*
G01*
X94250000Y-100950000D02*
X94250000Y-99250000D01*
G75*
G02*
X94500000Y-99000000I250000J0D01*
G01*
X95425000Y-99000000D01*
G75*
G02*
X95675000Y-99250000I0J-250000D01*
G01*
X95675000Y-100950000D01*
G75*
G02*
X95425000Y-101200000I-250000J0D01*
G01*
X94500000Y-101200000D01*
G75*
G02*
X94250000Y-100950000I0J250000D01*
G01*
G37*
G04 #@! TD.AperFunction*
G04 #@! TA.AperFunction,SMDPad,CuDef*
G36*
G01*
X91925000Y-100950000D02*
X91925000Y-99250000D01*
G75*
G02*
X92175000Y-99000000I250000J0D01*
G01*
X93100000Y-99000000D01*
G75*
G02*
X93350000Y-99250000I0J-250000D01*
G01*
X93350000Y-100950000D01*
G75*
G02*
X93100000Y-101200000I-250000J0D01*
G01*
X92175000Y-101200000D01*
G75*
G02*
X91925000Y-100950000I0J250000D01*
G01*
G37*
G04 #@! TD.AperFunction*
D13*
X111670000Y-105960000D03*
X110670000Y-105960000D03*
D14*
X104840000Y-111550000D03*
D15*
X112284000Y-103576000D03*
X111634000Y-103576000D03*
X110984000Y-103576000D03*
X110334000Y-103576000D03*
X110334000Y-107976000D03*
X110984000Y-107976000D03*
X111634000Y-107976000D03*
X112284000Y-107976000D03*
G04 #@! TA.AperFunction,SMDPad,CuDef*
G36*
G01*
X102912000Y-97308000D02*
X103112000Y-97308000D01*
G75*
G02*
X103212000Y-97408000I0J-100000D01*
G01*
X103212000Y-97808000D01*
G75*
G02*
X103112000Y-97908000I-100000J0D01*
G01*
X102912000Y-97908000D01*
G75*
G02*
X102812000Y-97808000I0J100000D01*
G01*
X102812000Y-97408000D01*
G75*
G02*
X102912000Y-97308000I100000J0D01*
G01*
G37*
G04 #@! TD.AperFunction*
G04 #@! TA.AperFunction,SMDPad,CuDef*
G36*
G01*
X102262000Y-97308000D02*
X102462000Y-97308000D01*
G75*
G02*
X102562000Y-97408000I0J-100000D01*
G01*
X102562000Y-97808000D01*
G75*
G02*
X102462000Y-97908000I-100000J0D01*
G01*
X102262000Y-97908000D01*
G75*
G02*
X102162000Y-97808000I0J100000D01*
G01*
X102162000Y-97408000D01*
G75*
G02*
X102262000Y-97308000I100000J0D01*
G01*
G37*
G04 #@! TD.AperFunction*
G04 #@! TA.AperFunction,SMDPad,CuDef*
G36*
G01*
X101612000Y-97308000D02*
X101812000Y-97308000D01*
G75*
G02*
X101912000Y-97408000I0J-100000D01*
G01*
X101912000Y-97808000D01*
G75*
G02*
X101812000Y-97908000I-100000J0D01*
G01*
X101612000Y-97908000D01*
G75*
G02*
X101512000Y-97808000I0J100000D01*
G01*
X101512000Y-97408000D01*
G75*
G02*
X101612000Y-97308000I100000J0D01*
G01*
G37*
G04 #@! TD.AperFunction*
G04 #@! TA.AperFunction,SMDPad,CuDef*
G36*
G01*
X101612000Y-99308000D02*
X101812000Y-99308000D01*
G75*
G02*
X101912000Y-99408000I0J-100000D01*
G01*
X101912000Y-99808000D01*
G75*
G02*
X101812000Y-99908000I-100000J0D01*
G01*
X101612000Y-99908000D01*
G75*
G02*
X101512000Y-99808000I0J100000D01*
G01*
X101512000Y-99408000D01*
G75*
G02*
X101612000Y-99308000I100000J0D01*
G01*
G37*
G04 #@! TD.AperFunction*
G04 #@! TA.AperFunction,SMDPad,CuDef*
G36*
G01*
X102262000Y-99308000D02*
X102462000Y-99308000D01*
G75*
G02*
X102562000Y-99408000I0J-100000D01*
G01*
X102562000Y-99808000D01*
G75*
G02*
X102462000Y-99908000I-100000J0D01*
G01*
X102262000Y-99908000D01*
G75*
G02*
X102162000Y-99808000I0J100000D01*
G01*
X102162000Y-99408000D01*
G75*
G02*
X102262000Y-99308000I100000J0D01*
G01*
G37*
G04 #@! TD.AperFunction*
G04 #@! TA.AperFunction,SMDPad,CuDef*
G36*
G01*
X102912000Y-99308000D02*
X103112000Y-99308000D01*
G75*
G02*
X103212000Y-99408000I0J-100000D01*
G01*
X103212000Y-99808000D01*
G75*
G02*
X103112000Y-99908000I-100000J0D01*
G01*
X102912000Y-99908000D01*
G75*
G02*
X102812000Y-99808000I0J100000D01*
G01*
X102812000Y-99408000D01*
G75*
G02*
X102912000Y-99308000I100000J0D01*
G01*
G37*
G04 #@! TD.AperFunction*
D16*
X102362000Y-98608000D03*
D17*
X102912000Y-98608000D03*
X101812000Y-98608000D03*
G04 #@! TA.AperFunction,SMDPad,CuDef*
G36*
G01*
X92730500Y-108532000D02*
X92605500Y-108532000D01*
G75*
G02*
X92543000Y-108469500I0J62500D01*
G01*
X92543000Y-107719500D01*
G75*
G02*
X92605500Y-107657000I62500J0D01*
G01*
X92730500Y-107657000D01*
G75*
G02*
X92793000Y-107719500I0J-62500D01*
G01*
X92793000Y-108469500D01*
G75*
G02*
X92730500Y-108532000I-62500J0D01*
G01*
G37*
G04 #@! TD.AperFunction*
G04 #@! TA.AperFunction,SMDPad,CuDef*
G36*
G01*
X93230500Y-108532000D02*
X93105500Y-108532000D01*
G75*
G02*
X93043000Y-108469500I0J62500D01*
G01*
X93043000Y-107719500D01*
G75*
G02*
X93105500Y-107657000I62500J0D01*
G01*
X93230500Y-107657000D01*
G75*
G02*
X93293000Y-107719500I0J-62500D01*
G01*
X93293000Y-108469500D01*
G75*
G02*
X93230500Y-108532000I-62500J0D01*
G01*
G37*
G04 #@! TD.AperFunction*
G04 #@! TA.AperFunction,SMDPad,CuDef*
G36*
G01*
X93730500Y-108532000D02*
X93605500Y-108532000D01*
G75*
G02*
X93543000Y-108469500I0J62500D01*
G01*
X93543000Y-107719500D01*
G75*
G02*
X93605500Y-107657000I62500J0D01*
G01*
X93730500Y-107657000D01*
G75*
G02*
X93793000Y-107719500I0J-62500D01*
G01*
X93793000Y-108469500D01*
G75*
G02*
X93730500Y-108532000I-62500J0D01*
G01*
G37*
G04 #@! TD.AperFunction*
G04 #@! TA.AperFunction,SMDPad,CuDef*
G36*
G01*
X94230500Y-108532000D02*
X94105500Y-108532000D01*
G75*
G02*
X94043000Y-108469500I0J62500D01*
G01*
X94043000Y-107719500D01*
G75*
G02*
X94105500Y-107657000I62500J0D01*
G01*
X94230500Y-107657000D01*
G75*
G02*
X94293000Y-107719500I0J-62500D01*
G01*
X94293000Y-108469500D01*
G75*
G02*
X94230500Y-108532000I-62500J0D01*
G01*
G37*
G04 #@! TD.AperFunction*
G04 #@! TA.AperFunction,SMDPad,CuDef*
G36*
G01*
X94730500Y-108532000D02*
X94605500Y-108532000D01*
G75*
G02*
X94543000Y-108469500I0J62500D01*
G01*
X94543000Y-107719500D01*
G75*
G02*
X94605500Y-107657000I62500J0D01*
G01*
X94730500Y-107657000D01*
G75*
G02*
X94793000Y-107719500I0J-62500D01*
G01*
X94793000Y-108469500D01*
G75*
G02*
X94730500Y-108532000I-62500J0D01*
G01*
G37*
G04 #@! TD.AperFunction*
G04 #@! TA.AperFunction,SMDPad,CuDef*
G36*
G01*
X95230500Y-108532000D02*
X95105500Y-108532000D01*
G75*
G02*
X95043000Y-108469500I0J62500D01*
G01*
X95043000Y-107719500D01*
G75*
G02*
X95105500Y-107657000I62500J0D01*
G01*
X95230500Y-107657000D01*
G75*
G02*
X95293000Y-107719500I0J-62500D01*
G01*
X95293000Y-108469500D01*
G75*
G02*
X95230500Y-108532000I-62500J0D01*
G01*
G37*
G04 #@! TD.AperFunction*
G04 #@! TA.AperFunction,SMDPad,CuDef*
G36*
G01*
X95730500Y-108532000D02*
X95605500Y-108532000D01*
G75*
G02*
X95543000Y-108469500I0J62500D01*
G01*
X95543000Y-107719500D01*
G75*
G02*
X95605500Y-107657000I62500J0D01*
G01*
X95730500Y-107657000D01*
G75*
G02*
X95793000Y-107719500I0J-62500D01*
G01*
X95793000Y-108469500D01*
G75*
G02*
X95730500Y-108532000I-62500J0D01*
G01*
G37*
G04 #@! TD.AperFunction*
G04 #@! TA.AperFunction,SMDPad,CuDef*
G36*
G01*
X96230500Y-108532000D02*
X96105500Y-108532000D01*
G75*
G02*
X96043000Y-108469500I0J62500D01*
G01*
X96043000Y-107719500D01*
G75*
G02*
X96105500Y-107657000I62500J0D01*
G01*
X96230500Y-107657000D01*
G75*
G02*
X96293000Y-107719500I0J-62500D01*
G01*
X96293000Y-108469500D01*
G75*
G02*
X96230500Y-108532000I-62500J0D01*
G01*
G37*
G04 #@! TD.AperFunction*
G04 #@! TA.AperFunction,SMDPad,CuDef*
G36*
G01*
X97230500Y-107532000D02*
X96480500Y-107532000D01*
G75*
G02*
X96418000Y-107469500I0J62500D01*
G01*
X96418000Y-107344500D01*
G75*
G02*
X96480500Y-107282000I62500J0D01*
G01*
X97230500Y-107282000D01*
G75*
G02*
X97293000Y-107344500I0J-62500D01*
G01*
X97293000Y-107469500D01*
G75*
G02*
X97230500Y-107532000I-62500J0D01*
G01*
G37*
G04 #@! TD.AperFunction*
G04 #@! TA.AperFunction,SMDPad,CuDef*
G36*
G01*
X97230500Y-107032000D02*
X96480500Y-107032000D01*
G75*
G02*
X96418000Y-106969500I0J62500D01*
G01*
X96418000Y-106844500D01*
G75*
G02*
X96480500Y-106782000I62500J0D01*
G01*
X97230500Y-106782000D01*
G75*
G02*
X97293000Y-106844500I0J-62500D01*
G01*
X97293000Y-106969500D01*
G75*
G02*
X97230500Y-107032000I-62500J0D01*
G01*
G37*
G04 #@! TD.AperFunction*
G04 #@! TA.AperFunction,SMDPad,CuDef*
G36*
G01*
X97230500Y-106532000D02*
X96480500Y-106532000D01*
G75*
G02*
X96418000Y-106469500I0J62500D01*
G01*
X96418000Y-106344500D01*
G75*
G02*
X96480500Y-106282000I62500J0D01*
G01*
X97230500Y-106282000D01*
G75*
G02*
X97293000Y-106344500I0J-62500D01*
G01*
X97293000Y-106469500D01*
G75*
G02*
X97230500Y-106532000I-62500J0D01*
G01*
G37*
G04 #@! TD.AperFunction*
G04 #@! TA.AperFunction,SMDPad,CuDef*
G36*
G01*
X97230500Y-106032000D02*
X96480500Y-106032000D01*
G75*
G02*
X96418000Y-105969500I0J62500D01*
G01*
X96418000Y-105844500D01*
G75*
G02*
X96480500Y-105782000I62500J0D01*
G01*
X97230500Y-105782000D01*
G75*
G02*
X97293000Y-105844500I0J-62500D01*
G01*
X97293000Y-105969500D01*
G75*
G02*
X97230500Y-106032000I-62500J0D01*
G01*
G37*
G04 #@! TD.AperFunction*
G04 #@! TA.AperFunction,SMDPad,CuDef*
G36*
G01*
X97230500Y-105532000D02*
X96480500Y-105532000D01*
G75*
G02*
X96418000Y-105469500I0J62500D01*
G01*
X96418000Y-105344500D01*
G75*
G02*
X96480500Y-105282000I62500J0D01*
G01*
X97230500Y-105282000D01*
G75*
G02*
X97293000Y-105344500I0J-62500D01*
G01*
X97293000Y-105469500D01*
G75*
G02*
X97230500Y-105532000I-62500J0D01*
G01*
G37*
G04 #@! TD.AperFunction*
G04 #@! TA.AperFunction,SMDPad,CuDef*
G36*
G01*
X97230500Y-105032000D02*
X96480500Y-105032000D01*
G75*
G02*
X96418000Y-104969500I0J62500D01*
G01*
X96418000Y-104844500D01*
G75*
G02*
X96480500Y-104782000I62500J0D01*
G01*
X97230500Y-104782000D01*
G75*
G02*
X97293000Y-104844500I0J-62500D01*
G01*
X97293000Y-104969500D01*
G75*
G02*
X97230500Y-105032000I-62500J0D01*
G01*
G37*
G04 #@! TD.AperFunction*
G04 #@! TA.AperFunction,SMDPad,CuDef*
G36*
G01*
X97230500Y-104532000D02*
X96480500Y-104532000D01*
G75*
G02*
X96418000Y-104469500I0J62500D01*
G01*
X96418000Y-104344500D01*
G75*
G02*
X96480500Y-104282000I62500J0D01*
G01*
X97230500Y-104282000D01*
G75*
G02*
X97293000Y-104344500I0J-62500D01*
G01*
X97293000Y-104469500D01*
G75*
G02*
X97230500Y-104532000I-62500J0D01*
G01*
G37*
G04 #@! TD.AperFunction*
G04 #@! TA.AperFunction,SMDPad,CuDef*
G36*
G01*
X97230500Y-104032000D02*
X96480500Y-104032000D01*
G75*
G02*
X96418000Y-103969500I0J62500D01*
G01*
X96418000Y-103844500D01*
G75*
G02*
X96480500Y-103782000I62500J0D01*
G01*
X97230500Y-103782000D01*
G75*
G02*
X97293000Y-103844500I0J-62500D01*
G01*
X97293000Y-103969500D01*
G75*
G02*
X97230500Y-104032000I-62500J0D01*
G01*
G37*
G04 #@! TD.AperFunction*
G04 #@! TA.AperFunction,SMDPad,CuDef*
G36*
G01*
X96230500Y-103657000D02*
X96105500Y-103657000D01*
G75*
G02*
X96043000Y-103594500I0J62500D01*
G01*
X96043000Y-102844500D01*
G75*
G02*
X96105500Y-102782000I62500J0D01*
G01*
X96230500Y-102782000D01*
G75*
G02*
X96293000Y-102844500I0J-62500D01*
G01*
X96293000Y-103594500D01*
G75*
G02*
X96230500Y-103657000I-62500J0D01*
G01*
G37*
G04 #@! TD.AperFunction*
G04 #@! TA.AperFunction,SMDPad,CuDef*
G36*
G01*
X95730500Y-103657000D02*
X95605500Y-103657000D01*
G75*
G02*
X95543000Y-103594500I0J62500D01*
G01*
X95543000Y-102844500D01*
G75*
G02*
X95605500Y-102782000I62500J0D01*
G01*
X95730500Y-102782000D01*
G75*
G02*
X95793000Y-102844500I0J-62500D01*
G01*
X95793000Y-103594500D01*
G75*
G02*
X95730500Y-103657000I-62500J0D01*
G01*
G37*
G04 #@! TD.AperFunction*
G04 #@! TA.AperFunction,SMDPad,CuDef*
G36*
G01*
X95230500Y-103657000D02*
X95105500Y-103657000D01*
G75*
G02*
X95043000Y-103594500I0J62500D01*
G01*
X95043000Y-102844500D01*
G75*
G02*
X95105500Y-102782000I62500J0D01*
G01*
X95230500Y-102782000D01*
G75*
G02*
X95293000Y-102844500I0J-62500D01*
G01*
X95293000Y-103594500D01*
G75*
G02*
X95230500Y-103657000I-62500J0D01*
G01*
G37*
G04 #@! TD.AperFunction*
G04 #@! TA.AperFunction,SMDPad,CuDef*
G36*
G01*
X94730500Y-103657000D02*
X94605500Y-103657000D01*
G75*
G02*
X94543000Y-103594500I0J62500D01*
G01*
X94543000Y-102844500D01*
G75*
G02*
X94605500Y-102782000I62500J0D01*
G01*
X94730500Y-102782000D01*
G75*
G02*
X94793000Y-102844500I0J-62500D01*
G01*
X94793000Y-103594500D01*
G75*
G02*
X94730500Y-103657000I-62500J0D01*
G01*
G37*
G04 #@! TD.AperFunction*
G04 #@! TA.AperFunction,SMDPad,CuDef*
G36*
G01*
X94230500Y-103657000D02*
X94105500Y-103657000D01*
G75*
G02*
X94043000Y-103594500I0J62500D01*
G01*
X94043000Y-102844500D01*
G75*
G02*
X94105500Y-102782000I62500J0D01*
G01*
X94230500Y-102782000D01*
G75*
G02*
X94293000Y-102844500I0J-62500D01*
G01*
X94293000Y-103594500D01*
G75*
G02*
X94230500Y-103657000I-62500J0D01*
G01*
G37*
G04 #@! TD.AperFunction*
G04 #@! TA.AperFunction,SMDPad,CuDef*
G36*
G01*
X93730500Y-103657000D02*
X93605500Y-103657000D01*
G75*
G02*
X93543000Y-103594500I0J62500D01*
G01*
X93543000Y-102844500D01*
G75*
G02*
X93605500Y-102782000I62500J0D01*
G01*
X93730500Y-102782000D01*
G75*
G02*
X93793000Y-102844500I0J-62500D01*
G01*
X93793000Y-103594500D01*
G75*
G02*
X93730500Y-103657000I-62500J0D01*
G01*
G37*
G04 #@! TD.AperFunction*
G04 #@! TA.AperFunction,SMDPad,CuDef*
G36*
G01*
X93230500Y-103657000D02*
X93105500Y-103657000D01*
G75*
G02*
X93043000Y-103594500I0J62500D01*
G01*
X93043000Y-102844500D01*
G75*
G02*
X93105500Y-102782000I62500J0D01*
G01*
X93230500Y-102782000D01*
G75*
G02*
X93293000Y-102844500I0J-62500D01*
G01*
X93293000Y-103594500D01*
G75*
G02*
X93230500Y-103657000I-62500J0D01*
G01*
G37*
G04 #@! TD.AperFunction*
G04 #@! TA.AperFunction,SMDPad,CuDef*
G36*
G01*
X92730500Y-103657000D02*
X92605500Y-103657000D01*
G75*
G02*
X92543000Y-103594500I0J62500D01*
G01*
X92543000Y-102844500D01*
G75*
G02*
X92605500Y-102782000I62500J0D01*
G01*
X92730500Y-102782000D01*
G75*
G02*
X92793000Y-102844500I0J-62500D01*
G01*
X92793000Y-103594500D01*
G75*
G02*
X92730500Y-103657000I-62500J0D01*
G01*
G37*
G04 #@! TD.AperFunction*
G04 #@! TA.AperFunction,SMDPad,CuDef*
G36*
G01*
X92355500Y-104032000D02*
X91605500Y-104032000D01*
G75*
G02*
X91543000Y-103969500I0J62500D01*
G01*
X91543000Y-103844500D01*
G75*
G02*
X91605500Y-103782000I62500J0D01*
G01*
X92355500Y-103782000D01*
G75*
G02*
X92418000Y-103844500I0J-62500D01*
G01*
X92418000Y-103969500D01*
G75*
G02*
X92355500Y-104032000I-62500J0D01*
G01*
G37*
G04 #@! TD.AperFunction*
G04 #@! TA.AperFunction,SMDPad,CuDef*
G36*
G01*
X92355500Y-104532000D02*
X91605500Y-104532000D01*
G75*
G02*
X91543000Y-104469500I0J62500D01*
G01*
X91543000Y-104344500D01*
G75*
G02*
X91605500Y-104282000I62500J0D01*
G01*
X92355500Y-104282000D01*
G75*
G02*
X92418000Y-104344500I0J-62500D01*
G01*
X92418000Y-104469500D01*
G75*
G02*
X92355500Y-104532000I-62500J0D01*
G01*
G37*
G04 #@! TD.AperFunction*
G04 #@! TA.AperFunction,SMDPad,CuDef*
G36*
G01*
X92355500Y-105032000D02*
X91605500Y-105032000D01*
G75*
G02*
X91543000Y-104969500I0J62500D01*
G01*
X91543000Y-104844500D01*
G75*
G02*
X91605500Y-104782000I62500J0D01*
G01*
X92355500Y-104782000D01*
G75*
G02*
X92418000Y-104844500I0J-62500D01*
G01*
X92418000Y-104969500D01*
G75*
G02*
X92355500Y-105032000I-62500J0D01*
G01*
G37*
G04 #@! TD.AperFunction*
G04 #@! TA.AperFunction,SMDPad,CuDef*
G36*
G01*
X92355500Y-105532000D02*
X91605500Y-105532000D01*
G75*
G02*
X91543000Y-105469500I0J62500D01*
G01*
X91543000Y-105344500D01*
G75*
G02*
X91605500Y-105282000I62500J0D01*
G01*
X92355500Y-105282000D01*
G75*
G02*
X92418000Y-105344500I0J-62500D01*
G01*
X92418000Y-105469500D01*
G75*
G02*
X92355500Y-105532000I-62500J0D01*
G01*
G37*
G04 #@! TD.AperFunction*
G04 #@! TA.AperFunction,SMDPad,CuDef*
G36*
G01*
X92355500Y-106032000D02*
X91605500Y-106032000D01*
G75*
G02*
X91543000Y-105969500I0J62500D01*
G01*
X91543000Y-105844500D01*
G75*
G02*
X91605500Y-105782000I62500J0D01*
G01*
X92355500Y-105782000D01*
G75*
G02*
X92418000Y-105844500I0J-62500D01*
G01*
X92418000Y-105969500D01*
G75*
G02*
X92355500Y-106032000I-62500J0D01*
G01*
G37*
G04 #@! TD.AperFunction*
G04 #@! TA.AperFunction,SMDPad,CuDef*
G36*
G01*
X92355500Y-106532000D02*
X91605500Y-106532000D01*
G75*
G02*
X91543000Y-106469500I0J62500D01*
G01*
X91543000Y-106344500D01*
G75*
G02*
X91605500Y-106282000I62500J0D01*
G01*
X92355500Y-106282000D01*
G75*
G02*
X92418000Y-106344500I0J-62500D01*
G01*
X92418000Y-106469500D01*
G75*
G02*
X92355500Y-106532000I-62500J0D01*
G01*
G37*
G04 #@! TD.AperFunction*
G04 #@! TA.AperFunction,SMDPad,CuDef*
G36*
G01*
X92355500Y-107032000D02*
X91605500Y-107032000D01*
G75*
G02*
X91543000Y-106969500I0J62500D01*
G01*
X91543000Y-106844500D01*
G75*
G02*
X91605500Y-106782000I62500J0D01*
G01*
X92355500Y-106782000D01*
G75*
G02*
X92418000Y-106844500I0J-62500D01*
G01*
X92418000Y-106969500D01*
G75*
G02*
X92355500Y-107032000I-62500J0D01*
G01*
G37*
G04 #@! TD.AperFunction*
G04 #@! TA.AperFunction,SMDPad,CuDef*
G36*
G01*
X92355500Y-107532000D02*
X91605500Y-107532000D01*
G75*
G02*
X91543000Y-107469500I0J62500D01*
G01*
X91543000Y-107344500D01*
G75*
G02*
X91605500Y-107282000I62500J0D01*
G01*
X92355500Y-107282000D01*
G75*
G02*
X92418000Y-107344500I0J-62500D01*
G01*
X92418000Y-107469500D01*
G75*
G02*
X92355500Y-107532000I-62500J0D01*
G01*
G37*
G04 #@! TD.AperFunction*
D18*
X94418000Y-105657000D03*
D19*
X94050000Y-96665000D03*
X93550000Y-96665000D03*
X93050000Y-96665000D03*
X92550000Y-96665000D03*
X92550000Y-98035000D03*
X93050000Y-98035000D03*
X93550000Y-98035000D03*
X94050000Y-98035000D03*
D14*
X105850000Y-95900000D03*
G04 #@! TA.AperFunction,SMDPad,CuDef*
G36*
G01*
X85975000Y-95950000D02*
X85525000Y-95950000D01*
G75*
G02*
X85350000Y-95775000I0J175000D01*
G01*
X85350000Y-95425000D01*
G75*
G02*
X85525000Y-95250000I175000J0D01*
G01*
X85975000Y-95250000D01*
G75*
G02*
X86150000Y-95425000I0J-175000D01*
G01*
X86150000Y-95775000D01*
G75*
G02*
X85975000Y-95950000I-175000J0D01*
G01*
G37*
G04 #@! TD.AperFunction*
G04 #@! TA.AperFunction,SMDPad,CuDef*
G36*
G01*
X85975000Y-99450000D02*
X85525000Y-99450000D01*
G75*
G02*
X85350000Y-99275000I0J175000D01*
G01*
X85350000Y-98925000D01*
G75*
G02*
X85525000Y-98750000I175000J0D01*
G01*
X85975000Y-98750000D01*
G75*
G02*
X86150000Y-98925000I0J-175000D01*
G01*
X86150000Y-99275000D01*
G75*
G02*
X85975000Y-99450000I-175000J0D01*
G01*
G37*
G04 #@! TD.AperFunction*
G04 #@! TA.AperFunction,SMDPad,CuDef*
G36*
G01*
X82250000Y-97050000D02*
X81700000Y-97050000D01*
G75*
G02*
X81550000Y-96900000I0J150000D01*
G01*
X81550000Y-96600000D01*
G75*
G02*
X81700000Y-96450000I150000J0D01*
G01*
X82250000Y-96450000D01*
G75*
G02*
X82400000Y-96600000I0J-150000D01*
G01*
X82400000Y-96900000D01*
G75*
G02*
X82250000Y-97050000I-150000J0D01*
G01*
G37*
G04 #@! TD.AperFunction*
G04 #@! TA.AperFunction,SMDPad,CuDef*
G36*
G01*
X82250000Y-98250000D02*
X81700000Y-98250000D01*
G75*
G02*
X81550000Y-98100000I0J150000D01*
G01*
X81550000Y-97800000D01*
G75*
G02*
X81700000Y-97650000I150000J0D01*
G01*
X82250000Y-97650000D01*
G75*
G02*
X82400000Y-97800000I0J-150000D01*
G01*
X82400000Y-98100000D01*
G75*
G02*
X82250000Y-98250000I-150000J0D01*
G01*
G37*
G04 #@! TD.AperFunction*
D20*
X117020000Y-94550000D03*
X108380000Y-94550000D03*
X108380000Y-98350000D03*
X117020000Y-98350000D03*
G04 #@! TA.AperFunction,SMDPad,CuDef*
G36*
G01*
X95455000Y-97400000D02*
X95145000Y-97400000D01*
G75*
G02*
X94990000Y-97245000I0J155000D01*
G01*
X94990000Y-96820000D01*
G75*
G02*
X95145000Y-96665000I155000J0D01*
G01*
X95455000Y-96665000D01*
G75*
G02*
X95610000Y-96820000I0J-155000D01*
G01*
X95610000Y-97245000D01*
G75*
G02*
X95455000Y-97400000I-155000J0D01*
G01*
G37*
G04 #@! TD.AperFunction*
G04 #@! TA.AperFunction,SMDPad,CuDef*
G36*
G01*
X95455000Y-98535000D02*
X95145000Y-98535000D01*
G75*
G02*
X94990000Y-98380000I0J155000D01*
G01*
X94990000Y-97955000D01*
G75*
G02*
X95145000Y-97800000I155000J0D01*
G01*
X95455000Y-97800000D01*
G75*
G02*
X95610000Y-97955000I0J-155000D01*
G01*
X95610000Y-98380000D01*
G75*
G02*
X95455000Y-98535000I-155000J0D01*
G01*
G37*
G04 #@! TD.AperFunction*
G04 #@! TA.AperFunction,SMDPad,CuDef*
G36*
G01*
X94550000Y-95605000D02*
X94550000Y-95295000D01*
G75*
G02*
X94705000Y-95140000I155000J0D01*
G01*
X95130000Y-95140000D01*
G75*
G02*
X95285000Y-95295000I0J-155000D01*
G01*
X95285000Y-95605000D01*
G75*
G02*
X95130000Y-95760000I-155000J0D01*
G01*
X94705000Y-95760000D01*
G75*
G02*
X94550000Y-95605000I0J155000D01*
G01*
G37*
G04 #@! TD.AperFunction*
G04 #@! TA.AperFunction,SMDPad,CuDef*
G36*
G01*
X93415000Y-95605000D02*
X93415000Y-95295000D01*
G75*
G02*
X93570000Y-95140000I155000J0D01*
G01*
X93995000Y-95140000D01*
G75*
G02*
X94150000Y-95295000I0J-155000D01*
G01*
X94150000Y-95605000D01*
G75*
G02*
X93995000Y-95760000I-155000J0D01*
G01*
X93570000Y-95760000D01*
G75*
G02*
X93415000Y-95605000I0J155000D01*
G01*
G37*
G04 #@! TD.AperFunction*
G04 #@! TA.AperFunction,SMDPad,CuDef*
G36*
G01*
X108411500Y-110254000D02*
X108411500Y-109934000D01*
G75*
G02*
X108571500Y-109774000I160000J0D01*
G01*
X108966500Y-109774000D01*
G75*
G02*
X109126500Y-109934000I0J-160000D01*
G01*
X109126500Y-110254000D01*
G75*
G02*
X108966500Y-110414000I-160000J0D01*
G01*
X108571500Y-110414000D01*
G75*
G02*
X108411500Y-110254000I0J160000D01*
G01*
G37*
G04 #@! TD.AperFunction*
G04 #@! TA.AperFunction,SMDPad,CuDef*
G36*
G01*
X107216500Y-110254000D02*
X107216500Y-109934000D01*
G75*
G02*
X107376500Y-109774000I160000J0D01*
G01*
X107771500Y-109774000D01*
G75*
G02*
X107931500Y-109934000I0J-160000D01*
G01*
X107931500Y-110254000D01*
G75*
G02*
X107771500Y-110414000I-160000J0D01*
G01*
X107376500Y-110414000D01*
G75*
G02*
X107216500Y-110254000I0J160000D01*
G01*
G37*
G04 #@! TD.AperFunction*
G04 #@! TA.AperFunction,SMDPad,CuDef*
G36*
G01*
X108374000Y-108857000D02*
X108374000Y-108537000D01*
G75*
G02*
X108534000Y-108377000I160000J0D01*
G01*
X108929000Y-108377000D01*
G75*
G02*
X109089000Y-108537000I0J-160000D01*
G01*
X109089000Y-108857000D01*
G75*
G02*
X108929000Y-109017000I-160000J0D01*
G01*
X108534000Y-109017000D01*
G75*
G02*
X108374000Y-108857000I0J160000D01*
G01*
G37*
G04 #@! TD.AperFunction*
G04 #@! TA.AperFunction,SMDPad,CuDef*
G36*
G01*
X107179000Y-108857000D02*
X107179000Y-108537000D01*
G75*
G02*
X107339000Y-108377000I160000J0D01*
G01*
X107734000Y-108377000D01*
G75*
G02*
X107894000Y-108537000I0J-160000D01*
G01*
X107894000Y-108857000D01*
G75*
G02*
X107734000Y-109017000I-160000J0D01*
G01*
X107339000Y-109017000D01*
G75*
G02*
X107179000Y-108857000I0J160000D01*
G01*
G37*
G04 #@! TD.AperFunction*
G04 #@! TA.AperFunction,SMDPad,CuDef*
G36*
G01*
X107894000Y-107140000D02*
X107894000Y-107460000D01*
G75*
G02*
X107734000Y-107620000I-160000J0D01*
G01*
X107339000Y-107620000D01*
G75*
G02*
X107179000Y-107460000I0J160000D01*
G01*
X107179000Y-107140000D01*
G75*
G02*
X107339000Y-106980000I160000J0D01*
G01*
X107734000Y-106980000D01*
G75*
G02*
X107894000Y-107140000I0J-160000D01*
G01*
G37*
G04 #@! TD.AperFunction*
G04 #@! TA.AperFunction,SMDPad,CuDef*
G36*
G01*
X109089000Y-107140000D02*
X109089000Y-107460000D01*
G75*
G02*
X108929000Y-107620000I-160000J0D01*
G01*
X108534000Y-107620000D01*
G75*
G02*
X108374000Y-107460000I0J160000D01*
G01*
X108374000Y-107140000D01*
G75*
G02*
X108534000Y-106980000I160000J0D01*
G01*
X108929000Y-106980000D01*
G75*
G02*
X109089000Y-107140000I0J-160000D01*
G01*
G37*
G04 #@! TD.AperFunction*
G04 #@! TA.AperFunction,SMDPad,CuDef*
G36*
G01*
X103733000Y-109569500D02*
X103733000Y-109094500D01*
G75*
G02*
X103970500Y-108857000I237500J0D01*
G01*
X104470500Y-108857000D01*
G75*
G02*
X104708000Y-109094500I0J-237500D01*
G01*
X104708000Y-109569500D01*
G75*
G02*
X104470500Y-109807000I-237500J0D01*
G01*
X103970500Y-109807000D01*
G75*
G02*
X103733000Y-109569500I0J237500D01*
G01*
G37*
G04 #@! TD.AperFunction*
G04 #@! TA.AperFunction,SMDPad,CuDef*
G36*
G01*
X101908000Y-109569500D02*
X101908000Y-109094500D01*
G75*
G02*
X102145500Y-108857000I237500J0D01*
G01*
X102645500Y-108857000D01*
G75*
G02*
X102883000Y-109094500I0J-237500D01*
G01*
X102883000Y-109569500D01*
G75*
G02*
X102645500Y-109807000I-237500J0D01*
G01*
X102145500Y-109807000D01*
G75*
G02*
X101908000Y-109569500I0J237500D01*
G01*
G37*
G04 #@! TD.AperFunction*
G04 #@! TA.AperFunction,SMDPad,CuDef*
G36*
G01*
X102883000Y-107316500D02*
X102883000Y-107791500D01*
G75*
G02*
X102645500Y-108029000I-237500J0D01*
G01*
X102145500Y-108029000D01*
G75*
G02*
X101908000Y-107791500I0J237500D01*
G01*
X101908000Y-107316500D01*
G75*
G02*
X102145500Y-107079000I237500J0D01*
G01*
X102645500Y-107079000D01*
G75*
G02*
X102883000Y-107316500I0J-237500D01*
G01*
G37*
G04 #@! TD.AperFunction*
G04 #@! TA.AperFunction,SMDPad,CuDef*
G36*
G01*
X104708000Y-107316500D02*
X104708000Y-107791500D01*
G75*
G02*
X104470500Y-108029000I-237500J0D01*
G01*
X103970500Y-108029000D01*
G75*
G02*
X103733000Y-107791500I0J237500D01*
G01*
X103733000Y-107316500D01*
G75*
G02*
X103970500Y-107079000I237500J0D01*
G01*
X104470500Y-107079000D01*
G75*
G02*
X104708000Y-107316500I0J-237500D01*
G01*
G37*
G04 #@! TD.AperFunction*
G04 #@! TA.AperFunction,SMDPad,CuDef*
G36*
G01*
X111910000Y-101490000D02*
X111910000Y-101810000D01*
G75*
G02*
X111750000Y-101970000I-160000J0D01*
G01*
X111355000Y-101970000D01*
G75*
G02*
X111195000Y-101810000I0J160000D01*
G01*
X111195000Y-101490000D01*
G75*
G02*
X111355000Y-101330000I160000J0D01*
G01*
X111750000Y-101330000D01*
G75*
G02*
X111910000Y-101490000I0J-160000D01*
G01*
G37*
G04 #@! TD.AperFunction*
G04 #@! TA.AperFunction,SMDPad,CuDef*
G36*
G01*
X113105000Y-101490000D02*
X113105000Y-101810000D01*
G75*
G02*
X112945000Y-101970000I-160000J0D01*
G01*
X112550000Y-101970000D01*
G75*
G02*
X112390000Y-101810000I0J160000D01*
G01*
X112390000Y-101490000D01*
G75*
G02*
X112550000Y-101330000I160000J0D01*
G01*
X112945000Y-101330000D01*
G75*
G02*
X113105000Y-101490000I0J-160000D01*
G01*
G37*
G04 #@! TD.AperFunction*
G04 #@! TA.AperFunction,SMDPad,CuDef*
G36*
G01*
X108374000Y-103142000D02*
X108374000Y-102822000D01*
G75*
G02*
X108534000Y-102662000I160000J0D01*
G01*
X108929000Y-102662000D01*
G75*
G02*
X109089000Y-102822000I0J-160000D01*
G01*
X109089000Y-103142000D01*
G75*
G02*
X108929000Y-103302000I-160000J0D01*
G01*
X108534000Y-103302000D01*
G75*
G02*
X108374000Y-103142000I0J160000D01*
G01*
G37*
G04 #@! TD.AperFunction*
G04 #@! TA.AperFunction,SMDPad,CuDef*
G36*
G01*
X107179000Y-103142000D02*
X107179000Y-102822000D01*
G75*
G02*
X107339000Y-102662000I160000J0D01*
G01*
X107734000Y-102662000D01*
G75*
G02*
X107894000Y-102822000I0J-160000D01*
G01*
X107894000Y-103142000D01*
G75*
G02*
X107734000Y-103302000I-160000J0D01*
G01*
X107339000Y-103302000D01*
G75*
G02*
X107179000Y-103142000I0J160000D01*
G01*
G37*
G04 #@! TD.AperFunction*
G04 #@! TA.AperFunction,SMDPad,CuDef*
G36*
G01*
X108374000Y-104539000D02*
X108374000Y-104219000D01*
G75*
G02*
X108534000Y-104059000I160000J0D01*
G01*
X108929000Y-104059000D01*
G75*
G02*
X109089000Y-104219000I0J-160000D01*
G01*
X109089000Y-104539000D01*
G75*
G02*
X108929000Y-104699000I-160000J0D01*
G01*
X108534000Y-104699000D01*
G75*
G02*
X108374000Y-104539000I0J160000D01*
G01*
G37*
G04 #@! TD.AperFunction*
G04 #@! TA.AperFunction,SMDPad,CuDef*
G36*
G01*
X107179000Y-104539000D02*
X107179000Y-104219000D01*
G75*
G02*
X107339000Y-104059000I160000J0D01*
G01*
X107734000Y-104059000D01*
G75*
G02*
X107894000Y-104219000I0J-160000D01*
G01*
X107894000Y-104539000D01*
G75*
G02*
X107734000Y-104699000I-160000J0D01*
G01*
X107339000Y-104699000D01*
G75*
G02*
X107179000Y-104539000I0J160000D01*
G01*
G37*
G04 #@! TD.AperFunction*
G04 #@! TA.AperFunction,SMDPad,CuDef*
G36*
G01*
X107894000Y-105616000D02*
X107894000Y-105936000D01*
G75*
G02*
X107734000Y-106096000I-160000J0D01*
G01*
X107339000Y-106096000D01*
G75*
G02*
X107179000Y-105936000I0J160000D01*
G01*
X107179000Y-105616000D01*
G75*
G02*
X107339000Y-105456000I160000J0D01*
G01*
X107734000Y-105456000D01*
G75*
G02*
X107894000Y-105616000I0J-160000D01*
G01*
G37*
G04 #@! TD.AperFunction*
G04 #@! TA.AperFunction,SMDPad,CuDef*
G36*
G01*
X109089000Y-105616000D02*
X109089000Y-105936000D01*
G75*
G02*
X108929000Y-106096000I-160000J0D01*
G01*
X108534000Y-106096000D01*
G75*
G02*
X108374000Y-105936000I0J160000D01*
G01*
X108374000Y-105616000D01*
G75*
G02*
X108534000Y-105456000I160000J0D01*
G01*
X108929000Y-105456000D01*
G75*
G02*
X109089000Y-105616000I0J-160000D01*
G01*
G37*
G04 #@! TD.AperFunction*
G04 #@! TA.AperFunction,SMDPad,CuDef*
G36*
G01*
X103733000Y-103981500D02*
X103733000Y-103506500D01*
G75*
G02*
X103970500Y-103269000I237500J0D01*
G01*
X104470500Y-103269000D01*
G75*
G02*
X104708000Y-103506500I0J-237500D01*
G01*
X104708000Y-103981500D01*
G75*
G02*
X104470500Y-104219000I-237500J0D01*
G01*
X103970500Y-104219000D01*
G75*
G02*
X103733000Y-103981500I0J237500D01*
G01*
G37*
G04 #@! TD.AperFunction*
G04 #@! TA.AperFunction,SMDPad,CuDef*
G36*
G01*
X101908000Y-103981500D02*
X101908000Y-103506500D01*
G75*
G02*
X102145500Y-103269000I237500J0D01*
G01*
X102645500Y-103269000D01*
G75*
G02*
X102883000Y-103506500I0J-237500D01*
G01*
X102883000Y-103981500D01*
G75*
G02*
X102645500Y-104219000I-237500J0D01*
G01*
X102145500Y-104219000D01*
G75*
G02*
X101908000Y-103981500I0J237500D01*
G01*
G37*
G04 #@! TD.AperFunction*
G04 #@! TA.AperFunction,SMDPad,CuDef*
G36*
G01*
X102883000Y-105284500D02*
X102883000Y-105759500D01*
G75*
G02*
X102645500Y-105997000I-237500J0D01*
G01*
X102145500Y-105997000D01*
G75*
G02*
X101908000Y-105759500I0J237500D01*
G01*
X101908000Y-105284500D01*
G75*
G02*
X102145500Y-105047000I237500J0D01*
G01*
X102645500Y-105047000D01*
G75*
G02*
X102883000Y-105284500I0J-237500D01*
G01*
G37*
G04 #@! TD.AperFunction*
G04 #@! TA.AperFunction,SMDPad,CuDef*
G36*
G01*
X104708000Y-105284500D02*
X104708000Y-105759500D01*
G75*
G02*
X104470500Y-105997000I-237500J0D01*
G01*
X103970500Y-105997000D01*
G75*
G02*
X103733000Y-105759500I0J237500D01*
G01*
X103733000Y-105284500D01*
G75*
G02*
X103970500Y-105047000I237500J0D01*
G01*
X104470500Y-105047000D01*
G75*
G02*
X104708000Y-105284500I0J-237500D01*
G01*
G37*
G04 #@! TD.AperFunction*
G04 #@! TA.AperFunction,SMDPad,CuDef*
G36*
G01*
X111323000Y-109807000D02*
X111323000Y-110127000D01*
G75*
G02*
X111163000Y-110287000I-160000J0D01*
G01*
X110768000Y-110287000D01*
G75*
G02*
X110608000Y-110127000I0J160000D01*
G01*
X110608000Y-109807000D01*
G75*
G02*
X110768000Y-109647000I160000J0D01*
G01*
X111163000Y-109647000D01*
G75*
G02*
X111323000Y-109807000I0J-160000D01*
G01*
G37*
G04 #@! TD.AperFunction*
G04 #@! TA.AperFunction,SMDPad,CuDef*
G36*
G01*
X112518000Y-109807000D02*
X112518000Y-110127000D01*
G75*
G02*
X112358000Y-110287000I-160000J0D01*
G01*
X111963000Y-110287000D01*
G75*
G02*
X111803000Y-110127000I0J160000D01*
G01*
X111803000Y-109807000D01*
G75*
G02*
X111963000Y-109647000I160000J0D01*
G01*
X112358000Y-109647000D01*
G75*
G02*
X112518000Y-109807000I0J-160000D01*
G01*
G37*
G04 #@! TD.AperFunction*
G04 #@! TA.AperFunction,SMDPad,CuDef*
G36*
G01*
X112142000Y-111728500D02*
X112142000Y-111253500D01*
G75*
G02*
X112379500Y-111016000I237500J0D01*
G01*
X112979500Y-111016000D01*
G75*
G02*
X113217000Y-111253500I0J-237500D01*
G01*
X113217000Y-111728500D01*
G75*
G02*
X112979500Y-111966000I-237500J0D01*
G01*
X112379500Y-111966000D01*
G75*
G02*
X112142000Y-111728500I0J237500D01*
G01*
G37*
G04 #@! TD.AperFunction*
G04 #@! TA.AperFunction,SMDPad,CuDef*
G36*
G01*
X110417000Y-111728500D02*
X110417000Y-111253500D01*
G75*
G02*
X110654500Y-111016000I237500J0D01*
G01*
X111254500Y-111016000D01*
G75*
G02*
X111492000Y-111253500I0J-237500D01*
G01*
X111492000Y-111728500D01*
G75*
G02*
X111254500Y-111966000I-237500J0D01*
G01*
X110654500Y-111966000D01*
G75*
G02*
X110417000Y-111728500I0J237500D01*
G01*
G37*
G04 #@! TD.AperFunction*
G04 #@! TA.AperFunction,SMDPad,CuDef*
G36*
G01*
X107975000Y-111312500D02*
X107975000Y-111787500D01*
G75*
G02*
X107737500Y-112025000I-237500J0D01*
G01*
X107137500Y-112025000D01*
G75*
G02*
X106900000Y-111787500I0J237500D01*
G01*
X106900000Y-111312500D01*
G75*
G02*
X107137500Y-111075000I237500J0D01*
G01*
X107737500Y-111075000D01*
G75*
G02*
X107975000Y-111312500I0J-237500D01*
G01*
G37*
G04 #@! TD.AperFunction*
G04 #@! TA.AperFunction,SMDPad,CuDef*
G36*
G01*
X109700000Y-111312500D02*
X109700000Y-111787500D01*
G75*
G02*
X109462500Y-112025000I-237500J0D01*
G01*
X108862500Y-112025000D01*
G75*
G02*
X108625000Y-111787500I0J237500D01*
G01*
X108625000Y-111312500D01*
G75*
G02*
X108862500Y-111075000I237500J0D01*
G01*
X109462500Y-111075000D01*
G75*
G02*
X109700000Y-111312500I0J-237500D01*
G01*
G37*
G04 #@! TD.AperFunction*
G04 #@! TA.AperFunction,SMDPad,CuDef*
G36*
G01*
X106085500Y-108118000D02*
X105610500Y-108118000D01*
G75*
G02*
X105373000Y-107880500I0J237500D01*
G01*
X105373000Y-107280500D01*
G75*
G02*
X105610500Y-107043000I237500J0D01*
G01*
X106085500Y-107043000D01*
G75*
G02*
X106323000Y-107280500I0J-237500D01*
G01*
X106323000Y-107880500D01*
G75*
G02*
X106085500Y-108118000I-237500J0D01*
G01*
G37*
G04 #@! TD.AperFunction*
G04 #@! TA.AperFunction,SMDPad,CuDef*
G36*
G01*
X106085500Y-109843000D02*
X105610500Y-109843000D01*
G75*
G02*
X105373000Y-109605500I0J237500D01*
G01*
X105373000Y-109005500D01*
G75*
G02*
X105610500Y-108768000I237500J0D01*
G01*
X106085500Y-108768000D01*
G75*
G02*
X106323000Y-109005500I0J-237500D01*
G01*
X106323000Y-109605500D01*
G75*
G02*
X106085500Y-109843000I-237500J0D01*
G01*
G37*
G04 #@! TD.AperFunction*
G04 #@! TA.AperFunction,SMDPad,CuDef*
G36*
G01*
X112985000Y-100567500D02*
X112985000Y-100092500D01*
G75*
G02*
X113222500Y-99855000I237500J0D01*
G01*
X113822500Y-99855000D01*
G75*
G02*
X114060000Y-100092500I0J-237500D01*
G01*
X114060000Y-100567500D01*
G75*
G02*
X113822500Y-100805000I-237500J0D01*
G01*
X113222500Y-100805000D01*
G75*
G02*
X112985000Y-100567500I0J237500D01*
G01*
G37*
G04 #@! TD.AperFunction*
G04 #@! TA.AperFunction,SMDPad,CuDef*
G36*
G01*
X111260000Y-100567500D02*
X111260000Y-100092500D01*
G75*
G02*
X111497500Y-99855000I237500J0D01*
G01*
X112097500Y-99855000D01*
G75*
G02*
X112335000Y-100092500I0J-237500D01*
G01*
X112335000Y-100567500D01*
G75*
G02*
X112097500Y-100805000I-237500J0D01*
G01*
X111497500Y-100805000D01*
G75*
G02*
X111260000Y-100567500I0J237500D01*
G01*
G37*
G04 #@! TD.AperFunction*
G04 #@! TA.AperFunction,SMDPad,CuDef*
G36*
G01*
X106285000Y-101093500D02*
X106285000Y-101568500D01*
G75*
G02*
X106047500Y-101806000I-237500J0D01*
G01*
X105447500Y-101806000D01*
G75*
G02*
X105210000Y-101568500I0J237500D01*
G01*
X105210000Y-101093500D01*
G75*
G02*
X105447500Y-100856000I237500J0D01*
G01*
X106047500Y-100856000D01*
G75*
G02*
X106285000Y-101093500I0J-237500D01*
G01*
G37*
G04 #@! TD.AperFunction*
G04 #@! TA.AperFunction,SMDPad,CuDef*
G36*
G01*
X108010000Y-101093500D02*
X108010000Y-101568500D01*
G75*
G02*
X107772500Y-101806000I-237500J0D01*
G01*
X107172500Y-101806000D01*
G75*
G02*
X106935000Y-101568500I0J237500D01*
G01*
X106935000Y-101093500D01*
G75*
G02*
X107172500Y-100856000I237500J0D01*
G01*
X107772500Y-100856000D01*
G75*
G02*
X108010000Y-101093500I0J-237500D01*
G01*
G37*
G04 #@! TD.AperFunction*
G04 #@! TA.AperFunction,SMDPad,CuDef*
G36*
G01*
X105610500Y-104958000D02*
X106085500Y-104958000D01*
G75*
G02*
X106323000Y-105195500I0J-237500D01*
G01*
X106323000Y-105795500D01*
G75*
G02*
X106085500Y-106033000I-237500J0D01*
G01*
X105610500Y-106033000D01*
G75*
G02*
X105373000Y-105795500I0J237500D01*
G01*
X105373000Y-105195500D01*
G75*
G02*
X105610500Y-104958000I237500J0D01*
G01*
G37*
G04 #@! TD.AperFunction*
G04 #@! TA.AperFunction,SMDPad,CuDef*
G36*
G01*
X105610500Y-103233000D02*
X106085500Y-103233000D01*
G75*
G02*
X106323000Y-103470500I0J-237500D01*
G01*
X106323000Y-104070500D01*
G75*
G02*
X106085500Y-104308000I-237500J0D01*
G01*
X105610500Y-104308000D01*
G75*
G02*
X105373000Y-104070500I0J237500D01*
G01*
X105373000Y-103470500D01*
G75*
G02*
X105610500Y-103233000I237500J0D01*
G01*
G37*
G04 #@! TD.AperFunction*
G04 #@! TA.AperFunction,SMDPad,CuDef*
G36*
G01*
X113877000Y-108370000D02*
X113567000Y-108370000D01*
G75*
G02*
X113412000Y-108215000I0J155000D01*
G01*
X113412000Y-107790000D01*
G75*
G02*
X113567000Y-107635000I155000J0D01*
G01*
X113877000Y-107635000D01*
G75*
G02*
X114032000Y-107790000I0J-155000D01*
G01*
X114032000Y-108215000D01*
G75*
G02*
X113877000Y-108370000I-155000J0D01*
G01*
G37*
G04 #@! TD.AperFunction*
G04 #@! TA.AperFunction,SMDPad,CuDef*
G36*
G01*
X113877000Y-109505000D02*
X113567000Y-109505000D01*
G75*
G02*
X113412000Y-109350000I0J155000D01*
G01*
X113412000Y-108925000D01*
G75*
G02*
X113567000Y-108770000I155000J0D01*
G01*
X113877000Y-108770000D01*
G75*
G02*
X114032000Y-108925000I0J-155000D01*
G01*
X114032000Y-109350000D01*
G75*
G02*
X113877000Y-109505000I-155000J0D01*
G01*
G37*
G04 #@! TD.AperFunction*
G04 #@! TA.AperFunction,SMDPad,CuDef*
G36*
G01*
X115020000Y-108370000D02*
X114710000Y-108370000D01*
G75*
G02*
X114555000Y-108215000I0J155000D01*
G01*
X114555000Y-107790000D01*
G75*
G02*
X114710000Y-107635000I155000J0D01*
G01*
X115020000Y-107635000D01*
G75*
G02*
X115175000Y-107790000I0J-155000D01*
G01*
X115175000Y-108215000D01*
G75*
G02*
X115020000Y-108370000I-155000J0D01*
G01*
G37*
G04 #@! TD.AperFunction*
G04 #@! TA.AperFunction,SMDPad,CuDef*
G36*
G01*
X115020000Y-109505000D02*
X114710000Y-109505000D01*
G75*
G02*
X114555000Y-109350000I0J155000D01*
G01*
X114555000Y-108925000D01*
G75*
G02*
X114710000Y-108770000I155000J0D01*
G01*
X115020000Y-108770000D01*
G75*
G02*
X115175000Y-108925000I0J-155000D01*
G01*
X115175000Y-109350000D01*
G75*
G02*
X115020000Y-109505000I-155000J0D01*
G01*
G37*
G04 #@! TD.AperFunction*
G04 #@! TA.AperFunction,SMDPad,CuDef*
G36*
G01*
X101781000Y-100866000D02*
X101781000Y-101176000D01*
G75*
G02*
X101626000Y-101331000I-155000J0D01*
G01*
X101201000Y-101331000D01*
G75*
G02*
X101046000Y-101176000I0J155000D01*
G01*
X101046000Y-100866000D01*
G75*
G02*
X101201000Y-100711000I155000J0D01*
G01*
X101626000Y-100711000D01*
G75*
G02*
X101781000Y-100866000I0J-155000D01*
G01*
G37*
G04 #@! TD.AperFunction*
G04 #@! TA.AperFunction,SMDPad,CuDef*
G36*
G01*
X102916000Y-100866000D02*
X102916000Y-101176000D01*
G75*
G02*
X102761000Y-101331000I-155000J0D01*
G01*
X102336000Y-101331000D01*
G75*
G02*
X102181000Y-101176000I0J155000D01*
G01*
X102181000Y-100866000D01*
G75*
G02*
X102336000Y-100711000I155000J0D01*
G01*
X102761000Y-100711000D01*
G75*
G02*
X102916000Y-100866000I0J-155000D01*
G01*
G37*
G04 #@! TD.AperFunction*
G04 #@! TA.AperFunction,SMDPad,CuDef*
G36*
G01*
X100730000Y-98800000D02*
X100420000Y-98800000D01*
G75*
G02*
X100265000Y-98645000I0J155000D01*
G01*
X100265000Y-98220000D01*
G75*
G02*
X100420000Y-98065000I155000J0D01*
G01*
X100730000Y-98065000D01*
G75*
G02*
X100885000Y-98220000I0J-155000D01*
G01*
X100885000Y-98645000D01*
G75*
G02*
X100730000Y-98800000I-155000J0D01*
G01*
G37*
G04 #@! TD.AperFunction*
G04 #@! TA.AperFunction,SMDPad,CuDef*
G36*
G01*
X100730000Y-99935000D02*
X100420000Y-99935000D01*
G75*
G02*
X100265000Y-99780000I0J155000D01*
G01*
X100265000Y-99355000D01*
G75*
G02*
X100420000Y-99200000I155000J0D01*
G01*
X100730000Y-99200000D01*
G75*
G02*
X100885000Y-99355000I0J-155000D01*
G01*
X100885000Y-99780000D01*
G75*
G02*
X100730000Y-99935000I-155000J0D01*
G01*
G37*
G04 #@! TD.AperFunction*
G04 #@! TA.AperFunction,SMDPad,CuDef*
G36*
G01*
X103995000Y-97950000D02*
X104305000Y-97950000D01*
G75*
G02*
X104460000Y-98105000I0J-155000D01*
G01*
X104460000Y-98530000D01*
G75*
G02*
X104305000Y-98685000I-155000J0D01*
G01*
X103995000Y-98685000D01*
G75*
G02*
X103840000Y-98530000I0J155000D01*
G01*
X103840000Y-98105000D01*
G75*
G02*
X103995000Y-97950000I155000J0D01*
G01*
G37*
G04 #@! TD.AperFunction*
G04 #@! TA.AperFunction,SMDPad,CuDef*
G36*
G01*
X103995000Y-96815000D02*
X104305000Y-96815000D01*
G75*
G02*
X104460000Y-96970000I0J-155000D01*
G01*
X104460000Y-97395000D01*
G75*
G02*
X104305000Y-97550000I-155000J0D01*
G01*
X103995000Y-97550000D01*
G75*
G02*
X103840000Y-97395000I0J155000D01*
G01*
X103840000Y-96970000D01*
G75*
G02*
X103995000Y-96815000I155000J0D01*
G01*
G37*
G04 #@! TD.AperFunction*
G04 #@! TA.AperFunction,SMDPad,CuDef*
G36*
G01*
X98415000Y-104330000D02*
X98725000Y-104330000D01*
G75*
G02*
X98880000Y-104485000I0J-155000D01*
G01*
X98880000Y-104910000D01*
G75*
G02*
X98725000Y-105065000I-155000J0D01*
G01*
X98415000Y-105065000D01*
G75*
G02*
X98260000Y-104910000I0J155000D01*
G01*
X98260000Y-104485000D01*
G75*
G02*
X98415000Y-104330000I155000J0D01*
G01*
G37*
G04 #@! TD.AperFunction*
G04 #@! TA.AperFunction,SMDPad,CuDef*
G36*
G01*
X98415000Y-103195000D02*
X98725000Y-103195000D01*
G75*
G02*
X98880000Y-103350000I0J-155000D01*
G01*
X98880000Y-103775000D01*
G75*
G02*
X98725000Y-103930000I-155000J0D01*
G01*
X98415000Y-103930000D01*
G75*
G02*
X98260000Y-103775000I0J155000D01*
G01*
X98260000Y-103350000D01*
G75*
G02*
X98415000Y-103195000I155000J0D01*
G01*
G37*
G04 #@! TD.AperFunction*
G04 #@! TA.AperFunction,SMDPad,CuDef*
G36*
G01*
X99719000Y-109652000D02*
X98769000Y-109652000D01*
G75*
G02*
X98519000Y-109402000I0J250000D01*
G01*
X98519000Y-108727000D01*
G75*
G02*
X98769000Y-108477000I250000J0D01*
G01*
X99719000Y-108477000D01*
G75*
G02*
X99969000Y-108727000I0J-250000D01*
G01*
X99969000Y-109402000D01*
G75*
G02*
X99719000Y-109652000I-250000J0D01*
G01*
G37*
G04 #@! TD.AperFunction*
G04 #@! TA.AperFunction,SMDPad,CuDef*
G36*
G01*
X99719000Y-111727000D02*
X98769000Y-111727000D01*
G75*
G02*
X98519000Y-111477000I0J250000D01*
G01*
X98519000Y-110802000D01*
G75*
G02*
X98769000Y-110552000I250000J0D01*
G01*
X99719000Y-110552000D01*
G75*
G02*
X99969000Y-110802000I0J-250000D01*
G01*
X99969000Y-111477000D01*
G75*
G02*
X99719000Y-111727000I-250000J0D01*
G01*
G37*
G04 #@! TD.AperFunction*
G04 #@! TA.AperFunction,SMDPad,CuDef*
G36*
G01*
X96610000Y-111335500D02*
X97560000Y-111335500D01*
G75*
G02*
X97810000Y-111585500I0J-250000D01*
G01*
X97810000Y-112260500D01*
G75*
G02*
X97560000Y-112510500I-250000J0D01*
G01*
X96610000Y-112510500D01*
G75*
G02*
X96360000Y-112260500I0J250000D01*
G01*
X96360000Y-111585500D01*
G75*
G02*
X96610000Y-111335500I250000J0D01*
G01*
G37*
G04 #@! TD.AperFunction*
G04 #@! TA.AperFunction,SMDPad,CuDef*
G36*
G01*
X96610000Y-109260500D02*
X97560000Y-109260500D01*
G75*
G02*
X97810000Y-109510500I0J-250000D01*
G01*
X97810000Y-110185500D01*
G75*
G02*
X97560000Y-110435500I-250000J0D01*
G01*
X96610000Y-110435500D01*
G75*
G02*
X96360000Y-110185500I0J250000D01*
G01*
X96360000Y-109510500D01*
G75*
G02*
X96610000Y-109260500I250000J0D01*
G01*
G37*
G04 #@! TD.AperFunction*
G04 #@! TA.AperFunction,SMDPad,CuDef*
G36*
G01*
X91469000Y-110683000D02*
X91779000Y-110683000D01*
G75*
G02*
X91934000Y-110838000I0J-155000D01*
G01*
X91934000Y-111263000D01*
G75*
G02*
X91779000Y-111418000I-155000J0D01*
G01*
X91469000Y-111418000D01*
G75*
G02*
X91314000Y-111263000I0J155000D01*
G01*
X91314000Y-110838000D01*
G75*
G02*
X91469000Y-110683000I155000J0D01*
G01*
G37*
G04 #@! TD.AperFunction*
G04 #@! TA.AperFunction,SMDPad,CuDef*
G36*
G01*
X91469000Y-109548000D02*
X91779000Y-109548000D01*
G75*
G02*
X91934000Y-109703000I0J-155000D01*
G01*
X91934000Y-110128000D01*
G75*
G02*
X91779000Y-110283000I-155000J0D01*
G01*
X91469000Y-110283000D01*
G75*
G02*
X91314000Y-110128000I0J155000D01*
G01*
X91314000Y-109703000D01*
G75*
G02*
X91469000Y-109548000I155000J0D01*
G01*
G37*
G04 #@! TD.AperFunction*
G04 #@! TA.AperFunction,SMDPad,CuDef*
G36*
G01*
X93964000Y-110836000D02*
X93964000Y-111146000D01*
G75*
G02*
X93809000Y-111301000I-155000J0D01*
G01*
X93384000Y-111301000D01*
G75*
G02*
X93229000Y-111146000I0J155000D01*
G01*
X93229000Y-110836000D01*
G75*
G02*
X93384000Y-110681000I155000J0D01*
G01*
X93809000Y-110681000D01*
G75*
G02*
X93964000Y-110836000I0J-155000D01*
G01*
G37*
G04 #@! TD.AperFunction*
G04 #@! TA.AperFunction,SMDPad,CuDef*
G36*
G01*
X95099000Y-110836000D02*
X95099000Y-111146000D01*
G75*
G02*
X94944000Y-111301000I-155000J0D01*
G01*
X94519000Y-111301000D01*
G75*
G02*
X94364000Y-111146000I0J155000D01*
G01*
X94364000Y-110836000D01*
G75*
G02*
X94519000Y-110681000I155000J0D01*
G01*
X94944000Y-110681000D01*
G75*
G02*
X95099000Y-110836000I0J-155000D01*
G01*
G37*
G04 #@! TD.AperFunction*
G04 #@! TA.AperFunction,SMDPad,CuDef*
G36*
G01*
X93202000Y-109693000D02*
X93202000Y-110003000D01*
G75*
G02*
X93047000Y-110158000I-155000J0D01*
G01*
X92622000Y-110158000D01*
G75*
G02*
X92467000Y-110003000I0J155000D01*
G01*
X92467000Y-109693000D01*
G75*
G02*
X92622000Y-109538000I155000J0D01*
G01*
X93047000Y-109538000D01*
G75*
G02*
X93202000Y-109693000I0J-155000D01*
G01*
G37*
G04 #@! TD.AperFunction*
G04 #@! TA.AperFunction,SMDPad,CuDef*
G36*
G01*
X94337000Y-109693000D02*
X94337000Y-110003000D01*
G75*
G02*
X94182000Y-110158000I-155000J0D01*
G01*
X93757000Y-110158000D01*
G75*
G02*
X93602000Y-110003000I0J155000D01*
G01*
X93602000Y-109693000D01*
G75*
G02*
X93757000Y-109538000I155000J0D01*
G01*
X94182000Y-109538000D01*
G75*
G02*
X94337000Y-109693000I0J-155000D01*
G01*
G37*
G04 #@! TD.AperFunction*
G04 #@! TA.AperFunction,SMDPad,CuDef*
G36*
G01*
X89245000Y-108837500D02*
X88295000Y-108837500D01*
G75*
G02*
X88045000Y-108587500I0J250000D01*
G01*
X88045000Y-107912500D01*
G75*
G02*
X88295000Y-107662500I250000J0D01*
G01*
X89245000Y-107662500D01*
G75*
G02*
X89495000Y-107912500I0J-250000D01*
G01*
X89495000Y-108587500D01*
G75*
G02*
X89245000Y-108837500I-250000J0D01*
G01*
G37*
G04 #@! TD.AperFunction*
G04 #@! TA.AperFunction,SMDPad,CuDef*
G36*
G01*
X89245000Y-110912500D02*
X88295000Y-110912500D01*
G75*
G02*
X88045000Y-110662500I0J250000D01*
G01*
X88045000Y-109987500D01*
G75*
G02*
X88295000Y-109737500I250000J0D01*
G01*
X89245000Y-109737500D01*
G75*
G02*
X89495000Y-109987500I0J-250000D01*
G01*
X89495000Y-110662500D01*
G75*
G02*
X89245000Y-110912500I-250000J0D01*
G01*
G37*
G04 #@! TD.AperFunction*
G04 #@! TA.AperFunction,SMDPad,CuDef*
G36*
G01*
X109950000Y-101805000D02*
X109950000Y-101495000D01*
G75*
G02*
X110105000Y-101340000I155000J0D01*
G01*
X110530000Y-101340000D01*
G75*
G02*
X110685000Y-101495000I0J-155000D01*
G01*
X110685000Y-101805000D01*
G75*
G02*
X110530000Y-101960000I-155000J0D01*
G01*
X110105000Y-101960000D01*
G75*
G02*
X109950000Y-101805000I0J155000D01*
G01*
G37*
G04 #@! TD.AperFunction*
G04 #@! TA.AperFunction,SMDPad,CuDef*
G36*
G01*
X108815000Y-101805000D02*
X108815000Y-101495000D01*
G75*
G02*
X108970000Y-101340000I155000J0D01*
G01*
X109395000Y-101340000D01*
G75*
G02*
X109550000Y-101495000I0J-155000D01*
G01*
X109550000Y-101805000D01*
G75*
G02*
X109395000Y-101960000I-155000J0D01*
G01*
X108970000Y-101960000D01*
G75*
G02*
X108815000Y-101805000I0J155000D01*
G01*
G37*
G04 #@! TD.AperFunction*
G04 #@! TA.AperFunction,SMDPad,CuDef*
G36*
G01*
X109950000Y-100705000D02*
X109950000Y-100395000D01*
G75*
G02*
X110105000Y-100240000I155000J0D01*
G01*
X110530000Y-100240000D01*
G75*
G02*
X110685000Y-100395000I0J-155000D01*
G01*
X110685000Y-100705000D01*
G75*
G02*
X110530000Y-100860000I-155000J0D01*
G01*
X110105000Y-100860000D01*
G75*
G02*
X109950000Y-100705000I0J155000D01*
G01*
G37*
G04 #@! TD.AperFunction*
G04 #@! TA.AperFunction,SMDPad,CuDef*
G36*
G01*
X108815000Y-100705000D02*
X108815000Y-100395000D01*
G75*
G02*
X108970000Y-100240000I155000J0D01*
G01*
X109395000Y-100240000D01*
G75*
G02*
X109550000Y-100395000I0J-155000D01*
G01*
X109550000Y-100705000D01*
G75*
G02*
X109395000Y-100860000I-155000J0D01*
G01*
X108970000Y-100860000D01*
G75*
G02*
X108815000Y-100705000I0J155000D01*
G01*
G37*
G04 #@! TD.AperFunction*
G04 #@! TA.AperFunction,SMDPad,CuDef*
G36*
G01*
X91460000Y-96360000D02*
X91140000Y-96360000D01*
G75*
G02*
X90980000Y-96200000I0J160000D01*
G01*
X90980000Y-95805000D01*
G75*
G02*
X91140000Y-95645000I160000J0D01*
G01*
X91460000Y-95645000D01*
G75*
G02*
X91620000Y-95805000I0J-160000D01*
G01*
X91620000Y-96200000D01*
G75*
G02*
X91460000Y-96360000I-160000J0D01*
G01*
G37*
G04 #@! TD.AperFunction*
G04 #@! TA.AperFunction,SMDPad,CuDef*
G36*
G01*
X91460000Y-97555000D02*
X91140000Y-97555000D01*
G75*
G02*
X90980000Y-97395000I0J160000D01*
G01*
X90980000Y-97000000D01*
G75*
G02*
X91140000Y-96840000I160000J0D01*
G01*
X91460000Y-96840000D01*
G75*
G02*
X91620000Y-97000000I0J-160000D01*
G01*
X91620000Y-97395000D01*
G75*
G02*
X91460000Y-97555000I-160000J0D01*
G01*
G37*
G04 #@! TD.AperFunction*
G04 #@! TA.AperFunction,SMDPad,CuDef*
G36*
G01*
X88862500Y-96250000D02*
X89337500Y-96250000D01*
G75*
G02*
X89575000Y-96487500I0J-237500D01*
G01*
X89575000Y-97062500D01*
G75*
G02*
X89337500Y-97300000I-237500J0D01*
G01*
X88862500Y-97300000D01*
G75*
G02*
X88625000Y-97062500I0J237500D01*
G01*
X88625000Y-96487500D01*
G75*
G02*
X88862500Y-96250000I237500J0D01*
G01*
G37*
G04 #@! TD.AperFunction*
G04 #@! TA.AperFunction,SMDPad,CuDef*
G36*
G01*
X88862500Y-94500000D02*
X89337500Y-94500000D01*
G75*
G02*
X89575000Y-94737500I0J-237500D01*
G01*
X89575000Y-95312500D01*
G75*
G02*
X89337500Y-95550000I-237500J0D01*
G01*
X88862500Y-95550000D01*
G75*
G02*
X88625000Y-95312500I0J237500D01*
G01*
X88625000Y-94737500D01*
G75*
G02*
X88862500Y-94500000I237500J0D01*
G01*
G37*
G04 #@! TD.AperFunction*
G04 #@! TA.AperFunction,SMDPad,CuDef*
G36*
G01*
X99000000Y-102245000D02*
X99000000Y-102555000D01*
G75*
G02*
X98845000Y-102710000I-155000J0D01*
G01*
X98420000Y-102710000D01*
G75*
G02*
X98265000Y-102555000I0J155000D01*
G01*
X98265000Y-102245000D01*
G75*
G02*
X98420000Y-102090000I155000J0D01*
G01*
X98845000Y-102090000D01*
G75*
G02*
X99000000Y-102245000I0J-155000D01*
G01*
G37*
G04 #@! TD.AperFunction*
G04 #@! TA.AperFunction,SMDPad,CuDef*
G36*
G01*
X100135000Y-102245000D02*
X100135000Y-102555000D01*
G75*
G02*
X99980000Y-102710000I-155000J0D01*
G01*
X99555000Y-102710000D01*
G75*
G02*
X99400000Y-102555000I0J155000D01*
G01*
X99400000Y-102245000D01*
G75*
G02*
X99555000Y-102090000I155000J0D01*
G01*
X99980000Y-102090000D01*
G75*
G02*
X100135000Y-102245000I0J-155000D01*
G01*
G37*
G04 #@! TD.AperFunction*
D21*
X103450000Y-113950000D03*
X89750000Y-110050000D03*
X89750000Y-111050000D03*
X95300000Y-111400000D03*
X94350000Y-111750000D03*
X114000000Y-114850000D03*
X90500000Y-102500000D03*
X117400000Y-112250000D03*
X117400000Y-110250000D03*
X106950000Y-110450000D03*
D22*
X84675000Y-104825000D03*
X85930000Y-107470000D03*
X84700000Y-106250000D03*
X84000000Y-103200000D03*
X101600000Y-100386000D03*
X101150000Y-100386000D03*
D21*
X100150000Y-110550000D03*
X80900000Y-111500000D03*
X81900000Y-111500000D03*
X81300000Y-102000000D03*
X105750000Y-100550000D03*
X91130000Y-107730000D03*
X93400000Y-104800000D03*
X95400000Y-106550000D03*
X93400000Y-106550000D03*
D22*
X94750000Y-102300000D03*
X95200000Y-102300000D03*
X95650000Y-102300000D03*
X96150000Y-102300000D03*
D21*
X95400000Y-104800000D03*
D22*
X92399500Y-111050500D03*
X93277750Y-110672250D03*
X92667250Y-110317250D03*
X101200000Y-97500000D03*
X95750000Y-109220000D03*
D21*
X103750000Y-101950000D03*
X90150000Y-108050000D03*
X90150000Y-109100000D03*
D22*
X108530000Y-99630000D03*
X108650000Y-100250000D03*
D21*
X109825000Y-109400000D03*
D22*
X114030000Y-103430000D03*
D21*
X113675000Y-102150000D03*
X116500000Y-96250000D03*
X113250000Y-96700000D03*
X112150000Y-96700000D03*
D22*
X108410000Y-101650000D03*
D21*
X99510000Y-103490000D03*
D22*
X90100000Y-104300000D03*
X100560000Y-97840000D03*
D21*
X107250000Y-97250000D03*
X81680000Y-105000000D03*
D22*
X91700000Y-103300000D03*
X91900000Y-98100000D03*
D21*
X104300000Y-98700000D03*
X105500000Y-97900000D03*
X106700000Y-102800000D03*
D22*
X92250000Y-103200000D03*
D21*
X113700000Y-109850000D03*
X114900000Y-109850000D03*
D22*
X108150000Y-103700000D03*
X103000000Y-111825000D03*
D21*
X101400000Y-113650000D03*
X109950000Y-97100000D03*
X115450000Y-97250000D03*
X82800000Y-96650000D03*
X84550000Y-95250000D03*
D22*
X113300000Y-106200000D03*
X85450000Y-106375000D03*
D21*
X117500000Y-102500000D03*
X117500000Y-104500000D03*
X96000000Y-97000000D03*
X92450000Y-95600000D03*
X90600000Y-96000000D03*
X95700000Y-95850000D03*
X94900000Y-96500000D03*
D22*
X92975000Y-98475000D03*
D21*
X91700000Y-102500000D03*
X100300000Y-102400000D03*
X84100000Y-96700000D03*
X93500000Y-114800000D03*
X96500000Y-114700000D03*
X106750000Y-112250000D03*
X105950000Y-98850000D03*
X106685000Y-98115000D03*
X112550000Y-108900000D03*
X109800000Y-102750000D03*
X99400000Y-114480000D03*
X108000000Y-114875000D03*
X84350000Y-97950000D03*
X114200000Y-97450000D03*
X111200000Y-97450000D03*
X85400000Y-94350000D03*
X80800000Y-104400000D03*
D22*
X102750000Y-112500000D03*
X112175000Y-113425000D03*
X90900000Y-104300000D03*
D21*
X83400000Y-104300000D03*
X85400000Y-105450000D03*
X86400000Y-106200000D03*
D23*
X94168000Y-109649500D02*
X93969500Y-109848000D01*
X94168000Y-108094500D02*
X94168000Y-109649500D01*
X103012000Y-97608000D02*
X103012000Y-96820500D01*
D24*
X94731500Y-110610000D02*
X93969500Y-109848000D01*
X88770000Y-110325000D02*
X88495000Y-110325000D01*
X88970000Y-110525000D02*
X88770000Y-110325000D01*
X88770000Y-110325000D02*
X88915000Y-110325000D01*
X94731500Y-110610000D02*
X94731500Y-110991000D01*
X89025000Y-110325000D02*
X89750000Y-111050000D01*
X88770000Y-110325000D02*
X89025000Y-110325000D01*
X89475000Y-110325000D02*
X89750000Y-110050000D01*
X88770000Y-110325000D02*
X89475000Y-110325000D01*
D23*
X90444574Y-110050000D02*
X89750000Y-110050000D01*
X92400074Y-108094500D02*
X90444574Y-110050000D01*
X92668000Y-108094500D02*
X92400074Y-108094500D01*
X102362000Y-97608000D02*
X102362000Y-96862000D01*
D24*
X94731500Y-111301000D02*
X94731500Y-110991000D01*
X94165490Y-111867010D02*
X94731500Y-111301000D01*
X90567010Y-111867010D02*
X94165490Y-111867010D01*
X89750000Y-111050000D02*
X90567010Y-111867010D01*
X95140500Y-111400000D02*
X94731500Y-110991000D01*
X95300000Y-111400000D02*
X95140500Y-111400000D01*
D23*
X94668000Y-110927500D02*
X94731500Y-110991000D01*
X94668000Y-108094500D02*
X94668000Y-110927500D01*
D24*
X94950000Y-111750000D02*
X95300000Y-111400000D01*
X94350000Y-111750000D02*
X94950000Y-111750000D01*
X103250000Y-113950000D02*
X103450000Y-113950000D01*
X102100999Y-112800999D02*
X103250000Y-113950000D01*
X100992479Y-112800999D02*
X102100999Y-112800999D01*
X100833968Y-112959510D02*
X100992479Y-112800999D01*
X95559510Y-112959510D02*
X100833968Y-112959510D01*
X94350000Y-111750000D02*
X95559510Y-112959510D01*
X103879500Y-96862000D02*
X104200000Y-97182500D01*
X102362000Y-96862000D02*
X103879500Y-96862000D01*
X111988479Y-114849001D02*
X113999001Y-114849001D01*
X110540477Y-113400999D02*
X111988479Y-114849001D01*
X113999001Y-114849001D02*
X114000000Y-114850000D01*
X106812489Y-114180989D02*
X107592479Y-113400999D01*
X103680989Y-114180989D02*
X106812489Y-114180989D01*
X107592479Y-113400999D02*
X110540477Y-113400999D01*
X103450000Y-113950000D02*
X103680989Y-114180989D01*
D23*
X94132500Y-98167500D02*
X94050000Y-98085000D01*
X95300000Y-98167500D02*
X94132500Y-98167500D01*
D24*
X95300000Y-99862500D02*
X94962500Y-100200000D01*
X95300000Y-98167500D02*
X95300000Y-99862500D01*
X100560453Y-96850999D02*
X102350999Y-96850999D01*
X99343952Y-98067500D02*
X100560453Y-96850999D01*
X102350999Y-96850999D02*
X102362000Y-96862000D01*
X95300000Y-98167500D02*
X99343952Y-98167500D01*
X90500000Y-102500000D02*
X90500000Y-101934315D01*
X90500000Y-101934315D02*
X90785305Y-101649010D01*
X93413490Y-101649010D02*
X94962500Y-100100000D01*
X90785305Y-101649010D02*
X93413490Y-101649010D01*
D23*
X93668000Y-109014500D02*
X92834500Y-109848000D01*
X93668000Y-108094500D02*
X93668000Y-109014500D01*
D24*
X101600000Y-100386000D02*
X101092000Y-100386000D01*
X101600000Y-100834500D02*
X101413500Y-101021000D01*
X101600000Y-100386000D02*
X101600000Y-100834500D01*
D23*
X95668000Y-104407000D02*
X94418000Y-105657000D01*
D24*
X93537000Y-111050500D02*
X93596500Y-110991000D01*
X91624000Y-111050500D02*
X92399500Y-111050500D01*
X91624000Y-111050500D02*
X91934000Y-111050500D01*
X93596500Y-110991000D02*
X93277750Y-110672250D01*
D23*
X101712000Y-97720500D02*
X101712000Y-97782999D01*
X95307000Y-104768000D02*
X95668000Y-104407000D01*
D24*
X107536500Y-102982000D02*
X107398500Y-102982000D01*
X105650000Y-101233500D02*
X105747500Y-101331000D01*
D23*
X95668000Y-106907000D02*
X94418000Y-105657000D01*
X91453000Y-107407000D02*
X91130000Y-107730000D01*
X91980500Y-107407000D02*
X91453000Y-107407000D01*
D24*
X91377990Y-107482010D02*
X91453000Y-107482010D01*
X91130000Y-107730000D02*
X91377990Y-107482010D01*
X99560500Y-111139500D02*
X100150000Y-110550000D01*
X99244000Y-111139500D02*
X99560500Y-111139500D01*
D23*
X101608000Y-97616500D02*
X101712000Y-97720500D01*
X95668000Y-102318000D02*
X95650000Y-102300000D01*
X95668000Y-103219500D02*
X95668000Y-102318000D01*
X95168000Y-104907000D02*
X94418000Y-105657000D01*
D24*
X92834500Y-110150000D02*
X92667250Y-110317250D01*
X92834500Y-109848000D02*
X92834500Y-110150000D01*
D23*
X101604000Y-97500000D02*
X101712000Y-97608000D01*
X101200000Y-97500000D02*
X101604000Y-97500000D01*
D24*
X106882000Y-102982000D02*
X106850000Y-102950000D01*
X107536500Y-102982000D02*
X106882000Y-102982000D01*
X108950000Y-100550000D02*
X108650000Y-100250000D01*
X109182500Y-100550000D02*
X108950000Y-100550000D01*
D23*
X96168000Y-103219500D02*
X96168000Y-102318000D01*
X96168000Y-102318000D02*
X96150000Y-102300000D01*
D24*
X109182500Y-101650000D02*
X108459010Y-101650000D01*
D23*
X95668000Y-109138000D02*
X95750000Y-109220000D01*
X95668000Y-108094500D02*
X95668000Y-109138000D01*
X97725500Y-104407000D02*
X98570000Y-103562500D01*
X96855500Y-104407000D02*
X97725500Y-104407000D01*
D24*
X99437500Y-103562500D02*
X99510000Y-103490000D01*
X98570000Y-103562500D02*
X99437500Y-103562500D01*
X100540000Y-97860000D02*
X100560000Y-97840000D01*
X100540000Y-98432500D02*
X100540000Y-97860000D01*
X101092000Y-100699500D02*
X101413500Y-101021000D01*
X101092000Y-100386000D02*
X101092000Y-100699500D01*
X105747500Y-100552500D02*
X105750000Y-100550000D01*
X105747500Y-101331000D02*
X105747500Y-100552500D01*
X108530000Y-100130000D02*
X108650000Y-100250000D01*
X108530000Y-99630000D02*
X108530000Y-100130000D01*
X89950000Y-108250000D02*
X90150000Y-108050000D01*
X88770000Y-108250000D02*
X89950000Y-108250000D01*
X89300000Y-108250000D02*
X90150000Y-109100000D01*
X88770000Y-108250000D02*
X89300000Y-108250000D01*
D23*
X92668000Y-103219500D02*
X93168000Y-103219500D01*
D24*
X107306000Y-110094000D02*
X106950000Y-110450000D01*
X107574000Y-110094000D02*
X107306000Y-110094000D01*
D23*
X92250000Y-103200000D02*
X92648500Y-103200000D01*
X92648500Y-103200000D02*
X92668000Y-103219500D01*
D24*
X113722000Y-109828000D02*
X113700000Y-109850000D01*
X113722000Y-109137500D02*
X113722000Y-109828000D01*
X114865000Y-109315000D02*
X114900000Y-109350000D01*
X114865000Y-109250000D02*
X114865000Y-109927500D01*
D23*
X91700000Y-103626500D02*
X91980500Y-103907000D01*
X91700000Y-103300000D02*
X91700000Y-103626500D01*
D24*
X94900000Y-95432500D02*
X94917500Y-95450000D01*
X82700000Y-96750000D02*
X82800000Y-96650000D01*
X81975000Y-96750000D02*
X82700000Y-96750000D01*
D23*
X95168000Y-102332000D02*
X95200000Y-102300000D01*
X95168000Y-103219500D02*
X95168000Y-102332000D01*
X94668000Y-102382000D02*
X94750000Y-102300000D01*
X94668000Y-103219500D02*
X94668000Y-102382000D01*
X94168000Y-102882000D02*
X94750000Y-102300000D01*
X94168000Y-103219500D02*
X94168000Y-102882000D01*
D24*
X117450000Y-103700000D02*
X117400000Y-103750000D01*
X104150000Y-98550000D02*
X104300000Y-98700000D01*
X104150000Y-98317500D02*
X104150000Y-98550000D01*
X117400000Y-111350000D02*
X117450000Y-111300000D01*
X117400000Y-112250000D02*
X117400000Y-111350000D01*
X117400000Y-111250000D02*
X117450000Y-111300000D01*
X117400000Y-110250000D02*
X117400000Y-111250000D01*
X117500000Y-103500000D02*
X117450000Y-103450000D01*
X117500000Y-104500000D02*
X117500000Y-103500000D01*
X117500000Y-103400000D02*
X117450000Y-103450000D01*
X117500000Y-102500000D02*
X117500000Y-103400000D01*
X95300000Y-97032500D02*
X95967500Y-97032500D01*
X95250000Y-95450000D02*
X95600000Y-95800000D01*
X94917500Y-95450000D02*
X95250000Y-95450000D01*
D23*
X94685000Y-96715000D02*
X94900000Y-96500000D01*
X94050000Y-96715000D02*
X94685000Y-96715000D01*
X91915000Y-98085000D02*
X91900000Y-98100000D01*
X92550000Y-98085000D02*
X91915000Y-98085000D01*
X93050000Y-98400000D02*
X92975000Y-98475000D01*
X93050000Y-98085000D02*
X93050000Y-98400000D01*
D24*
X99767500Y-102400000D02*
X100300000Y-102400000D01*
X107437500Y-111562500D02*
X106750000Y-112250000D01*
X107437500Y-111550000D02*
X107437500Y-111562500D01*
X91297500Y-96000000D02*
X91300000Y-96002500D01*
X90600000Y-96000000D02*
X91297500Y-96000000D01*
D23*
X92633202Y-95650000D02*
X93050000Y-96066798D01*
X93050000Y-96066798D02*
X93050000Y-96715000D01*
X92450000Y-95650000D02*
X92633202Y-95650000D01*
X92259010Y-109212990D02*
X91624000Y-109848000D01*
X92535032Y-109212990D02*
X92259010Y-109212990D01*
X93168000Y-108580022D02*
X92535032Y-109212990D01*
X93168000Y-108094500D02*
X93168000Y-108580022D01*
X97085000Y-111923000D02*
X96493000Y-111923000D01*
X95181510Y-108108010D02*
X95168000Y-108094500D01*
X95181510Y-110230510D02*
X95181510Y-108108010D01*
X96874000Y-111923000D02*
X95181510Y-110230510D01*
X97085000Y-111923000D02*
X96874000Y-111923000D01*
X96168000Y-108094500D02*
X96168000Y-108804000D01*
X97085000Y-109721000D02*
X97085000Y-109848000D01*
X96168000Y-108804000D02*
X96622000Y-109258000D01*
X96622000Y-109258000D02*
X97085000Y-109721000D01*
X99244000Y-109064500D02*
X99222500Y-109064500D01*
X97565000Y-107407000D02*
X96855500Y-107407000D01*
X99222500Y-109064500D02*
X97565000Y-107407000D01*
X97340500Y-103907000D02*
X96855500Y-103907000D01*
X97125500Y-103907000D02*
X98632500Y-102400000D01*
X96855500Y-103907000D02*
X97125500Y-103907000D01*
D24*
X102548500Y-101021000D02*
X102621000Y-101021000D01*
D23*
X103012000Y-100557500D02*
X102548500Y-101021000D01*
X103012000Y-99608000D02*
X103012000Y-100557500D01*
X102362000Y-100834500D02*
X102548500Y-101021000D01*
X102362000Y-99608000D02*
X102362000Y-100834500D01*
X98360500Y-104907000D02*
X98570000Y-104697500D01*
X96855500Y-104907000D02*
X98360500Y-104907000D01*
D24*
X100730000Y-103490000D02*
X99522500Y-104697500D01*
X99522500Y-104697500D02*
X98570000Y-104697500D01*
X102548500Y-101382626D02*
X102548500Y-101021000D01*
X100730000Y-103451126D02*
X102798500Y-101382626D01*
X100730000Y-103490000D02*
X100730000Y-103451126D01*
X105384315Y-98850000D02*
X104100000Y-100134315D01*
X105950000Y-98850000D02*
X105384315Y-98850000D01*
X104100000Y-100134315D02*
X104100000Y-100850000D01*
X103929000Y-101021000D02*
X102798500Y-101021000D01*
X104100000Y-100850000D02*
X103929000Y-101021000D01*
X106685000Y-98115000D02*
X105950000Y-98850000D01*
D23*
X93550000Y-95682500D02*
X93782500Y-95450000D01*
X93550000Y-96715000D02*
X93550000Y-95682500D01*
D24*
X93083499Y-94750999D02*
X93782500Y-95450000D01*
X92042479Y-94750999D02*
X93083499Y-94750999D01*
X91768478Y-95025000D02*
X92042479Y-94750999D01*
X89100000Y-95025000D02*
X91768478Y-95025000D01*
D23*
X101712000Y-99608000D02*
X100580500Y-99608000D01*
X113695500Y-107976000D02*
X113722000Y-108002500D01*
X112284000Y-107976000D02*
X113695500Y-107976000D01*
D24*
X113722000Y-108002500D02*
X114865000Y-108002500D01*
D23*
X113447500Y-108002500D02*
X112550000Y-108900000D01*
X113722000Y-108002500D02*
X113447500Y-108002500D01*
X112284000Y-108634000D02*
X112550000Y-108900000D01*
X112284000Y-107976000D02*
X112284000Y-108634000D01*
X110360500Y-100442000D02*
X110360500Y-101585000D01*
X110360500Y-103549500D02*
X110334000Y-103576000D01*
X110360500Y-101585000D02*
X110360500Y-103549500D01*
D24*
X110309999Y-103259999D02*
X110309999Y-103576000D01*
X109800000Y-102750000D02*
X110309999Y-103259999D01*
X110317500Y-102232500D02*
X110317500Y-101650000D01*
X109800000Y-102750000D02*
X110317500Y-102232500D01*
D23*
X105821500Y-103744000D02*
X105848000Y-103770500D01*
X104220500Y-103744000D02*
X105821500Y-103744000D01*
X106456500Y-104379000D02*
X105848000Y-103770500D01*
X107536500Y-104379000D02*
X106456500Y-104379000D01*
X106128500Y-105776000D02*
X105848000Y-105495500D01*
X107536500Y-105776000D02*
X106128500Y-105776000D01*
X104247000Y-105495500D02*
X104220500Y-105522000D01*
X105848000Y-105495500D02*
X104247000Y-105495500D01*
X108731500Y-102982000D02*
X108731500Y-104379000D01*
X110984000Y-104461002D02*
X110984000Y-103576000D01*
X110819001Y-104626001D02*
X110984000Y-104461002D01*
X108978501Y-104626001D02*
X110819001Y-104626001D01*
X108731500Y-104379000D02*
X108978501Y-104626001D01*
X107472500Y-101723000D02*
X108731500Y-102982000D01*
X107472500Y-100831000D02*
X107472500Y-101223000D01*
X112284000Y-103576000D02*
X112284000Y-103384000D01*
X112284000Y-102173500D02*
X112797500Y-101660000D01*
X112284000Y-103576000D02*
X112284000Y-102173500D01*
D24*
X113522500Y-100330000D02*
X113522500Y-100935000D01*
X113522500Y-100935000D02*
X112797500Y-101660000D01*
X117130000Y-100330000D02*
X117450000Y-100650000D01*
X113522500Y-100330000D02*
X117130000Y-100330000D01*
D23*
X111634000Y-104551000D02*
X111634000Y-103576000D01*
D24*
X111602500Y-100525000D02*
X111797500Y-100330000D01*
X111602500Y-101660000D02*
X111602500Y-100525000D01*
D23*
X111634000Y-101691500D02*
X111602500Y-101660000D01*
X111634000Y-103576000D02*
X111634000Y-101691500D01*
X111109989Y-105075011D02*
X111634000Y-104551000D01*
X109112489Y-105075011D02*
X111109989Y-105075011D01*
X108731500Y-105456000D02*
X109112489Y-105075011D01*
X108731500Y-105776000D02*
X108731500Y-105456000D01*
X105821500Y-109332000D02*
X105848000Y-109305500D01*
X104220500Y-109332000D02*
X105821500Y-109332000D01*
X106928000Y-109305500D02*
X107536500Y-108697000D01*
X105848000Y-109305500D02*
X106928000Y-109305500D01*
X105821500Y-107554000D02*
X105848000Y-107580500D01*
X104220500Y-107554000D02*
X105821500Y-107554000D01*
X106128500Y-107300000D02*
X105848000Y-107580500D01*
X107536500Y-107300000D02*
X106128500Y-107300000D01*
X108731500Y-110056500D02*
X108769000Y-110094000D01*
X108731500Y-108697000D02*
X108731500Y-110056500D01*
X108742500Y-110120500D02*
X108769000Y-110094000D01*
X109613000Y-108697000D02*
X110334000Y-107976000D01*
X108731500Y-108697000D02*
X109613000Y-108697000D01*
D24*
X109162500Y-110759022D02*
X108633239Y-110229761D01*
X109162500Y-111550000D02*
X109162500Y-110759022D01*
D23*
X112679500Y-110486000D02*
X112160500Y-109967000D01*
X112679500Y-111491000D02*
X112679500Y-110486000D01*
X111634000Y-109440500D02*
X112160500Y-109967000D01*
X111634000Y-107976000D02*
X111634000Y-109440500D01*
D24*
X115288500Y-114100000D02*
X112679500Y-111491000D01*
X117450000Y-114100000D02*
X115288500Y-114100000D01*
D23*
X110984000Y-107090998D02*
X110984000Y-107976000D01*
X110819001Y-106925999D02*
X110984000Y-107090998D01*
X109105501Y-106925999D02*
X110819001Y-106925999D01*
X108731500Y-107300000D02*
X109105501Y-106925999D01*
X110984000Y-109948500D02*
X110965500Y-109967000D01*
X110984000Y-107976000D02*
X110984000Y-109948500D01*
X110965500Y-111480000D02*
X110954500Y-111491000D01*
X110965500Y-109967000D02*
X110965500Y-111480000D01*
D24*
X99799999Y-114879999D02*
X107995001Y-114879999D01*
X107995001Y-114879999D02*
X108000000Y-114875000D01*
X99400000Y-114480000D02*
X99799999Y-114879999D01*
X81975000Y-97950000D02*
X84350000Y-97950000D01*
X87800000Y-96775000D02*
X89100000Y-96775000D01*
X86625000Y-97950000D02*
X87800000Y-96775000D01*
X84350000Y-97950000D02*
X86625000Y-97950000D01*
X98770999Y-113850999D02*
X99400000Y-114480000D01*
X89350999Y-113850999D02*
X98770999Y-113850999D01*
X87595990Y-112095990D02*
X89350999Y-113850999D01*
X87595990Y-110096512D02*
X87595990Y-112095990D01*
X82644955Y-105145477D02*
X87595990Y-110096512D01*
X82549999Y-105145477D02*
X82644955Y-105145477D01*
X82549999Y-103891999D02*
X82549999Y-105145477D01*
X82848011Y-103593987D02*
X82549999Y-103891999D01*
X82848011Y-98823011D02*
X82848011Y-103593987D01*
X81975000Y-97950000D02*
X82848011Y-98823011D01*
X82149001Y-99396131D02*
X81100990Y-98348120D01*
X82149001Y-103050999D02*
X82149001Y-99396131D01*
X83102870Y-94350000D02*
X85400000Y-94350000D01*
X82100000Y-103100000D02*
X82149001Y-103050999D01*
X81100990Y-98348120D02*
X81100990Y-96351880D01*
X81100990Y-96351880D02*
X83102870Y-94350000D01*
X82100000Y-103100000D02*
X80874999Y-104325001D01*
X111599999Y-97849999D02*
X113800001Y-97849999D01*
X113800001Y-97849999D02*
X114200000Y-97450000D01*
X111200000Y-97450000D02*
X111599999Y-97849999D01*
X107430990Y-95243092D02*
X107430990Y-94680990D01*
X107986908Y-95799010D02*
X107430990Y-95243092D01*
X110114695Y-95799010D02*
X107986908Y-95799010D01*
X111200000Y-96884315D02*
X110114695Y-95799010D01*
X111200000Y-97450000D02*
X111200000Y-96884315D01*
X85699010Y-94050990D02*
X85400000Y-94350000D01*
X106800990Y-94050990D02*
X85699010Y-94050990D01*
X107430990Y-94680990D02*
X106800990Y-94050990D01*
D23*
X93550000Y-99287500D02*
X93550000Y-98085000D01*
X92637500Y-100200000D02*
X93550000Y-99287500D01*
X106493021Y-113606979D02*
X107273010Y-112826990D01*
X104174001Y-113606979D02*
X106493021Y-113606979D01*
X111576990Y-112826990D02*
X112175000Y-113425000D01*
X107273010Y-112826990D02*
X111576990Y-112826990D01*
X103071522Y-112504500D02*
X104174001Y-113606979D01*
X103071522Y-112500000D02*
X103071522Y-112504500D01*
X102750000Y-112500000D02*
X103071522Y-112500000D01*
X92550000Y-96715000D02*
X92550000Y-96600000D01*
X92067500Y-97197500D02*
X92550000Y-96715000D01*
X91300000Y-97197500D02*
X92067500Y-97197500D01*
X89952479Y-103424001D02*
X89400000Y-102871522D01*
X90306843Y-103424001D02*
X89952479Y-103424001D01*
X90900000Y-104017158D02*
X90306843Y-103424001D01*
X90900000Y-104300000D02*
X90900000Y-104017158D01*
X91300000Y-97197500D02*
X89400000Y-99097500D01*
X89400000Y-99097500D02*
X89400000Y-102871522D01*
X96957990Y-105856010D02*
X102061490Y-105856010D01*
X96907000Y-105907000D02*
X96957990Y-105856010D01*
X102061490Y-105856010D02*
X102395500Y-105522000D01*
X96855500Y-105907000D02*
X96907000Y-105907000D01*
X100732500Y-105407000D02*
X102395500Y-103744000D01*
X96855500Y-105407000D02*
X100732500Y-105407000D01*
X101248500Y-106407000D02*
X102395500Y-107554000D01*
X96855500Y-106407000D02*
X101248500Y-106407000D01*
X99970500Y-106907000D02*
X102395500Y-109332000D01*
X96855500Y-106907000D02*
X99970500Y-106907000D01*
X85980002Y-104907000D02*
X91980500Y-104907000D01*
X85373003Y-104300001D02*
X85980002Y-104907000D01*
X83400000Y-104300000D02*
X85373003Y-104300001D01*
X91937500Y-105450000D02*
X91980500Y-105407000D01*
X85400000Y-105450000D02*
X91937500Y-105450000D01*
X87107000Y-106907000D02*
X86400000Y-106200000D01*
X91980500Y-106907000D02*
X87107000Y-106907000D01*
M02*
