M48
; DRILL file {KiCad (5.1.9)-1} date 04/01/21 13:05:21
; FORMAT={-:-/ absolute / metric / decimal}
; #@! TF.CreationDate,2021-04-01T13:05:21-07:00
; #@! TF.GenerationSoftware,Kicad,Pcbnew,(5.1.9)-1
FMAT,2
METRIC
T1C0.200
T2C0.400
T3C0.600
T4C0.700
T5C1.200
%
G90
G05
T1
X84.0Y-103.2
X84.675Y-104.825
X84.7Y-106.25
X85.45Y-106.375
X85.93Y-107.47
X90.1Y-104.3
X90.9Y-104.3
X91.7Y-103.3
X91.9Y-98.1
X92.25Y-103.2
X92.399Y-111.05
X92.667Y-110.317
X92.975Y-98.475
X93.278Y-110.672
X94.75Y-102.3
X95.2Y-102.3
X95.65Y-102.3
X95.75Y-109.22
X96.15Y-102.3
X100.56Y-97.84
X101.15Y-100.386
X101.2Y-97.5
X101.6Y-100.386
X101.812Y-98.608
X102.75Y-112.5
X102.912Y-98.608
X103.0Y-111.825
X108.15Y-103.7
X108.41Y-101.65
X108.53Y-99.63
X108.65Y-100.25
X110.67Y-105.96
X111.67Y-105.96
X112.175Y-113.425
X113.3Y-106.2
X114.03Y-103.43
T2
X80.8Y-104.4
X80.9Y-111.5
X81.3Y-102.0
X81.68Y-105.0
X81.9Y-111.5
X82.8Y-96.65
X83.4Y-104.3
X84.1Y-96.7
X84.35Y-97.95
X84.55Y-95.25
X85.4Y-94.35
X85.4Y-105.45
X86.4Y-106.2
X89.75Y-110.05
X89.75Y-111.05
X90.15Y-108.05
X90.15Y-109.1
X90.5Y-102.5
X90.6Y-96.0
X91.13Y-107.73
X91.7Y-102.5
X92.45Y-95.6
X93.4Y-104.8
X93.4Y-106.55
X93.5Y-114.8
X94.35Y-111.75
X94.9Y-96.5
X95.3Y-111.4
X95.4Y-104.8
X95.4Y-106.55
X95.7Y-95.85
X96.0Y-97.0
X96.5Y-114.7
X99.4Y-114.48
X99.51Y-103.49
X100.15Y-110.55
X100.3Y-102.4
X101.4Y-113.65
X103.45Y-113.95
X103.75Y-101.95
X104.3Y-98.7
X105.5Y-97.9
X105.75Y-100.55
X105.95Y-98.85
X106.685Y-98.115
X106.7Y-102.8
X106.75Y-112.25
X106.95Y-110.45
X107.25Y-97.25
X108.0Y-114.875
X109.8Y-102.75
X109.825Y-109.4
X109.95Y-97.1
X111.2Y-97.45
X112.15Y-96.7
X112.55Y-108.9
X113.25Y-96.7
X113.675Y-102.15
X113.7Y-109.85
X114.0Y-114.85
X114.2Y-97.45
X114.9Y-109.85
X115.45Y-97.25
X116.5Y-96.25
X117.4Y-110.25
X117.4Y-112.25
X117.5Y-102.5
X117.5Y-104.5
T4
X81.0Y-106.5
X82.5Y-107.75
X84.0Y-109.0
X85.5Y-110.25
T5
X104.84Y-111.55
X105.85Y-95.9
T3
G00X108.38Y-94.25
M15
G01X108.38Y-94.85
M16
G05
G00X108.38Y-98.05
M15
G01X108.38Y-98.65
M16
G05
G00X117.02Y-94.25
M15
G01X117.02Y-94.85
M16
G05
G00X117.02Y-98.05
M15
G01X117.02Y-98.65
M16
G05
T0
M30
