G04 #@! TF.GenerationSoftware,KiCad,Pcbnew,(5.1.9)-1*
G04 #@! TF.CreationDate,2021-04-01T13:05:19-07:00*
G04 #@! TF.ProjectId,rgba,72676261-2e6b-4696-9361-645f70636258,1.1*
G04 #@! TF.SameCoordinates,Original*
G04 #@! TF.FileFunction,Legend,Top*
G04 #@! TF.FilePolarity,Positive*
%FSLAX46Y46*%
G04 Gerber Fmt 4.6, Leading zero omitted, Abs format (unit mm)*
G04 Created by KiCad (PCBNEW (5.1.9)-1) date 2021-04-01 13:05:19*
%MOMM*%
%LPD*%
G01*
G04 APERTURE LIST*
%ADD10C,0.200000*%
%ADD11C,0.153000*%
%ADD12C,0.500000*%
%ADD13C,0.300000*%
%ADD14C,0.120000*%
%ADD15C,0.240000*%
%ADD16C,0.127000*%
G04 APERTURE END LIST*
D10*
X87936666Y-113470714D02*
X87936666Y-114280238D01*
X87889047Y-114375476D01*
X87841428Y-114423095D01*
X87746190Y-114470714D01*
X87603333Y-114470714D01*
X87508095Y-114423095D01*
X87936666Y-114089761D02*
X87841428Y-114137380D01*
X87650952Y-114137380D01*
X87555714Y-114089761D01*
X87508095Y-114042142D01*
X87460476Y-113946904D01*
X87460476Y-113661190D01*
X87508095Y-113565952D01*
X87555714Y-113518333D01*
X87650952Y-113470714D01*
X87841428Y-113470714D01*
X87936666Y-113518333D01*
X88412857Y-114137380D02*
X88412857Y-113470714D01*
X88412857Y-113661190D02*
X88460476Y-113565952D01*
X88508095Y-113518333D01*
X88603333Y-113470714D01*
X88698571Y-113470714D01*
X89460476Y-114137380D02*
X89460476Y-113613571D01*
X89412857Y-113518333D01*
X89317619Y-113470714D01*
X89127142Y-113470714D01*
X89031904Y-113518333D01*
X89460476Y-114089761D02*
X89365238Y-114137380D01*
X89127142Y-114137380D01*
X89031904Y-114089761D01*
X88984285Y-113994523D01*
X88984285Y-113899285D01*
X89031904Y-113804047D01*
X89127142Y-113756428D01*
X89365238Y-113756428D01*
X89460476Y-113708809D01*
X89841428Y-113470714D02*
X90079523Y-114137380D01*
X90317619Y-113470714D02*
X90079523Y-114137380D01*
X89984285Y-114375476D01*
X89936666Y-114423095D01*
X89841428Y-114470714D01*
X91603333Y-114137380D02*
X91508095Y-114089761D01*
X91460476Y-114042142D01*
X91412857Y-113946904D01*
X91412857Y-113661190D01*
X91460476Y-113565952D01*
X91508095Y-113518333D01*
X91603333Y-113470714D01*
X91746190Y-113470714D01*
X91841428Y-113518333D01*
X91889047Y-113565952D01*
X91936666Y-113661190D01*
X91936666Y-113946904D01*
X91889047Y-114042142D01*
X91841428Y-114089761D01*
X91746190Y-114137380D01*
X91603333Y-114137380D01*
X92508095Y-114137380D02*
X92412857Y-114089761D01*
X92365238Y-113994523D01*
X92365238Y-113137380D01*
X92841428Y-114089761D02*
X92936666Y-114137380D01*
X93127142Y-114137380D01*
X93222380Y-114089761D01*
X93270000Y-113994523D01*
X93270000Y-113946904D01*
X93222380Y-113851666D01*
X93127142Y-113804047D01*
X92984285Y-113804047D01*
X92889047Y-113756428D01*
X92841428Y-113661190D01*
X92841428Y-113613571D01*
X92889047Y-113518333D01*
X92984285Y-113470714D01*
X93127142Y-113470714D01*
X93222380Y-113518333D01*
X93841428Y-114137380D02*
X93746190Y-114089761D01*
X93698571Y-114042142D01*
X93650952Y-113946904D01*
X93650952Y-113661190D01*
X93698571Y-113565952D01*
X93746190Y-113518333D01*
X93841428Y-113470714D01*
X93984285Y-113470714D01*
X94079523Y-113518333D01*
X94127142Y-113565952D01*
X94174761Y-113661190D01*
X94174761Y-113946904D01*
X94127142Y-114042142D01*
X94079523Y-114089761D01*
X93984285Y-114137380D01*
X93841428Y-114137380D01*
X94603333Y-113470714D02*
X94603333Y-114137380D01*
X94603333Y-113565952D02*
X94650952Y-113518333D01*
X94746190Y-113470714D01*
X94889047Y-113470714D01*
X94984285Y-113518333D01*
X95031904Y-113613571D01*
X95031904Y-114137380D01*
D11*
X87772783Y-112796904D02*
X87772783Y-111996904D01*
X87772783Y-112758809D02*
X87696592Y-112796904D01*
X87544211Y-112796904D01*
X87468021Y-112758809D01*
X87429926Y-112720714D01*
X87391830Y-112644523D01*
X87391830Y-112415952D01*
X87429926Y-112339761D01*
X87468021Y-112301666D01*
X87544211Y-112263571D01*
X87696592Y-112263571D01*
X87772783Y-112301666D01*
X88458497Y-112758809D02*
X88382307Y-112796904D01*
X88229926Y-112796904D01*
X88153735Y-112758809D01*
X88115640Y-112682619D01*
X88115640Y-112377857D01*
X88153735Y-112301666D01*
X88229926Y-112263571D01*
X88382307Y-112263571D01*
X88458497Y-112301666D01*
X88496592Y-112377857D01*
X88496592Y-112454047D01*
X88115640Y-112530238D01*
X88801354Y-112758809D02*
X88877545Y-112796904D01*
X89029926Y-112796904D01*
X89106116Y-112758809D01*
X89144211Y-112682619D01*
X89144211Y-112644523D01*
X89106116Y-112568333D01*
X89029926Y-112530238D01*
X88915640Y-112530238D01*
X88839450Y-112492142D01*
X88801354Y-112415952D01*
X88801354Y-112377857D01*
X88839450Y-112301666D01*
X88915640Y-112263571D01*
X89029926Y-112263571D01*
X89106116Y-112301666D01*
X89487069Y-112796904D02*
X89487069Y-112263571D01*
X89487069Y-111996904D02*
X89448973Y-112035000D01*
X89487069Y-112073095D01*
X89525164Y-112035000D01*
X89487069Y-111996904D01*
X89487069Y-112073095D01*
X90210878Y-112263571D02*
X90210878Y-112911190D01*
X90172783Y-112987380D01*
X90134688Y-113025476D01*
X90058497Y-113063571D01*
X89944211Y-113063571D01*
X89868021Y-113025476D01*
X90210878Y-112758809D02*
X90134688Y-112796904D01*
X89982307Y-112796904D01*
X89906116Y-112758809D01*
X89868021Y-112720714D01*
X89829926Y-112644523D01*
X89829926Y-112415952D01*
X89868021Y-112339761D01*
X89906116Y-112301666D01*
X89982307Y-112263571D01*
X90134688Y-112263571D01*
X90210878Y-112301666D01*
X90591830Y-112263571D02*
X90591830Y-112796904D01*
X90591830Y-112339761D02*
X90629926Y-112301666D01*
X90706116Y-112263571D01*
X90820402Y-112263571D01*
X90896592Y-112301666D01*
X90934688Y-112377857D01*
X90934688Y-112796904D01*
X91620402Y-112758809D02*
X91544211Y-112796904D01*
X91391830Y-112796904D01*
X91315640Y-112758809D01*
X91277545Y-112682619D01*
X91277545Y-112377857D01*
X91315640Y-112301666D01*
X91391830Y-112263571D01*
X91544211Y-112263571D01*
X91620402Y-112301666D01*
X91658497Y-112377857D01*
X91658497Y-112454047D01*
X91277545Y-112530238D01*
X92344211Y-112796904D02*
X92344211Y-111996904D01*
X92344211Y-112758809D02*
X92268021Y-112796904D01*
X92115640Y-112796904D01*
X92039450Y-112758809D01*
X92001354Y-112720714D01*
X91963259Y-112644523D01*
X91963259Y-112415952D01*
X92001354Y-112339761D01*
X92039450Y-112301666D01*
X92115640Y-112263571D01*
X92268021Y-112263571D01*
X92344211Y-112301666D01*
X93334688Y-112796904D02*
X93334688Y-111996904D01*
X93334688Y-112301666D02*
X93410878Y-112263571D01*
X93563259Y-112263571D01*
X93639450Y-112301666D01*
X93677545Y-112339761D01*
X93715640Y-112415952D01*
X93715640Y-112644523D01*
X93677545Y-112720714D01*
X93639450Y-112758809D01*
X93563259Y-112796904D01*
X93410878Y-112796904D01*
X93334688Y-112758809D01*
X93982307Y-112263571D02*
X94172783Y-112796904D01*
X94363259Y-112263571D02*
X94172783Y-112796904D01*
X94096592Y-112987380D01*
X94058497Y-113025476D01*
X93982307Y-113063571D01*
X81513095Y-113986904D02*
X81513095Y-113453571D01*
X81513095Y-113605952D02*
X81551190Y-113529761D01*
X81589285Y-113491666D01*
X81665476Y-113453571D01*
X81741666Y-113453571D01*
X82313095Y-113948809D02*
X82236904Y-113986904D01*
X82084523Y-113986904D01*
X82008333Y-113948809D01*
X81970238Y-113872619D01*
X81970238Y-113567857D01*
X82008333Y-113491666D01*
X82084523Y-113453571D01*
X82236904Y-113453571D01*
X82313095Y-113491666D01*
X82351190Y-113567857D01*
X82351190Y-113644047D01*
X81970238Y-113720238D01*
X82617857Y-113453571D02*
X82808333Y-113986904D01*
X82998809Y-113453571D01*
X84332142Y-113986904D02*
X83875000Y-113986904D01*
X84103571Y-113986904D02*
X84103571Y-113186904D01*
X84027380Y-113301190D01*
X83951190Y-113377380D01*
X83875000Y-113415476D01*
X84675000Y-113910714D02*
X84713095Y-113948809D01*
X84675000Y-113986904D01*
X84636904Y-113948809D01*
X84675000Y-113910714D01*
X84675000Y-113986904D01*
X85475000Y-113986904D02*
X85017857Y-113986904D01*
X85246428Y-113986904D02*
X85246428Y-113186904D01*
X85170238Y-113301190D01*
X85094047Y-113377380D01*
X85017857Y-113415476D01*
X81828571Y-105661904D02*
X81828571Y-104861904D01*
X81828571Y-105166666D02*
X81904761Y-105128571D01*
X82057142Y-105128571D01*
X82133333Y-105166666D01*
X82171428Y-105204761D01*
X82209523Y-105280952D01*
X82209523Y-105509523D01*
X82171428Y-105585714D01*
X82133333Y-105623809D01*
X82057142Y-105661904D01*
X81904761Y-105661904D01*
X81828571Y-105623809D01*
X82666666Y-105661904D02*
X82590476Y-105623809D01*
X82552380Y-105547619D01*
X82552380Y-104861904D01*
X83314285Y-105128571D02*
X83314285Y-105661904D01*
X82971428Y-105128571D02*
X82971428Y-105547619D01*
X83009523Y-105623809D01*
X83085714Y-105661904D01*
X83200000Y-105661904D01*
X83276190Y-105623809D01*
X83314285Y-105585714D01*
X84000000Y-105623809D02*
X83923809Y-105661904D01*
X83771428Y-105661904D01*
X83695238Y-105623809D01*
X83657142Y-105547619D01*
X83657142Y-105242857D01*
X83695238Y-105166666D01*
X83771428Y-105128571D01*
X83923809Y-105128571D01*
X84000000Y-105166666D01*
X84038095Y-105242857D01*
X84038095Y-105319047D01*
X83657142Y-105395238D01*
X84266666Y-105128571D02*
X84571428Y-105128571D01*
X84380952Y-104861904D02*
X84380952Y-105547619D01*
X84419047Y-105623809D01*
X84495238Y-105661904D01*
X84571428Y-105661904D01*
X84952380Y-105661904D02*
X84876190Y-105623809D01*
X84838095Y-105585714D01*
X84800000Y-105509523D01*
X84800000Y-105280952D01*
X84838095Y-105204761D01*
X84876190Y-105166666D01*
X84952380Y-105128571D01*
X85066666Y-105128571D01*
X85142857Y-105166666D01*
X85180952Y-105204761D01*
X85219047Y-105280952D01*
X85219047Y-105509523D01*
X85180952Y-105585714D01*
X85142857Y-105623809D01*
X85066666Y-105661904D01*
X84952380Y-105661904D01*
X85676190Y-105661904D02*
X85600000Y-105623809D01*
X85561904Y-105585714D01*
X85523809Y-105509523D01*
X85523809Y-105280952D01*
X85561904Y-105204761D01*
X85600000Y-105166666D01*
X85676190Y-105128571D01*
X85790476Y-105128571D01*
X85866666Y-105166666D01*
X85904761Y-105204761D01*
X85942857Y-105280952D01*
X85942857Y-105509523D01*
X85904761Y-105585714D01*
X85866666Y-105623809D01*
X85790476Y-105661904D01*
X85676190Y-105661904D01*
X86171428Y-105128571D02*
X86476190Y-105128571D01*
X86285714Y-104861904D02*
X86285714Y-105547619D01*
X86323809Y-105623809D01*
X86400000Y-105661904D01*
X86476190Y-105661904D01*
X86742857Y-105661904D02*
X86742857Y-104861904D01*
X87085714Y-105661904D02*
X87085714Y-105242857D01*
X87047619Y-105166666D01*
X86971428Y-105128571D01*
X86857142Y-105128571D01*
X86780952Y-105166666D01*
X86742857Y-105204761D01*
X88419047Y-105661904D02*
X88419047Y-105242857D01*
X88380952Y-105166666D01*
X88304761Y-105128571D01*
X88152380Y-105128571D01*
X88076190Y-105166666D01*
X88419047Y-105623809D02*
X88342857Y-105661904D01*
X88152380Y-105661904D01*
X88076190Y-105623809D01*
X88038095Y-105547619D01*
X88038095Y-105471428D01*
X88076190Y-105395238D01*
X88152380Y-105357142D01*
X88342857Y-105357142D01*
X88419047Y-105319047D01*
X89142857Y-105128571D02*
X89142857Y-105661904D01*
X88800000Y-105128571D02*
X88800000Y-105547619D01*
X88838095Y-105623809D01*
X88914285Y-105661904D01*
X89028571Y-105661904D01*
X89104761Y-105623809D01*
X89142857Y-105585714D01*
X89866666Y-105661904D02*
X89866666Y-104861904D01*
X89866666Y-105623809D02*
X89790476Y-105661904D01*
X89638095Y-105661904D01*
X89561904Y-105623809D01*
X89523809Y-105585714D01*
X89485714Y-105509523D01*
X89485714Y-105280952D01*
X89523809Y-105204761D01*
X89561904Y-105166666D01*
X89638095Y-105128571D01*
X89790476Y-105128571D01*
X89866666Y-105166666D01*
X90247619Y-105661904D02*
X90247619Y-105128571D01*
X90247619Y-104861904D02*
X90209523Y-104900000D01*
X90247619Y-104938095D01*
X90285714Y-104900000D01*
X90247619Y-104861904D01*
X90247619Y-104938095D01*
X90742857Y-105661904D02*
X90666666Y-105623809D01*
X90628571Y-105585714D01*
X90590476Y-105509523D01*
X90590476Y-105280952D01*
X90628571Y-105204761D01*
X90666666Y-105166666D01*
X90742857Y-105128571D01*
X90857142Y-105128571D01*
X90933333Y-105166666D01*
X90971428Y-105204761D01*
X91009523Y-105280952D01*
X91009523Y-105509523D01*
X90971428Y-105585714D01*
X90933333Y-105623809D01*
X90857142Y-105661904D01*
X90742857Y-105661904D01*
X81350000Y-104411904D02*
X81350000Y-103878571D01*
X81350000Y-104030952D02*
X81388095Y-103954761D01*
X81426190Y-103916666D01*
X81502380Y-103878571D01*
X81578571Y-103878571D01*
X82150000Y-104373809D02*
X82073809Y-104411904D01*
X81921428Y-104411904D01*
X81845238Y-104373809D01*
X81807142Y-104297619D01*
X81807142Y-103992857D01*
X81845238Y-103916666D01*
X81921428Y-103878571D01*
X82073809Y-103878571D01*
X82150000Y-103916666D01*
X82188095Y-103992857D01*
X82188095Y-104069047D01*
X81807142Y-104145238D01*
X82873809Y-104411904D02*
X82873809Y-103992857D01*
X82835714Y-103916666D01*
X82759523Y-103878571D01*
X82607142Y-103878571D01*
X82530952Y-103916666D01*
X82873809Y-104373809D02*
X82797619Y-104411904D01*
X82607142Y-104411904D01*
X82530952Y-104373809D01*
X82492857Y-104297619D01*
X82492857Y-104221428D01*
X82530952Y-104145238D01*
X82607142Y-104107142D01*
X82797619Y-104107142D01*
X82873809Y-104069047D01*
X83216666Y-104373809D02*
X83292857Y-104411904D01*
X83445238Y-104411904D01*
X83521428Y-104373809D01*
X83559523Y-104297619D01*
X83559523Y-104259523D01*
X83521428Y-104183333D01*
X83445238Y-104145238D01*
X83330952Y-104145238D01*
X83254761Y-104107142D01*
X83216666Y-104030952D01*
X83216666Y-103992857D01*
X83254761Y-103916666D01*
X83330952Y-103878571D01*
X83445238Y-103878571D01*
X83521428Y-103916666D01*
X84016666Y-104411904D02*
X83940476Y-104373809D01*
X83902380Y-104335714D01*
X83864285Y-104259523D01*
X83864285Y-104030952D01*
X83902380Y-103954761D01*
X83940476Y-103916666D01*
X84016666Y-103878571D01*
X84130952Y-103878571D01*
X84207142Y-103916666D01*
X84245238Y-103954761D01*
X84283333Y-104030952D01*
X84283333Y-104259523D01*
X84245238Y-104335714D01*
X84207142Y-104373809D01*
X84130952Y-104411904D01*
X84016666Y-104411904D01*
X84626190Y-103878571D02*
X84626190Y-104411904D01*
X84626190Y-103954761D02*
X84664285Y-103916666D01*
X84740476Y-103878571D01*
X84854761Y-103878571D01*
X84930952Y-103916666D01*
X84969047Y-103992857D01*
X84969047Y-104411904D01*
X85692857Y-104411904D02*
X85692857Y-103992857D01*
X85654761Y-103916666D01*
X85578571Y-103878571D01*
X85426190Y-103878571D01*
X85350000Y-103916666D01*
X85692857Y-104373809D02*
X85616666Y-104411904D01*
X85426190Y-104411904D01*
X85350000Y-104373809D01*
X85311904Y-104297619D01*
X85311904Y-104221428D01*
X85350000Y-104145238D01*
X85426190Y-104107142D01*
X85616666Y-104107142D01*
X85692857Y-104069047D01*
X86073809Y-104411904D02*
X86073809Y-103611904D01*
X86073809Y-103916666D02*
X86150000Y-103878571D01*
X86302380Y-103878571D01*
X86378571Y-103916666D01*
X86416666Y-103954761D01*
X86454761Y-104030952D01*
X86454761Y-104259523D01*
X86416666Y-104335714D01*
X86378571Y-104373809D01*
X86302380Y-104411904D01*
X86150000Y-104411904D01*
X86073809Y-104373809D01*
X86911904Y-104411904D02*
X86835714Y-104373809D01*
X86797619Y-104297619D01*
X86797619Y-103611904D01*
X87140476Y-103878571D02*
X87330952Y-104411904D01*
X87521428Y-103878571D02*
X87330952Y-104411904D01*
X87254761Y-104602380D01*
X87216666Y-104640476D01*
X87140476Y-104678571D01*
X88778571Y-103878571D02*
X88778571Y-104526190D01*
X88740476Y-104602380D01*
X88702380Y-104640476D01*
X88626190Y-104678571D01*
X88511904Y-104678571D01*
X88435714Y-104640476D01*
X88778571Y-104373809D02*
X88702380Y-104411904D01*
X88550000Y-104411904D01*
X88473809Y-104373809D01*
X88435714Y-104335714D01*
X88397619Y-104259523D01*
X88397619Y-104030952D01*
X88435714Y-103954761D01*
X88473809Y-103916666D01*
X88550000Y-103878571D01*
X88702380Y-103878571D01*
X88778571Y-103916666D01*
X89273809Y-104411904D02*
X89197619Y-104373809D01*
X89159523Y-104335714D01*
X89121428Y-104259523D01*
X89121428Y-104030952D01*
X89159523Y-103954761D01*
X89197619Y-103916666D01*
X89273809Y-103878571D01*
X89388095Y-103878571D01*
X89464285Y-103916666D01*
X89502380Y-103954761D01*
X89540476Y-104030952D01*
X89540476Y-104259523D01*
X89502380Y-104335714D01*
X89464285Y-104373809D01*
X89388095Y-104411904D01*
X89273809Y-104411904D01*
X89997619Y-104411904D02*
X89921428Y-104373809D01*
X89883333Y-104335714D01*
X89845238Y-104259523D01*
X89845238Y-104030952D01*
X89883333Y-103954761D01*
X89921428Y-103916666D01*
X89997619Y-103878571D01*
X90111904Y-103878571D01*
X90188095Y-103916666D01*
X90226190Y-103954761D01*
X90264285Y-104030952D01*
X90264285Y-104259523D01*
X90226190Y-104335714D01*
X90188095Y-104373809D01*
X90111904Y-104411904D01*
X89997619Y-104411904D01*
X90950000Y-104411904D02*
X90950000Y-103611904D01*
X90950000Y-104373809D02*
X90873809Y-104411904D01*
X90721428Y-104411904D01*
X90645238Y-104373809D01*
X90607142Y-104335714D01*
X90569047Y-104259523D01*
X90569047Y-104030952D01*
X90607142Y-103954761D01*
X90645238Y-103916666D01*
X90721428Y-103878571D01*
X90873809Y-103878571D01*
X90950000Y-103916666D01*
D12*
X82214285Y-102407142D02*
X82214285Y-100407142D01*
X82214285Y-100978571D02*
X82357142Y-100692857D01*
X82500000Y-100550000D01*
X82785714Y-100407142D01*
X83071428Y-100407142D01*
X85357142Y-100407142D02*
X85357142Y-102835714D01*
X85214285Y-103121428D01*
X85071428Y-103264285D01*
X84785714Y-103407142D01*
X84357142Y-103407142D01*
X84071428Y-103264285D01*
X85357142Y-102264285D02*
X85071428Y-102407142D01*
X84500000Y-102407142D01*
X84214285Y-102264285D01*
X84071428Y-102121428D01*
X83928571Y-101835714D01*
X83928571Y-100978571D01*
X84071428Y-100692857D01*
X84214285Y-100550000D01*
X84500000Y-100407142D01*
X85071428Y-100407142D01*
X85357142Y-100550000D01*
X86785714Y-102407142D02*
X86785714Y-99407142D01*
X86785714Y-100550000D02*
X87071428Y-100407142D01*
X87642857Y-100407142D01*
X87928571Y-100550000D01*
X88071428Y-100692857D01*
X88214285Y-100978571D01*
X88214285Y-101835714D01*
X88071428Y-102121428D01*
X87928571Y-102264285D01*
X87642857Y-102407142D01*
X87071428Y-102407142D01*
X86785714Y-102264285D01*
X90785714Y-102407142D02*
X90785714Y-100835714D01*
X90642857Y-100550000D01*
X90357142Y-100407142D01*
X89785714Y-100407142D01*
X89500000Y-100550000D01*
X90785714Y-102264285D02*
X90500000Y-102407142D01*
X89785714Y-102407142D01*
X89500000Y-102264285D01*
X89357142Y-101978571D01*
X89357142Y-101692857D01*
X89500000Y-101407142D01*
X89785714Y-101264285D01*
X90500000Y-101264285D01*
X90785714Y-101121428D01*
D13*
X115178571Y-100935714D02*
X114464285Y-101435714D01*
X115178571Y-101792857D02*
X113678571Y-101792857D01*
X113678571Y-101221428D01*
X113750000Y-101078571D01*
X113821428Y-101007142D01*
X113964285Y-100935714D01*
X114178571Y-100935714D01*
X114321428Y-101007142D01*
X114392857Y-101078571D01*
X114464285Y-101221428D01*
X114464285Y-101792857D01*
X114778571Y-112395714D02*
X114778571Y-113110000D01*
X113278571Y-113110000D01*
X115007142Y-106678571D02*
X115078571Y-106464285D01*
X115078571Y-106107142D01*
X115007142Y-105964285D01*
X114935714Y-105892857D01*
X114792857Y-105821428D01*
X114650000Y-105821428D01*
X114507142Y-105892857D01*
X114435714Y-105964285D01*
X114364285Y-106107142D01*
X114292857Y-106392857D01*
X114221428Y-106535714D01*
X114150000Y-106607142D01*
X114007142Y-106678571D01*
X113864285Y-106678571D01*
X113721428Y-106607142D01*
X113650000Y-106535714D01*
X113578571Y-106392857D01*
X113578571Y-106035714D01*
X113650000Y-105821428D01*
X115207142Y-103471428D02*
X115207142Y-102328571D01*
X115207142Y-100121428D02*
X115207142Y-98978571D01*
X115778571Y-99550000D02*
X114635714Y-99550000D01*
X115207142Y-111871428D02*
X115207142Y-110728571D01*
X115207142Y-114671428D02*
X115207142Y-113528571D01*
X115778571Y-114100000D02*
X114635714Y-114100000D01*
D10*
X83119047Y-110861904D02*
X83119047Y-110328571D01*
X83119047Y-110480952D02*
X83157142Y-110404761D01*
X83195238Y-110366666D01*
X83271428Y-110328571D01*
X83347619Y-110328571D01*
X83538095Y-110861904D02*
X83957142Y-110328571D01*
X83538095Y-110328571D02*
X83957142Y-110861904D01*
X81523809Y-109078571D02*
X81828571Y-109078571D01*
X81638095Y-108811904D02*
X81638095Y-109497619D01*
X81676190Y-109573809D01*
X81752380Y-109611904D01*
X81828571Y-109611904D01*
X82019047Y-109611904D02*
X82438095Y-109078571D01*
X82019047Y-109078571D02*
X82438095Y-109611904D01*
X84685238Y-111587142D02*
X85294761Y-111587142D01*
X80195238Y-108057142D02*
X80804761Y-108057142D01*
X80500000Y-108361904D02*
X80500000Y-107752380D01*
D14*
X84950000Y-109000000D02*
G75*
G03*
X84950000Y-109000000I-950000J0D01*
G01*
X81950000Y-106500000D02*
G75*
G03*
X81950000Y-106500000I-950000J0D01*
G01*
X83450000Y-107750000D02*
G75*
G03*
X83450000Y-107750000I-950000J0D01*
G01*
X86450000Y-110250000D02*
G75*
G03*
X86450000Y-110250000I-950000J0D01*
G01*
X93538748Y-101210000D02*
X94061252Y-101210000D01*
X93538748Y-98990000D02*
X94061252Y-98990000D01*
X112959000Y-106776000D02*
X112959000Y-104776000D01*
D15*
X113109000Y-103676000D02*
G75*
G03*
X113109000Y-103676000I-100000J0D01*
G01*
D14*
X109689000Y-106776000D02*
X109689000Y-104776000D01*
D10*
X103637000Y-97608000D02*
G75*
G03*
X103637000Y-97608000I-100000J0D01*
G01*
D14*
X101252000Y-97608000D02*
X101252000Y-99608000D01*
X103472000Y-98608000D02*
X103472000Y-99608000D01*
D10*
X92008139Y-108157000D02*
G75*
G03*
X92008139Y-108157000I-90139J0D01*
G01*
D14*
X91808000Y-103522000D02*
X91808000Y-103047000D01*
X91808000Y-103047000D02*
X92283000Y-103047000D01*
X97028000Y-107792000D02*
X97028000Y-108267000D01*
X97028000Y-108267000D02*
X96553000Y-108267000D01*
X97028000Y-103522000D02*
X97028000Y-103047000D01*
X97028000Y-103047000D02*
X96553000Y-103047000D01*
D16*
X92095000Y-96550000D02*
X92095000Y-98150000D01*
X94505000Y-96550000D02*
X94505000Y-98150000D01*
D10*
X94650000Y-96105000D02*
G75*
G03*
X94650000Y-96105000I-100000J0D01*
G01*
D14*
X80696447Y-97700000D02*
X80696447Y-98200000D01*
X81050000Y-97950000D02*
X80696447Y-97700000D01*
X80696447Y-98200000D02*
X81050000Y-97950000D01*
X86260000Y-96560000D02*
X86260000Y-96210000D01*
X85760000Y-96960000D02*
X86260000Y-96560000D01*
X85760000Y-97740000D02*
X85760000Y-96960000D01*
X86260000Y-98140000D02*
X85760000Y-97740000D01*
X86260000Y-98490000D02*
X86260000Y-98140000D01*
X81740000Y-95140000D02*
X81740000Y-96190000D01*
X85090000Y-95140000D02*
X81740000Y-95140000D01*
X81740000Y-98510000D02*
X81550000Y-98510000D01*
X81740000Y-99560000D02*
X81740000Y-98510000D01*
X85090000Y-99560000D02*
X81740000Y-99560000D01*
X95660000Y-97715835D02*
X95660000Y-97484165D01*
X94940000Y-97715835D02*
X94940000Y-97484165D01*
X94234165Y-95810000D02*
X94465835Y-95810000D01*
X94234165Y-95090000D02*
X94465835Y-95090000D01*
X108003879Y-110474000D02*
X108339121Y-110474000D01*
X108003879Y-109714000D02*
X108339121Y-109714000D01*
X107966379Y-109077000D02*
X108301621Y-109077000D01*
X107966379Y-108317000D02*
X108301621Y-108317000D01*
X108301621Y-106920000D02*
X107966379Y-106920000D01*
X108301621Y-107680000D02*
X107966379Y-107680000D01*
X103053276Y-109854500D02*
X103562724Y-109854500D01*
X103053276Y-108809500D02*
X103562724Y-108809500D01*
X103562724Y-107031500D02*
X103053276Y-107031500D01*
X103562724Y-108076500D02*
X103053276Y-108076500D01*
X112317621Y-101270000D02*
X111982379Y-101270000D01*
X112317621Y-102030000D02*
X111982379Y-102030000D01*
X107966379Y-103362000D02*
X108301621Y-103362000D01*
X107966379Y-102602000D02*
X108301621Y-102602000D01*
X107966379Y-104759000D02*
X108301621Y-104759000D01*
X107966379Y-103999000D02*
X108301621Y-103999000D01*
X108301621Y-105396000D02*
X107966379Y-105396000D01*
X108301621Y-106156000D02*
X107966379Y-106156000D01*
X103053276Y-104266500D02*
X103562724Y-104266500D01*
X103053276Y-103221500D02*
X103562724Y-103221500D01*
X103562724Y-104999500D02*
X103053276Y-104999500D01*
X103562724Y-106044500D02*
X103053276Y-106044500D01*
X111730621Y-109587000D02*
X111395379Y-109587000D01*
X111730621Y-110347000D02*
X111395379Y-110347000D01*
X111670733Y-112001000D02*
X111963267Y-112001000D01*
X111670733Y-110981000D02*
X111963267Y-110981000D01*
X108446267Y-111040000D02*
X108153733Y-111040000D01*
X108446267Y-112060000D02*
X108153733Y-112060000D01*
X106358000Y-108589267D02*
X106358000Y-108296733D01*
X105338000Y-108589267D02*
X105338000Y-108296733D01*
X112513733Y-100840000D02*
X112806267Y-100840000D01*
X112513733Y-99820000D02*
X112806267Y-99820000D01*
X106756267Y-100821000D02*
X106463733Y-100821000D01*
X106756267Y-101841000D02*
X106463733Y-101841000D01*
X105338000Y-104486733D02*
X105338000Y-104779267D01*
X106358000Y-104486733D02*
X106358000Y-104779267D01*
X114082000Y-108685835D02*
X114082000Y-108454165D01*
X113362000Y-108685835D02*
X113362000Y-108454165D01*
X115225000Y-108685835D02*
X115225000Y-108454165D01*
X114505000Y-108685835D02*
X114505000Y-108454165D01*
X102096835Y-100661000D02*
X101865165Y-100661000D01*
X102096835Y-101381000D02*
X101865165Y-101381000D01*
X100935000Y-99115835D02*
X100935000Y-98884165D01*
X100215000Y-99115835D02*
X100215000Y-98884165D01*
X103790000Y-97634165D02*
X103790000Y-97865835D01*
X104510000Y-97634165D02*
X104510000Y-97865835D01*
X98210000Y-104014165D02*
X98210000Y-104245835D01*
X98930000Y-104014165D02*
X98930000Y-104245835D01*
X99979000Y-110363252D02*
X99979000Y-109840748D01*
X98509000Y-110363252D02*
X98509000Y-109840748D01*
X96350000Y-110624248D02*
X96350000Y-111146752D01*
X97820000Y-110624248D02*
X97820000Y-111146752D01*
X91264000Y-110367165D02*
X91264000Y-110598835D01*
X91984000Y-110367165D02*
X91984000Y-110598835D01*
X94279835Y-110631000D02*
X94048165Y-110631000D01*
X94279835Y-111351000D02*
X94048165Y-111351000D01*
X93517835Y-109488000D02*
X93286165Y-109488000D01*
X93517835Y-110208000D02*
X93286165Y-110208000D01*
X89505000Y-109548752D02*
X89505000Y-109026248D01*
X88035000Y-109548752D02*
X88035000Y-109026248D01*
X109634165Y-102010000D02*
X109865835Y-102010000D01*
X109634165Y-101290000D02*
X109865835Y-101290000D01*
X109634165Y-100910000D02*
X109865835Y-100910000D01*
X109634165Y-100190000D02*
X109865835Y-100190000D01*
X91680000Y-96767621D02*
X91680000Y-96432379D01*
X90920000Y-96767621D02*
X90920000Y-96432379D01*
X88365000Y-94240000D02*
X88365000Y-96700000D01*
X89835000Y-94240000D02*
X88365000Y-94240000D01*
X89835000Y-96700000D02*
X89835000Y-94240000D01*
X99315835Y-102040000D02*
X99084165Y-102040000D01*
X99315835Y-102760000D02*
X99084165Y-102760000D01*
M02*
