G04 #@! TF.GenerationSoftware,KiCad,Pcbnew,(5.1.9)-1*
G04 #@! TF.CreationDate,2021-04-01T12:48:19-07:00*
G04 #@! TF.ProjectId,rgba,72676261-2e6b-4696-9361-645f70636258,1.1*
G04 #@! TF.SameCoordinates,Original*
G04 #@! TF.FileFunction,Copper,L2,Inr*
G04 #@! TF.FilePolarity,Positive*
%FSLAX46Y46*%
G04 Gerber Fmt 4.6, Leading zero omitted, Abs format (unit mm)*
G04 Created by KiCad (PCBNEW (5.1.9)-1) date 2021-04-01 12:48:19*
%MOMM*%
%LPD*%
G01*
G04 APERTURE LIST*
G04 #@! TA.AperFunction,ComponentPad*
%ADD10C,1.000000*%
G04 #@! TD*
G04 #@! TA.AperFunction,ComponentPad*
%ADD11C,0.400000*%
G04 #@! TD*
G04 #@! TA.AperFunction,ComponentPad*
%ADD12C,2.400000*%
G04 #@! TD*
G04 #@! TA.AperFunction,ComponentPad*
%ADD13C,0.500000*%
G04 #@! TD*
G04 #@! TA.AperFunction,ComponentPad*
%ADD14O,1.000000X1.600000*%
G04 #@! TD*
G04 #@! TA.AperFunction,ViaPad*
%ADD15C,0.800000*%
G04 #@! TD*
G04 #@! TA.AperFunction,ViaPad*
%ADD16C,0.400000*%
G04 #@! TD*
G04 #@! TA.AperFunction,Conductor*
%ADD17C,0.254000*%
G04 #@! TD*
G04 #@! TA.AperFunction,Conductor*
%ADD18C,0.100000*%
G04 #@! TD*
G04 APERTURE END LIST*
D10*
X83900000Y-109500000D03*
X82700000Y-108300000D03*
D11*
X111670000Y-105960000D03*
X110670000Y-105960000D03*
D12*
X104875000Y-111625000D03*
D13*
X102912000Y-98608000D03*
X101812000Y-98608000D03*
D12*
X105850000Y-95900000D03*
D14*
X117020000Y-94550000D03*
X108380000Y-94550000D03*
X108380000Y-98350000D03*
X117020000Y-98350000D03*
D10*
X81500000Y-107000000D03*
X85250000Y-110750000D03*
D15*
X103450000Y-113950000D03*
X89750000Y-110050000D03*
X89750000Y-111050000D03*
X95300000Y-111400000D03*
X94350000Y-111750000D03*
X114000000Y-114850000D03*
X90500000Y-102500000D03*
X117400000Y-112250000D03*
X117400000Y-110250000D03*
X106950000Y-110450000D03*
D16*
X84675000Y-104825000D03*
X85930000Y-107470000D03*
X84700000Y-106250000D03*
X84000000Y-103200000D03*
X101600000Y-100386000D03*
X101150000Y-100386000D03*
D15*
X100150000Y-110550000D03*
X80900000Y-111500000D03*
X81900000Y-111500000D03*
X81300000Y-102000000D03*
X105750000Y-100550000D03*
X91130000Y-107730000D03*
X93400000Y-104800000D03*
X95400000Y-106550000D03*
X93400000Y-106550000D03*
D16*
X94750000Y-102300000D03*
X95200000Y-102300000D03*
X95650000Y-102300000D03*
X96150000Y-102300000D03*
D15*
X95400000Y-104800000D03*
D16*
X92399500Y-111050500D03*
X93277750Y-110672250D03*
X92667250Y-110317250D03*
X101200000Y-97500000D03*
X95750000Y-109220000D03*
D15*
X103750000Y-101950000D03*
X90150000Y-108050000D03*
X90150000Y-109100000D03*
D16*
X108530000Y-99630000D03*
X108650000Y-100250000D03*
D15*
X109825000Y-109400000D03*
D16*
X114030000Y-103430000D03*
D15*
X113675000Y-102150000D03*
X116500000Y-96250000D03*
X113250000Y-96700000D03*
X112150000Y-96700000D03*
D16*
X108410000Y-101650000D03*
D15*
X99510000Y-103490000D03*
D16*
X90100000Y-104300000D03*
X100560000Y-97840000D03*
D15*
X107250000Y-97250000D03*
X81680000Y-105000000D03*
D16*
X91700000Y-103300000D03*
X91900000Y-98100000D03*
D15*
X104300000Y-98700000D03*
X105500000Y-97900000D03*
X106700000Y-102800000D03*
D16*
X92250000Y-103200000D03*
D15*
X113700000Y-109850000D03*
X114900000Y-109850000D03*
D16*
X108150000Y-103700000D03*
X103000000Y-111825000D03*
D15*
X101400000Y-113650000D03*
X109950000Y-97100000D03*
X115450000Y-97250000D03*
X82800000Y-96650000D03*
X84550000Y-95250000D03*
D16*
X113300000Y-106200000D03*
X85450000Y-106375000D03*
D15*
X117500000Y-102500000D03*
X117500000Y-104500000D03*
X96000000Y-97000000D03*
X92450000Y-95600000D03*
X90600000Y-96000000D03*
X95700000Y-95850000D03*
X94900000Y-96500000D03*
D16*
X92975000Y-98475000D03*
D15*
X91700000Y-102500000D03*
X100300000Y-102400000D03*
X84100000Y-96700000D03*
X93500000Y-114800000D03*
X96500000Y-114700000D03*
X106750000Y-112250000D03*
X105950000Y-98850000D03*
X106685000Y-98115000D03*
X112550000Y-108900000D03*
X109800000Y-102750000D03*
X99400000Y-114480000D03*
X108000000Y-114875000D03*
X84350000Y-97950000D03*
X114200000Y-97450000D03*
X111200000Y-97450000D03*
X85400000Y-94350000D03*
X80800000Y-104400000D03*
D16*
X102750000Y-112500000D03*
X112175000Y-113425000D03*
X90900000Y-104300000D03*
D15*
X83400000Y-104300000D03*
X85400000Y-105450000D03*
X86400000Y-106200000D03*
D17*
X84365000Y-94248061D02*
X84365000Y-94451939D01*
X84404774Y-94651898D01*
X84482795Y-94840256D01*
X84596063Y-95009774D01*
X84740226Y-95153937D01*
X84909744Y-95267205D01*
X85098102Y-95345226D01*
X85298061Y-95385000D01*
X85501939Y-95385000D01*
X85701898Y-95345226D01*
X85890256Y-95267205D01*
X86059774Y-95153937D01*
X86203937Y-95009774D01*
X86317205Y-94840256D01*
X86395226Y-94651898D01*
X86435000Y-94451939D01*
X86435000Y-94248061D01*
X86417484Y-94160000D01*
X105267224Y-94160000D01*
X105094167Y-94218154D01*
X104871514Y-94337164D01*
X104751626Y-94622020D01*
X105850000Y-95720395D01*
X106948374Y-94622020D01*
X106828486Y-94337164D01*
X106504790Y-94176301D01*
X106444691Y-94160000D01*
X107245000Y-94160000D01*
X107245000Y-94423000D01*
X108253000Y-94423000D01*
X108253000Y-94403000D01*
X108507000Y-94403000D01*
X108507000Y-94423000D01*
X109515000Y-94423000D01*
X109515000Y-94160000D01*
X115885000Y-94160000D01*
X115885000Y-94423000D01*
X116893000Y-94423000D01*
X116893000Y-94403000D01*
X117147000Y-94403000D01*
X117147000Y-94423000D01*
X118155000Y-94423000D01*
X118155000Y-94178363D01*
X118162540Y-94179102D01*
X118318894Y-94226308D01*
X118463096Y-94302982D01*
X118589663Y-94406207D01*
X118693769Y-94532051D01*
X118771447Y-94675711D01*
X118819742Y-94831729D01*
X118840000Y-95024473D01*
X118840001Y-113967712D01*
X118820898Y-114162540D01*
X118773692Y-114318895D01*
X118697018Y-114463096D01*
X118593792Y-114589664D01*
X118467951Y-114693768D01*
X118324289Y-114771447D01*
X118168271Y-114819742D01*
X117975527Y-114840000D01*
X115035000Y-114840000D01*
X115035000Y-114748061D01*
X114995226Y-114548102D01*
X114917205Y-114359744D01*
X114803937Y-114190226D01*
X114659774Y-114046063D01*
X114490256Y-113932795D01*
X114301898Y-113854774D01*
X114101939Y-113815000D01*
X113898061Y-113815000D01*
X113698102Y-113854774D01*
X113509744Y-113932795D01*
X113340226Y-114046063D01*
X113196063Y-114190226D01*
X113082795Y-114359744D01*
X113004774Y-114548102D01*
X112965000Y-114748061D01*
X112965000Y-114840000D01*
X109035000Y-114840000D01*
X109035000Y-114773061D01*
X108995226Y-114573102D01*
X108917205Y-114384744D01*
X108803937Y-114215226D01*
X108659774Y-114071063D01*
X108490256Y-113957795D01*
X108301898Y-113879774D01*
X108101939Y-113840000D01*
X107898061Y-113840000D01*
X107698102Y-113879774D01*
X107509744Y-113957795D01*
X107340226Y-114071063D01*
X107196063Y-114215226D01*
X107082795Y-114384744D01*
X107004774Y-114573102D01*
X106965000Y-114773061D01*
X106965000Y-114840000D01*
X103980971Y-114840000D01*
X104109774Y-114753937D01*
X104253937Y-114609774D01*
X104367205Y-114440256D01*
X104445226Y-114251898D01*
X104485000Y-114051939D01*
X104485000Y-113848061D01*
X104445226Y-113648102D01*
X104367205Y-113459744D01*
X104309121Y-113372815D01*
X104569069Y-113443322D01*
X104929684Y-113468067D01*
X105288198Y-113421985D01*
X105523958Y-113342760D01*
X111340000Y-113342760D01*
X111340000Y-113507240D01*
X111372089Y-113668560D01*
X111435033Y-113820521D01*
X111526413Y-113957281D01*
X111642719Y-114073587D01*
X111779479Y-114164967D01*
X111931440Y-114227911D01*
X112092760Y-114260000D01*
X112257240Y-114260000D01*
X112418560Y-114227911D01*
X112570521Y-114164967D01*
X112707281Y-114073587D01*
X112823587Y-113957281D01*
X112914967Y-113820521D01*
X112977911Y-113668560D01*
X113010000Y-113507240D01*
X113010000Y-113342760D01*
X112977911Y-113181440D01*
X112914967Y-113029479D01*
X112823587Y-112892719D01*
X112707281Y-112776413D01*
X112570521Y-112685033D01*
X112418560Y-112622089D01*
X112257240Y-112590000D01*
X112092760Y-112590000D01*
X111931440Y-112622089D01*
X111779479Y-112685033D01*
X111642719Y-112776413D01*
X111526413Y-112892719D01*
X111435033Y-113029479D01*
X111372089Y-113181440D01*
X111340000Y-113342760D01*
X105523958Y-113342760D01*
X105630833Y-113306846D01*
X105853486Y-113187836D01*
X105973374Y-112902980D01*
X104875000Y-111804605D01*
X104860858Y-111818748D01*
X104681252Y-111639142D01*
X104695395Y-111625000D01*
X105054605Y-111625000D01*
X106152980Y-112723374D01*
X106437836Y-112603486D01*
X106598699Y-112279790D01*
X106693322Y-111930931D01*
X106718067Y-111570316D01*
X106671985Y-111211802D01*
X106556846Y-110869167D01*
X106437836Y-110646514D01*
X106152980Y-110526626D01*
X105054605Y-111625000D01*
X104695395Y-111625000D01*
X103597020Y-110526626D01*
X103312164Y-110646514D01*
X103151301Y-110970210D01*
X103056678Y-111319069D01*
X103031933Y-111679684D01*
X103036454Y-111714856D01*
X102993560Y-111697089D01*
X102832240Y-111665000D01*
X102667760Y-111665000D01*
X102506440Y-111697089D01*
X102354479Y-111760033D01*
X102217719Y-111851413D01*
X102101413Y-111967719D01*
X102010033Y-112104479D01*
X101947089Y-112256440D01*
X101915000Y-112417760D01*
X101915000Y-112582240D01*
X101947089Y-112743560D01*
X102010033Y-112895521D01*
X102101413Y-113032281D01*
X102217719Y-113148587D01*
X102354479Y-113239967D01*
X102506440Y-113302911D01*
X102622201Y-113325938D01*
X102532795Y-113459744D01*
X102454774Y-113648102D01*
X102415000Y-113848061D01*
X102415000Y-114051939D01*
X102454774Y-114251898D01*
X102532795Y-114440256D01*
X102646063Y-114609774D01*
X102790226Y-114753937D01*
X102919029Y-114840000D01*
X100371159Y-114840000D01*
X100395226Y-114781898D01*
X100435000Y-114581939D01*
X100435000Y-114378061D01*
X100395226Y-114178102D01*
X100317205Y-113989744D01*
X100203937Y-113820226D01*
X100059774Y-113676063D01*
X99890256Y-113562795D01*
X99701898Y-113484774D01*
X99501939Y-113445000D01*
X99298061Y-113445000D01*
X99098102Y-113484774D01*
X98909744Y-113562795D01*
X98740226Y-113676063D01*
X98596063Y-113820226D01*
X98482795Y-113989744D01*
X98404774Y-114178102D01*
X98365000Y-114378061D01*
X98365000Y-114581939D01*
X98404774Y-114781898D01*
X98428841Y-114840000D01*
X81032277Y-114840000D01*
X80837460Y-114820898D01*
X80681105Y-114773692D01*
X80536904Y-114697018D01*
X80410336Y-114593792D01*
X80306232Y-114467951D01*
X80228553Y-114324289D01*
X80180258Y-114168271D01*
X80160000Y-113975527D01*
X80160000Y-111528166D01*
X84651439Y-111528166D01*
X84686550Y-111741588D01*
X84890826Y-111832458D01*
X85108905Y-111881731D01*
X85332406Y-111887511D01*
X85552740Y-111849577D01*
X85761440Y-111769387D01*
X85813450Y-111741588D01*
X85848561Y-111528166D01*
X85250000Y-110929605D01*
X84651439Y-111528166D01*
X80160000Y-111528166D01*
X80160000Y-106888212D01*
X80365000Y-106888212D01*
X80365000Y-107111788D01*
X80408617Y-107331067D01*
X80494176Y-107537624D01*
X80618388Y-107723520D01*
X80776480Y-107881612D01*
X80962376Y-108005824D01*
X81168933Y-108091383D01*
X81388212Y-108135000D01*
X81575584Y-108135000D01*
X81565000Y-108188212D01*
X81565000Y-108411788D01*
X81608617Y-108631067D01*
X81694176Y-108837624D01*
X81818388Y-109023520D01*
X81976480Y-109181612D01*
X82162376Y-109305824D01*
X82368933Y-109391383D01*
X82588212Y-109435000D01*
X82765000Y-109435000D01*
X82765000Y-109611788D01*
X82808617Y-109831067D01*
X82894176Y-110037624D01*
X83018388Y-110223520D01*
X83176480Y-110381612D01*
X83362376Y-110505824D01*
X83568933Y-110591383D01*
X83788212Y-110635000D01*
X84011788Y-110635000D01*
X84118141Y-110613845D01*
X84112489Y-110832406D01*
X84150423Y-111052740D01*
X84230613Y-111261440D01*
X84258412Y-111313450D01*
X84471834Y-111348561D01*
X85070395Y-110750000D01*
X85429605Y-110750000D01*
X86028166Y-111348561D01*
X86241588Y-111313450D01*
X86332458Y-111109174D01*
X86381731Y-110891095D01*
X86387511Y-110667594D01*
X86349577Y-110447260D01*
X86269387Y-110238560D01*
X86241588Y-110186550D01*
X86028166Y-110151439D01*
X85429605Y-110750000D01*
X85070395Y-110750000D01*
X85056253Y-110735858D01*
X85235858Y-110556253D01*
X85250000Y-110570395D01*
X85848561Y-109971834D01*
X85844650Y-109948061D01*
X88715000Y-109948061D01*
X88715000Y-110151939D01*
X88754774Y-110351898D01*
X88832795Y-110540256D01*
X88839306Y-110550000D01*
X88832795Y-110559744D01*
X88754774Y-110748102D01*
X88715000Y-110948061D01*
X88715000Y-111151939D01*
X88754774Y-111351898D01*
X88832795Y-111540256D01*
X88946063Y-111709774D01*
X89090226Y-111853937D01*
X89259744Y-111967205D01*
X89448102Y-112045226D01*
X89648061Y-112085000D01*
X89851939Y-112085000D01*
X90051898Y-112045226D01*
X90240256Y-111967205D01*
X90409774Y-111853937D01*
X90553937Y-111709774D01*
X90595172Y-111648061D01*
X93315000Y-111648061D01*
X93315000Y-111851939D01*
X93354774Y-112051898D01*
X93432795Y-112240256D01*
X93546063Y-112409774D01*
X93690226Y-112553937D01*
X93859744Y-112667205D01*
X94048102Y-112745226D01*
X94248061Y-112785000D01*
X94451939Y-112785000D01*
X94651898Y-112745226D01*
X94840256Y-112667205D01*
X95009774Y-112553937D01*
X95140217Y-112423494D01*
X95198061Y-112435000D01*
X95401939Y-112435000D01*
X95601898Y-112395226D01*
X95790256Y-112317205D01*
X95959774Y-112203937D01*
X96103937Y-112059774D01*
X96217205Y-111890256D01*
X96295226Y-111701898D01*
X96335000Y-111501939D01*
X96335000Y-111298061D01*
X96295226Y-111098102D01*
X96217205Y-110909744D01*
X96103937Y-110740226D01*
X95959774Y-110596063D01*
X95790256Y-110482795D01*
X95601898Y-110404774D01*
X95401939Y-110365000D01*
X95198061Y-110365000D01*
X94998102Y-110404774D01*
X94809744Y-110482795D01*
X94640226Y-110596063D01*
X94509783Y-110726506D01*
X94451939Y-110715000D01*
X94248061Y-110715000D01*
X94048102Y-110754774D01*
X93859744Y-110832795D01*
X93690226Y-110946063D01*
X93546063Y-111090226D01*
X93432795Y-111259744D01*
X93354774Y-111448102D01*
X93315000Y-111648061D01*
X90595172Y-111648061D01*
X90667205Y-111540256D01*
X90745226Y-111351898D01*
X90785000Y-111151939D01*
X90785000Y-110948061D01*
X90745226Y-110748102D01*
X90667205Y-110559744D01*
X90660694Y-110550000D01*
X90667205Y-110540256D01*
X90745226Y-110351898D01*
X90746196Y-110347020D01*
X103776626Y-110347020D01*
X104875000Y-111445395D01*
X105973374Y-110347020D01*
X105853486Y-110062164D01*
X105529790Y-109901301D01*
X105180931Y-109806678D01*
X104820316Y-109781933D01*
X104461802Y-109828015D01*
X104119167Y-109943154D01*
X103896514Y-110062164D01*
X103776626Y-110347020D01*
X90746196Y-110347020D01*
X90785000Y-110151939D01*
X90785000Y-109948061D01*
X90745226Y-109748102D01*
X90667205Y-109559744D01*
X90553937Y-109390226D01*
X90409774Y-109246063D01*
X90240256Y-109132795D01*
X90051898Y-109054774D01*
X89851939Y-109015000D01*
X89648061Y-109015000D01*
X89448102Y-109054774D01*
X89259744Y-109132795D01*
X89090226Y-109246063D01*
X88946063Y-109390226D01*
X88832795Y-109559744D01*
X88754774Y-109748102D01*
X88715000Y-109948061D01*
X85844650Y-109948061D01*
X85813450Y-109758412D01*
X85609174Y-109667542D01*
X85391095Y-109618269D01*
X85167594Y-109612489D01*
X85030154Y-109636152D01*
X85035000Y-109611788D01*
X85035000Y-109388212D01*
X84991383Y-109168933D01*
X84905824Y-108962376D01*
X84796032Y-108798061D01*
X111515000Y-108798061D01*
X111515000Y-109001939D01*
X111554774Y-109201898D01*
X111632795Y-109390256D01*
X111746063Y-109559774D01*
X111890226Y-109703937D01*
X112059744Y-109817205D01*
X112248102Y-109895226D01*
X112448061Y-109935000D01*
X112651939Y-109935000D01*
X112851898Y-109895226D01*
X113040256Y-109817205D01*
X113209774Y-109703937D01*
X113353937Y-109559774D01*
X113467205Y-109390256D01*
X113545226Y-109201898D01*
X113585000Y-109001939D01*
X113585000Y-108798061D01*
X113545226Y-108598102D01*
X113467205Y-108409744D01*
X113353937Y-108240226D01*
X113209774Y-108096063D01*
X113040256Y-107982795D01*
X112851898Y-107904774D01*
X112651939Y-107865000D01*
X112448061Y-107865000D01*
X112248102Y-107904774D01*
X112059744Y-107982795D01*
X111890226Y-108096063D01*
X111746063Y-108240226D01*
X111632795Y-108409744D01*
X111554774Y-108598102D01*
X111515000Y-108798061D01*
X84796032Y-108798061D01*
X84781612Y-108776480D01*
X84623520Y-108618388D01*
X84437624Y-108494176D01*
X84231067Y-108408617D01*
X84011788Y-108365000D01*
X83835000Y-108365000D01*
X83835000Y-108188212D01*
X83791383Y-107968933D01*
X83705824Y-107762376D01*
X83581612Y-107576480D01*
X83423520Y-107418388D01*
X83237624Y-107294176D01*
X83031067Y-107208617D01*
X82811788Y-107165000D01*
X82624416Y-107165000D01*
X82635000Y-107111788D01*
X82635000Y-106888212D01*
X82591383Y-106668933D01*
X82505824Y-106462376D01*
X82381612Y-106276480D01*
X82223520Y-106118388D01*
X82037624Y-105994176D01*
X81831067Y-105908617D01*
X81611788Y-105865000D01*
X81388212Y-105865000D01*
X81168933Y-105908617D01*
X80962376Y-105994176D01*
X80776480Y-106118388D01*
X80618388Y-106276480D01*
X80494176Y-106462376D01*
X80408617Y-106668933D01*
X80365000Y-106888212D01*
X80160000Y-106888212D01*
X80160000Y-105217150D01*
X80309744Y-105317205D01*
X80498102Y-105395226D01*
X80698061Y-105435000D01*
X80901939Y-105435000D01*
X81101898Y-105395226D01*
X81215763Y-105348061D01*
X84365000Y-105348061D01*
X84365000Y-105551939D01*
X84404774Y-105751898D01*
X84482795Y-105940256D01*
X84596063Y-106109774D01*
X84740226Y-106253937D01*
X84909744Y-106367205D01*
X85098102Y-106445226D01*
X85298061Y-106485000D01*
X85401413Y-106485000D01*
X85404774Y-106501898D01*
X85482795Y-106690256D01*
X85596063Y-106859774D01*
X85740226Y-107003937D01*
X85909744Y-107117205D01*
X86098102Y-107195226D01*
X86298061Y-107235000D01*
X86501939Y-107235000D01*
X86701898Y-107195226D01*
X86890256Y-107117205D01*
X87059774Y-107003937D01*
X87203937Y-106859774D01*
X87317205Y-106690256D01*
X87395226Y-106501898D01*
X87435000Y-106301939D01*
X87435000Y-106098061D01*
X87415521Y-106000128D01*
X109831921Y-106000128D01*
X109855853Y-106162858D01*
X109911072Y-106317792D01*
X109950869Y-106392247D01*
X110140121Y-106386641D01*
X110566762Y-105960000D01*
X110140121Y-105533359D01*
X109950869Y-105527753D01*
X109880360Y-105676354D01*
X109840195Y-105835855D01*
X109831921Y-106000128D01*
X87415521Y-106000128D01*
X87395226Y-105898102D01*
X87317205Y-105709744D01*
X87203937Y-105540226D01*
X87059774Y-105396063D01*
X86890256Y-105282795D01*
X86789039Y-105240869D01*
X110237753Y-105240869D01*
X110243359Y-105430121D01*
X110670000Y-105856762D01*
X110722326Y-105804436D01*
X110825564Y-105907674D01*
X110773238Y-105960000D01*
X110825564Y-106012326D01*
X110722326Y-106115564D01*
X110670000Y-106063238D01*
X110243359Y-106489879D01*
X110237753Y-106679131D01*
X110386354Y-106749640D01*
X110545855Y-106789805D01*
X110710128Y-106798079D01*
X110872858Y-106774147D01*
X111027792Y-106718928D01*
X111102247Y-106679131D01*
X111099159Y-106574873D01*
X111166947Y-106642661D01*
X111170000Y-106639608D01*
X111173053Y-106642661D01*
X111240841Y-106574873D01*
X111237753Y-106679131D01*
X111386354Y-106749640D01*
X111545855Y-106789805D01*
X111710128Y-106798079D01*
X111872858Y-106774147D01*
X112027792Y-106718928D01*
X112102247Y-106679131D01*
X112096641Y-106489879D01*
X111670000Y-106063238D01*
X111617674Y-106115564D01*
X111514436Y-106012326D01*
X111566762Y-105960000D01*
X111773238Y-105960000D01*
X112199879Y-106386641D01*
X112389131Y-106392247D01*
X112459640Y-106243646D01*
X112499805Y-106084145D01*
X112508079Y-105919872D01*
X112484147Y-105757142D01*
X112428928Y-105602208D01*
X112389131Y-105527753D01*
X112199879Y-105533359D01*
X111773238Y-105960000D01*
X111566762Y-105960000D01*
X111514436Y-105907674D01*
X111617674Y-105804436D01*
X111670000Y-105856762D01*
X112096641Y-105430121D01*
X112102247Y-105240869D01*
X111953646Y-105170360D01*
X111794145Y-105130195D01*
X111629872Y-105121921D01*
X111467142Y-105145853D01*
X111312208Y-105201072D01*
X111237753Y-105240869D01*
X111240841Y-105345127D01*
X111173053Y-105277339D01*
X111170000Y-105280392D01*
X111166947Y-105277339D01*
X111099159Y-105345127D01*
X111102247Y-105240869D01*
X110953646Y-105170360D01*
X110794145Y-105130195D01*
X110629872Y-105121921D01*
X110467142Y-105145853D01*
X110312208Y-105201072D01*
X110237753Y-105240869D01*
X86789039Y-105240869D01*
X86701898Y-105204774D01*
X86501939Y-105165000D01*
X86398587Y-105165000D01*
X86395226Y-105148102D01*
X86317205Y-104959744D01*
X86203937Y-104790226D01*
X86059774Y-104646063D01*
X85890256Y-104532795D01*
X85701898Y-104454774D01*
X85501939Y-104415000D01*
X85298061Y-104415000D01*
X85098102Y-104454774D01*
X84909744Y-104532795D01*
X84740226Y-104646063D01*
X84596063Y-104790226D01*
X84482795Y-104959744D01*
X84404774Y-105148102D01*
X84365000Y-105348061D01*
X81215763Y-105348061D01*
X81290256Y-105317205D01*
X81459774Y-105203937D01*
X81603937Y-105059774D01*
X81717205Y-104890256D01*
X81795226Y-104701898D01*
X81835000Y-104501939D01*
X81835000Y-104298061D01*
X81815109Y-104198061D01*
X82365000Y-104198061D01*
X82365000Y-104401939D01*
X82404774Y-104601898D01*
X82482795Y-104790256D01*
X82596063Y-104959774D01*
X82740226Y-105103937D01*
X82909744Y-105217205D01*
X83098102Y-105295226D01*
X83298061Y-105335000D01*
X83501939Y-105335000D01*
X83701898Y-105295226D01*
X83890256Y-105217205D01*
X84059774Y-105103937D01*
X84203937Y-104959774D01*
X84317205Y-104790256D01*
X84395226Y-104601898D01*
X84435000Y-104401939D01*
X84435000Y-104198061D01*
X84395226Y-103998102D01*
X84317205Y-103809744D01*
X84203937Y-103640226D01*
X84059774Y-103496063D01*
X83890256Y-103382795D01*
X83701898Y-103304774D01*
X83501939Y-103265000D01*
X83298061Y-103265000D01*
X83098102Y-103304774D01*
X82909744Y-103382795D01*
X82740226Y-103496063D01*
X82596063Y-103640226D01*
X82482795Y-103809744D01*
X82404774Y-103998102D01*
X82365000Y-104198061D01*
X81815109Y-104198061D01*
X81795226Y-104098102D01*
X81717205Y-103909744D01*
X81603937Y-103740226D01*
X81459774Y-103596063D01*
X81290256Y-103482795D01*
X81101898Y-103404774D01*
X80901939Y-103365000D01*
X80698061Y-103365000D01*
X80498102Y-103404774D01*
X80309744Y-103482795D01*
X80160000Y-103582850D01*
X80160000Y-102398061D01*
X89465000Y-102398061D01*
X89465000Y-102601939D01*
X89504774Y-102801898D01*
X89582795Y-102990256D01*
X89696063Y-103159774D01*
X89840226Y-103303937D01*
X90009744Y-103417205D01*
X90198102Y-103495226D01*
X90398061Y-103535000D01*
X90564914Y-103535000D01*
X90504479Y-103560033D01*
X90367719Y-103651413D01*
X90251413Y-103767719D01*
X90160033Y-103904479D01*
X90097089Y-104056440D01*
X90065000Y-104217760D01*
X90065000Y-104382240D01*
X90097089Y-104543560D01*
X90160033Y-104695521D01*
X90251413Y-104832281D01*
X90367719Y-104948587D01*
X90504479Y-105039967D01*
X90656440Y-105102911D01*
X90817760Y-105135000D01*
X90982240Y-105135000D01*
X91143560Y-105102911D01*
X91295521Y-105039967D01*
X91432281Y-104948587D01*
X91548587Y-104832281D01*
X91639967Y-104695521D01*
X91702911Y-104543560D01*
X91735000Y-104382240D01*
X91735000Y-104217760D01*
X91702911Y-104056440D01*
X91639967Y-103904479D01*
X91548587Y-103767719D01*
X91432281Y-103651413D01*
X91295521Y-103560033D01*
X91143560Y-103497089D01*
X90982240Y-103465000D01*
X90874869Y-103465000D01*
X90990256Y-103417205D01*
X91159774Y-103303937D01*
X91303937Y-103159774D01*
X91417205Y-102990256D01*
X91495226Y-102801898D01*
X91525825Y-102648061D01*
X108765000Y-102648061D01*
X108765000Y-102851939D01*
X108804774Y-103051898D01*
X108882795Y-103240256D01*
X108996063Y-103409774D01*
X109140226Y-103553937D01*
X109309744Y-103667205D01*
X109498102Y-103745226D01*
X109698061Y-103785000D01*
X109901939Y-103785000D01*
X110101898Y-103745226D01*
X110290256Y-103667205D01*
X110459774Y-103553937D01*
X110603937Y-103409774D01*
X110717205Y-103240256D01*
X110795226Y-103051898D01*
X110835000Y-102851939D01*
X110835000Y-102648061D01*
X110795226Y-102448102D01*
X110717205Y-102259744D01*
X110603937Y-102090226D01*
X110459774Y-101946063D01*
X110290256Y-101832795D01*
X110101898Y-101754774D01*
X109901939Y-101715000D01*
X109698061Y-101715000D01*
X109498102Y-101754774D01*
X109309744Y-101832795D01*
X109140226Y-101946063D01*
X108996063Y-102090226D01*
X108882795Y-102259744D01*
X108804774Y-102448102D01*
X108765000Y-102648061D01*
X91525825Y-102648061D01*
X91535000Y-102601939D01*
X91535000Y-102398061D01*
X91495226Y-102198102D01*
X91417205Y-102009744D01*
X91303937Y-101840226D01*
X91159774Y-101696063D01*
X90990256Y-101582795D01*
X90801898Y-101504774D01*
X90601939Y-101465000D01*
X90398061Y-101465000D01*
X90198102Y-101504774D01*
X90009744Y-101582795D01*
X89840226Y-101696063D01*
X89696063Y-101840226D01*
X89582795Y-102009744D01*
X89504774Y-102198102D01*
X89465000Y-102398061D01*
X80160000Y-102398061D01*
X80160000Y-99204164D01*
X101389784Y-99204164D01*
X101393826Y-99392827D01*
X101554974Y-99459328D01*
X101725998Y-99493113D01*
X101900328Y-99492884D01*
X102071264Y-99458649D01*
X102230174Y-99392827D01*
X102234216Y-99204164D01*
X102489784Y-99204164D01*
X102493826Y-99392827D01*
X102654974Y-99459328D01*
X102825998Y-99493113D01*
X103000328Y-99492884D01*
X103171264Y-99458649D01*
X103330174Y-99392827D01*
X103334216Y-99204164D01*
X102912000Y-98781948D01*
X102489784Y-99204164D01*
X102234216Y-99204164D01*
X101812000Y-98781948D01*
X101389784Y-99204164D01*
X80160000Y-99204164D01*
X80160000Y-97848061D01*
X83315000Y-97848061D01*
X83315000Y-98051939D01*
X83354774Y-98251898D01*
X83432795Y-98440256D01*
X83546063Y-98609774D01*
X83690226Y-98753937D01*
X83859744Y-98867205D01*
X84048102Y-98945226D01*
X84248061Y-98985000D01*
X84451939Y-98985000D01*
X84651898Y-98945226D01*
X84840256Y-98867205D01*
X85009774Y-98753937D01*
X85153937Y-98609774D01*
X85212586Y-98521998D01*
X100926887Y-98521998D01*
X100927116Y-98696328D01*
X100961351Y-98867264D01*
X101027173Y-99026174D01*
X101215836Y-99030216D01*
X101638052Y-98608000D01*
X101985948Y-98608000D01*
X102027054Y-98649106D01*
X102027116Y-98696328D01*
X102061351Y-98867264D01*
X102127173Y-99026174D01*
X102315836Y-99030216D01*
X102362000Y-98984052D01*
X102408164Y-99030216D01*
X102596827Y-99026174D01*
X102663328Y-98865026D01*
X102697113Y-98694002D01*
X102697054Y-98648998D01*
X102738052Y-98608000D01*
X103085948Y-98608000D01*
X103508164Y-99030216D01*
X103696827Y-99026174D01*
X103763328Y-98865026D01*
X103797113Y-98694002D01*
X103796884Y-98519672D01*
X103762649Y-98348736D01*
X103696827Y-98189826D01*
X103508164Y-98185784D01*
X103085948Y-98608000D01*
X102738052Y-98608000D01*
X102696946Y-98566894D01*
X102696884Y-98519672D01*
X102662649Y-98348736D01*
X102596827Y-98189826D01*
X102408164Y-98185784D01*
X102362000Y-98231948D01*
X102315836Y-98185784D01*
X102127173Y-98189826D01*
X102060672Y-98350974D01*
X102026887Y-98521998D01*
X102026946Y-98567002D01*
X101985948Y-98608000D01*
X101638052Y-98608000D01*
X101215836Y-98185784D01*
X101027173Y-98189826D01*
X100960672Y-98350974D01*
X100926887Y-98521998D01*
X85212586Y-98521998D01*
X85267205Y-98440256D01*
X85345226Y-98251898D01*
X85385000Y-98051939D01*
X85385000Y-98011836D01*
X101389784Y-98011836D01*
X101812000Y-98434052D01*
X102234216Y-98011836D01*
X102489784Y-98011836D01*
X102912000Y-98434052D01*
X103334216Y-98011836D01*
X103330174Y-97823173D01*
X103169026Y-97756672D01*
X102998002Y-97722887D01*
X102823672Y-97723116D01*
X102652736Y-97757351D01*
X102493826Y-97823173D01*
X102489784Y-98011836D01*
X102234216Y-98011836D01*
X102230174Y-97823173D01*
X102069026Y-97756672D01*
X101898002Y-97722887D01*
X101723672Y-97723116D01*
X101552736Y-97757351D01*
X101393826Y-97823173D01*
X101389784Y-98011836D01*
X85385000Y-98011836D01*
X85385000Y-97848061D01*
X85345226Y-97648102D01*
X85267205Y-97459744D01*
X85153937Y-97290226D01*
X85041691Y-97177980D01*
X104751626Y-97177980D01*
X104871514Y-97462836D01*
X105195210Y-97623699D01*
X105544069Y-97718322D01*
X105723921Y-97730663D01*
X105689774Y-97813102D01*
X105682860Y-97847860D01*
X105648102Y-97854774D01*
X105459744Y-97932795D01*
X105290226Y-98046063D01*
X105146063Y-98190226D01*
X105032795Y-98359744D01*
X104954774Y-98548102D01*
X104915000Y-98748061D01*
X104915000Y-98951939D01*
X104954774Y-99151898D01*
X105032795Y-99340256D01*
X105146063Y-99509774D01*
X105290226Y-99653937D01*
X105459744Y-99767205D01*
X105648102Y-99845226D01*
X105848061Y-99885000D01*
X106051939Y-99885000D01*
X106251898Y-99845226D01*
X106440256Y-99767205D01*
X106609774Y-99653937D01*
X106753937Y-99509774D01*
X106867205Y-99340256D01*
X106945226Y-99151898D01*
X106952140Y-99117140D01*
X106986898Y-99110226D01*
X107175256Y-99032205D01*
X107283853Y-98959643D01*
X107291585Y-98995987D01*
X107379997Y-99201678D01*
X107506839Y-99386169D01*
X107667236Y-99542369D01*
X107855024Y-99664276D01*
X108078126Y-99744119D01*
X108253000Y-99617954D01*
X108253000Y-98477000D01*
X108507000Y-98477000D01*
X108507000Y-99617954D01*
X108681874Y-99744119D01*
X108904976Y-99664276D01*
X109092764Y-99542369D01*
X109253161Y-99386169D01*
X109380003Y-99201678D01*
X109468415Y-98995987D01*
X109515000Y-98777000D01*
X109515000Y-98477000D01*
X108507000Y-98477000D01*
X108253000Y-98477000D01*
X108233000Y-98477000D01*
X108233000Y-98223000D01*
X108253000Y-98223000D01*
X108253000Y-97082046D01*
X108507000Y-97082046D01*
X108507000Y-98223000D01*
X109515000Y-98223000D01*
X109515000Y-97923000D01*
X109468415Y-97704013D01*
X109380003Y-97498322D01*
X109276695Y-97348061D01*
X110165000Y-97348061D01*
X110165000Y-97551939D01*
X110204774Y-97751898D01*
X110282795Y-97940256D01*
X110396063Y-98109774D01*
X110540226Y-98253937D01*
X110709744Y-98367205D01*
X110898102Y-98445226D01*
X111098061Y-98485000D01*
X111301939Y-98485000D01*
X111501898Y-98445226D01*
X111690256Y-98367205D01*
X111859774Y-98253937D01*
X112003937Y-98109774D01*
X112117205Y-97940256D01*
X112195226Y-97751898D01*
X112235000Y-97551939D01*
X112235000Y-97348061D01*
X113165000Y-97348061D01*
X113165000Y-97551939D01*
X113204774Y-97751898D01*
X113282795Y-97940256D01*
X113396063Y-98109774D01*
X113540226Y-98253937D01*
X113709744Y-98367205D01*
X113898102Y-98445226D01*
X114098061Y-98485000D01*
X114301939Y-98485000D01*
X114342158Y-98477000D01*
X115885000Y-98477000D01*
X115885000Y-98777000D01*
X115931585Y-98995987D01*
X116019997Y-99201678D01*
X116146839Y-99386169D01*
X116307236Y-99542369D01*
X116495024Y-99664276D01*
X116718126Y-99744119D01*
X116893000Y-99617954D01*
X116893000Y-98477000D01*
X117147000Y-98477000D01*
X117147000Y-99617954D01*
X117321874Y-99744119D01*
X117544976Y-99664276D01*
X117732764Y-99542369D01*
X117893161Y-99386169D01*
X118020003Y-99201678D01*
X118108415Y-98995987D01*
X118155000Y-98777000D01*
X118155000Y-98477000D01*
X117147000Y-98477000D01*
X116893000Y-98477000D01*
X115885000Y-98477000D01*
X114342158Y-98477000D01*
X114501898Y-98445226D01*
X114690256Y-98367205D01*
X114859774Y-98253937D01*
X115003937Y-98109774D01*
X115117205Y-97940256D01*
X115124352Y-97923000D01*
X115885000Y-97923000D01*
X115885000Y-98223000D01*
X116893000Y-98223000D01*
X116893000Y-97082046D01*
X117147000Y-97082046D01*
X117147000Y-98223000D01*
X118155000Y-98223000D01*
X118155000Y-97923000D01*
X118108415Y-97704013D01*
X118020003Y-97498322D01*
X117893161Y-97313831D01*
X117732764Y-97157631D01*
X117544976Y-97035724D01*
X117321874Y-96955881D01*
X117147000Y-97082046D01*
X116893000Y-97082046D01*
X116718126Y-96955881D01*
X116495024Y-97035724D01*
X116307236Y-97157631D01*
X116146839Y-97313831D01*
X116019997Y-97498322D01*
X115931585Y-97704013D01*
X115885000Y-97923000D01*
X115124352Y-97923000D01*
X115195226Y-97751898D01*
X115235000Y-97551939D01*
X115235000Y-97348061D01*
X115195226Y-97148102D01*
X115117205Y-96959744D01*
X115003937Y-96790226D01*
X114859774Y-96646063D01*
X114690256Y-96532795D01*
X114501898Y-96454774D01*
X114301939Y-96415000D01*
X114098061Y-96415000D01*
X113898102Y-96454774D01*
X113709744Y-96532795D01*
X113540226Y-96646063D01*
X113396063Y-96790226D01*
X113282795Y-96959744D01*
X113204774Y-97148102D01*
X113165000Y-97348061D01*
X112235000Y-97348061D01*
X112195226Y-97148102D01*
X112117205Y-96959744D01*
X112003937Y-96790226D01*
X111859774Y-96646063D01*
X111690256Y-96532795D01*
X111501898Y-96454774D01*
X111301939Y-96415000D01*
X111098061Y-96415000D01*
X110898102Y-96454774D01*
X110709744Y-96532795D01*
X110540226Y-96646063D01*
X110396063Y-96790226D01*
X110282795Y-96959744D01*
X110204774Y-97148102D01*
X110165000Y-97348061D01*
X109276695Y-97348061D01*
X109253161Y-97313831D01*
X109092764Y-97157631D01*
X108904976Y-97035724D01*
X108681874Y-96955881D01*
X108507000Y-97082046D01*
X108253000Y-97082046D01*
X108078126Y-96955881D01*
X107855024Y-97035724D01*
X107667236Y-97157631D01*
X107506839Y-97313831D01*
X107441939Y-97408228D01*
X107344774Y-97311063D01*
X107175256Y-97197795D01*
X107163742Y-97193026D01*
X107243188Y-97113580D01*
X107127981Y-96998373D01*
X107412836Y-96878486D01*
X107573699Y-96554790D01*
X107668322Y-96205931D01*
X107693067Y-95845316D01*
X107680982Y-95751292D01*
X107855024Y-95864276D01*
X108078126Y-95944119D01*
X108253000Y-95817954D01*
X108253000Y-94677000D01*
X108507000Y-94677000D01*
X108507000Y-95817954D01*
X108681874Y-95944119D01*
X108904976Y-95864276D01*
X109092764Y-95742369D01*
X109253161Y-95586169D01*
X109380003Y-95401678D01*
X109468415Y-95195987D01*
X109515000Y-94977000D01*
X109515000Y-94677000D01*
X115885000Y-94677000D01*
X115885000Y-94977000D01*
X115931585Y-95195987D01*
X116019997Y-95401678D01*
X116146839Y-95586169D01*
X116307236Y-95742369D01*
X116495024Y-95864276D01*
X116718126Y-95944119D01*
X116893000Y-95817954D01*
X116893000Y-94677000D01*
X117147000Y-94677000D01*
X117147000Y-95817954D01*
X117321874Y-95944119D01*
X117544976Y-95864276D01*
X117732764Y-95742369D01*
X117893161Y-95586169D01*
X118020003Y-95401678D01*
X118108415Y-95195987D01*
X118155000Y-94977000D01*
X118155000Y-94677000D01*
X117147000Y-94677000D01*
X116893000Y-94677000D01*
X115885000Y-94677000D01*
X109515000Y-94677000D01*
X108507000Y-94677000D01*
X108253000Y-94677000D01*
X107245000Y-94677000D01*
X107245000Y-94850876D01*
X107127980Y-94801626D01*
X106029605Y-95900000D01*
X106043748Y-95914142D01*
X105864142Y-96093748D01*
X105850000Y-96079605D01*
X104751626Y-97177980D01*
X85041691Y-97177980D01*
X85009774Y-97146063D01*
X84840256Y-97032795D01*
X84651898Y-96954774D01*
X84451939Y-96915000D01*
X84248061Y-96915000D01*
X84048102Y-96954774D01*
X83859744Y-97032795D01*
X83690226Y-97146063D01*
X83546063Y-97290226D01*
X83432795Y-97459744D01*
X83354774Y-97648102D01*
X83315000Y-97848061D01*
X80160000Y-97848061D01*
X80160000Y-95954684D01*
X104006933Y-95954684D01*
X104053015Y-96313198D01*
X104168154Y-96655833D01*
X104287164Y-96878486D01*
X104572020Y-96998374D01*
X105670395Y-95900000D01*
X104572020Y-94801626D01*
X104287164Y-94921514D01*
X104126301Y-95245210D01*
X104031678Y-95594069D01*
X104006933Y-95954684D01*
X80160000Y-95954684D01*
X80160000Y-95532279D01*
X80188625Y-95240341D01*
X80264035Y-94990571D01*
X80386522Y-94760208D01*
X80551422Y-94558020D01*
X80752450Y-94391714D01*
X80981954Y-94267622D01*
X81231195Y-94190469D01*
X81521088Y-94160000D01*
X84382516Y-94160000D01*
X84365000Y-94248061D01*
G04 #@! TA.AperFunction,Conductor*
D18*
G36*
X84365000Y-94248061D02*
G01*
X84365000Y-94451939D01*
X84404774Y-94651898D01*
X84482795Y-94840256D01*
X84596063Y-95009774D01*
X84740226Y-95153937D01*
X84909744Y-95267205D01*
X85098102Y-95345226D01*
X85298061Y-95385000D01*
X85501939Y-95385000D01*
X85701898Y-95345226D01*
X85890256Y-95267205D01*
X86059774Y-95153937D01*
X86203937Y-95009774D01*
X86317205Y-94840256D01*
X86395226Y-94651898D01*
X86435000Y-94451939D01*
X86435000Y-94248061D01*
X86417484Y-94160000D01*
X105267224Y-94160000D01*
X105094167Y-94218154D01*
X104871514Y-94337164D01*
X104751626Y-94622020D01*
X105850000Y-95720395D01*
X106948374Y-94622020D01*
X106828486Y-94337164D01*
X106504790Y-94176301D01*
X106444691Y-94160000D01*
X107245000Y-94160000D01*
X107245000Y-94423000D01*
X108253000Y-94423000D01*
X108253000Y-94403000D01*
X108507000Y-94403000D01*
X108507000Y-94423000D01*
X109515000Y-94423000D01*
X109515000Y-94160000D01*
X115885000Y-94160000D01*
X115885000Y-94423000D01*
X116893000Y-94423000D01*
X116893000Y-94403000D01*
X117147000Y-94403000D01*
X117147000Y-94423000D01*
X118155000Y-94423000D01*
X118155000Y-94178363D01*
X118162540Y-94179102D01*
X118318894Y-94226308D01*
X118463096Y-94302982D01*
X118589663Y-94406207D01*
X118693769Y-94532051D01*
X118771447Y-94675711D01*
X118819742Y-94831729D01*
X118840000Y-95024473D01*
X118840001Y-113967712D01*
X118820898Y-114162540D01*
X118773692Y-114318895D01*
X118697018Y-114463096D01*
X118593792Y-114589664D01*
X118467951Y-114693768D01*
X118324289Y-114771447D01*
X118168271Y-114819742D01*
X117975527Y-114840000D01*
X115035000Y-114840000D01*
X115035000Y-114748061D01*
X114995226Y-114548102D01*
X114917205Y-114359744D01*
X114803937Y-114190226D01*
X114659774Y-114046063D01*
X114490256Y-113932795D01*
X114301898Y-113854774D01*
X114101939Y-113815000D01*
X113898061Y-113815000D01*
X113698102Y-113854774D01*
X113509744Y-113932795D01*
X113340226Y-114046063D01*
X113196063Y-114190226D01*
X113082795Y-114359744D01*
X113004774Y-114548102D01*
X112965000Y-114748061D01*
X112965000Y-114840000D01*
X109035000Y-114840000D01*
X109035000Y-114773061D01*
X108995226Y-114573102D01*
X108917205Y-114384744D01*
X108803937Y-114215226D01*
X108659774Y-114071063D01*
X108490256Y-113957795D01*
X108301898Y-113879774D01*
X108101939Y-113840000D01*
X107898061Y-113840000D01*
X107698102Y-113879774D01*
X107509744Y-113957795D01*
X107340226Y-114071063D01*
X107196063Y-114215226D01*
X107082795Y-114384744D01*
X107004774Y-114573102D01*
X106965000Y-114773061D01*
X106965000Y-114840000D01*
X103980971Y-114840000D01*
X104109774Y-114753937D01*
X104253937Y-114609774D01*
X104367205Y-114440256D01*
X104445226Y-114251898D01*
X104485000Y-114051939D01*
X104485000Y-113848061D01*
X104445226Y-113648102D01*
X104367205Y-113459744D01*
X104309121Y-113372815D01*
X104569069Y-113443322D01*
X104929684Y-113468067D01*
X105288198Y-113421985D01*
X105523958Y-113342760D01*
X111340000Y-113342760D01*
X111340000Y-113507240D01*
X111372089Y-113668560D01*
X111435033Y-113820521D01*
X111526413Y-113957281D01*
X111642719Y-114073587D01*
X111779479Y-114164967D01*
X111931440Y-114227911D01*
X112092760Y-114260000D01*
X112257240Y-114260000D01*
X112418560Y-114227911D01*
X112570521Y-114164967D01*
X112707281Y-114073587D01*
X112823587Y-113957281D01*
X112914967Y-113820521D01*
X112977911Y-113668560D01*
X113010000Y-113507240D01*
X113010000Y-113342760D01*
X112977911Y-113181440D01*
X112914967Y-113029479D01*
X112823587Y-112892719D01*
X112707281Y-112776413D01*
X112570521Y-112685033D01*
X112418560Y-112622089D01*
X112257240Y-112590000D01*
X112092760Y-112590000D01*
X111931440Y-112622089D01*
X111779479Y-112685033D01*
X111642719Y-112776413D01*
X111526413Y-112892719D01*
X111435033Y-113029479D01*
X111372089Y-113181440D01*
X111340000Y-113342760D01*
X105523958Y-113342760D01*
X105630833Y-113306846D01*
X105853486Y-113187836D01*
X105973374Y-112902980D01*
X104875000Y-111804605D01*
X104860858Y-111818748D01*
X104681252Y-111639142D01*
X104695395Y-111625000D01*
X105054605Y-111625000D01*
X106152980Y-112723374D01*
X106437836Y-112603486D01*
X106598699Y-112279790D01*
X106693322Y-111930931D01*
X106718067Y-111570316D01*
X106671985Y-111211802D01*
X106556846Y-110869167D01*
X106437836Y-110646514D01*
X106152980Y-110526626D01*
X105054605Y-111625000D01*
X104695395Y-111625000D01*
X103597020Y-110526626D01*
X103312164Y-110646514D01*
X103151301Y-110970210D01*
X103056678Y-111319069D01*
X103031933Y-111679684D01*
X103036454Y-111714856D01*
X102993560Y-111697089D01*
X102832240Y-111665000D01*
X102667760Y-111665000D01*
X102506440Y-111697089D01*
X102354479Y-111760033D01*
X102217719Y-111851413D01*
X102101413Y-111967719D01*
X102010033Y-112104479D01*
X101947089Y-112256440D01*
X101915000Y-112417760D01*
X101915000Y-112582240D01*
X101947089Y-112743560D01*
X102010033Y-112895521D01*
X102101413Y-113032281D01*
X102217719Y-113148587D01*
X102354479Y-113239967D01*
X102506440Y-113302911D01*
X102622201Y-113325938D01*
X102532795Y-113459744D01*
X102454774Y-113648102D01*
X102415000Y-113848061D01*
X102415000Y-114051939D01*
X102454774Y-114251898D01*
X102532795Y-114440256D01*
X102646063Y-114609774D01*
X102790226Y-114753937D01*
X102919029Y-114840000D01*
X100371159Y-114840000D01*
X100395226Y-114781898D01*
X100435000Y-114581939D01*
X100435000Y-114378061D01*
X100395226Y-114178102D01*
X100317205Y-113989744D01*
X100203937Y-113820226D01*
X100059774Y-113676063D01*
X99890256Y-113562795D01*
X99701898Y-113484774D01*
X99501939Y-113445000D01*
X99298061Y-113445000D01*
X99098102Y-113484774D01*
X98909744Y-113562795D01*
X98740226Y-113676063D01*
X98596063Y-113820226D01*
X98482795Y-113989744D01*
X98404774Y-114178102D01*
X98365000Y-114378061D01*
X98365000Y-114581939D01*
X98404774Y-114781898D01*
X98428841Y-114840000D01*
X81032277Y-114840000D01*
X80837460Y-114820898D01*
X80681105Y-114773692D01*
X80536904Y-114697018D01*
X80410336Y-114593792D01*
X80306232Y-114467951D01*
X80228553Y-114324289D01*
X80180258Y-114168271D01*
X80160000Y-113975527D01*
X80160000Y-111528166D01*
X84651439Y-111528166D01*
X84686550Y-111741588D01*
X84890826Y-111832458D01*
X85108905Y-111881731D01*
X85332406Y-111887511D01*
X85552740Y-111849577D01*
X85761440Y-111769387D01*
X85813450Y-111741588D01*
X85848561Y-111528166D01*
X85250000Y-110929605D01*
X84651439Y-111528166D01*
X80160000Y-111528166D01*
X80160000Y-106888212D01*
X80365000Y-106888212D01*
X80365000Y-107111788D01*
X80408617Y-107331067D01*
X80494176Y-107537624D01*
X80618388Y-107723520D01*
X80776480Y-107881612D01*
X80962376Y-108005824D01*
X81168933Y-108091383D01*
X81388212Y-108135000D01*
X81575584Y-108135000D01*
X81565000Y-108188212D01*
X81565000Y-108411788D01*
X81608617Y-108631067D01*
X81694176Y-108837624D01*
X81818388Y-109023520D01*
X81976480Y-109181612D01*
X82162376Y-109305824D01*
X82368933Y-109391383D01*
X82588212Y-109435000D01*
X82765000Y-109435000D01*
X82765000Y-109611788D01*
X82808617Y-109831067D01*
X82894176Y-110037624D01*
X83018388Y-110223520D01*
X83176480Y-110381612D01*
X83362376Y-110505824D01*
X83568933Y-110591383D01*
X83788212Y-110635000D01*
X84011788Y-110635000D01*
X84118141Y-110613845D01*
X84112489Y-110832406D01*
X84150423Y-111052740D01*
X84230613Y-111261440D01*
X84258412Y-111313450D01*
X84471834Y-111348561D01*
X85070395Y-110750000D01*
X85429605Y-110750000D01*
X86028166Y-111348561D01*
X86241588Y-111313450D01*
X86332458Y-111109174D01*
X86381731Y-110891095D01*
X86387511Y-110667594D01*
X86349577Y-110447260D01*
X86269387Y-110238560D01*
X86241588Y-110186550D01*
X86028166Y-110151439D01*
X85429605Y-110750000D01*
X85070395Y-110750000D01*
X85056253Y-110735858D01*
X85235858Y-110556253D01*
X85250000Y-110570395D01*
X85848561Y-109971834D01*
X85844650Y-109948061D01*
X88715000Y-109948061D01*
X88715000Y-110151939D01*
X88754774Y-110351898D01*
X88832795Y-110540256D01*
X88839306Y-110550000D01*
X88832795Y-110559744D01*
X88754774Y-110748102D01*
X88715000Y-110948061D01*
X88715000Y-111151939D01*
X88754774Y-111351898D01*
X88832795Y-111540256D01*
X88946063Y-111709774D01*
X89090226Y-111853937D01*
X89259744Y-111967205D01*
X89448102Y-112045226D01*
X89648061Y-112085000D01*
X89851939Y-112085000D01*
X90051898Y-112045226D01*
X90240256Y-111967205D01*
X90409774Y-111853937D01*
X90553937Y-111709774D01*
X90595172Y-111648061D01*
X93315000Y-111648061D01*
X93315000Y-111851939D01*
X93354774Y-112051898D01*
X93432795Y-112240256D01*
X93546063Y-112409774D01*
X93690226Y-112553937D01*
X93859744Y-112667205D01*
X94048102Y-112745226D01*
X94248061Y-112785000D01*
X94451939Y-112785000D01*
X94651898Y-112745226D01*
X94840256Y-112667205D01*
X95009774Y-112553937D01*
X95140217Y-112423494D01*
X95198061Y-112435000D01*
X95401939Y-112435000D01*
X95601898Y-112395226D01*
X95790256Y-112317205D01*
X95959774Y-112203937D01*
X96103937Y-112059774D01*
X96217205Y-111890256D01*
X96295226Y-111701898D01*
X96335000Y-111501939D01*
X96335000Y-111298061D01*
X96295226Y-111098102D01*
X96217205Y-110909744D01*
X96103937Y-110740226D01*
X95959774Y-110596063D01*
X95790256Y-110482795D01*
X95601898Y-110404774D01*
X95401939Y-110365000D01*
X95198061Y-110365000D01*
X94998102Y-110404774D01*
X94809744Y-110482795D01*
X94640226Y-110596063D01*
X94509783Y-110726506D01*
X94451939Y-110715000D01*
X94248061Y-110715000D01*
X94048102Y-110754774D01*
X93859744Y-110832795D01*
X93690226Y-110946063D01*
X93546063Y-111090226D01*
X93432795Y-111259744D01*
X93354774Y-111448102D01*
X93315000Y-111648061D01*
X90595172Y-111648061D01*
X90667205Y-111540256D01*
X90745226Y-111351898D01*
X90785000Y-111151939D01*
X90785000Y-110948061D01*
X90745226Y-110748102D01*
X90667205Y-110559744D01*
X90660694Y-110550000D01*
X90667205Y-110540256D01*
X90745226Y-110351898D01*
X90746196Y-110347020D01*
X103776626Y-110347020D01*
X104875000Y-111445395D01*
X105973374Y-110347020D01*
X105853486Y-110062164D01*
X105529790Y-109901301D01*
X105180931Y-109806678D01*
X104820316Y-109781933D01*
X104461802Y-109828015D01*
X104119167Y-109943154D01*
X103896514Y-110062164D01*
X103776626Y-110347020D01*
X90746196Y-110347020D01*
X90785000Y-110151939D01*
X90785000Y-109948061D01*
X90745226Y-109748102D01*
X90667205Y-109559744D01*
X90553937Y-109390226D01*
X90409774Y-109246063D01*
X90240256Y-109132795D01*
X90051898Y-109054774D01*
X89851939Y-109015000D01*
X89648061Y-109015000D01*
X89448102Y-109054774D01*
X89259744Y-109132795D01*
X89090226Y-109246063D01*
X88946063Y-109390226D01*
X88832795Y-109559744D01*
X88754774Y-109748102D01*
X88715000Y-109948061D01*
X85844650Y-109948061D01*
X85813450Y-109758412D01*
X85609174Y-109667542D01*
X85391095Y-109618269D01*
X85167594Y-109612489D01*
X85030154Y-109636152D01*
X85035000Y-109611788D01*
X85035000Y-109388212D01*
X84991383Y-109168933D01*
X84905824Y-108962376D01*
X84796032Y-108798061D01*
X111515000Y-108798061D01*
X111515000Y-109001939D01*
X111554774Y-109201898D01*
X111632795Y-109390256D01*
X111746063Y-109559774D01*
X111890226Y-109703937D01*
X112059744Y-109817205D01*
X112248102Y-109895226D01*
X112448061Y-109935000D01*
X112651939Y-109935000D01*
X112851898Y-109895226D01*
X113040256Y-109817205D01*
X113209774Y-109703937D01*
X113353937Y-109559774D01*
X113467205Y-109390256D01*
X113545226Y-109201898D01*
X113585000Y-109001939D01*
X113585000Y-108798061D01*
X113545226Y-108598102D01*
X113467205Y-108409744D01*
X113353937Y-108240226D01*
X113209774Y-108096063D01*
X113040256Y-107982795D01*
X112851898Y-107904774D01*
X112651939Y-107865000D01*
X112448061Y-107865000D01*
X112248102Y-107904774D01*
X112059744Y-107982795D01*
X111890226Y-108096063D01*
X111746063Y-108240226D01*
X111632795Y-108409744D01*
X111554774Y-108598102D01*
X111515000Y-108798061D01*
X84796032Y-108798061D01*
X84781612Y-108776480D01*
X84623520Y-108618388D01*
X84437624Y-108494176D01*
X84231067Y-108408617D01*
X84011788Y-108365000D01*
X83835000Y-108365000D01*
X83835000Y-108188212D01*
X83791383Y-107968933D01*
X83705824Y-107762376D01*
X83581612Y-107576480D01*
X83423520Y-107418388D01*
X83237624Y-107294176D01*
X83031067Y-107208617D01*
X82811788Y-107165000D01*
X82624416Y-107165000D01*
X82635000Y-107111788D01*
X82635000Y-106888212D01*
X82591383Y-106668933D01*
X82505824Y-106462376D01*
X82381612Y-106276480D01*
X82223520Y-106118388D01*
X82037624Y-105994176D01*
X81831067Y-105908617D01*
X81611788Y-105865000D01*
X81388212Y-105865000D01*
X81168933Y-105908617D01*
X80962376Y-105994176D01*
X80776480Y-106118388D01*
X80618388Y-106276480D01*
X80494176Y-106462376D01*
X80408617Y-106668933D01*
X80365000Y-106888212D01*
X80160000Y-106888212D01*
X80160000Y-105217150D01*
X80309744Y-105317205D01*
X80498102Y-105395226D01*
X80698061Y-105435000D01*
X80901939Y-105435000D01*
X81101898Y-105395226D01*
X81215763Y-105348061D01*
X84365000Y-105348061D01*
X84365000Y-105551939D01*
X84404774Y-105751898D01*
X84482795Y-105940256D01*
X84596063Y-106109774D01*
X84740226Y-106253937D01*
X84909744Y-106367205D01*
X85098102Y-106445226D01*
X85298061Y-106485000D01*
X85401413Y-106485000D01*
X85404774Y-106501898D01*
X85482795Y-106690256D01*
X85596063Y-106859774D01*
X85740226Y-107003937D01*
X85909744Y-107117205D01*
X86098102Y-107195226D01*
X86298061Y-107235000D01*
X86501939Y-107235000D01*
X86701898Y-107195226D01*
X86890256Y-107117205D01*
X87059774Y-107003937D01*
X87203937Y-106859774D01*
X87317205Y-106690256D01*
X87395226Y-106501898D01*
X87435000Y-106301939D01*
X87435000Y-106098061D01*
X87415521Y-106000128D01*
X109831921Y-106000128D01*
X109855853Y-106162858D01*
X109911072Y-106317792D01*
X109950869Y-106392247D01*
X110140121Y-106386641D01*
X110566762Y-105960000D01*
X110140121Y-105533359D01*
X109950869Y-105527753D01*
X109880360Y-105676354D01*
X109840195Y-105835855D01*
X109831921Y-106000128D01*
X87415521Y-106000128D01*
X87395226Y-105898102D01*
X87317205Y-105709744D01*
X87203937Y-105540226D01*
X87059774Y-105396063D01*
X86890256Y-105282795D01*
X86789039Y-105240869D01*
X110237753Y-105240869D01*
X110243359Y-105430121D01*
X110670000Y-105856762D01*
X110722326Y-105804436D01*
X110825564Y-105907674D01*
X110773238Y-105960000D01*
X110825564Y-106012326D01*
X110722326Y-106115564D01*
X110670000Y-106063238D01*
X110243359Y-106489879D01*
X110237753Y-106679131D01*
X110386354Y-106749640D01*
X110545855Y-106789805D01*
X110710128Y-106798079D01*
X110872858Y-106774147D01*
X111027792Y-106718928D01*
X111102247Y-106679131D01*
X111099159Y-106574873D01*
X111166947Y-106642661D01*
X111170000Y-106639608D01*
X111173053Y-106642661D01*
X111240841Y-106574873D01*
X111237753Y-106679131D01*
X111386354Y-106749640D01*
X111545855Y-106789805D01*
X111710128Y-106798079D01*
X111872858Y-106774147D01*
X112027792Y-106718928D01*
X112102247Y-106679131D01*
X112096641Y-106489879D01*
X111670000Y-106063238D01*
X111617674Y-106115564D01*
X111514436Y-106012326D01*
X111566762Y-105960000D01*
X111773238Y-105960000D01*
X112199879Y-106386641D01*
X112389131Y-106392247D01*
X112459640Y-106243646D01*
X112499805Y-106084145D01*
X112508079Y-105919872D01*
X112484147Y-105757142D01*
X112428928Y-105602208D01*
X112389131Y-105527753D01*
X112199879Y-105533359D01*
X111773238Y-105960000D01*
X111566762Y-105960000D01*
X111514436Y-105907674D01*
X111617674Y-105804436D01*
X111670000Y-105856762D01*
X112096641Y-105430121D01*
X112102247Y-105240869D01*
X111953646Y-105170360D01*
X111794145Y-105130195D01*
X111629872Y-105121921D01*
X111467142Y-105145853D01*
X111312208Y-105201072D01*
X111237753Y-105240869D01*
X111240841Y-105345127D01*
X111173053Y-105277339D01*
X111170000Y-105280392D01*
X111166947Y-105277339D01*
X111099159Y-105345127D01*
X111102247Y-105240869D01*
X110953646Y-105170360D01*
X110794145Y-105130195D01*
X110629872Y-105121921D01*
X110467142Y-105145853D01*
X110312208Y-105201072D01*
X110237753Y-105240869D01*
X86789039Y-105240869D01*
X86701898Y-105204774D01*
X86501939Y-105165000D01*
X86398587Y-105165000D01*
X86395226Y-105148102D01*
X86317205Y-104959744D01*
X86203937Y-104790226D01*
X86059774Y-104646063D01*
X85890256Y-104532795D01*
X85701898Y-104454774D01*
X85501939Y-104415000D01*
X85298061Y-104415000D01*
X85098102Y-104454774D01*
X84909744Y-104532795D01*
X84740226Y-104646063D01*
X84596063Y-104790226D01*
X84482795Y-104959744D01*
X84404774Y-105148102D01*
X84365000Y-105348061D01*
X81215763Y-105348061D01*
X81290256Y-105317205D01*
X81459774Y-105203937D01*
X81603937Y-105059774D01*
X81717205Y-104890256D01*
X81795226Y-104701898D01*
X81835000Y-104501939D01*
X81835000Y-104298061D01*
X81815109Y-104198061D01*
X82365000Y-104198061D01*
X82365000Y-104401939D01*
X82404774Y-104601898D01*
X82482795Y-104790256D01*
X82596063Y-104959774D01*
X82740226Y-105103937D01*
X82909744Y-105217205D01*
X83098102Y-105295226D01*
X83298061Y-105335000D01*
X83501939Y-105335000D01*
X83701898Y-105295226D01*
X83890256Y-105217205D01*
X84059774Y-105103937D01*
X84203937Y-104959774D01*
X84317205Y-104790256D01*
X84395226Y-104601898D01*
X84435000Y-104401939D01*
X84435000Y-104198061D01*
X84395226Y-103998102D01*
X84317205Y-103809744D01*
X84203937Y-103640226D01*
X84059774Y-103496063D01*
X83890256Y-103382795D01*
X83701898Y-103304774D01*
X83501939Y-103265000D01*
X83298061Y-103265000D01*
X83098102Y-103304774D01*
X82909744Y-103382795D01*
X82740226Y-103496063D01*
X82596063Y-103640226D01*
X82482795Y-103809744D01*
X82404774Y-103998102D01*
X82365000Y-104198061D01*
X81815109Y-104198061D01*
X81795226Y-104098102D01*
X81717205Y-103909744D01*
X81603937Y-103740226D01*
X81459774Y-103596063D01*
X81290256Y-103482795D01*
X81101898Y-103404774D01*
X80901939Y-103365000D01*
X80698061Y-103365000D01*
X80498102Y-103404774D01*
X80309744Y-103482795D01*
X80160000Y-103582850D01*
X80160000Y-102398061D01*
X89465000Y-102398061D01*
X89465000Y-102601939D01*
X89504774Y-102801898D01*
X89582795Y-102990256D01*
X89696063Y-103159774D01*
X89840226Y-103303937D01*
X90009744Y-103417205D01*
X90198102Y-103495226D01*
X90398061Y-103535000D01*
X90564914Y-103535000D01*
X90504479Y-103560033D01*
X90367719Y-103651413D01*
X90251413Y-103767719D01*
X90160033Y-103904479D01*
X90097089Y-104056440D01*
X90065000Y-104217760D01*
X90065000Y-104382240D01*
X90097089Y-104543560D01*
X90160033Y-104695521D01*
X90251413Y-104832281D01*
X90367719Y-104948587D01*
X90504479Y-105039967D01*
X90656440Y-105102911D01*
X90817760Y-105135000D01*
X90982240Y-105135000D01*
X91143560Y-105102911D01*
X91295521Y-105039967D01*
X91432281Y-104948587D01*
X91548587Y-104832281D01*
X91639967Y-104695521D01*
X91702911Y-104543560D01*
X91735000Y-104382240D01*
X91735000Y-104217760D01*
X91702911Y-104056440D01*
X91639967Y-103904479D01*
X91548587Y-103767719D01*
X91432281Y-103651413D01*
X91295521Y-103560033D01*
X91143560Y-103497089D01*
X90982240Y-103465000D01*
X90874869Y-103465000D01*
X90990256Y-103417205D01*
X91159774Y-103303937D01*
X91303937Y-103159774D01*
X91417205Y-102990256D01*
X91495226Y-102801898D01*
X91525825Y-102648061D01*
X108765000Y-102648061D01*
X108765000Y-102851939D01*
X108804774Y-103051898D01*
X108882795Y-103240256D01*
X108996063Y-103409774D01*
X109140226Y-103553937D01*
X109309744Y-103667205D01*
X109498102Y-103745226D01*
X109698061Y-103785000D01*
X109901939Y-103785000D01*
X110101898Y-103745226D01*
X110290256Y-103667205D01*
X110459774Y-103553937D01*
X110603937Y-103409774D01*
X110717205Y-103240256D01*
X110795226Y-103051898D01*
X110835000Y-102851939D01*
X110835000Y-102648061D01*
X110795226Y-102448102D01*
X110717205Y-102259744D01*
X110603937Y-102090226D01*
X110459774Y-101946063D01*
X110290256Y-101832795D01*
X110101898Y-101754774D01*
X109901939Y-101715000D01*
X109698061Y-101715000D01*
X109498102Y-101754774D01*
X109309744Y-101832795D01*
X109140226Y-101946063D01*
X108996063Y-102090226D01*
X108882795Y-102259744D01*
X108804774Y-102448102D01*
X108765000Y-102648061D01*
X91525825Y-102648061D01*
X91535000Y-102601939D01*
X91535000Y-102398061D01*
X91495226Y-102198102D01*
X91417205Y-102009744D01*
X91303937Y-101840226D01*
X91159774Y-101696063D01*
X90990256Y-101582795D01*
X90801898Y-101504774D01*
X90601939Y-101465000D01*
X90398061Y-101465000D01*
X90198102Y-101504774D01*
X90009744Y-101582795D01*
X89840226Y-101696063D01*
X89696063Y-101840226D01*
X89582795Y-102009744D01*
X89504774Y-102198102D01*
X89465000Y-102398061D01*
X80160000Y-102398061D01*
X80160000Y-99204164D01*
X101389784Y-99204164D01*
X101393826Y-99392827D01*
X101554974Y-99459328D01*
X101725998Y-99493113D01*
X101900328Y-99492884D01*
X102071264Y-99458649D01*
X102230174Y-99392827D01*
X102234216Y-99204164D01*
X102489784Y-99204164D01*
X102493826Y-99392827D01*
X102654974Y-99459328D01*
X102825998Y-99493113D01*
X103000328Y-99492884D01*
X103171264Y-99458649D01*
X103330174Y-99392827D01*
X103334216Y-99204164D01*
X102912000Y-98781948D01*
X102489784Y-99204164D01*
X102234216Y-99204164D01*
X101812000Y-98781948D01*
X101389784Y-99204164D01*
X80160000Y-99204164D01*
X80160000Y-97848061D01*
X83315000Y-97848061D01*
X83315000Y-98051939D01*
X83354774Y-98251898D01*
X83432795Y-98440256D01*
X83546063Y-98609774D01*
X83690226Y-98753937D01*
X83859744Y-98867205D01*
X84048102Y-98945226D01*
X84248061Y-98985000D01*
X84451939Y-98985000D01*
X84651898Y-98945226D01*
X84840256Y-98867205D01*
X85009774Y-98753937D01*
X85153937Y-98609774D01*
X85212586Y-98521998D01*
X100926887Y-98521998D01*
X100927116Y-98696328D01*
X100961351Y-98867264D01*
X101027173Y-99026174D01*
X101215836Y-99030216D01*
X101638052Y-98608000D01*
X101985948Y-98608000D01*
X102027054Y-98649106D01*
X102027116Y-98696328D01*
X102061351Y-98867264D01*
X102127173Y-99026174D01*
X102315836Y-99030216D01*
X102362000Y-98984052D01*
X102408164Y-99030216D01*
X102596827Y-99026174D01*
X102663328Y-98865026D01*
X102697113Y-98694002D01*
X102697054Y-98648998D01*
X102738052Y-98608000D01*
X103085948Y-98608000D01*
X103508164Y-99030216D01*
X103696827Y-99026174D01*
X103763328Y-98865026D01*
X103797113Y-98694002D01*
X103796884Y-98519672D01*
X103762649Y-98348736D01*
X103696827Y-98189826D01*
X103508164Y-98185784D01*
X103085948Y-98608000D01*
X102738052Y-98608000D01*
X102696946Y-98566894D01*
X102696884Y-98519672D01*
X102662649Y-98348736D01*
X102596827Y-98189826D01*
X102408164Y-98185784D01*
X102362000Y-98231948D01*
X102315836Y-98185784D01*
X102127173Y-98189826D01*
X102060672Y-98350974D01*
X102026887Y-98521998D01*
X102026946Y-98567002D01*
X101985948Y-98608000D01*
X101638052Y-98608000D01*
X101215836Y-98185784D01*
X101027173Y-98189826D01*
X100960672Y-98350974D01*
X100926887Y-98521998D01*
X85212586Y-98521998D01*
X85267205Y-98440256D01*
X85345226Y-98251898D01*
X85385000Y-98051939D01*
X85385000Y-98011836D01*
X101389784Y-98011836D01*
X101812000Y-98434052D01*
X102234216Y-98011836D01*
X102489784Y-98011836D01*
X102912000Y-98434052D01*
X103334216Y-98011836D01*
X103330174Y-97823173D01*
X103169026Y-97756672D01*
X102998002Y-97722887D01*
X102823672Y-97723116D01*
X102652736Y-97757351D01*
X102493826Y-97823173D01*
X102489784Y-98011836D01*
X102234216Y-98011836D01*
X102230174Y-97823173D01*
X102069026Y-97756672D01*
X101898002Y-97722887D01*
X101723672Y-97723116D01*
X101552736Y-97757351D01*
X101393826Y-97823173D01*
X101389784Y-98011836D01*
X85385000Y-98011836D01*
X85385000Y-97848061D01*
X85345226Y-97648102D01*
X85267205Y-97459744D01*
X85153937Y-97290226D01*
X85041691Y-97177980D01*
X104751626Y-97177980D01*
X104871514Y-97462836D01*
X105195210Y-97623699D01*
X105544069Y-97718322D01*
X105723921Y-97730663D01*
X105689774Y-97813102D01*
X105682860Y-97847860D01*
X105648102Y-97854774D01*
X105459744Y-97932795D01*
X105290226Y-98046063D01*
X105146063Y-98190226D01*
X105032795Y-98359744D01*
X104954774Y-98548102D01*
X104915000Y-98748061D01*
X104915000Y-98951939D01*
X104954774Y-99151898D01*
X105032795Y-99340256D01*
X105146063Y-99509774D01*
X105290226Y-99653937D01*
X105459744Y-99767205D01*
X105648102Y-99845226D01*
X105848061Y-99885000D01*
X106051939Y-99885000D01*
X106251898Y-99845226D01*
X106440256Y-99767205D01*
X106609774Y-99653937D01*
X106753937Y-99509774D01*
X106867205Y-99340256D01*
X106945226Y-99151898D01*
X106952140Y-99117140D01*
X106986898Y-99110226D01*
X107175256Y-99032205D01*
X107283853Y-98959643D01*
X107291585Y-98995987D01*
X107379997Y-99201678D01*
X107506839Y-99386169D01*
X107667236Y-99542369D01*
X107855024Y-99664276D01*
X108078126Y-99744119D01*
X108253000Y-99617954D01*
X108253000Y-98477000D01*
X108507000Y-98477000D01*
X108507000Y-99617954D01*
X108681874Y-99744119D01*
X108904976Y-99664276D01*
X109092764Y-99542369D01*
X109253161Y-99386169D01*
X109380003Y-99201678D01*
X109468415Y-98995987D01*
X109515000Y-98777000D01*
X109515000Y-98477000D01*
X108507000Y-98477000D01*
X108253000Y-98477000D01*
X108233000Y-98477000D01*
X108233000Y-98223000D01*
X108253000Y-98223000D01*
X108253000Y-97082046D01*
X108507000Y-97082046D01*
X108507000Y-98223000D01*
X109515000Y-98223000D01*
X109515000Y-97923000D01*
X109468415Y-97704013D01*
X109380003Y-97498322D01*
X109276695Y-97348061D01*
X110165000Y-97348061D01*
X110165000Y-97551939D01*
X110204774Y-97751898D01*
X110282795Y-97940256D01*
X110396063Y-98109774D01*
X110540226Y-98253937D01*
X110709744Y-98367205D01*
X110898102Y-98445226D01*
X111098061Y-98485000D01*
X111301939Y-98485000D01*
X111501898Y-98445226D01*
X111690256Y-98367205D01*
X111859774Y-98253937D01*
X112003937Y-98109774D01*
X112117205Y-97940256D01*
X112195226Y-97751898D01*
X112235000Y-97551939D01*
X112235000Y-97348061D01*
X113165000Y-97348061D01*
X113165000Y-97551939D01*
X113204774Y-97751898D01*
X113282795Y-97940256D01*
X113396063Y-98109774D01*
X113540226Y-98253937D01*
X113709744Y-98367205D01*
X113898102Y-98445226D01*
X114098061Y-98485000D01*
X114301939Y-98485000D01*
X114342158Y-98477000D01*
X115885000Y-98477000D01*
X115885000Y-98777000D01*
X115931585Y-98995987D01*
X116019997Y-99201678D01*
X116146839Y-99386169D01*
X116307236Y-99542369D01*
X116495024Y-99664276D01*
X116718126Y-99744119D01*
X116893000Y-99617954D01*
X116893000Y-98477000D01*
X117147000Y-98477000D01*
X117147000Y-99617954D01*
X117321874Y-99744119D01*
X117544976Y-99664276D01*
X117732764Y-99542369D01*
X117893161Y-99386169D01*
X118020003Y-99201678D01*
X118108415Y-98995987D01*
X118155000Y-98777000D01*
X118155000Y-98477000D01*
X117147000Y-98477000D01*
X116893000Y-98477000D01*
X115885000Y-98477000D01*
X114342158Y-98477000D01*
X114501898Y-98445226D01*
X114690256Y-98367205D01*
X114859774Y-98253937D01*
X115003937Y-98109774D01*
X115117205Y-97940256D01*
X115124352Y-97923000D01*
X115885000Y-97923000D01*
X115885000Y-98223000D01*
X116893000Y-98223000D01*
X116893000Y-97082046D01*
X117147000Y-97082046D01*
X117147000Y-98223000D01*
X118155000Y-98223000D01*
X118155000Y-97923000D01*
X118108415Y-97704013D01*
X118020003Y-97498322D01*
X117893161Y-97313831D01*
X117732764Y-97157631D01*
X117544976Y-97035724D01*
X117321874Y-96955881D01*
X117147000Y-97082046D01*
X116893000Y-97082046D01*
X116718126Y-96955881D01*
X116495024Y-97035724D01*
X116307236Y-97157631D01*
X116146839Y-97313831D01*
X116019997Y-97498322D01*
X115931585Y-97704013D01*
X115885000Y-97923000D01*
X115124352Y-97923000D01*
X115195226Y-97751898D01*
X115235000Y-97551939D01*
X115235000Y-97348061D01*
X115195226Y-97148102D01*
X115117205Y-96959744D01*
X115003937Y-96790226D01*
X114859774Y-96646063D01*
X114690256Y-96532795D01*
X114501898Y-96454774D01*
X114301939Y-96415000D01*
X114098061Y-96415000D01*
X113898102Y-96454774D01*
X113709744Y-96532795D01*
X113540226Y-96646063D01*
X113396063Y-96790226D01*
X113282795Y-96959744D01*
X113204774Y-97148102D01*
X113165000Y-97348061D01*
X112235000Y-97348061D01*
X112195226Y-97148102D01*
X112117205Y-96959744D01*
X112003937Y-96790226D01*
X111859774Y-96646063D01*
X111690256Y-96532795D01*
X111501898Y-96454774D01*
X111301939Y-96415000D01*
X111098061Y-96415000D01*
X110898102Y-96454774D01*
X110709744Y-96532795D01*
X110540226Y-96646063D01*
X110396063Y-96790226D01*
X110282795Y-96959744D01*
X110204774Y-97148102D01*
X110165000Y-97348061D01*
X109276695Y-97348061D01*
X109253161Y-97313831D01*
X109092764Y-97157631D01*
X108904976Y-97035724D01*
X108681874Y-96955881D01*
X108507000Y-97082046D01*
X108253000Y-97082046D01*
X108078126Y-96955881D01*
X107855024Y-97035724D01*
X107667236Y-97157631D01*
X107506839Y-97313831D01*
X107441939Y-97408228D01*
X107344774Y-97311063D01*
X107175256Y-97197795D01*
X107163742Y-97193026D01*
X107243188Y-97113580D01*
X107127981Y-96998373D01*
X107412836Y-96878486D01*
X107573699Y-96554790D01*
X107668322Y-96205931D01*
X107693067Y-95845316D01*
X107680982Y-95751292D01*
X107855024Y-95864276D01*
X108078126Y-95944119D01*
X108253000Y-95817954D01*
X108253000Y-94677000D01*
X108507000Y-94677000D01*
X108507000Y-95817954D01*
X108681874Y-95944119D01*
X108904976Y-95864276D01*
X109092764Y-95742369D01*
X109253161Y-95586169D01*
X109380003Y-95401678D01*
X109468415Y-95195987D01*
X109515000Y-94977000D01*
X109515000Y-94677000D01*
X115885000Y-94677000D01*
X115885000Y-94977000D01*
X115931585Y-95195987D01*
X116019997Y-95401678D01*
X116146839Y-95586169D01*
X116307236Y-95742369D01*
X116495024Y-95864276D01*
X116718126Y-95944119D01*
X116893000Y-95817954D01*
X116893000Y-94677000D01*
X117147000Y-94677000D01*
X117147000Y-95817954D01*
X117321874Y-95944119D01*
X117544976Y-95864276D01*
X117732764Y-95742369D01*
X117893161Y-95586169D01*
X118020003Y-95401678D01*
X118108415Y-95195987D01*
X118155000Y-94977000D01*
X118155000Y-94677000D01*
X117147000Y-94677000D01*
X116893000Y-94677000D01*
X115885000Y-94677000D01*
X109515000Y-94677000D01*
X108507000Y-94677000D01*
X108253000Y-94677000D01*
X107245000Y-94677000D01*
X107245000Y-94850876D01*
X107127980Y-94801626D01*
X106029605Y-95900000D01*
X106043748Y-95914142D01*
X105864142Y-96093748D01*
X105850000Y-96079605D01*
X104751626Y-97177980D01*
X85041691Y-97177980D01*
X85009774Y-97146063D01*
X84840256Y-97032795D01*
X84651898Y-96954774D01*
X84451939Y-96915000D01*
X84248061Y-96915000D01*
X84048102Y-96954774D01*
X83859744Y-97032795D01*
X83690226Y-97146063D01*
X83546063Y-97290226D01*
X83432795Y-97459744D01*
X83354774Y-97648102D01*
X83315000Y-97848061D01*
X80160000Y-97848061D01*
X80160000Y-95954684D01*
X104006933Y-95954684D01*
X104053015Y-96313198D01*
X104168154Y-96655833D01*
X104287164Y-96878486D01*
X104572020Y-96998374D01*
X105670395Y-95900000D01*
X104572020Y-94801626D01*
X104287164Y-94921514D01*
X104126301Y-95245210D01*
X104031678Y-95594069D01*
X104006933Y-95954684D01*
X80160000Y-95954684D01*
X80160000Y-95532279D01*
X80188625Y-95240341D01*
X80264035Y-94990571D01*
X80386522Y-94760208D01*
X80551422Y-94558020D01*
X80752450Y-94391714D01*
X80981954Y-94267622D01*
X81231195Y-94190469D01*
X81521088Y-94160000D01*
X84382516Y-94160000D01*
X84365000Y-94248061D01*
G37*
G04 #@! TD.AperFunction*
M02*
