G04 #@! TF.GenerationSoftware,KiCad,Pcbnew,(5.1.9)-1*
G04 #@! TF.CreationDate,2021-04-01T08:38:23-07:00*
G04 #@! TF.ProjectId,rgba,72676261-2e6b-4696-9361-645f70636258,1.1*
G04 #@! TF.SameCoordinates,Original*
G04 #@! TF.FileFunction,Copper,L1,Top*
G04 #@! TF.FilePolarity,Positive*
%FSLAX46Y46*%
G04 Gerber Fmt 4.6, Leading zero omitted, Abs format (unit mm)*
G04 Created by KiCad (PCBNEW (5.1.9)-1) date 2021-04-01 08:38:23*
%MOMM*%
%LPD*%
G01*
G04 APERTURE LIST*
G04 #@! TA.AperFunction,ComponentPad*
%ADD10C,0.400000*%
G04 #@! TD*
G04 #@! TA.AperFunction,ComponentPad*
%ADD11C,2.400000*%
G04 #@! TD*
G04 #@! TA.AperFunction,SMDPad,CuDef*
%ADD12R,0.450000X1.450000*%
G04 #@! TD*
G04 #@! TA.AperFunction,SMDPad,CuDef*
%ADD13R,1.600000X1.000000*%
G04 #@! TD*
G04 #@! TA.AperFunction,ComponentPad*
%ADD14C,0.500000*%
G04 #@! TD*
G04 #@! TA.AperFunction,SMDPad,CuDef*
%ADD15R,3.450000X3.450000*%
G04 #@! TD*
G04 #@! TA.AperFunction,SMDPad,CuDef*
%ADD16R,0.860000X0.270000*%
G04 #@! TD*
G04 #@! TA.AperFunction,SMDPad,CuDef*
%ADD17R,2.800000X1.600000*%
G04 #@! TD*
G04 #@! TA.AperFunction,SMDPad,CuDef*
%ADD18O,2.800000X1.600000*%
G04 #@! TD*
G04 #@! TA.AperFunction,ComponentPad*
%ADD19O,1.000000X1.600000*%
G04 #@! TD*
G04 #@! TA.AperFunction,ComponentPad*
%ADD20C,1.000000*%
G04 #@! TD*
G04 #@! TA.AperFunction,ViaPad*
%ADD21C,0.800000*%
G04 #@! TD*
G04 #@! TA.AperFunction,ViaPad*
%ADD22C,0.400000*%
G04 #@! TD*
G04 #@! TA.AperFunction,Conductor*
%ADD23C,0.250000*%
G04 #@! TD*
G04 #@! TA.AperFunction,Conductor*
%ADD24C,0.500000*%
G04 #@! TD*
G04 APERTURE END LIST*
D10*
X111670000Y-105460000D03*
X110670000Y-105460000D03*
D11*
X104875000Y-111125000D03*
D12*
X112284000Y-103076000D03*
X111634000Y-103076000D03*
X110984000Y-103076000D03*
X110334000Y-103076000D03*
X110334000Y-107476000D03*
X110984000Y-107476000D03*
X111634000Y-107476000D03*
X112284000Y-107476000D03*
G04 #@! TA.AperFunction,SMDPad,CuDef*
G36*
G01*
X102912000Y-97308000D02*
X103112000Y-97308000D01*
G75*
G02*
X103212000Y-97408000I0J-100000D01*
G01*
X103212000Y-97808000D01*
G75*
G02*
X103112000Y-97908000I-100000J0D01*
G01*
X102912000Y-97908000D01*
G75*
G02*
X102812000Y-97808000I0J100000D01*
G01*
X102812000Y-97408000D01*
G75*
G02*
X102912000Y-97308000I100000J0D01*
G01*
G37*
G04 #@! TD.AperFunction*
G04 #@! TA.AperFunction,SMDPad,CuDef*
G36*
G01*
X102262000Y-97308000D02*
X102462000Y-97308000D01*
G75*
G02*
X102562000Y-97408000I0J-100000D01*
G01*
X102562000Y-97808000D01*
G75*
G02*
X102462000Y-97908000I-100000J0D01*
G01*
X102262000Y-97908000D01*
G75*
G02*
X102162000Y-97808000I0J100000D01*
G01*
X102162000Y-97408000D01*
G75*
G02*
X102262000Y-97308000I100000J0D01*
G01*
G37*
G04 #@! TD.AperFunction*
G04 #@! TA.AperFunction,SMDPad,CuDef*
G36*
G01*
X101612000Y-97308000D02*
X101812000Y-97308000D01*
G75*
G02*
X101912000Y-97408000I0J-100000D01*
G01*
X101912000Y-97808000D01*
G75*
G02*
X101812000Y-97908000I-100000J0D01*
G01*
X101612000Y-97908000D01*
G75*
G02*
X101512000Y-97808000I0J100000D01*
G01*
X101512000Y-97408000D01*
G75*
G02*
X101612000Y-97308000I100000J0D01*
G01*
G37*
G04 #@! TD.AperFunction*
G04 #@! TA.AperFunction,SMDPad,CuDef*
G36*
G01*
X101612000Y-99308000D02*
X101812000Y-99308000D01*
G75*
G02*
X101912000Y-99408000I0J-100000D01*
G01*
X101912000Y-99808000D01*
G75*
G02*
X101812000Y-99908000I-100000J0D01*
G01*
X101612000Y-99908000D01*
G75*
G02*
X101512000Y-99808000I0J100000D01*
G01*
X101512000Y-99408000D01*
G75*
G02*
X101612000Y-99308000I100000J0D01*
G01*
G37*
G04 #@! TD.AperFunction*
G04 #@! TA.AperFunction,SMDPad,CuDef*
G36*
G01*
X102262000Y-99308000D02*
X102462000Y-99308000D01*
G75*
G02*
X102562000Y-99408000I0J-100000D01*
G01*
X102562000Y-99808000D01*
G75*
G02*
X102462000Y-99908000I-100000J0D01*
G01*
X102262000Y-99908000D01*
G75*
G02*
X102162000Y-99808000I0J100000D01*
G01*
X102162000Y-99408000D01*
G75*
G02*
X102262000Y-99308000I100000J0D01*
G01*
G37*
G04 #@! TD.AperFunction*
G04 #@! TA.AperFunction,SMDPad,CuDef*
G36*
G01*
X102912000Y-99308000D02*
X103112000Y-99308000D01*
G75*
G02*
X103212000Y-99408000I0J-100000D01*
G01*
X103212000Y-99808000D01*
G75*
G02*
X103112000Y-99908000I-100000J0D01*
G01*
X102912000Y-99908000D01*
G75*
G02*
X102812000Y-99808000I0J100000D01*
G01*
X102812000Y-99408000D01*
G75*
G02*
X102912000Y-99308000I100000J0D01*
G01*
G37*
G04 #@! TD.AperFunction*
D13*
X102362000Y-98608000D03*
D14*
X102912000Y-98608000D03*
X101812000Y-98608000D03*
G04 #@! TA.AperFunction,SMDPad,CuDef*
G36*
G01*
X92730500Y-108532000D02*
X92605500Y-108532000D01*
G75*
G02*
X92543000Y-108469500I0J62500D01*
G01*
X92543000Y-107719500D01*
G75*
G02*
X92605500Y-107657000I62500J0D01*
G01*
X92730500Y-107657000D01*
G75*
G02*
X92793000Y-107719500I0J-62500D01*
G01*
X92793000Y-108469500D01*
G75*
G02*
X92730500Y-108532000I-62500J0D01*
G01*
G37*
G04 #@! TD.AperFunction*
G04 #@! TA.AperFunction,SMDPad,CuDef*
G36*
G01*
X93230500Y-108532000D02*
X93105500Y-108532000D01*
G75*
G02*
X93043000Y-108469500I0J62500D01*
G01*
X93043000Y-107719500D01*
G75*
G02*
X93105500Y-107657000I62500J0D01*
G01*
X93230500Y-107657000D01*
G75*
G02*
X93293000Y-107719500I0J-62500D01*
G01*
X93293000Y-108469500D01*
G75*
G02*
X93230500Y-108532000I-62500J0D01*
G01*
G37*
G04 #@! TD.AperFunction*
G04 #@! TA.AperFunction,SMDPad,CuDef*
G36*
G01*
X93730500Y-108532000D02*
X93605500Y-108532000D01*
G75*
G02*
X93543000Y-108469500I0J62500D01*
G01*
X93543000Y-107719500D01*
G75*
G02*
X93605500Y-107657000I62500J0D01*
G01*
X93730500Y-107657000D01*
G75*
G02*
X93793000Y-107719500I0J-62500D01*
G01*
X93793000Y-108469500D01*
G75*
G02*
X93730500Y-108532000I-62500J0D01*
G01*
G37*
G04 #@! TD.AperFunction*
G04 #@! TA.AperFunction,SMDPad,CuDef*
G36*
G01*
X94230500Y-108532000D02*
X94105500Y-108532000D01*
G75*
G02*
X94043000Y-108469500I0J62500D01*
G01*
X94043000Y-107719500D01*
G75*
G02*
X94105500Y-107657000I62500J0D01*
G01*
X94230500Y-107657000D01*
G75*
G02*
X94293000Y-107719500I0J-62500D01*
G01*
X94293000Y-108469500D01*
G75*
G02*
X94230500Y-108532000I-62500J0D01*
G01*
G37*
G04 #@! TD.AperFunction*
G04 #@! TA.AperFunction,SMDPad,CuDef*
G36*
G01*
X94730500Y-108532000D02*
X94605500Y-108532000D01*
G75*
G02*
X94543000Y-108469500I0J62500D01*
G01*
X94543000Y-107719500D01*
G75*
G02*
X94605500Y-107657000I62500J0D01*
G01*
X94730500Y-107657000D01*
G75*
G02*
X94793000Y-107719500I0J-62500D01*
G01*
X94793000Y-108469500D01*
G75*
G02*
X94730500Y-108532000I-62500J0D01*
G01*
G37*
G04 #@! TD.AperFunction*
G04 #@! TA.AperFunction,SMDPad,CuDef*
G36*
G01*
X95230500Y-108532000D02*
X95105500Y-108532000D01*
G75*
G02*
X95043000Y-108469500I0J62500D01*
G01*
X95043000Y-107719500D01*
G75*
G02*
X95105500Y-107657000I62500J0D01*
G01*
X95230500Y-107657000D01*
G75*
G02*
X95293000Y-107719500I0J-62500D01*
G01*
X95293000Y-108469500D01*
G75*
G02*
X95230500Y-108532000I-62500J0D01*
G01*
G37*
G04 #@! TD.AperFunction*
G04 #@! TA.AperFunction,SMDPad,CuDef*
G36*
G01*
X95730500Y-108532000D02*
X95605500Y-108532000D01*
G75*
G02*
X95543000Y-108469500I0J62500D01*
G01*
X95543000Y-107719500D01*
G75*
G02*
X95605500Y-107657000I62500J0D01*
G01*
X95730500Y-107657000D01*
G75*
G02*
X95793000Y-107719500I0J-62500D01*
G01*
X95793000Y-108469500D01*
G75*
G02*
X95730500Y-108532000I-62500J0D01*
G01*
G37*
G04 #@! TD.AperFunction*
G04 #@! TA.AperFunction,SMDPad,CuDef*
G36*
G01*
X96230500Y-108532000D02*
X96105500Y-108532000D01*
G75*
G02*
X96043000Y-108469500I0J62500D01*
G01*
X96043000Y-107719500D01*
G75*
G02*
X96105500Y-107657000I62500J0D01*
G01*
X96230500Y-107657000D01*
G75*
G02*
X96293000Y-107719500I0J-62500D01*
G01*
X96293000Y-108469500D01*
G75*
G02*
X96230500Y-108532000I-62500J0D01*
G01*
G37*
G04 #@! TD.AperFunction*
G04 #@! TA.AperFunction,SMDPad,CuDef*
G36*
G01*
X97230500Y-107532000D02*
X96480500Y-107532000D01*
G75*
G02*
X96418000Y-107469500I0J62500D01*
G01*
X96418000Y-107344500D01*
G75*
G02*
X96480500Y-107282000I62500J0D01*
G01*
X97230500Y-107282000D01*
G75*
G02*
X97293000Y-107344500I0J-62500D01*
G01*
X97293000Y-107469500D01*
G75*
G02*
X97230500Y-107532000I-62500J0D01*
G01*
G37*
G04 #@! TD.AperFunction*
G04 #@! TA.AperFunction,SMDPad,CuDef*
G36*
G01*
X97230500Y-107032000D02*
X96480500Y-107032000D01*
G75*
G02*
X96418000Y-106969500I0J62500D01*
G01*
X96418000Y-106844500D01*
G75*
G02*
X96480500Y-106782000I62500J0D01*
G01*
X97230500Y-106782000D01*
G75*
G02*
X97293000Y-106844500I0J-62500D01*
G01*
X97293000Y-106969500D01*
G75*
G02*
X97230500Y-107032000I-62500J0D01*
G01*
G37*
G04 #@! TD.AperFunction*
G04 #@! TA.AperFunction,SMDPad,CuDef*
G36*
G01*
X97230500Y-106532000D02*
X96480500Y-106532000D01*
G75*
G02*
X96418000Y-106469500I0J62500D01*
G01*
X96418000Y-106344500D01*
G75*
G02*
X96480500Y-106282000I62500J0D01*
G01*
X97230500Y-106282000D01*
G75*
G02*
X97293000Y-106344500I0J-62500D01*
G01*
X97293000Y-106469500D01*
G75*
G02*
X97230500Y-106532000I-62500J0D01*
G01*
G37*
G04 #@! TD.AperFunction*
G04 #@! TA.AperFunction,SMDPad,CuDef*
G36*
G01*
X97230500Y-106032000D02*
X96480500Y-106032000D01*
G75*
G02*
X96418000Y-105969500I0J62500D01*
G01*
X96418000Y-105844500D01*
G75*
G02*
X96480500Y-105782000I62500J0D01*
G01*
X97230500Y-105782000D01*
G75*
G02*
X97293000Y-105844500I0J-62500D01*
G01*
X97293000Y-105969500D01*
G75*
G02*
X97230500Y-106032000I-62500J0D01*
G01*
G37*
G04 #@! TD.AperFunction*
G04 #@! TA.AperFunction,SMDPad,CuDef*
G36*
G01*
X97230500Y-105532000D02*
X96480500Y-105532000D01*
G75*
G02*
X96418000Y-105469500I0J62500D01*
G01*
X96418000Y-105344500D01*
G75*
G02*
X96480500Y-105282000I62500J0D01*
G01*
X97230500Y-105282000D01*
G75*
G02*
X97293000Y-105344500I0J-62500D01*
G01*
X97293000Y-105469500D01*
G75*
G02*
X97230500Y-105532000I-62500J0D01*
G01*
G37*
G04 #@! TD.AperFunction*
G04 #@! TA.AperFunction,SMDPad,CuDef*
G36*
G01*
X97230500Y-105032000D02*
X96480500Y-105032000D01*
G75*
G02*
X96418000Y-104969500I0J62500D01*
G01*
X96418000Y-104844500D01*
G75*
G02*
X96480500Y-104782000I62500J0D01*
G01*
X97230500Y-104782000D01*
G75*
G02*
X97293000Y-104844500I0J-62500D01*
G01*
X97293000Y-104969500D01*
G75*
G02*
X97230500Y-105032000I-62500J0D01*
G01*
G37*
G04 #@! TD.AperFunction*
G04 #@! TA.AperFunction,SMDPad,CuDef*
G36*
G01*
X97230500Y-104532000D02*
X96480500Y-104532000D01*
G75*
G02*
X96418000Y-104469500I0J62500D01*
G01*
X96418000Y-104344500D01*
G75*
G02*
X96480500Y-104282000I62500J0D01*
G01*
X97230500Y-104282000D01*
G75*
G02*
X97293000Y-104344500I0J-62500D01*
G01*
X97293000Y-104469500D01*
G75*
G02*
X97230500Y-104532000I-62500J0D01*
G01*
G37*
G04 #@! TD.AperFunction*
G04 #@! TA.AperFunction,SMDPad,CuDef*
G36*
G01*
X97230500Y-104032000D02*
X96480500Y-104032000D01*
G75*
G02*
X96418000Y-103969500I0J62500D01*
G01*
X96418000Y-103844500D01*
G75*
G02*
X96480500Y-103782000I62500J0D01*
G01*
X97230500Y-103782000D01*
G75*
G02*
X97293000Y-103844500I0J-62500D01*
G01*
X97293000Y-103969500D01*
G75*
G02*
X97230500Y-104032000I-62500J0D01*
G01*
G37*
G04 #@! TD.AperFunction*
G04 #@! TA.AperFunction,SMDPad,CuDef*
G36*
G01*
X96230500Y-103657000D02*
X96105500Y-103657000D01*
G75*
G02*
X96043000Y-103594500I0J62500D01*
G01*
X96043000Y-102844500D01*
G75*
G02*
X96105500Y-102782000I62500J0D01*
G01*
X96230500Y-102782000D01*
G75*
G02*
X96293000Y-102844500I0J-62500D01*
G01*
X96293000Y-103594500D01*
G75*
G02*
X96230500Y-103657000I-62500J0D01*
G01*
G37*
G04 #@! TD.AperFunction*
G04 #@! TA.AperFunction,SMDPad,CuDef*
G36*
G01*
X95730500Y-103657000D02*
X95605500Y-103657000D01*
G75*
G02*
X95543000Y-103594500I0J62500D01*
G01*
X95543000Y-102844500D01*
G75*
G02*
X95605500Y-102782000I62500J0D01*
G01*
X95730500Y-102782000D01*
G75*
G02*
X95793000Y-102844500I0J-62500D01*
G01*
X95793000Y-103594500D01*
G75*
G02*
X95730500Y-103657000I-62500J0D01*
G01*
G37*
G04 #@! TD.AperFunction*
G04 #@! TA.AperFunction,SMDPad,CuDef*
G36*
G01*
X95230500Y-103657000D02*
X95105500Y-103657000D01*
G75*
G02*
X95043000Y-103594500I0J62500D01*
G01*
X95043000Y-102844500D01*
G75*
G02*
X95105500Y-102782000I62500J0D01*
G01*
X95230500Y-102782000D01*
G75*
G02*
X95293000Y-102844500I0J-62500D01*
G01*
X95293000Y-103594500D01*
G75*
G02*
X95230500Y-103657000I-62500J0D01*
G01*
G37*
G04 #@! TD.AperFunction*
G04 #@! TA.AperFunction,SMDPad,CuDef*
G36*
G01*
X94730500Y-103657000D02*
X94605500Y-103657000D01*
G75*
G02*
X94543000Y-103594500I0J62500D01*
G01*
X94543000Y-102844500D01*
G75*
G02*
X94605500Y-102782000I62500J0D01*
G01*
X94730500Y-102782000D01*
G75*
G02*
X94793000Y-102844500I0J-62500D01*
G01*
X94793000Y-103594500D01*
G75*
G02*
X94730500Y-103657000I-62500J0D01*
G01*
G37*
G04 #@! TD.AperFunction*
G04 #@! TA.AperFunction,SMDPad,CuDef*
G36*
G01*
X94230500Y-103657000D02*
X94105500Y-103657000D01*
G75*
G02*
X94043000Y-103594500I0J62500D01*
G01*
X94043000Y-102844500D01*
G75*
G02*
X94105500Y-102782000I62500J0D01*
G01*
X94230500Y-102782000D01*
G75*
G02*
X94293000Y-102844500I0J-62500D01*
G01*
X94293000Y-103594500D01*
G75*
G02*
X94230500Y-103657000I-62500J0D01*
G01*
G37*
G04 #@! TD.AperFunction*
G04 #@! TA.AperFunction,SMDPad,CuDef*
G36*
G01*
X93730500Y-103657000D02*
X93605500Y-103657000D01*
G75*
G02*
X93543000Y-103594500I0J62500D01*
G01*
X93543000Y-102844500D01*
G75*
G02*
X93605500Y-102782000I62500J0D01*
G01*
X93730500Y-102782000D01*
G75*
G02*
X93793000Y-102844500I0J-62500D01*
G01*
X93793000Y-103594500D01*
G75*
G02*
X93730500Y-103657000I-62500J0D01*
G01*
G37*
G04 #@! TD.AperFunction*
G04 #@! TA.AperFunction,SMDPad,CuDef*
G36*
G01*
X93230500Y-103657000D02*
X93105500Y-103657000D01*
G75*
G02*
X93043000Y-103594500I0J62500D01*
G01*
X93043000Y-102844500D01*
G75*
G02*
X93105500Y-102782000I62500J0D01*
G01*
X93230500Y-102782000D01*
G75*
G02*
X93293000Y-102844500I0J-62500D01*
G01*
X93293000Y-103594500D01*
G75*
G02*
X93230500Y-103657000I-62500J0D01*
G01*
G37*
G04 #@! TD.AperFunction*
G04 #@! TA.AperFunction,SMDPad,CuDef*
G36*
G01*
X92730500Y-103657000D02*
X92605500Y-103657000D01*
G75*
G02*
X92543000Y-103594500I0J62500D01*
G01*
X92543000Y-102844500D01*
G75*
G02*
X92605500Y-102782000I62500J0D01*
G01*
X92730500Y-102782000D01*
G75*
G02*
X92793000Y-102844500I0J-62500D01*
G01*
X92793000Y-103594500D01*
G75*
G02*
X92730500Y-103657000I-62500J0D01*
G01*
G37*
G04 #@! TD.AperFunction*
G04 #@! TA.AperFunction,SMDPad,CuDef*
G36*
G01*
X92355500Y-104032000D02*
X91605500Y-104032000D01*
G75*
G02*
X91543000Y-103969500I0J62500D01*
G01*
X91543000Y-103844500D01*
G75*
G02*
X91605500Y-103782000I62500J0D01*
G01*
X92355500Y-103782000D01*
G75*
G02*
X92418000Y-103844500I0J-62500D01*
G01*
X92418000Y-103969500D01*
G75*
G02*
X92355500Y-104032000I-62500J0D01*
G01*
G37*
G04 #@! TD.AperFunction*
G04 #@! TA.AperFunction,SMDPad,CuDef*
G36*
G01*
X92355500Y-104532000D02*
X91605500Y-104532000D01*
G75*
G02*
X91543000Y-104469500I0J62500D01*
G01*
X91543000Y-104344500D01*
G75*
G02*
X91605500Y-104282000I62500J0D01*
G01*
X92355500Y-104282000D01*
G75*
G02*
X92418000Y-104344500I0J-62500D01*
G01*
X92418000Y-104469500D01*
G75*
G02*
X92355500Y-104532000I-62500J0D01*
G01*
G37*
G04 #@! TD.AperFunction*
G04 #@! TA.AperFunction,SMDPad,CuDef*
G36*
G01*
X92355500Y-105032000D02*
X91605500Y-105032000D01*
G75*
G02*
X91543000Y-104969500I0J62500D01*
G01*
X91543000Y-104844500D01*
G75*
G02*
X91605500Y-104782000I62500J0D01*
G01*
X92355500Y-104782000D01*
G75*
G02*
X92418000Y-104844500I0J-62500D01*
G01*
X92418000Y-104969500D01*
G75*
G02*
X92355500Y-105032000I-62500J0D01*
G01*
G37*
G04 #@! TD.AperFunction*
G04 #@! TA.AperFunction,SMDPad,CuDef*
G36*
G01*
X92355500Y-105532000D02*
X91605500Y-105532000D01*
G75*
G02*
X91543000Y-105469500I0J62500D01*
G01*
X91543000Y-105344500D01*
G75*
G02*
X91605500Y-105282000I62500J0D01*
G01*
X92355500Y-105282000D01*
G75*
G02*
X92418000Y-105344500I0J-62500D01*
G01*
X92418000Y-105469500D01*
G75*
G02*
X92355500Y-105532000I-62500J0D01*
G01*
G37*
G04 #@! TD.AperFunction*
G04 #@! TA.AperFunction,SMDPad,CuDef*
G36*
G01*
X92355500Y-106032000D02*
X91605500Y-106032000D01*
G75*
G02*
X91543000Y-105969500I0J62500D01*
G01*
X91543000Y-105844500D01*
G75*
G02*
X91605500Y-105782000I62500J0D01*
G01*
X92355500Y-105782000D01*
G75*
G02*
X92418000Y-105844500I0J-62500D01*
G01*
X92418000Y-105969500D01*
G75*
G02*
X92355500Y-106032000I-62500J0D01*
G01*
G37*
G04 #@! TD.AperFunction*
G04 #@! TA.AperFunction,SMDPad,CuDef*
G36*
G01*
X92355500Y-106532000D02*
X91605500Y-106532000D01*
G75*
G02*
X91543000Y-106469500I0J62500D01*
G01*
X91543000Y-106344500D01*
G75*
G02*
X91605500Y-106282000I62500J0D01*
G01*
X92355500Y-106282000D01*
G75*
G02*
X92418000Y-106344500I0J-62500D01*
G01*
X92418000Y-106469500D01*
G75*
G02*
X92355500Y-106532000I-62500J0D01*
G01*
G37*
G04 #@! TD.AperFunction*
G04 #@! TA.AperFunction,SMDPad,CuDef*
G36*
G01*
X92355500Y-107032000D02*
X91605500Y-107032000D01*
G75*
G02*
X91543000Y-106969500I0J62500D01*
G01*
X91543000Y-106844500D01*
G75*
G02*
X91605500Y-106782000I62500J0D01*
G01*
X92355500Y-106782000D01*
G75*
G02*
X92418000Y-106844500I0J-62500D01*
G01*
X92418000Y-106969500D01*
G75*
G02*
X92355500Y-107032000I-62500J0D01*
G01*
G37*
G04 #@! TD.AperFunction*
G04 #@! TA.AperFunction,SMDPad,CuDef*
G36*
G01*
X92355500Y-107532000D02*
X91605500Y-107532000D01*
G75*
G02*
X91543000Y-107469500I0J62500D01*
G01*
X91543000Y-107344500D01*
G75*
G02*
X91605500Y-107282000I62500J0D01*
G01*
X92355500Y-107282000D01*
G75*
G02*
X92418000Y-107344500I0J-62500D01*
G01*
X92418000Y-107469500D01*
G75*
G02*
X92355500Y-107532000I-62500J0D01*
G01*
G37*
G04 #@! TD.AperFunction*
D15*
X94418000Y-105657000D03*
D16*
X93715000Y-96050000D03*
X93715000Y-96550000D03*
X93715000Y-97050000D03*
X93715000Y-97550000D03*
X95085000Y-97550000D03*
X95085000Y-97050000D03*
X95085000Y-96550000D03*
X95085000Y-96050000D03*
D11*
X105600000Y-95450000D03*
D17*
X117450000Y-108500000D03*
X117450000Y-111300000D03*
D18*
X117450000Y-114100000D03*
D17*
X117450000Y-105750000D03*
X117450000Y-102950000D03*
D18*
X117450000Y-100150000D03*
G04 #@! TA.AperFunction,SMDPad,CuDef*
G36*
G01*
X85975000Y-95950000D02*
X85525000Y-95950000D01*
G75*
G02*
X85350000Y-95775000I0J175000D01*
G01*
X85350000Y-95425000D01*
G75*
G02*
X85525000Y-95250000I175000J0D01*
G01*
X85975000Y-95250000D01*
G75*
G02*
X86150000Y-95425000I0J-175000D01*
G01*
X86150000Y-95775000D01*
G75*
G02*
X85975000Y-95950000I-175000J0D01*
G01*
G37*
G04 #@! TD.AperFunction*
G04 #@! TA.AperFunction,SMDPad,CuDef*
G36*
G01*
X85975000Y-99450000D02*
X85525000Y-99450000D01*
G75*
G02*
X85350000Y-99275000I0J175000D01*
G01*
X85350000Y-98925000D01*
G75*
G02*
X85525000Y-98750000I175000J0D01*
G01*
X85975000Y-98750000D01*
G75*
G02*
X86150000Y-98925000I0J-175000D01*
G01*
X86150000Y-99275000D01*
G75*
G02*
X85975000Y-99450000I-175000J0D01*
G01*
G37*
G04 #@! TD.AperFunction*
G04 #@! TA.AperFunction,SMDPad,CuDef*
G36*
G01*
X82250000Y-97050000D02*
X81700000Y-97050000D01*
G75*
G02*
X81550000Y-96900000I0J150000D01*
G01*
X81550000Y-96600000D01*
G75*
G02*
X81700000Y-96450000I150000J0D01*
G01*
X82250000Y-96450000D01*
G75*
G02*
X82400000Y-96600000I0J-150000D01*
G01*
X82400000Y-96900000D01*
G75*
G02*
X82250000Y-97050000I-150000J0D01*
G01*
G37*
G04 #@! TD.AperFunction*
G04 #@! TA.AperFunction,SMDPad,CuDef*
G36*
G01*
X82250000Y-98250000D02*
X81700000Y-98250000D01*
G75*
G02*
X81550000Y-98100000I0J150000D01*
G01*
X81550000Y-97800000D01*
G75*
G02*
X81700000Y-97650000I150000J0D01*
G01*
X82250000Y-97650000D01*
G75*
G02*
X82400000Y-97800000I0J-150000D01*
G01*
X82400000Y-98100000D01*
G75*
G02*
X82250000Y-98250000I-150000J0D01*
G01*
G37*
G04 #@! TD.AperFunction*
D19*
X116920000Y-93950000D03*
X108280000Y-93950000D03*
X108280000Y-97750000D03*
X116920000Y-97750000D03*
G04 #@! TA.AperFunction,SMDPad,CuDef*
G36*
G01*
X99550000Y-96750000D02*
X97850000Y-96750000D01*
G75*
G02*
X97600000Y-96500000I0J250000D01*
G01*
X97600000Y-95575000D01*
G75*
G02*
X97850000Y-95325000I250000J0D01*
G01*
X99550000Y-95325000D01*
G75*
G02*
X99800000Y-95575000I0J-250000D01*
G01*
X99800000Y-96500000D01*
G75*
G02*
X99550000Y-96750000I-250000J0D01*
G01*
G37*
G04 #@! TD.AperFunction*
G04 #@! TA.AperFunction,SMDPad,CuDef*
G36*
G01*
X99550000Y-99075000D02*
X97850000Y-99075000D01*
G75*
G02*
X97600000Y-98825000I0J250000D01*
G01*
X97600000Y-97900000D01*
G75*
G02*
X97850000Y-97650000I250000J0D01*
G01*
X99550000Y-97650000D01*
G75*
G02*
X99800000Y-97900000I0J-250000D01*
G01*
X99800000Y-98825000D01*
G75*
G02*
X99550000Y-99075000I-250000J0D01*
G01*
G37*
G04 #@! TD.AperFunction*
G04 #@! TA.AperFunction,SMDPad,CuDef*
G36*
G01*
X96955000Y-95600000D02*
X96645000Y-95600000D01*
G75*
G02*
X96490000Y-95445000I0J155000D01*
G01*
X96490000Y-95020000D01*
G75*
G02*
X96645000Y-94865000I155000J0D01*
G01*
X96955000Y-94865000D01*
G75*
G02*
X97110000Y-95020000I0J-155000D01*
G01*
X97110000Y-95445000D01*
G75*
G02*
X96955000Y-95600000I-155000J0D01*
G01*
G37*
G04 #@! TD.AperFunction*
G04 #@! TA.AperFunction,SMDPad,CuDef*
G36*
G01*
X96955000Y-96735000D02*
X96645000Y-96735000D01*
G75*
G02*
X96490000Y-96580000I0J155000D01*
G01*
X96490000Y-96155000D01*
G75*
G02*
X96645000Y-96000000I155000J0D01*
G01*
X96955000Y-96000000D01*
G75*
G02*
X97110000Y-96155000I0J-155000D01*
G01*
X97110000Y-96580000D01*
G75*
G02*
X96955000Y-96735000I-155000J0D01*
G01*
G37*
G04 #@! TD.AperFunction*
G04 #@! TA.AperFunction,SMDPad,CuDef*
G36*
G01*
X92605000Y-95550000D02*
X92295000Y-95550000D01*
G75*
G02*
X92140000Y-95395000I0J155000D01*
G01*
X92140000Y-94970000D01*
G75*
G02*
X92295000Y-94815000I155000J0D01*
G01*
X92605000Y-94815000D01*
G75*
G02*
X92760000Y-94970000I0J-155000D01*
G01*
X92760000Y-95395000D01*
G75*
G02*
X92605000Y-95550000I-155000J0D01*
G01*
G37*
G04 #@! TD.AperFunction*
G04 #@! TA.AperFunction,SMDPad,CuDef*
G36*
G01*
X92605000Y-96685000D02*
X92295000Y-96685000D01*
G75*
G02*
X92140000Y-96530000I0J155000D01*
G01*
X92140000Y-96105000D01*
G75*
G02*
X92295000Y-95950000I155000J0D01*
G01*
X92605000Y-95950000D01*
G75*
G02*
X92760000Y-96105000I0J-155000D01*
G01*
X92760000Y-96530000D01*
G75*
G02*
X92605000Y-96685000I-155000J0D01*
G01*
G37*
G04 #@! TD.AperFunction*
G04 #@! TA.AperFunction,SMDPad,CuDef*
G36*
G01*
X108411500Y-109754000D02*
X108411500Y-109434000D01*
G75*
G02*
X108571500Y-109274000I160000J0D01*
G01*
X108966500Y-109274000D01*
G75*
G02*
X109126500Y-109434000I0J-160000D01*
G01*
X109126500Y-109754000D01*
G75*
G02*
X108966500Y-109914000I-160000J0D01*
G01*
X108571500Y-109914000D01*
G75*
G02*
X108411500Y-109754000I0J160000D01*
G01*
G37*
G04 #@! TD.AperFunction*
G04 #@! TA.AperFunction,SMDPad,CuDef*
G36*
G01*
X107216500Y-109754000D02*
X107216500Y-109434000D01*
G75*
G02*
X107376500Y-109274000I160000J0D01*
G01*
X107771500Y-109274000D01*
G75*
G02*
X107931500Y-109434000I0J-160000D01*
G01*
X107931500Y-109754000D01*
G75*
G02*
X107771500Y-109914000I-160000J0D01*
G01*
X107376500Y-109914000D01*
G75*
G02*
X107216500Y-109754000I0J160000D01*
G01*
G37*
G04 #@! TD.AperFunction*
G04 #@! TA.AperFunction,SMDPad,CuDef*
G36*
G01*
X108374000Y-108357000D02*
X108374000Y-108037000D01*
G75*
G02*
X108534000Y-107877000I160000J0D01*
G01*
X108929000Y-107877000D01*
G75*
G02*
X109089000Y-108037000I0J-160000D01*
G01*
X109089000Y-108357000D01*
G75*
G02*
X108929000Y-108517000I-160000J0D01*
G01*
X108534000Y-108517000D01*
G75*
G02*
X108374000Y-108357000I0J160000D01*
G01*
G37*
G04 #@! TD.AperFunction*
G04 #@! TA.AperFunction,SMDPad,CuDef*
G36*
G01*
X107179000Y-108357000D02*
X107179000Y-108037000D01*
G75*
G02*
X107339000Y-107877000I160000J0D01*
G01*
X107734000Y-107877000D01*
G75*
G02*
X107894000Y-108037000I0J-160000D01*
G01*
X107894000Y-108357000D01*
G75*
G02*
X107734000Y-108517000I-160000J0D01*
G01*
X107339000Y-108517000D01*
G75*
G02*
X107179000Y-108357000I0J160000D01*
G01*
G37*
G04 #@! TD.AperFunction*
G04 #@! TA.AperFunction,SMDPad,CuDef*
G36*
G01*
X107894000Y-106640000D02*
X107894000Y-106960000D01*
G75*
G02*
X107734000Y-107120000I-160000J0D01*
G01*
X107339000Y-107120000D01*
G75*
G02*
X107179000Y-106960000I0J160000D01*
G01*
X107179000Y-106640000D01*
G75*
G02*
X107339000Y-106480000I160000J0D01*
G01*
X107734000Y-106480000D01*
G75*
G02*
X107894000Y-106640000I0J-160000D01*
G01*
G37*
G04 #@! TD.AperFunction*
G04 #@! TA.AperFunction,SMDPad,CuDef*
G36*
G01*
X109089000Y-106640000D02*
X109089000Y-106960000D01*
G75*
G02*
X108929000Y-107120000I-160000J0D01*
G01*
X108534000Y-107120000D01*
G75*
G02*
X108374000Y-106960000I0J160000D01*
G01*
X108374000Y-106640000D01*
G75*
G02*
X108534000Y-106480000I160000J0D01*
G01*
X108929000Y-106480000D01*
G75*
G02*
X109089000Y-106640000I0J-160000D01*
G01*
G37*
G04 #@! TD.AperFunction*
G04 #@! TA.AperFunction,SMDPad,CuDef*
G36*
G01*
X103733000Y-109069500D02*
X103733000Y-108594500D01*
G75*
G02*
X103970500Y-108357000I237500J0D01*
G01*
X104470500Y-108357000D01*
G75*
G02*
X104708000Y-108594500I0J-237500D01*
G01*
X104708000Y-109069500D01*
G75*
G02*
X104470500Y-109307000I-237500J0D01*
G01*
X103970500Y-109307000D01*
G75*
G02*
X103733000Y-109069500I0J237500D01*
G01*
G37*
G04 #@! TD.AperFunction*
G04 #@! TA.AperFunction,SMDPad,CuDef*
G36*
G01*
X101908000Y-109069500D02*
X101908000Y-108594500D01*
G75*
G02*
X102145500Y-108357000I237500J0D01*
G01*
X102645500Y-108357000D01*
G75*
G02*
X102883000Y-108594500I0J-237500D01*
G01*
X102883000Y-109069500D01*
G75*
G02*
X102645500Y-109307000I-237500J0D01*
G01*
X102145500Y-109307000D01*
G75*
G02*
X101908000Y-109069500I0J237500D01*
G01*
G37*
G04 #@! TD.AperFunction*
G04 #@! TA.AperFunction,SMDPad,CuDef*
G36*
G01*
X102883000Y-106816500D02*
X102883000Y-107291500D01*
G75*
G02*
X102645500Y-107529000I-237500J0D01*
G01*
X102145500Y-107529000D01*
G75*
G02*
X101908000Y-107291500I0J237500D01*
G01*
X101908000Y-106816500D01*
G75*
G02*
X102145500Y-106579000I237500J0D01*
G01*
X102645500Y-106579000D01*
G75*
G02*
X102883000Y-106816500I0J-237500D01*
G01*
G37*
G04 #@! TD.AperFunction*
G04 #@! TA.AperFunction,SMDPad,CuDef*
G36*
G01*
X104708000Y-106816500D02*
X104708000Y-107291500D01*
G75*
G02*
X104470500Y-107529000I-237500J0D01*
G01*
X103970500Y-107529000D01*
G75*
G02*
X103733000Y-107291500I0J237500D01*
G01*
X103733000Y-106816500D01*
G75*
G02*
X103970500Y-106579000I237500J0D01*
G01*
X104470500Y-106579000D01*
G75*
G02*
X104708000Y-106816500I0J-237500D01*
G01*
G37*
G04 #@! TD.AperFunction*
G04 #@! TA.AperFunction,SMDPad,CuDef*
G36*
G01*
X111910000Y-100990000D02*
X111910000Y-101310000D01*
G75*
G02*
X111750000Y-101470000I-160000J0D01*
G01*
X111355000Y-101470000D01*
G75*
G02*
X111195000Y-101310000I0J160000D01*
G01*
X111195000Y-100990000D01*
G75*
G02*
X111355000Y-100830000I160000J0D01*
G01*
X111750000Y-100830000D01*
G75*
G02*
X111910000Y-100990000I0J-160000D01*
G01*
G37*
G04 #@! TD.AperFunction*
G04 #@! TA.AperFunction,SMDPad,CuDef*
G36*
G01*
X113105000Y-100990000D02*
X113105000Y-101310000D01*
G75*
G02*
X112945000Y-101470000I-160000J0D01*
G01*
X112550000Y-101470000D01*
G75*
G02*
X112390000Y-101310000I0J160000D01*
G01*
X112390000Y-100990000D01*
G75*
G02*
X112550000Y-100830000I160000J0D01*
G01*
X112945000Y-100830000D01*
G75*
G02*
X113105000Y-100990000I0J-160000D01*
G01*
G37*
G04 #@! TD.AperFunction*
G04 #@! TA.AperFunction,SMDPad,CuDef*
G36*
G01*
X108374000Y-102642000D02*
X108374000Y-102322000D01*
G75*
G02*
X108534000Y-102162000I160000J0D01*
G01*
X108929000Y-102162000D01*
G75*
G02*
X109089000Y-102322000I0J-160000D01*
G01*
X109089000Y-102642000D01*
G75*
G02*
X108929000Y-102802000I-160000J0D01*
G01*
X108534000Y-102802000D01*
G75*
G02*
X108374000Y-102642000I0J160000D01*
G01*
G37*
G04 #@! TD.AperFunction*
G04 #@! TA.AperFunction,SMDPad,CuDef*
G36*
G01*
X107179000Y-102642000D02*
X107179000Y-102322000D01*
G75*
G02*
X107339000Y-102162000I160000J0D01*
G01*
X107734000Y-102162000D01*
G75*
G02*
X107894000Y-102322000I0J-160000D01*
G01*
X107894000Y-102642000D01*
G75*
G02*
X107734000Y-102802000I-160000J0D01*
G01*
X107339000Y-102802000D01*
G75*
G02*
X107179000Y-102642000I0J160000D01*
G01*
G37*
G04 #@! TD.AperFunction*
G04 #@! TA.AperFunction,SMDPad,CuDef*
G36*
G01*
X108374000Y-104039000D02*
X108374000Y-103719000D01*
G75*
G02*
X108534000Y-103559000I160000J0D01*
G01*
X108929000Y-103559000D01*
G75*
G02*
X109089000Y-103719000I0J-160000D01*
G01*
X109089000Y-104039000D01*
G75*
G02*
X108929000Y-104199000I-160000J0D01*
G01*
X108534000Y-104199000D01*
G75*
G02*
X108374000Y-104039000I0J160000D01*
G01*
G37*
G04 #@! TD.AperFunction*
G04 #@! TA.AperFunction,SMDPad,CuDef*
G36*
G01*
X107179000Y-104039000D02*
X107179000Y-103719000D01*
G75*
G02*
X107339000Y-103559000I160000J0D01*
G01*
X107734000Y-103559000D01*
G75*
G02*
X107894000Y-103719000I0J-160000D01*
G01*
X107894000Y-104039000D01*
G75*
G02*
X107734000Y-104199000I-160000J0D01*
G01*
X107339000Y-104199000D01*
G75*
G02*
X107179000Y-104039000I0J160000D01*
G01*
G37*
G04 #@! TD.AperFunction*
G04 #@! TA.AperFunction,SMDPad,CuDef*
G36*
G01*
X107894000Y-105116000D02*
X107894000Y-105436000D01*
G75*
G02*
X107734000Y-105596000I-160000J0D01*
G01*
X107339000Y-105596000D01*
G75*
G02*
X107179000Y-105436000I0J160000D01*
G01*
X107179000Y-105116000D01*
G75*
G02*
X107339000Y-104956000I160000J0D01*
G01*
X107734000Y-104956000D01*
G75*
G02*
X107894000Y-105116000I0J-160000D01*
G01*
G37*
G04 #@! TD.AperFunction*
G04 #@! TA.AperFunction,SMDPad,CuDef*
G36*
G01*
X109089000Y-105116000D02*
X109089000Y-105436000D01*
G75*
G02*
X108929000Y-105596000I-160000J0D01*
G01*
X108534000Y-105596000D01*
G75*
G02*
X108374000Y-105436000I0J160000D01*
G01*
X108374000Y-105116000D01*
G75*
G02*
X108534000Y-104956000I160000J0D01*
G01*
X108929000Y-104956000D01*
G75*
G02*
X109089000Y-105116000I0J-160000D01*
G01*
G37*
G04 #@! TD.AperFunction*
G04 #@! TA.AperFunction,SMDPad,CuDef*
G36*
G01*
X103733000Y-103481500D02*
X103733000Y-103006500D01*
G75*
G02*
X103970500Y-102769000I237500J0D01*
G01*
X104470500Y-102769000D01*
G75*
G02*
X104708000Y-103006500I0J-237500D01*
G01*
X104708000Y-103481500D01*
G75*
G02*
X104470500Y-103719000I-237500J0D01*
G01*
X103970500Y-103719000D01*
G75*
G02*
X103733000Y-103481500I0J237500D01*
G01*
G37*
G04 #@! TD.AperFunction*
G04 #@! TA.AperFunction,SMDPad,CuDef*
G36*
G01*
X101908000Y-103481500D02*
X101908000Y-103006500D01*
G75*
G02*
X102145500Y-102769000I237500J0D01*
G01*
X102645500Y-102769000D01*
G75*
G02*
X102883000Y-103006500I0J-237500D01*
G01*
X102883000Y-103481500D01*
G75*
G02*
X102645500Y-103719000I-237500J0D01*
G01*
X102145500Y-103719000D01*
G75*
G02*
X101908000Y-103481500I0J237500D01*
G01*
G37*
G04 #@! TD.AperFunction*
G04 #@! TA.AperFunction,SMDPad,CuDef*
G36*
G01*
X102883000Y-104784500D02*
X102883000Y-105259500D01*
G75*
G02*
X102645500Y-105497000I-237500J0D01*
G01*
X102145500Y-105497000D01*
G75*
G02*
X101908000Y-105259500I0J237500D01*
G01*
X101908000Y-104784500D01*
G75*
G02*
X102145500Y-104547000I237500J0D01*
G01*
X102645500Y-104547000D01*
G75*
G02*
X102883000Y-104784500I0J-237500D01*
G01*
G37*
G04 #@! TD.AperFunction*
G04 #@! TA.AperFunction,SMDPad,CuDef*
G36*
G01*
X104708000Y-104784500D02*
X104708000Y-105259500D01*
G75*
G02*
X104470500Y-105497000I-237500J0D01*
G01*
X103970500Y-105497000D01*
G75*
G02*
X103733000Y-105259500I0J237500D01*
G01*
X103733000Y-104784500D01*
G75*
G02*
X103970500Y-104547000I237500J0D01*
G01*
X104470500Y-104547000D01*
G75*
G02*
X104708000Y-104784500I0J-237500D01*
G01*
G37*
G04 #@! TD.AperFunction*
G04 #@! TA.AperFunction,SMDPad,CuDef*
G36*
G01*
X111323000Y-109307000D02*
X111323000Y-109627000D01*
G75*
G02*
X111163000Y-109787000I-160000J0D01*
G01*
X110768000Y-109787000D01*
G75*
G02*
X110608000Y-109627000I0J160000D01*
G01*
X110608000Y-109307000D01*
G75*
G02*
X110768000Y-109147000I160000J0D01*
G01*
X111163000Y-109147000D01*
G75*
G02*
X111323000Y-109307000I0J-160000D01*
G01*
G37*
G04 #@! TD.AperFunction*
G04 #@! TA.AperFunction,SMDPad,CuDef*
G36*
G01*
X112518000Y-109307000D02*
X112518000Y-109627000D01*
G75*
G02*
X112358000Y-109787000I-160000J0D01*
G01*
X111963000Y-109787000D01*
G75*
G02*
X111803000Y-109627000I0J160000D01*
G01*
X111803000Y-109307000D01*
G75*
G02*
X111963000Y-109147000I160000J0D01*
G01*
X112358000Y-109147000D01*
G75*
G02*
X112518000Y-109307000I0J-160000D01*
G01*
G37*
G04 #@! TD.AperFunction*
G04 #@! TA.AperFunction,SMDPad,CuDef*
G36*
G01*
X112142000Y-111228500D02*
X112142000Y-110753500D01*
G75*
G02*
X112379500Y-110516000I237500J0D01*
G01*
X112979500Y-110516000D01*
G75*
G02*
X113217000Y-110753500I0J-237500D01*
G01*
X113217000Y-111228500D01*
G75*
G02*
X112979500Y-111466000I-237500J0D01*
G01*
X112379500Y-111466000D01*
G75*
G02*
X112142000Y-111228500I0J237500D01*
G01*
G37*
G04 #@! TD.AperFunction*
G04 #@! TA.AperFunction,SMDPad,CuDef*
G36*
G01*
X110417000Y-111228500D02*
X110417000Y-110753500D01*
G75*
G02*
X110654500Y-110516000I237500J0D01*
G01*
X111254500Y-110516000D01*
G75*
G02*
X111492000Y-110753500I0J-237500D01*
G01*
X111492000Y-111228500D01*
G75*
G02*
X111254500Y-111466000I-237500J0D01*
G01*
X110654500Y-111466000D01*
G75*
G02*
X110417000Y-111228500I0J237500D01*
G01*
G37*
G04 #@! TD.AperFunction*
G04 #@! TA.AperFunction,SMDPad,CuDef*
G36*
G01*
X107975000Y-110812500D02*
X107975000Y-111287500D01*
G75*
G02*
X107737500Y-111525000I-237500J0D01*
G01*
X107137500Y-111525000D01*
G75*
G02*
X106900000Y-111287500I0J237500D01*
G01*
X106900000Y-110812500D01*
G75*
G02*
X107137500Y-110575000I237500J0D01*
G01*
X107737500Y-110575000D01*
G75*
G02*
X107975000Y-110812500I0J-237500D01*
G01*
G37*
G04 #@! TD.AperFunction*
G04 #@! TA.AperFunction,SMDPad,CuDef*
G36*
G01*
X109700000Y-110812500D02*
X109700000Y-111287500D01*
G75*
G02*
X109462500Y-111525000I-237500J0D01*
G01*
X108862500Y-111525000D01*
G75*
G02*
X108625000Y-111287500I0J237500D01*
G01*
X108625000Y-110812500D01*
G75*
G02*
X108862500Y-110575000I237500J0D01*
G01*
X109462500Y-110575000D01*
G75*
G02*
X109700000Y-110812500I0J-237500D01*
G01*
G37*
G04 #@! TD.AperFunction*
G04 #@! TA.AperFunction,SMDPad,CuDef*
G36*
G01*
X106085500Y-107618000D02*
X105610500Y-107618000D01*
G75*
G02*
X105373000Y-107380500I0J237500D01*
G01*
X105373000Y-106780500D01*
G75*
G02*
X105610500Y-106543000I237500J0D01*
G01*
X106085500Y-106543000D01*
G75*
G02*
X106323000Y-106780500I0J-237500D01*
G01*
X106323000Y-107380500D01*
G75*
G02*
X106085500Y-107618000I-237500J0D01*
G01*
G37*
G04 #@! TD.AperFunction*
G04 #@! TA.AperFunction,SMDPad,CuDef*
G36*
G01*
X106085500Y-109343000D02*
X105610500Y-109343000D01*
G75*
G02*
X105373000Y-109105500I0J237500D01*
G01*
X105373000Y-108505500D01*
G75*
G02*
X105610500Y-108268000I237500J0D01*
G01*
X106085500Y-108268000D01*
G75*
G02*
X106323000Y-108505500I0J-237500D01*
G01*
X106323000Y-109105500D01*
G75*
G02*
X106085500Y-109343000I-237500J0D01*
G01*
G37*
G04 #@! TD.AperFunction*
G04 #@! TA.AperFunction,SMDPad,CuDef*
G36*
G01*
X112985000Y-100067500D02*
X112985000Y-99592500D01*
G75*
G02*
X113222500Y-99355000I237500J0D01*
G01*
X113822500Y-99355000D01*
G75*
G02*
X114060000Y-99592500I0J-237500D01*
G01*
X114060000Y-100067500D01*
G75*
G02*
X113822500Y-100305000I-237500J0D01*
G01*
X113222500Y-100305000D01*
G75*
G02*
X112985000Y-100067500I0J237500D01*
G01*
G37*
G04 #@! TD.AperFunction*
G04 #@! TA.AperFunction,SMDPad,CuDef*
G36*
G01*
X111260000Y-100067500D02*
X111260000Y-99592500D01*
G75*
G02*
X111497500Y-99355000I237500J0D01*
G01*
X112097500Y-99355000D01*
G75*
G02*
X112335000Y-99592500I0J-237500D01*
G01*
X112335000Y-100067500D01*
G75*
G02*
X112097500Y-100305000I-237500J0D01*
G01*
X111497500Y-100305000D01*
G75*
G02*
X111260000Y-100067500I0J237500D01*
G01*
G37*
G04 #@! TD.AperFunction*
G04 #@! TA.AperFunction,SMDPad,CuDef*
G36*
G01*
X106285000Y-100593500D02*
X106285000Y-101068500D01*
G75*
G02*
X106047500Y-101306000I-237500J0D01*
G01*
X105447500Y-101306000D01*
G75*
G02*
X105210000Y-101068500I0J237500D01*
G01*
X105210000Y-100593500D01*
G75*
G02*
X105447500Y-100356000I237500J0D01*
G01*
X106047500Y-100356000D01*
G75*
G02*
X106285000Y-100593500I0J-237500D01*
G01*
G37*
G04 #@! TD.AperFunction*
G04 #@! TA.AperFunction,SMDPad,CuDef*
G36*
G01*
X108010000Y-100593500D02*
X108010000Y-101068500D01*
G75*
G02*
X107772500Y-101306000I-237500J0D01*
G01*
X107172500Y-101306000D01*
G75*
G02*
X106935000Y-101068500I0J237500D01*
G01*
X106935000Y-100593500D01*
G75*
G02*
X107172500Y-100356000I237500J0D01*
G01*
X107772500Y-100356000D01*
G75*
G02*
X108010000Y-100593500I0J-237500D01*
G01*
G37*
G04 #@! TD.AperFunction*
G04 #@! TA.AperFunction,SMDPad,CuDef*
G36*
G01*
X105610500Y-104458000D02*
X106085500Y-104458000D01*
G75*
G02*
X106323000Y-104695500I0J-237500D01*
G01*
X106323000Y-105295500D01*
G75*
G02*
X106085500Y-105533000I-237500J0D01*
G01*
X105610500Y-105533000D01*
G75*
G02*
X105373000Y-105295500I0J237500D01*
G01*
X105373000Y-104695500D01*
G75*
G02*
X105610500Y-104458000I237500J0D01*
G01*
G37*
G04 #@! TD.AperFunction*
G04 #@! TA.AperFunction,SMDPad,CuDef*
G36*
G01*
X105610500Y-102733000D02*
X106085500Y-102733000D01*
G75*
G02*
X106323000Y-102970500I0J-237500D01*
G01*
X106323000Y-103570500D01*
G75*
G02*
X106085500Y-103808000I-237500J0D01*
G01*
X105610500Y-103808000D01*
G75*
G02*
X105373000Y-103570500I0J237500D01*
G01*
X105373000Y-102970500D01*
G75*
G02*
X105610500Y-102733000I237500J0D01*
G01*
G37*
G04 #@! TD.AperFunction*
G04 #@! TA.AperFunction,SMDPad,CuDef*
G36*
G01*
X113877000Y-107870000D02*
X113567000Y-107870000D01*
G75*
G02*
X113412000Y-107715000I0J155000D01*
G01*
X113412000Y-107290000D01*
G75*
G02*
X113567000Y-107135000I155000J0D01*
G01*
X113877000Y-107135000D01*
G75*
G02*
X114032000Y-107290000I0J-155000D01*
G01*
X114032000Y-107715000D01*
G75*
G02*
X113877000Y-107870000I-155000J0D01*
G01*
G37*
G04 #@! TD.AperFunction*
G04 #@! TA.AperFunction,SMDPad,CuDef*
G36*
G01*
X113877000Y-109005000D02*
X113567000Y-109005000D01*
G75*
G02*
X113412000Y-108850000I0J155000D01*
G01*
X113412000Y-108425000D01*
G75*
G02*
X113567000Y-108270000I155000J0D01*
G01*
X113877000Y-108270000D01*
G75*
G02*
X114032000Y-108425000I0J-155000D01*
G01*
X114032000Y-108850000D01*
G75*
G02*
X113877000Y-109005000I-155000J0D01*
G01*
G37*
G04 #@! TD.AperFunction*
G04 #@! TA.AperFunction,SMDPad,CuDef*
G36*
G01*
X115020000Y-107870000D02*
X114710000Y-107870000D01*
G75*
G02*
X114555000Y-107715000I0J155000D01*
G01*
X114555000Y-107290000D01*
G75*
G02*
X114710000Y-107135000I155000J0D01*
G01*
X115020000Y-107135000D01*
G75*
G02*
X115175000Y-107290000I0J-155000D01*
G01*
X115175000Y-107715000D01*
G75*
G02*
X115020000Y-107870000I-155000J0D01*
G01*
G37*
G04 #@! TD.AperFunction*
G04 #@! TA.AperFunction,SMDPad,CuDef*
G36*
G01*
X115020000Y-109005000D02*
X114710000Y-109005000D01*
G75*
G02*
X114555000Y-108850000I0J155000D01*
G01*
X114555000Y-108425000D01*
G75*
G02*
X114710000Y-108270000I155000J0D01*
G01*
X115020000Y-108270000D01*
G75*
G02*
X115175000Y-108425000I0J-155000D01*
G01*
X115175000Y-108850000D01*
G75*
G02*
X115020000Y-109005000I-155000J0D01*
G01*
G37*
G04 #@! TD.AperFunction*
G04 #@! TA.AperFunction,SMDPad,CuDef*
G36*
G01*
X101781000Y-100866000D02*
X101781000Y-101176000D01*
G75*
G02*
X101626000Y-101331000I-155000J0D01*
G01*
X101201000Y-101331000D01*
G75*
G02*
X101046000Y-101176000I0J155000D01*
G01*
X101046000Y-100866000D01*
G75*
G02*
X101201000Y-100711000I155000J0D01*
G01*
X101626000Y-100711000D01*
G75*
G02*
X101781000Y-100866000I0J-155000D01*
G01*
G37*
G04 #@! TD.AperFunction*
G04 #@! TA.AperFunction,SMDPad,CuDef*
G36*
G01*
X102916000Y-100866000D02*
X102916000Y-101176000D01*
G75*
G02*
X102761000Y-101331000I-155000J0D01*
G01*
X102336000Y-101331000D01*
G75*
G02*
X102181000Y-101176000I0J155000D01*
G01*
X102181000Y-100866000D01*
G75*
G02*
X102336000Y-100711000I155000J0D01*
G01*
X102761000Y-100711000D01*
G75*
G02*
X102916000Y-100866000I0J-155000D01*
G01*
G37*
G04 #@! TD.AperFunction*
G04 #@! TA.AperFunction,SMDPad,CuDef*
G36*
G01*
X100730000Y-98800000D02*
X100420000Y-98800000D01*
G75*
G02*
X100265000Y-98645000I0J155000D01*
G01*
X100265000Y-98220000D01*
G75*
G02*
X100420000Y-98065000I155000J0D01*
G01*
X100730000Y-98065000D01*
G75*
G02*
X100885000Y-98220000I0J-155000D01*
G01*
X100885000Y-98645000D01*
G75*
G02*
X100730000Y-98800000I-155000J0D01*
G01*
G37*
G04 #@! TD.AperFunction*
G04 #@! TA.AperFunction,SMDPad,CuDef*
G36*
G01*
X100730000Y-99935000D02*
X100420000Y-99935000D01*
G75*
G02*
X100265000Y-99780000I0J155000D01*
G01*
X100265000Y-99355000D01*
G75*
G02*
X100420000Y-99200000I155000J0D01*
G01*
X100730000Y-99200000D01*
G75*
G02*
X100885000Y-99355000I0J-155000D01*
G01*
X100885000Y-99780000D01*
G75*
G02*
X100730000Y-99935000I-155000J0D01*
G01*
G37*
G04 #@! TD.AperFunction*
G04 #@! TA.AperFunction,SMDPad,CuDef*
G36*
G01*
X104045000Y-97950000D02*
X104355000Y-97950000D01*
G75*
G02*
X104510000Y-98105000I0J-155000D01*
G01*
X104510000Y-98530000D01*
G75*
G02*
X104355000Y-98685000I-155000J0D01*
G01*
X104045000Y-98685000D01*
G75*
G02*
X103890000Y-98530000I0J155000D01*
G01*
X103890000Y-98105000D01*
G75*
G02*
X104045000Y-97950000I155000J0D01*
G01*
G37*
G04 #@! TD.AperFunction*
G04 #@! TA.AperFunction,SMDPad,CuDef*
G36*
G01*
X104045000Y-96815000D02*
X104355000Y-96815000D01*
G75*
G02*
X104510000Y-96970000I0J-155000D01*
G01*
X104510000Y-97395000D01*
G75*
G02*
X104355000Y-97550000I-155000J0D01*
G01*
X104045000Y-97550000D01*
G75*
G02*
X103890000Y-97395000I0J155000D01*
G01*
X103890000Y-96970000D01*
G75*
G02*
X104045000Y-96815000I155000J0D01*
G01*
G37*
G04 #@! TD.AperFunction*
G04 #@! TA.AperFunction,SMDPad,CuDef*
G36*
G01*
X98415000Y-104330000D02*
X98725000Y-104330000D01*
G75*
G02*
X98880000Y-104485000I0J-155000D01*
G01*
X98880000Y-104910000D01*
G75*
G02*
X98725000Y-105065000I-155000J0D01*
G01*
X98415000Y-105065000D01*
G75*
G02*
X98260000Y-104910000I0J155000D01*
G01*
X98260000Y-104485000D01*
G75*
G02*
X98415000Y-104330000I155000J0D01*
G01*
G37*
G04 #@! TD.AperFunction*
G04 #@! TA.AperFunction,SMDPad,CuDef*
G36*
G01*
X98415000Y-103195000D02*
X98725000Y-103195000D01*
G75*
G02*
X98880000Y-103350000I0J-155000D01*
G01*
X98880000Y-103775000D01*
G75*
G02*
X98725000Y-103930000I-155000J0D01*
G01*
X98415000Y-103930000D01*
G75*
G02*
X98260000Y-103775000I0J155000D01*
G01*
X98260000Y-103350000D01*
G75*
G02*
X98415000Y-103195000I155000J0D01*
G01*
G37*
G04 #@! TD.AperFunction*
G04 #@! TA.AperFunction,SMDPad,CuDef*
G36*
G01*
X99719000Y-109652000D02*
X98769000Y-109652000D01*
G75*
G02*
X98519000Y-109402000I0J250000D01*
G01*
X98519000Y-108727000D01*
G75*
G02*
X98769000Y-108477000I250000J0D01*
G01*
X99719000Y-108477000D01*
G75*
G02*
X99969000Y-108727000I0J-250000D01*
G01*
X99969000Y-109402000D01*
G75*
G02*
X99719000Y-109652000I-250000J0D01*
G01*
G37*
G04 #@! TD.AperFunction*
G04 #@! TA.AperFunction,SMDPad,CuDef*
G36*
G01*
X99719000Y-111727000D02*
X98769000Y-111727000D01*
G75*
G02*
X98519000Y-111477000I0J250000D01*
G01*
X98519000Y-110802000D01*
G75*
G02*
X98769000Y-110552000I250000J0D01*
G01*
X99719000Y-110552000D01*
G75*
G02*
X99969000Y-110802000I0J-250000D01*
G01*
X99969000Y-111477000D01*
G75*
G02*
X99719000Y-111727000I-250000J0D01*
G01*
G37*
G04 #@! TD.AperFunction*
G04 #@! TA.AperFunction,SMDPad,CuDef*
G36*
G01*
X96610000Y-111335500D02*
X97560000Y-111335500D01*
G75*
G02*
X97810000Y-111585500I0J-250000D01*
G01*
X97810000Y-112260500D01*
G75*
G02*
X97560000Y-112510500I-250000J0D01*
G01*
X96610000Y-112510500D01*
G75*
G02*
X96360000Y-112260500I0J250000D01*
G01*
X96360000Y-111585500D01*
G75*
G02*
X96610000Y-111335500I250000J0D01*
G01*
G37*
G04 #@! TD.AperFunction*
G04 #@! TA.AperFunction,SMDPad,CuDef*
G36*
G01*
X96610000Y-109260500D02*
X97560000Y-109260500D01*
G75*
G02*
X97810000Y-109510500I0J-250000D01*
G01*
X97810000Y-110185500D01*
G75*
G02*
X97560000Y-110435500I-250000J0D01*
G01*
X96610000Y-110435500D01*
G75*
G02*
X96360000Y-110185500I0J250000D01*
G01*
X96360000Y-109510500D01*
G75*
G02*
X96610000Y-109260500I250000J0D01*
G01*
G37*
G04 #@! TD.AperFunction*
G04 #@! TA.AperFunction,SMDPad,CuDef*
G36*
G01*
X91469000Y-110683000D02*
X91779000Y-110683000D01*
G75*
G02*
X91934000Y-110838000I0J-155000D01*
G01*
X91934000Y-111263000D01*
G75*
G02*
X91779000Y-111418000I-155000J0D01*
G01*
X91469000Y-111418000D01*
G75*
G02*
X91314000Y-111263000I0J155000D01*
G01*
X91314000Y-110838000D01*
G75*
G02*
X91469000Y-110683000I155000J0D01*
G01*
G37*
G04 #@! TD.AperFunction*
G04 #@! TA.AperFunction,SMDPad,CuDef*
G36*
G01*
X91469000Y-109548000D02*
X91779000Y-109548000D01*
G75*
G02*
X91934000Y-109703000I0J-155000D01*
G01*
X91934000Y-110128000D01*
G75*
G02*
X91779000Y-110283000I-155000J0D01*
G01*
X91469000Y-110283000D01*
G75*
G02*
X91314000Y-110128000I0J155000D01*
G01*
X91314000Y-109703000D01*
G75*
G02*
X91469000Y-109548000I155000J0D01*
G01*
G37*
G04 #@! TD.AperFunction*
G04 #@! TA.AperFunction,SMDPad,CuDef*
G36*
G01*
X93964000Y-110836000D02*
X93964000Y-111146000D01*
G75*
G02*
X93809000Y-111301000I-155000J0D01*
G01*
X93384000Y-111301000D01*
G75*
G02*
X93229000Y-111146000I0J155000D01*
G01*
X93229000Y-110836000D01*
G75*
G02*
X93384000Y-110681000I155000J0D01*
G01*
X93809000Y-110681000D01*
G75*
G02*
X93964000Y-110836000I0J-155000D01*
G01*
G37*
G04 #@! TD.AperFunction*
G04 #@! TA.AperFunction,SMDPad,CuDef*
G36*
G01*
X95099000Y-110836000D02*
X95099000Y-111146000D01*
G75*
G02*
X94944000Y-111301000I-155000J0D01*
G01*
X94519000Y-111301000D01*
G75*
G02*
X94364000Y-111146000I0J155000D01*
G01*
X94364000Y-110836000D01*
G75*
G02*
X94519000Y-110681000I155000J0D01*
G01*
X94944000Y-110681000D01*
G75*
G02*
X95099000Y-110836000I0J-155000D01*
G01*
G37*
G04 #@! TD.AperFunction*
G04 #@! TA.AperFunction,SMDPad,CuDef*
G36*
G01*
X93202000Y-109693000D02*
X93202000Y-110003000D01*
G75*
G02*
X93047000Y-110158000I-155000J0D01*
G01*
X92622000Y-110158000D01*
G75*
G02*
X92467000Y-110003000I0J155000D01*
G01*
X92467000Y-109693000D01*
G75*
G02*
X92622000Y-109538000I155000J0D01*
G01*
X93047000Y-109538000D01*
G75*
G02*
X93202000Y-109693000I0J-155000D01*
G01*
G37*
G04 #@! TD.AperFunction*
G04 #@! TA.AperFunction,SMDPad,CuDef*
G36*
G01*
X94337000Y-109693000D02*
X94337000Y-110003000D01*
G75*
G02*
X94182000Y-110158000I-155000J0D01*
G01*
X93757000Y-110158000D01*
G75*
G02*
X93602000Y-110003000I0J155000D01*
G01*
X93602000Y-109693000D01*
G75*
G02*
X93757000Y-109538000I155000J0D01*
G01*
X94182000Y-109538000D01*
G75*
G02*
X94337000Y-109693000I0J-155000D01*
G01*
G37*
G04 #@! TD.AperFunction*
G04 #@! TA.AperFunction,SMDPad,CuDef*
G36*
G01*
X89245000Y-108837500D02*
X88295000Y-108837500D01*
G75*
G02*
X88045000Y-108587500I0J250000D01*
G01*
X88045000Y-107912500D01*
G75*
G02*
X88295000Y-107662500I250000J0D01*
G01*
X89245000Y-107662500D01*
G75*
G02*
X89495000Y-107912500I0J-250000D01*
G01*
X89495000Y-108587500D01*
G75*
G02*
X89245000Y-108837500I-250000J0D01*
G01*
G37*
G04 #@! TD.AperFunction*
G04 #@! TA.AperFunction,SMDPad,CuDef*
G36*
G01*
X89245000Y-110912500D02*
X88295000Y-110912500D01*
G75*
G02*
X88045000Y-110662500I0J250000D01*
G01*
X88045000Y-109987500D01*
G75*
G02*
X88295000Y-109737500I250000J0D01*
G01*
X89245000Y-109737500D01*
G75*
G02*
X89495000Y-109987500I0J-250000D01*
G01*
X89495000Y-110662500D01*
G75*
G02*
X89245000Y-110912500I-250000J0D01*
G01*
G37*
G04 #@! TD.AperFunction*
G04 #@! TA.AperFunction,SMDPad,CuDef*
G36*
G01*
X109950000Y-101305000D02*
X109950000Y-100995000D01*
G75*
G02*
X110105000Y-100840000I155000J0D01*
G01*
X110530000Y-100840000D01*
G75*
G02*
X110685000Y-100995000I0J-155000D01*
G01*
X110685000Y-101305000D01*
G75*
G02*
X110530000Y-101460000I-155000J0D01*
G01*
X110105000Y-101460000D01*
G75*
G02*
X109950000Y-101305000I0J155000D01*
G01*
G37*
G04 #@! TD.AperFunction*
G04 #@! TA.AperFunction,SMDPad,CuDef*
G36*
G01*
X108815000Y-101305000D02*
X108815000Y-100995000D01*
G75*
G02*
X108970000Y-100840000I155000J0D01*
G01*
X109395000Y-100840000D01*
G75*
G02*
X109550000Y-100995000I0J-155000D01*
G01*
X109550000Y-101305000D01*
G75*
G02*
X109395000Y-101460000I-155000J0D01*
G01*
X108970000Y-101460000D01*
G75*
G02*
X108815000Y-101305000I0J155000D01*
G01*
G37*
G04 #@! TD.AperFunction*
G04 #@! TA.AperFunction,SMDPad,CuDef*
G36*
G01*
X109950000Y-100205000D02*
X109950000Y-99895000D01*
G75*
G02*
X110105000Y-99740000I155000J0D01*
G01*
X110530000Y-99740000D01*
G75*
G02*
X110685000Y-99895000I0J-155000D01*
G01*
X110685000Y-100205000D01*
G75*
G02*
X110530000Y-100360000I-155000J0D01*
G01*
X110105000Y-100360000D01*
G75*
G02*
X109950000Y-100205000I0J155000D01*
G01*
G37*
G04 #@! TD.AperFunction*
G04 #@! TA.AperFunction,SMDPad,CuDef*
G36*
G01*
X108815000Y-100205000D02*
X108815000Y-99895000D01*
G75*
G02*
X108970000Y-99740000I155000J0D01*
G01*
X109395000Y-99740000D01*
G75*
G02*
X109550000Y-99895000I0J-155000D01*
G01*
X109550000Y-100205000D01*
G75*
G02*
X109395000Y-100360000I-155000J0D01*
G01*
X108970000Y-100360000D01*
G75*
G02*
X108815000Y-100205000I0J155000D01*
G01*
G37*
G04 #@! TD.AperFunction*
G04 #@! TA.AperFunction,SMDPad,CuDef*
G36*
G01*
X92570000Y-97902500D02*
X92250000Y-97902500D01*
G75*
G02*
X92090000Y-97742500I0J160000D01*
G01*
X92090000Y-97347500D01*
G75*
G02*
X92250000Y-97187500I160000J0D01*
G01*
X92570000Y-97187500D01*
G75*
G02*
X92730000Y-97347500I0J-160000D01*
G01*
X92730000Y-97742500D01*
G75*
G02*
X92570000Y-97902500I-160000J0D01*
G01*
G37*
G04 #@! TD.AperFunction*
G04 #@! TA.AperFunction,SMDPad,CuDef*
G36*
G01*
X92570000Y-99097500D02*
X92250000Y-99097500D01*
G75*
G02*
X92090000Y-98937500I0J160000D01*
G01*
X92090000Y-98542500D01*
G75*
G02*
X92250000Y-98382500I160000J0D01*
G01*
X92570000Y-98382500D01*
G75*
G02*
X92730000Y-98542500I0J-160000D01*
G01*
X92730000Y-98937500D01*
G75*
G02*
X92570000Y-99097500I-160000J0D01*
G01*
G37*
G04 #@! TD.AperFunction*
G04 #@! TA.AperFunction,SMDPad,CuDef*
G36*
G01*
X89412500Y-96800000D02*
X89887500Y-96800000D01*
G75*
G02*
X90125000Y-97037500I0J-237500D01*
G01*
X90125000Y-97612500D01*
G75*
G02*
X89887500Y-97850000I-237500J0D01*
G01*
X89412500Y-97850000D01*
G75*
G02*
X89175000Y-97612500I0J237500D01*
G01*
X89175000Y-97037500D01*
G75*
G02*
X89412500Y-96800000I237500J0D01*
G01*
G37*
G04 #@! TD.AperFunction*
G04 #@! TA.AperFunction,SMDPad,CuDef*
G36*
G01*
X89412500Y-95050000D02*
X89887500Y-95050000D01*
G75*
G02*
X90125000Y-95287500I0J-237500D01*
G01*
X90125000Y-95862500D01*
G75*
G02*
X89887500Y-96100000I-237500J0D01*
G01*
X89412500Y-96100000D01*
G75*
G02*
X89175000Y-95862500I0J237500D01*
G01*
X89175000Y-95287500D01*
G75*
G02*
X89412500Y-95050000I237500J0D01*
G01*
G37*
G04 #@! TD.AperFunction*
D20*
X82750000Y-108250000D03*
X81500000Y-107000000D03*
X85250000Y-110750000D03*
X84000000Y-109500000D03*
G04 #@! TA.AperFunction,SMDPad,CuDef*
G36*
G01*
X96270000Y-101325000D02*
X96270000Y-101015000D01*
G75*
G02*
X96425000Y-100860000I155000J0D01*
G01*
X96850000Y-100860000D01*
G75*
G02*
X97005000Y-101015000I0J-155000D01*
G01*
X97005000Y-101325000D01*
G75*
G02*
X96850000Y-101480000I-155000J0D01*
G01*
X96425000Y-101480000D01*
G75*
G02*
X96270000Y-101325000I0J155000D01*
G01*
G37*
G04 #@! TD.AperFunction*
G04 #@! TA.AperFunction,SMDPad,CuDef*
G36*
G01*
X95135000Y-101325000D02*
X95135000Y-101015000D01*
G75*
G02*
X95290000Y-100860000I155000J0D01*
G01*
X95715000Y-100860000D01*
G75*
G02*
X95870000Y-101015000I0J-155000D01*
G01*
X95870000Y-101325000D01*
G75*
G02*
X95715000Y-101480000I-155000J0D01*
G01*
X95290000Y-101480000D01*
G75*
G02*
X95135000Y-101325000I0J155000D01*
G01*
G37*
G04 #@! TD.AperFunction*
D21*
X103450000Y-113950000D03*
X89750000Y-110050000D03*
X89750000Y-111050000D03*
X95300000Y-111400000D03*
X94350000Y-111750000D03*
D22*
X90800000Y-103950000D03*
X90800000Y-103350000D03*
D21*
X89750000Y-98550000D03*
X88500000Y-97050000D03*
X114000000Y-114850000D03*
X117400000Y-112250000D03*
X117400000Y-110250000D03*
X87350000Y-97050000D03*
D22*
X89950000Y-104000000D03*
D21*
X106950000Y-109950000D03*
D22*
X84675000Y-104825000D03*
X83925000Y-102875000D03*
X84850000Y-103575000D03*
X85930000Y-107470000D03*
X84700000Y-106250000D03*
X83600000Y-105225000D03*
X101600000Y-100386000D03*
X101150000Y-100386000D03*
D21*
X100150000Y-110550000D03*
X80900000Y-111500000D03*
X81900000Y-111500000D03*
X81300000Y-102000000D03*
D22*
X96600000Y-115000000D03*
X96600000Y-114500000D03*
X93700000Y-114500000D03*
X93700000Y-115000000D03*
D21*
X105750000Y-100050000D03*
X91130000Y-107730000D03*
X93400000Y-104800000D03*
X95400000Y-106550000D03*
X93400000Y-106550000D03*
D22*
X94750000Y-102300000D03*
X95200000Y-102300000D03*
X95650000Y-102300000D03*
X96150000Y-102300000D03*
D21*
X95400000Y-104800000D03*
D22*
X92399500Y-111050500D03*
X93277750Y-110672250D03*
X92667250Y-110317250D03*
X101200000Y-97500000D03*
X95750000Y-109220000D03*
D21*
X103750000Y-101950000D03*
X90150000Y-108050000D03*
X90150000Y-109100000D03*
D22*
X108530000Y-99130000D03*
X108650000Y-99750000D03*
D21*
X109825000Y-108900000D03*
D22*
X114030000Y-102930000D03*
D21*
X113675000Y-101650000D03*
X116400000Y-96150000D03*
X113150000Y-96600000D03*
X112050000Y-96600000D03*
D22*
X108410000Y-101150000D03*
D21*
X99510000Y-103490000D03*
D22*
X95670000Y-101620000D03*
X98650000Y-102250000D03*
X100560000Y-97840000D03*
D21*
X106975000Y-97000000D03*
X81680000Y-105000000D03*
X91600000Y-97650000D03*
D22*
X91700000Y-103300000D03*
D21*
X95050000Y-98600000D03*
D22*
X95900000Y-97550000D03*
D21*
X104300000Y-98700000D03*
X105600000Y-97750000D03*
X106750000Y-102400000D03*
X107700000Y-111900000D03*
D22*
X92250000Y-103200000D03*
D21*
X113700000Y-109350000D03*
X114900000Y-109350000D03*
D22*
X108150000Y-103200000D03*
D21*
X90650000Y-98050000D03*
D22*
X103000000Y-111825000D03*
D21*
X101400000Y-113650000D03*
X109850000Y-97100000D03*
X115350000Y-97150000D03*
X91800000Y-95450000D03*
X82800000Y-96650000D03*
X84550000Y-95250000D03*
D22*
X113300000Y-105700000D03*
D21*
X95400000Y-95200000D03*
X94325000Y-95250000D03*
D22*
X85450000Y-106375000D03*
X89950000Y-103300000D03*
D21*
X117500000Y-102000000D03*
X117500000Y-104000000D03*
X105950000Y-98850000D03*
X106685000Y-98115000D03*
X112550000Y-108400000D03*
X109800000Y-102250000D03*
X99400000Y-114480000D03*
X108000000Y-114875000D03*
X84350000Y-97950000D03*
X114100000Y-97350000D03*
X111100000Y-97350000D03*
X85400000Y-94350000D03*
X80800000Y-104400000D03*
D22*
X102750000Y-112500000D03*
X112175000Y-113425000D03*
X98050000Y-101800000D03*
D21*
X83400000Y-104300000D03*
X85400000Y-105450000D03*
X86400000Y-106200000D03*
D23*
X94168000Y-109649500D02*
X93969500Y-109848000D01*
X94168000Y-108094500D02*
X94168000Y-109649500D01*
X103012000Y-97608000D02*
X103012000Y-96820500D01*
D24*
X94731500Y-110610000D02*
X93969500Y-109848000D01*
X88770000Y-110325000D02*
X88495000Y-110325000D01*
X88970000Y-110525000D02*
X88770000Y-110325000D01*
X88770000Y-110325000D02*
X88915000Y-110325000D01*
X94731500Y-110610000D02*
X94731500Y-110991000D01*
X89025000Y-110325000D02*
X89750000Y-111050000D01*
X88770000Y-110325000D02*
X89025000Y-110325000D01*
X89475000Y-110325000D02*
X89750000Y-110050000D01*
X88770000Y-110325000D02*
X89475000Y-110325000D01*
D23*
X90444574Y-110050000D02*
X89750000Y-110050000D01*
X92400074Y-108094500D02*
X90444574Y-110050000D01*
X92668000Y-108094500D02*
X92400074Y-108094500D01*
X102362000Y-97608000D02*
X102362000Y-96862000D01*
D24*
X89750000Y-110050000D02*
X89750000Y-111050000D01*
X94731500Y-111301000D02*
X94731500Y-110991000D01*
X94165490Y-111867010D02*
X94731500Y-111301000D01*
X90567010Y-111867010D02*
X94165490Y-111867010D01*
X89750000Y-111050000D02*
X90567010Y-111867010D01*
X95140500Y-111400000D02*
X94731500Y-110991000D01*
X95300000Y-111400000D02*
X95140500Y-111400000D01*
D23*
X94668000Y-110927500D02*
X94731500Y-110991000D01*
X94668000Y-108094500D02*
X94668000Y-110927500D01*
D24*
X90800000Y-99600000D02*
X89750000Y-98550000D01*
X90800000Y-103950000D02*
X90800000Y-99600000D01*
X98700000Y-95887500D02*
X98700000Y-95175000D01*
X88500000Y-95229126D02*
X88500000Y-97050000D01*
D23*
X96482500Y-96050000D02*
X96800000Y-96367500D01*
X95085000Y-96050000D02*
X96482500Y-96050000D01*
D24*
X98370000Y-96367500D02*
X98700000Y-96037500D01*
X96800000Y-96367500D02*
X98370000Y-96367500D01*
X97875999Y-94350999D02*
X98700000Y-95175000D01*
X89378127Y-94350999D02*
X97875999Y-94350999D01*
X88500000Y-95229126D02*
X89378127Y-94350999D01*
X94950000Y-111750000D02*
X95300000Y-111400000D01*
X94350000Y-111750000D02*
X94950000Y-111750000D01*
X103250000Y-113950000D02*
X103450000Y-113950000D01*
X102100999Y-112800999D02*
X103250000Y-113950000D01*
X100992479Y-112800999D02*
X102100999Y-112800999D01*
X100833968Y-112959510D02*
X100992479Y-112800999D01*
X95559510Y-112959510D02*
X100833968Y-112959510D01*
X94350000Y-111750000D02*
X95559510Y-112959510D01*
X101537500Y-96037500D02*
X102362000Y-96862000D01*
X98700000Y-96037500D02*
X101537500Y-96037500D01*
X103879500Y-96862000D02*
X104200000Y-97182500D01*
X102362000Y-96862000D02*
X103879500Y-96862000D01*
X111988479Y-114849001D02*
X113999001Y-114849001D01*
X110540477Y-113400999D02*
X111988479Y-114849001D01*
X113999001Y-114849001D02*
X114000000Y-114850000D01*
X106812489Y-114180989D02*
X107592479Y-113400999D01*
X103680989Y-114180989D02*
X106812489Y-114180989D01*
X107592479Y-113400999D02*
X110540477Y-113400999D01*
X103450000Y-113950000D02*
X103680989Y-114180989D01*
D23*
X93668000Y-109014500D02*
X92834500Y-109848000D01*
X93668000Y-108094500D02*
X93668000Y-109014500D01*
D24*
X101600000Y-100386000D02*
X101092000Y-100386000D01*
X101600000Y-100834500D02*
X101413500Y-101021000D01*
X101600000Y-100386000D02*
X101600000Y-100834500D01*
D23*
X95668000Y-104407000D02*
X94418000Y-105657000D01*
D24*
X93537000Y-111050500D02*
X93596500Y-110991000D01*
X91624000Y-111050500D02*
X92399500Y-111050500D01*
X91624000Y-111050500D02*
X91934000Y-111050500D01*
X93596500Y-110991000D02*
X93277750Y-110672250D01*
D23*
X101712000Y-97720500D02*
X101712000Y-97782999D01*
X95307000Y-104768000D02*
X95668000Y-104407000D01*
D24*
X107536500Y-102482000D02*
X107398500Y-102482000D01*
X105650000Y-100733500D02*
X105747500Y-100831000D01*
D23*
X95668000Y-106907000D02*
X94418000Y-105657000D01*
X91453000Y-107407000D02*
X91130000Y-107730000D01*
X91980500Y-107407000D02*
X91453000Y-107407000D01*
D24*
X91377990Y-107482010D02*
X91453000Y-107482010D01*
X91130000Y-107730000D02*
X91377990Y-107482010D01*
X99560500Y-111139500D02*
X100150000Y-110550000D01*
X99244000Y-111139500D02*
X99560500Y-111139500D01*
D23*
X101608000Y-97616500D02*
X101712000Y-97720500D01*
X95668000Y-102318000D02*
X95650000Y-102300000D01*
X95668000Y-103219500D02*
X95668000Y-102318000D01*
X95168000Y-104907000D02*
X94418000Y-105657000D01*
D24*
X92834500Y-110150000D02*
X92667250Y-110317250D01*
X92834500Y-109848000D02*
X92834500Y-110150000D01*
D23*
X101604000Y-97500000D02*
X101712000Y-97608000D01*
X101200000Y-97500000D02*
X101604000Y-97500000D01*
D24*
X106882000Y-102482000D02*
X106850000Y-102450000D01*
X107536500Y-102482000D02*
X106882000Y-102482000D01*
X108950000Y-100050000D02*
X108650000Y-99750000D01*
X109182500Y-100050000D02*
X108950000Y-100050000D01*
D23*
X96168000Y-103219500D02*
X96168000Y-102318000D01*
X96168000Y-102318000D02*
X96150000Y-102300000D01*
D24*
X109182500Y-101150000D02*
X108459010Y-101150000D01*
D23*
X95668000Y-109138000D02*
X95750000Y-109220000D01*
X95668000Y-108094500D02*
X95668000Y-109138000D01*
X97725500Y-104407000D02*
X98570000Y-103562500D01*
X96855500Y-104407000D02*
X97725500Y-104407000D01*
D24*
X99437500Y-103562500D02*
X99510000Y-103490000D01*
X98570000Y-103562500D02*
X99437500Y-103562500D01*
X95502500Y-101452500D02*
X95670000Y-101620000D01*
X95502500Y-101170000D02*
X95502500Y-101452500D01*
X95502500Y-101170000D02*
X95430000Y-101170000D01*
X100540000Y-97860000D02*
X100560000Y-97840000D01*
X100540000Y-98432500D02*
X100540000Y-97860000D01*
X101092000Y-100699500D02*
X101413500Y-101021000D01*
X101092000Y-100386000D02*
X101092000Y-100699500D01*
X105747500Y-100052500D02*
X105750000Y-100050000D01*
X105747500Y-100831000D02*
X105747500Y-100052500D01*
X108530000Y-99630000D02*
X108650000Y-99750000D01*
X108530000Y-99130000D02*
X108530000Y-99630000D01*
X91805000Y-97545000D02*
X91750000Y-97600000D01*
X92410000Y-97545000D02*
X91805000Y-97545000D01*
D23*
X92905000Y-97050000D02*
X92410000Y-97545000D01*
X93715000Y-97050000D02*
X92905000Y-97050000D01*
D24*
X95085000Y-98565000D02*
X95050000Y-98600000D01*
X95085000Y-97550000D02*
X95085000Y-98565000D01*
X89950000Y-108250000D02*
X90150000Y-108050000D01*
X88770000Y-108250000D02*
X89950000Y-108250000D01*
X89300000Y-108250000D02*
X90150000Y-109100000D01*
X88770000Y-108250000D02*
X89300000Y-108250000D01*
D23*
X92668000Y-103219500D02*
X93168000Y-103219500D01*
D24*
X107306000Y-109594000D02*
X106950000Y-109950000D01*
X107574000Y-109594000D02*
X107306000Y-109594000D01*
D23*
X92250000Y-103200000D02*
X92648500Y-103200000D01*
X92648500Y-103200000D02*
X92668000Y-103219500D01*
D24*
X113722000Y-109328000D02*
X113700000Y-109350000D01*
X113722000Y-108637500D02*
X113722000Y-109328000D01*
X114865000Y-109315000D02*
X114900000Y-109350000D01*
X114865000Y-108637500D02*
X114865000Y-109315000D01*
D23*
X91700000Y-103626500D02*
X91980500Y-103907000D01*
X91700000Y-103300000D02*
X91700000Y-103626500D01*
D24*
X92432500Y-95200000D02*
X92450000Y-95182500D01*
X91800000Y-95200000D02*
X92432500Y-95200000D01*
X82700000Y-96750000D02*
X82800000Y-96650000D01*
X81975000Y-96750000D02*
X82700000Y-96750000D01*
D23*
X95400000Y-97050000D02*
X95900000Y-97550000D01*
X95085000Y-97050000D02*
X95400000Y-97050000D01*
D24*
X107417500Y-111617500D02*
X107700000Y-111900000D01*
X107417500Y-111118000D02*
X107417500Y-111617500D01*
D23*
X95168000Y-102332000D02*
X95200000Y-102300000D01*
X95168000Y-103219500D02*
X95168000Y-102332000D01*
X94668000Y-102382000D02*
X94750000Y-102300000D01*
X94668000Y-103219500D02*
X94668000Y-102382000D01*
X94168000Y-102882000D02*
X94750000Y-102300000D01*
X94168000Y-103219500D02*
X94168000Y-102882000D01*
D24*
X117450000Y-103200000D02*
X117400000Y-103250000D01*
X104150000Y-98550000D02*
X104300000Y-98700000D01*
X104150000Y-98317500D02*
X104150000Y-98550000D01*
X96782500Y-95250000D02*
X96800000Y-95232500D01*
X95550000Y-95250000D02*
X96782500Y-95250000D01*
X93715000Y-95860000D02*
X93715000Y-95965999D01*
X94325000Y-95250000D02*
X93715000Y-95860000D01*
X117400000Y-111350000D02*
X117450000Y-111300000D01*
X117400000Y-112250000D02*
X117400000Y-111350000D01*
X117400000Y-111250000D02*
X117450000Y-111300000D01*
X117400000Y-110250000D02*
X117400000Y-111250000D01*
X117500000Y-103000000D02*
X117450000Y-102950000D01*
X117500000Y-104000000D02*
X117500000Y-103000000D01*
X117500000Y-102900000D02*
X117450000Y-102950000D01*
X117500000Y-102000000D02*
X117500000Y-102900000D01*
D23*
X92259010Y-109212990D02*
X91624000Y-109848000D01*
X92535032Y-109212990D02*
X92259010Y-109212990D01*
X93168000Y-108580022D02*
X92535032Y-109212990D01*
X93168000Y-108094500D02*
X93168000Y-108580022D01*
X97085000Y-111923000D02*
X96493000Y-111923000D01*
X95181510Y-108108010D02*
X95168000Y-108094500D01*
X95181510Y-110230510D02*
X95181510Y-108108010D01*
X96874000Y-111923000D02*
X95181510Y-110230510D01*
X97085000Y-111923000D02*
X96874000Y-111923000D01*
X96168000Y-108094500D02*
X96168000Y-108804000D01*
X97085000Y-109721000D02*
X97085000Y-109848000D01*
X96168000Y-108804000D02*
X96622000Y-109258000D01*
X96622000Y-109258000D02*
X97085000Y-109721000D01*
X99244000Y-109064500D02*
X99222500Y-109064500D01*
X97565000Y-107407000D02*
X96855500Y-107407000D01*
X99222500Y-109064500D02*
X97565000Y-107407000D01*
X97340500Y-103907000D02*
X96855500Y-103907000D01*
X96855500Y-101388000D02*
X96637500Y-101170000D01*
X96855500Y-103907000D02*
X96855500Y-101388000D01*
D24*
X102548500Y-101021000D02*
X102621000Y-101021000D01*
D23*
X103012000Y-100557500D02*
X102548500Y-101021000D01*
X103012000Y-99608000D02*
X103012000Y-100557500D01*
X102362000Y-100834500D02*
X102548500Y-101021000D01*
X102362000Y-99608000D02*
X102362000Y-100834500D01*
X98360500Y-104907000D02*
X98570000Y-104697500D01*
X96855500Y-104907000D02*
X98360500Y-104907000D01*
D24*
X100730000Y-103490000D02*
X99522500Y-104697500D01*
X99522500Y-104697500D02*
X98570000Y-104697500D01*
X102548500Y-101382626D02*
X102548500Y-101021000D01*
X100730000Y-103451126D02*
X102798500Y-101382626D01*
X100730000Y-103490000D02*
X100730000Y-103451126D01*
X105384315Y-98850000D02*
X104100000Y-100134315D01*
X105950000Y-98850000D02*
X105384315Y-98850000D01*
X104100000Y-100134315D02*
X104100000Y-100850000D01*
X103929000Y-101021000D02*
X102798500Y-101021000D01*
X104100000Y-100850000D02*
X103929000Y-101021000D01*
X106685000Y-98115000D02*
X105950000Y-98850000D01*
D23*
X92682500Y-96550000D02*
X92450000Y-96317500D01*
X93715000Y-96550000D02*
X92682500Y-96550000D01*
D24*
X90392500Y-96317500D02*
X92450000Y-96317500D01*
X89650000Y-95575000D02*
X90392500Y-96317500D01*
D23*
X101712000Y-99608000D02*
X100580500Y-99608000D01*
X113695500Y-107476000D02*
X113722000Y-107502500D01*
X112284000Y-107476000D02*
X113695500Y-107476000D01*
D24*
X113722000Y-107502500D02*
X114865000Y-107502500D01*
D23*
X113447500Y-107502500D02*
X112550000Y-108400000D01*
X113722000Y-107502500D02*
X113447500Y-107502500D01*
X112284000Y-108134000D02*
X112550000Y-108400000D01*
X112284000Y-107476000D02*
X112284000Y-108134000D01*
X110360500Y-99942000D02*
X110360500Y-101085000D01*
X110360500Y-103049500D02*
X110334000Y-103076000D01*
X110360500Y-101085000D02*
X110360500Y-103049500D01*
D24*
X110309999Y-102759999D02*
X110309999Y-103076000D01*
X109800000Y-102250000D02*
X110309999Y-102759999D01*
X110317500Y-101732500D02*
X110317500Y-101150000D01*
X109800000Y-102250000D02*
X110317500Y-101732500D01*
D23*
X105821500Y-103244000D02*
X105848000Y-103270500D01*
X104220500Y-103244000D02*
X105821500Y-103244000D01*
X106456500Y-103879000D02*
X105848000Y-103270500D01*
X107536500Y-103879000D02*
X106456500Y-103879000D01*
X106128500Y-105276000D02*
X105848000Y-104995500D01*
X107536500Y-105276000D02*
X106128500Y-105276000D01*
X104247000Y-104995500D02*
X104220500Y-105022000D01*
X105848000Y-104995500D02*
X104247000Y-104995500D01*
X108731500Y-102482000D02*
X108731500Y-103879000D01*
X110984000Y-103961002D02*
X110984000Y-103076000D01*
X110819001Y-104126001D02*
X110984000Y-103961002D01*
X108978501Y-104126001D02*
X110819001Y-104126001D01*
X108731500Y-103879000D02*
X108978501Y-104126001D01*
X107472500Y-101223000D02*
X108731500Y-102482000D01*
X107472500Y-100831000D02*
X107472500Y-101223000D01*
X112284000Y-103076000D02*
X112284000Y-102884000D01*
D24*
X113522500Y-100435000D02*
X112797500Y-101160000D01*
X113522500Y-99830000D02*
X113522500Y-100435000D01*
D23*
X112284000Y-101673500D02*
X112797500Y-101160000D01*
X112284000Y-103076000D02*
X112284000Y-101673500D01*
D24*
X113702500Y-99650000D02*
X113522500Y-99830000D01*
X117130000Y-99830000D02*
X117450000Y-100150000D01*
X113522500Y-99830000D02*
X117130000Y-99830000D01*
D23*
X111634000Y-104051000D02*
X111634000Y-103076000D01*
D24*
X111602500Y-100025000D02*
X111797500Y-99830000D01*
X111602500Y-101160000D02*
X111602500Y-100025000D01*
D23*
X111634000Y-101191500D02*
X111602500Y-101160000D01*
X111634000Y-103076000D02*
X111634000Y-101191500D01*
X111109989Y-104575011D02*
X111634000Y-104051000D01*
X109112489Y-104575011D02*
X111109989Y-104575011D01*
X108731500Y-104956000D02*
X109112489Y-104575011D01*
X108731500Y-105276000D02*
X108731500Y-104956000D01*
X105821500Y-108832000D02*
X105848000Y-108805500D01*
X104220500Y-108832000D02*
X105821500Y-108832000D01*
X106928000Y-108805500D02*
X107536500Y-108197000D01*
X105848000Y-108805500D02*
X106928000Y-108805500D01*
X105821500Y-107054000D02*
X105848000Y-107080500D01*
X104220500Y-107054000D02*
X105821500Y-107054000D01*
X106128500Y-106800000D02*
X105848000Y-107080500D01*
X107536500Y-106800000D02*
X106128500Y-106800000D01*
X108731500Y-109556500D02*
X108769000Y-109594000D01*
X108731500Y-108197000D02*
X108731500Y-109556500D01*
X108742500Y-109620500D02*
X108769000Y-109594000D01*
X109613000Y-108197000D02*
X110334000Y-107476000D01*
X108731500Y-108197000D02*
X109613000Y-108197000D01*
D24*
X109162500Y-110259022D02*
X108633239Y-109729761D01*
X109162500Y-111050000D02*
X109162500Y-110259022D01*
D23*
X112679500Y-109986000D02*
X112160500Y-109467000D01*
X112679500Y-110991000D02*
X112679500Y-109986000D01*
X111634000Y-108940500D02*
X112160500Y-109467000D01*
X111634000Y-107476000D02*
X111634000Y-108940500D01*
D24*
X115788500Y-114100000D02*
X117450000Y-114100000D01*
X112679500Y-110991000D02*
X115788500Y-114100000D01*
D23*
X110984000Y-106590998D02*
X110984000Y-107476000D01*
X110819001Y-106425999D02*
X110984000Y-106590998D01*
X109105501Y-106425999D02*
X110819001Y-106425999D01*
X108731500Y-106800000D02*
X109105501Y-106425999D01*
X110984000Y-109448500D02*
X110965500Y-109467000D01*
X110984000Y-107476000D02*
X110984000Y-109448500D01*
X110965500Y-110980000D02*
X110954500Y-110991000D01*
X110965500Y-109467000D02*
X110965500Y-110980000D01*
D24*
X89025000Y-97950000D02*
X89650000Y-97325000D01*
X81975000Y-97950000D02*
X89025000Y-97950000D01*
X98770999Y-113850999D02*
X99400000Y-114480000D01*
X87450999Y-113850999D02*
X98770999Y-113850999D01*
X86349001Y-109705053D02*
X86349001Y-112749001D01*
X86349001Y-112749001D02*
X87450999Y-113850999D01*
X82549999Y-105145477D02*
X85400000Y-107995478D01*
X82549999Y-103891999D02*
X82549999Y-105145477D01*
X85400000Y-107995478D02*
X85400000Y-108756052D01*
X82848011Y-103593987D02*
X82549999Y-103891999D01*
X82848011Y-98823011D02*
X82848011Y-103593987D01*
X85400000Y-108756052D02*
X86349001Y-109705053D01*
X81975000Y-97950000D02*
X82848011Y-98823011D01*
X99799999Y-114879999D02*
X107995001Y-114879999D01*
X107995001Y-114879999D02*
X108000000Y-114875000D01*
X99400000Y-114480000D02*
X99799999Y-114879999D01*
X111499999Y-97749999D02*
X111100000Y-97350000D01*
X113700001Y-97749999D02*
X111499999Y-97749999D01*
X114100000Y-97350000D02*
X113700001Y-97749999D01*
X82149001Y-99396131D02*
X81100990Y-98348120D01*
X82149001Y-103050999D02*
X82149001Y-99396131D01*
X83102870Y-94350000D02*
X85400000Y-94350000D01*
X82100000Y-103100000D02*
X82149001Y-103050999D01*
X81100990Y-98348120D02*
X81100990Y-96351880D01*
X81100990Y-96351880D02*
X83102870Y-94350000D01*
X82100000Y-103100000D02*
X80874999Y-104325001D01*
X111100000Y-97093478D02*
X111100000Y-97350000D01*
X110257521Y-96250999D02*
X111100000Y-97093478D01*
X108938897Y-96250999D02*
X110257521Y-96250999D01*
X106339887Y-93651989D02*
X108938897Y-96250999D01*
X86098011Y-93651989D02*
X106339887Y-93651989D01*
X85400000Y-94350000D02*
X86098011Y-93651989D01*
D23*
X97750074Y-98362500D02*
X98700000Y-98362500D01*
X95937574Y-96550000D02*
X97750074Y-98362500D01*
X95085000Y-96550000D02*
X95937574Y-96550000D01*
X106493021Y-113606979D02*
X107273010Y-112826990D01*
X104174001Y-113606979D02*
X106493021Y-113606979D01*
X111576990Y-112826990D02*
X112175000Y-113425000D01*
X107273010Y-112826990D02*
X111576990Y-112826990D01*
X103071522Y-112504500D02*
X104174001Y-113606979D01*
X103071522Y-112500000D02*
X103071522Y-112504500D01*
X102750000Y-112500000D02*
X103071522Y-112500000D01*
X93600000Y-97550000D02*
X92410000Y-98740000D01*
X93715000Y-97550000D02*
X93600000Y-97550000D01*
X96006843Y-99474001D02*
X93198479Y-99474001D01*
X98050000Y-101517158D02*
X96006843Y-99474001D01*
X98050000Y-101800000D02*
X98050000Y-101517158D01*
X93144001Y-99474001D02*
X92410000Y-98740000D01*
X101510500Y-105907000D02*
X96855500Y-105907000D01*
X102395500Y-105022000D02*
X101510500Y-105907000D01*
X100232500Y-105407000D02*
X96855500Y-105407000D01*
X102395500Y-103244000D02*
X100232500Y-105407000D01*
X101748500Y-106407000D02*
X96855500Y-106407000D01*
X102395500Y-107054000D02*
X101748500Y-106407000D01*
X100470500Y-106907000D02*
X96855500Y-106907000D01*
X102395500Y-108832000D02*
X100470500Y-106907000D01*
X85980002Y-104907000D02*
X91980500Y-104907000D01*
X85373003Y-104300001D02*
X85980002Y-104907000D01*
X83400000Y-104300000D02*
X85373003Y-104300001D01*
X91937500Y-105450000D02*
X91980500Y-105407000D01*
X85400000Y-105450000D02*
X91937500Y-105450000D01*
X87107000Y-106907000D02*
X86400000Y-106200000D01*
X91980500Y-106907000D02*
X87107000Y-106907000D01*
M02*
