G04 #@! TF.GenerationSoftware,KiCad,Pcbnew,(5.1.9)-1*
G04 #@! TF.CreationDate,2021-04-01T08:38:23-07:00*
G04 #@! TF.ProjectId,rgba,72676261-2e6b-4696-9361-645f70636258,1.1*
G04 #@! TF.SameCoordinates,Original*
G04 #@! TF.FileFunction,Copper,L4,Bot*
G04 #@! TF.FilePolarity,Positive*
%FSLAX46Y46*%
G04 Gerber Fmt 4.6, Leading zero omitted, Abs format (unit mm)*
G04 Created by KiCad (PCBNEW (5.1.9)-1) date 2021-04-01 08:38:23*
%MOMM*%
%LPD*%
G01*
G04 APERTURE LIST*
G04 #@! TA.AperFunction,SMDPad,CuDef*
%ADD10R,0.600000X1.600000*%
G04 #@! TD*
G04 #@! TA.AperFunction,SMDPad,CuDef*
%ADD11R,1.600000X0.600000*%
G04 #@! TD*
G04 #@! TA.AperFunction,SMDPad,CuDef*
%ADD12R,2.000000X1.200000*%
G04 #@! TD*
G04 #@! TA.AperFunction,ComponentPad*
%ADD13C,0.400000*%
G04 #@! TD*
G04 #@! TA.AperFunction,ComponentPad*
%ADD14C,2.400000*%
G04 #@! TD*
G04 #@! TA.AperFunction,SMDPad,CuDef*
%ADD15R,1.140000X2.032000*%
G04 #@! TD*
G04 #@! TA.AperFunction,ComponentPad*
%ADD16C,0.500000*%
G04 #@! TD*
G04 #@! TA.AperFunction,SMDPad,CuDef*
%ADD17R,1.600000X0.500000*%
G04 #@! TD*
G04 #@! TA.AperFunction,ComponentPad*
%ADD18O,1.000000X1.600000*%
G04 #@! TD*
G04 #@! TA.AperFunction,SMDPad,CuDef*
%ADD19R,0.700000X1.450000*%
G04 #@! TD*
G04 #@! TA.AperFunction,SMDPad,CuDef*
%ADD20R,0.600000X1.450000*%
G04 #@! TD*
G04 #@! TA.AperFunction,ComponentPad*
%ADD21C,1.000000*%
G04 #@! TD*
G04 #@! TA.AperFunction,ViaPad*
%ADD22C,0.800000*%
G04 #@! TD*
G04 #@! TA.AperFunction,ViaPad*
%ADD23C,0.400000*%
G04 #@! TD*
G04 #@! TA.AperFunction,Conductor*
%ADD24C,0.250000*%
G04 #@! TD*
G04 #@! TA.AperFunction,Conductor*
%ADD25C,0.500000*%
G04 #@! TD*
G04 APERTURE END LIST*
G04 #@! TA.AperFunction,SMDPad,CuDef*
G36*
G01*
X97062500Y-97525000D02*
X97537500Y-97525000D01*
G75*
G02*
X97775000Y-97762500I0J-237500D01*
G01*
X97775000Y-98262500D01*
G75*
G02*
X97537500Y-98500000I-237500J0D01*
G01*
X97062500Y-98500000D01*
G75*
G02*
X96825000Y-98262500I0J237500D01*
G01*
X96825000Y-97762500D01*
G75*
G02*
X97062500Y-97525000I237500J0D01*
G01*
G37*
G04 #@! TD.AperFunction*
G04 #@! TA.AperFunction,SMDPad,CuDef*
G36*
G01*
X97062500Y-95700000D02*
X97537500Y-95700000D01*
G75*
G02*
X97775000Y-95937500I0J-237500D01*
G01*
X97775000Y-96437500D01*
G75*
G02*
X97537500Y-96675000I-237500J0D01*
G01*
X97062500Y-96675000D01*
G75*
G02*
X96825000Y-96437500I0J237500D01*
G01*
X96825000Y-95937500D01*
G75*
G02*
X97062500Y-95700000I237500J0D01*
G01*
G37*
G04 #@! TD.AperFunction*
G04 #@! TA.AperFunction,SMDPad,CuDef*
G36*
G01*
X98662500Y-97525000D02*
X99137500Y-97525000D01*
G75*
G02*
X99375000Y-97762500I0J-237500D01*
G01*
X99375000Y-98262500D01*
G75*
G02*
X99137500Y-98500000I-237500J0D01*
G01*
X98662500Y-98500000D01*
G75*
G02*
X98425000Y-98262500I0J237500D01*
G01*
X98425000Y-97762500D01*
G75*
G02*
X98662500Y-97525000I237500J0D01*
G01*
G37*
G04 #@! TD.AperFunction*
G04 #@! TA.AperFunction,SMDPad,CuDef*
G36*
G01*
X98662500Y-95700000D02*
X99137500Y-95700000D01*
G75*
G02*
X99375000Y-95937500I0J-237500D01*
G01*
X99375000Y-96437500D01*
G75*
G02*
X99137500Y-96675000I-237500J0D01*
G01*
X98662500Y-96675000D01*
G75*
G02*
X98425000Y-96437500I0J237500D01*
G01*
X98425000Y-95937500D01*
G75*
G02*
X98662500Y-95700000I237500J0D01*
G01*
G37*
G04 #@! TD.AperFunction*
G04 #@! TA.AperFunction,SMDPad,CuDef*
G36*
G01*
X94125000Y-97037500D02*
X94125000Y-96562500D01*
G75*
G02*
X94362500Y-96325000I237500J0D01*
G01*
X94862500Y-96325000D01*
G75*
G02*
X95100000Y-96562500I0J-237500D01*
G01*
X95100000Y-97037500D01*
G75*
G02*
X94862500Y-97275000I-237500J0D01*
G01*
X94362500Y-97275000D01*
G75*
G02*
X94125000Y-97037500I0J237500D01*
G01*
G37*
G04 #@! TD.AperFunction*
G04 #@! TA.AperFunction,SMDPad,CuDef*
G36*
G01*
X92300000Y-97037500D02*
X92300000Y-96562500D01*
G75*
G02*
X92537500Y-96325000I237500J0D01*
G01*
X93037500Y-96325000D01*
G75*
G02*
X93275000Y-96562500I0J-237500D01*
G01*
X93275000Y-97037500D01*
G75*
G02*
X93037500Y-97275000I-237500J0D01*
G01*
X92537500Y-97275000D01*
G75*
G02*
X92300000Y-97037500I0J237500D01*
G01*
G37*
G04 #@! TD.AperFunction*
D10*
X80400000Y-100180000D03*
X81400000Y-100180000D03*
X82400000Y-100180000D03*
X83400000Y-100180000D03*
X84400000Y-100180000D03*
X85400000Y-100180000D03*
X86400000Y-100180000D03*
X87400000Y-100180000D03*
X88400000Y-100180000D03*
X89400000Y-100180000D03*
X90400000Y-100180000D03*
X91400000Y-100180000D03*
X92400000Y-100180000D03*
X93400000Y-100180000D03*
X94400000Y-100180000D03*
X95400000Y-100180000D03*
X96400000Y-100180000D03*
X97400000Y-100180000D03*
X98400000Y-100180000D03*
X99400000Y-100180000D03*
X100400000Y-100180000D03*
X100400000Y-113180000D03*
X99400000Y-113180000D03*
X98400000Y-113180000D03*
X97400000Y-113180000D03*
X96400000Y-113180000D03*
X95400000Y-113180000D03*
X94400000Y-113180000D03*
X93400000Y-113180000D03*
X92400000Y-113180000D03*
X91400000Y-113180000D03*
X90400000Y-113180000D03*
X89400000Y-113180000D03*
X88400000Y-113180000D03*
X87400000Y-113180000D03*
X86400000Y-113180000D03*
X85400000Y-113180000D03*
X84400000Y-113180000D03*
X83400000Y-113180000D03*
X82400000Y-113180000D03*
X81400000Y-113180000D03*
X80400000Y-113180000D03*
D11*
X101900000Y-102180000D03*
X101900000Y-103180000D03*
X101900000Y-104180000D03*
X101900000Y-105180000D03*
X101900000Y-106180000D03*
X101900000Y-107180000D03*
X101900000Y-108180000D03*
X101900000Y-109180000D03*
X101900000Y-110180000D03*
X101900000Y-111180000D03*
G04 #@! TA.AperFunction,SMDPad,CuDef*
G36*
G01*
X96100000Y-93887500D02*
X96100000Y-94312500D01*
G75*
G02*
X95887500Y-94525000I-212500J0D01*
G01*
X95087500Y-94525000D01*
G75*
G02*
X94875000Y-94312500I0J212500D01*
G01*
X94875000Y-93887500D01*
G75*
G02*
X95087500Y-93675000I212500J0D01*
G01*
X95887500Y-93675000D01*
G75*
G02*
X96100000Y-93887500I0J-212500D01*
G01*
G37*
G04 #@! TD.AperFunction*
G04 #@! TA.AperFunction,SMDPad,CuDef*
G36*
G01*
X97725000Y-93887500D02*
X97725000Y-94312500D01*
G75*
G02*
X97512500Y-94525000I-212500J0D01*
G01*
X96712500Y-94525000D01*
G75*
G02*
X96500000Y-94312500I0J212500D01*
G01*
X96500000Y-93887500D01*
G75*
G02*
X96712500Y-93675000I212500J0D01*
G01*
X97512500Y-93675000D01*
G75*
G02*
X97725000Y-93887500I0J-212500D01*
G01*
G37*
G04 #@! TD.AperFunction*
G04 #@! TA.AperFunction,SMDPad,CuDef*
G36*
G01*
X99700000Y-93887500D02*
X99700000Y-94312500D01*
G75*
G02*
X99487500Y-94525000I-212500J0D01*
G01*
X98687500Y-94525000D01*
G75*
G02*
X98475000Y-94312500I0J212500D01*
G01*
X98475000Y-93887500D01*
G75*
G02*
X98687500Y-93675000I212500J0D01*
G01*
X99487500Y-93675000D01*
G75*
G02*
X99700000Y-93887500I0J-212500D01*
G01*
G37*
G04 #@! TD.AperFunction*
G04 #@! TA.AperFunction,SMDPad,CuDef*
G36*
G01*
X101325000Y-93887500D02*
X101325000Y-94312500D01*
G75*
G02*
X101112500Y-94525000I-212500J0D01*
G01*
X100312500Y-94525000D01*
G75*
G02*
X100100000Y-94312500I0J212500D01*
G01*
X100100000Y-93887500D01*
G75*
G02*
X100312500Y-93675000I212500J0D01*
G01*
X101112500Y-93675000D01*
G75*
G02*
X101325000Y-93887500I0J-212500D01*
G01*
G37*
G04 #@! TD.AperFunction*
G04 #@! TA.AperFunction,SMDPad,CuDef*
G36*
G01*
X92600000Y-93887500D02*
X92600000Y-94312500D01*
G75*
G02*
X92387500Y-94525000I-212500J0D01*
G01*
X91587500Y-94525000D01*
G75*
G02*
X91375000Y-94312500I0J212500D01*
G01*
X91375000Y-93887500D01*
G75*
G02*
X91587500Y-93675000I212500J0D01*
G01*
X92387500Y-93675000D01*
G75*
G02*
X92600000Y-93887500I0J-212500D01*
G01*
G37*
G04 #@! TD.AperFunction*
G04 #@! TA.AperFunction,SMDPad,CuDef*
G36*
G01*
X94225000Y-93887500D02*
X94225000Y-94312500D01*
G75*
G02*
X94012500Y-94525000I-212500J0D01*
G01*
X93212500Y-94525000D01*
G75*
G02*
X93000000Y-94312500I0J212500D01*
G01*
X93000000Y-93887500D01*
G75*
G02*
X93212500Y-93675000I212500J0D01*
G01*
X94012500Y-93675000D01*
G75*
G02*
X94225000Y-93887500I0J-212500D01*
G01*
G37*
G04 #@! TD.AperFunction*
G04 #@! TA.AperFunction,SMDPad,CuDef*
G36*
G01*
X112295000Y-107160000D02*
X112295000Y-107160000D01*
G75*
G02*
X112195000Y-107060000I0J100000D01*
G01*
X112195000Y-106660000D01*
G75*
G02*
X112295000Y-106560000I100000J0D01*
G01*
X112295000Y-106560000D01*
G75*
G02*
X112395000Y-106660000I0J-100000D01*
G01*
X112395000Y-107060000D01*
G75*
G02*
X112295000Y-107160000I-100000J0D01*
G01*
G37*
G04 #@! TD.AperFunction*
D12*
X111170000Y-105460000D03*
G04 #@! TA.AperFunction,SMDPad,CuDef*
G36*
G01*
X111845000Y-107160000D02*
X111845000Y-107160000D01*
G75*
G02*
X111745000Y-107060000I0J100000D01*
G01*
X111745000Y-106660000D01*
G75*
G02*
X111845000Y-106560000I100000J0D01*
G01*
X111845000Y-106560000D01*
G75*
G02*
X111945000Y-106660000I0J-100000D01*
G01*
X111945000Y-107060000D01*
G75*
G02*
X111845000Y-107160000I-100000J0D01*
G01*
G37*
G04 #@! TD.AperFunction*
G04 #@! TA.AperFunction,SMDPad,CuDef*
G36*
G01*
X111395000Y-107160000D02*
X111395000Y-107160000D01*
G75*
G02*
X111295000Y-107060000I0J100000D01*
G01*
X111295000Y-106660000D01*
G75*
G02*
X111395000Y-106560000I100000J0D01*
G01*
X111395000Y-106560000D01*
G75*
G02*
X111495000Y-106660000I0J-100000D01*
G01*
X111495000Y-107060000D01*
G75*
G02*
X111395000Y-107160000I-100000J0D01*
G01*
G37*
G04 #@! TD.AperFunction*
G04 #@! TA.AperFunction,SMDPad,CuDef*
G36*
G01*
X110945000Y-107160000D02*
X110945000Y-107160000D01*
G75*
G02*
X110845000Y-107060000I0J100000D01*
G01*
X110845000Y-106660000D01*
G75*
G02*
X110945000Y-106560000I100000J0D01*
G01*
X110945000Y-106560000D01*
G75*
G02*
X111045000Y-106660000I0J-100000D01*
G01*
X111045000Y-107060000D01*
G75*
G02*
X110945000Y-107160000I-100000J0D01*
G01*
G37*
G04 #@! TD.AperFunction*
G04 #@! TA.AperFunction,SMDPad,CuDef*
G36*
G01*
X110495000Y-107160000D02*
X110495000Y-107160000D01*
G75*
G02*
X110395000Y-107060000I0J100000D01*
G01*
X110395000Y-106660000D01*
G75*
G02*
X110495000Y-106560000I100000J0D01*
G01*
X110495000Y-106560000D01*
G75*
G02*
X110595000Y-106660000I0J-100000D01*
G01*
X110595000Y-107060000D01*
G75*
G02*
X110495000Y-107160000I-100000J0D01*
G01*
G37*
G04 #@! TD.AperFunction*
G04 #@! TA.AperFunction,SMDPad,CuDef*
G36*
G01*
X110045000Y-107160000D02*
X110045000Y-107160000D01*
G75*
G02*
X109945000Y-107060000I0J100000D01*
G01*
X109945000Y-106660000D01*
G75*
G02*
X110045000Y-106560000I100000J0D01*
G01*
X110045000Y-106560000D01*
G75*
G02*
X110145000Y-106660000I0J-100000D01*
G01*
X110145000Y-107060000D01*
G75*
G02*
X110045000Y-107160000I-100000J0D01*
G01*
G37*
G04 #@! TD.AperFunction*
G04 #@! TA.AperFunction,SMDPad,CuDef*
G36*
G01*
X110045000Y-104360000D02*
X110045000Y-104360000D01*
G75*
G02*
X109945000Y-104260000I0J100000D01*
G01*
X109945000Y-103860000D01*
G75*
G02*
X110045000Y-103760000I100000J0D01*
G01*
X110045000Y-103760000D01*
G75*
G02*
X110145000Y-103860000I0J-100000D01*
G01*
X110145000Y-104260000D01*
G75*
G02*
X110045000Y-104360000I-100000J0D01*
G01*
G37*
G04 #@! TD.AperFunction*
G04 #@! TA.AperFunction,SMDPad,CuDef*
G36*
G01*
X110495000Y-104360000D02*
X110495000Y-104360000D01*
G75*
G02*
X110395000Y-104260000I0J100000D01*
G01*
X110395000Y-103860000D01*
G75*
G02*
X110495000Y-103760000I100000J0D01*
G01*
X110495000Y-103760000D01*
G75*
G02*
X110595000Y-103860000I0J-100000D01*
G01*
X110595000Y-104260000D01*
G75*
G02*
X110495000Y-104360000I-100000J0D01*
G01*
G37*
G04 #@! TD.AperFunction*
G04 #@! TA.AperFunction,SMDPad,CuDef*
G36*
G01*
X110945000Y-104360000D02*
X110945000Y-104360000D01*
G75*
G02*
X110845000Y-104260000I0J100000D01*
G01*
X110845000Y-103860000D01*
G75*
G02*
X110945000Y-103760000I100000J0D01*
G01*
X110945000Y-103760000D01*
G75*
G02*
X111045000Y-103860000I0J-100000D01*
G01*
X111045000Y-104260000D01*
G75*
G02*
X110945000Y-104360000I-100000J0D01*
G01*
G37*
G04 #@! TD.AperFunction*
G04 #@! TA.AperFunction,SMDPad,CuDef*
G36*
G01*
X111395000Y-104360000D02*
X111395000Y-104360000D01*
G75*
G02*
X111295000Y-104260000I0J100000D01*
G01*
X111295000Y-103860000D01*
G75*
G02*
X111395000Y-103760000I100000J0D01*
G01*
X111395000Y-103760000D01*
G75*
G02*
X111495000Y-103860000I0J-100000D01*
G01*
X111495000Y-104260000D01*
G75*
G02*
X111395000Y-104360000I-100000J0D01*
G01*
G37*
G04 #@! TD.AperFunction*
G04 #@! TA.AperFunction,SMDPad,CuDef*
G36*
G01*
X111845000Y-104360000D02*
X111845000Y-104360000D01*
G75*
G02*
X111745000Y-104260000I0J100000D01*
G01*
X111745000Y-103860000D01*
G75*
G02*
X111845000Y-103760000I100000J0D01*
G01*
X111845000Y-103760000D01*
G75*
G02*
X111945000Y-103860000I0J-100000D01*
G01*
X111945000Y-104260000D01*
G75*
G02*
X111845000Y-104360000I-100000J0D01*
G01*
G37*
G04 #@! TD.AperFunction*
G04 #@! TA.AperFunction,SMDPad,CuDef*
G36*
G01*
X112295000Y-104360000D02*
X112295000Y-104360000D01*
G75*
G02*
X112195000Y-104260000I0J100000D01*
G01*
X112195000Y-103860000D01*
G75*
G02*
X112295000Y-103760000I100000J0D01*
G01*
X112295000Y-103760000D01*
G75*
G02*
X112395000Y-103860000I0J-100000D01*
G01*
X112395000Y-104260000D01*
G75*
G02*
X112295000Y-104360000I-100000J0D01*
G01*
G37*
G04 #@! TD.AperFunction*
D13*
X111670000Y-105460000D03*
X110670000Y-105460000D03*
D14*
X104875000Y-111125000D03*
D15*
X108705000Y-114180000D03*
X111245000Y-114180000D03*
X102880000Y-114230000D03*
X105420000Y-114230000D03*
X114530000Y-114180000D03*
X117070000Y-114180000D03*
D16*
X102912000Y-98608000D03*
X101812000Y-98608000D03*
D17*
X102362000Y-98608000D03*
D14*
X105600000Y-95450000D03*
G04 #@! TA.AperFunction,SMDPad,CuDef*
G36*
G01*
X86800000Y-94112500D02*
X86800000Y-94587500D01*
G75*
G02*
X86562500Y-94825000I-237500J0D01*
G01*
X85987500Y-94825000D01*
G75*
G02*
X85750000Y-94587500I0J237500D01*
G01*
X85750000Y-94112500D01*
G75*
G02*
X85987500Y-93875000I237500J0D01*
G01*
X86562500Y-93875000D01*
G75*
G02*
X86800000Y-94112500I0J-237500D01*
G01*
G37*
G04 #@! TD.AperFunction*
G04 #@! TA.AperFunction,SMDPad,CuDef*
G36*
G01*
X88550000Y-94112500D02*
X88550000Y-94587500D01*
G75*
G02*
X88312500Y-94825000I-237500J0D01*
G01*
X87737500Y-94825000D01*
G75*
G02*
X87500000Y-94587500I0J237500D01*
G01*
X87500000Y-94112500D01*
G75*
G02*
X87737500Y-93875000I237500J0D01*
G01*
X88312500Y-93875000D01*
G75*
G02*
X88550000Y-94112500I0J-237500D01*
G01*
G37*
G04 #@! TD.AperFunction*
G04 #@! TA.AperFunction,SMDPad,CuDef*
G36*
G01*
X86800000Y-95712500D02*
X86800000Y-96187500D01*
G75*
G02*
X86562500Y-96425000I-237500J0D01*
G01*
X85987500Y-96425000D01*
G75*
G02*
X85750000Y-96187500I0J237500D01*
G01*
X85750000Y-95712500D01*
G75*
G02*
X85987500Y-95475000I237500J0D01*
G01*
X86562500Y-95475000D01*
G75*
G02*
X86800000Y-95712500I0J-237500D01*
G01*
G37*
G04 #@! TD.AperFunction*
G04 #@! TA.AperFunction,SMDPad,CuDef*
G36*
G01*
X88550000Y-95712500D02*
X88550000Y-96187500D01*
G75*
G02*
X88312500Y-96425000I-237500J0D01*
G01*
X87737500Y-96425000D01*
G75*
G02*
X87500000Y-96187500I0J237500D01*
G01*
X87500000Y-95712500D01*
G75*
G02*
X87737500Y-95475000I237500J0D01*
G01*
X88312500Y-95475000D01*
G75*
G02*
X88550000Y-95712500I0J-237500D01*
G01*
G37*
G04 #@! TD.AperFunction*
D18*
X116920000Y-93950000D03*
X108280000Y-93950000D03*
X108280000Y-97750000D03*
X116920000Y-97750000D03*
D19*
X109850000Y-98112500D03*
X115350000Y-98112500D03*
D20*
X111100000Y-98112500D03*
X114100000Y-98112500D03*
X113100000Y-98112500D03*
X112100000Y-98112500D03*
G04 #@! TA.AperFunction,SMDPad,CuDef*
G36*
G01*
X112670000Y-101810000D02*
X112670000Y-100110000D01*
G75*
G02*
X112920000Y-99860000I250000J0D01*
G01*
X113845000Y-99860000D01*
G75*
G02*
X114095000Y-100110000I0J-250000D01*
G01*
X114095000Y-101810000D01*
G75*
G02*
X113845000Y-102060000I-250000J0D01*
G01*
X112920000Y-102060000D01*
G75*
G02*
X112670000Y-101810000I0J250000D01*
G01*
G37*
G04 #@! TD.AperFunction*
G04 #@! TA.AperFunction,SMDPad,CuDef*
G36*
G01*
X110345000Y-101810000D02*
X110345000Y-100110000D01*
G75*
G02*
X110595000Y-99860000I250000J0D01*
G01*
X111520000Y-99860000D01*
G75*
G02*
X111770000Y-100110000I0J-250000D01*
G01*
X111770000Y-101810000D01*
G75*
G02*
X111520000Y-102060000I-250000J0D01*
G01*
X110595000Y-102060000D01*
G75*
G02*
X110345000Y-101810000I0J250000D01*
G01*
G37*
G04 #@! TD.AperFunction*
G04 #@! TA.AperFunction,SMDPad,CuDef*
G36*
G01*
X114650000Y-104225000D02*
X116350000Y-104225000D01*
G75*
G02*
X116600000Y-104475000I0J-250000D01*
G01*
X116600000Y-105400000D01*
G75*
G02*
X116350000Y-105650000I-250000J0D01*
G01*
X114650000Y-105650000D01*
G75*
G02*
X114400000Y-105400000I0J250000D01*
G01*
X114400000Y-104475000D01*
G75*
G02*
X114650000Y-104225000I250000J0D01*
G01*
G37*
G04 #@! TD.AperFunction*
G04 #@! TA.AperFunction,SMDPad,CuDef*
G36*
G01*
X114650000Y-106550000D02*
X116350000Y-106550000D01*
G75*
G02*
X116600000Y-106800000I0J-250000D01*
G01*
X116600000Y-107725000D01*
G75*
G02*
X116350000Y-107975000I-250000J0D01*
G01*
X114650000Y-107975000D01*
G75*
G02*
X114400000Y-107725000I0J250000D01*
G01*
X114400000Y-106800000D01*
G75*
G02*
X114650000Y-106550000I250000J0D01*
G01*
G37*
G04 #@! TD.AperFunction*
G04 #@! TA.AperFunction,SMDPad,CuDef*
G36*
G01*
X109656500Y-102998000D02*
X109656500Y-102688000D01*
G75*
G02*
X109811500Y-102533000I155000J0D01*
G01*
X110236500Y-102533000D01*
G75*
G02*
X110391500Y-102688000I0J-155000D01*
G01*
X110391500Y-102998000D01*
G75*
G02*
X110236500Y-103153000I-155000J0D01*
G01*
X109811500Y-103153000D01*
G75*
G02*
X109656500Y-102998000I0J155000D01*
G01*
G37*
G04 #@! TD.AperFunction*
G04 #@! TA.AperFunction,SMDPad,CuDef*
G36*
G01*
X108521500Y-102998000D02*
X108521500Y-102688000D01*
G75*
G02*
X108676500Y-102533000I155000J0D01*
G01*
X109101500Y-102533000D01*
G75*
G02*
X109256500Y-102688000I0J-155000D01*
G01*
X109256500Y-102998000D01*
G75*
G02*
X109101500Y-103153000I-155000J0D01*
G01*
X108676500Y-103153000D01*
G75*
G02*
X108521500Y-102998000I0J155000D01*
G01*
G37*
G04 #@! TD.AperFunction*
G04 #@! TA.AperFunction,SMDPad,CuDef*
G36*
G01*
X110340000Y-107745000D02*
X110340000Y-108055000D01*
G75*
G02*
X110185000Y-108210000I-155000J0D01*
G01*
X109760000Y-108210000D01*
G75*
G02*
X109605000Y-108055000I0J155000D01*
G01*
X109605000Y-107745000D01*
G75*
G02*
X109760000Y-107590000I155000J0D01*
G01*
X110185000Y-107590000D01*
G75*
G02*
X110340000Y-107745000I0J-155000D01*
G01*
G37*
G04 #@! TD.AperFunction*
G04 #@! TA.AperFunction,SMDPad,CuDef*
G36*
G01*
X111475000Y-107745000D02*
X111475000Y-108055000D01*
G75*
G02*
X111320000Y-108210000I-155000J0D01*
G01*
X110895000Y-108210000D01*
G75*
G02*
X110740000Y-108055000I0J155000D01*
G01*
X110740000Y-107745000D01*
G75*
G02*
X110895000Y-107590000I155000J0D01*
G01*
X111320000Y-107590000D01*
G75*
G02*
X111475000Y-107745000I0J-155000D01*
G01*
G37*
G04 #@! TD.AperFunction*
G04 #@! TA.AperFunction,SMDPad,CuDef*
G36*
G01*
X113395000Y-104930000D02*
X113705000Y-104930000D01*
G75*
G02*
X113860000Y-105085000I0J-155000D01*
G01*
X113860000Y-105510000D01*
G75*
G02*
X113705000Y-105665000I-155000J0D01*
G01*
X113395000Y-105665000D01*
G75*
G02*
X113240000Y-105510000I0J155000D01*
G01*
X113240000Y-105085000D01*
G75*
G02*
X113395000Y-104930000I155000J0D01*
G01*
G37*
G04 #@! TD.AperFunction*
G04 #@! TA.AperFunction,SMDPad,CuDef*
G36*
G01*
X113395000Y-103795000D02*
X113705000Y-103795000D01*
G75*
G02*
X113860000Y-103950000I0J-155000D01*
G01*
X113860000Y-104375000D01*
G75*
G02*
X113705000Y-104530000I-155000J0D01*
G01*
X113395000Y-104530000D01*
G75*
G02*
X113240000Y-104375000I0J155000D01*
G01*
X113240000Y-103950000D01*
G75*
G02*
X113395000Y-103795000I155000J0D01*
G01*
G37*
G04 #@! TD.AperFunction*
G04 #@! TA.AperFunction,SMDPad,CuDef*
G36*
G01*
X87760000Y-97840000D02*
X87760000Y-98160000D01*
G75*
G02*
X87600000Y-98320000I-160000J0D01*
G01*
X87205000Y-98320000D01*
G75*
G02*
X87045000Y-98160000I0J160000D01*
G01*
X87045000Y-97840000D01*
G75*
G02*
X87205000Y-97680000I160000J0D01*
G01*
X87600000Y-97680000D01*
G75*
G02*
X87760000Y-97840000I0J-160000D01*
G01*
G37*
G04 #@! TD.AperFunction*
G04 #@! TA.AperFunction,SMDPad,CuDef*
G36*
G01*
X88955000Y-97840000D02*
X88955000Y-98160000D01*
G75*
G02*
X88795000Y-98320000I-160000J0D01*
G01*
X88400000Y-98320000D01*
G75*
G02*
X88240000Y-98160000I0J160000D01*
G01*
X88240000Y-97840000D01*
G75*
G02*
X88400000Y-97680000I160000J0D01*
G01*
X88795000Y-97680000D01*
G75*
G02*
X88955000Y-97840000I0J-160000D01*
G01*
G37*
G04 #@! TD.AperFunction*
G04 #@! TA.AperFunction,SMDPad,CuDef*
G36*
G01*
X95000000Y-114955000D02*
X95000000Y-114645000D01*
G75*
G02*
X95155000Y-114490000I155000J0D01*
G01*
X95580000Y-114490000D01*
G75*
G02*
X95735000Y-114645000I0J-155000D01*
G01*
X95735000Y-114955000D01*
G75*
G02*
X95580000Y-115110000I-155000J0D01*
G01*
X95155000Y-115110000D01*
G75*
G02*
X95000000Y-114955000I0J155000D01*
G01*
G37*
G04 #@! TD.AperFunction*
G04 #@! TA.AperFunction,SMDPad,CuDef*
G36*
G01*
X93865000Y-114955000D02*
X93865000Y-114645000D01*
G75*
G02*
X94020000Y-114490000I155000J0D01*
G01*
X94445000Y-114490000D01*
G75*
G02*
X94600000Y-114645000I0J-155000D01*
G01*
X94600000Y-114955000D01*
G75*
G02*
X94445000Y-115110000I-155000J0D01*
G01*
X94020000Y-115110000D01*
G75*
G02*
X93865000Y-114955000I0J155000D01*
G01*
G37*
G04 #@! TD.AperFunction*
G04 #@! TA.AperFunction,SMDPad,CuDef*
G36*
G01*
X97840000Y-114860000D02*
X97840000Y-114540000D01*
G75*
G02*
X98000000Y-114380000I160000J0D01*
G01*
X98395000Y-114380000D01*
G75*
G02*
X98555000Y-114540000I0J-160000D01*
G01*
X98555000Y-114860000D01*
G75*
G02*
X98395000Y-115020000I-160000J0D01*
G01*
X98000000Y-115020000D01*
G75*
G02*
X97840000Y-114860000I0J160000D01*
G01*
G37*
G04 #@! TD.AperFunction*
G04 #@! TA.AperFunction,SMDPad,CuDef*
G36*
G01*
X96645000Y-114860000D02*
X96645000Y-114540000D01*
G75*
G02*
X96805000Y-114380000I160000J0D01*
G01*
X97200000Y-114380000D01*
G75*
G02*
X97360000Y-114540000I0J-160000D01*
G01*
X97360000Y-114860000D01*
G75*
G02*
X97200000Y-115020000I-160000J0D01*
G01*
X96805000Y-115020000D01*
G75*
G02*
X96645000Y-114860000I0J160000D01*
G01*
G37*
G04 #@! TD.AperFunction*
D21*
X82750000Y-108250000D03*
X81500000Y-107000000D03*
X85250000Y-110750000D03*
X84000000Y-109500000D03*
G04 #@! TA.AperFunction,SMDPad,CuDef*
G36*
G01*
X112920000Y-103215000D02*
X112920000Y-102905000D01*
G75*
G02*
X113075000Y-102750000I155000J0D01*
G01*
X113500000Y-102750000D01*
G75*
G02*
X113655000Y-102905000I0J-155000D01*
G01*
X113655000Y-103215000D01*
G75*
G02*
X113500000Y-103370000I-155000J0D01*
G01*
X113075000Y-103370000D01*
G75*
G02*
X112920000Y-103215000I0J155000D01*
G01*
G37*
G04 #@! TD.AperFunction*
G04 #@! TA.AperFunction,SMDPad,CuDef*
G36*
G01*
X111785000Y-103215000D02*
X111785000Y-102905000D01*
G75*
G02*
X111940000Y-102750000I155000J0D01*
G01*
X112365000Y-102750000D01*
G75*
G02*
X112520000Y-102905000I0J-155000D01*
G01*
X112520000Y-103215000D01*
G75*
G02*
X112365000Y-103370000I-155000J0D01*
G01*
X111940000Y-103370000D01*
G75*
G02*
X111785000Y-103215000I0J155000D01*
G01*
G37*
G04 #@! TD.AperFunction*
D22*
X103450000Y-113950000D03*
X89750000Y-110050000D03*
X89750000Y-111050000D03*
X95300000Y-111400000D03*
X94350000Y-111750000D03*
D23*
X90800000Y-103950000D03*
X90800000Y-103350000D03*
D22*
X89750000Y-98550000D03*
X88500000Y-97050000D03*
X114000000Y-114850000D03*
X117400000Y-112250000D03*
X117400000Y-110250000D03*
X87350000Y-97050000D03*
D23*
X89950000Y-104000000D03*
D22*
X106950000Y-109950000D03*
D23*
X84675000Y-104825000D03*
X83925000Y-102875000D03*
X84850000Y-103575000D03*
X85930000Y-107470000D03*
X84700000Y-106250000D03*
X83600000Y-105225000D03*
X101600000Y-100386000D03*
X101150000Y-100386000D03*
D22*
X100150000Y-110550000D03*
X80900000Y-111500000D03*
X81900000Y-111500000D03*
X81300000Y-102000000D03*
D23*
X96600000Y-115000000D03*
X96600000Y-114500000D03*
X93700000Y-114500000D03*
X93700000Y-115000000D03*
D22*
X105750000Y-100050000D03*
X91130000Y-107730000D03*
X93400000Y-104800000D03*
X95400000Y-106550000D03*
X93400000Y-106550000D03*
D23*
X94750000Y-102300000D03*
X95200000Y-102300000D03*
X95650000Y-102300000D03*
X96150000Y-102300000D03*
D22*
X95400000Y-104800000D03*
D23*
X92399500Y-111050500D03*
X93277750Y-110672250D03*
X92667250Y-110317250D03*
X101200000Y-97500000D03*
X95750000Y-109220000D03*
D22*
X103750000Y-101950000D03*
X90150000Y-108050000D03*
X90150000Y-109100000D03*
D23*
X108530000Y-99130000D03*
X108650000Y-99750000D03*
D22*
X109825000Y-108900000D03*
D23*
X114030000Y-102930000D03*
D22*
X113675000Y-101650000D03*
X116400000Y-96150000D03*
X113150000Y-96600000D03*
X112050000Y-96600000D03*
D23*
X108410000Y-101150000D03*
D22*
X99510000Y-103490000D03*
D23*
X95670000Y-101620000D03*
X98650000Y-102250000D03*
X100560000Y-97840000D03*
D22*
X106975000Y-97000000D03*
X81680000Y-105000000D03*
X91600000Y-97650000D03*
D23*
X91700000Y-103300000D03*
D22*
X95050000Y-98600000D03*
D23*
X95900000Y-97550000D03*
D22*
X104300000Y-98700000D03*
X105600000Y-97750000D03*
X106750000Y-102400000D03*
X107700000Y-111900000D03*
D23*
X92250000Y-103200000D03*
D22*
X113700000Y-109350000D03*
X114900000Y-109350000D03*
D23*
X108150000Y-103200000D03*
D22*
X90650000Y-98050000D03*
D23*
X103000000Y-111825000D03*
D22*
X101400000Y-113650000D03*
X109850000Y-97100000D03*
X115350000Y-97150000D03*
X91800000Y-95450000D03*
X82800000Y-96650000D03*
X84550000Y-95250000D03*
D23*
X113300000Y-105700000D03*
D22*
X95400000Y-95200000D03*
X94325000Y-95250000D03*
D23*
X85450000Y-106375000D03*
X89950000Y-103300000D03*
D22*
X117500000Y-102000000D03*
X117500000Y-104000000D03*
X105950000Y-98850000D03*
X106685000Y-98115000D03*
X112550000Y-108400000D03*
X109800000Y-102250000D03*
X99400000Y-114480000D03*
X108000000Y-114875000D03*
X84350000Y-97950000D03*
X114100000Y-97350000D03*
X111100000Y-97350000D03*
X85400000Y-94350000D03*
X80800000Y-104400000D03*
D23*
X102750000Y-112500000D03*
X112175000Y-113425000D03*
X98050000Y-101800000D03*
D22*
X83400000Y-104300000D03*
X85400000Y-105450000D03*
X86400000Y-106200000D03*
D24*
X96400000Y-113767500D02*
X95367500Y-114800000D01*
X96400000Y-113180000D02*
X96400000Y-113867500D01*
D25*
X95920000Y-111400000D02*
X95300000Y-111400000D01*
X96400000Y-111880000D02*
X95920000Y-111400000D01*
X96400000Y-113180000D02*
X96400000Y-111880000D01*
X92550999Y-108650999D02*
X92550999Y-105700999D01*
X95300000Y-111400000D02*
X92550999Y-108650999D01*
X90800000Y-103950000D02*
X90800000Y-103950000D01*
X90800000Y-103950000D02*
X92550999Y-105700999D01*
X90800000Y-103350000D02*
X90800000Y-103950000D01*
X89200000Y-98000000D02*
X89750000Y-98550000D01*
X88597500Y-98000000D02*
X89200000Y-98000000D01*
X88500000Y-97902500D02*
X88597500Y-98000000D01*
X88500000Y-97050000D02*
X88500000Y-97902500D01*
X114500000Y-114150000D02*
X114530000Y-114180000D01*
X113850000Y-114150000D02*
X114500000Y-114150000D01*
X103170000Y-114230000D02*
X103450000Y-113950000D01*
X102880000Y-114230000D02*
X103170000Y-114230000D01*
D24*
X82400000Y-113865002D02*
X82400000Y-113180000D01*
D25*
X81900000Y-111600000D02*
X82000000Y-111600000D01*
X82400000Y-112100000D02*
X81900000Y-111600000D01*
X82400000Y-113180000D02*
X82400000Y-112100000D01*
X80400000Y-101100000D02*
X81300000Y-102000000D01*
X80400000Y-100180000D02*
X80400000Y-101100000D01*
D24*
X96800000Y-114700000D02*
X96600000Y-114500000D01*
X97002500Y-114700000D02*
X96800000Y-114700000D01*
X96900000Y-114700000D02*
X96600000Y-115000000D01*
X97002500Y-114700000D02*
X96900000Y-114700000D01*
X96600000Y-115000000D02*
X96600000Y-114500000D01*
X93900000Y-114800000D02*
X93700000Y-115000000D01*
X94232500Y-114800000D02*
X93900000Y-114800000D01*
X93700000Y-115000000D02*
X93700000Y-114500000D01*
X94000000Y-114800000D02*
X93700000Y-114500000D01*
X94232500Y-114800000D02*
X94000000Y-114800000D01*
X110945000Y-105685000D02*
X111170000Y-105460000D01*
X110945000Y-106860000D02*
X110945000Y-106155000D01*
X111845000Y-106135000D02*
X111170000Y-105460000D01*
X111845000Y-106860000D02*
X111845000Y-106135000D01*
X111845000Y-106135000D02*
X111845000Y-106135000D01*
X110945000Y-106155000D02*
X110945000Y-105685000D01*
X110495000Y-106135000D02*
X111170000Y-105460000D01*
X110495000Y-106860000D02*
X110495000Y-106135000D01*
X110045000Y-106860000D02*
X110045000Y-106305000D01*
X110890000Y-105460000D02*
X111170000Y-105460000D01*
X110045000Y-106305000D02*
X110890000Y-105460000D01*
D25*
X113928020Y-103060000D02*
X114030000Y-102958020D01*
X113287500Y-103060000D02*
X113928020Y-103060000D01*
D24*
X110493980Y-104443980D02*
X110493980Y-104060000D01*
X110825000Y-104775000D02*
X110493980Y-104443980D01*
X111170000Y-105120000D02*
X110825000Y-104775000D01*
X111170000Y-105460000D02*
X111170000Y-105120000D01*
D25*
X80400000Y-112000000D02*
X80900000Y-111500000D01*
X80400000Y-113180000D02*
X80400000Y-112000000D01*
X113382500Y-100960000D02*
X113110000Y-100960000D01*
X103520000Y-102180000D02*
X103750000Y-101950000D01*
X101900000Y-102180000D02*
X103520000Y-102180000D01*
X108507000Y-102843000D02*
X108150000Y-103200000D01*
X108889000Y-102843000D02*
X108507000Y-102843000D01*
X100870000Y-113650000D02*
X100400000Y-113180000D01*
X101400000Y-113650000D02*
X100870000Y-113650000D01*
X115350000Y-98112500D02*
X115350000Y-97150000D01*
X109850000Y-98112500D02*
X109850000Y-97100000D01*
X113300000Y-105547500D02*
X113550000Y-105297500D01*
X113300000Y-105700000D02*
X113300000Y-105547500D01*
X109825000Y-108047500D02*
X109972500Y-107900000D01*
X109825000Y-108900000D02*
X109825000Y-108047500D01*
X113382500Y-101382500D02*
X113675000Y-101675000D01*
X113382500Y-100960000D02*
X113382500Y-101382500D01*
D24*
X111845000Y-103367500D02*
X112152500Y-103060000D01*
X111845000Y-104060000D02*
X111845000Y-103367500D01*
X114384010Y-102384010D02*
X114544010Y-102224010D01*
X112828490Y-102384010D02*
X114384010Y-102384010D01*
X112152500Y-103060000D02*
X112828490Y-102384010D01*
D25*
X114544010Y-99820458D02*
X114544010Y-102224010D01*
X113860000Y-104162500D02*
X113550000Y-104162500D01*
X114729008Y-103293492D02*
X113860000Y-104162500D01*
X114729008Y-102668480D02*
X114729008Y-103293492D01*
X114544010Y-102483482D02*
X114729008Y-102668480D01*
X114544010Y-102224010D02*
X114544010Y-102483482D01*
D24*
X113447500Y-104060000D02*
X113550000Y-104162500D01*
X112295000Y-104060000D02*
X113447500Y-104060000D01*
D25*
X105950000Y-98850000D02*
X106699001Y-98100999D01*
X108021452Y-104060000D02*
X109919970Y-104060000D01*
X107450992Y-103489540D02*
X108021452Y-104060000D01*
X107450992Y-102910460D02*
X107450992Y-103489540D01*
X107700000Y-102661452D02*
X107450992Y-102910460D01*
X107700000Y-100600000D02*
X107700000Y-102661452D01*
X105950000Y-98850000D02*
X107700000Y-100600000D01*
X114725000Y-104162500D02*
X113860000Y-104162500D01*
X115500000Y-104937500D02*
X114725000Y-104162500D01*
X114134542Y-99410990D02*
X114544010Y-99820458D01*
X110305458Y-99410990D02*
X114134542Y-99410990D01*
X109317447Y-100399001D02*
X110305458Y-99410990D01*
X108200477Y-100399001D02*
X109317447Y-100399001D01*
X107999478Y-100600000D02*
X108200477Y-100399001D01*
X107700000Y-100600000D02*
X107999478Y-100600000D01*
D24*
X111395000Y-107612500D02*
X111107500Y-107900000D01*
X111395000Y-106860000D02*
X111395000Y-107612500D01*
D25*
X111607500Y-108400000D02*
X111107500Y-107900000D01*
X112550000Y-108400000D02*
X111607500Y-108400000D01*
X110024000Y-102843000D02*
X110024000Y-102826000D01*
D24*
X110942990Y-103394490D02*
X110942990Y-104060000D01*
X110391500Y-102843000D02*
X110024000Y-102843000D01*
X110942990Y-103394490D02*
X110391500Y-102843000D01*
D25*
X109800000Y-102619000D02*
X110024000Y-102843000D01*
X109800000Y-102250000D02*
X109800000Y-102619000D01*
X88025000Y-95950000D02*
X88025000Y-94350000D01*
D24*
X95375000Y-93987500D02*
X95487500Y-94100000D01*
X95487500Y-94100000D02*
X96236510Y-93350990D01*
D25*
X99400000Y-114480000D02*
X99400000Y-114480000D01*
X99400000Y-113180000D02*
X99400000Y-114480000D01*
X86275000Y-95950000D02*
X86275000Y-96025000D01*
X86275000Y-96025000D02*
X84350000Y-97950000D01*
X84350000Y-97950000D02*
X84350000Y-97950000D01*
X108635000Y-114250000D02*
X108705000Y-114180000D01*
X108010000Y-114875000D02*
X108705000Y-114180000D01*
X108000000Y-114875000D02*
X108010000Y-114875000D01*
X93400000Y-112269998D02*
X93400000Y-113180000D01*
X93060001Y-111929999D02*
X93400000Y-112269998D01*
X83619962Y-111929999D02*
X93060001Y-111929999D01*
X82189953Y-110499990D02*
X83619962Y-111929999D01*
X81454988Y-110499990D02*
X82189953Y-110499990D01*
X80800000Y-109845002D02*
X81454988Y-110499990D01*
X114100000Y-98112500D02*
X114100000Y-97350000D01*
X111100000Y-98112500D02*
X111100000Y-97350000D01*
X85400000Y-94350000D02*
X86275000Y-94350000D01*
X81000000Y-107000000D02*
X80800000Y-107200000D01*
X81500000Y-107000000D02*
X81000000Y-107000000D01*
X80800000Y-107200000D02*
X80800000Y-109845002D01*
X80800000Y-104400000D02*
X80800000Y-107200000D01*
D24*
X87250000Y-105250000D02*
X87250000Y-104676998D01*
X87250000Y-106421522D02*
X86747521Y-106924001D01*
X87250000Y-105250000D02*
X87250000Y-106421522D01*
X87250000Y-104073490D02*
X87250000Y-104440770D01*
X90018489Y-101305001D02*
X87250000Y-104073490D01*
X92324999Y-101305001D02*
X90018489Y-101305001D01*
X92400000Y-101230000D02*
X92324999Y-101305001D01*
X87250000Y-104440770D02*
X87250000Y-105250000D01*
X92400000Y-100180000D02*
X92400000Y-101230000D01*
X84075999Y-106924001D02*
X82750000Y-108250000D01*
X86747521Y-106924001D02*
X84075999Y-106924001D01*
X88100000Y-105100000D02*
X88100000Y-104463408D01*
X88100000Y-106206518D02*
X88100000Y-105100000D01*
X88100000Y-104227180D02*
X88100000Y-105100000D01*
X88100000Y-103858486D02*
X88100000Y-104227180D01*
X90203475Y-101755011D02*
X88100000Y-103858486D01*
X92511400Y-101755010D02*
X90203475Y-101755011D01*
X93400000Y-100866410D02*
X92511400Y-101755010D01*
X93400000Y-100180000D02*
X93400000Y-100866410D01*
X84806518Y-109500000D02*
X84000000Y-109500000D01*
X88100000Y-106206518D02*
X84806518Y-109500000D01*
D25*
X112821510Y-107262500D02*
X112419010Y-106860000D01*
X115500000Y-107262500D02*
X112821510Y-107262500D01*
D24*
X111395990Y-101698490D02*
X111277500Y-101580000D01*
X111420989Y-101323489D02*
X111057500Y-100960000D01*
X111395000Y-101297500D02*
X111057500Y-100960000D01*
X111395000Y-104060000D02*
X111395000Y-101297500D01*
X94612500Y-97090978D02*
X94612500Y-96800000D01*
X96400000Y-98878478D02*
X94612500Y-97090978D01*
X96400000Y-100180000D02*
X96400000Y-98878478D01*
X97400000Y-98112500D02*
X97300000Y-98012500D01*
X97400000Y-100180000D02*
X97400000Y-98112500D01*
X98400000Y-98512500D02*
X98900000Y-98012500D01*
X98400000Y-100180000D02*
X98400000Y-98512500D01*
X87400000Y-98002500D02*
X87402500Y-98000000D01*
X87400000Y-100180000D02*
X87400000Y-98002500D01*
X98400000Y-114497500D02*
X98197500Y-114700000D01*
X98400000Y-113180000D02*
X98400000Y-114597500D01*
D25*
X98400000Y-113180000D02*
X98400000Y-112450000D01*
X98400000Y-112450000D02*
X98500000Y-112350000D01*
D24*
X101900000Y-112500000D02*
X102750000Y-112500000D01*
X101455999Y-112055999D02*
X101900000Y-112500000D01*
X98794001Y-112055999D02*
X101455999Y-112055999D01*
X98500000Y-112350000D02*
X98794001Y-112055999D01*
X112000000Y-113425000D02*
X111245000Y-114180000D01*
X112175000Y-113425000D02*
X112000000Y-113425000D01*
X97400000Y-113180000D02*
X97400000Y-102450000D01*
X97400000Y-102450000D02*
X98050000Y-101800000D01*
X98050000Y-101800000D02*
X98050000Y-101800000D01*
X83400000Y-104300000D02*
X83400000Y-100180000D01*
X85400000Y-100180000D02*
X85400000Y-105400000D01*
X85400000Y-105400000D02*
X85400000Y-105400000D01*
X86400000Y-106200000D02*
X86400000Y-100180000D01*
X97300000Y-94287500D02*
X97112500Y-94100000D01*
X97300000Y-96187500D02*
X97300000Y-94287500D01*
X98900000Y-94287500D02*
X99087500Y-94100000D01*
X98338490Y-93350990D02*
X99087500Y-94100000D01*
X96236510Y-93350990D02*
X98338490Y-93350990D01*
X88275000Y-94100000D02*
X88025000Y-94350000D01*
X91987500Y-94100000D02*
X88275000Y-94100000D01*
X94738490Y-93350990D02*
X95487500Y-94100000D01*
X92736510Y-93350990D02*
X94738490Y-93350990D01*
X91987500Y-94100000D02*
X92736510Y-93350990D01*
X92787500Y-94925000D02*
X93612500Y-94100000D01*
X92787500Y-96800000D02*
X92787500Y-94925000D01*
X98900000Y-95912500D02*
X98900000Y-96187500D01*
X100712500Y-94100000D02*
X98900000Y-95912500D01*
X111546517Y-112839999D02*
X115729999Y-112839999D01*
X105886518Y-107180000D02*
X111546517Y-112839999D01*
X115729999Y-112839999D02*
X117070000Y-114180000D01*
X101900000Y-107180000D02*
X105886518Y-107180000D01*
X106441522Y-114230000D02*
X105420000Y-114230000D01*
X108424001Y-112247521D02*
X106441522Y-114230000D01*
X108424001Y-110352479D02*
X108424001Y-112247521D01*
X106251522Y-108180000D02*
X108424001Y-110352479D01*
X101900000Y-108180000D02*
X106251522Y-108180000D01*
M02*
